G04 #@! TF.GenerationSoftware,KiCad,Pcbnew,8.0.4*
G04 #@! TF.CreationDate,2024-09-02T14:28:07-04:00*
G04 #@! TF.ProjectId,360_atx_power_board,3336305f-6174-4785-9f70-6f7765725f62,rev?*
G04 #@! TF.SameCoordinates,Original*
G04 #@! TF.FileFunction,Copper,L4,Bot*
G04 #@! TF.FilePolarity,Positive*
%FSLAX46Y46*%
G04 Gerber Fmt 4.6, Leading zero omitted, Abs format (unit mm)*
G04 Created by KiCad (PCBNEW 8.0.4) date 2024-09-02 14:28:07*
%MOMM*%
%LPD*%
G01*
G04 APERTURE LIST*
G04 #@! TA.AperFunction,ComponentPad*
%ADD10R,2.150000X2.150000*%
G04 #@! TD*
G04 #@! TA.AperFunction,ComponentPad*
%ADD11C,2.150000*%
G04 #@! TD*
G04 #@! TA.AperFunction,ComponentPad*
%ADD12R,2.600000X2.600000*%
G04 #@! TD*
G04 #@! TA.AperFunction,ComponentPad*
%ADD13C,2.600000*%
G04 #@! TD*
G04 #@! TA.AperFunction,ComponentPad*
%ADD14C,5.500000*%
G04 #@! TD*
G04 #@! TA.AperFunction,ComponentPad*
%ADD15C,2.400000*%
G04 #@! TD*
G04 #@! TA.AperFunction,ComponentPad*
%ADD16R,2.775000X2.775000*%
G04 #@! TD*
G04 #@! TA.AperFunction,ComponentPad*
%ADD17C,2.775000*%
G04 #@! TD*
G04 #@! TA.AperFunction,ComponentPad*
%ADD18R,1.530000X1.530000*%
G04 #@! TD*
G04 #@! TA.AperFunction,ComponentPad*
%ADD19C,1.550000*%
G04 #@! TD*
G04 #@! TA.AperFunction,ComponentPad*
%ADD20R,2.000000X2.000000*%
G04 #@! TD*
G04 #@! TA.AperFunction,ComponentPad*
%ADD21O,2.000000X2.000000*%
G04 #@! TD*
G04 #@! TA.AperFunction,ViaPad*
%ADD22C,0.600000*%
G04 #@! TD*
G04 #@! TA.AperFunction,Conductor*
%ADD23C,0.500000*%
G04 #@! TD*
G04 #@! TA.AperFunction,Conductor*
%ADD24C,1.250000*%
G04 #@! TD*
G04 #@! TA.AperFunction,Conductor*
%ADD25C,0.750000*%
G04 #@! TD*
G04 #@! TA.AperFunction,Conductor*
%ADD26C,2.250000*%
G04 #@! TD*
G04 APERTURE END LIST*
D10*
X113150000Y-68800000D03*
D11*
X117350000Y-68800000D03*
X121550000Y-68800000D03*
X125750000Y-68800000D03*
X113150000Y-74300000D03*
X117350000Y-74300000D03*
X121550000Y-74300000D03*
X125750000Y-74300000D03*
D12*
X76430000Y-106250000D03*
D13*
X81510000Y-106250000D03*
X86590000Y-106250000D03*
X91670000Y-106250000D03*
X96750000Y-106250000D03*
X101830000Y-106250000D03*
D14*
X47500000Y-57500000D03*
X133500000Y-57500000D03*
D15*
X89015000Y-93550000D03*
X102485000Y-93550000D03*
X89015000Y-96950000D03*
X102485000Y-96950000D03*
X80485000Y-96950000D03*
X67015000Y-96950000D03*
X80485000Y-93550000D03*
X67015000Y-93550000D03*
D16*
X52000000Y-84500000D03*
D17*
X56700000Y-84500000D03*
X61400000Y-84500000D03*
D16*
X120250000Y-97000000D03*
D17*
X115550000Y-97000000D03*
X110850000Y-97000000D03*
D14*
X133500000Y-110250000D03*
D18*
X127745000Y-91348000D03*
D19*
X127745000Y-93888000D03*
X127745000Y-96428000D03*
X127745000Y-98968000D03*
D10*
X58100000Y-68721900D03*
D11*
X62300000Y-68721900D03*
X66500000Y-68721900D03*
X70700000Y-68721900D03*
X74900000Y-68721900D03*
X79100000Y-68721900D03*
X83300000Y-68721900D03*
X87500000Y-68721900D03*
X91700000Y-68721900D03*
X95900000Y-68721900D03*
X100100000Y-68721900D03*
X104300000Y-68721900D03*
X58100000Y-74221900D03*
X62300000Y-74221900D03*
X66500000Y-74221900D03*
X70700000Y-74221900D03*
X74900000Y-74221900D03*
X79100000Y-74221900D03*
X83300000Y-74221900D03*
X87500000Y-74221900D03*
X91700000Y-74221900D03*
X95900000Y-74221900D03*
X100100000Y-74221900D03*
X104300000Y-74221900D03*
D14*
X47500000Y-110250000D03*
D20*
X109270000Y-104500000D03*
D21*
X109270000Y-109580000D03*
D22*
X55000000Y-98000000D03*
X99675000Y-82925000D03*
X89000000Y-76500000D03*
X80400000Y-77400000D03*
X66378100Y-82500000D03*
X48200000Y-104600000D03*
X52200000Y-100000000D03*
X56000000Y-91200000D03*
D23*
X52000000Y-106250000D02*
X76430000Y-106250000D01*
X50350000Y-104600000D02*
X52000000Y-106250000D01*
X48200000Y-104600000D02*
X50350000Y-104600000D01*
X56000000Y-94200000D02*
X56000000Y-91200000D01*
X52200000Y-100000000D02*
X52200000Y-98000000D01*
X52200000Y-98000000D02*
X56000000Y-94200000D01*
D24*
X65250000Y-103750000D02*
X67015000Y-101985000D01*
X55000000Y-98000000D02*
X60750000Y-103750000D01*
X60750000Y-103750000D02*
X65250000Y-103750000D01*
X67015000Y-101985000D02*
X67015000Y-96950000D01*
D23*
X56000000Y-91200000D02*
X56000000Y-88500000D01*
X56000000Y-88500000D02*
X52000000Y-84500000D01*
D24*
X96500000Y-79750000D02*
X89000000Y-79750000D01*
X99675000Y-82925000D02*
X96500000Y-79750000D01*
D25*
X66378100Y-82500000D02*
X58100000Y-74221900D01*
D26*
X121800000Y-89800000D02*
X125888000Y-93888000D01*
X125888000Y-93888000D02*
X127745000Y-93888000D01*
X115550000Y-89800000D02*
X121800000Y-89800000D01*
X76321900Y-71500000D02*
X79100000Y-68721900D01*
X73478100Y-71500000D02*
X76321900Y-71500000D01*
X70700000Y-68721900D02*
X73478100Y-71500000D01*
D24*
X67015000Y-93550000D02*
X67765000Y-93550000D01*
X67765000Y-93550000D02*
X69275000Y-92040000D01*
X89000000Y-79750000D02*
X89000000Y-76500000D01*
X67015000Y-96950000D02*
X67015000Y-93550000D01*
X76710000Y-92040000D02*
X89000000Y-79750000D01*
X69275000Y-92040000D02*
X76710000Y-92040000D01*
D26*
X79100000Y-68721900D02*
X81878100Y-71500000D01*
X88978100Y-71500000D02*
X91700000Y-74221900D01*
X115550000Y-89800000D02*
X115550000Y-97000000D01*
X100100000Y-74221900D02*
X100100000Y-74350000D01*
X81878100Y-71500000D02*
X88978100Y-71500000D01*
X100100000Y-74350000D02*
X115550000Y-89800000D01*
X95900000Y-74221900D02*
X100100000Y-74221900D01*
X91700000Y-74221900D02*
X95900000Y-74221900D01*
D25*
X58100000Y-68721900D02*
X62300000Y-68721900D01*
X58100000Y-68721900D02*
X58100000Y-74221900D01*
D26*
X120250000Y-97000000D02*
X112750000Y-104500000D01*
X112750000Y-104500000D02*
X109270000Y-104500000D01*
D24*
X80485000Y-93550000D02*
X80485000Y-96950000D01*
X80485000Y-96950000D02*
X80485000Y-100145000D01*
X80485000Y-100145000D02*
X86590000Y-106250000D01*
D25*
X97378100Y-61800000D02*
X104300000Y-68721900D01*
X69221900Y-61800000D02*
X97378100Y-61800000D01*
X62300000Y-68721900D02*
X69221900Y-61800000D01*
G04 #@! TA.AperFunction,Conductor*
G36*
X46279588Y-111292330D02*
G01*
X46457670Y-111470412D01*
X46559300Y-111544251D01*
X45382625Y-112720926D01*
X45382625Y-112720928D01*
X45392900Y-112730660D01*
X45673460Y-112943938D01*
X45673477Y-112943950D01*
X45798628Y-113019250D01*
X45845923Y-113070679D01*
X45857906Y-113139513D01*
X45830771Y-113203899D01*
X45773135Y-113243393D01*
X45734700Y-113249500D01*
X44374500Y-113249500D01*
X44307461Y-113229815D01*
X44261706Y-113177011D01*
X44250500Y-113125500D01*
X44250500Y-111521101D01*
X44270185Y-111454062D01*
X44322989Y-111408307D01*
X44392147Y-111398363D01*
X44455703Y-111427388D01*
X44489693Y-111475204D01*
X44546043Y-111616634D01*
X44546052Y-111616652D01*
X44711124Y-111928011D01*
X44908896Y-112219702D01*
X45031914Y-112364532D01*
X46205748Y-111190698D01*
X46279588Y-111292330D01*
G37*
G04 #@! TD.AperFunction*
G04 #@! TA.AperFunction,Conductor*
G36*
X131801739Y-54520185D02*
G01*
X131847494Y-54572989D01*
X131857438Y-54642147D01*
X131828413Y-54705703D01*
X131798628Y-54730750D01*
X131673477Y-54806049D01*
X131673460Y-54806061D01*
X131392906Y-55019334D01*
X131382625Y-55029071D01*
X131382625Y-55029073D01*
X132559301Y-56205748D01*
X132457670Y-56279588D01*
X132279588Y-56457670D01*
X132205748Y-56559300D01*
X131031914Y-55385466D01*
X131031913Y-55385466D01*
X130908896Y-55530296D01*
X130711124Y-55821988D01*
X130546052Y-56133347D01*
X130546043Y-56133365D01*
X130415602Y-56460749D01*
X130415600Y-56460756D01*
X130321325Y-56800306D01*
X130321319Y-56800332D01*
X130264308Y-57148082D01*
X130264306Y-57148099D01*
X130245227Y-57499997D01*
X130245227Y-57500002D01*
X130264306Y-57851900D01*
X130264308Y-57851917D01*
X130321319Y-58199667D01*
X130321325Y-58199693D01*
X130415600Y-58539243D01*
X130415602Y-58539250D01*
X130546043Y-58866634D01*
X130546052Y-58866652D01*
X130711124Y-59178011D01*
X130908896Y-59469702D01*
X131031914Y-59614532D01*
X132205748Y-58440698D01*
X132279588Y-58542330D01*
X132457670Y-58720412D01*
X132559300Y-58794251D01*
X131382625Y-59970926D01*
X131382625Y-59970928D01*
X131392900Y-59980660D01*
X131673460Y-60193938D01*
X131673464Y-60193941D01*
X131975445Y-60375635D01*
X132295273Y-60523603D01*
X132629256Y-60636136D01*
X132973437Y-60711896D01*
X133323788Y-60749999D01*
X133323795Y-60750000D01*
X133676205Y-60750000D01*
X133676211Y-60749999D01*
X134026562Y-60711896D01*
X134370743Y-60636136D01*
X134704726Y-60523603D01*
X135024554Y-60375635D01*
X135326535Y-60193941D01*
X135326539Y-60193938D01*
X135607093Y-59980665D01*
X135607105Y-59980654D01*
X135617373Y-59970927D01*
X135617373Y-59970926D01*
X134440698Y-58794251D01*
X134542330Y-58720412D01*
X134720412Y-58542330D01*
X134794251Y-58440699D01*
X135968084Y-59614532D01*
X135968085Y-59614531D01*
X136091102Y-59469704D01*
X136272867Y-59201622D01*
X136326781Y-59157181D01*
X136396163Y-59148943D01*
X136458985Y-59179523D01*
X136495301Y-59239214D01*
X136499500Y-59271209D01*
X136499500Y-108478790D01*
X136479815Y-108545829D01*
X136427011Y-108591584D01*
X136357853Y-108601528D01*
X136294297Y-108572503D01*
X136272867Y-108548377D01*
X136091099Y-108280291D01*
X135968085Y-108135467D01*
X135968084Y-108135466D01*
X134794250Y-109309300D01*
X134720412Y-109207670D01*
X134542330Y-109029588D01*
X134440698Y-108955748D01*
X135617374Y-107779073D01*
X135617373Y-107779072D01*
X135607099Y-107769340D01*
X135607087Y-107769330D01*
X135326539Y-107556061D01*
X135326535Y-107556058D01*
X135024554Y-107374364D01*
X134704726Y-107226396D01*
X134370743Y-107113863D01*
X134026562Y-107038103D01*
X133676211Y-107000000D01*
X133323788Y-107000000D01*
X132973437Y-107038103D01*
X132629256Y-107113863D01*
X132295273Y-107226396D01*
X131975445Y-107374364D01*
X131673464Y-107556058D01*
X131673460Y-107556061D01*
X131392906Y-107769334D01*
X131382625Y-107779071D01*
X131382625Y-107779073D01*
X132559301Y-108955748D01*
X132457670Y-109029588D01*
X132279588Y-109207670D01*
X132205748Y-109309300D01*
X131031914Y-108135466D01*
X131031913Y-108135466D01*
X130908896Y-108280296D01*
X130711124Y-108571988D01*
X130546052Y-108883347D01*
X130546043Y-108883365D01*
X130415602Y-109210749D01*
X130415600Y-109210756D01*
X130321325Y-109550306D01*
X130321319Y-109550332D01*
X130264308Y-109898082D01*
X130264306Y-109898099D01*
X130245227Y-110249997D01*
X130245227Y-110250002D01*
X130264306Y-110601900D01*
X130264308Y-110601917D01*
X130321319Y-110949667D01*
X130321325Y-110949693D01*
X130415600Y-111289243D01*
X130415602Y-111289250D01*
X130546043Y-111616634D01*
X130546052Y-111616652D01*
X130711124Y-111928011D01*
X130908896Y-112219702D01*
X131031914Y-112364532D01*
X132205748Y-111190698D01*
X132279588Y-111292330D01*
X132457670Y-111470412D01*
X132559300Y-111544251D01*
X131382625Y-112720926D01*
X131382625Y-112720928D01*
X131392900Y-112730660D01*
X131673460Y-112943938D01*
X131673477Y-112943950D01*
X131798628Y-113019250D01*
X131845923Y-113070679D01*
X131857906Y-113139513D01*
X131830771Y-113203899D01*
X131773135Y-113243393D01*
X131734700Y-113249500D01*
X49265300Y-113249500D01*
X49198261Y-113229815D01*
X49152506Y-113177011D01*
X49142562Y-113107853D01*
X49171587Y-113044297D01*
X49201372Y-113019250D01*
X49326522Y-112943950D01*
X49326539Y-112943938D01*
X49607093Y-112730665D01*
X49607105Y-112730654D01*
X49617373Y-112720927D01*
X49617373Y-112720926D01*
X48440698Y-111544251D01*
X48542330Y-111470412D01*
X48720412Y-111292330D01*
X48794251Y-111190698D01*
X49968084Y-112364532D01*
X49968085Y-112364531D01*
X50091102Y-112219704D01*
X50288875Y-111928011D01*
X50453947Y-111616652D01*
X50453956Y-111616634D01*
X50584397Y-111289250D01*
X50584399Y-111289243D01*
X50678674Y-110949693D01*
X50678680Y-110949667D01*
X50735691Y-110601917D01*
X50735693Y-110601900D01*
X50754773Y-110250002D01*
X50754773Y-110249997D01*
X50735693Y-109898099D01*
X50735691Y-109898082D01*
X50678680Y-109550332D01*
X50678674Y-109550306D01*
X50617507Y-109330000D01*
X107785960Y-109330000D01*
X108779252Y-109330000D01*
X108757482Y-109367708D01*
X108720000Y-109507591D01*
X108720000Y-109652409D01*
X108757482Y-109792292D01*
X108779252Y-109830000D01*
X107785960Y-109830000D01*
X107846411Y-110068716D01*
X107946267Y-110296367D01*
X108082232Y-110504478D01*
X108250592Y-110687364D01*
X108250602Y-110687373D01*
X108446762Y-110840051D01*
X108446771Y-110840057D01*
X108665385Y-110958364D01*
X108665396Y-110958369D01*
X108900507Y-111039083D01*
X109019999Y-111059023D01*
X109020000Y-111059022D01*
X109020000Y-110070747D01*
X109057708Y-110092518D01*
X109197591Y-110130000D01*
X109342409Y-110130000D01*
X109482292Y-110092518D01*
X109520000Y-110070747D01*
X109520000Y-111059023D01*
X109639492Y-111039083D01*
X109874603Y-110958369D01*
X109874614Y-110958364D01*
X110093228Y-110840057D01*
X110093237Y-110840051D01*
X110289397Y-110687373D01*
X110289407Y-110687364D01*
X110457767Y-110504478D01*
X110593732Y-110296367D01*
X110693588Y-110068716D01*
X110754040Y-109830000D01*
X109760748Y-109830000D01*
X109782518Y-109792292D01*
X109820000Y-109652409D01*
X109820000Y-109507591D01*
X109782518Y-109367708D01*
X109760748Y-109330000D01*
X110754040Y-109330000D01*
X110693588Y-109091283D01*
X110593732Y-108863632D01*
X110457767Y-108655521D01*
X110289407Y-108472635D01*
X110289397Y-108472626D01*
X110093237Y-108319948D01*
X110093228Y-108319942D01*
X109874614Y-108201635D01*
X109874603Y-108201630D01*
X109639492Y-108120916D01*
X109520000Y-108100976D01*
X109520000Y-109089252D01*
X109482292Y-109067482D01*
X109342409Y-109030000D01*
X109197591Y-109030000D01*
X109057708Y-109067482D01*
X109020000Y-109089252D01*
X109020000Y-108100976D01*
X109019999Y-108100976D01*
X108900507Y-108120916D01*
X108665396Y-108201630D01*
X108665385Y-108201635D01*
X108446771Y-108319942D01*
X108446762Y-108319948D01*
X108250602Y-108472626D01*
X108250592Y-108472635D01*
X108082232Y-108655521D01*
X107946267Y-108863632D01*
X107846411Y-109091283D01*
X107785960Y-109330000D01*
X50617507Y-109330000D01*
X50584399Y-109210756D01*
X50584397Y-109210749D01*
X50453956Y-108883365D01*
X50453947Y-108883347D01*
X50288875Y-108571988D01*
X50091099Y-108280291D01*
X49968085Y-108135467D01*
X49968084Y-108135466D01*
X48794250Y-109309300D01*
X48720412Y-109207670D01*
X48542330Y-109029588D01*
X48440698Y-108955748D01*
X49617374Y-107779073D01*
X49617373Y-107779072D01*
X49607099Y-107769340D01*
X49607087Y-107769330D01*
X49326539Y-107556061D01*
X49326535Y-107556058D01*
X49024554Y-107374364D01*
X48704726Y-107226396D01*
X48370743Y-107113863D01*
X48026562Y-107038103D01*
X47676211Y-107000000D01*
X47323788Y-107000000D01*
X46973437Y-107038103D01*
X46629256Y-107113863D01*
X46295273Y-107226396D01*
X45975445Y-107374364D01*
X45673464Y-107556058D01*
X45673460Y-107556061D01*
X45392906Y-107769334D01*
X45382625Y-107779071D01*
X45382625Y-107779073D01*
X46559301Y-108955748D01*
X46457670Y-109029588D01*
X46279588Y-109207670D01*
X46205748Y-109309300D01*
X45031914Y-108135466D01*
X45031913Y-108135466D01*
X44908896Y-108280296D01*
X44711124Y-108571988D01*
X44546052Y-108883347D01*
X44546043Y-108883365D01*
X44489693Y-109024795D01*
X44446593Y-109079787D01*
X44380603Y-109102748D01*
X44312676Y-109086387D01*
X44264378Y-109035899D01*
X44250500Y-108978898D01*
X44250500Y-104599996D01*
X47394435Y-104599996D01*
X47394435Y-104600003D01*
X47414630Y-104779249D01*
X47414631Y-104779254D01*
X47474211Y-104949523D01*
X47560484Y-105086825D01*
X47570184Y-105102262D01*
X47697738Y-105229816D01*
X47850478Y-105325789D01*
X47992544Y-105375500D01*
X48020745Y-105385368D01*
X48020750Y-105385369D01*
X48199996Y-105405565D01*
X48200000Y-105405565D01*
X48200004Y-105405565D01*
X48379249Y-105385369D01*
X48379252Y-105385368D01*
X48379255Y-105385368D01*
X48459017Y-105357457D01*
X48499972Y-105350500D01*
X49987770Y-105350500D01*
X50054809Y-105370185D01*
X50075451Y-105386819D01*
X51521580Y-106832948D01*
X51521584Y-106832951D01*
X51644498Y-106915080D01*
X51644511Y-106915087D01*
X51781082Y-106971656D01*
X51781087Y-106971658D01*
X51781091Y-106971658D01*
X51781092Y-106971659D01*
X51926079Y-107000500D01*
X51926082Y-107000500D01*
X52073917Y-107000500D01*
X74505501Y-107000500D01*
X74572540Y-107020185D01*
X74618295Y-107072989D01*
X74629501Y-107124500D01*
X74629501Y-107597876D01*
X74635908Y-107657483D01*
X74686202Y-107792328D01*
X74686206Y-107792335D01*
X74772452Y-107907544D01*
X74772455Y-107907547D01*
X74887664Y-107993793D01*
X74887671Y-107993797D01*
X75022517Y-108044091D01*
X75022516Y-108044091D01*
X75029444Y-108044835D01*
X75082127Y-108050500D01*
X77777872Y-108050499D01*
X77837483Y-108044091D01*
X77972331Y-107993796D01*
X78087546Y-107907546D01*
X78173796Y-107792331D01*
X78224091Y-107657483D01*
X78230500Y-107597873D01*
X78230499Y-106249995D01*
X79704451Y-106249995D01*
X79704451Y-106250004D01*
X79724616Y-106519101D01*
X79784664Y-106782188D01*
X79784666Y-106782195D01*
X79859025Y-106971658D01*
X79883257Y-107033398D01*
X80018185Y-107267102D01*
X80071838Y-107334380D01*
X80186442Y-107478089D01*
X80343392Y-107623716D01*
X80384259Y-107661635D01*
X80607226Y-107813651D01*
X80850359Y-107930738D01*
X81108228Y-108010280D01*
X81108229Y-108010280D01*
X81108232Y-108010281D01*
X81375063Y-108050499D01*
X81375068Y-108050499D01*
X81375071Y-108050500D01*
X81375072Y-108050500D01*
X81644928Y-108050500D01*
X81644929Y-108050500D01*
X81644936Y-108050499D01*
X81911767Y-108010281D01*
X81911768Y-108010280D01*
X81911772Y-108010280D01*
X82169641Y-107930738D01*
X82412775Y-107813651D01*
X82635741Y-107661635D01*
X82833561Y-107478085D01*
X83001815Y-107267102D01*
X83136743Y-107033398D01*
X83235334Y-106782195D01*
X83295383Y-106519103D01*
X83315549Y-106250000D01*
X83310072Y-106176919D01*
X83295389Y-105980973D01*
X83295383Y-105980897D01*
X83235334Y-105717805D01*
X83136743Y-105466602D01*
X83001815Y-105232898D01*
X82833561Y-105021915D01*
X82833560Y-105021914D01*
X82833557Y-105021910D01*
X82635741Y-104838365D01*
X82585284Y-104803964D01*
X82412775Y-104686349D01*
X82412769Y-104686346D01*
X82412768Y-104686345D01*
X82412767Y-104686344D01*
X82169643Y-104569263D01*
X82169645Y-104569263D01*
X81911773Y-104489720D01*
X81911767Y-104489718D01*
X81644936Y-104449500D01*
X81644929Y-104449500D01*
X81375071Y-104449500D01*
X81375063Y-104449500D01*
X81108232Y-104489718D01*
X81108226Y-104489720D01*
X80850358Y-104569262D01*
X80607230Y-104686346D01*
X80384258Y-104838365D01*
X80186442Y-105021910D01*
X80018185Y-105232898D01*
X79883258Y-105466599D01*
X79883256Y-105466603D01*
X79784666Y-105717804D01*
X79784664Y-105717811D01*
X79724616Y-105980898D01*
X79704451Y-106249995D01*
X78230499Y-106249995D01*
X78230499Y-104902128D01*
X78224091Y-104842517D01*
X78222542Y-104838365D01*
X78173797Y-104707671D01*
X78173793Y-104707664D01*
X78087547Y-104592455D01*
X78087544Y-104592452D01*
X77972335Y-104506206D01*
X77972328Y-104506202D01*
X77837482Y-104455908D01*
X77837483Y-104455908D01*
X77777883Y-104449501D01*
X77777881Y-104449500D01*
X77777873Y-104449500D01*
X77777864Y-104449500D01*
X75082129Y-104449500D01*
X75082123Y-104449501D01*
X75022516Y-104455908D01*
X74887671Y-104506202D01*
X74887664Y-104506206D01*
X74772455Y-104592452D01*
X74772452Y-104592455D01*
X74686206Y-104707664D01*
X74686202Y-104707671D01*
X74635908Y-104842517D01*
X74631810Y-104880639D01*
X74629501Y-104902123D01*
X74629500Y-104902135D01*
X74629500Y-105375500D01*
X74609815Y-105442539D01*
X74557011Y-105488294D01*
X74505500Y-105499500D01*
X52362229Y-105499500D01*
X52295190Y-105479815D01*
X52274548Y-105463181D01*
X50828421Y-104017052D01*
X50828414Y-104017046D01*
X50754729Y-103967812D01*
X50754729Y-103967813D01*
X50705491Y-103934913D01*
X50568917Y-103878343D01*
X50568907Y-103878340D01*
X50423920Y-103849500D01*
X50423918Y-103849500D01*
X48499972Y-103849500D01*
X48459017Y-103842542D01*
X48379254Y-103814631D01*
X48379249Y-103814630D01*
X48200004Y-103794435D01*
X48199996Y-103794435D01*
X48020750Y-103814630D01*
X48020745Y-103814631D01*
X47850476Y-103874211D01*
X47697737Y-103970184D01*
X47570184Y-104097737D01*
X47474211Y-104250476D01*
X47414631Y-104420745D01*
X47414630Y-104420750D01*
X47394435Y-104599996D01*
X44250500Y-104599996D01*
X44250500Y-83064635D01*
X50112000Y-83064635D01*
X50112000Y-85935370D01*
X50112001Y-85935376D01*
X50118408Y-85994983D01*
X50168702Y-86129828D01*
X50168706Y-86129835D01*
X50254952Y-86245044D01*
X50254955Y-86245047D01*
X50370164Y-86331293D01*
X50370171Y-86331297D01*
X50505017Y-86381591D01*
X50505016Y-86381591D01*
X50511944Y-86382335D01*
X50564627Y-86388000D01*
X52775269Y-86387999D01*
X52842308Y-86407684D01*
X52862950Y-86424318D01*
X55213181Y-88774548D01*
X55246666Y-88835871D01*
X55249500Y-88862229D01*
X55249500Y-90900028D01*
X55242542Y-90940982D01*
X55214631Y-91020747D01*
X55194435Y-91199996D01*
X55194435Y-91200003D01*
X55214630Y-91379249D01*
X55214631Y-91379254D01*
X55242542Y-91459017D01*
X55249500Y-91499972D01*
X55249500Y-93837770D01*
X55229815Y-93904809D01*
X55213181Y-93925451D01*
X51617050Y-97521581D01*
X51617047Y-97521585D01*
X51587724Y-97565469D01*
X51587725Y-97565470D01*
X51534914Y-97644508D01*
X51478343Y-97781082D01*
X51478340Y-97781092D01*
X51449500Y-97926079D01*
X51449500Y-99700028D01*
X51442542Y-99740982D01*
X51414631Y-99820747D01*
X51394435Y-99999996D01*
X51394435Y-100000003D01*
X51414630Y-100179249D01*
X51414631Y-100179254D01*
X51474211Y-100349523D01*
X51511305Y-100408557D01*
X51570184Y-100502262D01*
X51697738Y-100629816D01*
X51850478Y-100725789D01*
X52020745Y-100785368D01*
X52020750Y-100785369D01*
X52199996Y-100805565D01*
X52200000Y-100805565D01*
X52200004Y-100805565D01*
X52379249Y-100785369D01*
X52379252Y-100785368D01*
X52379255Y-100785368D01*
X52549522Y-100725789D01*
X52702262Y-100629816D01*
X52829816Y-100502262D01*
X52925789Y-100349522D01*
X52985368Y-100179255D01*
X52985369Y-100179249D01*
X53005565Y-100000003D01*
X53005565Y-99999996D01*
X52985368Y-99820747D01*
X52985368Y-99820745D01*
X52957458Y-99740982D01*
X52950500Y-99700028D01*
X52950500Y-98362229D01*
X52970185Y-98295190D01*
X52986819Y-98274548D01*
X53350756Y-97910611D01*
X53718589Y-97542777D01*
X53779910Y-97509294D01*
X53849601Y-97514278D01*
X53905535Y-97556150D01*
X53929952Y-97621614D01*
X53924199Y-97668777D01*
X53902214Y-97736440D01*
X53874628Y-97910611D01*
X53874500Y-97911421D01*
X53874500Y-98088579D01*
X53883434Y-98144988D01*
X53902214Y-98263557D01*
X53955256Y-98426805D01*
X53956958Y-98432042D01*
X53989028Y-98494982D01*
X54037386Y-98589889D01*
X54141517Y-98733214D01*
X60016781Y-104608480D01*
X60016783Y-104608482D01*
X60016786Y-104608484D01*
X60043552Y-104627930D01*
X60160110Y-104712614D01*
X60290900Y-104779255D01*
X60317958Y-104793042D01*
X60486444Y-104847786D01*
X60661421Y-104875500D01*
X60661422Y-104875500D01*
X65338578Y-104875500D01*
X65338579Y-104875500D01*
X65513556Y-104847786D01*
X65682042Y-104793042D01*
X65709100Y-104779255D01*
X65839890Y-104712614D01*
X65983214Y-104608483D01*
X66108483Y-104483214D01*
X66167042Y-104424655D01*
X66167054Y-104424641D01*
X67873484Y-102718214D01*
X67941570Y-102624500D01*
X67977614Y-102574890D01*
X68058042Y-102417042D01*
X68112786Y-102248555D01*
X68140500Y-102073579D01*
X68140500Y-98279542D01*
X68160185Y-98212503D01*
X68180155Y-98188647D01*
X68265050Y-98109877D01*
X68423959Y-97910612D01*
X68551393Y-97689888D01*
X68644508Y-97452637D01*
X68701222Y-97204157D01*
X68711411Y-97068186D01*
X68720268Y-96950004D01*
X68720268Y-96949995D01*
X68701222Y-96695845D01*
X68700040Y-96690667D01*
X68644508Y-96447363D01*
X68551393Y-96210112D01*
X68423959Y-95989388D01*
X68265050Y-95790123D01*
X68233094Y-95760472D01*
X68180158Y-95711354D01*
X68144404Y-95651325D01*
X68140500Y-95620456D01*
X68140500Y-94879542D01*
X68160185Y-94812503D01*
X68180155Y-94788647D01*
X68265050Y-94709877D01*
X68423959Y-94510612D01*
X68458694Y-94450445D01*
X68493206Y-94412121D01*
X68498214Y-94408483D01*
X68623483Y-94283214D01*
X69356702Y-93549995D01*
X78779732Y-93549995D01*
X78779732Y-93550004D01*
X78798777Y-93804154D01*
X78847113Y-94015930D01*
X78855492Y-94052637D01*
X78948607Y-94289888D01*
X79076041Y-94510612D01*
X79234950Y-94709877D01*
X79319842Y-94788645D01*
X79355596Y-94848671D01*
X79359500Y-94879542D01*
X79359500Y-95620456D01*
X79339815Y-95687495D01*
X79319842Y-95711354D01*
X79234952Y-95790120D01*
X79234949Y-95790123D01*
X79076041Y-95989388D01*
X78948608Y-96210109D01*
X78855492Y-96447362D01*
X78855490Y-96447369D01*
X78798777Y-96695845D01*
X78779732Y-96949995D01*
X78779732Y-96950004D01*
X78798777Y-97204154D01*
X78845491Y-97408822D01*
X78855492Y-97452637D01*
X78940321Y-97668777D01*
X78948608Y-97689890D01*
X78958533Y-97707080D01*
X79076041Y-97910612D01*
X79234950Y-98109877D01*
X79319842Y-98188645D01*
X79355596Y-98248671D01*
X79359500Y-98279542D01*
X79359500Y-100233578D01*
X79387214Y-100408557D01*
X79441956Y-100577039D01*
X79441957Y-100577042D01*
X79517748Y-100725788D01*
X79522386Y-100734890D01*
X79626517Y-100878214D01*
X79626519Y-100878216D01*
X84759136Y-106010834D01*
X84792621Y-106072157D01*
X84795108Y-106107781D01*
X84784451Y-106249996D01*
X84784451Y-106250004D01*
X84804616Y-106519101D01*
X84864664Y-106782188D01*
X84864666Y-106782195D01*
X84939025Y-106971658D01*
X84963257Y-107033398D01*
X85098185Y-107267102D01*
X85151838Y-107334380D01*
X85266442Y-107478089D01*
X85423392Y-107623716D01*
X85464259Y-107661635D01*
X85687226Y-107813651D01*
X85930359Y-107930738D01*
X86188228Y-108010280D01*
X86188229Y-108010280D01*
X86188232Y-108010281D01*
X86455063Y-108050499D01*
X86455068Y-108050499D01*
X86455071Y-108050500D01*
X86455072Y-108050500D01*
X86724928Y-108050500D01*
X86724929Y-108050500D01*
X86724936Y-108050499D01*
X86991767Y-108010281D01*
X86991768Y-108010280D01*
X86991772Y-108010280D01*
X87249641Y-107930738D01*
X87492775Y-107813651D01*
X87715741Y-107661635D01*
X87913561Y-107478085D01*
X88081815Y-107267102D01*
X88216743Y-107033398D01*
X88315334Y-106782195D01*
X88375383Y-106519103D01*
X88395549Y-106250000D01*
X88395549Y-106249995D01*
X89864953Y-106249995D01*
X89864953Y-106250004D01*
X89885113Y-106519026D01*
X89885113Y-106519028D01*
X89945142Y-106782033D01*
X89945148Y-106782052D01*
X90043709Y-107033181D01*
X90043708Y-107033181D01*
X90178602Y-107266822D01*
X90232294Y-107334151D01*
X90232295Y-107334151D01*
X91068958Y-106497488D01*
X91093978Y-106557890D01*
X91165112Y-106664351D01*
X91255649Y-106754888D01*
X91362110Y-106826022D01*
X91422510Y-106851041D01*
X90584848Y-107688702D01*
X90767483Y-107813220D01*
X90767485Y-107813221D01*
X91010539Y-107930269D01*
X91010537Y-107930269D01*
X91268337Y-108009790D01*
X91268343Y-108009792D01*
X91535101Y-108049999D01*
X91535110Y-108050000D01*
X91804890Y-108050000D01*
X91804898Y-108049999D01*
X92071656Y-108009792D01*
X92071662Y-108009790D01*
X92329461Y-107930269D01*
X92572521Y-107813218D01*
X92755150Y-107688702D01*
X91917488Y-106851041D01*
X91977890Y-106826022D01*
X92084351Y-106754888D01*
X92174888Y-106664351D01*
X92246022Y-106557890D01*
X92271041Y-106497488D01*
X93107703Y-107334151D01*
X93107704Y-107334150D01*
X93161393Y-107266828D01*
X93161400Y-107266817D01*
X93296290Y-107033181D01*
X93394851Y-106782052D01*
X93394857Y-106782033D01*
X93454886Y-106519028D01*
X93454886Y-106519026D01*
X93475047Y-106250004D01*
X93475047Y-106249995D01*
X94944953Y-106249995D01*
X94944953Y-106250004D01*
X94965113Y-106519026D01*
X94965113Y-106519028D01*
X95025142Y-106782033D01*
X95025148Y-106782052D01*
X95123709Y-107033181D01*
X95123708Y-107033181D01*
X95258602Y-107266822D01*
X95312294Y-107334151D01*
X95312295Y-107334151D01*
X96148958Y-106497488D01*
X96173978Y-106557890D01*
X96245112Y-106664351D01*
X96335649Y-106754888D01*
X96442110Y-106826022D01*
X96502510Y-106851041D01*
X95664848Y-107688702D01*
X95847483Y-107813220D01*
X95847485Y-107813221D01*
X96090539Y-107930269D01*
X96090537Y-107930269D01*
X96348337Y-108009790D01*
X96348343Y-108009792D01*
X96615101Y-108049999D01*
X96615110Y-108050000D01*
X96884890Y-108050000D01*
X96884898Y-108049999D01*
X97151656Y-108009792D01*
X97151662Y-108009790D01*
X97409461Y-107930269D01*
X97652521Y-107813218D01*
X97835150Y-107688702D01*
X96997488Y-106851041D01*
X97057890Y-106826022D01*
X97164351Y-106754888D01*
X97254888Y-106664351D01*
X97326022Y-106557890D01*
X97351041Y-106497488D01*
X98187703Y-107334151D01*
X98187704Y-107334150D01*
X98241393Y-107266828D01*
X98241400Y-107266817D01*
X98376290Y-107033181D01*
X98474851Y-106782052D01*
X98474857Y-106782033D01*
X98534886Y-106519028D01*
X98534886Y-106519026D01*
X98555047Y-106250004D01*
X98555047Y-106249995D01*
X100024953Y-106249995D01*
X100024953Y-106250004D01*
X100045113Y-106519026D01*
X100045113Y-106519028D01*
X100105142Y-106782033D01*
X100105148Y-106782052D01*
X100203709Y-107033181D01*
X100203708Y-107033181D01*
X100338602Y-107266822D01*
X100392294Y-107334151D01*
X100392295Y-107334151D01*
X101228958Y-106497488D01*
X101253978Y-106557890D01*
X101325112Y-106664351D01*
X101415649Y-106754888D01*
X101522110Y-106826022D01*
X101582510Y-106851041D01*
X100744848Y-107688702D01*
X100927483Y-107813220D01*
X100927485Y-107813221D01*
X101170539Y-107930269D01*
X101170537Y-107930269D01*
X101428337Y-108009790D01*
X101428343Y-108009792D01*
X101695101Y-108049999D01*
X101695110Y-108050000D01*
X101964890Y-108050000D01*
X101964898Y-108049999D01*
X102231656Y-108009792D01*
X102231662Y-108009790D01*
X102489461Y-107930269D01*
X102732521Y-107813218D01*
X102915150Y-107688702D01*
X102077488Y-106851041D01*
X102137890Y-106826022D01*
X102244351Y-106754888D01*
X102334888Y-106664351D01*
X102406022Y-106557890D01*
X102431041Y-106497488D01*
X103267703Y-107334151D01*
X103267704Y-107334150D01*
X103321393Y-107266828D01*
X103321400Y-107266817D01*
X103452358Y-107039992D01*
X123674671Y-107039992D01*
X123674671Y-107040007D01*
X123693964Y-107334363D01*
X123693965Y-107334373D01*
X123693966Y-107334380D01*
X123746379Y-107597883D01*
X123751518Y-107623716D01*
X123751521Y-107623730D01*
X123846349Y-107903080D01*
X123976825Y-108167660D01*
X123976829Y-108167667D01*
X124140725Y-108412955D01*
X124335241Y-108634758D01*
X124557044Y-108829274D01*
X124635291Y-108881557D01*
X124802335Y-108993172D01*
X125066923Y-109123652D01*
X125346278Y-109218481D01*
X125635620Y-109276034D01*
X125663888Y-109277886D01*
X125929993Y-109295329D01*
X125930000Y-109295329D01*
X125930007Y-109295329D01*
X126165675Y-109279881D01*
X126224380Y-109276034D01*
X126513722Y-109218481D01*
X126793077Y-109123652D01*
X127057665Y-108993172D01*
X127302957Y-108829273D01*
X127524758Y-108634758D01*
X127719273Y-108412957D01*
X127883172Y-108167665D01*
X128013652Y-107903077D01*
X128108481Y-107623722D01*
X128166034Y-107334380D01*
X128173112Y-107226396D01*
X128185329Y-107040007D01*
X128185329Y-107039992D01*
X128166035Y-106745636D01*
X128166034Y-106745620D01*
X128108481Y-106456278D01*
X128013652Y-106176923D01*
X127883172Y-105912336D01*
X127872555Y-105896447D01*
X127769581Y-105742335D01*
X127719273Y-105667043D01*
X127614766Y-105547876D01*
X127524758Y-105445241D01*
X127302955Y-105250725D01*
X127057667Y-105086829D01*
X127057660Y-105086825D01*
X126793080Y-104956349D01*
X126513730Y-104861521D01*
X126513724Y-104861519D01*
X126513722Y-104861519D01*
X126224380Y-104803966D01*
X126224373Y-104803965D01*
X126224363Y-104803964D01*
X125930007Y-104784671D01*
X125929993Y-104784671D01*
X125635636Y-104803964D01*
X125635624Y-104803965D01*
X125635620Y-104803966D01*
X125635612Y-104803967D01*
X125635609Y-104803968D01*
X125346283Y-104861518D01*
X125346269Y-104861521D01*
X125066919Y-104956349D01*
X124802334Y-105086828D01*
X124557041Y-105250728D01*
X124335241Y-105445241D01*
X124140728Y-105667041D01*
X123976828Y-105912334D01*
X123846349Y-106176919D01*
X123751521Y-106456269D01*
X123751518Y-106456283D01*
X123693968Y-106745609D01*
X123693964Y-106745636D01*
X123674671Y-107039992D01*
X103452358Y-107039992D01*
X103456290Y-107033181D01*
X103554851Y-106782052D01*
X103554857Y-106782033D01*
X103614886Y-106519028D01*
X103614886Y-106519026D01*
X103635047Y-106250004D01*
X103635047Y-106249995D01*
X103614886Y-105980973D01*
X103614886Y-105980971D01*
X103554857Y-105717966D01*
X103554851Y-105717947D01*
X103456290Y-105466818D01*
X103456291Y-105466818D01*
X103321397Y-105233177D01*
X103267704Y-105165847D01*
X102431041Y-106002510D01*
X102406022Y-105942110D01*
X102334888Y-105835649D01*
X102244351Y-105745112D01*
X102137890Y-105673978D01*
X102077488Y-105648958D01*
X102915150Y-104811296D01*
X102732517Y-104686779D01*
X102732516Y-104686778D01*
X102489460Y-104569730D01*
X102489462Y-104569730D01*
X102231662Y-104490209D01*
X102231656Y-104490207D01*
X101964898Y-104450000D01*
X101695101Y-104450000D01*
X101428343Y-104490207D01*
X101428337Y-104490209D01*
X101170538Y-104569730D01*
X100927485Y-104686778D01*
X100927476Y-104686783D01*
X100744848Y-104811296D01*
X101582511Y-105648958D01*
X101522110Y-105673978D01*
X101415649Y-105745112D01*
X101325112Y-105835649D01*
X101253978Y-105942110D01*
X101228958Y-106002511D01*
X100392295Y-105165848D01*
X100338600Y-105233180D01*
X100203709Y-105466818D01*
X100105148Y-105717947D01*
X100105142Y-105717966D01*
X100045113Y-105980971D01*
X100045113Y-105980973D01*
X100024953Y-106249995D01*
X98555047Y-106249995D01*
X98534886Y-105980973D01*
X98534886Y-105980971D01*
X98474857Y-105717966D01*
X98474851Y-105717947D01*
X98376290Y-105466818D01*
X98376291Y-105466818D01*
X98241397Y-105233177D01*
X98187704Y-105165847D01*
X97351041Y-106002510D01*
X97326022Y-105942110D01*
X97254888Y-105835649D01*
X97164351Y-105745112D01*
X97057890Y-105673978D01*
X96997488Y-105648958D01*
X97835150Y-104811296D01*
X97652517Y-104686779D01*
X97652516Y-104686778D01*
X97409460Y-104569730D01*
X97409462Y-104569730D01*
X97151662Y-104490209D01*
X97151656Y-104490207D01*
X96884898Y-104450000D01*
X96615101Y-104450000D01*
X96348343Y-104490207D01*
X96348337Y-104490209D01*
X96090538Y-104569730D01*
X95847485Y-104686778D01*
X95847476Y-104686783D01*
X95664848Y-104811296D01*
X96502511Y-105648958D01*
X96442110Y-105673978D01*
X96335649Y-105745112D01*
X96245112Y-105835649D01*
X96173978Y-105942110D01*
X96148958Y-106002511D01*
X95312295Y-105165848D01*
X95258600Y-105233180D01*
X95123709Y-105466818D01*
X95025148Y-105717947D01*
X95025142Y-105717966D01*
X94965113Y-105980971D01*
X94965113Y-105980973D01*
X94944953Y-106249995D01*
X93475047Y-106249995D01*
X93454886Y-105980973D01*
X93454886Y-105980971D01*
X93394857Y-105717966D01*
X93394851Y-105717947D01*
X93296290Y-105466818D01*
X93296291Y-105466818D01*
X93161397Y-105233177D01*
X93107704Y-105165847D01*
X92271041Y-106002510D01*
X92246022Y-105942110D01*
X92174888Y-105835649D01*
X92084351Y-105745112D01*
X91977890Y-105673978D01*
X91917488Y-105648958D01*
X92755150Y-104811296D01*
X92572517Y-104686779D01*
X92572516Y-104686778D01*
X92329460Y-104569730D01*
X92329462Y-104569730D01*
X92071662Y-104490209D01*
X92071656Y-104490207D01*
X91804898Y-104450000D01*
X91535101Y-104450000D01*
X91268343Y-104490207D01*
X91268337Y-104490209D01*
X91010538Y-104569730D01*
X90767485Y-104686778D01*
X90767476Y-104686783D01*
X90584848Y-104811296D01*
X91422511Y-105648958D01*
X91362110Y-105673978D01*
X91255649Y-105745112D01*
X91165112Y-105835649D01*
X91093978Y-105942110D01*
X91068958Y-106002511D01*
X90232295Y-105165848D01*
X90178600Y-105233180D01*
X90043709Y-105466818D01*
X89945148Y-105717947D01*
X89945142Y-105717966D01*
X89885113Y-105980971D01*
X89885113Y-105980973D01*
X89864953Y-106249995D01*
X88395549Y-106249995D01*
X88390072Y-106176919D01*
X88375389Y-105980973D01*
X88375383Y-105980897D01*
X88315334Y-105717805D01*
X88216743Y-105466602D01*
X88081815Y-105232898D01*
X87913561Y-105021915D01*
X87913560Y-105021914D01*
X87913557Y-105021910D01*
X87715741Y-104838365D01*
X87665284Y-104803964D01*
X87492775Y-104686349D01*
X87492769Y-104686346D01*
X87492768Y-104686345D01*
X87492767Y-104686344D01*
X87249643Y-104569263D01*
X87249645Y-104569263D01*
X86991773Y-104489720D01*
X86991767Y-104489718D01*
X86724936Y-104449500D01*
X86724929Y-104449500D01*
X86455071Y-104449500D01*
X86455069Y-104449500D01*
X86452768Y-104449847D01*
X86451944Y-104449734D01*
X86450439Y-104449847D01*
X86450414Y-104449524D01*
X86383544Y-104440372D01*
X86346609Y-104414912D01*
X81646819Y-99715121D01*
X81613334Y-99653798D01*
X81610500Y-99627440D01*
X81610500Y-98279542D01*
X81630185Y-98212503D01*
X81650155Y-98188647D01*
X81735050Y-98109877D01*
X81893959Y-97910612D01*
X82021393Y-97689888D01*
X82114508Y-97452637D01*
X82171222Y-97204157D01*
X82181411Y-97068186D01*
X82190268Y-96950004D01*
X82190268Y-96949995D01*
X82171222Y-96695845D01*
X82170040Y-96690667D01*
X82114508Y-96447363D01*
X82021393Y-96210112D01*
X81893959Y-95989388D01*
X81735050Y-95790123D01*
X81703094Y-95760472D01*
X81650158Y-95711354D01*
X81614404Y-95651325D01*
X81610500Y-95620456D01*
X81610500Y-94879542D01*
X81630185Y-94812503D01*
X81650155Y-94788647D01*
X81735050Y-94709877D01*
X81893959Y-94510612D01*
X82021393Y-94289888D01*
X82114508Y-94052637D01*
X82171222Y-93804157D01*
X82190268Y-93550000D01*
X82190268Y-93549995D01*
X87309732Y-93549995D01*
X87309732Y-93550004D01*
X87328777Y-93804154D01*
X87377113Y-94015930D01*
X87385492Y-94052637D01*
X87478607Y-94289888D01*
X87606041Y-94510612D01*
X87764950Y-94709877D01*
X87951783Y-94883232D01*
X88162366Y-95026805D01*
X88162371Y-95026807D01*
X88162372Y-95026808D01*
X88162374Y-95026809D01*
X88393846Y-95138280D01*
X88445706Y-95185102D01*
X88464019Y-95252529D01*
X88442971Y-95319153D01*
X88393846Y-95361720D01*
X88162374Y-95473190D01*
X88162372Y-95473191D01*
X87951782Y-95616768D01*
X87764952Y-95790121D01*
X87764950Y-95790123D01*
X87606041Y-95989388D01*
X87478608Y-96210109D01*
X87385492Y-96447362D01*
X87385490Y-96447369D01*
X87328777Y-96695845D01*
X87309732Y-96949995D01*
X87309732Y-96950004D01*
X87328777Y-97204154D01*
X87375491Y-97408822D01*
X87385492Y-97452637D01*
X87470321Y-97668777D01*
X87478608Y-97689890D01*
X87488533Y-97707080D01*
X87606041Y-97910612D01*
X87764950Y-98109877D01*
X87951783Y-98283232D01*
X88162366Y-98426805D01*
X88162371Y-98426807D01*
X88162372Y-98426808D01*
X88162373Y-98426809D01*
X88284328Y-98485538D01*
X88391992Y-98537387D01*
X88391993Y-98537387D01*
X88391996Y-98537389D01*
X88635542Y-98612513D01*
X88887565Y-98650500D01*
X89142435Y-98650500D01*
X89394458Y-98612513D01*
X89638004Y-98537389D01*
X89849822Y-98435383D01*
X89867626Y-98426809D01*
X89867626Y-98426808D01*
X89867634Y-98426805D01*
X90078217Y-98283232D01*
X90265050Y-98109877D01*
X90423959Y-97910612D01*
X90551393Y-97689888D01*
X90644508Y-97452637D01*
X90701222Y-97204157D01*
X90711411Y-97068186D01*
X90720268Y-96950004D01*
X90720268Y-96949995D01*
X90701222Y-96695845D01*
X90700040Y-96690667D01*
X90644508Y-96447363D01*
X90551393Y-96210112D01*
X90423959Y-95989388D01*
X90265050Y-95790123D01*
X90078217Y-95616768D01*
X89867634Y-95473195D01*
X89867630Y-95473193D01*
X89867627Y-95473191D01*
X89867626Y-95473190D01*
X89653698Y-95370169D01*
X89638004Y-95362611D01*
X89638001Y-95362610D01*
X89636153Y-95361720D01*
X89584293Y-95314898D01*
X89565980Y-95247471D01*
X89587028Y-95180847D01*
X89636153Y-95138280D01*
X89638001Y-95137389D01*
X89638004Y-95137389D01*
X89867634Y-95026805D01*
X90078217Y-94883232D01*
X90265050Y-94709877D01*
X90423959Y-94510612D01*
X90551393Y-94289888D01*
X90644508Y-94052637D01*
X90701222Y-93804157D01*
X90720268Y-93550000D01*
X90720268Y-93549995D01*
X100779732Y-93549995D01*
X100779732Y-93550004D01*
X100798777Y-93804154D01*
X100847113Y-94015930D01*
X100855492Y-94052637D01*
X100948607Y-94289888D01*
X101076041Y-94510612D01*
X101234950Y-94709877D01*
X101421783Y-94883232D01*
X101632366Y-95026805D01*
X101632371Y-95026807D01*
X101632372Y-95026808D01*
X101632374Y-95026809D01*
X101863846Y-95138280D01*
X101915706Y-95185102D01*
X101934019Y-95252529D01*
X101912971Y-95319153D01*
X101863846Y-95361720D01*
X101632374Y-95473190D01*
X101632372Y-95473191D01*
X101421782Y-95616768D01*
X101234952Y-95790121D01*
X101234950Y-95790123D01*
X101076041Y-95989388D01*
X100948608Y-96210109D01*
X100855492Y-96447362D01*
X100855490Y-96447369D01*
X100798777Y-96695845D01*
X100779732Y-96949995D01*
X100779732Y-96950004D01*
X100798777Y-97204154D01*
X100845491Y-97408822D01*
X100855492Y-97452637D01*
X100940321Y-97668777D01*
X100948608Y-97689890D01*
X100958533Y-97707080D01*
X101076041Y-97910612D01*
X101234950Y-98109877D01*
X101421783Y-98283232D01*
X101632366Y-98426805D01*
X101632371Y-98426807D01*
X101632372Y-98426808D01*
X101632373Y-98426809D01*
X101754328Y-98485538D01*
X101861992Y-98537387D01*
X101861993Y-98537387D01*
X101861996Y-98537389D01*
X102105542Y-98612513D01*
X102357565Y-98650500D01*
X102612435Y-98650500D01*
X102864458Y-98612513D01*
X103108004Y-98537389D01*
X103319822Y-98435383D01*
X103337626Y-98426809D01*
X103337626Y-98426808D01*
X103337634Y-98426805D01*
X103548217Y-98283232D01*
X103735050Y-98109877D01*
X103893959Y-97910612D01*
X104021393Y-97689888D01*
X104114508Y-97452637D01*
X104171222Y-97204157D01*
X104181411Y-97068186D01*
X104186521Y-96999998D01*
X108957177Y-96999998D01*
X108957177Y-97000001D01*
X108976443Y-97269382D01*
X109031308Y-97521585D01*
X109033850Y-97533270D01*
X109092266Y-97689888D01*
X109128228Y-97786308D01*
X109128230Y-97786312D01*
X109257652Y-98023331D01*
X109257657Y-98023339D01*
X109419493Y-98239527D01*
X109419509Y-98239545D01*
X109610454Y-98430490D01*
X109610472Y-98430506D01*
X109826660Y-98592342D01*
X109826668Y-98592347D01*
X110063687Y-98721769D01*
X110063691Y-98721771D01*
X110063693Y-98721772D01*
X110316730Y-98816150D01*
X110448676Y-98844853D01*
X110580617Y-98873556D01*
X110580619Y-98873556D01*
X110580623Y-98873557D01*
X110820007Y-98890677D01*
X110849999Y-98892823D01*
X110850000Y-98892823D01*
X110850001Y-98892823D01*
X110877824Y-98890833D01*
X111119377Y-98873557D01*
X111383270Y-98816150D01*
X111636307Y-98721772D01*
X111873337Y-98592344D01*
X112089535Y-98430500D01*
X112280500Y-98239535D01*
X112442344Y-98023337D01*
X112571772Y-97786307D01*
X112666150Y-97533270D01*
X112723557Y-97269377D01*
X112742677Y-97002038D01*
X112742823Y-97000001D01*
X112742823Y-96999998D01*
X112733346Y-96867489D01*
X112723557Y-96730623D01*
X112715991Y-96695845D01*
X112666151Y-96466736D01*
X112666150Y-96466730D01*
X112571772Y-96213693D01*
X112490667Y-96065161D01*
X112442347Y-95976668D01*
X112442342Y-95976660D01*
X112280506Y-95760472D01*
X112280490Y-95760454D01*
X112089545Y-95569509D01*
X112089527Y-95569493D01*
X111873339Y-95407657D01*
X111873331Y-95407652D01*
X111636312Y-95278230D01*
X111636308Y-95278228D01*
X111460118Y-95212513D01*
X111383270Y-95183850D01*
X111383266Y-95183849D01*
X111383263Y-95183848D01*
X111119382Y-95126443D01*
X110850001Y-95107177D01*
X110849999Y-95107177D01*
X110580617Y-95126443D01*
X110316736Y-95183848D01*
X110316731Y-95183849D01*
X110316730Y-95183850D01*
X110255551Y-95206668D01*
X110063691Y-95278228D01*
X110063687Y-95278230D01*
X109826668Y-95407652D01*
X109826660Y-95407657D01*
X109610472Y-95569493D01*
X109610454Y-95569509D01*
X109419509Y-95760454D01*
X109419493Y-95760472D01*
X109257657Y-95976660D01*
X109257652Y-95976668D01*
X109128230Y-96213687D01*
X109128228Y-96213691D01*
X109033848Y-96466736D01*
X108976443Y-96730617D01*
X108957177Y-96999998D01*
X104186521Y-96999998D01*
X104190268Y-96950004D01*
X104190268Y-96949995D01*
X104171222Y-96695845D01*
X104170040Y-96690667D01*
X104114508Y-96447363D01*
X104021393Y-96210112D01*
X103893959Y-95989388D01*
X103735050Y-95790123D01*
X103548217Y-95616768D01*
X103337634Y-95473195D01*
X103337630Y-95473193D01*
X103337627Y-95473191D01*
X103337626Y-95473190D01*
X103123698Y-95370169D01*
X103108004Y-95362611D01*
X103108001Y-95362610D01*
X103106153Y-95361720D01*
X103054293Y-95314898D01*
X103035980Y-95247471D01*
X103057028Y-95180847D01*
X103106153Y-95138280D01*
X103108001Y-95137389D01*
X103108004Y-95137389D01*
X103337634Y-95026805D01*
X103548217Y-94883232D01*
X103735050Y-94709877D01*
X103893959Y-94510612D01*
X104021393Y-94289888D01*
X104114508Y-94052637D01*
X104171222Y-93804157D01*
X104190268Y-93550000D01*
X104171222Y-93295843D01*
X104114508Y-93047363D01*
X104021393Y-92810112D01*
X103893959Y-92589388D01*
X103735050Y-92390123D01*
X103548217Y-92216768D01*
X103337634Y-92073195D01*
X103337630Y-92073193D01*
X103337627Y-92073191D01*
X103337626Y-92073190D01*
X103111549Y-91964318D01*
X103108006Y-91962612D01*
X103108008Y-91962612D01*
X102864466Y-91887489D01*
X102864462Y-91887488D01*
X102864458Y-91887487D01*
X102743231Y-91869214D01*
X102612440Y-91849500D01*
X102612435Y-91849500D01*
X102357565Y-91849500D01*
X102357559Y-91849500D01*
X102200609Y-91873157D01*
X102105542Y-91887487D01*
X102105539Y-91887488D01*
X102105533Y-91887489D01*
X101861992Y-91962612D01*
X101632373Y-92073190D01*
X101632372Y-92073191D01*
X101421782Y-92216768D01*
X101234952Y-92390121D01*
X101234950Y-92390123D01*
X101076041Y-92589388D01*
X100948608Y-92810109D01*
X100855492Y-93047362D01*
X100855490Y-93047369D01*
X100798777Y-93295845D01*
X100779732Y-93549995D01*
X90720268Y-93549995D01*
X90701222Y-93295843D01*
X90644508Y-93047363D01*
X90551393Y-92810112D01*
X90423959Y-92589388D01*
X90265050Y-92390123D01*
X90078217Y-92216768D01*
X89867634Y-92073195D01*
X89867630Y-92073193D01*
X89867627Y-92073191D01*
X89867626Y-92073190D01*
X89641549Y-91964318D01*
X89638006Y-91962612D01*
X89638008Y-91962612D01*
X89394466Y-91887489D01*
X89394462Y-91887488D01*
X89394458Y-91887487D01*
X89273231Y-91869214D01*
X89142440Y-91849500D01*
X89142435Y-91849500D01*
X88887565Y-91849500D01*
X88887559Y-91849500D01*
X88730609Y-91873157D01*
X88635542Y-91887487D01*
X88635539Y-91887488D01*
X88635533Y-91887489D01*
X88391992Y-91962612D01*
X88162373Y-92073190D01*
X88162372Y-92073191D01*
X87951782Y-92216768D01*
X87764952Y-92390121D01*
X87764950Y-92390123D01*
X87606041Y-92589388D01*
X87478608Y-92810109D01*
X87385492Y-93047362D01*
X87385490Y-93047369D01*
X87328777Y-93295845D01*
X87309732Y-93549995D01*
X82190268Y-93549995D01*
X82171222Y-93295843D01*
X82114508Y-93047363D01*
X82021393Y-92810112D01*
X81893959Y-92589388D01*
X81735050Y-92390123D01*
X81548217Y-92216768D01*
X81337634Y-92073195D01*
X81337630Y-92073193D01*
X81337627Y-92073191D01*
X81337626Y-92073190D01*
X81111549Y-91964318D01*
X81108006Y-91962612D01*
X81108008Y-91962612D01*
X80864466Y-91887489D01*
X80864462Y-91887488D01*
X80864458Y-91887487D01*
X80743231Y-91869214D01*
X80612440Y-91849500D01*
X80612435Y-91849500D01*
X80357565Y-91849500D01*
X80357559Y-91849500D01*
X80200609Y-91873157D01*
X80105542Y-91887487D01*
X80105539Y-91887488D01*
X80105533Y-91887489D01*
X79861992Y-91962612D01*
X79632373Y-92073190D01*
X79632372Y-92073191D01*
X79421782Y-92216768D01*
X79234952Y-92390121D01*
X79234950Y-92390123D01*
X79076041Y-92589388D01*
X78948608Y-92810109D01*
X78855492Y-93047362D01*
X78855490Y-93047369D01*
X78798777Y-93295845D01*
X78779732Y-93549995D01*
X69356702Y-93549995D01*
X69704878Y-93201819D01*
X69766201Y-93168334D01*
X69792559Y-93165500D01*
X76798578Y-93165500D01*
X76798579Y-93165500D01*
X76973556Y-93137786D01*
X77142042Y-93083042D01*
X77205357Y-93050781D01*
X77299890Y-93002614D01*
X77443214Y-92898483D01*
X77568483Y-92773214D01*
X77627042Y-92714655D01*
X77627055Y-92714640D01*
X89429879Y-80911819D01*
X89491202Y-80878334D01*
X89517560Y-80875500D01*
X95982441Y-80875500D01*
X96049480Y-80895185D01*
X96070122Y-80911819D01*
X98941786Y-83783483D01*
X99085110Y-83887613D01*
X99242958Y-83968042D01*
X99411444Y-84022786D01*
X99586421Y-84050500D01*
X99586422Y-84050500D01*
X99763578Y-84050500D01*
X99763579Y-84050500D01*
X99938556Y-84022786D01*
X100107042Y-83968042D01*
X100264890Y-83887613D01*
X100408214Y-83783483D01*
X100533483Y-83658214D01*
X100637613Y-83514890D01*
X100718042Y-83357042D01*
X100772786Y-83188556D01*
X100800500Y-83013579D01*
X100800500Y-82836421D01*
X100772786Y-82661444D01*
X100718042Y-82492958D01*
X100637613Y-82335110D01*
X100533483Y-82191786D01*
X97233214Y-78891517D01*
X97233213Y-78891516D01*
X97233211Y-78891514D01*
X97233206Y-78891510D01*
X97089893Y-78787388D01*
X97089892Y-78787387D01*
X97089890Y-78787386D01*
X97039320Y-78761619D01*
X96932042Y-78706957D01*
X96932039Y-78706956D01*
X96763557Y-78652214D01*
X96676067Y-78638357D01*
X96588579Y-78624500D01*
X96588578Y-78624500D01*
X90249500Y-78624500D01*
X90182461Y-78604815D01*
X90136706Y-78552011D01*
X90125500Y-78500500D01*
X90125500Y-76411421D01*
X90097786Y-76236445D01*
X90043042Y-76067958D01*
X90043042Y-76067957D01*
X89977703Y-75939724D01*
X89962614Y-75910110D01*
X89858483Y-75766786D01*
X89733214Y-75641517D01*
X89589890Y-75537386D01*
X89432042Y-75456957D01*
X89432039Y-75456956D01*
X89263556Y-75402214D01*
X89176067Y-75388357D01*
X89088579Y-75374500D01*
X88911421Y-75374500D01*
X88868810Y-75381248D01*
X88799518Y-75372293D01*
X88746067Y-75327296D01*
X88725428Y-75260544D01*
X88744154Y-75193231D01*
X88755127Y-75178241D01*
X88778545Y-75150822D01*
X88778546Y-75150821D01*
X88778548Y-75150819D01*
X88908122Y-74939374D01*
X89003023Y-74710262D01*
X89060915Y-74469125D01*
X89080372Y-74221900D01*
X89079337Y-74208752D01*
X89093698Y-74140376D01*
X89142747Y-74090617D01*
X89210912Y-74075276D01*
X89276550Y-74099222D01*
X89290635Y-74111339D01*
X90641059Y-75461763D01*
X90641064Y-75461767D01*
X90745146Y-75537386D01*
X90848053Y-75612152D01*
X90997078Y-75688085D01*
X91076023Y-75728310D01*
X91076029Y-75728312D01*
X91305967Y-75803022D01*
X91305970Y-75803023D01*
X91319361Y-75807374D01*
X91572070Y-75847400D01*
X95772070Y-75847400D01*
X99247234Y-75847400D01*
X99314273Y-75867085D01*
X99334915Y-75883719D01*
X113888181Y-90436985D01*
X113921666Y-90498308D01*
X113924500Y-90524666D01*
X113924500Y-96005734D01*
X113909332Y-96065161D01*
X113828230Y-96213687D01*
X113828228Y-96213691D01*
X113733848Y-96466736D01*
X113676443Y-96730617D01*
X113657177Y-96999998D01*
X113657177Y-97000001D01*
X113676443Y-97269382D01*
X113731308Y-97521585D01*
X113733850Y-97533270D01*
X113792266Y-97689888D01*
X113828228Y-97786308D01*
X113828230Y-97786312D01*
X113957652Y-98023331D01*
X113957657Y-98023339D01*
X114119493Y-98239527D01*
X114119509Y-98239545D01*
X114310454Y-98430490D01*
X114310472Y-98430506D01*
X114526660Y-98592342D01*
X114526668Y-98592347D01*
X114763687Y-98721769D01*
X114763691Y-98721771D01*
X114763693Y-98721772D01*
X115016730Y-98816150D01*
X115148676Y-98844853D01*
X115280617Y-98873556D01*
X115280619Y-98873556D01*
X115280623Y-98873557D01*
X115520007Y-98890677D01*
X115549999Y-98892823D01*
X115550000Y-98892823D01*
X115550001Y-98892823D01*
X115666334Y-98884502D01*
X115765923Y-98877380D01*
X115834196Y-98892232D01*
X115883601Y-98941637D01*
X115898453Y-99009910D01*
X115874036Y-99075374D01*
X115862450Y-99088745D01*
X112113015Y-102838181D01*
X112051692Y-102871666D01*
X112025334Y-102874500D01*
X109142070Y-102874500D01*
X109057833Y-102887842D01*
X108889359Y-102914526D01*
X108705681Y-102974206D01*
X108646513Y-102993431D01*
X108608197Y-102999500D01*
X108222129Y-102999500D01*
X108222123Y-102999501D01*
X108162516Y-103005908D01*
X108027671Y-103056202D01*
X108027664Y-103056206D01*
X107912455Y-103142452D01*
X107912452Y-103142455D01*
X107826206Y-103257664D01*
X107826202Y-103257671D01*
X107775908Y-103392517D01*
X107769501Y-103452116D01*
X107769500Y-103452135D01*
X107769500Y-103838196D01*
X107763431Y-103876514D01*
X107684526Y-104119359D01*
X107644500Y-104372070D01*
X107644500Y-104627929D01*
X107684526Y-104880640D01*
X107763431Y-105123485D01*
X107769500Y-105161803D01*
X107769500Y-105547870D01*
X107769501Y-105547876D01*
X107775908Y-105607483D01*
X107826202Y-105742328D01*
X107826206Y-105742335D01*
X107912452Y-105857544D01*
X107912455Y-105857547D01*
X108027664Y-105943793D01*
X108027671Y-105943797D01*
X108072618Y-105960561D01*
X108162517Y-105994091D01*
X108222127Y-106000500D01*
X108608194Y-106000499D01*
X108646510Y-106006567D01*
X108889361Y-106085474D01*
X109142070Y-106125500D01*
X109142071Y-106125500D01*
X112877929Y-106125500D01*
X112877930Y-106125500D01*
X113130639Y-106085474D01*
X113373976Y-106006410D01*
X113601947Y-105890252D01*
X113808942Y-105739862D01*
X120624485Y-98924317D01*
X120685808Y-98890833D01*
X120712166Y-98887999D01*
X121685371Y-98887999D01*
X121685372Y-98887999D01*
X121744983Y-98881591D01*
X121879831Y-98831296D01*
X121995046Y-98745046D01*
X122081296Y-98629831D01*
X122131591Y-98494983D01*
X122138000Y-98435373D01*
X122137999Y-95564628D01*
X122131591Y-95505017D01*
X122119826Y-95473474D01*
X122081297Y-95370171D01*
X122081293Y-95370164D01*
X121995047Y-95254955D01*
X121995044Y-95254952D01*
X121879835Y-95168706D01*
X121879828Y-95168702D01*
X121744982Y-95118408D01*
X121744983Y-95118408D01*
X121685383Y-95112001D01*
X121685381Y-95112000D01*
X121685373Y-95112000D01*
X121685364Y-95112000D01*
X118814629Y-95112000D01*
X118814623Y-95112001D01*
X118755016Y-95118408D01*
X118620171Y-95168702D01*
X118620164Y-95168706D01*
X118504955Y-95254952D01*
X118504952Y-95254955D01*
X118418706Y-95370164D01*
X118418702Y-95370171D01*
X118368408Y-95505017D01*
X118362271Y-95562103D01*
X118362001Y-95564623D01*
X118362000Y-95564635D01*
X118362000Y-96537833D01*
X118342315Y-96604872D01*
X118325681Y-96625514D01*
X117638745Y-97312449D01*
X117577422Y-97345934D01*
X117507730Y-97340950D01*
X117451797Y-97299078D01*
X117427380Y-97233614D01*
X117427380Y-97215922D01*
X117428222Y-97204157D01*
X117442677Y-97002038D01*
X117442823Y-97000001D01*
X117442823Y-96999998D01*
X117433346Y-96867489D01*
X117423557Y-96730623D01*
X117415991Y-96695845D01*
X117366151Y-96466736D01*
X117366150Y-96466730D01*
X117271772Y-96213693D01*
X117190668Y-96065161D01*
X117175500Y-96005734D01*
X117175500Y-91549500D01*
X117195185Y-91482461D01*
X117247989Y-91436706D01*
X117299500Y-91425500D01*
X121075334Y-91425500D01*
X121142373Y-91445185D01*
X121163015Y-91461819D01*
X124829059Y-95127863D01*
X124829064Y-95127867D01*
X124993686Y-95247471D01*
X125036053Y-95278252D01*
X125185078Y-95354185D01*
X125264023Y-95394410D01*
X125264029Y-95394412D01*
X125454605Y-95456333D01*
X125454606Y-95456333D01*
X125507360Y-95473474D01*
X125633715Y-95493487D01*
X125760070Y-95513500D01*
X126590040Y-95513500D01*
X126657079Y-95533185D01*
X126702834Y-95585989D01*
X126712778Y-95655147D01*
X126691615Y-95708624D01*
X126636165Y-95787814D01*
X126541845Y-95990085D01*
X126541841Y-95990094D01*
X126484081Y-96205660D01*
X126484079Y-96205670D01*
X126464628Y-96427999D01*
X126464628Y-96428000D01*
X126484079Y-96650329D01*
X126484081Y-96650339D01*
X126541841Y-96865905D01*
X126541843Y-96865909D01*
X126541844Y-96865913D01*
X126636165Y-97068186D01*
X126764178Y-97251007D01*
X126921993Y-97408822D01*
X127083035Y-97521585D01*
X127104814Y-97536835D01*
X127209430Y-97585618D01*
X127261869Y-97631790D01*
X127281021Y-97698984D01*
X127260805Y-97765865D01*
X127209430Y-97810382D01*
X127104814Y-97859164D01*
X127009251Y-97926079D01*
X126921993Y-97987178D01*
X126921991Y-97987179D01*
X126921988Y-97987182D01*
X126764182Y-98144988D01*
X126764179Y-98144991D01*
X126764178Y-98144993D01*
X126667382Y-98283232D01*
X126636165Y-98327814D01*
X126541845Y-98530085D01*
X126541841Y-98530094D01*
X126484081Y-98745660D01*
X126484079Y-98745670D01*
X126464628Y-98967999D01*
X126464628Y-98968000D01*
X126484079Y-99190329D01*
X126484081Y-99190339D01*
X126541841Y-99405905D01*
X126541843Y-99405909D01*
X126541844Y-99405913D01*
X126636165Y-99608186D01*
X126764178Y-99791007D01*
X126921993Y-99948822D01*
X127104814Y-100076835D01*
X127307087Y-100171156D01*
X127307093Y-100171157D01*
X127307094Y-100171158D01*
X127337309Y-100179254D01*
X127522666Y-100228920D01*
X127700533Y-100244481D01*
X127744999Y-100248372D01*
X127745000Y-100248372D01*
X127745001Y-100248372D01*
X127782055Y-100245130D01*
X127967334Y-100228920D01*
X128182913Y-100171156D01*
X128385186Y-100076835D01*
X128568007Y-99948822D01*
X128725822Y-99791007D01*
X128853835Y-99608186D01*
X128948156Y-99405913D01*
X129005920Y-99190334D01*
X129025372Y-98968000D01*
X129005920Y-98745666D01*
X128948156Y-98530087D01*
X128853835Y-98327814D01*
X128725822Y-98144993D01*
X128568007Y-97987178D01*
X128385186Y-97859165D01*
X128280569Y-97810381D01*
X128228130Y-97764210D01*
X128208978Y-97697017D01*
X128229193Y-97630135D01*
X128280570Y-97585618D01*
X128318442Y-97567958D01*
X128385186Y-97536835D01*
X128568007Y-97408822D01*
X128725822Y-97251007D01*
X128853835Y-97068186D01*
X128923465Y-96918861D01*
X128969635Y-96866426D01*
X129036828Y-96847274D01*
X129103709Y-96867489D01*
X129138947Y-96902379D01*
X129205535Y-97002034D01*
X129205538Y-97002038D01*
X129330961Y-97127461D01*
X129330965Y-97127464D01*
X129478446Y-97226009D01*
X129478459Y-97226016D01*
X129538804Y-97251011D01*
X129642334Y-97293894D01*
X129642336Y-97293894D01*
X129642341Y-97293896D01*
X129816304Y-97328499D01*
X129816307Y-97328500D01*
X129816309Y-97328500D01*
X129993693Y-97328500D01*
X129993694Y-97328499D01*
X130051682Y-97316964D01*
X130167658Y-97293896D01*
X130167661Y-97293894D01*
X130167666Y-97293894D01*
X130331547Y-97226013D01*
X130479035Y-97127464D01*
X130604464Y-97002035D01*
X130703013Y-96854547D01*
X130770894Y-96690666D01*
X130805500Y-96516691D01*
X130805500Y-96339309D01*
X130805500Y-96339306D01*
X130805499Y-96339304D01*
X130770896Y-96165341D01*
X130770893Y-96165332D01*
X130703016Y-96001459D01*
X130703009Y-96001446D01*
X130604464Y-95853965D01*
X130604461Y-95853961D01*
X130479038Y-95728538D01*
X130479034Y-95728535D01*
X130331553Y-95629990D01*
X130331540Y-95629983D01*
X130167667Y-95562106D01*
X130167658Y-95562103D01*
X129993694Y-95527500D01*
X129993691Y-95527500D01*
X129816309Y-95527500D01*
X129816306Y-95527500D01*
X129642341Y-95562103D01*
X129642332Y-95562106D01*
X129478459Y-95629983D01*
X129478446Y-95629990D01*
X129330965Y-95728535D01*
X129330961Y-95728538D01*
X129205538Y-95853961D01*
X129138947Y-95953621D01*
X129085334Y-95998425D01*
X129016009Y-96007132D01*
X128952982Y-95976977D01*
X128923463Y-95937133D01*
X128853835Y-95787814D01*
X128725822Y-95604993D01*
X128585006Y-95464177D01*
X128551521Y-95402854D01*
X128556505Y-95333162D01*
X128598377Y-95277229D01*
X128599802Y-95276178D01*
X128803936Y-95127867D01*
X128803938Y-95127864D01*
X128803942Y-95127862D01*
X128984862Y-94946942D01*
X129135252Y-94739947D01*
X129251410Y-94511975D01*
X129330474Y-94268639D01*
X129370500Y-94015930D01*
X129370500Y-93760070D01*
X129330474Y-93507361D01*
X129251410Y-93264025D01*
X129251410Y-93264024D01*
X129201209Y-93165500D01*
X129135252Y-93036053D01*
X129035299Y-92898479D01*
X128984867Y-92829064D01*
X128984863Y-92829059D01*
X128830441Y-92674637D01*
X128796956Y-92613314D01*
X128801940Y-92543622D01*
X128843811Y-92487689D01*
X128867191Y-92470186D01*
X128953350Y-92355093D01*
X128953354Y-92355086D01*
X129003596Y-92220379D01*
X129003598Y-92220372D01*
X129009999Y-92160844D01*
X129010000Y-92160827D01*
X129010000Y-91598000D01*
X128189560Y-91598000D01*
X128220245Y-91544853D01*
X128255000Y-91415143D01*
X128255000Y-91280857D01*
X128220245Y-91151147D01*
X128189560Y-91098000D01*
X129010000Y-91098000D01*
X129010000Y-90535172D01*
X129009999Y-90535155D01*
X129003598Y-90475627D01*
X129003596Y-90475620D01*
X128953354Y-90340913D01*
X128953350Y-90340906D01*
X128867190Y-90225812D01*
X128867187Y-90225809D01*
X128752093Y-90139649D01*
X128752086Y-90139645D01*
X128617379Y-90089403D01*
X128617372Y-90089401D01*
X128557844Y-90083000D01*
X127995000Y-90083000D01*
X127995000Y-90903439D01*
X127941853Y-90872755D01*
X127812143Y-90838000D01*
X127677857Y-90838000D01*
X127548147Y-90872755D01*
X127495000Y-90903439D01*
X127495000Y-90083000D01*
X126932155Y-90083000D01*
X126872627Y-90089401D01*
X126872620Y-90089403D01*
X126737913Y-90139645D01*
X126737906Y-90139649D01*
X126622812Y-90225809D01*
X126622809Y-90225812D01*
X126536649Y-90340906D01*
X126536645Y-90340913D01*
X126486403Y-90475620D01*
X126486401Y-90475627D01*
X126480000Y-90535155D01*
X126480000Y-91098000D01*
X127300440Y-91098000D01*
X127269755Y-91151147D01*
X127235000Y-91280857D01*
X127235000Y-91415143D01*
X127269755Y-91544853D01*
X127300440Y-91598000D01*
X126480000Y-91598000D01*
X126480000Y-91881834D01*
X126460315Y-91948873D01*
X126407511Y-91994628D01*
X126338353Y-92004572D01*
X126274797Y-91975547D01*
X126268319Y-91969515D01*
X122858940Y-88560136D01*
X122858935Y-88560132D01*
X122651950Y-88409750D01*
X122651949Y-88409749D01*
X122651947Y-88409748D01*
X122578911Y-88372534D01*
X122423976Y-88293589D01*
X122423973Y-88293588D01*
X122180640Y-88214526D01*
X122054284Y-88194513D01*
X121927930Y-88174500D01*
X121927929Y-88174500D01*
X116274667Y-88174500D01*
X116207628Y-88154815D01*
X116186986Y-88138181D01*
X110134093Y-82085288D01*
X104049850Y-76001046D01*
X104016366Y-75939724D01*
X104021350Y-75870032D01*
X104063222Y-75814099D01*
X104128686Y-75789682D01*
X104147262Y-75789748D01*
X104300000Y-75801769D01*
X104547149Y-75782318D01*
X104788197Y-75724448D01*
X104788209Y-75724444D01*
X105017246Y-75629574D01*
X105226122Y-75501574D01*
X104736924Y-75012377D01*
X104873717Y-74920976D01*
X104999076Y-74795617D01*
X105090477Y-74658825D01*
X105579674Y-75148022D01*
X105707674Y-74939146D01*
X105802544Y-74710109D01*
X105802548Y-74710097D01*
X105860418Y-74469049D01*
X105873722Y-74300000D01*
X111569628Y-74300000D01*
X111589085Y-74547228D01*
X111646976Y-74788362D01*
X111741877Y-75017474D01*
X111871450Y-75228916D01*
X111871453Y-75228921D01*
X111898462Y-75260544D01*
X112032508Y-75417492D01*
X112129639Y-75500449D01*
X112221078Y-75578546D01*
X112221083Y-75578549D01*
X112432525Y-75708122D01*
X112661637Y-75803023D01*
X112846481Y-75847400D01*
X112902775Y-75860915D01*
X113150000Y-75880372D01*
X113397225Y-75860915D01*
X113638362Y-75803023D01*
X113867474Y-75708122D01*
X114078919Y-75578548D01*
X114267492Y-75417492D01*
X114428548Y-75228919D01*
X114558122Y-75017474D01*
X114653023Y-74788362D01*
X114710915Y-74547225D01*
X114730372Y-74300000D01*
X115769628Y-74300000D01*
X115789085Y-74547228D01*
X115846976Y-74788362D01*
X115941877Y-75017474D01*
X116071450Y-75228916D01*
X116071453Y-75228921D01*
X116098462Y-75260544D01*
X116232508Y-75417492D01*
X116329639Y-75500449D01*
X116421078Y-75578546D01*
X116421083Y-75578549D01*
X116632525Y-75708122D01*
X116861637Y-75803023D01*
X117046481Y-75847400D01*
X117102775Y-75860915D01*
X117350000Y-75880372D01*
X117597225Y-75860915D01*
X117838362Y-75803023D01*
X118067474Y-75708122D01*
X118278919Y-75578548D01*
X118467492Y-75417492D01*
X118628548Y-75228919D01*
X118758122Y-75017474D01*
X118853023Y-74788362D01*
X118910915Y-74547225D01*
X118930372Y-74300000D01*
X119969628Y-74300000D01*
X119989085Y-74547228D01*
X120046976Y-74788362D01*
X120141877Y-75017474D01*
X120271450Y-75228916D01*
X120271453Y-75228921D01*
X120298462Y-75260544D01*
X120432508Y-75417492D01*
X120529639Y-75500449D01*
X120621078Y-75578546D01*
X120621083Y-75578549D01*
X120832525Y-75708122D01*
X121061637Y-75803023D01*
X121246481Y-75847400D01*
X121302775Y-75860915D01*
X121550000Y-75880372D01*
X121797225Y-75860915D01*
X122038362Y-75803023D01*
X122267474Y-75708122D01*
X122478919Y-75578548D01*
X122667492Y-75417492D01*
X122828548Y-75228919D01*
X122958122Y-75017474D01*
X123053023Y-74788362D01*
X123110915Y-74547225D01*
X123130372Y-74300000D01*
X124169628Y-74300000D01*
X124189085Y-74547228D01*
X124246976Y-74788362D01*
X124341877Y-75017474D01*
X124471450Y-75228916D01*
X124471453Y-75228921D01*
X124498462Y-75260544D01*
X124632508Y-75417492D01*
X124729639Y-75500449D01*
X124821078Y-75578546D01*
X124821083Y-75578549D01*
X125032525Y-75708122D01*
X125261637Y-75803023D01*
X125446481Y-75847400D01*
X125502775Y-75860915D01*
X125750000Y-75880372D01*
X125997225Y-75860915D01*
X126238362Y-75803023D01*
X126467474Y-75708122D01*
X126678919Y-75578548D01*
X126867492Y-75417492D01*
X127028548Y-75228919D01*
X127158122Y-75017474D01*
X127253023Y-74788362D01*
X127310915Y-74547225D01*
X127330372Y-74300000D01*
X127310915Y-74052775D01*
X127253023Y-73811638D01*
X127158122Y-73582526D01*
X127158122Y-73582525D01*
X127028549Y-73371083D01*
X127028546Y-73371078D01*
X126961846Y-73292983D01*
X126867492Y-73182508D01*
X126753878Y-73085473D01*
X126678921Y-73021453D01*
X126678916Y-73021450D01*
X126467474Y-72891877D01*
X126238362Y-72796976D01*
X125997228Y-72739085D01*
X125750000Y-72719628D01*
X125502771Y-72739085D01*
X125261637Y-72796976D01*
X125032525Y-72891877D01*
X124821083Y-73021450D01*
X124821078Y-73021453D01*
X124632508Y-73182508D01*
X124471453Y-73371078D01*
X124471450Y-73371083D01*
X124341877Y-73582525D01*
X124246976Y-73811637D01*
X124189085Y-74052771D01*
X124169628Y-74300000D01*
X123130372Y-74300000D01*
X123110915Y-74052775D01*
X123053023Y-73811638D01*
X122958122Y-73582526D01*
X122958122Y-73582525D01*
X122828549Y-73371083D01*
X122828546Y-73371078D01*
X122761846Y-73292983D01*
X122667492Y-73182508D01*
X122553878Y-73085473D01*
X122478921Y-73021453D01*
X122478916Y-73021450D01*
X122267474Y-72891877D01*
X122038362Y-72796976D01*
X121797228Y-72739085D01*
X121550000Y-72719628D01*
X121302771Y-72739085D01*
X121061637Y-72796976D01*
X120832525Y-72891877D01*
X120621083Y-73021450D01*
X120621078Y-73021453D01*
X120432508Y-73182508D01*
X120271453Y-73371078D01*
X120271450Y-73371083D01*
X120141877Y-73582525D01*
X120046976Y-73811637D01*
X119989085Y-74052771D01*
X119969628Y-74300000D01*
X118930372Y-74300000D01*
X118910915Y-74052775D01*
X118853023Y-73811638D01*
X118758122Y-73582526D01*
X118758122Y-73582525D01*
X118628549Y-73371083D01*
X118628546Y-73371078D01*
X118561846Y-73292983D01*
X118467492Y-73182508D01*
X118353878Y-73085473D01*
X118278921Y-73021453D01*
X118278916Y-73021450D01*
X118067474Y-72891877D01*
X117838362Y-72796976D01*
X117597228Y-72739085D01*
X117350000Y-72719628D01*
X117102771Y-72739085D01*
X116861637Y-72796976D01*
X116632525Y-72891877D01*
X116421083Y-73021450D01*
X116421078Y-73021453D01*
X116232508Y-73182508D01*
X116071453Y-73371078D01*
X116071450Y-73371083D01*
X115941877Y-73582525D01*
X115846976Y-73811637D01*
X115789085Y-74052771D01*
X115769628Y-74300000D01*
X114730372Y-74300000D01*
X114710915Y-74052775D01*
X114653023Y-73811638D01*
X114558122Y-73582526D01*
X114558122Y-73582525D01*
X114428549Y-73371083D01*
X114428546Y-73371078D01*
X114361846Y-73292983D01*
X114267492Y-73182508D01*
X114153878Y-73085473D01*
X114078921Y-73021453D01*
X114078916Y-73021450D01*
X113867474Y-72891877D01*
X113638362Y-72796976D01*
X113397228Y-72739085D01*
X113150000Y-72719628D01*
X112902771Y-72739085D01*
X112661637Y-72796976D01*
X112432525Y-72891877D01*
X112221083Y-73021450D01*
X112221078Y-73021453D01*
X112032508Y-73182508D01*
X111871453Y-73371078D01*
X111871450Y-73371083D01*
X111741877Y-73582525D01*
X111646976Y-73811637D01*
X111589085Y-74052771D01*
X111569628Y-74300000D01*
X105873722Y-74300000D01*
X105879869Y-74221900D01*
X105860418Y-73974750D01*
X105802548Y-73733702D01*
X105802544Y-73733690D01*
X105707674Y-73504653D01*
X105579674Y-73295776D01*
X105090476Y-73784974D01*
X104999076Y-73648183D01*
X104873717Y-73522824D01*
X104736924Y-73431422D01*
X105226122Y-72942224D01*
X105017244Y-72814225D01*
X105017238Y-72814222D01*
X104788209Y-72719355D01*
X104788197Y-72719351D01*
X104547149Y-72661481D01*
X104300000Y-72642030D01*
X104052850Y-72661481D01*
X103811802Y-72719351D01*
X103811790Y-72719355D01*
X103582761Y-72814222D01*
X103582755Y-72814225D01*
X103373876Y-72942224D01*
X103863075Y-73431422D01*
X103726283Y-73522824D01*
X103600924Y-73648183D01*
X103509522Y-73784975D01*
X103020324Y-73295776D01*
X102892325Y-73504655D01*
X102892322Y-73504661D01*
X102797455Y-73733690D01*
X102797451Y-73733702D01*
X102739581Y-73974750D01*
X102720130Y-74221900D01*
X102732151Y-74374638D01*
X102717787Y-74443015D01*
X102668735Y-74492772D01*
X102600570Y-74508111D01*
X102534933Y-74484162D01*
X102520852Y-74472048D01*
X101578412Y-73529608D01*
X101555608Y-73498222D01*
X101517958Y-73424330D01*
X101490252Y-73369953D01*
X101490250Y-73369950D01*
X101490249Y-73369948D01*
X101339867Y-73162964D01*
X101339863Y-73162959D01*
X101158940Y-72982036D01*
X101158935Y-72982032D01*
X100951950Y-72831650D01*
X100951949Y-72831649D01*
X100951947Y-72831648D01*
X100878910Y-72794433D01*
X100723975Y-72715489D01*
X100723972Y-72715488D01*
X100480640Y-72636426D01*
X100354284Y-72616413D01*
X100227930Y-72596400D01*
X100227929Y-72596400D01*
X92424666Y-72596400D01*
X92357627Y-72576715D01*
X92336985Y-72560081D01*
X90037040Y-70260136D01*
X90037035Y-70260132D01*
X89830050Y-70109750D01*
X89830049Y-70109749D01*
X89830047Y-70109748D01*
X89691659Y-70039235D01*
X89602076Y-69993589D01*
X89602073Y-69993588D01*
X89358740Y-69914526D01*
X89232384Y-69894513D01*
X89106030Y-69874500D01*
X89106029Y-69874500D01*
X88856484Y-69874500D01*
X88789445Y-69854815D01*
X88743690Y-69802011D01*
X88733746Y-69732853D01*
X88762193Y-69669969D01*
X88778547Y-69650820D01*
X88778546Y-69650820D01*
X88778548Y-69650819D01*
X88908122Y-69439374D01*
X89003023Y-69210262D01*
X89060915Y-68969125D01*
X89080372Y-68721900D01*
X90119628Y-68721900D01*
X90139085Y-68969128D01*
X90196976Y-69210262D01*
X90291877Y-69439374D01*
X90421450Y-69650816D01*
X90421453Y-69650821D01*
X90463456Y-69700000D01*
X90582508Y-69839392D01*
X90658602Y-69904382D01*
X90771078Y-70000446D01*
X90771080Y-70000447D01*
X90771081Y-70000448D01*
X90827979Y-70035315D01*
X90982525Y-70130022D01*
X91211637Y-70224923D01*
X91418567Y-70274602D01*
X91452775Y-70282815D01*
X91700000Y-70302272D01*
X91947225Y-70282815D01*
X92188362Y-70224923D01*
X92417474Y-70130022D01*
X92628919Y-70000448D01*
X92817492Y-69839392D01*
X92978548Y-69650819D01*
X93108122Y-69439374D01*
X93203023Y-69210262D01*
X93260915Y-68969125D01*
X93280372Y-68721900D01*
X94319628Y-68721900D01*
X94339085Y-68969128D01*
X94396976Y-69210262D01*
X94491877Y-69439374D01*
X94621450Y-69650816D01*
X94621453Y-69650821D01*
X94663456Y-69700000D01*
X94782508Y-69839392D01*
X94858602Y-69904382D01*
X94971078Y-70000446D01*
X94971080Y-70000447D01*
X94971081Y-70000448D01*
X95027979Y-70035315D01*
X95182525Y-70130022D01*
X95411637Y-70224923D01*
X95618567Y-70274602D01*
X95652775Y-70282815D01*
X95900000Y-70302272D01*
X96147225Y-70282815D01*
X96388362Y-70224923D01*
X96617474Y-70130022D01*
X96828919Y-70000448D01*
X97017492Y-69839392D01*
X97178548Y-69650819D01*
X97308122Y-69439374D01*
X97403023Y-69210262D01*
X97460915Y-68969125D01*
X97480372Y-68721900D01*
X98519628Y-68721900D01*
X98539085Y-68969128D01*
X98596976Y-69210262D01*
X98691877Y-69439374D01*
X98821450Y-69650816D01*
X98821453Y-69650821D01*
X98863456Y-69700000D01*
X98982508Y-69839392D01*
X99058602Y-69904382D01*
X99171078Y-70000446D01*
X99171080Y-70000447D01*
X99171081Y-70000448D01*
X99227979Y-70035315D01*
X99382525Y-70130022D01*
X99611637Y-70224923D01*
X99818567Y-70274602D01*
X99852775Y-70282815D01*
X100100000Y-70302272D01*
X100347225Y-70282815D01*
X100588362Y-70224923D01*
X100817474Y-70130022D01*
X101028919Y-70000448D01*
X101217492Y-69839392D01*
X101378548Y-69650819D01*
X101508122Y-69439374D01*
X101603023Y-69210262D01*
X101660915Y-68969125D01*
X101680372Y-68721900D01*
X101660915Y-68474675D01*
X101621810Y-68311790D01*
X101603023Y-68233537D01*
X101508122Y-68004425D01*
X101380818Y-67796686D01*
X101378548Y-67792981D01*
X101378547Y-67792980D01*
X101378546Y-67792978D01*
X101279638Y-67677172D01*
X101217492Y-67604408D01*
X101114399Y-67516358D01*
X101028921Y-67443353D01*
X101028916Y-67443350D01*
X100817474Y-67313777D01*
X100588362Y-67218876D01*
X100347228Y-67160985D01*
X100100000Y-67141528D01*
X99852771Y-67160985D01*
X99611637Y-67218876D01*
X99382525Y-67313777D01*
X99171083Y-67443350D01*
X99171078Y-67443353D01*
X98982508Y-67604408D01*
X98821453Y-67792978D01*
X98821450Y-67792983D01*
X98691877Y-68004425D01*
X98596976Y-68233537D01*
X98539085Y-68474671D01*
X98519628Y-68721900D01*
X97480372Y-68721900D01*
X97460915Y-68474675D01*
X97421810Y-68311790D01*
X97403023Y-68233537D01*
X97308122Y-68004425D01*
X97180818Y-67796686D01*
X97178548Y-67792981D01*
X97178547Y-67792980D01*
X97178546Y-67792978D01*
X97079638Y-67677172D01*
X97017492Y-67604408D01*
X96914399Y-67516358D01*
X96828921Y-67443353D01*
X96828916Y-67443350D01*
X96617474Y-67313777D01*
X96388362Y-67218876D01*
X96147228Y-67160985D01*
X95900000Y-67141528D01*
X95652771Y-67160985D01*
X95411637Y-67218876D01*
X95182525Y-67313777D01*
X94971083Y-67443350D01*
X94971078Y-67443353D01*
X94782508Y-67604408D01*
X94621453Y-67792978D01*
X94621450Y-67792983D01*
X94491877Y-68004425D01*
X94396976Y-68233537D01*
X94339085Y-68474671D01*
X94319628Y-68721900D01*
X93280372Y-68721900D01*
X93260915Y-68474675D01*
X93221810Y-68311790D01*
X93203023Y-68233537D01*
X93108122Y-68004425D01*
X92980818Y-67796686D01*
X92978548Y-67792981D01*
X92978547Y-67792980D01*
X92978546Y-67792978D01*
X92879638Y-67677172D01*
X92817492Y-67604408D01*
X92714399Y-67516358D01*
X92628921Y-67443353D01*
X92628916Y-67443350D01*
X92417474Y-67313777D01*
X92188362Y-67218876D01*
X91947228Y-67160985D01*
X91700000Y-67141528D01*
X91452771Y-67160985D01*
X91211637Y-67218876D01*
X90982525Y-67313777D01*
X90771083Y-67443350D01*
X90771078Y-67443353D01*
X90582508Y-67604408D01*
X90421453Y-67792978D01*
X90421450Y-67792983D01*
X90291877Y-68004425D01*
X90196976Y-68233537D01*
X90139085Y-68474671D01*
X90119628Y-68721900D01*
X89080372Y-68721900D01*
X89060915Y-68474675D01*
X89021810Y-68311790D01*
X89003023Y-68233537D01*
X88908122Y-68004425D01*
X88780818Y-67796686D01*
X88778548Y-67792981D01*
X88778547Y-67792980D01*
X88778546Y-67792978D01*
X88679638Y-67677172D01*
X88617492Y-67604408D01*
X88514399Y-67516358D01*
X88428921Y-67443353D01*
X88428916Y-67443350D01*
X88217474Y-67313777D01*
X87988362Y-67218876D01*
X87747228Y-67160985D01*
X87500000Y-67141528D01*
X87252771Y-67160985D01*
X87011637Y-67218876D01*
X86782525Y-67313777D01*
X86571083Y-67443350D01*
X86571078Y-67443353D01*
X86382508Y-67604408D01*
X86221453Y-67792978D01*
X86221450Y-67792983D01*
X86091877Y-68004425D01*
X85996976Y-68233537D01*
X85939085Y-68474671D01*
X85919628Y-68721900D01*
X85939085Y-68969128D01*
X85996976Y-69210262D01*
X86091877Y-69439374D01*
X86221450Y-69650816D01*
X86221452Y-69650820D01*
X86237807Y-69669969D01*
X86266377Y-69733730D01*
X86255939Y-69802816D01*
X86209809Y-69855292D01*
X86143516Y-69874500D01*
X84655826Y-69874500D01*
X84588787Y-69854815D01*
X84543032Y-69802011D01*
X84533088Y-69732853D01*
X84561535Y-69669969D01*
X84578139Y-69650527D01*
X84707676Y-69439141D01*
X84802544Y-69210109D01*
X84802548Y-69210097D01*
X84860418Y-68969049D01*
X84879869Y-68721900D01*
X84860418Y-68474750D01*
X84802548Y-68233702D01*
X84802544Y-68233690D01*
X84707674Y-68004653D01*
X84579674Y-67795776D01*
X84090476Y-68284973D01*
X83999076Y-68148183D01*
X83873717Y-68022824D01*
X83736924Y-67931422D01*
X84226122Y-67442224D01*
X84017244Y-67314225D01*
X84017238Y-67314222D01*
X83788209Y-67219355D01*
X83788197Y-67219351D01*
X83547149Y-67161481D01*
X83300000Y-67142030D01*
X83052850Y-67161481D01*
X82811802Y-67219351D01*
X82811790Y-67219355D01*
X82582761Y-67314222D01*
X82582755Y-67314225D01*
X82373876Y-67442224D01*
X82863075Y-67931422D01*
X82726283Y-68022824D01*
X82600924Y-68148183D01*
X82509522Y-68284975D01*
X82020324Y-67795776D01*
X81892325Y-68004655D01*
X81892322Y-68004661D01*
X81797455Y-68233690D01*
X81797451Y-68233702D01*
X81739581Y-68474750D01*
X81720130Y-68721900D01*
X81721208Y-68735596D01*
X81706843Y-68803973D01*
X81657792Y-68853729D01*
X81589627Y-68869068D01*
X81523990Y-68845119D01*
X81509909Y-68833005D01*
X80158940Y-67482036D01*
X80158935Y-67482032D01*
X79951950Y-67331650D01*
X79951949Y-67331649D01*
X79951947Y-67331648D01*
X79868937Y-67289352D01*
X79723976Y-67215489D01*
X79723973Y-67215488D01*
X79480640Y-67136426D01*
X79354284Y-67116413D01*
X79227930Y-67096400D01*
X78972070Y-67096400D01*
X78887833Y-67109742D01*
X78719359Y-67136426D01*
X78476026Y-67215488D01*
X78476023Y-67215489D01*
X78248049Y-67331650D01*
X78041064Y-67482032D01*
X78041059Y-67482036D01*
X76690090Y-68833004D01*
X76628767Y-68866489D01*
X76559075Y-68861505D01*
X76503142Y-68819633D01*
X76478725Y-68754169D01*
X76478792Y-68735587D01*
X76479869Y-68721901D01*
X76460418Y-68474750D01*
X76402548Y-68233702D01*
X76402544Y-68233690D01*
X76307674Y-68004653D01*
X76179674Y-67795776D01*
X75690476Y-68284973D01*
X75599076Y-68148183D01*
X75473717Y-68022824D01*
X75336924Y-67931422D01*
X75826122Y-67442224D01*
X75617244Y-67314225D01*
X75617238Y-67314222D01*
X75388209Y-67219355D01*
X75388197Y-67219351D01*
X75147149Y-67161481D01*
X74900000Y-67142030D01*
X74652850Y-67161481D01*
X74411802Y-67219351D01*
X74411790Y-67219355D01*
X74182761Y-67314222D01*
X74182755Y-67314225D01*
X73973876Y-67442224D01*
X74463075Y-67931422D01*
X74326283Y-68022824D01*
X74200924Y-68148183D01*
X74109522Y-68284975D01*
X73620324Y-67795776D01*
X73492325Y-68004655D01*
X73492322Y-68004661D01*
X73397455Y-68233690D01*
X73397451Y-68233702D01*
X73339581Y-68474750D01*
X73320130Y-68721900D01*
X73321208Y-68735596D01*
X73306843Y-68803973D01*
X73257792Y-68853729D01*
X73189627Y-68869068D01*
X73123990Y-68845119D01*
X73109909Y-68833005D01*
X71758940Y-67482036D01*
X71758935Y-67482032D01*
X71551950Y-67331650D01*
X71551949Y-67331649D01*
X71551947Y-67331648D01*
X71468937Y-67289352D01*
X71323976Y-67215489D01*
X71323973Y-67215488D01*
X71080640Y-67136426D01*
X70954284Y-67116413D01*
X70827930Y-67096400D01*
X70572070Y-67096400D01*
X70487833Y-67109742D01*
X70319359Y-67136426D01*
X70076026Y-67215488D01*
X70076023Y-67215489D01*
X69848049Y-67331650D01*
X69641064Y-67482032D01*
X69641059Y-67482036D01*
X69460136Y-67662959D01*
X69460132Y-67662964D01*
X69309750Y-67869949D01*
X69193589Y-68097923D01*
X69193588Y-68097926D01*
X69114526Y-68341259D01*
X69074500Y-68593970D01*
X69074500Y-68849829D01*
X69114526Y-69102540D01*
X69193588Y-69345873D01*
X69193589Y-69345876D01*
X69309750Y-69573850D01*
X69460132Y-69780835D01*
X69460136Y-69780840D01*
X72419159Y-72739863D01*
X72419164Y-72739867D01*
X72520895Y-72813778D01*
X72626153Y-72890252D01*
X72730363Y-72943350D01*
X72854123Y-73006410D01*
X72854126Y-73006411D01*
X72900422Y-73021453D01*
X73097461Y-73085474D01*
X73350170Y-73125500D01*
X73350171Y-73125500D01*
X73503253Y-73125500D01*
X73570292Y-73145185D01*
X73616047Y-73197989D01*
X73625991Y-73267147D01*
X73608981Y-73314290D01*
X73492323Y-73504658D01*
X73397455Y-73733690D01*
X73397451Y-73733702D01*
X73339581Y-73974750D01*
X73320130Y-74221900D01*
X73339581Y-74469049D01*
X73397451Y-74710097D01*
X73397455Y-74710109D01*
X73492322Y-74939138D01*
X73492325Y-74939144D01*
X73620324Y-75148022D01*
X74109522Y-74658823D01*
X74200924Y-74795617D01*
X74326283Y-74920976D01*
X74463074Y-75012377D01*
X73973876Y-75501574D01*
X74182753Y-75629574D01*
X74411790Y-75724444D01*
X74411802Y-75724448D01*
X74652850Y-75782318D01*
X74900000Y-75801769D01*
X75147149Y-75782318D01*
X75388197Y-75724448D01*
X75388209Y-75724444D01*
X75617246Y-75629574D01*
X75826122Y-75501574D01*
X75336924Y-75012377D01*
X75473717Y-74920976D01*
X75599076Y-74795617D01*
X75690477Y-74658825D01*
X76179674Y-75148022D01*
X76307674Y-74939146D01*
X76402544Y-74710109D01*
X76402548Y-74710097D01*
X76460418Y-74469049D01*
X76479869Y-74221900D01*
X77520130Y-74221900D01*
X77539581Y-74469049D01*
X77597451Y-74710097D01*
X77597455Y-74710109D01*
X77692322Y-74939138D01*
X77692325Y-74939144D01*
X77820324Y-75148022D01*
X78309522Y-74658824D01*
X78400924Y-74795617D01*
X78526283Y-74920976D01*
X78663074Y-75012377D01*
X78173876Y-75501574D01*
X78382753Y-75629574D01*
X78611790Y-75724444D01*
X78611802Y-75724448D01*
X78852850Y-75782318D01*
X79100000Y-75801769D01*
X79347149Y-75782318D01*
X79588197Y-75724448D01*
X79588209Y-75724444D01*
X79817246Y-75629574D01*
X80026122Y-75501574D01*
X79536924Y-75012377D01*
X79673717Y-74920976D01*
X79799076Y-74795617D01*
X79890477Y-74658825D01*
X80379674Y-75148022D01*
X80507674Y-74939146D01*
X80602544Y-74710109D01*
X80602548Y-74710097D01*
X80660418Y-74469049D01*
X80679869Y-74221900D01*
X80660418Y-73974750D01*
X80602548Y-73733702D01*
X80602544Y-73733690D01*
X80507674Y-73504653D01*
X80379674Y-73295776D01*
X79890476Y-73784974D01*
X79799076Y-73648183D01*
X79673717Y-73522824D01*
X79536924Y-73431422D01*
X80026122Y-72942224D01*
X79817244Y-72814225D01*
X79817238Y-72814222D01*
X79588209Y-72719355D01*
X79588197Y-72719351D01*
X79347149Y-72661481D01*
X79100000Y-72642030D01*
X78852850Y-72661481D01*
X78611802Y-72719351D01*
X78611790Y-72719355D01*
X78382761Y-72814222D01*
X78382755Y-72814225D01*
X78173876Y-72942224D01*
X78663075Y-73431422D01*
X78526283Y-73522824D01*
X78400924Y-73648183D01*
X78309522Y-73784974D01*
X77820324Y-73295776D01*
X77692325Y-73504655D01*
X77692322Y-73504661D01*
X77597455Y-73733690D01*
X77597451Y-73733702D01*
X77539581Y-73974750D01*
X77520130Y-74221900D01*
X76479869Y-74221900D01*
X76460418Y-73974750D01*
X76402548Y-73733702D01*
X76402544Y-73733690D01*
X76307676Y-73504658D01*
X76191019Y-73314290D01*
X76172775Y-73246844D01*
X76193892Y-73180241D01*
X76247664Y-73135628D01*
X76296747Y-73125500D01*
X76449829Y-73125500D01*
X76449830Y-73125500D01*
X76702539Y-73085474D01*
X76945876Y-73006410D01*
X77173847Y-72890252D01*
X77380842Y-72739862D01*
X79012319Y-71108385D01*
X79073642Y-71074900D01*
X79143334Y-71079884D01*
X79187681Y-71108385D01*
X80819159Y-72739863D01*
X80819164Y-72739867D01*
X80920895Y-72813778D01*
X81026153Y-72890252D01*
X81130363Y-72943350D01*
X81254123Y-73006410D01*
X81254126Y-73006411D01*
X81300422Y-73021453D01*
X81497461Y-73085474D01*
X81750170Y-73125500D01*
X81903253Y-73125500D01*
X81970292Y-73145185D01*
X82016047Y-73197989D01*
X82025991Y-73267147D01*
X82008981Y-73314290D01*
X81892323Y-73504658D01*
X81797455Y-73733690D01*
X81797451Y-73733702D01*
X81739581Y-73974750D01*
X81720130Y-74221900D01*
X81739581Y-74469049D01*
X81797451Y-74710097D01*
X81797455Y-74710109D01*
X81892322Y-74939138D01*
X81892325Y-74939144D01*
X82020324Y-75148022D01*
X82509522Y-74658823D01*
X82600924Y-74795617D01*
X82726283Y-74920976D01*
X82863074Y-75012377D01*
X82373876Y-75501574D01*
X82582753Y-75629574D01*
X82811790Y-75724444D01*
X82811802Y-75724448D01*
X83052850Y-75782318D01*
X83300000Y-75801769D01*
X83547149Y-75782318D01*
X83788197Y-75724448D01*
X83788209Y-75724444D01*
X84017246Y-75629574D01*
X84226122Y-75501574D01*
X83736924Y-75012377D01*
X83873717Y-74920976D01*
X83999076Y-74795617D01*
X84090477Y-74658825D01*
X84579674Y-75148022D01*
X84707674Y-74939146D01*
X84802544Y-74710109D01*
X84802548Y-74710097D01*
X84860418Y-74469049D01*
X84879869Y-74221900D01*
X84860418Y-73974750D01*
X84802548Y-73733702D01*
X84802544Y-73733690D01*
X84707676Y-73504658D01*
X84591019Y-73314290D01*
X84572775Y-73246844D01*
X84593892Y-73180241D01*
X84647664Y-73135628D01*
X84696747Y-73125500D01*
X86102666Y-73125500D01*
X86169705Y-73145185D01*
X86215460Y-73197989D01*
X86225404Y-73267147D01*
X86208393Y-73314290D01*
X86091877Y-73504425D01*
X85996976Y-73733537D01*
X85939085Y-73974671D01*
X85919628Y-74221900D01*
X85939085Y-74469128D01*
X85996976Y-74710262D01*
X86091877Y-74939374D01*
X86221450Y-75150816D01*
X86221453Y-75150821D01*
X86257675Y-75193231D01*
X86382508Y-75339392D01*
X86473952Y-75417492D01*
X86571078Y-75500446D01*
X86571080Y-75500447D01*
X86571081Y-75500448D01*
X86627979Y-75535315D01*
X86782525Y-75630022D01*
X87011637Y-75724923D01*
X87191853Y-75768189D01*
X87252775Y-75782815D01*
X87500000Y-75802272D01*
X87747225Y-75782815D01*
X87890182Y-75748494D01*
X87959964Y-75751985D01*
X88016782Y-75792649D01*
X88042595Y-75857575D01*
X88029614Y-75925363D01*
X87956957Y-76067957D01*
X87956956Y-76067960D01*
X87902214Y-76236443D01*
X87874500Y-76411421D01*
X87874500Y-79232440D01*
X87854815Y-79299479D01*
X87838181Y-79320121D01*
X76280122Y-90878181D01*
X76218799Y-90911666D01*
X76192441Y-90914500D01*
X69186416Y-90914500D01*
X69035367Y-90938423D01*
X69035368Y-90938424D01*
X69011447Y-90942213D01*
X69011445Y-90942213D01*
X68842962Y-90996955D01*
X68842956Y-90996957D01*
X68762529Y-91037938D01*
X68762528Y-91037937D01*
X68685108Y-91077386D01*
X68677214Y-91083122D01*
X68677210Y-91083125D01*
X68541792Y-91181511D01*
X68541787Y-91181515D01*
X67783026Y-91940275D01*
X67721703Y-91973760D01*
X67652011Y-91968776D01*
X67641552Y-91964318D01*
X67638022Y-91962618D01*
X67638006Y-91962612D01*
X67638004Y-91962611D01*
X67528343Y-91928785D01*
X67394466Y-91887489D01*
X67394462Y-91887488D01*
X67394458Y-91887487D01*
X67273231Y-91869214D01*
X67142440Y-91849500D01*
X67142435Y-91849500D01*
X66887565Y-91849500D01*
X66887559Y-91849500D01*
X66730609Y-91873157D01*
X66635542Y-91887487D01*
X66635539Y-91887488D01*
X66635533Y-91887489D01*
X66391992Y-91962612D01*
X66162373Y-92073190D01*
X66162372Y-92073191D01*
X65951782Y-92216768D01*
X65764952Y-92390121D01*
X65764950Y-92390123D01*
X65606041Y-92589388D01*
X65478608Y-92810109D01*
X65385492Y-93047362D01*
X65385490Y-93047369D01*
X65328777Y-93295845D01*
X65309732Y-93549995D01*
X65309732Y-93550004D01*
X65328777Y-93804154D01*
X65377113Y-94015930D01*
X65385492Y-94052637D01*
X65478607Y-94289888D01*
X65606041Y-94510612D01*
X65764950Y-94709877D01*
X65849842Y-94788645D01*
X65885596Y-94848671D01*
X65889500Y-94879542D01*
X65889500Y-95620456D01*
X65869815Y-95687495D01*
X65849842Y-95711354D01*
X65764952Y-95790120D01*
X65764949Y-95790123D01*
X65606041Y-95989388D01*
X65478608Y-96210109D01*
X65385492Y-96447362D01*
X65385490Y-96447369D01*
X65328777Y-96695845D01*
X65309732Y-96949995D01*
X65309732Y-96950004D01*
X65328777Y-97204154D01*
X65375491Y-97408822D01*
X65385492Y-97452637D01*
X65470321Y-97668777D01*
X65478608Y-97689890D01*
X65488533Y-97707080D01*
X65606041Y-97910612D01*
X65764950Y-98109877D01*
X65849842Y-98188645D01*
X65885596Y-98248671D01*
X65889500Y-98279542D01*
X65889500Y-101467440D01*
X65869815Y-101534479D01*
X65853181Y-101555121D01*
X64820122Y-102588181D01*
X64758799Y-102621666D01*
X64732441Y-102624500D01*
X61267560Y-102624500D01*
X61200521Y-102604815D01*
X61179879Y-102588181D01*
X55733214Y-97141517D01*
X55589889Y-97037386D01*
X55513917Y-96998676D01*
X55432042Y-96956958D01*
X55410640Y-96950004D01*
X55263557Y-96902214D01*
X55176067Y-96888357D01*
X55088579Y-96874500D01*
X54911421Y-96874500D01*
X54876425Y-96880042D01*
X54736440Y-96902214D01*
X54668777Y-96924199D01*
X54598936Y-96926194D01*
X54539103Y-96890113D01*
X54508276Y-96827412D01*
X54516241Y-96757998D01*
X54542776Y-96718590D01*
X56582952Y-94678415D01*
X56639996Y-94593042D01*
X56665084Y-94555495D01*
X56673740Y-94534595D01*
X56688518Y-94498921D01*
X56688518Y-94498920D01*
X56721659Y-94418912D01*
X56750500Y-94273917D01*
X56750500Y-94126082D01*
X56750500Y-91499972D01*
X56757458Y-91459017D01*
X56785368Y-91379254D01*
X56785369Y-91379249D01*
X56805565Y-91200003D01*
X56805565Y-91199996D01*
X56787305Y-91037937D01*
X56785368Y-91020745D01*
X56757458Y-90940982D01*
X56750500Y-90900028D01*
X56750500Y-88426079D01*
X56721659Y-88281092D01*
X56721658Y-88281091D01*
X56721658Y-88281087D01*
X56694088Y-88214526D01*
X56665087Y-88144511D01*
X56665080Y-88144498D01*
X56582952Y-88021585D01*
X56582951Y-88021584D01*
X56478416Y-87917049D01*
X53924318Y-85362951D01*
X53890833Y-85301628D01*
X53887999Y-85275270D01*
X53887999Y-84499998D01*
X54807177Y-84499998D01*
X54807177Y-84500001D01*
X54826443Y-84769382D01*
X54883848Y-85033263D01*
X54883850Y-85033270D01*
X54942448Y-85190377D01*
X54978228Y-85286308D01*
X54978230Y-85286312D01*
X55107652Y-85523331D01*
X55107657Y-85523339D01*
X55269493Y-85739527D01*
X55269509Y-85739545D01*
X55460454Y-85930490D01*
X55460472Y-85930506D01*
X55676660Y-86092342D01*
X55676668Y-86092347D01*
X55913687Y-86221769D01*
X55913691Y-86221771D01*
X55913693Y-86221772D01*
X56166730Y-86316150D01*
X56298676Y-86344853D01*
X56430617Y-86373556D01*
X56430619Y-86373556D01*
X56430623Y-86373557D01*
X56670007Y-86390677D01*
X56699999Y-86392823D01*
X56700000Y-86392823D01*
X56700001Y-86392823D01*
X56726987Y-86390892D01*
X56969377Y-86373557D01*
X57233270Y-86316150D01*
X57486307Y-86221772D01*
X57723337Y-86092344D01*
X57939535Y-85930500D01*
X58130500Y-85739535D01*
X58292344Y-85523337D01*
X58421772Y-85286307D01*
X58516150Y-85033270D01*
X58573557Y-84769377D01*
X58592823Y-84500000D01*
X58592823Y-84499998D01*
X59507177Y-84499998D01*
X59507177Y-84500001D01*
X59526443Y-84769382D01*
X59583848Y-85033263D01*
X59583850Y-85033270D01*
X59642448Y-85190377D01*
X59678228Y-85286308D01*
X59678230Y-85286312D01*
X59807652Y-85523331D01*
X59807657Y-85523339D01*
X59969493Y-85739527D01*
X59969509Y-85739545D01*
X60160454Y-85930490D01*
X60160472Y-85930506D01*
X60376660Y-86092342D01*
X60376668Y-86092347D01*
X60613687Y-86221769D01*
X60613691Y-86221771D01*
X60613693Y-86221772D01*
X60866730Y-86316150D01*
X60998676Y-86344853D01*
X61130617Y-86373556D01*
X61130619Y-86373556D01*
X61130623Y-86373557D01*
X61370007Y-86390677D01*
X61399999Y-86392823D01*
X61400000Y-86392823D01*
X61400001Y-86392823D01*
X61426987Y-86390892D01*
X61669377Y-86373557D01*
X61933270Y-86316150D01*
X62186307Y-86221772D01*
X62423337Y-86092344D01*
X62639535Y-85930500D01*
X62830500Y-85739535D01*
X62992344Y-85523337D01*
X63121772Y-85286307D01*
X63216150Y-85033270D01*
X63273557Y-84769377D01*
X63292823Y-84500000D01*
X63273557Y-84230623D01*
X63216150Y-83966730D01*
X63121772Y-83713693D01*
X63013217Y-83514890D01*
X62992347Y-83476668D01*
X62992342Y-83476660D01*
X62830506Y-83260472D01*
X62830490Y-83260454D01*
X62639545Y-83069509D01*
X62639527Y-83069493D01*
X62423339Y-82907657D01*
X62423331Y-82907652D01*
X62186312Y-82778230D01*
X62186308Y-82778228D01*
X62090377Y-82742448D01*
X61933270Y-82683850D01*
X61933266Y-82683849D01*
X61933263Y-82683848D01*
X61669382Y-82626443D01*
X61400001Y-82607177D01*
X61399999Y-82607177D01*
X61130617Y-82626443D01*
X60866736Y-82683848D01*
X60866731Y-82683849D01*
X60866730Y-82683850D01*
X60805551Y-82706668D01*
X60613691Y-82778228D01*
X60613687Y-82778230D01*
X60376668Y-82907652D01*
X60376660Y-82907657D01*
X60160472Y-83069493D01*
X60160454Y-83069509D01*
X59969509Y-83260454D01*
X59969493Y-83260472D01*
X59807657Y-83476660D01*
X59807652Y-83476668D01*
X59678230Y-83713687D01*
X59678228Y-83713691D01*
X59583848Y-83966736D01*
X59526443Y-84230617D01*
X59507177Y-84499998D01*
X58592823Y-84499998D01*
X58573557Y-84230623D01*
X58516150Y-83966730D01*
X58421772Y-83713693D01*
X58313217Y-83514890D01*
X58292347Y-83476668D01*
X58292342Y-83476660D01*
X58130506Y-83260472D01*
X58130490Y-83260454D01*
X57939545Y-83069509D01*
X57939527Y-83069493D01*
X57723339Y-82907657D01*
X57723331Y-82907652D01*
X57486312Y-82778230D01*
X57486308Y-82778228D01*
X57390377Y-82742448D01*
X57233270Y-82683850D01*
X57233266Y-82683849D01*
X57233263Y-82683848D01*
X56969382Y-82626443D01*
X56700001Y-82607177D01*
X56699999Y-82607177D01*
X56430617Y-82626443D01*
X56166736Y-82683848D01*
X56166731Y-82683849D01*
X56166730Y-82683850D01*
X56105551Y-82706668D01*
X55913691Y-82778228D01*
X55913687Y-82778230D01*
X55676668Y-82907652D01*
X55676660Y-82907657D01*
X55460472Y-83069493D01*
X55460454Y-83069509D01*
X55269509Y-83260454D01*
X55269493Y-83260472D01*
X55107657Y-83476660D01*
X55107652Y-83476668D01*
X54978230Y-83713687D01*
X54978228Y-83713691D01*
X54883848Y-83966736D01*
X54826443Y-84230617D01*
X54807177Y-84499998D01*
X53887999Y-84499998D01*
X53887999Y-83064629D01*
X53887998Y-83064623D01*
X53887997Y-83064616D01*
X53881591Y-83005017D01*
X53847907Y-82914706D01*
X53831297Y-82870171D01*
X53831293Y-82870164D01*
X53745047Y-82754955D01*
X53745044Y-82754952D01*
X53629835Y-82668706D01*
X53629828Y-82668702D01*
X53494982Y-82618408D01*
X53494983Y-82618408D01*
X53435383Y-82612001D01*
X53435381Y-82612000D01*
X53435373Y-82612000D01*
X53435364Y-82612000D01*
X50564629Y-82612000D01*
X50564623Y-82612001D01*
X50505016Y-82618408D01*
X50370171Y-82668702D01*
X50370164Y-82668706D01*
X50254955Y-82754952D01*
X50254952Y-82754955D01*
X50168706Y-82870164D01*
X50168702Y-82870171D01*
X50118408Y-83005017D01*
X50112001Y-83064616D01*
X50112001Y-83064623D01*
X50112000Y-83064635D01*
X44250500Y-83064635D01*
X44250500Y-74221900D01*
X56519628Y-74221900D01*
X56539085Y-74469128D01*
X56596976Y-74710262D01*
X56691877Y-74939374D01*
X56821450Y-75150816D01*
X56821453Y-75150821D01*
X56857675Y-75193231D01*
X56982508Y-75339392D01*
X57073952Y-75417492D01*
X57171078Y-75500446D01*
X57171080Y-75500447D01*
X57171081Y-75500448D01*
X57227979Y-75535315D01*
X57382525Y-75630022D01*
X57611637Y-75724923D01*
X57791853Y-75768189D01*
X57852775Y-75782815D01*
X58100000Y-75802272D01*
X58347225Y-75782815D01*
X58347248Y-75782809D01*
X58350033Y-75782369D01*
X58351111Y-75782508D01*
X58352082Y-75782432D01*
X58352098Y-75782635D01*
X58419327Y-75791322D01*
X58457117Y-75817161D01*
X65819997Y-83180042D01*
X65820001Y-83180045D01*
X65963388Y-83275854D01*
X65963401Y-83275861D01*
X66122721Y-83341853D01*
X66122726Y-83341855D01*
X66291866Y-83375499D01*
X66291869Y-83375500D01*
X66291871Y-83375500D01*
X66464331Y-83375500D01*
X66464332Y-83375499D01*
X66633474Y-83341855D01*
X66792804Y-83275858D01*
X66792805Y-83275857D01*
X66792806Y-83275857D01*
X66864020Y-83228272D01*
X66936199Y-83180045D01*
X67058145Y-83058099D01*
X67153958Y-82914704D01*
X67219955Y-82755374D01*
X67253600Y-82586229D01*
X67253600Y-82413771D01*
X67253600Y-82413768D01*
X67253599Y-82413766D01*
X67219956Y-82244633D01*
X67219955Y-82244626D01*
X67198068Y-82191785D01*
X67153961Y-82085301D01*
X67153954Y-82085288D01*
X67058145Y-81941901D01*
X67058142Y-81941897D01*
X62516240Y-77399996D01*
X79594435Y-77399996D01*
X79594435Y-77400003D01*
X79614630Y-77579249D01*
X79614631Y-77579254D01*
X79674211Y-77749523D01*
X79770184Y-77902262D01*
X79897738Y-78029816D01*
X80050478Y-78125789D01*
X80220745Y-78185368D01*
X80220750Y-78185369D01*
X80399996Y-78205565D01*
X80400000Y-78205565D01*
X80400004Y-78205565D01*
X80579249Y-78185369D01*
X80579252Y-78185368D01*
X80579255Y-78185368D01*
X80749522Y-78125789D01*
X80902262Y-78029816D01*
X81029816Y-77902262D01*
X81125789Y-77749522D01*
X81185368Y-77579255D01*
X81205565Y-77400000D01*
X81185368Y-77220745D01*
X81125789Y-77050478D01*
X81029816Y-76897738D01*
X80902262Y-76770184D01*
X80749523Y-76674211D01*
X80579254Y-76614631D01*
X80579249Y-76614630D01*
X80400004Y-76594435D01*
X80399996Y-76594435D01*
X80220750Y-76614630D01*
X80220745Y-76614631D01*
X80050476Y-76674211D01*
X79897737Y-76770184D01*
X79770184Y-76897737D01*
X79674211Y-77050476D01*
X79614631Y-77220745D01*
X79614630Y-77220750D01*
X79594435Y-77399996D01*
X62516240Y-77399996D01*
X59695261Y-74579017D01*
X59661776Y-74517694D01*
X59660469Y-74471933D01*
X59660909Y-74469148D01*
X59660915Y-74469125D01*
X59680372Y-74221900D01*
X60719628Y-74221900D01*
X60739085Y-74469128D01*
X60796976Y-74710262D01*
X60891877Y-74939374D01*
X61021450Y-75150816D01*
X61021453Y-75150821D01*
X61057675Y-75193231D01*
X61182508Y-75339392D01*
X61273952Y-75417492D01*
X61371078Y-75500446D01*
X61371080Y-75500447D01*
X61371081Y-75500448D01*
X61427979Y-75535315D01*
X61582525Y-75630022D01*
X61811637Y-75724923D01*
X61991853Y-75768189D01*
X62052775Y-75782815D01*
X62300000Y-75802272D01*
X62547225Y-75782815D01*
X62788362Y-75724923D01*
X63017474Y-75630022D01*
X63228919Y-75500448D01*
X63417492Y-75339392D01*
X63578548Y-75150819D01*
X63708122Y-74939374D01*
X63803023Y-74710262D01*
X63860915Y-74469125D01*
X63880372Y-74221900D01*
X64920130Y-74221900D01*
X64939581Y-74469049D01*
X64997451Y-74710097D01*
X64997455Y-74710109D01*
X65092322Y-74939138D01*
X65092325Y-74939144D01*
X65220324Y-75148022D01*
X65709522Y-74658824D01*
X65800924Y-74795617D01*
X65926283Y-74920976D01*
X66063074Y-75012377D01*
X65573876Y-75501574D01*
X65782753Y-75629574D01*
X66011790Y-75724444D01*
X66011802Y-75724448D01*
X66252850Y-75782318D01*
X66500000Y-75801769D01*
X66747149Y-75782318D01*
X66988197Y-75724448D01*
X66988209Y-75724444D01*
X67217246Y-75629574D01*
X67426122Y-75501574D01*
X66936924Y-75012377D01*
X67073717Y-74920976D01*
X67199076Y-74795617D01*
X67290477Y-74658824D01*
X67779674Y-75148022D01*
X67907674Y-74939146D01*
X68002544Y-74710109D01*
X68002548Y-74710097D01*
X68060418Y-74469049D01*
X68079869Y-74221900D01*
X69119628Y-74221900D01*
X69139085Y-74469128D01*
X69196976Y-74710262D01*
X69291877Y-74939374D01*
X69421450Y-75150816D01*
X69421453Y-75150821D01*
X69457675Y-75193231D01*
X69582508Y-75339392D01*
X69673952Y-75417492D01*
X69771078Y-75500446D01*
X69771080Y-75500447D01*
X69771081Y-75500448D01*
X69827979Y-75535315D01*
X69982525Y-75630022D01*
X70211637Y-75724923D01*
X70391853Y-75768189D01*
X70452775Y-75782815D01*
X70700000Y-75802272D01*
X70947225Y-75782815D01*
X71188362Y-75724923D01*
X71417474Y-75630022D01*
X71628919Y-75500448D01*
X71817492Y-75339392D01*
X71978548Y-75150819D01*
X72108122Y-74939374D01*
X72203023Y-74710262D01*
X72260915Y-74469125D01*
X72280372Y-74221900D01*
X72260915Y-73974675D01*
X72221773Y-73811637D01*
X72203023Y-73733537D01*
X72108122Y-73504425D01*
X71978549Y-73292983D01*
X71978546Y-73292978D01*
X71867498Y-73162958D01*
X71817492Y-73104408D01*
X71674215Y-72982038D01*
X71628921Y-72943353D01*
X71628916Y-72943350D01*
X71417474Y-72813777D01*
X71188362Y-72718876D01*
X70947228Y-72660985D01*
X70700000Y-72641528D01*
X70452771Y-72660985D01*
X70211637Y-72718876D01*
X69982525Y-72813777D01*
X69771083Y-72943350D01*
X69771078Y-72943353D01*
X69582508Y-73104408D01*
X69421453Y-73292978D01*
X69421450Y-73292983D01*
X69291877Y-73504425D01*
X69196976Y-73733537D01*
X69139085Y-73974671D01*
X69119628Y-74221900D01*
X68079869Y-74221900D01*
X68060418Y-73974750D01*
X68002548Y-73733702D01*
X68002544Y-73733690D01*
X67907674Y-73504653D01*
X67779674Y-73295776D01*
X67290476Y-73784974D01*
X67199076Y-73648183D01*
X67073717Y-73522824D01*
X66936924Y-73431422D01*
X67426122Y-72942224D01*
X67217244Y-72814225D01*
X67217238Y-72814222D01*
X66988209Y-72719355D01*
X66988197Y-72719351D01*
X66747149Y-72661481D01*
X66500000Y-72642030D01*
X66252850Y-72661481D01*
X66011802Y-72719351D01*
X66011790Y-72719355D01*
X65782761Y-72814222D01*
X65782755Y-72814225D01*
X65573876Y-72942224D01*
X66063075Y-73431422D01*
X65926283Y-73522824D01*
X65800924Y-73648183D01*
X65709522Y-73784974D01*
X65220324Y-73295776D01*
X65092325Y-73504655D01*
X65092322Y-73504661D01*
X64997455Y-73733690D01*
X64997451Y-73733702D01*
X64939581Y-73974750D01*
X64920130Y-74221900D01*
X63880372Y-74221900D01*
X63860915Y-73974675D01*
X63821773Y-73811637D01*
X63803023Y-73733537D01*
X63708122Y-73504425D01*
X63578549Y-73292983D01*
X63578546Y-73292978D01*
X63467498Y-73162958D01*
X63417492Y-73104408D01*
X63274215Y-72982038D01*
X63228921Y-72943353D01*
X63228916Y-72943350D01*
X63017474Y-72813777D01*
X62788362Y-72718876D01*
X62547228Y-72660985D01*
X62300000Y-72641528D01*
X62052771Y-72660985D01*
X61811637Y-72718876D01*
X61582525Y-72813777D01*
X61371083Y-72943350D01*
X61371078Y-72943353D01*
X61182508Y-73104408D01*
X61021453Y-73292978D01*
X61021450Y-73292983D01*
X60891877Y-73504425D01*
X60796976Y-73733537D01*
X60739085Y-73974671D01*
X60719628Y-74221900D01*
X59680372Y-74221900D01*
X59660915Y-73974675D01*
X59621773Y-73811637D01*
X59603023Y-73733537D01*
X59508122Y-73504425D01*
X59378549Y-73292983D01*
X59378546Y-73292978D01*
X59217489Y-73104405D01*
X59028917Y-72943350D01*
X59026604Y-72941669D01*
X59025938Y-72940806D01*
X59025215Y-72940188D01*
X59025344Y-72940035D01*
X58983944Y-72886335D01*
X58975500Y-72841359D01*
X58975500Y-70421399D01*
X58995185Y-70354360D01*
X59047989Y-70308605D01*
X59099500Y-70297399D01*
X59222871Y-70297399D01*
X59222872Y-70297399D01*
X59282483Y-70290991D01*
X59417331Y-70240696D01*
X59532546Y-70154446D01*
X59618796Y-70039231D01*
X59669091Y-69904383D01*
X59675500Y-69844773D01*
X59675500Y-69721400D01*
X59695185Y-69654361D01*
X59747989Y-69608606D01*
X59799500Y-69597400D01*
X60919459Y-69597400D01*
X60986498Y-69617085D01*
X61019777Y-69648514D01*
X61021453Y-69650821D01*
X61063456Y-69700000D01*
X61182508Y-69839392D01*
X61258602Y-69904382D01*
X61371078Y-70000446D01*
X61371080Y-70000447D01*
X61371081Y-70000448D01*
X61427979Y-70035315D01*
X61582525Y-70130022D01*
X61811637Y-70224923D01*
X62018567Y-70274602D01*
X62052775Y-70282815D01*
X62300000Y-70302272D01*
X62547225Y-70282815D01*
X62788362Y-70224923D01*
X63017474Y-70130022D01*
X63228919Y-70000448D01*
X63417492Y-69839392D01*
X63578548Y-69650819D01*
X63708122Y-69439374D01*
X63803023Y-69210262D01*
X63860915Y-68969125D01*
X63880372Y-68721900D01*
X64920130Y-68721900D01*
X64939581Y-68969049D01*
X64997451Y-69210097D01*
X64997455Y-69210109D01*
X65092322Y-69439138D01*
X65092325Y-69439144D01*
X65220324Y-69648022D01*
X65709522Y-69158824D01*
X65800924Y-69295617D01*
X65926283Y-69420976D01*
X66063074Y-69512377D01*
X65573876Y-70001574D01*
X65782753Y-70129574D01*
X66011790Y-70224444D01*
X66011802Y-70224448D01*
X66252850Y-70282318D01*
X66500000Y-70301769D01*
X66747149Y-70282318D01*
X66988197Y-70224448D01*
X66988209Y-70224444D01*
X67217246Y-70129574D01*
X67426122Y-70001574D01*
X66936924Y-69512377D01*
X67073717Y-69420976D01*
X67199076Y-69295617D01*
X67290477Y-69158824D01*
X67779674Y-69648022D01*
X67907674Y-69439146D01*
X68002544Y-69210109D01*
X68002548Y-69210097D01*
X68060418Y-68969049D01*
X68079869Y-68721900D01*
X68060418Y-68474750D01*
X68002548Y-68233702D01*
X68002544Y-68233690D01*
X67907674Y-68004653D01*
X67779674Y-67795776D01*
X67290476Y-68284974D01*
X67199076Y-68148183D01*
X67073717Y-68022824D01*
X66936924Y-67931422D01*
X67426122Y-67442224D01*
X67217244Y-67314225D01*
X67217238Y-67314222D01*
X66988209Y-67219355D01*
X66988197Y-67219351D01*
X66747149Y-67161481D01*
X66500000Y-67142030D01*
X66252850Y-67161481D01*
X66011802Y-67219351D01*
X66011790Y-67219355D01*
X65782761Y-67314222D01*
X65782755Y-67314225D01*
X65573876Y-67442224D01*
X66063075Y-67931422D01*
X65926283Y-68022824D01*
X65800924Y-68148183D01*
X65709522Y-68284974D01*
X65220324Y-67795776D01*
X65092325Y-68004655D01*
X65092322Y-68004661D01*
X64997455Y-68233690D01*
X64997451Y-68233702D01*
X64939581Y-68474750D01*
X64920130Y-68721900D01*
X63880372Y-68721900D01*
X63860915Y-68474675D01*
X63860912Y-68474666D01*
X63860469Y-68471860D01*
X63860608Y-68470784D01*
X63860532Y-68469818D01*
X63860734Y-68469802D01*
X63869424Y-68402566D01*
X63895258Y-68364784D01*
X69548225Y-62711819D01*
X69609548Y-62678334D01*
X69635906Y-62675500D01*
X96964094Y-62675500D01*
X97031133Y-62695185D01*
X97051775Y-62711819D01*
X102704738Y-68364782D01*
X102738223Y-68426105D01*
X102739530Y-68471861D01*
X102739085Y-68474668D01*
X102719628Y-68721899D01*
X102739085Y-68969128D01*
X102796976Y-69210262D01*
X102891877Y-69439374D01*
X103021450Y-69650816D01*
X103021453Y-69650821D01*
X103063456Y-69700000D01*
X103182508Y-69839392D01*
X103258602Y-69904382D01*
X103371078Y-70000446D01*
X103371080Y-70000447D01*
X103371081Y-70000448D01*
X103427979Y-70035315D01*
X103582525Y-70130022D01*
X103811637Y-70224923D01*
X104018567Y-70274602D01*
X104052775Y-70282815D01*
X104300000Y-70302272D01*
X104547225Y-70282815D01*
X104788362Y-70224923D01*
X105017474Y-70130022D01*
X105228919Y-70000448D01*
X105417492Y-69839392D01*
X105578548Y-69650819D01*
X105708122Y-69439374D01*
X105803023Y-69210262D01*
X105860915Y-68969125D01*
X105880372Y-68721900D01*
X105860915Y-68474675D01*
X105821810Y-68311790D01*
X105803023Y-68233537D01*
X105708122Y-68004425D01*
X105580818Y-67796686D01*
X105578548Y-67792981D01*
X105578547Y-67792980D01*
X105578546Y-67792978D01*
X105479638Y-67677172D01*
X105479623Y-67677155D01*
X111575000Y-67677155D01*
X111575000Y-68550000D01*
X112282096Y-68550000D01*
X112250000Y-68711358D01*
X112250000Y-68888642D01*
X112282096Y-69050000D01*
X111575000Y-69050000D01*
X111575000Y-69922844D01*
X111581401Y-69982372D01*
X111581403Y-69982379D01*
X111631645Y-70117086D01*
X111631649Y-70117093D01*
X111717809Y-70232187D01*
X111717812Y-70232190D01*
X111832906Y-70318350D01*
X111832913Y-70318354D01*
X111967620Y-70368596D01*
X111967627Y-70368598D01*
X112027155Y-70374999D01*
X112027172Y-70375000D01*
X112900000Y-70375000D01*
X112900000Y-69667904D01*
X113061358Y-69700000D01*
X113238642Y-69700000D01*
X113400000Y-69667904D01*
X113400000Y-70375000D01*
X114272828Y-70375000D01*
X114272844Y-70374999D01*
X114332372Y-70368598D01*
X114332379Y-70368596D01*
X114467086Y-70318354D01*
X114467093Y-70318350D01*
X114582187Y-70232190D01*
X114582190Y-70232187D01*
X114668350Y-70117093D01*
X114668354Y-70117086D01*
X114718596Y-69982379D01*
X114718598Y-69982372D01*
X114724999Y-69922844D01*
X114725000Y-69922827D01*
X114725000Y-69050000D01*
X114017904Y-69050000D01*
X114050000Y-68888642D01*
X114050000Y-68800000D01*
X115770130Y-68800000D01*
X115789581Y-69047149D01*
X115847451Y-69288197D01*
X115847455Y-69288209D01*
X115942322Y-69517238D01*
X115942325Y-69517244D01*
X116070324Y-69726122D01*
X116559522Y-69236924D01*
X116650924Y-69373717D01*
X116776283Y-69499076D01*
X116913074Y-69590477D01*
X116423876Y-70079674D01*
X116632753Y-70207674D01*
X116861790Y-70302544D01*
X116861802Y-70302548D01*
X117102850Y-70360418D01*
X117350000Y-70379869D01*
X117597149Y-70360418D01*
X117838197Y-70302548D01*
X117838209Y-70302544D01*
X118067246Y-70207674D01*
X118276122Y-70079674D01*
X117786924Y-69590477D01*
X117923717Y-69499076D01*
X118049076Y-69373717D01*
X118140477Y-69236925D01*
X118629674Y-69726122D01*
X118757674Y-69517246D01*
X118852544Y-69288209D01*
X118852548Y-69288197D01*
X118910418Y-69047149D01*
X118929869Y-68800000D01*
X119970130Y-68800000D01*
X119989581Y-69047149D01*
X120047451Y-69288197D01*
X120047455Y-69288209D01*
X120142322Y-69517238D01*
X120142325Y-69517244D01*
X120270324Y-69726122D01*
X120759522Y-69236924D01*
X120850924Y-69373717D01*
X120976283Y-69499076D01*
X121113074Y-69590477D01*
X120623876Y-70079674D01*
X120832753Y-70207674D01*
X121061790Y-70302544D01*
X121061802Y-70302548D01*
X121302850Y-70360418D01*
X121550000Y-70379869D01*
X121797149Y-70360418D01*
X122038197Y-70302548D01*
X122038209Y-70302544D01*
X122267246Y-70207674D01*
X122476122Y-70079674D01*
X121986924Y-69590477D01*
X122123717Y-69499076D01*
X122249076Y-69373717D01*
X122340477Y-69236925D01*
X122829674Y-69726122D01*
X122957674Y-69517246D01*
X123052544Y-69288209D01*
X123052548Y-69288197D01*
X123110418Y-69047149D01*
X123129869Y-68800000D01*
X124170130Y-68800000D01*
X124189581Y-69047149D01*
X124247451Y-69288197D01*
X124247455Y-69288209D01*
X124342322Y-69517238D01*
X124342325Y-69517244D01*
X124470324Y-69726122D01*
X124959522Y-69236924D01*
X125050924Y-69373717D01*
X125176283Y-69499076D01*
X125313074Y-69590477D01*
X124823876Y-70079674D01*
X125032753Y-70207674D01*
X125261790Y-70302544D01*
X125261802Y-70302548D01*
X125502850Y-70360418D01*
X125750000Y-70379869D01*
X125997149Y-70360418D01*
X126238197Y-70302548D01*
X126238209Y-70302544D01*
X126467246Y-70207674D01*
X126676122Y-70079674D01*
X126186924Y-69590477D01*
X126323717Y-69499076D01*
X126449076Y-69373717D01*
X126540477Y-69236925D01*
X127029674Y-69726122D01*
X127157674Y-69517246D01*
X127252544Y-69288209D01*
X127252548Y-69288197D01*
X127310418Y-69047149D01*
X127329869Y-68800000D01*
X127310418Y-68552850D01*
X127252548Y-68311802D01*
X127252544Y-68311790D01*
X127157674Y-68082753D01*
X127029674Y-67873876D01*
X126540476Y-68363074D01*
X126449076Y-68226283D01*
X126323717Y-68100924D01*
X126186924Y-68009522D01*
X126676122Y-67520324D01*
X126467244Y-67392325D01*
X126467238Y-67392322D01*
X126238209Y-67297455D01*
X126238197Y-67297451D01*
X125997149Y-67239581D01*
X125750000Y-67220130D01*
X125502850Y-67239581D01*
X125261802Y-67297451D01*
X125261790Y-67297455D01*
X125032761Y-67392322D01*
X125032755Y-67392325D01*
X124823876Y-67520324D01*
X125313075Y-68009522D01*
X125176283Y-68100924D01*
X125050924Y-68226283D01*
X124959522Y-68363074D01*
X124470324Y-67873876D01*
X124342325Y-68082755D01*
X124342322Y-68082761D01*
X124247455Y-68311790D01*
X124247451Y-68311802D01*
X124189581Y-68552850D01*
X124170130Y-68800000D01*
X123129869Y-68800000D01*
X123110418Y-68552850D01*
X123052548Y-68311802D01*
X123052544Y-68311790D01*
X122957674Y-68082753D01*
X122829674Y-67873876D01*
X122340476Y-68363074D01*
X122249076Y-68226283D01*
X122123717Y-68100924D01*
X121986924Y-68009522D01*
X122476122Y-67520324D01*
X122267244Y-67392325D01*
X122267238Y-67392322D01*
X122038209Y-67297455D01*
X122038197Y-67297451D01*
X121797149Y-67239581D01*
X121550000Y-67220130D01*
X121302850Y-67239581D01*
X121061802Y-67297451D01*
X121061790Y-67297455D01*
X120832761Y-67392322D01*
X120832755Y-67392325D01*
X120623876Y-67520324D01*
X121113075Y-68009522D01*
X120976283Y-68100924D01*
X120850924Y-68226283D01*
X120759522Y-68363074D01*
X120270324Y-67873876D01*
X120142325Y-68082755D01*
X120142322Y-68082761D01*
X120047455Y-68311790D01*
X120047451Y-68311802D01*
X119989581Y-68552850D01*
X119970130Y-68800000D01*
X118929869Y-68800000D01*
X118910418Y-68552850D01*
X118852548Y-68311802D01*
X118852544Y-68311790D01*
X118757674Y-68082753D01*
X118629674Y-67873876D01*
X118140476Y-68363074D01*
X118049076Y-68226283D01*
X117923717Y-68100924D01*
X117786924Y-68009522D01*
X118276122Y-67520324D01*
X118067244Y-67392325D01*
X118067238Y-67392322D01*
X117838209Y-67297455D01*
X117838197Y-67297451D01*
X117597149Y-67239581D01*
X117350000Y-67220130D01*
X117102850Y-67239581D01*
X116861802Y-67297451D01*
X116861790Y-67297455D01*
X116632761Y-67392322D01*
X116632755Y-67392325D01*
X116423876Y-67520324D01*
X116913075Y-68009522D01*
X116776283Y-68100924D01*
X116650924Y-68226283D01*
X116559522Y-68363074D01*
X116070324Y-67873876D01*
X115942325Y-68082755D01*
X115942322Y-68082761D01*
X115847455Y-68311790D01*
X115847451Y-68311802D01*
X115789581Y-68552850D01*
X115770130Y-68800000D01*
X114050000Y-68800000D01*
X114050000Y-68711358D01*
X114017904Y-68550000D01*
X114725000Y-68550000D01*
X114725000Y-67677172D01*
X114724999Y-67677155D01*
X114718598Y-67617627D01*
X114718596Y-67617620D01*
X114668354Y-67482913D01*
X114668350Y-67482906D01*
X114582190Y-67367812D01*
X114582187Y-67367809D01*
X114467093Y-67281649D01*
X114467086Y-67281645D01*
X114332379Y-67231403D01*
X114332372Y-67231401D01*
X114272844Y-67225000D01*
X113400000Y-67225000D01*
X113400000Y-67932095D01*
X113238642Y-67900000D01*
X113061358Y-67900000D01*
X112900000Y-67932095D01*
X112900000Y-67225000D01*
X112027155Y-67225000D01*
X111967627Y-67231401D01*
X111967620Y-67231403D01*
X111832913Y-67281645D01*
X111832906Y-67281649D01*
X111717812Y-67367809D01*
X111717809Y-67367812D01*
X111631649Y-67482906D01*
X111631645Y-67482913D01*
X111581403Y-67617620D01*
X111581401Y-67617627D01*
X111575000Y-67677155D01*
X105479623Y-67677155D01*
X105417492Y-67604408D01*
X105314399Y-67516358D01*
X105228921Y-67443353D01*
X105228916Y-67443350D01*
X105017474Y-67313777D01*
X104788362Y-67218876D01*
X104547228Y-67160985D01*
X104361806Y-67146392D01*
X104300000Y-67141528D01*
X104299999Y-67141528D01*
X104052768Y-67160985D01*
X104049961Y-67161430D01*
X104048885Y-67161290D01*
X104047919Y-67161367D01*
X104047903Y-67161164D01*
X103980667Y-67152475D01*
X103942882Y-67126638D01*
X98123403Y-61307158D01*
X102549500Y-61307158D01*
X102549500Y-61536641D01*
X102559781Y-61614727D01*
X102579452Y-61764138D01*
X102579453Y-61764140D01*
X102638842Y-61985787D01*
X102726650Y-62197776D01*
X102726657Y-62197790D01*
X102841392Y-62396517D01*
X102981081Y-62578561D01*
X102981089Y-62578570D01*
X103143330Y-62740811D01*
X103143338Y-62740818D01*
X103325382Y-62880507D01*
X103325385Y-62880508D01*
X103325388Y-62880511D01*
X103524112Y-62995244D01*
X103524117Y-62995246D01*
X103524123Y-62995249D01*
X103615480Y-63033090D01*
X103736113Y-63083058D01*
X103957762Y-63142448D01*
X104185266Y-63172400D01*
X104185273Y-63172400D01*
X104414727Y-63172400D01*
X104414734Y-63172400D01*
X104642238Y-63142448D01*
X104863887Y-63083058D01*
X105075888Y-62995244D01*
X105274612Y-62880511D01*
X105456661Y-62740819D01*
X105456665Y-62740814D01*
X105456670Y-62740811D01*
X105618911Y-62578570D01*
X105618914Y-62578565D01*
X105618919Y-62578561D01*
X105758611Y-62396512D01*
X105873344Y-62197788D01*
X105961158Y-61985787D01*
X106020548Y-61764138D01*
X106050500Y-61536634D01*
X106050500Y-61385258D01*
X111399500Y-61385258D01*
X111399500Y-61614741D01*
X111419170Y-61764138D01*
X111429452Y-61842238D01*
X111488842Y-62063887D01*
X111576650Y-62275876D01*
X111576657Y-62275890D01*
X111691392Y-62474617D01*
X111831081Y-62656661D01*
X111831089Y-62656670D01*
X111993330Y-62818911D01*
X111993338Y-62818918D01*
X112175382Y-62958607D01*
X112175385Y-62958608D01*
X112175388Y-62958611D01*
X112374112Y-63073344D01*
X112374117Y-63073346D01*
X112374123Y-63073349D01*
X112465480Y-63111190D01*
X112586113Y-63161158D01*
X112807762Y-63220548D01*
X113035266Y-63250500D01*
X113035273Y-63250500D01*
X113264727Y-63250500D01*
X113264734Y-63250500D01*
X113492238Y-63220548D01*
X113713887Y-63161158D01*
X113925888Y-63073344D01*
X114124612Y-62958611D01*
X114306661Y-62818919D01*
X114306665Y-62818914D01*
X114306670Y-62818911D01*
X114468911Y-62656670D01*
X114468914Y-62656665D01*
X114468919Y-62656661D01*
X114608611Y-62474612D01*
X114723344Y-62275888D01*
X114811158Y-62063887D01*
X114870548Y-61842238D01*
X114900500Y-61614734D01*
X114900500Y-61385266D01*
X114900499Y-61385258D01*
X123999500Y-61385258D01*
X123999500Y-61614741D01*
X124019170Y-61764138D01*
X124029452Y-61842238D01*
X124088842Y-62063887D01*
X124176650Y-62275876D01*
X124176657Y-62275890D01*
X124291392Y-62474617D01*
X124431081Y-62656661D01*
X124431089Y-62656670D01*
X124593330Y-62818911D01*
X124593338Y-62818918D01*
X124775382Y-62958607D01*
X124775385Y-62958608D01*
X124775388Y-62958611D01*
X124974112Y-63073344D01*
X124974117Y-63073346D01*
X124974123Y-63073349D01*
X125065480Y-63111190D01*
X125186113Y-63161158D01*
X125407762Y-63220548D01*
X125635266Y-63250500D01*
X125635273Y-63250500D01*
X125864727Y-63250500D01*
X125864734Y-63250500D01*
X126092238Y-63220548D01*
X126313887Y-63161158D01*
X126525888Y-63073344D01*
X126724612Y-62958611D01*
X126906661Y-62818919D01*
X126906665Y-62818914D01*
X126906670Y-62818911D01*
X127068911Y-62656670D01*
X127068914Y-62656665D01*
X127068919Y-62656661D01*
X127208611Y-62474612D01*
X127323344Y-62275888D01*
X127411158Y-62063887D01*
X127470548Y-61842238D01*
X127500500Y-61614734D01*
X127500500Y-61385266D01*
X127470548Y-61157762D01*
X127411158Y-60936113D01*
X127361190Y-60815480D01*
X127323349Y-60724123D01*
X127323346Y-60724117D01*
X127323344Y-60724112D01*
X127208611Y-60525388D01*
X127208608Y-60525385D01*
X127208607Y-60525382D01*
X127068918Y-60343338D01*
X127068911Y-60343330D01*
X126906670Y-60181089D01*
X126906661Y-60181081D01*
X126724617Y-60041392D01*
X126525890Y-59926657D01*
X126525876Y-59926650D01*
X126313887Y-59838842D01*
X126092238Y-59779452D01*
X126054215Y-59774446D01*
X125864741Y-59749500D01*
X125864734Y-59749500D01*
X125635266Y-59749500D01*
X125635258Y-59749500D01*
X125418715Y-59778009D01*
X125407762Y-59779452D01*
X125314076Y-59804554D01*
X125186112Y-59838842D01*
X124974123Y-59926650D01*
X124974109Y-59926657D01*
X124775382Y-60041392D01*
X124593338Y-60181081D01*
X124431081Y-60343338D01*
X124291392Y-60525382D01*
X124176657Y-60724109D01*
X124176650Y-60724123D01*
X124088842Y-60936112D01*
X124029453Y-61157759D01*
X124029451Y-61157770D01*
X123999500Y-61385258D01*
X114900499Y-61385258D01*
X114870548Y-61157762D01*
X114811158Y-60936113D01*
X114761190Y-60815480D01*
X114723349Y-60724123D01*
X114723346Y-60724117D01*
X114723344Y-60724112D01*
X114608611Y-60525388D01*
X114608608Y-60525385D01*
X114608607Y-60525382D01*
X114468918Y-60343338D01*
X114468911Y-60343330D01*
X114306670Y-60181089D01*
X114306661Y-60181081D01*
X114124617Y-60041392D01*
X113925890Y-59926657D01*
X113925876Y-59926650D01*
X113713887Y-59838842D01*
X113492238Y-59779452D01*
X113454215Y-59774446D01*
X113264741Y-59749500D01*
X113264734Y-59749500D01*
X113035266Y-59749500D01*
X113035258Y-59749500D01*
X112818715Y-59778009D01*
X112807762Y-59779452D01*
X112714076Y-59804554D01*
X112586112Y-59838842D01*
X112374123Y-59926650D01*
X112374109Y-59926657D01*
X112175382Y-60041392D01*
X111993338Y-60181081D01*
X111831081Y-60343338D01*
X111691392Y-60525382D01*
X111576657Y-60724109D01*
X111576650Y-60724123D01*
X111488842Y-60936112D01*
X111429453Y-61157759D01*
X111429451Y-61157770D01*
X111399500Y-61385258D01*
X106050500Y-61385258D01*
X106050500Y-61307166D01*
X106020548Y-61079662D01*
X105961158Y-60858013D01*
X105873344Y-60646012D01*
X105758611Y-60447288D01*
X105758608Y-60447285D01*
X105758607Y-60447282D01*
X105618918Y-60265238D01*
X105618911Y-60265230D01*
X105456670Y-60102989D01*
X105456661Y-60102981D01*
X105274617Y-59963292D01*
X105075890Y-59848557D01*
X105075876Y-59848550D01*
X104863887Y-59760742D01*
X104642238Y-59701352D01*
X104604215Y-59696346D01*
X104414741Y-59671400D01*
X104414734Y-59671400D01*
X104185266Y-59671400D01*
X104185258Y-59671400D01*
X103968715Y-59699909D01*
X103957762Y-59701352D01*
X103864076Y-59726454D01*
X103736112Y-59760742D01*
X103524123Y-59848550D01*
X103524109Y-59848557D01*
X103325382Y-59963292D01*
X103143338Y-60102981D01*
X102981081Y-60265238D01*
X102841392Y-60447282D01*
X102726657Y-60646009D01*
X102726650Y-60646023D01*
X102638842Y-60858012D01*
X102612012Y-60958145D01*
X102594330Y-61024138D01*
X102579453Y-61079659D01*
X102579451Y-61079670D01*
X102549500Y-61307158D01*
X98123403Y-61307158D01*
X97936202Y-61119957D01*
X97936198Y-61119954D01*
X97792811Y-61024145D01*
X97792798Y-61024138D01*
X97633478Y-60958146D01*
X97633466Y-60958143D01*
X97464332Y-60924500D01*
X97464329Y-60924500D01*
X69308129Y-60924500D01*
X69135671Y-60924500D01*
X69135668Y-60924500D01*
X68966533Y-60958143D01*
X68966521Y-60958146D01*
X68807201Y-61024138D01*
X68807188Y-61024145D01*
X68663801Y-61119954D01*
X68663797Y-61119957D01*
X62657116Y-67126638D01*
X62595793Y-67160123D01*
X62550030Y-67161429D01*
X62547227Y-67160984D01*
X62300000Y-67141528D01*
X62052771Y-67160985D01*
X61811637Y-67218876D01*
X61582525Y-67313777D01*
X61371083Y-67443350D01*
X61371078Y-67443353D01*
X61182508Y-67604408D01*
X61021453Y-67792978D01*
X61019777Y-67795286D01*
X61018915Y-67795950D01*
X61018287Y-67796686D01*
X61018132Y-67796554D01*
X60964447Y-67837951D01*
X60919459Y-67846400D01*
X59799499Y-67846400D01*
X59732460Y-67826715D01*
X59686705Y-67773911D01*
X59675499Y-67722400D01*
X59675499Y-67599029D01*
X59675498Y-67599023D01*
X59675497Y-67599016D01*
X59669091Y-67539417D01*
X59648016Y-67482913D01*
X59618797Y-67404571D01*
X59618793Y-67404564D01*
X59532547Y-67289355D01*
X59532544Y-67289352D01*
X59417335Y-67203106D01*
X59417328Y-67203102D01*
X59282482Y-67152808D01*
X59282483Y-67152808D01*
X59222883Y-67146401D01*
X59222881Y-67146400D01*
X59222873Y-67146400D01*
X59222864Y-67146400D01*
X56977129Y-67146400D01*
X56977123Y-67146401D01*
X56917516Y-67152808D01*
X56782671Y-67203102D01*
X56782664Y-67203106D01*
X56667455Y-67289352D01*
X56667452Y-67289355D01*
X56581206Y-67404564D01*
X56581202Y-67404571D01*
X56530908Y-67539417D01*
X56524501Y-67599016D01*
X56524501Y-67599023D01*
X56524500Y-67599035D01*
X56524500Y-69844770D01*
X56524501Y-69844776D01*
X56530908Y-69904383D01*
X56581202Y-70039228D01*
X56581206Y-70039235D01*
X56667452Y-70154444D01*
X56667455Y-70154447D01*
X56782664Y-70240693D01*
X56782671Y-70240697D01*
X56827618Y-70257461D01*
X56917517Y-70290991D01*
X56977127Y-70297400D01*
X57100500Y-70297399D01*
X57167539Y-70317083D01*
X57213294Y-70369887D01*
X57224500Y-70421399D01*
X57224500Y-72841359D01*
X57204815Y-72908398D01*
X57173396Y-72941669D01*
X57171082Y-72943350D01*
X56982510Y-73104405D01*
X56821453Y-73292978D01*
X56821450Y-73292983D01*
X56691877Y-73504425D01*
X56596976Y-73733537D01*
X56539085Y-73974671D01*
X56519628Y-74221900D01*
X44250500Y-74221900D01*
X44250500Y-61307158D01*
X56349500Y-61307158D01*
X56349500Y-61536641D01*
X56359781Y-61614727D01*
X56379452Y-61764138D01*
X56379453Y-61764140D01*
X56438842Y-61985787D01*
X56526650Y-62197776D01*
X56526657Y-62197790D01*
X56641392Y-62396517D01*
X56781081Y-62578561D01*
X56781089Y-62578570D01*
X56943330Y-62740811D01*
X56943338Y-62740818D01*
X57125382Y-62880507D01*
X57125385Y-62880508D01*
X57125388Y-62880511D01*
X57324112Y-62995244D01*
X57324117Y-62995246D01*
X57324123Y-62995249D01*
X57415480Y-63033090D01*
X57536113Y-63083058D01*
X57757762Y-63142448D01*
X57985266Y-63172400D01*
X57985273Y-63172400D01*
X58214727Y-63172400D01*
X58214734Y-63172400D01*
X58442238Y-63142448D01*
X58663887Y-63083058D01*
X58875888Y-62995244D01*
X59074612Y-62880511D01*
X59256661Y-62740819D01*
X59256665Y-62740814D01*
X59256670Y-62740811D01*
X59418911Y-62578570D01*
X59418914Y-62578565D01*
X59418919Y-62578561D01*
X59558611Y-62396512D01*
X59673344Y-62197788D01*
X59761158Y-61985787D01*
X59820548Y-61764138D01*
X59850500Y-61536634D01*
X59850500Y-61307166D01*
X59820548Y-61079662D01*
X59761158Y-60858013D01*
X59673344Y-60646012D01*
X59558611Y-60447288D01*
X59558608Y-60447285D01*
X59558607Y-60447282D01*
X59418918Y-60265238D01*
X59418911Y-60265230D01*
X59256670Y-60102989D01*
X59256661Y-60102981D01*
X59074617Y-59963292D01*
X58875890Y-59848557D01*
X58875876Y-59848550D01*
X58663887Y-59760742D01*
X58442238Y-59701352D01*
X58404215Y-59696346D01*
X58214741Y-59671400D01*
X58214734Y-59671400D01*
X57985266Y-59671400D01*
X57985258Y-59671400D01*
X57768715Y-59699909D01*
X57757762Y-59701352D01*
X57664076Y-59726454D01*
X57536112Y-59760742D01*
X57324123Y-59848550D01*
X57324109Y-59848557D01*
X57125382Y-59963292D01*
X56943338Y-60102981D01*
X56781081Y-60265238D01*
X56641392Y-60447282D01*
X56526657Y-60646009D01*
X56526650Y-60646023D01*
X56438842Y-60858012D01*
X56412012Y-60958145D01*
X56394330Y-61024138D01*
X56379453Y-61079659D01*
X56379451Y-61079670D01*
X56349500Y-61307158D01*
X44250500Y-61307158D01*
X44250500Y-58771101D01*
X44270185Y-58704062D01*
X44322989Y-58658307D01*
X44392147Y-58648363D01*
X44455703Y-58677388D01*
X44489693Y-58725204D01*
X44546043Y-58866634D01*
X44546052Y-58866652D01*
X44711124Y-59178011D01*
X44908896Y-59469702D01*
X45031914Y-59614532D01*
X46205748Y-58440698D01*
X46279588Y-58542330D01*
X46457670Y-58720412D01*
X46559300Y-58794251D01*
X45382625Y-59970926D01*
X45382625Y-59970928D01*
X45392900Y-59980660D01*
X45673460Y-60193938D01*
X45673464Y-60193941D01*
X45975445Y-60375635D01*
X46295273Y-60523603D01*
X46629256Y-60636136D01*
X46973437Y-60711896D01*
X47323788Y-60749999D01*
X47323795Y-60750000D01*
X47676205Y-60750000D01*
X47676211Y-60749999D01*
X48026562Y-60711896D01*
X48370743Y-60636136D01*
X48704726Y-60523603D01*
X49024554Y-60375635D01*
X49326535Y-60193941D01*
X49326539Y-60193938D01*
X49607093Y-59980665D01*
X49607105Y-59980654D01*
X49617373Y-59970927D01*
X49617373Y-59970926D01*
X48440698Y-58794251D01*
X48542330Y-58720412D01*
X48720412Y-58542330D01*
X48794251Y-58440698D01*
X49968084Y-59614532D01*
X49968085Y-59614531D01*
X50091102Y-59469704D01*
X50288875Y-59178011D01*
X50453947Y-58866652D01*
X50453956Y-58866634D01*
X50584397Y-58539250D01*
X50584399Y-58539243D01*
X50678674Y-58199693D01*
X50678680Y-58199667D01*
X50735691Y-57851917D01*
X50735693Y-57851900D01*
X50754773Y-57500002D01*
X50754773Y-57499997D01*
X50735693Y-57148099D01*
X50735691Y-57148082D01*
X50678680Y-56800332D01*
X50678674Y-56800306D01*
X50584399Y-56460756D01*
X50584397Y-56460749D01*
X50453956Y-56133365D01*
X50453947Y-56133347D01*
X50288875Y-55821988D01*
X50091099Y-55530291D01*
X49968085Y-55385467D01*
X49968084Y-55385466D01*
X48794250Y-56559300D01*
X48720412Y-56457670D01*
X48542330Y-56279588D01*
X48440698Y-56205748D01*
X49617374Y-55029073D01*
X49617373Y-55029072D01*
X49607099Y-55019340D01*
X49607087Y-55019330D01*
X49326539Y-54806061D01*
X49326522Y-54806049D01*
X49201372Y-54730750D01*
X49154077Y-54679321D01*
X49142094Y-54610487D01*
X49169229Y-54546101D01*
X49226865Y-54506607D01*
X49265300Y-54500500D01*
X131734700Y-54500500D01*
X131801739Y-54520185D01*
G37*
G04 #@! TD.AperFunction*
G04 #@! TA.AperFunction,Conductor*
G36*
X135968084Y-112364532D02*
G01*
X135968085Y-112364531D01*
X136091102Y-112219704D01*
X136272867Y-111951622D01*
X136326781Y-111907181D01*
X136396163Y-111898943D01*
X136458985Y-111929523D01*
X136495301Y-111989214D01*
X136499500Y-112021209D01*
X136499500Y-113125500D01*
X136479815Y-113192539D01*
X136427011Y-113238294D01*
X136375500Y-113249500D01*
X135265300Y-113249500D01*
X135198261Y-113229815D01*
X135152506Y-113177011D01*
X135142562Y-113107853D01*
X135171587Y-113044297D01*
X135201372Y-113019250D01*
X135326522Y-112943950D01*
X135326539Y-112943938D01*
X135607093Y-112730665D01*
X135607105Y-112730654D01*
X135617373Y-112720927D01*
X135617373Y-112720926D01*
X134440698Y-111544251D01*
X134542330Y-111470412D01*
X134720412Y-111292330D01*
X134794251Y-111190699D01*
X135968084Y-112364532D01*
G37*
G04 #@! TD.AperFunction*
G04 #@! TA.AperFunction,Conductor*
G36*
X45801739Y-54520185D02*
G01*
X45847494Y-54572989D01*
X45857438Y-54642147D01*
X45828413Y-54705703D01*
X45798628Y-54730750D01*
X45673477Y-54806049D01*
X45673460Y-54806061D01*
X45392906Y-55019334D01*
X45382625Y-55029071D01*
X45382625Y-55029073D01*
X46559301Y-56205748D01*
X46457670Y-56279588D01*
X46279588Y-56457670D01*
X46205748Y-56559300D01*
X45031914Y-55385466D01*
X45031913Y-55385466D01*
X44908896Y-55530296D01*
X44711124Y-55821988D01*
X44546052Y-56133347D01*
X44546043Y-56133365D01*
X44489693Y-56274795D01*
X44446593Y-56329787D01*
X44380603Y-56352748D01*
X44312676Y-56336387D01*
X44264378Y-56285899D01*
X44250500Y-56228898D01*
X44250500Y-54624500D01*
X44270185Y-54557461D01*
X44322989Y-54511706D01*
X44374500Y-54500500D01*
X45734700Y-54500500D01*
X45801739Y-54520185D01*
G37*
G04 #@! TD.AperFunction*
G04 #@! TA.AperFunction,Conductor*
G36*
X136442539Y-54520185D02*
G01*
X136488294Y-54572989D01*
X136499500Y-54624500D01*
X136499500Y-55728790D01*
X136479815Y-55795829D01*
X136427011Y-55841584D01*
X136357853Y-55851528D01*
X136294297Y-55822503D01*
X136272867Y-55798377D01*
X136091099Y-55530291D01*
X135968085Y-55385467D01*
X135968084Y-55385466D01*
X134794250Y-56559300D01*
X134720412Y-56457670D01*
X134542330Y-56279588D01*
X134440698Y-56205748D01*
X135617374Y-55029073D01*
X135617373Y-55029072D01*
X135607099Y-55019340D01*
X135607087Y-55019330D01*
X135326539Y-54806061D01*
X135326522Y-54806049D01*
X135201372Y-54730750D01*
X135154077Y-54679321D01*
X135142094Y-54610487D01*
X135169229Y-54546101D01*
X135226865Y-54506607D01*
X135265300Y-54500500D01*
X136375500Y-54500500D01*
X136442539Y-54520185D01*
G37*
G04 #@! TD.AperFunction*
M02*
