%TF.GenerationSoftware,KiCad,Pcbnew,10.0.5*%
%TF.CreationDate,2026-08-08T21:13:25-04:00*%
%TF.ProjectId,360_atx_power_board,3336305f-6174-4785-9f70-6f7765725f62,rev?*%
%TF.SameCoordinates,Original*%
%TF.FileFunction,Copper,L3,Inr*%
%TF.FilePolarity,Positive*%
%FSLAX46Y46*%
G04 Gerber Fmt 4.6, Leading zero omitted, Abs format (unit mm)*
G04 Created by KiCad (PCBNEW 10.0.5) date 2026-08-08 21:13:25*
%MOMM*%
%LPD*%
G01*
G04 APERTURE LIST*
G04 Aperture macros list*
%AMRoundRect*
0 Rectangle with rounded corners*
0 $1 Rounding radius*
0 $2 $3 $4 $5 $6 $7 $8 $9 X,Y pos of 4 corners*
0 Add a 4 corners polygon primitive as box body*
4,1,4,$2,$3,$4,$5,$6,$7,$8,$9,$2,$3,0*
0 Add four circle primitives for the rounded corners*
1,1,$1+$1,$2,$3*
1,1,$1+$1,$4,$5*
1,1,$1+$1,$6,$7*
1,1,$1+$1,$8,$9*
0 Add four rect primitives between the rounded corners*
20,1,$1+$1,$2,$3,$4,$5,0*
20,1,$1+$1,$4,$5,$6,$7,0*
20,1,$1+$1,$6,$7,$8,$9,0*
20,1,$1+$1,$8,$9,$2,$3,0*%
G04 Aperture macros list end*
%TA.AperFunction,ComponentPad*%
%ADD10R,2.150000X2.150000*%
%TD*%
%TA.AperFunction,ComponentPad*%
%ADD11C,2.150000*%
%TD*%
%TA.AperFunction,ComponentPad*%
%ADD12RoundRect,0.250000X-1.050000X-1.050000X1.050000X-1.050000X1.050000X1.050000X-1.050000X1.050000X0*%
%TD*%
%TA.AperFunction,ComponentPad*%
%ADD13C,2.600000*%
%TD*%
%TA.AperFunction,ComponentPad*%
%ADD14C,5.500000*%
%TD*%
%TA.AperFunction,ComponentPad*%
%ADD15C,2.400000*%
%TD*%
%TA.AperFunction,ComponentPad*%
%ADD16R,2.775000X2.775000*%
%TD*%
%TA.AperFunction,ComponentPad*%
%ADD17C,2.775000*%
%TD*%
%TA.AperFunction,ComponentPad*%
%ADD18R,1.530000X1.530000*%
%TD*%
%TA.AperFunction,ComponentPad*%
%ADD19C,1.550000*%
%TD*%
%TA.AperFunction,ComponentPad*%
%ADD20R,2.000000X2.000000*%
%TD*%
%TA.AperFunction,ComponentPad*%
%ADD21C,2.000000*%
%TD*%
%TA.AperFunction,ViaPad*%
%ADD22C,0.600000*%
%TD*%
G04 APERTURE END LIST*
D10*
X113150000Y-68800000D03*
D11*
X117350000Y-68800000D03*
X121550000Y-68800000D03*
X125750000Y-68800000D03*
X113150000Y-74300000D03*
X117350000Y-74300000D03*
X121550000Y-74300000D03*
X125750000Y-74300000D03*
D12*
X76430000Y-106250000D03*
D13*
X81510000Y-106250000D03*
X86590000Y-106250000D03*
X91670000Y-106250000D03*
X96750000Y-106250000D03*
X101830000Y-106250000D03*
D14*
X47500000Y-57500000D03*
X133500000Y-57500000D03*
D15*
X89015000Y-93550000D03*
X102485000Y-93550000D03*
X89015000Y-96950000D03*
X102485000Y-96950000D03*
X80485000Y-96950000D03*
X67015000Y-96950000D03*
X80485000Y-93550000D03*
X67015000Y-93550000D03*
D16*
X52000000Y-84500000D03*
D17*
X56700000Y-84500000D03*
X61400000Y-84500000D03*
D16*
X120250000Y-97000000D03*
D17*
X115550000Y-97000000D03*
X110850000Y-97000000D03*
D14*
X133500000Y-110250000D03*
D18*
X127745000Y-91348000D03*
D19*
X127745000Y-93888000D03*
X127745000Y-96428000D03*
X127745000Y-98968000D03*
D10*
X58100000Y-68721900D03*
D11*
X62300000Y-68721900D03*
X66500000Y-68721900D03*
X70700000Y-68721900D03*
X74900000Y-68721900D03*
X79100000Y-68721900D03*
X83300000Y-68721900D03*
X87500000Y-68721900D03*
X91700000Y-68721900D03*
X95900000Y-68721900D03*
X100100000Y-68721900D03*
X104300000Y-68721900D03*
X58100000Y-74221900D03*
X62300000Y-74221900D03*
X66500000Y-74221900D03*
X70700000Y-74221900D03*
X74900000Y-74221900D03*
X79100000Y-74221900D03*
X83300000Y-74221900D03*
X87500000Y-74221900D03*
X91700000Y-74221900D03*
X95900000Y-74221900D03*
X100100000Y-74221900D03*
X104300000Y-74221900D03*
D14*
X47500000Y-110250000D03*
D20*
X109270000Y-104500000D03*
D21*
X109270000Y-109580000D03*
D22*
X99675000Y-82925000D03*
X89000000Y-76500000D03*
X55000000Y-98000000D03*
X80400000Y-77400000D03*
X66378100Y-82500000D03*
X48200000Y-104600000D03*
X52200000Y-100000000D03*
X56000000Y-91200000D03*
%TA.AperFunction,Conductor*%
G36*
X136442539Y-54520185D02*
G01*
X136488294Y-54572989D01*
X136499500Y-54624500D01*
X136499500Y-113125500D01*
X136479815Y-113192539D01*
X136427011Y-113238294D01*
X136375500Y-113249500D01*
X44374500Y-113249500D01*
X44307461Y-113229815D01*
X44261706Y-113177011D01*
X44250500Y-113125500D01*
X44250500Y-109461947D01*
X107770000Y-109461947D01*
X107770000Y-109698052D01*
X107806934Y-109931247D01*
X107879897Y-110155802D01*
X107987087Y-110366174D01*
X108047338Y-110449104D01*
X108047340Y-110449105D01*
X108746212Y-109750233D01*
X108757482Y-109792292D01*
X108829890Y-109917708D01*
X108932292Y-110020110D01*
X109057708Y-110092518D01*
X109099765Y-110103787D01*
X108400893Y-110802658D01*
X108483828Y-110862914D01*
X108694197Y-110970102D01*
X108918752Y-111043065D01*
X108918751Y-111043065D01*
X109151948Y-111080000D01*
X109388052Y-111080000D01*
X109621247Y-111043065D01*
X109845802Y-110970102D01*
X110056163Y-110862918D01*
X110056169Y-110862914D01*
X110139104Y-110802658D01*
X110139105Y-110802658D01*
X109440233Y-110103787D01*
X109482292Y-110092518D01*
X109607708Y-110020110D01*
X109710110Y-109917708D01*
X109782518Y-109792292D01*
X109793787Y-109750234D01*
X110492658Y-110449105D01*
X110492658Y-110449104D01*
X110552914Y-110366169D01*
X110552918Y-110366163D01*
X110660102Y-110155802D01*
X110733065Y-109931247D01*
X110770000Y-109698052D01*
X110770000Y-109461947D01*
X110733065Y-109228752D01*
X110660102Y-109004197D01*
X110552914Y-108793828D01*
X110492658Y-108710894D01*
X110492658Y-108710893D01*
X109793787Y-109409765D01*
X109782518Y-109367708D01*
X109710110Y-109242292D01*
X109607708Y-109139890D01*
X109482292Y-109067482D01*
X109440234Y-109056212D01*
X110139105Y-108357340D01*
X110139104Y-108357338D01*
X110056174Y-108297087D01*
X109845802Y-108189897D01*
X109621247Y-108116934D01*
X109621248Y-108116934D01*
X109388052Y-108080000D01*
X109151948Y-108080000D01*
X108918752Y-108116934D01*
X108694197Y-108189897D01*
X108483830Y-108297084D01*
X108400894Y-108357340D01*
X109099766Y-109056212D01*
X109057708Y-109067482D01*
X108932292Y-109139890D01*
X108829890Y-109242292D01*
X108757482Y-109367708D01*
X108746212Y-109409766D01*
X108047340Y-108710894D01*
X107987084Y-108793830D01*
X107879897Y-109004197D01*
X107806934Y-109228752D01*
X107770000Y-109461947D01*
X44250500Y-109461947D01*
X44250500Y-104521153D01*
X47399500Y-104521153D01*
X47399500Y-104678846D01*
X47430261Y-104833489D01*
X47430264Y-104833501D01*
X47490602Y-104979172D01*
X47490609Y-104979185D01*
X47578210Y-105110288D01*
X47578213Y-105110292D01*
X47689707Y-105221786D01*
X47689711Y-105221789D01*
X47820814Y-105309390D01*
X47820827Y-105309397D01*
X47966498Y-105369735D01*
X47966503Y-105369737D01*
X48121153Y-105400499D01*
X48121156Y-105400500D01*
X48121158Y-105400500D01*
X48278844Y-105400500D01*
X48278845Y-105400499D01*
X48433497Y-105369737D01*
X48579179Y-105309394D01*
X48710289Y-105221789D01*
X48782095Y-105149983D01*
X74629500Y-105149983D01*
X74629500Y-107350001D01*
X74629501Y-107350018D01*
X74640000Y-107452796D01*
X74640001Y-107452799D01*
X74690962Y-107606587D01*
X74695186Y-107619334D01*
X74787288Y-107768656D01*
X74911344Y-107892712D01*
X75060666Y-107984814D01*
X75227203Y-108039999D01*
X75329991Y-108050500D01*
X77530008Y-108050499D01*
X77632797Y-108039999D01*
X77799334Y-107984814D01*
X77948656Y-107892712D01*
X78072712Y-107768656D01*
X78164814Y-107619334D01*
X78219999Y-107452797D01*
X78230500Y-107350009D01*
X78230499Y-106131995D01*
X79709500Y-106131995D01*
X79709500Y-106368004D01*
X79709501Y-106368020D01*
X79740306Y-106602010D01*
X79801394Y-106829993D01*
X79891714Y-107048045D01*
X79891719Y-107048056D01*
X79962677Y-107170957D01*
X80009727Y-107252450D01*
X80009729Y-107252453D01*
X80009730Y-107252454D01*
X80153406Y-107439697D01*
X80153412Y-107439704D01*
X80320295Y-107606587D01*
X80320302Y-107606593D01*
X80430306Y-107691001D01*
X80507550Y-107750273D01*
X80638918Y-107826118D01*
X80711943Y-107868280D01*
X80711948Y-107868282D01*
X80711951Y-107868284D01*
X80930007Y-107958606D01*
X81157986Y-108019693D01*
X81391989Y-108050500D01*
X81391996Y-108050500D01*
X81628004Y-108050500D01*
X81628011Y-108050500D01*
X81862014Y-108019693D01*
X82089993Y-107958606D01*
X82308049Y-107868284D01*
X82512450Y-107750273D01*
X82699699Y-107606592D01*
X82866592Y-107439699D01*
X83010273Y-107252450D01*
X83128284Y-107048049D01*
X83218606Y-106829993D01*
X83279693Y-106602014D01*
X83310500Y-106368011D01*
X83310500Y-106131995D01*
X84789500Y-106131995D01*
X84789500Y-106368004D01*
X84789501Y-106368020D01*
X84820306Y-106602010D01*
X84881394Y-106829993D01*
X84971714Y-107048045D01*
X84971719Y-107048056D01*
X85042677Y-107170957D01*
X85089727Y-107252450D01*
X85089729Y-107252453D01*
X85089730Y-107252454D01*
X85233406Y-107439697D01*
X85233412Y-107439704D01*
X85400295Y-107606587D01*
X85400302Y-107606593D01*
X85510306Y-107691001D01*
X85587550Y-107750273D01*
X85718918Y-107826118D01*
X85791943Y-107868280D01*
X85791948Y-107868282D01*
X85791951Y-107868284D01*
X86010007Y-107958606D01*
X86237986Y-108019693D01*
X86471989Y-108050500D01*
X86471996Y-108050500D01*
X86708004Y-108050500D01*
X86708011Y-108050500D01*
X86942014Y-108019693D01*
X87169993Y-107958606D01*
X87388049Y-107868284D01*
X87592450Y-107750273D01*
X87779699Y-107606592D01*
X87779704Y-107606587D01*
X87834648Y-107551644D01*
X87946587Y-107439704D01*
X87946592Y-107439699D01*
X88090273Y-107252450D01*
X88208284Y-107048049D01*
X88298606Y-106829993D01*
X88359693Y-106602014D01*
X88390500Y-106368011D01*
X88390500Y-106132014D01*
X89870000Y-106132014D01*
X89870000Y-106367985D01*
X89900799Y-106601914D01*
X89961870Y-106829837D01*
X90052160Y-107047819D01*
X90052165Y-107047828D01*
X90170144Y-107252171D01*
X90170145Y-107252172D01*
X90232721Y-107333723D01*
X91068958Y-106497487D01*
X91093978Y-106557890D01*
X91165112Y-106664351D01*
X91255649Y-106754888D01*
X91362110Y-106826022D01*
X91422511Y-106851041D01*
X90586275Y-107687277D01*
X90667827Y-107749854D01*
X90667828Y-107749855D01*
X90872171Y-107867834D01*
X90872180Y-107867839D01*
X91090163Y-107958129D01*
X91090161Y-107958129D01*
X91318085Y-108019200D01*
X91552014Y-108049999D01*
X91552029Y-108050000D01*
X91787971Y-108050000D01*
X91787985Y-108049999D01*
X92021914Y-108019200D01*
X92249837Y-107958129D01*
X92467819Y-107867839D01*
X92467828Y-107867834D01*
X92672181Y-107749850D01*
X92753723Y-107687279D01*
X92753723Y-107687276D01*
X91917487Y-106851041D01*
X91977890Y-106826022D01*
X92084351Y-106754888D01*
X92174888Y-106664351D01*
X92246022Y-106557890D01*
X92271041Y-106497487D01*
X93107276Y-107333723D01*
X93107279Y-107333723D01*
X93169850Y-107252181D01*
X93287834Y-107047828D01*
X93287839Y-107047819D01*
X93378129Y-106829837D01*
X93439200Y-106601914D01*
X93469999Y-106367985D01*
X93470000Y-106367971D01*
X93470000Y-106132028D01*
X93469999Y-106132014D01*
X94950000Y-106132014D01*
X94950000Y-106367985D01*
X94980799Y-106601914D01*
X95041870Y-106829837D01*
X95132160Y-107047819D01*
X95132165Y-107047828D01*
X95250144Y-107252171D01*
X95250145Y-107252172D01*
X95312721Y-107333723D01*
X96148958Y-106497487D01*
X96173978Y-106557890D01*
X96245112Y-106664351D01*
X96335649Y-106754888D01*
X96442110Y-106826022D01*
X96502511Y-106851041D01*
X95666275Y-107687277D01*
X95747827Y-107749854D01*
X95747828Y-107749855D01*
X95952171Y-107867834D01*
X95952180Y-107867839D01*
X96170163Y-107958129D01*
X96170161Y-107958129D01*
X96398085Y-108019200D01*
X96632014Y-108049999D01*
X96632029Y-108050000D01*
X96867971Y-108050000D01*
X96867985Y-108049999D01*
X97101914Y-108019200D01*
X97329837Y-107958129D01*
X97547819Y-107867839D01*
X97547828Y-107867834D01*
X97752181Y-107749850D01*
X97833723Y-107687279D01*
X97833723Y-107687276D01*
X96997487Y-106851041D01*
X97057890Y-106826022D01*
X97164351Y-106754888D01*
X97254888Y-106664351D01*
X97326022Y-106557890D01*
X97351041Y-106497487D01*
X98187276Y-107333723D01*
X98187279Y-107333723D01*
X98249850Y-107252181D01*
X98367834Y-107047828D01*
X98367839Y-107047819D01*
X98458129Y-106829837D01*
X98519200Y-106601914D01*
X98549999Y-106367985D01*
X98550000Y-106367971D01*
X98550000Y-106132028D01*
X98549999Y-106132014D01*
X100030000Y-106132014D01*
X100030000Y-106367985D01*
X100060799Y-106601914D01*
X100121870Y-106829837D01*
X100212160Y-107047819D01*
X100212165Y-107047828D01*
X100330144Y-107252171D01*
X100330145Y-107252172D01*
X100392721Y-107333723D01*
X101228958Y-106497487D01*
X101253978Y-106557890D01*
X101325112Y-106664351D01*
X101415649Y-106754888D01*
X101522110Y-106826022D01*
X101582511Y-106851041D01*
X100746275Y-107687277D01*
X100827827Y-107749854D01*
X100827828Y-107749855D01*
X101032171Y-107867834D01*
X101032180Y-107867839D01*
X101250163Y-107958129D01*
X101250161Y-107958129D01*
X101478085Y-108019200D01*
X101712014Y-108049999D01*
X101712029Y-108050000D01*
X101947971Y-108050000D01*
X101947985Y-108049999D01*
X102181914Y-108019200D01*
X102409837Y-107958129D01*
X102627819Y-107867839D01*
X102627828Y-107867834D01*
X102832181Y-107749850D01*
X102913723Y-107687279D01*
X102913723Y-107687276D01*
X102077487Y-106851041D01*
X102137890Y-106826022D01*
X102244351Y-106754888D01*
X102334888Y-106664351D01*
X102406022Y-106557890D01*
X102431041Y-106497487D01*
X103267276Y-107333723D01*
X103267279Y-107333723D01*
X103329850Y-107252181D01*
X103447834Y-107047828D01*
X103447836Y-107047824D01*
X103505392Y-106908872D01*
X123929500Y-106908872D01*
X123929500Y-107171127D01*
X123953051Y-107350001D01*
X123963730Y-107431116D01*
X124010749Y-107606593D01*
X124031602Y-107684418D01*
X124031605Y-107684428D01*
X124131953Y-107926690D01*
X124131958Y-107926700D01*
X124263075Y-108153803D01*
X124422718Y-108361851D01*
X124422726Y-108361860D01*
X124608140Y-108547274D01*
X124608148Y-108547281D01*
X124816196Y-108706924D01*
X125043299Y-108838041D01*
X125043309Y-108838046D01*
X125285571Y-108938394D01*
X125285581Y-108938398D01*
X125538884Y-109006270D01*
X125798880Y-109040500D01*
X125798887Y-109040500D01*
X126061113Y-109040500D01*
X126061120Y-109040500D01*
X126321116Y-109006270D01*
X126574419Y-108938398D01*
X126816697Y-108838043D01*
X127043803Y-108706924D01*
X127251851Y-108547282D01*
X127251855Y-108547277D01*
X127251860Y-108547274D01*
X127437274Y-108361860D01*
X127437277Y-108361855D01*
X127437282Y-108361851D01*
X127596924Y-108153803D01*
X127728043Y-107926697D01*
X127752239Y-107868284D01*
X127801294Y-107749854D01*
X127828398Y-107684419D01*
X127896270Y-107431116D01*
X127930500Y-107171120D01*
X127930500Y-106908880D01*
X127896270Y-106648884D01*
X127828398Y-106395581D01*
X127816975Y-106368004D01*
X127728046Y-106153309D01*
X127728041Y-106153299D01*
X127596924Y-105926196D01*
X127474424Y-105766554D01*
X127437282Y-105718149D01*
X127437281Y-105718148D01*
X127437274Y-105718140D01*
X127251860Y-105532726D01*
X127251851Y-105532718D01*
X127043803Y-105373075D01*
X126816700Y-105241958D01*
X126816690Y-105241953D01*
X126574428Y-105141605D01*
X126574421Y-105141603D01*
X126574419Y-105141602D01*
X126321116Y-105073730D01*
X126263339Y-105066123D01*
X126061127Y-105039500D01*
X126061120Y-105039500D01*
X125798880Y-105039500D01*
X125798872Y-105039500D01*
X125567772Y-105069926D01*
X125538884Y-105073730D01*
X125285581Y-105141602D01*
X125285571Y-105141605D01*
X125043309Y-105241953D01*
X125043299Y-105241958D01*
X124816196Y-105373075D01*
X124608148Y-105532718D01*
X124422718Y-105718148D01*
X124263075Y-105926196D01*
X124131958Y-106153299D01*
X124131953Y-106153309D01*
X124031605Y-106395571D01*
X124031602Y-106395581D01*
X123963730Y-106648885D01*
X123929500Y-106908872D01*
X103505392Y-106908872D01*
X103526726Y-106857368D01*
X103538130Y-106829833D01*
X103599200Y-106601914D01*
X103629999Y-106367985D01*
X103630000Y-106367971D01*
X103630000Y-106132028D01*
X103629999Y-106132014D01*
X103599200Y-105898085D01*
X103538129Y-105670162D01*
X103447839Y-105452180D01*
X103447834Y-105452171D01*
X103329855Y-105247828D01*
X103329854Y-105247827D01*
X103267277Y-105166275D01*
X102431041Y-106002511D01*
X102406022Y-105942110D01*
X102334888Y-105835649D01*
X102244351Y-105745112D01*
X102137890Y-105673978D01*
X102077488Y-105648958D01*
X102913723Y-104812721D01*
X102832172Y-104750145D01*
X102832171Y-104750144D01*
X102627828Y-104632165D01*
X102627819Y-104632160D01*
X102409836Y-104541870D01*
X102409838Y-104541870D01*
X102181914Y-104480799D01*
X101947985Y-104450000D01*
X101712014Y-104450000D01*
X101478085Y-104480799D01*
X101250162Y-104541870D01*
X101032180Y-104632160D01*
X101032171Y-104632165D01*
X100827828Y-104750144D01*
X100827818Y-104750150D01*
X100746275Y-104812720D01*
X100746275Y-104812721D01*
X101582512Y-105648958D01*
X101522110Y-105673978D01*
X101415649Y-105745112D01*
X101325112Y-105835649D01*
X101253978Y-105942110D01*
X101228958Y-106002512D01*
X100392721Y-105166275D01*
X100392720Y-105166275D01*
X100330150Y-105247818D01*
X100330144Y-105247828D01*
X100212165Y-105452171D01*
X100212160Y-105452180D01*
X100121870Y-105670162D01*
X100060799Y-105898085D01*
X100030000Y-106132014D01*
X98549999Y-106132014D01*
X98519200Y-105898085D01*
X98458129Y-105670162D01*
X98367839Y-105452180D01*
X98367834Y-105452171D01*
X98249855Y-105247828D01*
X98249854Y-105247827D01*
X98187277Y-105166275D01*
X97351041Y-106002511D01*
X97326022Y-105942110D01*
X97254888Y-105835649D01*
X97164351Y-105745112D01*
X97057890Y-105673978D01*
X96997488Y-105648958D01*
X97833723Y-104812721D01*
X97752172Y-104750145D01*
X97752171Y-104750144D01*
X97547828Y-104632165D01*
X97547819Y-104632160D01*
X97329836Y-104541870D01*
X97329838Y-104541870D01*
X97101914Y-104480799D01*
X96867985Y-104450000D01*
X96632014Y-104450000D01*
X96398085Y-104480799D01*
X96170162Y-104541870D01*
X95952180Y-104632160D01*
X95952171Y-104632165D01*
X95747828Y-104750144D01*
X95747818Y-104750150D01*
X95666275Y-104812720D01*
X95666275Y-104812721D01*
X96502512Y-105648958D01*
X96442110Y-105673978D01*
X96335649Y-105745112D01*
X96245112Y-105835649D01*
X96173978Y-105942110D01*
X96148958Y-106002511D01*
X95312721Y-105166275D01*
X95312720Y-105166275D01*
X95250150Y-105247818D01*
X95250144Y-105247828D01*
X95132165Y-105452171D01*
X95132160Y-105452180D01*
X95041870Y-105670162D01*
X94980799Y-105898085D01*
X94950000Y-106132014D01*
X93469999Y-106132014D01*
X93439200Y-105898085D01*
X93378129Y-105670162D01*
X93287839Y-105452180D01*
X93287834Y-105452171D01*
X93169855Y-105247828D01*
X93169854Y-105247827D01*
X93107277Y-105166275D01*
X92271041Y-106002511D01*
X92246022Y-105942110D01*
X92174888Y-105835649D01*
X92084351Y-105745112D01*
X91977890Y-105673978D01*
X91917488Y-105648958D01*
X92753723Y-104812721D01*
X92672172Y-104750145D01*
X92672171Y-104750144D01*
X92467828Y-104632165D01*
X92467819Y-104632160D01*
X92249836Y-104541870D01*
X92249838Y-104541870D01*
X92021914Y-104480799D01*
X91787985Y-104450000D01*
X91552014Y-104450000D01*
X91318085Y-104480799D01*
X91090162Y-104541870D01*
X90872180Y-104632160D01*
X90872171Y-104632165D01*
X90667828Y-104750144D01*
X90667818Y-104750150D01*
X90586275Y-104812720D01*
X90586275Y-104812721D01*
X91422512Y-105648958D01*
X91362110Y-105673978D01*
X91255649Y-105745112D01*
X91165112Y-105835649D01*
X91093978Y-105942110D01*
X91068958Y-106002512D01*
X90232721Y-105166275D01*
X90232720Y-105166275D01*
X90170150Y-105247818D01*
X90170144Y-105247828D01*
X90052165Y-105452171D01*
X90052160Y-105452180D01*
X89961870Y-105670162D01*
X89900799Y-105898085D01*
X89870000Y-106132014D01*
X88390500Y-106132014D01*
X88390500Y-106131989D01*
X88359693Y-105897986D01*
X88298606Y-105670007D01*
X88208284Y-105451951D01*
X88208282Y-105451948D01*
X88208280Y-105451943D01*
X88160818Y-105369737D01*
X88090273Y-105247550D01*
X88008976Y-105141602D01*
X87946593Y-105060302D01*
X87946587Y-105060295D01*
X87779704Y-104893412D01*
X87779697Y-104893406D01*
X87592454Y-104749730D01*
X87592453Y-104749729D01*
X87592450Y-104749727D01*
X87469681Y-104678846D01*
X87388056Y-104631719D01*
X87388045Y-104631714D01*
X87169993Y-104541394D01*
X86942010Y-104480306D01*
X86708020Y-104449501D01*
X86708017Y-104449500D01*
X86708011Y-104449500D01*
X86471989Y-104449500D01*
X86471983Y-104449500D01*
X86471979Y-104449501D01*
X86237989Y-104480306D01*
X86010006Y-104541394D01*
X85791954Y-104631714D01*
X85791943Y-104631719D01*
X85587545Y-104749730D01*
X85400302Y-104893406D01*
X85400295Y-104893412D01*
X85233412Y-105060295D01*
X85233406Y-105060302D01*
X85089730Y-105247545D01*
X85089727Y-105247549D01*
X85089727Y-105247550D01*
X85082014Y-105260909D01*
X84971719Y-105451943D01*
X84971714Y-105451954D01*
X84881394Y-105670006D01*
X84820306Y-105897989D01*
X84789501Y-106131979D01*
X84789500Y-106131995D01*
X83310500Y-106131995D01*
X83310500Y-106131989D01*
X83279693Y-105897986D01*
X83218606Y-105670007D01*
X83128284Y-105451951D01*
X83128282Y-105451948D01*
X83128280Y-105451943D01*
X83080818Y-105369737D01*
X83010273Y-105247550D01*
X82928976Y-105141602D01*
X82866593Y-105060302D01*
X82866587Y-105060295D01*
X82699704Y-104893412D01*
X82699697Y-104893406D01*
X82512454Y-104749730D01*
X82512453Y-104749729D01*
X82512450Y-104749727D01*
X82389681Y-104678846D01*
X82308056Y-104631719D01*
X82308045Y-104631714D01*
X82089993Y-104541394D01*
X81862010Y-104480306D01*
X81628020Y-104449501D01*
X81628017Y-104449500D01*
X81628011Y-104449500D01*
X81391989Y-104449500D01*
X81391983Y-104449500D01*
X81391979Y-104449501D01*
X81157989Y-104480306D01*
X80930006Y-104541394D01*
X80711954Y-104631714D01*
X80711943Y-104631719D01*
X80507545Y-104749730D01*
X80320302Y-104893406D01*
X80320295Y-104893412D01*
X80153412Y-105060295D01*
X80153406Y-105060302D01*
X80009730Y-105247545D01*
X80009727Y-105247549D01*
X80009727Y-105247550D01*
X80002014Y-105260909D01*
X79891719Y-105451943D01*
X79891714Y-105451954D01*
X79801394Y-105670006D01*
X79740306Y-105897989D01*
X79709501Y-106131979D01*
X79709500Y-106131995D01*
X78230499Y-106131995D01*
X78230499Y-105149992D01*
X78219999Y-105047203D01*
X78164814Y-104880666D01*
X78072712Y-104731344D01*
X77948656Y-104607288D01*
X77841824Y-104541394D01*
X77799336Y-104515187D01*
X77799331Y-104515185D01*
X77797862Y-104514698D01*
X77632797Y-104460001D01*
X77632795Y-104460000D01*
X77530010Y-104449500D01*
X75329998Y-104449500D01*
X75329981Y-104449501D01*
X75227203Y-104460000D01*
X75227200Y-104460001D01*
X75060668Y-104515185D01*
X75060663Y-104515187D01*
X74911342Y-104607289D01*
X74787289Y-104731342D01*
X74695187Y-104880663D01*
X74695185Y-104880668D01*
X74690962Y-104893412D01*
X74640001Y-105047203D01*
X74640001Y-105047204D01*
X74640000Y-105047204D01*
X74629500Y-105149983D01*
X48782095Y-105149983D01*
X48821789Y-105110289D01*
X48909394Y-104979179D01*
X48969737Y-104833497D01*
X49000500Y-104678842D01*
X49000500Y-104521158D01*
X49000500Y-104521155D01*
X49000499Y-104521153D01*
X48969738Y-104366510D01*
X48969737Y-104366503D01*
X48969735Y-104366498D01*
X48909397Y-104220827D01*
X48909390Y-104220814D01*
X48821789Y-104089711D01*
X48821786Y-104089707D01*
X48710292Y-103978213D01*
X48710288Y-103978210D01*
X48579185Y-103890609D01*
X48579172Y-103890602D01*
X48433501Y-103830264D01*
X48433489Y-103830261D01*
X48278845Y-103799500D01*
X48278842Y-103799500D01*
X48121158Y-103799500D01*
X48121155Y-103799500D01*
X47966510Y-103830261D01*
X47966498Y-103830264D01*
X47820827Y-103890602D01*
X47820814Y-103890609D01*
X47689711Y-103978210D01*
X47689707Y-103978213D01*
X47578213Y-104089707D01*
X47578210Y-104089711D01*
X47490609Y-104220814D01*
X47490602Y-104220827D01*
X47430264Y-104366498D01*
X47430261Y-104366510D01*
X47399500Y-104521153D01*
X44250500Y-104521153D01*
X44250500Y-103452135D01*
X107769500Y-103452135D01*
X107769500Y-105547870D01*
X107769501Y-105547876D01*
X107775908Y-105607483D01*
X107826202Y-105742328D01*
X107826206Y-105742335D01*
X107912452Y-105857544D01*
X107912455Y-105857547D01*
X108027664Y-105943793D01*
X108027671Y-105943797D01*
X108162517Y-105994091D01*
X108162516Y-105994091D01*
X108169444Y-105994835D01*
X108222127Y-106000500D01*
X110317872Y-106000499D01*
X110377483Y-105994091D01*
X110512331Y-105943796D01*
X110627546Y-105857546D01*
X110713796Y-105742331D01*
X110764091Y-105607483D01*
X110770500Y-105547873D01*
X110770499Y-103452128D01*
X110764091Y-103392517D01*
X110713796Y-103257669D01*
X110713795Y-103257668D01*
X110713793Y-103257664D01*
X110627547Y-103142455D01*
X110627544Y-103142452D01*
X110512335Y-103056206D01*
X110512328Y-103056202D01*
X110377482Y-103005908D01*
X110377483Y-103005908D01*
X110317883Y-102999501D01*
X110317881Y-102999500D01*
X110317873Y-102999500D01*
X110317864Y-102999500D01*
X108222129Y-102999500D01*
X108222123Y-102999501D01*
X108162516Y-103005908D01*
X108027671Y-103056202D01*
X108027664Y-103056206D01*
X107912455Y-103142452D01*
X107912452Y-103142455D01*
X107826206Y-103257664D01*
X107826202Y-103257671D01*
X107775908Y-103392517D01*
X107769501Y-103452116D01*
X107769501Y-103452123D01*
X107769500Y-103452135D01*
X44250500Y-103452135D01*
X44250500Y-99921153D01*
X51399500Y-99921153D01*
X51399500Y-100078846D01*
X51430261Y-100233489D01*
X51430264Y-100233501D01*
X51490602Y-100379172D01*
X51490609Y-100379185D01*
X51578210Y-100510288D01*
X51578213Y-100510292D01*
X51689707Y-100621786D01*
X51689711Y-100621789D01*
X51820814Y-100709390D01*
X51820827Y-100709397D01*
X51966498Y-100769735D01*
X51966503Y-100769737D01*
X52121153Y-100800499D01*
X52121156Y-100800500D01*
X52121158Y-100800500D01*
X52278844Y-100800500D01*
X52278845Y-100800499D01*
X52433497Y-100769737D01*
X52579179Y-100709394D01*
X52710289Y-100621789D01*
X52821789Y-100510289D01*
X52909394Y-100379179D01*
X52969737Y-100233497D01*
X53000500Y-100078842D01*
X53000500Y-99921158D01*
X53000500Y-99921155D01*
X53000499Y-99921153D01*
X52976188Y-99798934D01*
X52969737Y-99766503D01*
X52915892Y-99636508D01*
X52909397Y-99620827D01*
X52909390Y-99620814D01*
X52821789Y-99489711D01*
X52821786Y-99489707D01*
X52710292Y-99378213D01*
X52710288Y-99378210D01*
X52579185Y-99290609D01*
X52579172Y-99290602D01*
X52433501Y-99230264D01*
X52433489Y-99230261D01*
X52278845Y-99199500D01*
X52278842Y-99199500D01*
X52121158Y-99199500D01*
X52121155Y-99199500D01*
X51966510Y-99230261D01*
X51966498Y-99230264D01*
X51820827Y-99290602D01*
X51820814Y-99290609D01*
X51689711Y-99378210D01*
X51689707Y-99378213D01*
X51578213Y-99489707D01*
X51578210Y-99489711D01*
X51490609Y-99620814D01*
X51490602Y-99620827D01*
X51430264Y-99766498D01*
X51430261Y-99766510D01*
X51399500Y-99921153D01*
X44250500Y-99921153D01*
X44250500Y-97921153D01*
X54199500Y-97921153D01*
X54199500Y-98078846D01*
X54230261Y-98233489D01*
X54230264Y-98233501D01*
X54290602Y-98379172D01*
X54290609Y-98379185D01*
X54378210Y-98510288D01*
X54378213Y-98510292D01*
X54489707Y-98621786D01*
X54489711Y-98621789D01*
X54620814Y-98709390D01*
X54620827Y-98709397D01*
X54766498Y-98769735D01*
X54766503Y-98769737D01*
X54921153Y-98800499D01*
X54921156Y-98800500D01*
X54921158Y-98800500D01*
X55078844Y-98800500D01*
X55078845Y-98800499D01*
X55233497Y-98769737D01*
X55379179Y-98709394D01*
X55510289Y-98621789D01*
X55621789Y-98510289D01*
X55709394Y-98379179D01*
X55769737Y-98233497D01*
X55800500Y-98078842D01*
X55800500Y-97921158D01*
X55800500Y-97921155D01*
X55800499Y-97921153D01*
X55783728Y-97836840D01*
X55769737Y-97766503D01*
X55743734Y-97703726D01*
X55709397Y-97620827D01*
X55709390Y-97620814D01*
X55621789Y-97489711D01*
X55621786Y-97489707D01*
X55510292Y-97378213D01*
X55510288Y-97378210D01*
X55379185Y-97290609D01*
X55379172Y-97290602D01*
X55233501Y-97230264D01*
X55233489Y-97230261D01*
X55078845Y-97199500D01*
X55078842Y-97199500D01*
X54921158Y-97199500D01*
X54921155Y-97199500D01*
X54766510Y-97230261D01*
X54766498Y-97230264D01*
X54620827Y-97290602D01*
X54620814Y-97290609D01*
X54489711Y-97378210D01*
X54489707Y-97378213D01*
X54378213Y-97489707D01*
X54378210Y-97489711D01*
X54290609Y-97620814D01*
X54290602Y-97620827D01*
X54230264Y-97766498D01*
X54230261Y-97766510D01*
X54199500Y-97921153D01*
X44250500Y-97921153D01*
X44250500Y-93438549D01*
X65314500Y-93438549D01*
X65314500Y-93661450D01*
X65314501Y-93661466D01*
X65343594Y-93882452D01*
X65343595Y-93882457D01*
X65343596Y-93882463D01*
X65401290Y-94097780D01*
X65401293Y-94097790D01*
X65438113Y-94186680D01*
X65486595Y-94303726D01*
X65598052Y-94496774D01*
X65598057Y-94496780D01*
X65598058Y-94496782D01*
X65733751Y-94673622D01*
X65733757Y-94673629D01*
X65891370Y-94831242D01*
X65891376Y-94831247D01*
X66068226Y-94966948D01*
X66261274Y-95078405D01*
X66280950Y-95086555D01*
X66398965Y-95135439D01*
X66453368Y-95179280D01*
X66475433Y-95245574D01*
X66458154Y-95313274D01*
X66407016Y-95360884D01*
X66398965Y-95364561D01*
X66261277Y-95421593D01*
X66261273Y-95421595D01*
X66068226Y-95533052D01*
X66068217Y-95533058D01*
X65891377Y-95668751D01*
X65891370Y-95668757D01*
X65733757Y-95826370D01*
X65733751Y-95826377D01*
X65598058Y-96003217D01*
X65598052Y-96003226D01*
X65486595Y-96196273D01*
X65486593Y-96196277D01*
X65401293Y-96402209D01*
X65401290Y-96402219D01*
X65370617Y-96516695D01*
X65343597Y-96617534D01*
X65343594Y-96617547D01*
X65314501Y-96838533D01*
X65314500Y-96838549D01*
X65314500Y-97061450D01*
X65314501Y-97061466D01*
X65343594Y-97282452D01*
X65343595Y-97282457D01*
X65343596Y-97282463D01*
X65375330Y-97400897D01*
X65401290Y-97497780D01*
X65401293Y-97497790D01*
X65473492Y-97672093D01*
X65486595Y-97703726D01*
X65598052Y-97896774D01*
X65598057Y-97896780D01*
X65598058Y-97896782D01*
X65733751Y-98073622D01*
X65733757Y-98073629D01*
X65891370Y-98231242D01*
X65891377Y-98231248D01*
X65912578Y-98247516D01*
X66068226Y-98366948D01*
X66261274Y-98478405D01*
X66467219Y-98563710D01*
X66682537Y-98621404D01*
X66903543Y-98650500D01*
X66903550Y-98650500D01*
X67126450Y-98650500D01*
X67126457Y-98650500D01*
X67347463Y-98621404D01*
X67562781Y-98563710D01*
X67768726Y-98478405D01*
X67961774Y-98366948D01*
X68138624Y-98231247D01*
X68296247Y-98073624D01*
X68431948Y-97896774D01*
X68543405Y-97703726D01*
X68628710Y-97497781D01*
X68686404Y-97282463D01*
X68715500Y-97061457D01*
X68715500Y-96838543D01*
X68686404Y-96617537D01*
X68628710Y-96402219D01*
X68543405Y-96196274D01*
X68431948Y-96003226D01*
X68296247Y-95826376D01*
X68296242Y-95826370D01*
X68138629Y-95668757D01*
X68138622Y-95668751D01*
X67961782Y-95533058D01*
X67961780Y-95533057D01*
X67961774Y-95533052D01*
X67768726Y-95421595D01*
X67768722Y-95421593D01*
X67631034Y-95364561D01*
X67576631Y-95320720D01*
X67554566Y-95254426D01*
X67571845Y-95186727D01*
X67622982Y-95139116D01*
X67631034Y-95135439D01*
X67687620Y-95112000D01*
X67768726Y-95078405D01*
X67961774Y-94966948D01*
X68138624Y-94831247D01*
X68296247Y-94673624D01*
X68431948Y-94496774D01*
X68543405Y-94303726D01*
X68628710Y-94097781D01*
X68686404Y-93882463D01*
X68715500Y-93661457D01*
X68715500Y-93438549D01*
X78784500Y-93438549D01*
X78784500Y-93661450D01*
X78784501Y-93661466D01*
X78813594Y-93882452D01*
X78813595Y-93882457D01*
X78813596Y-93882463D01*
X78871290Y-94097780D01*
X78871293Y-94097790D01*
X78908113Y-94186680D01*
X78956595Y-94303726D01*
X79068052Y-94496774D01*
X79068057Y-94496780D01*
X79068058Y-94496782D01*
X79203751Y-94673622D01*
X79203757Y-94673629D01*
X79361370Y-94831242D01*
X79361376Y-94831247D01*
X79538226Y-94966948D01*
X79731274Y-95078405D01*
X79750950Y-95086555D01*
X79868965Y-95135439D01*
X79923368Y-95179280D01*
X79945433Y-95245574D01*
X79928154Y-95313274D01*
X79877016Y-95360884D01*
X79868965Y-95364561D01*
X79731277Y-95421593D01*
X79731273Y-95421595D01*
X79538226Y-95533052D01*
X79538217Y-95533058D01*
X79361377Y-95668751D01*
X79361370Y-95668757D01*
X79203757Y-95826370D01*
X79203751Y-95826377D01*
X79068058Y-96003217D01*
X79068052Y-96003226D01*
X78956595Y-96196273D01*
X78956593Y-96196277D01*
X78871293Y-96402209D01*
X78871290Y-96402219D01*
X78840617Y-96516695D01*
X78813597Y-96617534D01*
X78813594Y-96617547D01*
X78784501Y-96838533D01*
X78784500Y-96838549D01*
X78784500Y-97061450D01*
X78784501Y-97061466D01*
X78813594Y-97282452D01*
X78813595Y-97282457D01*
X78813596Y-97282463D01*
X78845330Y-97400897D01*
X78871290Y-97497780D01*
X78871293Y-97497790D01*
X78943492Y-97672093D01*
X78956595Y-97703726D01*
X79068052Y-97896774D01*
X79068057Y-97896780D01*
X79068058Y-97896782D01*
X79203751Y-98073622D01*
X79203757Y-98073629D01*
X79361370Y-98231242D01*
X79361377Y-98231248D01*
X79382578Y-98247516D01*
X79538226Y-98366948D01*
X79731274Y-98478405D01*
X79937219Y-98563710D01*
X80152537Y-98621404D01*
X80373543Y-98650500D01*
X80373550Y-98650500D01*
X80596450Y-98650500D01*
X80596457Y-98650500D01*
X80817463Y-98621404D01*
X81032781Y-98563710D01*
X81238726Y-98478405D01*
X81431774Y-98366948D01*
X81608624Y-98231247D01*
X81766247Y-98073624D01*
X81901948Y-97896774D01*
X82013405Y-97703726D01*
X82098710Y-97497781D01*
X82156404Y-97282463D01*
X82185500Y-97061457D01*
X82185500Y-96838543D01*
X82156404Y-96617537D01*
X82098710Y-96402219D01*
X82013405Y-96196274D01*
X81901948Y-96003226D01*
X81766247Y-95826376D01*
X81766242Y-95826370D01*
X81608629Y-95668757D01*
X81608622Y-95668751D01*
X81431782Y-95533058D01*
X81431780Y-95533057D01*
X81431774Y-95533052D01*
X81238726Y-95421595D01*
X81238722Y-95421593D01*
X81101034Y-95364561D01*
X81046631Y-95320720D01*
X81024566Y-95254426D01*
X81041845Y-95186727D01*
X81092982Y-95139116D01*
X81101034Y-95135439D01*
X81157620Y-95112000D01*
X81238726Y-95078405D01*
X81431774Y-94966948D01*
X81608624Y-94831247D01*
X81766247Y-94673624D01*
X81901948Y-94496774D01*
X82013405Y-94303726D01*
X82098710Y-94097781D01*
X82156404Y-93882463D01*
X82185500Y-93661457D01*
X82185500Y-93438549D01*
X87314500Y-93438549D01*
X87314500Y-93661450D01*
X87314501Y-93661466D01*
X87343594Y-93882452D01*
X87343595Y-93882457D01*
X87343596Y-93882463D01*
X87401290Y-94097780D01*
X87401293Y-94097790D01*
X87438113Y-94186680D01*
X87486595Y-94303726D01*
X87598052Y-94496774D01*
X87598057Y-94496780D01*
X87598058Y-94496782D01*
X87733751Y-94673622D01*
X87733757Y-94673629D01*
X87891370Y-94831242D01*
X87891376Y-94831247D01*
X88068226Y-94966948D01*
X88261274Y-95078405D01*
X88280950Y-95086555D01*
X88398965Y-95135439D01*
X88453368Y-95179280D01*
X88475433Y-95245574D01*
X88458154Y-95313274D01*
X88407016Y-95360884D01*
X88398965Y-95364561D01*
X88261277Y-95421593D01*
X88261273Y-95421595D01*
X88068226Y-95533052D01*
X88068217Y-95533058D01*
X87891377Y-95668751D01*
X87891370Y-95668757D01*
X87733757Y-95826370D01*
X87733751Y-95826377D01*
X87598058Y-96003217D01*
X87598052Y-96003226D01*
X87486595Y-96196273D01*
X87486593Y-96196277D01*
X87401293Y-96402209D01*
X87401290Y-96402219D01*
X87370617Y-96516695D01*
X87343597Y-96617534D01*
X87343594Y-96617547D01*
X87314501Y-96838533D01*
X87314500Y-96838549D01*
X87314500Y-97061450D01*
X87314501Y-97061466D01*
X87343594Y-97282452D01*
X87343595Y-97282457D01*
X87343596Y-97282463D01*
X87375330Y-97400897D01*
X87401290Y-97497780D01*
X87401293Y-97497790D01*
X87473492Y-97672093D01*
X87486595Y-97703726D01*
X87598052Y-97896774D01*
X87598057Y-97896780D01*
X87598058Y-97896782D01*
X87733751Y-98073622D01*
X87733757Y-98073629D01*
X87891370Y-98231242D01*
X87891377Y-98231248D01*
X87912578Y-98247516D01*
X88068226Y-98366948D01*
X88261274Y-98478405D01*
X88467219Y-98563710D01*
X88682537Y-98621404D01*
X88903543Y-98650500D01*
X88903550Y-98650500D01*
X89126450Y-98650500D01*
X89126457Y-98650500D01*
X89347463Y-98621404D01*
X89562781Y-98563710D01*
X89768726Y-98478405D01*
X89961774Y-98366948D01*
X90138624Y-98231247D01*
X90296247Y-98073624D01*
X90431948Y-97896774D01*
X90543405Y-97703726D01*
X90628710Y-97497781D01*
X90686404Y-97282463D01*
X90715500Y-97061457D01*
X90715500Y-96838543D01*
X90686404Y-96617537D01*
X90628710Y-96402219D01*
X90543405Y-96196274D01*
X90431948Y-96003226D01*
X90296247Y-95826376D01*
X90296242Y-95826370D01*
X90138629Y-95668757D01*
X90138622Y-95668751D01*
X89961782Y-95533058D01*
X89961780Y-95533057D01*
X89961774Y-95533052D01*
X89768726Y-95421595D01*
X89768722Y-95421593D01*
X89631034Y-95364561D01*
X89576631Y-95320720D01*
X89554566Y-95254426D01*
X89571845Y-95186727D01*
X89622982Y-95139116D01*
X89631034Y-95135439D01*
X89687620Y-95112000D01*
X89768726Y-95078405D01*
X89961774Y-94966948D01*
X90138624Y-94831247D01*
X90296247Y-94673624D01*
X90431948Y-94496774D01*
X90543405Y-94303726D01*
X90628710Y-94097781D01*
X90686404Y-93882463D01*
X90715500Y-93661457D01*
X90715500Y-93438549D01*
X100784500Y-93438549D01*
X100784500Y-93661450D01*
X100784501Y-93661466D01*
X100813594Y-93882452D01*
X100813595Y-93882457D01*
X100813596Y-93882463D01*
X100871290Y-94097780D01*
X100871293Y-94097790D01*
X100908113Y-94186680D01*
X100956595Y-94303726D01*
X101068052Y-94496774D01*
X101068057Y-94496780D01*
X101068058Y-94496782D01*
X101203751Y-94673622D01*
X101203757Y-94673629D01*
X101361370Y-94831242D01*
X101361376Y-94831247D01*
X101538226Y-94966948D01*
X101731274Y-95078405D01*
X101750950Y-95086555D01*
X101868965Y-95135439D01*
X101923368Y-95179280D01*
X101945433Y-95245574D01*
X101928154Y-95313274D01*
X101877016Y-95360884D01*
X101868965Y-95364561D01*
X101731277Y-95421593D01*
X101731273Y-95421595D01*
X101538226Y-95533052D01*
X101538217Y-95533058D01*
X101361377Y-95668751D01*
X101361370Y-95668757D01*
X101203757Y-95826370D01*
X101203751Y-95826377D01*
X101068058Y-96003217D01*
X101068052Y-96003226D01*
X100956595Y-96196273D01*
X100956593Y-96196277D01*
X100871293Y-96402209D01*
X100871290Y-96402219D01*
X100840617Y-96516695D01*
X100813597Y-96617534D01*
X100813594Y-96617547D01*
X100784501Y-96838533D01*
X100784500Y-96838549D01*
X100784500Y-97061450D01*
X100784501Y-97061466D01*
X100813594Y-97282452D01*
X100813595Y-97282457D01*
X100813596Y-97282463D01*
X100845330Y-97400897D01*
X100871290Y-97497780D01*
X100871293Y-97497790D01*
X100943492Y-97672093D01*
X100956595Y-97703726D01*
X101068052Y-97896774D01*
X101068057Y-97896780D01*
X101068058Y-97896782D01*
X101203751Y-98073622D01*
X101203757Y-98073629D01*
X101361370Y-98231242D01*
X101361377Y-98231248D01*
X101382578Y-98247516D01*
X101538226Y-98366948D01*
X101731274Y-98478405D01*
X101937219Y-98563710D01*
X102152537Y-98621404D01*
X102373543Y-98650500D01*
X102373550Y-98650500D01*
X102596450Y-98650500D01*
X102596457Y-98650500D01*
X102817463Y-98621404D01*
X103032781Y-98563710D01*
X103238726Y-98478405D01*
X103431774Y-98366948D01*
X103608624Y-98231247D01*
X103766247Y-98073624D01*
X103901948Y-97896774D01*
X104013405Y-97703726D01*
X104098710Y-97497781D01*
X104156404Y-97282463D01*
X104185500Y-97061457D01*
X104185500Y-96876260D01*
X108962000Y-96876260D01*
X108962000Y-97123739D01*
X108962001Y-97123756D01*
X108994303Y-97369117D01*
X109058361Y-97608184D01*
X109153069Y-97836829D01*
X109153074Y-97836840D01*
X109276812Y-98051159D01*
X109276823Y-98051175D01*
X109427479Y-98247514D01*
X109427485Y-98247521D01*
X109602478Y-98422514D01*
X109602485Y-98422520D01*
X109696921Y-98494983D01*
X109798833Y-98573183D01*
X109798840Y-98573187D01*
X110013159Y-98696925D01*
X110013164Y-98696927D01*
X110013167Y-98696929D01*
X110241820Y-98791640D01*
X110480879Y-98855696D01*
X110726254Y-98888000D01*
X110726261Y-98888000D01*
X110973739Y-98888000D01*
X110973746Y-98888000D01*
X111219121Y-98855696D01*
X111458180Y-98791640D01*
X111686833Y-98696929D01*
X111901167Y-98573183D01*
X112097516Y-98422519D01*
X112272519Y-98247516D01*
X112423183Y-98051167D01*
X112546929Y-97836833D01*
X112641640Y-97608180D01*
X112705696Y-97369121D01*
X112738000Y-97123746D01*
X112738000Y-96876260D01*
X113662000Y-96876260D01*
X113662000Y-97123739D01*
X113662001Y-97123756D01*
X113694303Y-97369117D01*
X113758361Y-97608184D01*
X113853069Y-97836829D01*
X113853074Y-97836840D01*
X113976812Y-98051159D01*
X113976823Y-98051175D01*
X114127479Y-98247514D01*
X114127485Y-98247521D01*
X114302478Y-98422514D01*
X114302485Y-98422520D01*
X114396921Y-98494983D01*
X114498833Y-98573183D01*
X114498840Y-98573187D01*
X114713159Y-98696925D01*
X114713164Y-98696927D01*
X114713167Y-98696929D01*
X114941820Y-98791640D01*
X115180879Y-98855696D01*
X115426254Y-98888000D01*
X115426261Y-98888000D01*
X115673739Y-98888000D01*
X115673746Y-98888000D01*
X115919121Y-98855696D01*
X116158180Y-98791640D01*
X116386833Y-98696929D01*
X116601167Y-98573183D01*
X116797516Y-98422519D01*
X116972519Y-98247516D01*
X117123183Y-98051167D01*
X117246929Y-97836833D01*
X117341640Y-97608180D01*
X117405696Y-97369121D01*
X117438000Y-97123746D01*
X117438000Y-96876254D01*
X117405696Y-96630879D01*
X117341640Y-96391820D01*
X117246929Y-96163167D01*
X117246927Y-96163164D01*
X117246925Y-96163159D01*
X117123187Y-95948840D01*
X117123183Y-95948833D01*
X117029214Y-95826370D01*
X116972520Y-95752485D01*
X116972514Y-95752478D01*
X116797521Y-95577485D01*
X116797514Y-95577479D01*
X116780775Y-95564635D01*
X118362000Y-95564635D01*
X118362000Y-98435370D01*
X118362001Y-98435376D01*
X118368408Y-98494983D01*
X118418702Y-98629828D01*
X118418706Y-98629835D01*
X118504952Y-98745044D01*
X118504955Y-98745047D01*
X118620164Y-98831293D01*
X118620171Y-98831297D01*
X118755017Y-98881591D01*
X118755016Y-98881591D01*
X118761944Y-98882335D01*
X118814627Y-98888000D01*
X121685372Y-98887999D01*
X121744983Y-98881591D01*
X121879831Y-98831296D01*
X121995046Y-98745046D01*
X122081296Y-98629831D01*
X122131591Y-98494983D01*
X122138000Y-98435373D01*
X122137999Y-95564628D01*
X122131591Y-95505017D01*
X122112974Y-95455103D01*
X122081297Y-95370171D01*
X122081293Y-95370164D01*
X121995047Y-95254955D01*
X121995044Y-95254952D01*
X121879835Y-95168706D01*
X121879828Y-95168702D01*
X121744982Y-95118408D01*
X121744983Y-95118408D01*
X121685383Y-95112001D01*
X121685381Y-95112000D01*
X121685373Y-95112000D01*
X121685364Y-95112000D01*
X118814629Y-95112000D01*
X118814623Y-95112001D01*
X118755016Y-95118408D01*
X118620171Y-95168702D01*
X118620164Y-95168706D01*
X118504955Y-95254952D01*
X118504952Y-95254955D01*
X118418706Y-95370164D01*
X118418702Y-95370171D01*
X118368408Y-95505017D01*
X118365394Y-95533058D01*
X118362001Y-95564623D01*
X118362000Y-95564635D01*
X116780775Y-95564635D01*
X116601175Y-95426823D01*
X116601173Y-95426821D01*
X116601167Y-95426817D01*
X116601162Y-95426814D01*
X116601159Y-95426812D01*
X116386840Y-95303074D01*
X116386829Y-95303069D01*
X116158184Y-95208361D01*
X115919117Y-95144303D01*
X115673756Y-95112001D01*
X115673751Y-95112000D01*
X115673746Y-95112000D01*
X115426254Y-95112000D01*
X115426248Y-95112000D01*
X115426243Y-95112001D01*
X115180882Y-95144303D01*
X114941815Y-95208361D01*
X114713170Y-95303069D01*
X114713159Y-95303074D01*
X114498840Y-95426812D01*
X114498824Y-95426823D01*
X114302485Y-95577479D01*
X114302478Y-95577485D01*
X114127485Y-95752478D01*
X114127479Y-95752485D01*
X113976823Y-95948824D01*
X113976812Y-95948840D01*
X113853074Y-96163159D01*
X113853069Y-96163170D01*
X113758361Y-96391815D01*
X113694303Y-96630882D01*
X113662001Y-96876243D01*
X113662000Y-96876260D01*
X112738000Y-96876260D01*
X112738000Y-96876254D01*
X112705696Y-96630879D01*
X112641640Y-96391820D01*
X112546929Y-96163167D01*
X112546927Y-96163164D01*
X112546925Y-96163159D01*
X112423187Y-95948840D01*
X112423183Y-95948833D01*
X112329214Y-95826370D01*
X112272520Y-95752485D01*
X112272514Y-95752478D01*
X112097521Y-95577485D01*
X112097514Y-95577479D01*
X111901175Y-95426823D01*
X111901173Y-95426821D01*
X111901167Y-95426817D01*
X111901162Y-95426814D01*
X111901159Y-95426812D01*
X111686840Y-95303074D01*
X111686829Y-95303069D01*
X111458184Y-95208361D01*
X111219117Y-95144303D01*
X110973756Y-95112001D01*
X110973751Y-95112000D01*
X110973746Y-95112000D01*
X110726254Y-95112000D01*
X110726248Y-95112000D01*
X110726243Y-95112001D01*
X110480882Y-95144303D01*
X110241815Y-95208361D01*
X110013170Y-95303069D01*
X110013159Y-95303074D01*
X109798840Y-95426812D01*
X109798824Y-95426823D01*
X109602485Y-95577479D01*
X109602478Y-95577485D01*
X109427485Y-95752478D01*
X109427479Y-95752485D01*
X109276823Y-95948824D01*
X109276812Y-95948840D01*
X109153074Y-96163159D01*
X109153069Y-96163170D01*
X109058361Y-96391815D01*
X108994303Y-96630882D01*
X108962001Y-96876243D01*
X108962000Y-96876260D01*
X104185500Y-96876260D01*
X104185500Y-96838543D01*
X104156404Y-96617537D01*
X104098710Y-96402219D01*
X104013405Y-96196274D01*
X103901948Y-96003226D01*
X103766247Y-95826376D01*
X103766242Y-95826370D01*
X103608629Y-95668757D01*
X103608622Y-95668751D01*
X103431782Y-95533058D01*
X103431780Y-95533057D01*
X103431774Y-95533052D01*
X103238726Y-95421595D01*
X103238722Y-95421593D01*
X103101034Y-95364561D01*
X103046631Y-95320720D01*
X103024566Y-95254426D01*
X103041845Y-95186727D01*
X103092982Y-95139116D01*
X103101034Y-95135439D01*
X103157620Y-95112000D01*
X103238726Y-95078405D01*
X103431774Y-94966948D01*
X103608624Y-94831247D01*
X103766247Y-94673624D01*
X103901948Y-94496774D01*
X104013405Y-94303726D01*
X104098710Y-94097781D01*
X104156404Y-93882463D01*
X104168891Y-93787616D01*
X126469500Y-93787616D01*
X126469500Y-93988383D01*
X126500907Y-94186680D01*
X126562949Y-94377626D01*
X126623658Y-94496773D01*
X126654095Y-94556508D01*
X126772103Y-94718932D01*
X126914068Y-94860897D01*
X127076492Y-94978905D01*
X127156285Y-95019561D01*
X127211146Y-95047515D01*
X127261942Y-95095490D01*
X127278737Y-95163311D01*
X127256199Y-95229446D01*
X127211146Y-95268485D01*
X127076491Y-95337095D01*
X126983822Y-95404423D01*
X126914068Y-95455103D01*
X126914066Y-95455105D01*
X126914065Y-95455105D01*
X126772105Y-95597065D01*
X126772105Y-95597066D01*
X126772103Y-95597068D01*
X126748189Y-95629983D01*
X126654095Y-95759491D01*
X126562949Y-95938373D01*
X126500907Y-96129319D01*
X126490302Y-96196277D01*
X126469500Y-96327616D01*
X126469500Y-96528384D01*
X126483622Y-96617547D01*
X126500907Y-96726680D01*
X126562949Y-96917626D01*
X126636240Y-97061466D01*
X126654095Y-97096508D01*
X126772103Y-97258932D01*
X126914068Y-97400897D01*
X127076492Y-97518905D01*
X127156285Y-97559561D01*
X127211146Y-97587515D01*
X127261942Y-97635490D01*
X127278737Y-97703311D01*
X127256199Y-97769446D01*
X127211146Y-97808485D01*
X127076491Y-97877095D01*
X126983822Y-97944423D01*
X126914068Y-97995103D01*
X126914066Y-97995105D01*
X126914065Y-97995105D01*
X126772105Y-98137065D01*
X126772105Y-98137066D01*
X126772103Y-98137068D01*
X126721423Y-98206822D01*
X126654095Y-98299491D01*
X126562949Y-98478373D01*
X126500907Y-98669319D01*
X126469500Y-98867616D01*
X126469500Y-99068383D01*
X126500907Y-99266680D01*
X126562949Y-99457626D01*
X126646102Y-99620821D01*
X126654095Y-99636508D01*
X126772103Y-99798932D01*
X126914068Y-99940897D01*
X127076492Y-100058905D01*
X127161007Y-100101967D01*
X127255373Y-100150050D01*
X127255375Y-100150050D01*
X127255378Y-100150052D01*
X127446320Y-100212093D01*
X127644616Y-100243500D01*
X127644617Y-100243500D01*
X127845383Y-100243500D01*
X127845384Y-100243500D01*
X128043680Y-100212093D01*
X128234622Y-100150052D01*
X128413508Y-100058905D01*
X128575932Y-99940897D01*
X128717897Y-99798932D01*
X128835905Y-99636508D01*
X128927052Y-99457622D01*
X128989093Y-99266680D01*
X129020500Y-99068384D01*
X129020500Y-98867616D01*
X128989093Y-98669320D01*
X128927052Y-98478378D01*
X128927050Y-98478375D01*
X128927050Y-98478373D01*
X128876504Y-98379172D01*
X128835905Y-98299492D01*
X128717897Y-98137068D01*
X128575932Y-97995103D01*
X128413508Y-97877095D01*
X128278852Y-97808484D01*
X128228057Y-97760510D01*
X128211262Y-97692689D01*
X128233799Y-97626555D01*
X128278853Y-97587515D01*
X128413508Y-97518905D01*
X128575932Y-97400897D01*
X128717897Y-97258932D01*
X128835905Y-97096508D01*
X128927052Y-96917622D01*
X128927052Y-96917621D01*
X128927085Y-96917557D01*
X128975060Y-96866761D01*
X129042881Y-96849966D01*
X129109015Y-96872503D01*
X129140672Y-96904961D01*
X129205535Y-97002034D01*
X129205538Y-97002038D01*
X129330961Y-97127461D01*
X129330965Y-97127464D01*
X129478446Y-97226009D01*
X129478459Y-97226016D01*
X129557932Y-97258934D01*
X129642334Y-97293894D01*
X129642336Y-97293894D01*
X129642341Y-97293896D01*
X129816304Y-97328499D01*
X129816307Y-97328500D01*
X129816309Y-97328500D01*
X129993693Y-97328500D01*
X129993694Y-97328499D01*
X130051682Y-97316964D01*
X130167658Y-97293896D01*
X130167661Y-97293894D01*
X130167666Y-97293894D01*
X130321284Y-97230264D01*
X130331540Y-97226016D01*
X130331540Y-97226015D01*
X130331547Y-97226013D01*
X130479035Y-97127464D01*
X130604464Y-97002035D01*
X130703013Y-96854547D01*
X130704911Y-96849966D01*
X130712958Y-96830535D01*
X130770894Y-96690666D01*
X130782787Y-96630879D01*
X130805499Y-96516695D01*
X130805500Y-96516693D01*
X130805500Y-96339306D01*
X130805499Y-96339304D01*
X130770896Y-96165341D01*
X130770893Y-96165332D01*
X130769997Y-96163170D01*
X130704296Y-96004550D01*
X130703016Y-96001459D01*
X130703009Y-96001446D01*
X130604464Y-95853965D01*
X130604461Y-95853961D01*
X130479038Y-95728538D01*
X130479034Y-95728535D01*
X130331553Y-95629990D01*
X130331540Y-95629983D01*
X130167667Y-95562106D01*
X130167658Y-95562103D01*
X129993694Y-95527500D01*
X129993691Y-95527500D01*
X129816309Y-95527500D01*
X129816306Y-95527500D01*
X129642341Y-95562103D01*
X129642332Y-95562106D01*
X129478459Y-95629983D01*
X129478446Y-95629990D01*
X129330965Y-95728535D01*
X129330961Y-95728538D01*
X129205538Y-95853961D01*
X129205533Y-95853967D01*
X129140671Y-95951039D01*
X129087059Y-95995843D01*
X129017734Y-96004550D01*
X128954707Y-95974395D01*
X128927085Y-95938442D01*
X128884039Y-95853961D01*
X128835905Y-95759492D01*
X128717897Y-95597068D01*
X128575932Y-95455103D01*
X128413508Y-95337095D01*
X128278852Y-95268484D01*
X128228057Y-95220510D01*
X128211262Y-95152689D01*
X128233799Y-95086555D01*
X128278853Y-95047515D01*
X128413508Y-94978905D01*
X128575932Y-94860897D01*
X128717897Y-94718932D01*
X128835905Y-94556508D01*
X128927052Y-94377622D01*
X128989093Y-94186680D01*
X129020500Y-93988384D01*
X129020500Y-93787616D01*
X128989093Y-93589320D01*
X128927052Y-93398378D01*
X128927050Y-93398375D01*
X128927050Y-93398373D01*
X128835904Y-93219491D01*
X128834492Y-93217547D01*
X128717897Y-93057068D01*
X128575932Y-92915103D01*
X128468869Y-92837317D01*
X128426205Y-92781988D01*
X128420226Y-92712374D01*
X128452832Y-92650579D01*
X128513671Y-92616222D01*
X128541756Y-92613000D01*
X128557828Y-92613000D01*
X128557844Y-92612999D01*
X128617372Y-92606598D01*
X128617379Y-92606596D01*
X128752086Y-92556354D01*
X128752093Y-92556350D01*
X128867187Y-92470190D01*
X128867190Y-92470187D01*
X128953350Y-92355093D01*
X128953354Y-92355086D01*
X129003596Y-92220379D01*
X129003598Y-92220372D01*
X129009999Y-92160844D01*
X129010000Y-92160827D01*
X129010000Y-91598000D01*
X128189560Y-91598000D01*
X128220245Y-91544853D01*
X128255000Y-91415143D01*
X128255000Y-91280857D01*
X128220245Y-91151147D01*
X128189560Y-91098000D01*
X129010000Y-91098000D01*
X129010000Y-90535172D01*
X129009999Y-90535155D01*
X129003598Y-90475627D01*
X129003596Y-90475620D01*
X128953354Y-90340913D01*
X128953350Y-90340906D01*
X128867190Y-90225812D01*
X128867187Y-90225809D01*
X128752093Y-90139649D01*
X128752086Y-90139645D01*
X128617379Y-90089403D01*
X128617372Y-90089401D01*
X128557844Y-90083000D01*
X127995000Y-90083000D01*
X127995000Y-90903439D01*
X127941853Y-90872755D01*
X127812143Y-90838000D01*
X127677857Y-90838000D01*
X127548147Y-90872755D01*
X127495000Y-90903439D01*
X127495000Y-90083000D01*
X126932155Y-90083000D01*
X126872627Y-90089401D01*
X126872620Y-90089403D01*
X126737913Y-90139645D01*
X126737906Y-90139649D01*
X126622812Y-90225809D01*
X126622809Y-90225812D01*
X126536649Y-90340906D01*
X126536645Y-90340913D01*
X126486403Y-90475620D01*
X126486401Y-90475627D01*
X126480000Y-90535155D01*
X126480000Y-91098000D01*
X127300440Y-91098000D01*
X127269755Y-91151147D01*
X127235000Y-91280857D01*
X127235000Y-91415143D01*
X127269755Y-91544853D01*
X127300440Y-91598000D01*
X126480000Y-91598000D01*
X126480000Y-92160844D01*
X126486401Y-92220372D01*
X126486403Y-92220379D01*
X126536645Y-92355086D01*
X126536649Y-92355093D01*
X126622809Y-92470187D01*
X126622812Y-92470190D01*
X126737906Y-92556350D01*
X126737913Y-92556354D01*
X126872620Y-92606596D01*
X126872627Y-92606598D01*
X126932155Y-92612999D01*
X126932172Y-92613000D01*
X126948244Y-92613000D01*
X127015283Y-92632685D01*
X127061038Y-92685489D01*
X127070982Y-92754647D01*
X127041957Y-92818203D01*
X127021130Y-92837317D01*
X126914068Y-92915103D01*
X126914066Y-92915105D01*
X126914065Y-92915105D01*
X126772105Y-93057065D01*
X126772105Y-93057066D01*
X126772103Y-93057068D01*
X126721423Y-93126822D01*
X126654095Y-93219491D01*
X126562949Y-93398373D01*
X126500907Y-93589319D01*
X126469500Y-93787616D01*
X104168891Y-93787616D01*
X104185500Y-93661457D01*
X104185500Y-93438543D01*
X104156404Y-93217537D01*
X104098710Y-93002219D01*
X104013405Y-92796274D01*
X103901948Y-92603226D01*
X103862867Y-92552294D01*
X103766248Y-92426377D01*
X103766242Y-92426370D01*
X103608629Y-92268757D01*
X103608622Y-92268751D01*
X103431782Y-92133058D01*
X103431780Y-92133057D01*
X103431774Y-92133052D01*
X103238726Y-92021595D01*
X103238722Y-92021593D01*
X103032790Y-91936293D01*
X103032783Y-91936291D01*
X103032781Y-91936290D01*
X102817463Y-91878596D01*
X102817457Y-91878595D01*
X102817452Y-91878594D01*
X102596466Y-91849501D01*
X102596463Y-91849500D01*
X102596457Y-91849500D01*
X102373543Y-91849500D01*
X102373537Y-91849500D01*
X102373533Y-91849501D01*
X102152547Y-91878594D01*
X102152540Y-91878595D01*
X102152537Y-91878596D01*
X102037612Y-91909390D01*
X101937219Y-91936290D01*
X101937209Y-91936293D01*
X101731277Y-92021593D01*
X101731273Y-92021595D01*
X101538226Y-92133052D01*
X101538217Y-92133058D01*
X101361377Y-92268751D01*
X101361370Y-92268757D01*
X101203757Y-92426370D01*
X101203751Y-92426377D01*
X101068058Y-92603217D01*
X101068052Y-92603226D01*
X100956595Y-92796273D01*
X100956593Y-92796277D01*
X100871293Y-93002209D01*
X100871290Y-93002219D01*
X100813597Y-93217534D01*
X100813594Y-93217547D01*
X100784501Y-93438533D01*
X100784500Y-93438549D01*
X90715500Y-93438549D01*
X90715500Y-93438543D01*
X90686404Y-93217537D01*
X90628710Y-93002219D01*
X90543405Y-92796274D01*
X90431948Y-92603226D01*
X90392867Y-92552294D01*
X90296248Y-92426377D01*
X90296242Y-92426370D01*
X90138629Y-92268757D01*
X90138622Y-92268751D01*
X89961782Y-92133058D01*
X89961780Y-92133057D01*
X89961774Y-92133052D01*
X89768726Y-92021595D01*
X89768722Y-92021593D01*
X89562790Y-91936293D01*
X89562783Y-91936291D01*
X89562781Y-91936290D01*
X89347463Y-91878596D01*
X89347457Y-91878595D01*
X89347452Y-91878594D01*
X89126466Y-91849501D01*
X89126463Y-91849500D01*
X89126457Y-91849500D01*
X88903543Y-91849500D01*
X88903537Y-91849500D01*
X88903533Y-91849501D01*
X88682547Y-91878594D01*
X88682540Y-91878595D01*
X88682537Y-91878596D01*
X88567612Y-91909390D01*
X88467219Y-91936290D01*
X88467209Y-91936293D01*
X88261277Y-92021593D01*
X88261273Y-92021595D01*
X88068226Y-92133052D01*
X88068217Y-92133058D01*
X87891377Y-92268751D01*
X87891370Y-92268757D01*
X87733757Y-92426370D01*
X87733751Y-92426377D01*
X87598058Y-92603217D01*
X87598052Y-92603226D01*
X87486595Y-92796273D01*
X87486593Y-92796277D01*
X87401293Y-93002209D01*
X87401290Y-93002219D01*
X87343597Y-93217534D01*
X87343594Y-93217547D01*
X87314501Y-93438533D01*
X87314500Y-93438549D01*
X82185500Y-93438549D01*
X82185500Y-93438543D01*
X82156404Y-93217537D01*
X82098710Y-93002219D01*
X82013405Y-92796274D01*
X81901948Y-92603226D01*
X81862867Y-92552294D01*
X81766248Y-92426377D01*
X81766242Y-92426370D01*
X81608629Y-92268757D01*
X81608622Y-92268751D01*
X81431782Y-92133058D01*
X81431780Y-92133057D01*
X81431774Y-92133052D01*
X81238726Y-92021595D01*
X81238722Y-92021593D01*
X81032790Y-91936293D01*
X81032783Y-91936291D01*
X81032781Y-91936290D01*
X80817463Y-91878596D01*
X80817457Y-91878595D01*
X80817452Y-91878594D01*
X80596466Y-91849501D01*
X80596463Y-91849500D01*
X80596457Y-91849500D01*
X80373543Y-91849500D01*
X80373537Y-91849500D01*
X80373533Y-91849501D01*
X80152547Y-91878594D01*
X80152540Y-91878595D01*
X80152537Y-91878596D01*
X80037612Y-91909390D01*
X79937219Y-91936290D01*
X79937209Y-91936293D01*
X79731277Y-92021593D01*
X79731273Y-92021595D01*
X79538226Y-92133052D01*
X79538217Y-92133058D01*
X79361377Y-92268751D01*
X79361370Y-92268757D01*
X79203757Y-92426370D01*
X79203751Y-92426377D01*
X79068058Y-92603217D01*
X79068052Y-92603226D01*
X78956595Y-92796273D01*
X78956593Y-92796277D01*
X78871293Y-93002209D01*
X78871290Y-93002219D01*
X78813597Y-93217534D01*
X78813594Y-93217547D01*
X78784501Y-93438533D01*
X78784500Y-93438549D01*
X68715500Y-93438549D01*
X68715500Y-93438543D01*
X68686404Y-93217537D01*
X68628710Y-93002219D01*
X68543405Y-92796274D01*
X68431948Y-92603226D01*
X68392867Y-92552294D01*
X68296248Y-92426377D01*
X68296242Y-92426370D01*
X68138629Y-92268757D01*
X68138622Y-92268751D01*
X67961782Y-92133058D01*
X67961780Y-92133057D01*
X67961774Y-92133052D01*
X67768726Y-92021595D01*
X67768722Y-92021593D01*
X67562790Y-91936293D01*
X67562783Y-91936291D01*
X67562781Y-91936290D01*
X67347463Y-91878596D01*
X67347457Y-91878595D01*
X67347452Y-91878594D01*
X67126466Y-91849501D01*
X67126463Y-91849500D01*
X67126457Y-91849500D01*
X66903543Y-91849500D01*
X66903537Y-91849500D01*
X66903533Y-91849501D01*
X66682547Y-91878594D01*
X66682540Y-91878595D01*
X66682537Y-91878596D01*
X66567612Y-91909390D01*
X66467219Y-91936290D01*
X66467209Y-91936293D01*
X66261277Y-92021593D01*
X66261273Y-92021595D01*
X66068226Y-92133052D01*
X66068217Y-92133058D01*
X65891377Y-92268751D01*
X65891370Y-92268757D01*
X65733757Y-92426370D01*
X65733751Y-92426377D01*
X65598058Y-92603217D01*
X65598052Y-92603226D01*
X65486595Y-92796273D01*
X65486593Y-92796277D01*
X65401293Y-93002209D01*
X65401290Y-93002219D01*
X65343597Y-93217534D01*
X65343594Y-93217547D01*
X65314501Y-93438533D01*
X65314500Y-93438549D01*
X44250500Y-93438549D01*
X44250500Y-91121153D01*
X55199500Y-91121153D01*
X55199500Y-91278846D01*
X55230261Y-91433489D01*
X55230264Y-91433501D01*
X55290602Y-91579172D01*
X55290609Y-91579185D01*
X55378210Y-91710288D01*
X55378213Y-91710292D01*
X55489707Y-91821786D01*
X55489711Y-91821789D01*
X55620814Y-91909390D01*
X55620827Y-91909397D01*
X55685761Y-91936293D01*
X55766503Y-91969737D01*
X55921153Y-92000499D01*
X55921156Y-92000500D01*
X55921158Y-92000500D01*
X56078844Y-92000500D01*
X56078845Y-92000499D01*
X56233497Y-91969737D01*
X56379179Y-91909394D01*
X56510289Y-91821789D01*
X56621789Y-91710289D01*
X56709394Y-91579179D01*
X56769737Y-91433497D01*
X56800500Y-91278842D01*
X56800500Y-91121158D01*
X56800500Y-91121155D01*
X56800499Y-91121153D01*
X56769737Y-90966503D01*
X56716510Y-90838000D01*
X56709397Y-90820827D01*
X56709390Y-90820814D01*
X56621789Y-90689711D01*
X56621786Y-90689707D01*
X56510292Y-90578213D01*
X56510288Y-90578210D01*
X56379185Y-90490609D01*
X56379172Y-90490602D01*
X56233501Y-90430264D01*
X56233489Y-90430261D01*
X56078845Y-90399500D01*
X56078842Y-90399500D01*
X55921158Y-90399500D01*
X55921155Y-90399500D01*
X55766510Y-90430261D01*
X55766498Y-90430264D01*
X55620827Y-90490602D01*
X55620814Y-90490609D01*
X55489711Y-90578210D01*
X55489707Y-90578213D01*
X55378213Y-90689707D01*
X55378210Y-90689711D01*
X55290609Y-90820814D01*
X55290602Y-90820827D01*
X55230264Y-90966498D01*
X55230261Y-90966510D01*
X55199500Y-91121153D01*
X44250500Y-91121153D01*
X44250500Y-83064635D01*
X50112000Y-83064635D01*
X50112000Y-85935370D01*
X50112001Y-85935376D01*
X50118408Y-85994983D01*
X50168702Y-86129828D01*
X50168706Y-86129835D01*
X50254952Y-86245044D01*
X50254955Y-86245047D01*
X50370164Y-86331293D01*
X50370171Y-86331297D01*
X50505017Y-86381591D01*
X50505016Y-86381591D01*
X50511944Y-86382335D01*
X50564627Y-86388000D01*
X53435372Y-86387999D01*
X53494983Y-86381591D01*
X53629831Y-86331296D01*
X53745046Y-86245046D01*
X53831296Y-86129831D01*
X53881591Y-85994983D01*
X53888000Y-85935373D01*
X53887999Y-84376260D01*
X54812000Y-84376260D01*
X54812000Y-84623739D01*
X54812001Y-84623756D01*
X54844303Y-84869117D01*
X54908361Y-85108184D01*
X55003069Y-85336829D01*
X55003074Y-85336840D01*
X55126812Y-85551159D01*
X55126823Y-85551175D01*
X55277479Y-85747514D01*
X55277485Y-85747521D01*
X55452478Y-85922514D01*
X55452485Y-85922520D01*
X55546921Y-85994983D01*
X55648833Y-86073183D01*
X55648840Y-86073187D01*
X55863159Y-86196925D01*
X55863164Y-86196927D01*
X55863167Y-86196929D01*
X56091820Y-86291640D01*
X56330879Y-86355696D01*
X56576254Y-86388000D01*
X56576261Y-86388000D01*
X56823739Y-86388000D01*
X56823746Y-86388000D01*
X57069121Y-86355696D01*
X57308180Y-86291640D01*
X57536833Y-86196929D01*
X57751167Y-86073183D01*
X57947516Y-85922519D01*
X58122519Y-85747516D01*
X58273183Y-85551167D01*
X58396929Y-85336833D01*
X58491640Y-85108180D01*
X58555696Y-84869121D01*
X58588000Y-84623746D01*
X58588000Y-84376260D01*
X59512000Y-84376260D01*
X59512000Y-84623739D01*
X59512001Y-84623756D01*
X59544303Y-84869117D01*
X59608361Y-85108184D01*
X59703069Y-85336829D01*
X59703074Y-85336840D01*
X59826812Y-85551159D01*
X59826823Y-85551175D01*
X59977479Y-85747514D01*
X59977485Y-85747521D01*
X60152478Y-85922514D01*
X60152485Y-85922520D01*
X60246921Y-85994983D01*
X60348833Y-86073183D01*
X60348840Y-86073187D01*
X60563159Y-86196925D01*
X60563164Y-86196927D01*
X60563167Y-86196929D01*
X60791820Y-86291640D01*
X61030879Y-86355696D01*
X61276254Y-86388000D01*
X61276261Y-86388000D01*
X61523739Y-86388000D01*
X61523746Y-86388000D01*
X61769121Y-86355696D01*
X62008180Y-86291640D01*
X62236833Y-86196929D01*
X62451167Y-86073183D01*
X62647516Y-85922519D01*
X62822519Y-85747516D01*
X62973183Y-85551167D01*
X63096929Y-85336833D01*
X63191640Y-85108180D01*
X63255696Y-84869121D01*
X63288000Y-84623746D01*
X63288000Y-84376254D01*
X63255696Y-84130879D01*
X63191640Y-83891820D01*
X63096929Y-83663167D01*
X63096927Y-83663164D01*
X63096925Y-83663159D01*
X62973187Y-83448840D01*
X62973183Y-83448833D01*
X62859362Y-83300499D01*
X62822520Y-83252485D01*
X62822514Y-83252478D01*
X62647521Y-83077485D01*
X62647514Y-83077479D01*
X62451175Y-82926823D01*
X62451173Y-82926821D01*
X62451167Y-82926817D01*
X62451162Y-82926814D01*
X62451159Y-82926812D01*
X62236840Y-82803074D01*
X62236829Y-82803069D01*
X62008184Y-82708361D01*
X61769117Y-82644303D01*
X61523756Y-82612001D01*
X61523751Y-82612000D01*
X61523746Y-82612000D01*
X61276254Y-82612000D01*
X61276248Y-82612000D01*
X61276243Y-82612001D01*
X61030882Y-82644303D01*
X60791815Y-82708361D01*
X60563170Y-82803069D01*
X60563159Y-82803074D01*
X60348840Y-82926812D01*
X60348824Y-82926823D01*
X60152485Y-83077479D01*
X60152478Y-83077485D01*
X59977485Y-83252478D01*
X59977479Y-83252485D01*
X59826823Y-83448824D01*
X59826812Y-83448840D01*
X59703074Y-83663159D01*
X59703069Y-83663170D01*
X59608361Y-83891815D01*
X59544303Y-84130882D01*
X59512001Y-84376243D01*
X59512000Y-84376260D01*
X58588000Y-84376260D01*
X58588000Y-84376254D01*
X58555696Y-84130879D01*
X58491640Y-83891820D01*
X58396929Y-83663167D01*
X58396927Y-83663164D01*
X58396925Y-83663159D01*
X58273187Y-83448840D01*
X58273183Y-83448833D01*
X58159362Y-83300499D01*
X58122520Y-83252485D01*
X58122514Y-83252478D01*
X57947521Y-83077485D01*
X57947514Y-83077479D01*
X57751175Y-82926823D01*
X57751173Y-82926821D01*
X57751167Y-82926817D01*
X57751162Y-82926814D01*
X57751159Y-82926812D01*
X57536840Y-82803074D01*
X57536829Y-82803069D01*
X57308184Y-82708361D01*
X57069117Y-82644303D01*
X56823756Y-82612001D01*
X56823751Y-82612000D01*
X56823746Y-82612000D01*
X56576254Y-82612000D01*
X56576248Y-82612000D01*
X56576243Y-82612001D01*
X56330882Y-82644303D01*
X56091815Y-82708361D01*
X55863170Y-82803069D01*
X55863159Y-82803074D01*
X55648840Y-82926812D01*
X55648824Y-82926823D01*
X55452485Y-83077479D01*
X55452478Y-83077485D01*
X55277485Y-83252478D01*
X55277479Y-83252485D01*
X55126823Y-83448824D01*
X55126812Y-83448840D01*
X55003074Y-83663159D01*
X55003069Y-83663170D01*
X54908361Y-83891815D01*
X54844303Y-84130882D01*
X54812001Y-84376243D01*
X54812000Y-84376260D01*
X53887999Y-84376260D01*
X53887999Y-83064628D01*
X53881591Y-83005017D01*
X53881154Y-83003846D01*
X53831297Y-82870171D01*
X53831293Y-82870164D01*
X53745047Y-82754955D01*
X53745044Y-82754952D01*
X53629835Y-82668706D01*
X53629828Y-82668702D01*
X53494982Y-82618408D01*
X53494983Y-82618408D01*
X53435383Y-82612001D01*
X53435381Y-82612000D01*
X53435373Y-82612000D01*
X53435364Y-82612000D01*
X50564629Y-82612000D01*
X50564623Y-82612001D01*
X50505016Y-82618408D01*
X50370171Y-82668702D01*
X50370164Y-82668706D01*
X50254955Y-82754952D01*
X50254952Y-82754955D01*
X50168706Y-82870164D01*
X50168702Y-82870171D01*
X50118408Y-83005017D01*
X50112001Y-83064616D01*
X50112001Y-83064623D01*
X50112000Y-83064635D01*
X44250500Y-83064635D01*
X44250500Y-82421153D01*
X65577600Y-82421153D01*
X65577600Y-82578846D01*
X65608361Y-82733489D01*
X65608364Y-82733501D01*
X65668702Y-82879172D01*
X65668709Y-82879185D01*
X65756310Y-83010288D01*
X65756313Y-83010292D01*
X65867807Y-83121786D01*
X65867811Y-83121789D01*
X65998914Y-83209390D01*
X65998927Y-83209397D01*
X66144598Y-83269735D01*
X66144603Y-83269737D01*
X66299253Y-83300499D01*
X66299256Y-83300500D01*
X66299258Y-83300500D01*
X66456944Y-83300500D01*
X66456945Y-83300499D01*
X66611597Y-83269737D01*
X66757279Y-83209394D01*
X66888389Y-83121789D01*
X66999889Y-83010289D01*
X67087494Y-82879179D01*
X67101174Y-82846153D01*
X98874500Y-82846153D01*
X98874500Y-83003846D01*
X98905261Y-83158489D01*
X98905264Y-83158501D01*
X98965602Y-83304172D01*
X98965609Y-83304185D01*
X99053210Y-83435288D01*
X99053213Y-83435292D01*
X99164707Y-83546786D01*
X99164711Y-83546789D01*
X99295814Y-83634390D01*
X99295827Y-83634397D01*
X99441498Y-83694735D01*
X99441503Y-83694737D01*
X99596153Y-83725499D01*
X99596156Y-83725500D01*
X99596158Y-83725500D01*
X99753844Y-83725500D01*
X99753845Y-83725499D01*
X99908497Y-83694737D01*
X100054179Y-83634394D01*
X100185289Y-83546789D01*
X100296789Y-83435289D01*
X100384394Y-83304179D01*
X100444737Y-83158497D01*
X100475500Y-83003842D01*
X100475500Y-82846158D01*
X100475500Y-82846155D01*
X100475499Y-82846153D01*
X100453090Y-82733496D01*
X100444737Y-82691503D01*
X100435294Y-82668706D01*
X100384397Y-82545827D01*
X100384390Y-82545814D01*
X100296789Y-82414711D01*
X100296786Y-82414707D01*
X100185292Y-82303213D01*
X100185288Y-82303210D01*
X100054185Y-82215609D01*
X100054172Y-82215602D01*
X99908501Y-82155264D01*
X99908489Y-82155261D01*
X99753845Y-82124500D01*
X99753842Y-82124500D01*
X99596158Y-82124500D01*
X99596155Y-82124500D01*
X99441510Y-82155261D01*
X99441498Y-82155264D01*
X99295827Y-82215602D01*
X99295814Y-82215609D01*
X99164711Y-82303210D01*
X99164707Y-82303213D01*
X99053213Y-82414707D01*
X99053210Y-82414711D01*
X98965609Y-82545814D01*
X98965602Y-82545827D01*
X98905264Y-82691498D01*
X98905261Y-82691510D01*
X98874500Y-82846153D01*
X67101174Y-82846153D01*
X67123351Y-82792613D01*
X67129382Y-82778050D01*
X67147837Y-82733497D01*
X67178600Y-82578842D01*
X67178600Y-82421158D01*
X67178600Y-82421155D01*
X67178599Y-82421153D01*
X67155139Y-82303213D01*
X67147837Y-82266503D01*
X67126755Y-82215606D01*
X67087497Y-82120827D01*
X67087490Y-82120814D01*
X66999889Y-81989711D01*
X66999886Y-81989707D01*
X66888392Y-81878213D01*
X66888388Y-81878210D01*
X66757285Y-81790609D01*
X66757272Y-81790602D01*
X66611601Y-81730264D01*
X66611589Y-81730261D01*
X66456945Y-81699500D01*
X66456942Y-81699500D01*
X66299258Y-81699500D01*
X66299255Y-81699500D01*
X66144610Y-81730261D01*
X66144598Y-81730264D01*
X65998927Y-81790602D01*
X65998914Y-81790609D01*
X65867811Y-81878210D01*
X65867807Y-81878213D01*
X65756313Y-81989707D01*
X65756310Y-81989711D01*
X65668709Y-82120814D01*
X65668702Y-82120827D01*
X65608364Y-82266498D01*
X65608361Y-82266510D01*
X65577600Y-82421153D01*
X44250500Y-82421153D01*
X44250500Y-77321153D01*
X79599500Y-77321153D01*
X79599500Y-77478846D01*
X79630261Y-77633489D01*
X79630264Y-77633501D01*
X79690602Y-77779172D01*
X79690609Y-77779185D01*
X79778210Y-77910288D01*
X79778213Y-77910292D01*
X79889707Y-78021786D01*
X79889711Y-78021789D01*
X80020814Y-78109390D01*
X80020827Y-78109397D01*
X80166498Y-78169735D01*
X80166503Y-78169737D01*
X80321153Y-78200499D01*
X80321156Y-78200500D01*
X80321158Y-78200500D01*
X80478844Y-78200500D01*
X80478845Y-78200499D01*
X80633497Y-78169737D01*
X80779179Y-78109394D01*
X80910289Y-78021789D01*
X81021789Y-77910289D01*
X81109394Y-77779179D01*
X81169737Y-77633497D01*
X81200500Y-77478842D01*
X81200500Y-77321158D01*
X81200500Y-77321155D01*
X81200499Y-77321153D01*
X81178269Y-77209397D01*
X81169737Y-77166503D01*
X81151215Y-77121786D01*
X81109397Y-77020827D01*
X81109390Y-77020814D01*
X81021789Y-76889711D01*
X81021786Y-76889707D01*
X80910292Y-76778213D01*
X80910288Y-76778210D01*
X80779185Y-76690609D01*
X80779172Y-76690602D01*
X80633501Y-76630264D01*
X80633489Y-76630261D01*
X80478845Y-76599500D01*
X80478842Y-76599500D01*
X80321158Y-76599500D01*
X80321155Y-76599500D01*
X80166510Y-76630261D01*
X80166498Y-76630264D01*
X80020827Y-76690602D01*
X80020814Y-76690609D01*
X79889711Y-76778210D01*
X79889707Y-76778213D01*
X79778213Y-76889707D01*
X79778210Y-76889711D01*
X79690609Y-77020814D01*
X79690602Y-77020827D01*
X79630264Y-77166498D01*
X79630261Y-77166510D01*
X79599500Y-77321153D01*
X44250500Y-77321153D01*
X44250500Y-76421153D01*
X88199500Y-76421153D01*
X88199500Y-76578846D01*
X88230261Y-76733489D01*
X88230264Y-76733501D01*
X88290602Y-76879172D01*
X88290609Y-76879185D01*
X88378210Y-77010288D01*
X88378213Y-77010292D01*
X88489707Y-77121786D01*
X88489711Y-77121789D01*
X88620814Y-77209390D01*
X88620827Y-77209397D01*
X88766498Y-77269735D01*
X88766503Y-77269737D01*
X88921153Y-77300499D01*
X88921156Y-77300500D01*
X88921158Y-77300500D01*
X89078844Y-77300500D01*
X89078845Y-77300499D01*
X89233497Y-77269737D01*
X89379179Y-77209394D01*
X89510289Y-77121789D01*
X89621789Y-77010289D01*
X89709394Y-76879179D01*
X89769737Y-76733497D01*
X89800500Y-76578842D01*
X89800500Y-76421158D01*
X89800500Y-76421155D01*
X89800499Y-76421153D01*
X89769738Y-76266510D01*
X89769737Y-76266503D01*
X89769735Y-76266498D01*
X89709397Y-76120827D01*
X89709390Y-76120814D01*
X89621789Y-75989711D01*
X89621786Y-75989707D01*
X89510292Y-75878213D01*
X89510288Y-75878210D01*
X89379185Y-75790609D01*
X89379172Y-75790602D01*
X89233501Y-75730264D01*
X89233489Y-75730261D01*
X89078845Y-75699500D01*
X89078842Y-75699500D01*
X88921158Y-75699500D01*
X88921155Y-75699500D01*
X88766510Y-75730261D01*
X88766498Y-75730264D01*
X88620827Y-75790602D01*
X88620814Y-75790609D01*
X88489711Y-75878210D01*
X88489707Y-75878213D01*
X88378213Y-75989707D01*
X88378210Y-75989711D01*
X88290609Y-76120814D01*
X88290602Y-76120827D01*
X88230264Y-76266498D01*
X88230261Y-76266510D01*
X88199500Y-76421153D01*
X44250500Y-76421153D01*
X44250500Y-74097899D01*
X56524500Y-74097899D01*
X56524500Y-74345900D01*
X56563275Y-74590714D01*
X56563294Y-74590831D01*
X56639927Y-74826682D01*
X56752511Y-75047642D01*
X56898276Y-75248270D01*
X57073630Y-75423624D01*
X57274258Y-75569389D01*
X57495218Y-75681973D01*
X57731069Y-75758606D01*
X57822920Y-75773153D01*
X57976000Y-75797400D01*
X57976005Y-75797400D01*
X58224000Y-75797400D01*
X58360070Y-75775847D01*
X58468931Y-75758606D01*
X58704782Y-75681973D01*
X58925742Y-75569389D01*
X59126370Y-75423624D01*
X59301724Y-75248270D01*
X59447489Y-75047642D01*
X59560073Y-74826682D01*
X59636706Y-74590831D01*
X59653947Y-74481970D01*
X59675500Y-74345900D01*
X59675500Y-74097899D01*
X60724500Y-74097899D01*
X60724500Y-74345900D01*
X60763275Y-74590714D01*
X60763294Y-74590831D01*
X60839927Y-74826682D01*
X60952511Y-75047642D01*
X61098276Y-75248270D01*
X61273630Y-75423624D01*
X61474258Y-75569389D01*
X61695218Y-75681973D01*
X61931069Y-75758606D01*
X62022920Y-75773153D01*
X62176000Y-75797400D01*
X62176005Y-75797400D01*
X62424000Y-75797400D01*
X62560070Y-75775847D01*
X62668931Y-75758606D01*
X62904782Y-75681973D01*
X63125742Y-75569389D01*
X63326370Y-75423624D01*
X63501724Y-75248270D01*
X63647489Y-75047642D01*
X63760073Y-74826682D01*
X63836706Y-74590831D01*
X63853947Y-74481970D01*
X63875500Y-74345900D01*
X63875500Y-74097945D01*
X64925000Y-74097945D01*
X64925000Y-74345854D01*
X64963782Y-74590714D01*
X65040388Y-74826487D01*
X65040389Y-74826490D01*
X65152939Y-75047380D01*
X65223646Y-75144698D01*
X65223647Y-75144699D01*
X65709522Y-74658823D01*
X65800924Y-74795617D01*
X65926283Y-74920976D01*
X66063075Y-75012377D01*
X65577199Y-75498252D01*
X65674521Y-75568960D01*
X65674527Y-75568964D01*
X65895409Y-75681510D01*
X65895412Y-75681511D01*
X66131185Y-75758117D01*
X66376046Y-75796900D01*
X66623954Y-75796900D01*
X66868814Y-75758117D01*
X67104587Y-75681511D01*
X67104590Y-75681510D01*
X67325480Y-75568960D01*
X67422798Y-75498252D01*
X66936923Y-75012377D01*
X67073717Y-74920976D01*
X67199076Y-74795617D01*
X67290477Y-74658823D01*
X67776352Y-75144698D01*
X67847060Y-75047380D01*
X67959610Y-74826490D01*
X67959611Y-74826487D01*
X68036217Y-74590714D01*
X68075000Y-74345854D01*
X68075000Y-74097945D01*
X68074993Y-74097899D01*
X69124500Y-74097899D01*
X69124500Y-74345900D01*
X69163275Y-74590714D01*
X69163294Y-74590831D01*
X69239927Y-74826682D01*
X69352511Y-75047642D01*
X69498276Y-75248270D01*
X69673630Y-75423624D01*
X69874258Y-75569389D01*
X70095218Y-75681973D01*
X70331069Y-75758606D01*
X70422920Y-75773153D01*
X70576000Y-75797400D01*
X70576005Y-75797400D01*
X70824000Y-75797400D01*
X70960070Y-75775847D01*
X71068931Y-75758606D01*
X71304782Y-75681973D01*
X71525742Y-75569389D01*
X71726370Y-75423624D01*
X71901724Y-75248270D01*
X72047489Y-75047642D01*
X72160073Y-74826682D01*
X72236706Y-74590831D01*
X72253947Y-74481970D01*
X72275500Y-74345900D01*
X72275500Y-74097945D01*
X73325000Y-74097945D01*
X73325000Y-74345854D01*
X73363782Y-74590714D01*
X73440388Y-74826487D01*
X73440389Y-74826490D01*
X73552939Y-75047380D01*
X73623646Y-75144698D01*
X73623647Y-75144699D01*
X74109522Y-74658823D01*
X74200924Y-74795617D01*
X74326283Y-74920976D01*
X74463075Y-75012377D01*
X73977199Y-75498252D01*
X74074521Y-75568960D01*
X74074527Y-75568964D01*
X74295409Y-75681510D01*
X74295412Y-75681511D01*
X74531185Y-75758117D01*
X74776046Y-75796900D01*
X75023954Y-75796900D01*
X75268814Y-75758117D01*
X75504587Y-75681511D01*
X75504590Y-75681510D01*
X75725480Y-75568960D01*
X75822798Y-75498252D01*
X75336923Y-75012377D01*
X75473717Y-74920976D01*
X75599076Y-74795617D01*
X75690477Y-74658823D01*
X76176352Y-75144698D01*
X76247060Y-75047380D01*
X76359610Y-74826490D01*
X76359611Y-74826487D01*
X76436217Y-74590714D01*
X76475000Y-74345854D01*
X76475000Y-74097945D01*
X77525000Y-74097945D01*
X77525000Y-74345854D01*
X77563782Y-74590714D01*
X77640388Y-74826487D01*
X77640389Y-74826490D01*
X77752939Y-75047380D01*
X77823646Y-75144698D01*
X77823647Y-75144699D01*
X78309522Y-74658823D01*
X78400924Y-74795617D01*
X78526283Y-74920976D01*
X78663075Y-75012377D01*
X78177199Y-75498252D01*
X78274521Y-75568960D01*
X78274527Y-75568964D01*
X78495409Y-75681510D01*
X78495412Y-75681511D01*
X78731185Y-75758117D01*
X78976046Y-75796900D01*
X79223954Y-75796900D01*
X79468814Y-75758117D01*
X79704587Y-75681511D01*
X79704590Y-75681510D01*
X79925480Y-75568960D01*
X80022799Y-75498252D01*
X79536924Y-75012377D01*
X79673717Y-74920976D01*
X79799076Y-74795617D01*
X79890477Y-74658824D01*
X80376352Y-75144699D01*
X80376352Y-75144698D01*
X80447060Y-75047380D01*
X80559610Y-74826490D01*
X80559611Y-74826487D01*
X80636217Y-74590714D01*
X80675000Y-74345854D01*
X80675000Y-74097945D01*
X81725000Y-74097945D01*
X81725000Y-74345854D01*
X81763782Y-74590714D01*
X81840388Y-74826487D01*
X81840389Y-74826490D01*
X81952939Y-75047380D01*
X82023646Y-75144698D01*
X82023647Y-75144699D01*
X82509522Y-74658823D01*
X82600924Y-74795617D01*
X82726283Y-74920976D01*
X82863075Y-75012377D01*
X82377199Y-75498252D01*
X82474521Y-75568960D01*
X82474527Y-75568964D01*
X82695409Y-75681510D01*
X82695412Y-75681511D01*
X82931185Y-75758117D01*
X83176046Y-75796900D01*
X83423954Y-75796900D01*
X83668814Y-75758117D01*
X83904587Y-75681511D01*
X83904590Y-75681510D01*
X84125480Y-75568960D01*
X84222798Y-75498252D01*
X83736923Y-75012377D01*
X83873717Y-74920976D01*
X83999076Y-74795617D01*
X84090477Y-74658824D01*
X84576352Y-75144699D01*
X84576352Y-75144698D01*
X84647060Y-75047380D01*
X84759610Y-74826490D01*
X84759611Y-74826487D01*
X84836217Y-74590714D01*
X84875000Y-74345854D01*
X84875000Y-74097945D01*
X84874993Y-74097899D01*
X85924500Y-74097899D01*
X85924500Y-74345900D01*
X85963275Y-74590714D01*
X85963294Y-74590831D01*
X86039927Y-74826682D01*
X86152511Y-75047642D01*
X86298276Y-75248270D01*
X86473630Y-75423624D01*
X86674258Y-75569389D01*
X86895218Y-75681973D01*
X87131069Y-75758606D01*
X87222920Y-75773153D01*
X87376000Y-75797400D01*
X87376005Y-75797400D01*
X87624000Y-75797400D01*
X87760070Y-75775847D01*
X87868931Y-75758606D01*
X88104782Y-75681973D01*
X88325742Y-75569389D01*
X88526370Y-75423624D01*
X88701724Y-75248270D01*
X88847489Y-75047642D01*
X88960073Y-74826682D01*
X89036706Y-74590831D01*
X89053947Y-74481970D01*
X89075500Y-74345900D01*
X89075500Y-74097899D01*
X90124500Y-74097899D01*
X90124500Y-74345900D01*
X90163275Y-74590714D01*
X90163294Y-74590831D01*
X90239927Y-74826682D01*
X90352511Y-75047642D01*
X90498276Y-75248270D01*
X90673630Y-75423624D01*
X90874258Y-75569389D01*
X91095218Y-75681973D01*
X91331069Y-75758606D01*
X91422920Y-75773153D01*
X91576000Y-75797400D01*
X91576005Y-75797400D01*
X91824000Y-75797400D01*
X91960070Y-75775847D01*
X92068931Y-75758606D01*
X92304782Y-75681973D01*
X92525742Y-75569389D01*
X92726370Y-75423624D01*
X92901724Y-75248270D01*
X93047489Y-75047642D01*
X93160073Y-74826682D01*
X93236706Y-74590831D01*
X93253947Y-74481970D01*
X93275500Y-74345900D01*
X93275500Y-74097899D01*
X94324500Y-74097899D01*
X94324500Y-74345900D01*
X94363275Y-74590714D01*
X94363294Y-74590831D01*
X94439927Y-74826682D01*
X94552511Y-75047642D01*
X94698276Y-75248270D01*
X94873630Y-75423624D01*
X95074258Y-75569389D01*
X95295218Y-75681973D01*
X95531069Y-75758606D01*
X95622920Y-75773153D01*
X95776000Y-75797400D01*
X95776005Y-75797400D01*
X96024000Y-75797400D01*
X96160070Y-75775847D01*
X96268931Y-75758606D01*
X96504782Y-75681973D01*
X96725742Y-75569389D01*
X96926370Y-75423624D01*
X97101724Y-75248270D01*
X97247489Y-75047642D01*
X97360073Y-74826682D01*
X97436706Y-74590831D01*
X97453947Y-74481970D01*
X97475500Y-74345900D01*
X97475500Y-74097899D01*
X98524500Y-74097899D01*
X98524500Y-74345900D01*
X98563275Y-74590714D01*
X98563294Y-74590831D01*
X98639927Y-74826682D01*
X98752511Y-75047642D01*
X98898276Y-75248270D01*
X99073630Y-75423624D01*
X99274258Y-75569389D01*
X99495218Y-75681973D01*
X99731069Y-75758606D01*
X99822920Y-75773153D01*
X99976000Y-75797400D01*
X99976005Y-75797400D01*
X100224000Y-75797400D01*
X100360070Y-75775847D01*
X100468931Y-75758606D01*
X100704782Y-75681973D01*
X100925742Y-75569389D01*
X101126370Y-75423624D01*
X101301724Y-75248270D01*
X101447489Y-75047642D01*
X101560073Y-74826682D01*
X101636706Y-74590831D01*
X101653947Y-74481970D01*
X101675500Y-74345900D01*
X101675500Y-74097945D01*
X102725000Y-74097945D01*
X102725000Y-74345854D01*
X102763782Y-74590714D01*
X102840388Y-74826487D01*
X102840389Y-74826490D01*
X102952939Y-75047380D01*
X103023646Y-75144698D01*
X103023647Y-75144699D01*
X103509522Y-74658823D01*
X103600924Y-74795617D01*
X103726283Y-74920976D01*
X103863075Y-75012377D01*
X103377199Y-75498252D01*
X103474521Y-75568960D01*
X103474527Y-75568964D01*
X103695409Y-75681510D01*
X103695412Y-75681511D01*
X103931185Y-75758117D01*
X104176046Y-75796900D01*
X104423954Y-75796900D01*
X104668814Y-75758117D01*
X104904587Y-75681511D01*
X104904590Y-75681510D01*
X105125480Y-75568960D01*
X105222799Y-75498252D01*
X104736924Y-75012377D01*
X104873717Y-74920976D01*
X104999076Y-74795617D01*
X105090477Y-74658824D01*
X105576352Y-75144699D01*
X105576352Y-75144698D01*
X105647060Y-75047380D01*
X105759610Y-74826490D01*
X105759611Y-74826487D01*
X105836217Y-74590714D01*
X105875000Y-74345854D01*
X105875000Y-74175999D01*
X111574500Y-74175999D01*
X111574500Y-74424000D01*
X111600924Y-74590831D01*
X111613294Y-74668931D01*
X111689927Y-74904782D01*
X111802511Y-75125742D01*
X111948276Y-75326370D01*
X112123630Y-75501724D01*
X112324258Y-75647489D01*
X112545218Y-75760073D01*
X112781069Y-75836706D01*
X112872920Y-75851253D01*
X113026000Y-75875500D01*
X113026005Y-75875500D01*
X113274000Y-75875500D01*
X113410070Y-75853947D01*
X113518931Y-75836706D01*
X113754782Y-75760073D01*
X113975742Y-75647489D01*
X114176370Y-75501724D01*
X114351724Y-75326370D01*
X114497489Y-75125742D01*
X114610073Y-74904782D01*
X114686706Y-74668931D01*
X114715930Y-74484420D01*
X114725500Y-74424000D01*
X114725500Y-74175999D01*
X115774500Y-74175999D01*
X115774500Y-74424000D01*
X115800924Y-74590831D01*
X115813294Y-74668931D01*
X115889927Y-74904782D01*
X116002511Y-75125742D01*
X116148276Y-75326370D01*
X116323630Y-75501724D01*
X116524258Y-75647489D01*
X116745218Y-75760073D01*
X116981069Y-75836706D01*
X117072920Y-75851253D01*
X117226000Y-75875500D01*
X117226005Y-75875500D01*
X117474000Y-75875500D01*
X117610070Y-75853947D01*
X117718931Y-75836706D01*
X117954782Y-75760073D01*
X118175742Y-75647489D01*
X118376370Y-75501724D01*
X118551724Y-75326370D01*
X118697489Y-75125742D01*
X118810073Y-74904782D01*
X118886706Y-74668931D01*
X118915930Y-74484420D01*
X118925500Y-74424000D01*
X118925500Y-74175999D01*
X119974500Y-74175999D01*
X119974500Y-74424000D01*
X120000924Y-74590831D01*
X120013294Y-74668931D01*
X120089927Y-74904782D01*
X120202511Y-75125742D01*
X120348276Y-75326370D01*
X120523630Y-75501724D01*
X120724258Y-75647489D01*
X120945218Y-75760073D01*
X121181069Y-75836706D01*
X121272920Y-75851253D01*
X121426000Y-75875500D01*
X121426005Y-75875500D01*
X121674000Y-75875500D01*
X121810070Y-75853947D01*
X121918931Y-75836706D01*
X122154782Y-75760073D01*
X122375742Y-75647489D01*
X122576370Y-75501724D01*
X122751724Y-75326370D01*
X122897489Y-75125742D01*
X123010073Y-74904782D01*
X123086706Y-74668931D01*
X123115930Y-74484420D01*
X123125500Y-74424000D01*
X123125500Y-74175999D01*
X124174500Y-74175999D01*
X124174500Y-74424000D01*
X124200924Y-74590831D01*
X124213294Y-74668931D01*
X124289927Y-74904782D01*
X124402511Y-75125742D01*
X124548276Y-75326370D01*
X124723630Y-75501724D01*
X124924258Y-75647489D01*
X125145218Y-75760073D01*
X125381069Y-75836706D01*
X125472920Y-75851253D01*
X125626000Y-75875500D01*
X125626005Y-75875500D01*
X125874000Y-75875500D01*
X126010070Y-75853947D01*
X126118931Y-75836706D01*
X126354782Y-75760073D01*
X126575742Y-75647489D01*
X126776370Y-75501724D01*
X126951724Y-75326370D01*
X127097489Y-75125742D01*
X127210073Y-74904782D01*
X127286706Y-74668931D01*
X127315930Y-74484420D01*
X127325500Y-74424000D01*
X127325500Y-74175999D01*
X127286706Y-73931072D01*
X127286706Y-73931069D01*
X127210073Y-73695218D01*
X127097489Y-73474258D01*
X126951724Y-73273630D01*
X126776370Y-73098276D01*
X126575742Y-72952511D01*
X126354782Y-72839927D01*
X126118931Y-72763294D01*
X126118929Y-72763293D01*
X126118927Y-72763293D01*
X125874000Y-72724500D01*
X125873995Y-72724500D01*
X125626005Y-72724500D01*
X125626000Y-72724500D01*
X125381072Y-72763293D01*
X125145215Y-72839928D01*
X124924257Y-72952511D01*
X124809792Y-73035675D01*
X124723630Y-73098276D01*
X124723628Y-73098278D01*
X124723627Y-73098278D01*
X124548278Y-73273627D01*
X124548278Y-73273628D01*
X124548276Y-73273630D01*
X124485675Y-73359792D01*
X124402511Y-73474257D01*
X124289928Y-73695215D01*
X124213293Y-73931072D01*
X124174500Y-74175999D01*
X123125500Y-74175999D01*
X123086706Y-73931072D01*
X123086706Y-73931069D01*
X123010073Y-73695218D01*
X122897489Y-73474258D01*
X122751724Y-73273630D01*
X122576370Y-73098276D01*
X122375742Y-72952511D01*
X122154782Y-72839927D01*
X121918931Y-72763294D01*
X121918929Y-72763293D01*
X121918927Y-72763293D01*
X121674000Y-72724500D01*
X121673995Y-72724500D01*
X121426005Y-72724500D01*
X121426000Y-72724500D01*
X121181072Y-72763293D01*
X120945215Y-72839928D01*
X120724257Y-72952511D01*
X120609792Y-73035675D01*
X120523630Y-73098276D01*
X120523628Y-73098278D01*
X120523627Y-73098278D01*
X120348278Y-73273627D01*
X120348278Y-73273628D01*
X120348276Y-73273630D01*
X120285675Y-73359792D01*
X120202511Y-73474257D01*
X120089928Y-73695215D01*
X120013293Y-73931072D01*
X119974500Y-74175999D01*
X118925500Y-74175999D01*
X118886706Y-73931072D01*
X118886706Y-73931069D01*
X118810073Y-73695218D01*
X118697489Y-73474258D01*
X118551724Y-73273630D01*
X118376370Y-73098276D01*
X118175742Y-72952511D01*
X117954782Y-72839927D01*
X117718931Y-72763294D01*
X117718929Y-72763293D01*
X117718927Y-72763293D01*
X117474000Y-72724500D01*
X117473995Y-72724500D01*
X117226005Y-72724500D01*
X117226000Y-72724500D01*
X116981072Y-72763293D01*
X116745215Y-72839928D01*
X116524257Y-72952511D01*
X116409792Y-73035675D01*
X116323630Y-73098276D01*
X116323628Y-73098278D01*
X116323627Y-73098278D01*
X116148278Y-73273627D01*
X116148278Y-73273628D01*
X116148276Y-73273630D01*
X116085675Y-73359792D01*
X116002511Y-73474257D01*
X115889928Y-73695215D01*
X115813293Y-73931072D01*
X115774500Y-74175999D01*
X114725500Y-74175999D01*
X114686706Y-73931072D01*
X114686706Y-73931069D01*
X114610073Y-73695218D01*
X114497489Y-73474258D01*
X114351724Y-73273630D01*
X114176370Y-73098276D01*
X113975742Y-72952511D01*
X113754782Y-72839927D01*
X113518931Y-72763294D01*
X113518929Y-72763293D01*
X113518927Y-72763293D01*
X113274000Y-72724500D01*
X113273995Y-72724500D01*
X113026005Y-72724500D01*
X113026000Y-72724500D01*
X112781072Y-72763293D01*
X112545215Y-72839928D01*
X112324257Y-72952511D01*
X112209792Y-73035675D01*
X112123630Y-73098276D01*
X112123628Y-73098278D01*
X112123627Y-73098278D01*
X111948278Y-73273627D01*
X111948278Y-73273628D01*
X111948276Y-73273630D01*
X111885675Y-73359792D01*
X111802511Y-73474257D01*
X111689928Y-73695215D01*
X111613293Y-73931072D01*
X111574500Y-74175999D01*
X105875000Y-74175999D01*
X105875000Y-74097945D01*
X105836217Y-73853085D01*
X105759611Y-73617312D01*
X105759610Y-73617309D01*
X105647064Y-73396427D01*
X105647060Y-73396421D01*
X105576352Y-73299100D01*
X105576352Y-73299099D01*
X105090477Y-73784974D01*
X104999076Y-73648183D01*
X104873717Y-73522824D01*
X104736924Y-73431422D01*
X105222799Y-72945547D01*
X105222798Y-72945546D01*
X105125480Y-72874839D01*
X104904590Y-72762289D01*
X104904587Y-72762288D01*
X104668814Y-72685682D01*
X104423954Y-72646900D01*
X104176046Y-72646900D01*
X103931185Y-72685682D01*
X103695412Y-72762288D01*
X103695409Y-72762289D01*
X103474516Y-72874841D01*
X103377200Y-72945544D01*
X103377199Y-72945546D01*
X103863075Y-73431422D01*
X103726283Y-73522824D01*
X103600924Y-73648183D01*
X103509522Y-73784975D01*
X103023646Y-73299099D01*
X103023644Y-73299100D01*
X102952941Y-73396416D01*
X102840389Y-73617309D01*
X102840388Y-73617312D01*
X102763782Y-73853085D01*
X102725000Y-74097945D01*
X101675500Y-74097945D01*
X101675500Y-74097899D01*
X101636706Y-73852972D01*
X101636706Y-73852969D01*
X101560073Y-73617118D01*
X101447489Y-73396158D01*
X101301724Y-73195530D01*
X101126370Y-73020176D01*
X100925742Y-72874411D01*
X100704782Y-72761827D01*
X100468931Y-72685194D01*
X100468929Y-72685193D01*
X100468927Y-72685193D01*
X100224000Y-72646400D01*
X100223995Y-72646400D01*
X99976005Y-72646400D01*
X99976000Y-72646400D01*
X99731072Y-72685193D01*
X99495215Y-72761828D01*
X99274257Y-72874411D01*
X99176352Y-72945544D01*
X99073630Y-73020176D01*
X99073628Y-73020178D01*
X99073627Y-73020178D01*
X98898278Y-73195527D01*
X98898278Y-73195528D01*
X98898276Y-73195530D01*
X98841535Y-73273627D01*
X98752511Y-73396157D01*
X98639928Y-73617115D01*
X98563293Y-73852972D01*
X98524500Y-74097899D01*
X97475500Y-74097899D01*
X97436706Y-73852972D01*
X97436706Y-73852969D01*
X97360073Y-73617118D01*
X97247489Y-73396158D01*
X97101724Y-73195530D01*
X96926370Y-73020176D01*
X96725742Y-72874411D01*
X96504782Y-72761827D01*
X96268931Y-72685194D01*
X96268929Y-72685193D01*
X96268927Y-72685193D01*
X96024000Y-72646400D01*
X96023995Y-72646400D01*
X95776005Y-72646400D01*
X95776000Y-72646400D01*
X95531072Y-72685193D01*
X95295215Y-72761828D01*
X95074257Y-72874411D01*
X94976352Y-72945544D01*
X94873630Y-73020176D01*
X94873628Y-73020178D01*
X94873627Y-73020178D01*
X94698278Y-73195527D01*
X94698278Y-73195528D01*
X94698276Y-73195530D01*
X94641535Y-73273627D01*
X94552511Y-73396157D01*
X94439928Y-73617115D01*
X94363293Y-73852972D01*
X94324500Y-74097899D01*
X93275500Y-74097899D01*
X93236706Y-73852972D01*
X93236706Y-73852969D01*
X93160073Y-73617118D01*
X93047489Y-73396158D01*
X92901724Y-73195530D01*
X92726370Y-73020176D01*
X92525742Y-72874411D01*
X92304782Y-72761827D01*
X92068931Y-72685194D01*
X92068929Y-72685193D01*
X92068927Y-72685193D01*
X91824000Y-72646400D01*
X91823995Y-72646400D01*
X91576005Y-72646400D01*
X91576000Y-72646400D01*
X91331072Y-72685193D01*
X91095215Y-72761828D01*
X90874257Y-72874411D01*
X90776352Y-72945544D01*
X90673630Y-73020176D01*
X90673628Y-73020178D01*
X90673627Y-73020178D01*
X90498278Y-73195527D01*
X90498278Y-73195528D01*
X90498276Y-73195530D01*
X90441535Y-73273627D01*
X90352511Y-73396157D01*
X90239928Y-73617115D01*
X90163293Y-73852972D01*
X90124500Y-74097899D01*
X89075500Y-74097899D01*
X89036706Y-73852972D01*
X89036706Y-73852969D01*
X88960073Y-73617118D01*
X88847489Y-73396158D01*
X88701724Y-73195530D01*
X88526370Y-73020176D01*
X88325742Y-72874411D01*
X88104782Y-72761827D01*
X87868931Y-72685194D01*
X87868929Y-72685193D01*
X87868927Y-72685193D01*
X87624000Y-72646400D01*
X87623995Y-72646400D01*
X87376005Y-72646400D01*
X87376000Y-72646400D01*
X87131072Y-72685193D01*
X86895215Y-72761828D01*
X86674257Y-72874411D01*
X86576352Y-72945544D01*
X86473630Y-73020176D01*
X86473628Y-73020178D01*
X86473627Y-73020178D01*
X86298278Y-73195527D01*
X86298278Y-73195528D01*
X86298276Y-73195530D01*
X86241535Y-73273627D01*
X86152511Y-73396157D01*
X86039928Y-73617115D01*
X85963293Y-73852972D01*
X85924500Y-74097899D01*
X84874993Y-74097899D01*
X84836217Y-73853085D01*
X84759611Y-73617312D01*
X84759610Y-73617309D01*
X84647064Y-73396427D01*
X84647060Y-73396421D01*
X84576352Y-73299100D01*
X84576352Y-73299099D01*
X84090477Y-73784974D01*
X83999076Y-73648183D01*
X83873717Y-73522824D01*
X83736924Y-73431422D01*
X84222799Y-72945547D01*
X84222798Y-72945546D01*
X84125480Y-72874839D01*
X83904590Y-72762289D01*
X83904587Y-72762288D01*
X83668814Y-72685682D01*
X83423954Y-72646900D01*
X83176046Y-72646900D01*
X82931185Y-72685682D01*
X82695412Y-72762288D01*
X82695409Y-72762289D01*
X82474516Y-72874841D01*
X82377200Y-72945544D01*
X82377199Y-72945546D01*
X82863075Y-73431422D01*
X82726283Y-73522824D01*
X82600924Y-73648183D01*
X82509522Y-73784975D01*
X82023646Y-73299099D01*
X82023644Y-73299100D01*
X81952941Y-73396416D01*
X81840389Y-73617309D01*
X81840388Y-73617312D01*
X81763782Y-73853085D01*
X81725000Y-74097945D01*
X80675000Y-74097945D01*
X80636217Y-73853085D01*
X80559611Y-73617312D01*
X80559610Y-73617309D01*
X80447064Y-73396427D01*
X80447060Y-73396421D01*
X80376352Y-73299100D01*
X80376352Y-73299099D01*
X79890477Y-73784974D01*
X79799076Y-73648183D01*
X79673717Y-73522824D01*
X79536924Y-73431422D01*
X80022799Y-72945547D01*
X80022798Y-72945546D01*
X79925480Y-72874839D01*
X79704590Y-72762289D01*
X79704587Y-72762288D01*
X79468814Y-72685682D01*
X79223954Y-72646900D01*
X78976046Y-72646900D01*
X78731185Y-72685682D01*
X78495412Y-72762288D01*
X78495409Y-72762289D01*
X78274516Y-72874841D01*
X78177200Y-72945544D01*
X78177199Y-72945546D01*
X78663075Y-73431422D01*
X78526283Y-73522824D01*
X78400924Y-73648183D01*
X78309522Y-73784975D01*
X77823646Y-73299099D01*
X77823644Y-73299100D01*
X77752941Y-73396416D01*
X77640389Y-73617309D01*
X77640388Y-73617312D01*
X77563782Y-73853085D01*
X77525000Y-74097945D01*
X76475000Y-74097945D01*
X76436217Y-73853085D01*
X76359611Y-73617312D01*
X76359610Y-73617309D01*
X76247064Y-73396427D01*
X76247060Y-73396421D01*
X76176352Y-73299100D01*
X76176352Y-73299099D01*
X75690477Y-73784974D01*
X75599076Y-73648183D01*
X75473717Y-73522824D01*
X75336924Y-73431422D01*
X75822799Y-72945547D01*
X75822798Y-72945546D01*
X75725480Y-72874839D01*
X75504590Y-72762289D01*
X75504587Y-72762288D01*
X75268814Y-72685682D01*
X75023954Y-72646900D01*
X74776046Y-72646900D01*
X74531185Y-72685682D01*
X74295412Y-72762288D01*
X74295409Y-72762289D01*
X74074516Y-72874841D01*
X73977200Y-72945544D01*
X73977199Y-72945546D01*
X74463075Y-73431422D01*
X74326283Y-73522824D01*
X74200924Y-73648183D01*
X74109522Y-73784975D01*
X73623646Y-73299099D01*
X73623644Y-73299100D01*
X73552941Y-73396416D01*
X73440389Y-73617309D01*
X73440388Y-73617312D01*
X73363782Y-73853085D01*
X73325000Y-74097945D01*
X72275500Y-74097945D01*
X72275500Y-74097899D01*
X72236706Y-73852972D01*
X72236706Y-73852969D01*
X72160073Y-73617118D01*
X72047489Y-73396158D01*
X71901724Y-73195530D01*
X71726370Y-73020176D01*
X71525742Y-72874411D01*
X71304782Y-72761827D01*
X71068931Y-72685194D01*
X71068929Y-72685193D01*
X71068927Y-72685193D01*
X70824000Y-72646400D01*
X70823995Y-72646400D01*
X70576005Y-72646400D01*
X70576000Y-72646400D01*
X70331072Y-72685193D01*
X70095215Y-72761828D01*
X69874257Y-72874411D01*
X69776352Y-72945544D01*
X69673630Y-73020176D01*
X69673628Y-73020178D01*
X69673627Y-73020178D01*
X69498278Y-73195527D01*
X69498278Y-73195528D01*
X69498276Y-73195530D01*
X69441535Y-73273627D01*
X69352511Y-73396157D01*
X69239928Y-73617115D01*
X69163293Y-73852972D01*
X69124500Y-74097899D01*
X68074993Y-74097899D01*
X68036217Y-73853085D01*
X67959611Y-73617312D01*
X67959610Y-73617309D01*
X67847064Y-73396427D01*
X67847060Y-73396421D01*
X67776352Y-73299100D01*
X67776352Y-73299099D01*
X67290477Y-73784974D01*
X67199076Y-73648183D01*
X67073717Y-73522824D01*
X66936924Y-73431422D01*
X67422799Y-72945547D01*
X67422798Y-72945546D01*
X67325480Y-72874839D01*
X67104590Y-72762289D01*
X67104587Y-72762288D01*
X66868814Y-72685682D01*
X66623954Y-72646900D01*
X66376046Y-72646900D01*
X66131185Y-72685682D01*
X65895412Y-72762288D01*
X65895409Y-72762289D01*
X65674516Y-72874841D01*
X65577200Y-72945544D01*
X65577199Y-72945546D01*
X66063075Y-73431422D01*
X65926283Y-73522824D01*
X65800924Y-73648183D01*
X65709522Y-73784975D01*
X65223646Y-73299099D01*
X65223644Y-73299100D01*
X65152941Y-73396416D01*
X65040389Y-73617309D01*
X65040388Y-73617312D01*
X64963782Y-73853085D01*
X64925000Y-74097945D01*
X63875500Y-74097945D01*
X63875500Y-74097899D01*
X63836706Y-73852972D01*
X63836706Y-73852969D01*
X63760073Y-73617118D01*
X63647489Y-73396158D01*
X63501724Y-73195530D01*
X63326370Y-73020176D01*
X63125742Y-72874411D01*
X62904782Y-72761827D01*
X62668931Y-72685194D01*
X62668929Y-72685193D01*
X62668927Y-72685193D01*
X62424000Y-72646400D01*
X62423995Y-72646400D01*
X62176005Y-72646400D01*
X62176000Y-72646400D01*
X61931072Y-72685193D01*
X61695215Y-72761828D01*
X61474257Y-72874411D01*
X61376352Y-72945544D01*
X61273630Y-73020176D01*
X61273628Y-73020178D01*
X61273627Y-73020178D01*
X61098278Y-73195527D01*
X61098278Y-73195528D01*
X61098276Y-73195530D01*
X61041535Y-73273627D01*
X60952511Y-73396157D01*
X60839928Y-73617115D01*
X60763293Y-73852972D01*
X60724500Y-74097899D01*
X59675500Y-74097899D01*
X59636706Y-73852972D01*
X59636706Y-73852969D01*
X59560073Y-73617118D01*
X59447489Y-73396158D01*
X59301724Y-73195530D01*
X59126370Y-73020176D01*
X58925742Y-72874411D01*
X58704782Y-72761827D01*
X58468931Y-72685194D01*
X58468929Y-72685193D01*
X58468927Y-72685193D01*
X58224000Y-72646400D01*
X58223995Y-72646400D01*
X57976005Y-72646400D01*
X57976000Y-72646400D01*
X57731072Y-72685193D01*
X57495215Y-72761828D01*
X57274257Y-72874411D01*
X57176352Y-72945544D01*
X57073630Y-73020176D01*
X57073628Y-73020178D01*
X57073627Y-73020178D01*
X56898278Y-73195527D01*
X56898278Y-73195528D01*
X56898276Y-73195530D01*
X56841535Y-73273627D01*
X56752511Y-73396157D01*
X56639928Y-73617115D01*
X56563293Y-73852972D01*
X56524500Y-74097899D01*
X44250500Y-74097899D01*
X44250500Y-67599035D01*
X56524500Y-67599035D01*
X56524500Y-69844770D01*
X56524501Y-69844776D01*
X56530908Y-69904383D01*
X56581202Y-70039228D01*
X56581206Y-70039235D01*
X56667452Y-70154444D01*
X56667455Y-70154447D01*
X56782664Y-70240693D01*
X56782671Y-70240697D01*
X56917517Y-70290991D01*
X56917516Y-70290991D01*
X56924444Y-70291735D01*
X56977127Y-70297400D01*
X59222872Y-70297399D01*
X59282483Y-70290991D01*
X59417331Y-70240696D01*
X59532546Y-70154446D01*
X59618796Y-70039231D01*
X59669091Y-69904383D01*
X59675500Y-69844773D01*
X59675499Y-68597899D01*
X60724500Y-68597899D01*
X60724500Y-68845900D01*
X60763275Y-69090714D01*
X60763294Y-69090831D01*
X60839927Y-69326682D01*
X60952511Y-69547642D01*
X61098276Y-69748270D01*
X61273630Y-69923624D01*
X61474258Y-70069389D01*
X61695218Y-70181973D01*
X61931069Y-70258606D01*
X62022920Y-70273153D01*
X62176000Y-70297400D01*
X62176005Y-70297400D01*
X62424000Y-70297400D01*
X62560070Y-70275847D01*
X62668931Y-70258606D01*
X62904782Y-70181973D01*
X63125742Y-70069389D01*
X63326370Y-69923624D01*
X63501724Y-69748270D01*
X63647489Y-69547642D01*
X63760073Y-69326682D01*
X63836706Y-69090831D01*
X63868730Y-68888642D01*
X63875500Y-68845900D01*
X63875500Y-68597945D01*
X64925000Y-68597945D01*
X64925000Y-68845854D01*
X64963782Y-69090714D01*
X65040388Y-69326487D01*
X65040389Y-69326490D01*
X65152939Y-69547380D01*
X65223646Y-69644698D01*
X65223647Y-69644699D01*
X65709522Y-69158823D01*
X65800924Y-69295617D01*
X65926283Y-69420976D01*
X66063075Y-69512377D01*
X65577199Y-69998252D01*
X65674521Y-70068960D01*
X65674527Y-70068964D01*
X65895409Y-70181510D01*
X65895412Y-70181511D01*
X66131185Y-70258117D01*
X66376046Y-70296900D01*
X66623954Y-70296900D01*
X66868814Y-70258117D01*
X67104587Y-70181511D01*
X67104590Y-70181510D01*
X67325480Y-70068960D01*
X67422798Y-69998252D01*
X66936923Y-69512377D01*
X67073717Y-69420976D01*
X67199076Y-69295617D01*
X67290477Y-69158823D01*
X67776352Y-69644698D01*
X67847060Y-69547380D01*
X67959610Y-69326490D01*
X67959611Y-69326487D01*
X68036217Y-69090714D01*
X68075000Y-68845854D01*
X68075000Y-68597945D01*
X68074993Y-68597899D01*
X69124500Y-68597899D01*
X69124500Y-68845900D01*
X69163275Y-69090714D01*
X69163294Y-69090831D01*
X69239927Y-69326682D01*
X69352511Y-69547642D01*
X69498276Y-69748270D01*
X69673630Y-69923624D01*
X69874258Y-70069389D01*
X70095218Y-70181973D01*
X70331069Y-70258606D01*
X70422920Y-70273153D01*
X70576000Y-70297400D01*
X70576005Y-70297400D01*
X70824000Y-70297400D01*
X70960070Y-70275847D01*
X71068931Y-70258606D01*
X71304782Y-70181973D01*
X71525742Y-70069389D01*
X71726370Y-69923624D01*
X71901724Y-69748270D01*
X72047489Y-69547642D01*
X72160073Y-69326682D01*
X72236706Y-69090831D01*
X72268730Y-68888642D01*
X72275500Y-68845900D01*
X72275500Y-68597945D01*
X73325000Y-68597945D01*
X73325000Y-68845854D01*
X73363782Y-69090714D01*
X73440388Y-69326487D01*
X73440389Y-69326490D01*
X73552939Y-69547380D01*
X73623646Y-69644698D01*
X73623647Y-69644699D01*
X74109522Y-69158823D01*
X74200924Y-69295617D01*
X74326283Y-69420976D01*
X74463075Y-69512377D01*
X73977199Y-69998252D01*
X74074521Y-70068960D01*
X74074527Y-70068964D01*
X74295409Y-70181510D01*
X74295412Y-70181511D01*
X74531185Y-70258117D01*
X74776046Y-70296900D01*
X75023954Y-70296900D01*
X75268814Y-70258117D01*
X75504587Y-70181511D01*
X75504590Y-70181510D01*
X75725480Y-70068960D01*
X75822798Y-69998252D01*
X75336923Y-69512377D01*
X75473717Y-69420976D01*
X75599076Y-69295617D01*
X75690477Y-69158823D01*
X76176352Y-69644698D01*
X76247060Y-69547380D01*
X76359610Y-69326490D01*
X76359611Y-69326487D01*
X76436217Y-69090714D01*
X76475000Y-68845854D01*
X76475000Y-68597945D01*
X76474993Y-68597899D01*
X77524500Y-68597899D01*
X77524500Y-68845900D01*
X77563275Y-69090714D01*
X77563294Y-69090831D01*
X77639927Y-69326682D01*
X77752511Y-69547642D01*
X77898276Y-69748270D01*
X78073630Y-69923624D01*
X78274258Y-70069389D01*
X78495218Y-70181973D01*
X78731069Y-70258606D01*
X78822920Y-70273153D01*
X78976000Y-70297400D01*
X78976005Y-70297400D01*
X79224000Y-70297400D01*
X79360070Y-70275847D01*
X79468931Y-70258606D01*
X79704782Y-70181973D01*
X79925742Y-70069389D01*
X80126370Y-69923624D01*
X80301724Y-69748270D01*
X80447489Y-69547642D01*
X80560073Y-69326682D01*
X80636706Y-69090831D01*
X80668730Y-68888642D01*
X80675500Y-68845900D01*
X80675500Y-68597945D01*
X81725000Y-68597945D01*
X81725000Y-68845854D01*
X81763782Y-69090714D01*
X81840388Y-69326487D01*
X81840389Y-69326490D01*
X81952939Y-69547380D01*
X82023646Y-69644698D01*
X82023647Y-69644699D01*
X82509522Y-69158823D01*
X82600924Y-69295617D01*
X82726283Y-69420976D01*
X82863075Y-69512377D01*
X82377199Y-69998252D01*
X82474521Y-70068960D01*
X82474527Y-70068964D01*
X82695409Y-70181510D01*
X82695412Y-70181511D01*
X82931185Y-70258117D01*
X83176046Y-70296900D01*
X83423954Y-70296900D01*
X83668814Y-70258117D01*
X83904587Y-70181511D01*
X83904590Y-70181510D01*
X84125480Y-70068960D01*
X84222798Y-69998252D01*
X83736923Y-69512377D01*
X83873717Y-69420976D01*
X83999076Y-69295617D01*
X84090477Y-69158824D01*
X84576352Y-69644699D01*
X84576352Y-69644698D01*
X84647060Y-69547380D01*
X84759610Y-69326490D01*
X84759611Y-69326487D01*
X84836217Y-69090714D01*
X84875000Y-68845854D01*
X84875000Y-68597945D01*
X84874993Y-68597899D01*
X85924500Y-68597899D01*
X85924500Y-68845900D01*
X85963275Y-69090714D01*
X85963294Y-69090831D01*
X86039927Y-69326682D01*
X86152511Y-69547642D01*
X86298276Y-69748270D01*
X86473630Y-69923624D01*
X86674258Y-70069389D01*
X86895218Y-70181973D01*
X87131069Y-70258606D01*
X87222920Y-70273153D01*
X87376000Y-70297400D01*
X87376005Y-70297400D01*
X87624000Y-70297400D01*
X87760070Y-70275847D01*
X87868931Y-70258606D01*
X88104782Y-70181973D01*
X88325742Y-70069389D01*
X88526370Y-69923624D01*
X88701724Y-69748270D01*
X88847489Y-69547642D01*
X88960073Y-69326682D01*
X89036706Y-69090831D01*
X89068730Y-68888642D01*
X89075500Y-68845900D01*
X89075500Y-68597899D01*
X90124500Y-68597899D01*
X90124500Y-68845900D01*
X90163275Y-69090714D01*
X90163294Y-69090831D01*
X90239927Y-69326682D01*
X90352511Y-69547642D01*
X90498276Y-69748270D01*
X90673630Y-69923624D01*
X90874258Y-70069389D01*
X91095218Y-70181973D01*
X91331069Y-70258606D01*
X91422920Y-70273153D01*
X91576000Y-70297400D01*
X91576005Y-70297400D01*
X91824000Y-70297400D01*
X91960070Y-70275847D01*
X92068931Y-70258606D01*
X92304782Y-70181973D01*
X92525742Y-70069389D01*
X92726370Y-69923624D01*
X92901724Y-69748270D01*
X93047489Y-69547642D01*
X93160073Y-69326682D01*
X93236706Y-69090831D01*
X93268730Y-68888642D01*
X93275500Y-68845900D01*
X93275500Y-68597899D01*
X94324500Y-68597899D01*
X94324500Y-68845900D01*
X94363275Y-69090714D01*
X94363294Y-69090831D01*
X94439927Y-69326682D01*
X94552511Y-69547642D01*
X94698276Y-69748270D01*
X94873630Y-69923624D01*
X95074258Y-70069389D01*
X95295218Y-70181973D01*
X95531069Y-70258606D01*
X95622920Y-70273153D01*
X95776000Y-70297400D01*
X95776005Y-70297400D01*
X96024000Y-70297400D01*
X96160070Y-70275847D01*
X96268931Y-70258606D01*
X96504782Y-70181973D01*
X96725742Y-70069389D01*
X96926370Y-69923624D01*
X97101724Y-69748270D01*
X97247489Y-69547642D01*
X97360073Y-69326682D01*
X97436706Y-69090831D01*
X97468730Y-68888642D01*
X97475500Y-68845900D01*
X97475500Y-68597899D01*
X98524500Y-68597899D01*
X98524500Y-68845900D01*
X98563275Y-69090714D01*
X98563294Y-69090831D01*
X98639927Y-69326682D01*
X98752511Y-69547642D01*
X98898276Y-69748270D01*
X99073630Y-69923624D01*
X99274258Y-70069389D01*
X99495218Y-70181973D01*
X99731069Y-70258606D01*
X99822920Y-70273153D01*
X99976000Y-70297400D01*
X99976005Y-70297400D01*
X100224000Y-70297400D01*
X100360070Y-70275847D01*
X100468931Y-70258606D01*
X100704782Y-70181973D01*
X100925742Y-70069389D01*
X101126370Y-69923624D01*
X101301724Y-69748270D01*
X101447489Y-69547642D01*
X101560073Y-69326682D01*
X101636706Y-69090831D01*
X101668730Y-68888642D01*
X101675500Y-68845900D01*
X101675500Y-68597899D01*
X102724500Y-68597899D01*
X102724500Y-68845900D01*
X102763275Y-69090714D01*
X102763294Y-69090831D01*
X102839927Y-69326682D01*
X102952511Y-69547642D01*
X103098276Y-69748270D01*
X103273630Y-69923624D01*
X103474258Y-70069389D01*
X103695218Y-70181973D01*
X103931069Y-70258606D01*
X104022920Y-70273153D01*
X104176000Y-70297400D01*
X104176005Y-70297400D01*
X104424000Y-70297400D01*
X104560070Y-70275847D01*
X104668931Y-70258606D01*
X104904782Y-70181973D01*
X105125742Y-70069389D01*
X105326370Y-69923624D01*
X105501724Y-69748270D01*
X105647489Y-69547642D01*
X105760073Y-69326682D01*
X105836706Y-69090831D01*
X105844827Y-69039555D01*
X105854381Y-68979240D01*
X105875500Y-68845900D01*
X105875500Y-68597899D01*
X105836706Y-68352972D01*
X105836706Y-68352969D01*
X105760073Y-68117118D01*
X105647489Y-67896158D01*
X105576972Y-67799100D01*
X105538930Y-67746739D01*
X105538928Y-67746737D01*
X105501724Y-67695530D01*
X105483349Y-67677155D01*
X111575000Y-67677155D01*
X111575000Y-68550000D01*
X112282096Y-68550000D01*
X112250000Y-68711358D01*
X112250000Y-68888642D01*
X112282096Y-69050000D01*
X111575000Y-69050000D01*
X111575000Y-69922844D01*
X111581401Y-69982372D01*
X111581403Y-69982379D01*
X111631645Y-70117086D01*
X111631649Y-70117093D01*
X111717809Y-70232187D01*
X111717812Y-70232190D01*
X111832906Y-70318350D01*
X111832913Y-70318354D01*
X111967620Y-70368596D01*
X111967627Y-70368598D01*
X112027155Y-70374999D01*
X112027172Y-70375000D01*
X112900000Y-70375000D01*
X112900000Y-69667904D01*
X113061358Y-69700000D01*
X113238642Y-69700000D01*
X113400000Y-69667904D01*
X113400000Y-70375000D01*
X114272828Y-70375000D01*
X114272844Y-70374999D01*
X114332372Y-70368598D01*
X114332379Y-70368596D01*
X114467086Y-70318354D01*
X114467093Y-70318350D01*
X114582187Y-70232190D01*
X114582190Y-70232187D01*
X114668350Y-70117093D01*
X114668354Y-70117086D01*
X114717336Y-69985760D01*
X114717336Y-69985759D01*
X114718597Y-69982376D01*
X114718598Y-69982372D01*
X114724999Y-69922844D01*
X114725000Y-69922827D01*
X114725000Y-69050000D01*
X114017904Y-69050000D01*
X114050000Y-68888642D01*
X114050000Y-68711358D01*
X114042976Y-68676045D01*
X115775000Y-68676045D01*
X115775000Y-68923954D01*
X115813782Y-69168814D01*
X115890388Y-69404587D01*
X115890389Y-69404590D01*
X116002939Y-69625480D01*
X116073646Y-69722798D01*
X116073647Y-69722799D01*
X116559522Y-69236923D01*
X116650924Y-69373717D01*
X116776283Y-69499076D01*
X116913075Y-69590477D01*
X116427199Y-70076352D01*
X116524521Y-70147060D01*
X116524527Y-70147064D01*
X116745409Y-70259610D01*
X116745412Y-70259611D01*
X116981185Y-70336217D01*
X117226046Y-70375000D01*
X117473954Y-70375000D01*
X117718814Y-70336217D01*
X117954587Y-70259611D01*
X117954590Y-70259610D01*
X118175480Y-70147060D01*
X118272798Y-70076352D01*
X117786923Y-69590477D01*
X117923717Y-69499076D01*
X118049076Y-69373717D01*
X118140477Y-69236924D01*
X118626352Y-69722799D01*
X118626352Y-69722798D01*
X118697060Y-69625480D01*
X118809610Y-69404590D01*
X118809611Y-69404587D01*
X118886217Y-69168814D01*
X118925000Y-68923954D01*
X118925000Y-68676045D01*
X119975000Y-68676045D01*
X119975000Y-68923954D01*
X120013782Y-69168814D01*
X120090388Y-69404587D01*
X120090389Y-69404590D01*
X120202939Y-69625480D01*
X120273646Y-69722798D01*
X120273647Y-69722799D01*
X120759522Y-69236923D01*
X120850924Y-69373717D01*
X120976283Y-69499076D01*
X121113075Y-69590477D01*
X120627199Y-70076352D01*
X120724521Y-70147060D01*
X120724527Y-70147064D01*
X120945409Y-70259610D01*
X120945412Y-70259611D01*
X121181185Y-70336217D01*
X121426046Y-70375000D01*
X121673954Y-70375000D01*
X121918814Y-70336217D01*
X122154587Y-70259611D01*
X122154590Y-70259610D01*
X122375480Y-70147060D01*
X122472798Y-70076352D01*
X121986923Y-69590477D01*
X122123717Y-69499076D01*
X122249076Y-69373717D01*
X122340477Y-69236924D01*
X122826352Y-69722799D01*
X122826352Y-69722798D01*
X122897060Y-69625480D01*
X123009610Y-69404590D01*
X123009611Y-69404587D01*
X123086217Y-69168814D01*
X123125000Y-68923954D01*
X123125000Y-68676045D01*
X124175000Y-68676045D01*
X124175000Y-68923954D01*
X124213782Y-69168814D01*
X124290388Y-69404587D01*
X124290389Y-69404590D01*
X124402939Y-69625480D01*
X124473646Y-69722798D01*
X124473647Y-69722799D01*
X124959522Y-69236923D01*
X125050924Y-69373717D01*
X125176283Y-69499076D01*
X125313075Y-69590477D01*
X124827199Y-70076352D01*
X124924521Y-70147060D01*
X124924527Y-70147064D01*
X125145409Y-70259610D01*
X125145412Y-70259611D01*
X125381185Y-70336217D01*
X125626046Y-70375000D01*
X125873954Y-70375000D01*
X126118814Y-70336217D01*
X126354587Y-70259611D01*
X126354590Y-70259610D01*
X126575480Y-70147060D01*
X126672798Y-70076352D01*
X126186923Y-69590477D01*
X126323717Y-69499076D01*
X126449076Y-69373717D01*
X126540477Y-69236924D01*
X127026352Y-69722799D01*
X127026352Y-69722798D01*
X127097060Y-69625480D01*
X127209610Y-69404590D01*
X127209611Y-69404587D01*
X127286217Y-69168814D01*
X127325000Y-68923954D01*
X127325000Y-68676045D01*
X127286217Y-68431185D01*
X127209611Y-68195412D01*
X127209610Y-68195409D01*
X127097064Y-67974527D01*
X127097060Y-67974521D01*
X127026352Y-67877200D01*
X127026352Y-67877199D01*
X126540477Y-68363074D01*
X126449076Y-68226283D01*
X126323717Y-68100924D01*
X126186924Y-68009522D01*
X126672799Y-67523647D01*
X126672798Y-67523646D01*
X126575480Y-67452939D01*
X126354590Y-67340389D01*
X126354587Y-67340388D01*
X126118814Y-67263782D01*
X125873954Y-67225000D01*
X125626046Y-67225000D01*
X125381185Y-67263782D01*
X125145412Y-67340388D01*
X125145409Y-67340389D01*
X124924516Y-67452941D01*
X124827200Y-67523644D01*
X124827199Y-67523646D01*
X125313075Y-68009522D01*
X125176283Y-68100924D01*
X125050924Y-68226283D01*
X124959522Y-68363075D01*
X124473646Y-67877199D01*
X124473644Y-67877200D01*
X124402941Y-67974516D01*
X124290389Y-68195409D01*
X124290388Y-68195412D01*
X124213782Y-68431185D01*
X124175000Y-68676045D01*
X123125000Y-68676045D01*
X123086217Y-68431185D01*
X123009611Y-68195412D01*
X123009610Y-68195409D01*
X122897064Y-67974527D01*
X122897060Y-67974521D01*
X122826352Y-67877200D01*
X122826352Y-67877199D01*
X122340477Y-68363074D01*
X122249076Y-68226283D01*
X122123717Y-68100924D01*
X121986924Y-68009522D01*
X122472799Y-67523647D01*
X122472798Y-67523646D01*
X122375480Y-67452939D01*
X122154590Y-67340389D01*
X122154587Y-67340388D01*
X121918814Y-67263782D01*
X121673954Y-67225000D01*
X121426046Y-67225000D01*
X121181185Y-67263782D01*
X120945412Y-67340388D01*
X120945409Y-67340389D01*
X120724516Y-67452941D01*
X120627200Y-67523644D01*
X120627199Y-67523646D01*
X121113075Y-68009522D01*
X120976283Y-68100924D01*
X120850924Y-68226283D01*
X120759522Y-68363075D01*
X120273646Y-67877199D01*
X120273644Y-67877200D01*
X120202941Y-67974516D01*
X120090389Y-68195409D01*
X120090388Y-68195412D01*
X120013782Y-68431185D01*
X119975000Y-68676045D01*
X118925000Y-68676045D01*
X118886217Y-68431185D01*
X118809611Y-68195412D01*
X118809610Y-68195409D01*
X118697064Y-67974527D01*
X118697060Y-67974521D01*
X118626352Y-67877200D01*
X118626352Y-67877199D01*
X118140477Y-68363074D01*
X118049076Y-68226283D01*
X117923717Y-68100924D01*
X117786924Y-68009522D01*
X118272799Y-67523647D01*
X118272798Y-67523646D01*
X118175480Y-67452939D01*
X117954590Y-67340389D01*
X117954587Y-67340388D01*
X117718814Y-67263782D01*
X117473954Y-67225000D01*
X117226046Y-67225000D01*
X116981185Y-67263782D01*
X116745412Y-67340388D01*
X116745409Y-67340389D01*
X116524516Y-67452941D01*
X116427200Y-67523644D01*
X116427199Y-67523646D01*
X116913075Y-68009522D01*
X116776283Y-68100924D01*
X116650924Y-68226283D01*
X116559522Y-68363075D01*
X116073646Y-67877199D01*
X116073644Y-67877200D01*
X116002941Y-67974516D01*
X115890389Y-68195409D01*
X115890388Y-68195412D01*
X115813782Y-68431185D01*
X115775000Y-68676045D01*
X114042976Y-68676045D01*
X114017904Y-68550000D01*
X114725000Y-68550000D01*
X114725000Y-67677172D01*
X114724999Y-67677155D01*
X114718598Y-67617627D01*
X114718596Y-67617617D01*
X114717335Y-67614236D01*
X114668354Y-67482912D01*
X114668350Y-67482906D01*
X114582190Y-67367812D01*
X114582187Y-67367809D01*
X114467093Y-67281649D01*
X114467086Y-67281645D01*
X114332379Y-67231403D01*
X114332372Y-67231401D01*
X114272844Y-67225000D01*
X113400000Y-67225000D01*
X113400000Y-67932095D01*
X113238642Y-67900000D01*
X113061358Y-67900000D01*
X112900000Y-67932095D01*
X112900000Y-67225000D01*
X112027155Y-67225000D01*
X111967627Y-67231401D01*
X111967620Y-67231403D01*
X111832913Y-67281645D01*
X111832906Y-67281649D01*
X111717812Y-67367809D01*
X111717809Y-67367812D01*
X111631649Y-67482906D01*
X111631646Y-67482912D01*
X111581403Y-67617620D01*
X111581401Y-67617627D01*
X111575000Y-67677155D01*
X105483349Y-67677155D01*
X105326370Y-67520176D01*
X105125742Y-67374411D01*
X104904782Y-67261827D01*
X104668931Y-67185194D01*
X104668929Y-67185193D01*
X104668927Y-67185193D01*
X104424000Y-67146400D01*
X104423995Y-67146400D01*
X104176005Y-67146400D01*
X104176000Y-67146400D01*
X103931072Y-67185193D01*
X103695215Y-67261828D01*
X103474257Y-67374411D01*
X103432749Y-67404569D01*
X103273630Y-67520176D01*
X103273628Y-67520178D01*
X103273627Y-67520178D01*
X103098278Y-67695527D01*
X103098278Y-67695528D01*
X103098276Y-67695530D01*
X103035675Y-67781692D01*
X102952511Y-67896157D01*
X102839928Y-68117115D01*
X102763293Y-68352972D01*
X102724500Y-68597899D01*
X101675500Y-68597899D01*
X101636706Y-68352972D01*
X101636706Y-68352969D01*
X101560073Y-68117118D01*
X101447489Y-67896158D01*
X101301724Y-67695530D01*
X101126370Y-67520176D01*
X100925742Y-67374411D01*
X100704782Y-67261827D01*
X100468931Y-67185194D01*
X100468929Y-67185193D01*
X100468927Y-67185193D01*
X100224000Y-67146400D01*
X100223995Y-67146400D01*
X99976005Y-67146400D01*
X99976000Y-67146400D01*
X99731072Y-67185193D01*
X99495215Y-67261828D01*
X99274257Y-67374411D01*
X99232749Y-67404569D01*
X99073630Y-67520176D01*
X99073628Y-67520178D01*
X99073627Y-67520178D01*
X98898278Y-67695527D01*
X98898278Y-67695528D01*
X98898276Y-67695530D01*
X98835675Y-67781692D01*
X98752511Y-67896157D01*
X98639928Y-68117115D01*
X98563293Y-68352972D01*
X98524500Y-68597899D01*
X97475500Y-68597899D01*
X97436706Y-68352972D01*
X97436706Y-68352969D01*
X97360073Y-68117118D01*
X97247489Y-67896158D01*
X97101724Y-67695530D01*
X96926370Y-67520176D01*
X96725742Y-67374411D01*
X96504782Y-67261827D01*
X96268931Y-67185194D01*
X96268929Y-67185193D01*
X96268927Y-67185193D01*
X96024000Y-67146400D01*
X96023995Y-67146400D01*
X95776005Y-67146400D01*
X95776000Y-67146400D01*
X95531072Y-67185193D01*
X95295215Y-67261828D01*
X95074257Y-67374411D01*
X95032749Y-67404569D01*
X94873630Y-67520176D01*
X94873628Y-67520178D01*
X94873627Y-67520178D01*
X94698278Y-67695527D01*
X94698278Y-67695528D01*
X94698276Y-67695530D01*
X94635675Y-67781692D01*
X94552511Y-67896157D01*
X94439928Y-68117115D01*
X94363293Y-68352972D01*
X94324500Y-68597899D01*
X93275500Y-68597899D01*
X93236706Y-68352972D01*
X93236706Y-68352969D01*
X93160073Y-68117118D01*
X93047489Y-67896158D01*
X92901724Y-67695530D01*
X92726370Y-67520176D01*
X92525742Y-67374411D01*
X92304782Y-67261827D01*
X92068931Y-67185194D01*
X92068929Y-67185193D01*
X92068927Y-67185193D01*
X91824000Y-67146400D01*
X91823995Y-67146400D01*
X91576005Y-67146400D01*
X91576000Y-67146400D01*
X91331072Y-67185193D01*
X91095215Y-67261828D01*
X90874257Y-67374411D01*
X90832749Y-67404569D01*
X90673630Y-67520176D01*
X90673628Y-67520178D01*
X90673627Y-67520178D01*
X90498278Y-67695527D01*
X90498278Y-67695528D01*
X90498276Y-67695530D01*
X90435675Y-67781692D01*
X90352511Y-67896157D01*
X90239928Y-68117115D01*
X90163293Y-68352972D01*
X90124500Y-68597899D01*
X89075500Y-68597899D01*
X89036706Y-68352972D01*
X89036706Y-68352969D01*
X88960073Y-68117118D01*
X88847489Y-67896158D01*
X88701724Y-67695530D01*
X88526370Y-67520176D01*
X88325742Y-67374411D01*
X88104782Y-67261827D01*
X87868931Y-67185194D01*
X87868929Y-67185193D01*
X87868927Y-67185193D01*
X87624000Y-67146400D01*
X87623995Y-67146400D01*
X87376005Y-67146400D01*
X87376000Y-67146400D01*
X87131072Y-67185193D01*
X86895215Y-67261828D01*
X86674257Y-67374411D01*
X86632749Y-67404569D01*
X86473630Y-67520176D01*
X86473628Y-67520178D01*
X86473627Y-67520178D01*
X86298278Y-67695527D01*
X86298278Y-67695528D01*
X86298276Y-67695530D01*
X86235675Y-67781692D01*
X86152511Y-67896157D01*
X86039928Y-68117115D01*
X85963293Y-68352972D01*
X85924500Y-68597899D01*
X84874993Y-68597899D01*
X84836217Y-68353085D01*
X84759611Y-68117312D01*
X84759610Y-68117309D01*
X84647064Y-67896427D01*
X84647060Y-67896421D01*
X84576352Y-67799100D01*
X84576352Y-67799099D01*
X84090477Y-68284974D01*
X83999076Y-68148183D01*
X83873717Y-68022824D01*
X83736924Y-67931422D01*
X84222799Y-67445547D01*
X84222798Y-67445546D01*
X84125480Y-67374839D01*
X83904590Y-67262289D01*
X83904587Y-67262288D01*
X83668814Y-67185682D01*
X83423954Y-67146900D01*
X83176046Y-67146900D01*
X82931185Y-67185682D01*
X82695412Y-67262288D01*
X82695409Y-67262289D01*
X82474516Y-67374841D01*
X82377200Y-67445544D01*
X82377199Y-67445546D01*
X82863075Y-67931422D01*
X82726283Y-68022824D01*
X82600924Y-68148183D01*
X82509522Y-68284975D01*
X82023646Y-67799099D01*
X82023644Y-67799100D01*
X81952941Y-67896416D01*
X81840389Y-68117309D01*
X81840388Y-68117312D01*
X81763782Y-68353085D01*
X81725000Y-68597945D01*
X80675500Y-68597945D01*
X80675500Y-68597899D01*
X80636706Y-68352972D01*
X80636706Y-68352969D01*
X80560073Y-68117118D01*
X80447489Y-67896158D01*
X80301724Y-67695530D01*
X80126370Y-67520176D01*
X79925742Y-67374411D01*
X79704782Y-67261827D01*
X79468931Y-67185194D01*
X79468929Y-67185193D01*
X79468927Y-67185193D01*
X79224000Y-67146400D01*
X79223995Y-67146400D01*
X78976005Y-67146400D01*
X78976000Y-67146400D01*
X78731072Y-67185193D01*
X78495215Y-67261828D01*
X78274257Y-67374411D01*
X78232749Y-67404569D01*
X78073630Y-67520176D01*
X78073628Y-67520178D01*
X78073627Y-67520178D01*
X77898278Y-67695527D01*
X77898278Y-67695528D01*
X77898276Y-67695530D01*
X77835675Y-67781692D01*
X77752511Y-67896157D01*
X77639928Y-68117115D01*
X77563293Y-68352972D01*
X77524500Y-68597899D01*
X76474993Y-68597899D01*
X76436217Y-68353085D01*
X76359611Y-68117312D01*
X76359610Y-68117309D01*
X76247064Y-67896427D01*
X76247060Y-67896421D01*
X76176352Y-67799100D01*
X76176352Y-67799099D01*
X75690477Y-68284974D01*
X75599076Y-68148183D01*
X75473717Y-68022824D01*
X75336924Y-67931422D01*
X75822799Y-67445547D01*
X75822798Y-67445546D01*
X75725480Y-67374839D01*
X75504590Y-67262289D01*
X75504587Y-67262288D01*
X75268814Y-67185682D01*
X75023954Y-67146900D01*
X74776046Y-67146900D01*
X74531185Y-67185682D01*
X74295412Y-67262288D01*
X74295409Y-67262289D01*
X74074516Y-67374841D01*
X73977200Y-67445544D01*
X73977199Y-67445546D01*
X74463075Y-67931422D01*
X74326283Y-68022824D01*
X74200924Y-68148183D01*
X74109522Y-68284975D01*
X73623646Y-67799099D01*
X73623644Y-67799100D01*
X73552941Y-67896416D01*
X73440389Y-68117309D01*
X73440388Y-68117312D01*
X73363782Y-68353085D01*
X73325000Y-68597945D01*
X72275500Y-68597945D01*
X72275500Y-68597899D01*
X72236706Y-68352972D01*
X72236706Y-68352969D01*
X72160073Y-68117118D01*
X72047489Y-67896158D01*
X71901724Y-67695530D01*
X71726370Y-67520176D01*
X71525742Y-67374411D01*
X71304782Y-67261827D01*
X71068931Y-67185194D01*
X71068929Y-67185193D01*
X71068927Y-67185193D01*
X70824000Y-67146400D01*
X70823995Y-67146400D01*
X70576005Y-67146400D01*
X70576000Y-67146400D01*
X70331072Y-67185193D01*
X70095215Y-67261828D01*
X69874257Y-67374411D01*
X69832749Y-67404569D01*
X69673630Y-67520176D01*
X69673628Y-67520178D01*
X69673627Y-67520178D01*
X69498278Y-67695527D01*
X69498278Y-67695528D01*
X69498276Y-67695530D01*
X69435675Y-67781692D01*
X69352511Y-67896157D01*
X69239928Y-68117115D01*
X69163293Y-68352972D01*
X69124500Y-68597899D01*
X68074993Y-68597899D01*
X68036217Y-68353085D01*
X67959611Y-68117312D01*
X67959610Y-68117309D01*
X67847064Y-67896427D01*
X67847060Y-67896421D01*
X67776352Y-67799100D01*
X67776352Y-67799099D01*
X67290477Y-68284974D01*
X67199076Y-68148183D01*
X67073717Y-68022824D01*
X66936924Y-67931422D01*
X67422799Y-67445547D01*
X67422798Y-67445546D01*
X67325480Y-67374839D01*
X67104590Y-67262289D01*
X67104587Y-67262288D01*
X66868814Y-67185682D01*
X66623954Y-67146900D01*
X66376046Y-67146900D01*
X66131185Y-67185682D01*
X65895412Y-67262288D01*
X65895409Y-67262289D01*
X65674516Y-67374841D01*
X65577200Y-67445544D01*
X65577199Y-67445546D01*
X66063075Y-67931422D01*
X65926283Y-68022824D01*
X65800924Y-68148183D01*
X65709522Y-68284975D01*
X65223646Y-67799099D01*
X65223644Y-67799100D01*
X65152941Y-67896416D01*
X65040389Y-68117309D01*
X65040388Y-68117312D01*
X64963782Y-68353085D01*
X64925000Y-68597945D01*
X63875500Y-68597945D01*
X63875500Y-68597899D01*
X63836706Y-68352972D01*
X63836706Y-68352969D01*
X63760073Y-68117118D01*
X63647489Y-67896158D01*
X63501724Y-67695530D01*
X63326370Y-67520176D01*
X63125742Y-67374411D01*
X62904782Y-67261827D01*
X62668931Y-67185194D01*
X62668929Y-67185193D01*
X62668927Y-67185193D01*
X62424000Y-67146400D01*
X62423995Y-67146400D01*
X62176005Y-67146400D01*
X62176000Y-67146400D01*
X61931072Y-67185193D01*
X61695215Y-67261828D01*
X61474257Y-67374411D01*
X61432749Y-67404569D01*
X61273630Y-67520176D01*
X61273628Y-67520178D01*
X61273627Y-67520178D01*
X61098278Y-67695527D01*
X61098278Y-67695528D01*
X61098276Y-67695530D01*
X61035675Y-67781692D01*
X60952511Y-67896157D01*
X60839928Y-68117115D01*
X60763293Y-68352972D01*
X60724500Y-68597899D01*
X59675499Y-68597899D01*
X59675499Y-67599028D01*
X59669091Y-67539417D01*
X59663209Y-67523647D01*
X59618797Y-67404571D01*
X59618793Y-67404564D01*
X59532547Y-67289355D01*
X59532544Y-67289352D01*
X59417335Y-67203106D01*
X59417328Y-67203102D01*
X59282482Y-67152808D01*
X59282483Y-67152808D01*
X59222883Y-67146401D01*
X59222881Y-67146400D01*
X59222873Y-67146400D01*
X59222864Y-67146400D01*
X56977129Y-67146400D01*
X56977123Y-67146401D01*
X56917516Y-67152808D01*
X56782671Y-67203102D01*
X56782664Y-67203106D01*
X56667455Y-67289352D01*
X56667452Y-67289355D01*
X56581206Y-67404564D01*
X56581202Y-67404571D01*
X56530908Y-67539417D01*
X56524501Y-67599016D01*
X56524501Y-67599023D01*
X56524500Y-67599035D01*
X44250500Y-67599035D01*
X44250500Y-61307158D01*
X56349500Y-61307158D01*
X56349500Y-61536641D01*
X56359781Y-61614727D01*
X56379452Y-61764138D01*
X56379453Y-61764140D01*
X56438842Y-61985787D01*
X56526650Y-62197776D01*
X56526657Y-62197790D01*
X56641392Y-62396517D01*
X56781081Y-62578561D01*
X56781089Y-62578570D01*
X56943330Y-62740811D01*
X56943338Y-62740818D01*
X57125382Y-62880507D01*
X57125385Y-62880508D01*
X57125388Y-62880511D01*
X57324112Y-62995244D01*
X57324117Y-62995246D01*
X57324123Y-62995249D01*
X57415480Y-63033090D01*
X57536113Y-63083058D01*
X57757762Y-63142448D01*
X57985266Y-63172400D01*
X57985273Y-63172400D01*
X58214727Y-63172400D01*
X58214734Y-63172400D01*
X58442238Y-63142448D01*
X58663887Y-63083058D01*
X58875888Y-62995244D01*
X59074612Y-62880511D01*
X59256661Y-62740819D01*
X59256665Y-62740814D01*
X59256670Y-62740811D01*
X59418911Y-62578570D01*
X59418914Y-62578565D01*
X59418919Y-62578561D01*
X59558611Y-62396512D01*
X59673344Y-62197788D01*
X59761158Y-61985787D01*
X59820548Y-61764138D01*
X59850500Y-61536634D01*
X59850500Y-61307166D01*
X59850499Y-61307158D01*
X102549500Y-61307158D01*
X102549500Y-61536641D01*
X102559781Y-61614727D01*
X102579452Y-61764138D01*
X102579453Y-61764140D01*
X102638842Y-61985787D01*
X102726650Y-62197776D01*
X102726657Y-62197790D01*
X102841392Y-62396517D01*
X102981081Y-62578561D01*
X102981089Y-62578570D01*
X103143330Y-62740811D01*
X103143338Y-62740818D01*
X103325382Y-62880507D01*
X103325385Y-62880508D01*
X103325388Y-62880511D01*
X103524112Y-62995244D01*
X103524117Y-62995246D01*
X103524123Y-62995249D01*
X103615480Y-63033090D01*
X103736113Y-63083058D01*
X103957762Y-63142448D01*
X104185266Y-63172400D01*
X104185273Y-63172400D01*
X104414727Y-63172400D01*
X104414734Y-63172400D01*
X104642238Y-63142448D01*
X104863887Y-63083058D01*
X105075888Y-62995244D01*
X105274612Y-62880511D01*
X105456661Y-62740819D01*
X105456665Y-62740814D01*
X105456670Y-62740811D01*
X105618911Y-62578570D01*
X105618914Y-62578565D01*
X105618919Y-62578561D01*
X105758611Y-62396512D01*
X105873344Y-62197788D01*
X105961158Y-61985787D01*
X106020548Y-61764138D01*
X106050500Y-61536634D01*
X106050500Y-61385258D01*
X111399500Y-61385258D01*
X111399500Y-61614741D01*
X111419170Y-61764138D01*
X111429452Y-61842238D01*
X111488842Y-62063887D01*
X111576650Y-62275876D01*
X111576657Y-62275890D01*
X111691392Y-62474617D01*
X111831081Y-62656661D01*
X111831089Y-62656670D01*
X111993330Y-62818911D01*
X111993338Y-62818918D01*
X112175382Y-62958607D01*
X112175385Y-62958608D01*
X112175388Y-62958611D01*
X112374112Y-63073344D01*
X112374117Y-63073346D01*
X112374123Y-63073349D01*
X112465480Y-63111190D01*
X112586113Y-63161158D01*
X112807762Y-63220548D01*
X113035266Y-63250500D01*
X113035273Y-63250500D01*
X113264727Y-63250500D01*
X113264734Y-63250500D01*
X113492238Y-63220548D01*
X113713887Y-63161158D01*
X113925888Y-63073344D01*
X114124612Y-62958611D01*
X114306661Y-62818919D01*
X114306665Y-62818914D01*
X114306670Y-62818911D01*
X114468911Y-62656670D01*
X114468914Y-62656665D01*
X114468919Y-62656661D01*
X114608611Y-62474612D01*
X114723344Y-62275888D01*
X114811158Y-62063887D01*
X114870548Y-61842238D01*
X114900500Y-61614734D01*
X114900500Y-61385266D01*
X114900499Y-61385258D01*
X123999500Y-61385258D01*
X123999500Y-61614741D01*
X124019170Y-61764138D01*
X124029452Y-61842238D01*
X124088842Y-62063887D01*
X124176650Y-62275876D01*
X124176657Y-62275890D01*
X124291392Y-62474617D01*
X124431081Y-62656661D01*
X124431089Y-62656670D01*
X124593330Y-62818911D01*
X124593338Y-62818918D01*
X124775382Y-62958607D01*
X124775385Y-62958608D01*
X124775388Y-62958611D01*
X124974112Y-63073344D01*
X124974117Y-63073346D01*
X124974123Y-63073349D01*
X125065480Y-63111190D01*
X125186113Y-63161158D01*
X125407762Y-63220548D01*
X125635266Y-63250500D01*
X125635273Y-63250500D01*
X125864727Y-63250500D01*
X125864734Y-63250500D01*
X126092238Y-63220548D01*
X126313887Y-63161158D01*
X126525888Y-63073344D01*
X126724612Y-62958611D01*
X126906661Y-62818919D01*
X126906665Y-62818914D01*
X126906670Y-62818911D01*
X127068911Y-62656670D01*
X127068914Y-62656665D01*
X127068919Y-62656661D01*
X127208611Y-62474612D01*
X127323344Y-62275888D01*
X127411158Y-62063887D01*
X127470548Y-61842238D01*
X127500500Y-61614734D01*
X127500500Y-61385266D01*
X127470548Y-61157762D01*
X127411158Y-60936113D01*
X127323344Y-60724112D01*
X127208611Y-60525388D01*
X127208608Y-60525385D01*
X127208607Y-60525382D01*
X127068918Y-60343338D01*
X127068911Y-60343330D01*
X126906670Y-60181089D01*
X126906661Y-60181081D01*
X126724617Y-60041392D01*
X126525890Y-59926657D01*
X126525876Y-59926650D01*
X126313887Y-59838842D01*
X126092238Y-59779452D01*
X126054215Y-59774446D01*
X125864741Y-59749500D01*
X125864734Y-59749500D01*
X125635266Y-59749500D01*
X125635258Y-59749500D01*
X125418715Y-59778009D01*
X125407762Y-59779452D01*
X125314076Y-59804554D01*
X125186112Y-59838842D01*
X124974123Y-59926650D01*
X124974109Y-59926657D01*
X124775382Y-60041392D01*
X124593338Y-60181081D01*
X124431081Y-60343338D01*
X124291392Y-60525382D01*
X124176657Y-60724109D01*
X124176650Y-60724123D01*
X124088842Y-60936112D01*
X124029453Y-61157759D01*
X124029451Y-61157770D01*
X123999500Y-61385258D01*
X114900499Y-61385258D01*
X114870548Y-61157762D01*
X114811158Y-60936113D01*
X114723344Y-60724112D01*
X114608611Y-60525388D01*
X114608608Y-60525385D01*
X114608607Y-60525382D01*
X114468918Y-60343338D01*
X114468911Y-60343330D01*
X114306670Y-60181089D01*
X114306661Y-60181081D01*
X114124617Y-60041392D01*
X113925890Y-59926657D01*
X113925876Y-59926650D01*
X113713887Y-59838842D01*
X113492238Y-59779452D01*
X113454215Y-59774446D01*
X113264741Y-59749500D01*
X113264734Y-59749500D01*
X113035266Y-59749500D01*
X113035258Y-59749500D01*
X112818715Y-59778009D01*
X112807762Y-59779452D01*
X112714076Y-59804554D01*
X112586112Y-59838842D01*
X112374123Y-59926650D01*
X112374109Y-59926657D01*
X112175382Y-60041392D01*
X111993338Y-60181081D01*
X111831081Y-60343338D01*
X111691392Y-60525382D01*
X111576657Y-60724109D01*
X111576650Y-60724123D01*
X111488842Y-60936112D01*
X111429453Y-61157759D01*
X111429451Y-61157770D01*
X111399500Y-61385258D01*
X106050500Y-61385258D01*
X106050500Y-61307166D01*
X106020548Y-61079662D01*
X105961158Y-60858013D01*
X105873344Y-60646012D01*
X105758611Y-60447288D01*
X105758608Y-60447285D01*
X105758607Y-60447282D01*
X105618918Y-60265238D01*
X105618911Y-60265230D01*
X105456670Y-60102989D01*
X105456661Y-60102981D01*
X105274617Y-59963292D01*
X105075890Y-59848557D01*
X105075876Y-59848550D01*
X104863887Y-59760742D01*
X104642238Y-59701352D01*
X104604215Y-59696346D01*
X104414741Y-59671400D01*
X104414734Y-59671400D01*
X104185266Y-59671400D01*
X104185258Y-59671400D01*
X103968715Y-59699909D01*
X103957762Y-59701352D01*
X103864076Y-59726454D01*
X103736112Y-59760742D01*
X103524123Y-59848550D01*
X103524109Y-59848557D01*
X103325382Y-59963292D01*
X103143338Y-60102981D01*
X102981081Y-60265238D01*
X102841392Y-60447282D01*
X102726657Y-60646009D01*
X102726650Y-60646023D01*
X102638842Y-60858012D01*
X102579453Y-61079659D01*
X102579451Y-61079670D01*
X102549500Y-61307158D01*
X59850499Y-61307158D01*
X59820548Y-61079662D01*
X59761158Y-60858013D01*
X59673344Y-60646012D01*
X59558611Y-60447288D01*
X59558608Y-60447285D01*
X59558607Y-60447282D01*
X59418918Y-60265238D01*
X59418911Y-60265230D01*
X59256670Y-60102989D01*
X59256661Y-60102981D01*
X59074617Y-59963292D01*
X58875890Y-59848557D01*
X58875876Y-59848550D01*
X58663887Y-59760742D01*
X58442238Y-59701352D01*
X58404215Y-59696346D01*
X58214741Y-59671400D01*
X58214734Y-59671400D01*
X57985266Y-59671400D01*
X57985258Y-59671400D01*
X57768715Y-59699909D01*
X57757762Y-59701352D01*
X57664076Y-59726454D01*
X57536112Y-59760742D01*
X57324123Y-59848550D01*
X57324109Y-59848557D01*
X57125382Y-59963292D01*
X56943338Y-60102981D01*
X56781081Y-60265238D01*
X56641392Y-60447282D01*
X56526657Y-60646009D01*
X56526650Y-60646023D01*
X56438842Y-60858012D01*
X56379453Y-61079659D01*
X56379451Y-61079670D01*
X56349500Y-61307158D01*
X44250500Y-61307158D01*
X44250500Y-54624500D01*
X44270185Y-54557461D01*
X44322989Y-54511706D01*
X44374500Y-54500500D01*
X136375500Y-54500500D01*
X136442539Y-54520185D01*
G37*
%TD.AperFunction*%
M02*
