%TF.GenerationSoftware,KiCad,Pcbnew,10.0.5*%
%TF.CreationDate,2026-08-08T21:13:25-04:00*%
%TF.ProjectId,360_atx_power_board,3336305f-6174-4785-9f70-6f7765725f62,rev?*%
%TF.SameCoordinates,Original*%
%TF.FileFunction,Copper,L2,Inr*%
%TF.FilePolarity,Positive*%
%FSLAX46Y46*%
G04 Gerber Fmt 4.6, Leading zero omitted, Abs format (unit mm)*
G04 Created by KiCad (PCBNEW 10.0.5) date 2026-08-08 21:13:25*
%MOMM*%
%LPD*%
G01*
G04 APERTURE LIST*
G04 Aperture macros list*
%AMRoundRect*
0 Rectangle with rounded corners*
0 $1 Rounding radius*
0 $2 $3 $4 $5 $6 $7 $8 $9 X,Y pos of 4 corners*
0 Add a 4 corners polygon primitive as box body*
4,1,4,$2,$3,$4,$5,$6,$7,$8,$9,$2,$3,0*
0 Add four circle primitives for the rounded corners*
1,1,$1+$1,$2,$3*
1,1,$1+$1,$4,$5*
1,1,$1+$1,$6,$7*
1,1,$1+$1,$8,$9*
0 Add four rect primitives between the rounded corners*
20,1,$1+$1,$2,$3,$4,$5,0*
20,1,$1+$1,$4,$5,$6,$7,0*
20,1,$1+$1,$6,$7,$8,$9,0*
20,1,$1+$1,$8,$9,$2,$3,0*%
G04 Aperture macros list end*
%TA.AperFunction,ComponentPad*%
%ADD10R,2.150000X2.150000*%
%TD*%
%TA.AperFunction,ComponentPad*%
%ADD11C,2.150000*%
%TD*%
%TA.AperFunction,ComponentPad*%
%ADD12RoundRect,0.250000X-1.050000X-1.050000X1.050000X-1.050000X1.050000X1.050000X-1.050000X1.050000X0*%
%TD*%
%TA.AperFunction,ComponentPad*%
%ADD13C,2.600000*%
%TD*%
%TA.AperFunction,ComponentPad*%
%ADD14C,5.500000*%
%TD*%
%TA.AperFunction,ComponentPad*%
%ADD15C,2.400000*%
%TD*%
%TA.AperFunction,ComponentPad*%
%ADD16R,2.775000X2.775000*%
%TD*%
%TA.AperFunction,ComponentPad*%
%ADD17C,2.775000*%
%TD*%
%TA.AperFunction,ComponentPad*%
%ADD18R,1.530000X1.530000*%
%TD*%
%TA.AperFunction,ComponentPad*%
%ADD19C,1.550000*%
%TD*%
%TA.AperFunction,ComponentPad*%
%ADD20R,2.000000X2.000000*%
%TD*%
%TA.AperFunction,ComponentPad*%
%ADD21C,2.000000*%
%TD*%
%TA.AperFunction,ViaPad*%
%ADD22C,0.600000*%
%TD*%
G04 APERTURE END LIST*
D10*
X113150000Y-68800000D03*
D11*
X117350000Y-68800000D03*
X121550000Y-68800000D03*
X125750000Y-68800000D03*
X113150000Y-74300000D03*
X117350000Y-74300000D03*
X121550000Y-74300000D03*
X125750000Y-74300000D03*
D12*
X76430000Y-106250000D03*
D13*
X81510000Y-106250000D03*
X86590000Y-106250000D03*
X91670000Y-106250000D03*
X96750000Y-106250000D03*
X101830000Y-106250000D03*
D14*
X47500000Y-57500000D03*
X133500000Y-57500000D03*
D15*
X89015000Y-93550000D03*
X102485000Y-93550000D03*
X89015000Y-96950000D03*
X102485000Y-96950000D03*
X80485000Y-96950000D03*
X67015000Y-96950000D03*
X80485000Y-93550000D03*
X67015000Y-93550000D03*
D16*
X52000000Y-84500000D03*
D17*
X56700000Y-84500000D03*
X61400000Y-84500000D03*
D16*
X120250000Y-97000000D03*
D17*
X115550000Y-97000000D03*
X110850000Y-97000000D03*
D14*
X133500000Y-110250000D03*
D18*
X127745000Y-91348000D03*
D19*
X127745000Y-93888000D03*
X127745000Y-96428000D03*
X127745000Y-98968000D03*
D10*
X58100000Y-68721900D03*
D11*
X62300000Y-68721900D03*
X66500000Y-68721900D03*
X70700000Y-68721900D03*
X74900000Y-68721900D03*
X79100000Y-68721900D03*
X83300000Y-68721900D03*
X87500000Y-68721900D03*
X91700000Y-68721900D03*
X95900000Y-68721900D03*
X100100000Y-68721900D03*
X104300000Y-68721900D03*
X58100000Y-74221900D03*
X62300000Y-74221900D03*
X66500000Y-74221900D03*
X70700000Y-74221900D03*
X74900000Y-74221900D03*
X79100000Y-74221900D03*
X83300000Y-74221900D03*
X87500000Y-74221900D03*
X91700000Y-74221900D03*
X95900000Y-74221900D03*
X100100000Y-74221900D03*
X104300000Y-74221900D03*
D14*
X47500000Y-110250000D03*
D20*
X109270000Y-104500000D03*
D21*
X109270000Y-109580000D03*
D22*
X99675000Y-82925000D03*
X89000000Y-76500000D03*
X55000000Y-98000000D03*
X80400000Y-77400000D03*
X66378100Y-82500000D03*
X48200000Y-104600000D03*
X52200000Y-100000000D03*
X56000000Y-91200000D03*
%TA.AperFunction,Conductor*%
G36*
X136392606Y-54505523D02*
G01*
X136407604Y-54509927D01*
X136466355Y-54547672D01*
X136467542Y-54549041D01*
X136495018Y-54603902D01*
X136496663Y-54611460D01*
X136499500Y-54637831D01*
X136499500Y-113107670D01*
X136494475Y-113142614D01*
X136490070Y-113157612D01*
X136452327Y-113216355D01*
X136450958Y-113217542D01*
X136396097Y-113245018D01*
X136388539Y-113246663D01*
X136362168Y-113249500D01*
X44392330Y-113249500D01*
X44357389Y-113244475D01*
X44342390Y-113240070D01*
X44283644Y-113202327D01*
X44282457Y-113200958D01*
X44254977Y-113146083D01*
X44253332Y-113138521D01*
X44250500Y-113112168D01*
X44250500Y-60871817D01*
X47244500Y-60871817D01*
X47244500Y-103724522D01*
X47262505Y-103858228D01*
X47262507Y-103858239D01*
X47279858Y-103921496D01*
X47279860Y-103921502D01*
X47332576Y-104045654D01*
X47332583Y-104045668D01*
X47334916Y-104049601D01*
X47335267Y-104050201D01*
X47335292Y-104050238D01*
X47425574Y-104162269D01*
X47425575Y-104162270D01*
X47426502Y-104163133D01*
X47427001Y-104163598D01*
X47427333Y-104164157D01*
X47428593Y-104165511D01*
X47428298Y-104165785D01*
X47462650Y-104223689D01*
X47460152Y-104293514D01*
X47457062Y-104301798D01*
X47430264Y-104366497D01*
X47430257Y-104366527D01*
X47399500Y-104521150D01*
X47399500Y-104521153D01*
X47399500Y-104678846D01*
X47399500Y-104678848D01*
X47399499Y-104678848D01*
X47430257Y-104833471D01*
X47430265Y-104833505D01*
X47457496Y-104899247D01*
X47464965Y-104968716D01*
X47436649Y-105027900D01*
X47371453Y-105103141D01*
X47371447Y-105103150D01*
X47333681Y-105161916D01*
X47333670Y-105161936D01*
X47273911Y-105292790D01*
X47270001Y-105306106D01*
X47269993Y-105306136D01*
X47254666Y-105376595D01*
X47254666Y-105376596D01*
X47249644Y-105411526D01*
X47249643Y-105411537D01*
X47244500Y-105483462D01*
X47244500Y-106885743D01*
X47246215Y-106927352D01*
X47247894Y-106947681D01*
X47253092Y-106989405D01*
X47253431Y-106991433D01*
X47253435Y-106991452D01*
X47257709Y-107006437D01*
X47261874Y-107028364D01*
X47262573Y-107035504D01*
X47262576Y-107035516D01*
X47271874Y-107058597D01*
X47276097Y-107070906D01*
X47277794Y-107076853D01*
X47277739Y-107083944D01*
X47284380Y-107100082D01*
X47284389Y-107100102D01*
X47284511Y-107100399D01*
X47284512Y-107100402D01*
X47286187Y-107104475D01*
X47305579Y-107151629D01*
X47305648Y-107151772D01*
X47360499Y-107251438D01*
X47360502Y-107251442D01*
X47363410Y-107255551D01*
X47399839Y-107293981D01*
X47411555Y-107306341D01*
X47418863Y-107314781D01*
X47429644Y-107328428D01*
X47440592Y-107342287D01*
X47440596Y-107342290D01*
X47443336Y-107344892D01*
X47458905Y-107357209D01*
X47458926Y-107357227D01*
X47506231Y-107394653D01*
X47517167Y-107403306D01*
X47641536Y-107475605D01*
X47656030Y-107481458D01*
X47699083Y-107495363D01*
X47724649Y-107503620D01*
X47724652Y-107503621D01*
X47724654Y-107503621D01*
X47724668Y-107503626D01*
X47758945Y-107512050D01*
X47758957Y-107512052D01*
X47758961Y-107512053D01*
X47804740Y-107519891D01*
X47830039Y-107524223D01*
X47897206Y-107530838D01*
X47909224Y-107532620D01*
X48161791Y-107582857D01*
X48173576Y-107585809D01*
X48420047Y-107660575D01*
X48420054Y-107660577D01*
X48431512Y-107664677D01*
X48669427Y-107763225D01*
X48680411Y-107768419D01*
X48907559Y-107889831D01*
X48917951Y-107896061D01*
X49132116Y-108039161D01*
X49141877Y-108046400D01*
X49340960Y-108209785D01*
X49349976Y-108217957D01*
X49532040Y-108400021D01*
X49540213Y-108409038D01*
X49703596Y-108608122D01*
X49710844Y-108617895D01*
X49853919Y-108832022D01*
X49860175Y-108842460D01*
X49981571Y-109069575D01*
X49986774Y-109080575D01*
X50085321Y-109318488D01*
X50089420Y-109329945D01*
X50164180Y-109576393D01*
X50167137Y-109588198D01*
X50192652Y-109716474D01*
X50192657Y-109716503D01*
X50195604Y-109731318D01*
X50197107Y-109738869D01*
X50200947Y-109750234D01*
X50238870Y-109862485D01*
X50238871Y-109862488D01*
X50266781Y-109919503D01*
X50266792Y-109919521D01*
X50333367Y-110020108D01*
X50338813Y-110028335D01*
X50343625Y-110033887D01*
X50452339Y-110128073D01*
X50511101Y-110165834D01*
X50511107Y-110165836D01*
X50511109Y-110165838D01*
X50519277Y-110169568D01*
X50641937Y-110225586D01*
X50656936Y-110229991D01*
X50727420Y-110245327D01*
X50762361Y-110250352D01*
X50834319Y-110255500D01*
X71120490Y-110255500D01*
X71120500Y-110255500D01*
X71227956Y-110243947D01*
X71279467Y-110232741D01*
X71382004Y-110198613D01*
X71427198Y-110169567D01*
X71494236Y-110149882D01*
X71545751Y-110161088D01*
X71664534Y-110215335D01*
X71664541Y-110215338D01*
X71731580Y-110235023D01*
X71731584Y-110235024D01*
X71874000Y-110255500D01*
X98375990Y-110255500D01*
X98376000Y-110255500D01*
X98483456Y-110243947D01*
X98534967Y-110232741D01*
X98637504Y-110198613D01*
X98682698Y-110169567D01*
X98749736Y-110149882D01*
X98801251Y-110161088D01*
X98920034Y-110215335D01*
X98920041Y-110215338D01*
X98987080Y-110235023D01*
X98987084Y-110235024D01*
X99129500Y-110255500D01*
X107632168Y-110255500D01*
X107686238Y-110252600D01*
X107712609Y-110249763D01*
X107766044Y-110241099D01*
X107773602Y-110239454D01*
X107797381Y-110231060D01*
X107867148Y-110227308D01*
X107927870Y-110261872D01*
X107949138Y-110291695D01*
X107987086Y-110366172D01*
X107987087Y-110366174D01*
X108047337Y-110449103D01*
X108047339Y-110449105D01*
X108047339Y-110449104D01*
X108047340Y-110449105D01*
X108623695Y-109872749D01*
X108685016Y-109839266D01*
X108754707Y-109844250D01*
X108810641Y-109886121D01*
X108818759Y-109898429D01*
X108823183Y-109906091D01*
X108829887Y-109917704D01*
X108829890Y-109917708D01*
X108932292Y-110020110D01*
X108932293Y-110020111D01*
X108932295Y-110020112D01*
X108951563Y-110031236D01*
X108999780Y-110081802D01*
X109013004Y-110150409D01*
X108987037Y-110215274D01*
X108977246Y-110226305D01*
X108400892Y-110802657D01*
X108400893Y-110802657D01*
X108400893Y-110802658D01*
X108483828Y-110862914D01*
X108694197Y-110970102D01*
X108825782Y-111012857D01*
X108855252Y-111033007D01*
X108918749Y-111043064D01*
X108918752Y-111043065D01*
X108918751Y-111043065D01*
X109151948Y-111080000D01*
X109388051Y-111080000D01*
X109388052Y-111080000D01*
X109621247Y-111043065D01*
X109845802Y-110970102D01*
X110056163Y-110862918D01*
X110056169Y-110862914D01*
X110106509Y-110826340D01*
X110133247Y-110816799D01*
X110139105Y-110802657D01*
X109562752Y-110226306D01*
X109529267Y-110164983D01*
X109534251Y-110095292D01*
X109576122Y-110039358D01*
X109588429Y-110031240D01*
X109607708Y-110020110D01*
X109710110Y-109917708D01*
X109721235Y-109898437D01*
X109771800Y-109850220D01*
X109840407Y-109836995D01*
X109905272Y-109862961D01*
X109916305Y-109872753D01*
X110492657Y-110449105D01*
X110492657Y-110449104D01*
X110492658Y-110449105D01*
X110492658Y-110449104D01*
X110506126Y-110443525D01*
X110512343Y-110422355D01*
X110516340Y-110416509D01*
X110524103Y-110405822D01*
X110552914Y-110366169D01*
X110552918Y-110366163D01*
X110590254Y-110292885D01*
X110638227Y-110242091D01*
X110706048Y-110225295D01*
X110732726Y-110229718D01*
X110732797Y-110229442D01*
X110734921Y-110229983D01*
X110734947Y-110229991D01*
X110805431Y-110245327D01*
X110840372Y-110250352D01*
X110912330Y-110255500D01*
X130173356Y-110255500D01*
X130173360Y-110255500D01*
X130302776Y-110238653D01*
X130364152Y-110222398D01*
X130484941Y-110172980D01*
X130490931Y-110169568D01*
X130491321Y-110169346D01*
X130495836Y-110165838D01*
X130604905Y-110081093D01*
X130653402Y-110030827D01*
X130737527Y-109914163D01*
X130744773Y-109900312D01*
X130761239Y-109862488D01*
X130773556Y-109834195D01*
X130773559Y-109834186D01*
X130773565Y-109834173D01*
X130785309Y-109800885D01*
X130804394Y-109731318D01*
X130832860Y-109588196D01*
X130835811Y-109576416D01*
X130910579Y-109329931D01*
X130914677Y-109318482D01*
X131013222Y-109080574D01*
X131018425Y-109069574D01*
X131139818Y-108842465D01*
X131146067Y-108832036D01*
X131289155Y-108617888D01*
X131296389Y-108608134D01*
X131459795Y-108409024D01*
X131467948Y-108400029D01*
X131650030Y-108217947D01*
X131659026Y-108209794D01*
X131858130Y-108046391D01*
X131867877Y-108039162D01*
X132082045Y-107896061D01*
X132092454Y-107889823D01*
X132319571Y-107768426D01*
X132330555Y-107763231D01*
X132568499Y-107664670D01*
X132579937Y-107660578D01*
X132776456Y-107600967D01*
X132776466Y-107600964D01*
X132826392Y-107585817D01*
X132838165Y-107582868D01*
X132988857Y-107552893D01*
X133112470Y-107511135D01*
X133169484Y-107483228D01*
X133278292Y-107411221D01*
X133283845Y-107406409D01*
X133378047Y-107297694D01*
X133415816Y-107238928D01*
X133475583Y-107108073D01*
X133479988Y-107093075D01*
X133495328Y-107022576D01*
X133500353Y-106987632D01*
X133505500Y-106915680D01*
X133505500Y-60826638D01*
X133488656Y-60697232D01*
X133472404Y-60635862D01*
X133422996Y-60515085D01*
X133419361Y-60508703D01*
X133331105Y-60395108D01*
X133280833Y-60346603D01*
X133164148Y-60262463D01*
X133150296Y-60255217D01*
X133150294Y-60255216D01*
X133150290Y-60255214D01*
X133084168Y-60226431D01*
X133084167Y-60226430D01*
X133050903Y-60214695D01*
X133050892Y-60214691D01*
X133050887Y-60214690D01*
X133014442Y-60204691D01*
X132981324Y-60195606D01*
X132981295Y-60195599D01*
X132838195Y-60167136D01*
X132826390Y-60164180D01*
X132579941Y-60089420D01*
X132568485Y-60085320D01*
X132330577Y-59986776D01*
X132319576Y-59981573D01*
X132092452Y-59860172D01*
X132082015Y-59853916D01*
X131867906Y-59710854D01*
X131858131Y-59703605D01*
X131659042Y-59540217D01*
X131650026Y-59532045D01*
X131467958Y-59349977D01*
X131459786Y-59340961D01*
X131296393Y-59141868D01*
X131289154Y-59132107D01*
X131146066Y-58917960D01*
X131139828Y-58907552D01*
X131018429Y-58680430D01*
X131013226Y-58669430D01*
X130914676Y-58431510D01*
X130910576Y-58420052D01*
X130835810Y-58173578D01*
X130832858Y-58161793D01*
X130802895Y-58011150D01*
X130761138Y-57887533D01*
X130742612Y-57849683D01*
X130733233Y-57830521D01*
X130732461Y-57829354D01*
X130661222Y-57721707D01*
X130656410Y-57716154D01*
X130656406Y-57716151D01*
X130656404Y-57716148D01*
X130547681Y-57621944D01*
X130547679Y-57621942D01*
X130547674Y-57621939D01*
X130547669Y-57621935D01*
X130488912Y-57584175D01*
X130488907Y-57584172D01*
X130488905Y-57584171D01*
X130488899Y-57584168D01*
X130488887Y-57584162D01*
X130358047Y-57524409D01*
X130358027Y-57524402D01*
X130343049Y-57520004D01*
X130343047Y-57520003D01*
X130272556Y-57504667D01*
X130237621Y-57499645D01*
X130165683Y-57494500D01*
X130165681Y-57494500D01*
X50826640Y-57494500D01*
X50748502Y-57504667D01*
X50697276Y-57511332D01*
X50635929Y-57527572D01*
X50635915Y-57527576D01*
X50515143Y-57576970D01*
X50515140Y-57576972D01*
X50508750Y-57580611D01*
X50395148Y-57668859D01*
X50346624Y-57719143D01*
X50346624Y-57719144D01*
X50262478Y-57835825D01*
X50262468Y-57835842D01*
X50255229Y-57849680D01*
X50255228Y-57849683D01*
X50226435Y-57915823D01*
X50214693Y-57949104D01*
X50214690Y-57949113D01*
X50195606Y-58018676D01*
X50167136Y-58161804D01*
X50164180Y-58173608D01*
X50089421Y-58420053D01*
X50085321Y-58431510D01*
X49986774Y-58669423D01*
X49981571Y-58680423D01*
X49860177Y-58907536D01*
X49853921Y-58917974D01*
X49710840Y-59132110D01*
X49703591Y-59141884D01*
X49540224Y-59340947D01*
X49532052Y-59349963D01*
X49349963Y-59532052D01*
X49340947Y-59540224D01*
X49141884Y-59703591D01*
X49132110Y-59710840D01*
X48917974Y-59853921D01*
X48907536Y-59860177D01*
X48680423Y-59981571D01*
X48669423Y-59986774D01*
X48431507Y-60085322D01*
X48420049Y-60089422D01*
X48173612Y-60164178D01*
X48161808Y-60167134D01*
X47909245Y-60217372D01*
X47897209Y-60219158D01*
X47822493Y-60226517D01*
X47781143Y-60232323D01*
X47761030Y-60236000D01*
X47720442Y-60245160D01*
X47718453Y-60245696D01*
X47612591Y-60287477D01*
X47612588Y-60287479D01*
X47563689Y-60313480D01*
X47563666Y-60313495D01*
X47469975Y-60377780D01*
X47469972Y-60377782D01*
X47466163Y-60381082D01*
X47371950Y-60489811D01*
X47371941Y-60489822D01*
X47334175Y-60548587D01*
X47334166Y-60548603D01*
X47274409Y-60679453D01*
X47274402Y-60679473D01*
X47270004Y-60694451D01*
X47270003Y-60694453D01*
X47254667Y-60764944D01*
X47249645Y-60799879D01*
X47244500Y-60871817D01*
X44250500Y-60871817D01*
X44250500Y-54642329D01*
X44255523Y-54607393D01*
X44259927Y-54592395D01*
X44297672Y-54533644D01*
X44299041Y-54532457D01*
X44353920Y-54504977D01*
X44361479Y-54503333D01*
X44387832Y-54500500D01*
X136357670Y-54500500D01*
X136392606Y-54505523D01*
G37*
%TD.AperFunction*%
%TA.AperFunction,Conductor*%
G36*
X98443039Y-78519685D02*
G01*
X98488794Y-78572489D01*
X98500000Y-78624000D01*
X98500000Y-105217316D01*
X98480315Y-105284355D01*
X98427511Y-105330110D01*
X98358353Y-105340054D01*
X98294797Y-105311029D01*
X98268614Y-105279317D01*
X98263695Y-105270798D01*
X98250273Y-105247550D01*
X98106592Y-105060301D01*
X98106587Y-105060295D01*
X97939704Y-104893412D01*
X97939697Y-104893406D01*
X97752454Y-104749730D01*
X97752453Y-104749729D01*
X97752450Y-104749727D01*
X97670957Y-104702677D01*
X97548056Y-104631719D01*
X97548045Y-104631714D01*
X97329993Y-104541394D01*
X97102010Y-104480306D01*
X96868020Y-104449501D01*
X96868017Y-104449500D01*
X96868011Y-104449500D01*
X96631989Y-104449500D01*
X96631983Y-104449500D01*
X96631979Y-104449501D01*
X96397989Y-104480306D01*
X96170006Y-104541394D01*
X95951954Y-104631714D01*
X95951943Y-104631719D01*
X95747545Y-104749730D01*
X95560302Y-104893406D01*
X95560295Y-104893412D01*
X95393412Y-105060295D01*
X95393406Y-105060302D01*
X95249730Y-105247545D01*
X95249727Y-105247549D01*
X95249727Y-105247550D01*
X95242014Y-105260909D01*
X95131719Y-105451943D01*
X95131714Y-105451954D01*
X95041394Y-105670006D01*
X94980306Y-105897989D01*
X94949501Y-106131979D01*
X94949500Y-106131995D01*
X94949500Y-106368004D01*
X94949501Y-106368020D01*
X94980306Y-106602010D01*
X95041394Y-106829993D01*
X95131714Y-107048045D01*
X95131719Y-107048056D01*
X95195914Y-107159244D01*
X95249727Y-107252450D01*
X95249729Y-107252453D01*
X95249730Y-107252454D01*
X95393406Y-107439697D01*
X95393412Y-107439704D01*
X95560295Y-107606587D01*
X95560302Y-107606593D01*
X95670306Y-107691001D01*
X95747550Y-107750273D01*
X95878918Y-107826118D01*
X95951943Y-107868280D01*
X95951948Y-107868282D01*
X95951951Y-107868284D01*
X96170007Y-107958606D01*
X96397986Y-108019693D01*
X96631989Y-108050500D01*
X96631996Y-108050500D01*
X96868004Y-108050500D01*
X96868011Y-108050500D01*
X97102014Y-108019693D01*
X97329993Y-107958606D01*
X97548049Y-107868284D01*
X97752450Y-107750273D01*
X97939699Y-107606592D01*
X98106592Y-107439699D01*
X98250273Y-107252450D01*
X98268614Y-107220681D01*
X98319180Y-107172467D01*
X98387787Y-107159244D01*
X98452652Y-107185212D01*
X98493180Y-107242126D01*
X98500000Y-107282683D01*
X98500000Y-109626000D01*
X98480315Y-109693039D01*
X98427511Y-109738794D01*
X98376000Y-109750000D01*
X71874000Y-109750000D01*
X71806961Y-109730315D01*
X71761206Y-109677511D01*
X71750000Y-109626000D01*
X71750000Y-105149983D01*
X74629500Y-105149983D01*
X74629500Y-107350001D01*
X74629501Y-107350018D01*
X74640000Y-107452796D01*
X74640001Y-107452799D01*
X74688885Y-107600319D01*
X74695186Y-107619334D01*
X74787288Y-107768656D01*
X74911344Y-107892712D01*
X75060666Y-107984814D01*
X75227203Y-108039999D01*
X75329991Y-108050500D01*
X77530008Y-108050499D01*
X77632797Y-108039999D01*
X77799334Y-107984814D01*
X77948656Y-107892712D01*
X78072712Y-107768656D01*
X78164814Y-107619334D01*
X78219999Y-107452797D01*
X78230500Y-107350009D01*
X78230499Y-106132014D01*
X79710000Y-106132014D01*
X79710000Y-106367985D01*
X79740799Y-106601914D01*
X79801870Y-106829837D01*
X79892160Y-107047819D01*
X79892165Y-107047828D01*
X80010144Y-107252171D01*
X80010145Y-107252172D01*
X80072721Y-107333723D01*
X80908958Y-106497487D01*
X80933978Y-106557890D01*
X81005112Y-106664351D01*
X81095649Y-106754888D01*
X81202110Y-106826022D01*
X81262511Y-106851041D01*
X80426275Y-107687277D01*
X80507827Y-107749854D01*
X80507828Y-107749855D01*
X80712171Y-107867834D01*
X80712180Y-107867839D01*
X80930163Y-107958129D01*
X80930161Y-107958129D01*
X81158085Y-108019200D01*
X81392014Y-108049999D01*
X81392029Y-108050000D01*
X81627971Y-108050000D01*
X81627985Y-108049999D01*
X81861914Y-108019200D01*
X82089837Y-107958129D01*
X82307819Y-107867839D01*
X82307828Y-107867834D01*
X82512181Y-107749850D01*
X82593723Y-107687279D01*
X82593723Y-107687276D01*
X81757487Y-106851041D01*
X81817890Y-106826022D01*
X81924351Y-106754888D01*
X82014888Y-106664351D01*
X82086022Y-106557890D01*
X82111041Y-106497487D01*
X82947276Y-107333723D01*
X82947279Y-107333723D01*
X83009850Y-107252181D01*
X83127834Y-107047828D01*
X83127839Y-107047819D01*
X83218129Y-106829837D01*
X83279200Y-106601914D01*
X83309999Y-106367985D01*
X83310000Y-106367971D01*
X83310000Y-106132021D01*
X83309997Y-106131995D01*
X84789500Y-106131995D01*
X84789500Y-106368004D01*
X84789501Y-106368020D01*
X84820306Y-106602010D01*
X84881394Y-106829993D01*
X84971714Y-107048045D01*
X84971719Y-107048056D01*
X85035914Y-107159244D01*
X85089727Y-107252450D01*
X85089729Y-107252453D01*
X85089730Y-107252454D01*
X85233406Y-107439697D01*
X85233412Y-107439704D01*
X85400295Y-107606587D01*
X85400302Y-107606593D01*
X85510306Y-107691001D01*
X85587550Y-107750273D01*
X85718918Y-107826118D01*
X85791943Y-107868280D01*
X85791948Y-107868282D01*
X85791951Y-107868284D01*
X86010007Y-107958606D01*
X86237986Y-108019693D01*
X86471989Y-108050500D01*
X86471996Y-108050500D01*
X86708004Y-108050500D01*
X86708011Y-108050500D01*
X86942014Y-108019693D01*
X87169993Y-107958606D01*
X87388049Y-107868284D01*
X87592450Y-107750273D01*
X87779699Y-107606592D01*
X87946592Y-107439699D01*
X88090273Y-107252450D01*
X88208284Y-107048049D01*
X88298606Y-106829993D01*
X88359693Y-106602014D01*
X88390500Y-106368011D01*
X88390500Y-106131995D01*
X89869500Y-106131995D01*
X89869500Y-106368004D01*
X89869501Y-106368020D01*
X89900306Y-106602010D01*
X89961394Y-106829993D01*
X90051714Y-107048045D01*
X90051719Y-107048056D01*
X90115914Y-107159244D01*
X90169727Y-107252450D01*
X90169729Y-107252453D01*
X90169730Y-107252454D01*
X90313406Y-107439697D01*
X90313412Y-107439704D01*
X90480295Y-107606587D01*
X90480302Y-107606593D01*
X90590306Y-107691001D01*
X90667550Y-107750273D01*
X90798918Y-107826118D01*
X90871943Y-107868280D01*
X90871948Y-107868282D01*
X90871951Y-107868284D01*
X91090007Y-107958606D01*
X91317986Y-108019693D01*
X91551989Y-108050500D01*
X91551996Y-108050500D01*
X91788004Y-108050500D01*
X91788011Y-108050500D01*
X92022014Y-108019693D01*
X92249993Y-107958606D01*
X92468049Y-107868284D01*
X92672450Y-107750273D01*
X92859699Y-107606592D01*
X93026592Y-107439699D01*
X93170273Y-107252450D01*
X93288284Y-107048049D01*
X93378606Y-106829993D01*
X93439693Y-106602014D01*
X93470500Y-106368011D01*
X93470500Y-106131989D01*
X93439693Y-105897986D01*
X93378606Y-105670007D01*
X93288284Y-105451951D01*
X93288282Y-105451948D01*
X93288280Y-105451943D01*
X93217939Y-105330110D01*
X93170273Y-105247550D01*
X93026592Y-105060301D01*
X93026587Y-105060295D01*
X92859704Y-104893412D01*
X92859697Y-104893406D01*
X92672454Y-104749730D01*
X92672453Y-104749729D01*
X92672450Y-104749727D01*
X92590957Y-104702677D01*
X92468056Y-104631719D01*
X92468045Y-104631714D01*
X92249993Y-104541394D01*
X92022010Y-104480306D01*
X91788020Y-104449501D01*
X91788017Y-104449500D01*
X91788011Y-104449500D01*
X91551989Y-104449500D01*
X91551983Y-104449500D01*
X91551979Y-104449501D01*
X91317989Y-104480306D01*
X91090006Y-104541394D01*
X90871954Y-104631714D01*
X90871943Y-104631719D01*
X90667545Y-104749730D01*
X90480302Y-104893406D01*
X90480295Y-104893412D01*
X90313412Y-105060295D01*
X90313406Y-105060302D01*
X90169730Y-105247545D01*
X90169727Y-105247549D01*
X90169727Y-105247550D01*
X90162014Y-105260909D01*
X90051719Y-105451943D01*
X90051714Y-105451954D01*
X89961394Y-105670006D01*
X89900306Y-105897989D01*
X89869501Y-106131979D01*
X89869500Y-106131995D01*
X88390500Y-106131995D01*
X88390500Y-106131989D01*
X88359693Y-105897986D01*
X88298606Y-105670007D01*
X88208284Y-105451951D01*
X88208282Y-105451948D01*
X88208280Y-105451943D01*
X88137939Y-105330110D01*
X88090273Y-105247550D01*
X87946592Y-105060301D01*
X87946587Y-105060295D01*
X87779704Y-104893412D01*
X87779697Y-104893406D01*
X87592454Y-104749730D01*
X87592453Y-104749729D01*
X87592450Y-104749727D01*
X87510957Y-104702677D01*
X87388056Y-104631719D01*
X87388045Y-104631714D01*
X87169993Y-104541394D01*
X86942010Y-104480306D01*
X86708020Y-104449501D01*
X86708017Y-104449500D01*
X86708011Y-104449500D01*
X86471989Y-104449500D01*
X86471983Y-104449500D01*
X86471979Y-104449501D01*
X86237989Y-104480306D01*
X86010006Y-104541394D01*
X85791954Y-104631714D01*
X85791943Y-104631719D01*
X85587545Y-104749730D01*
X85400302Y-104893406D01*
X85400295Y-104893412D01*
X85233412Y-105060295D01*
X85233406Y-105060302D01*
X85089730Y-105247545D01*
X85089727Y-105247549D01*
X85089727Y-105247550D01*
X85082014Y-105260909D01*
X84971719Y-105451943D01*
X84971714Y-105451954D01*
X84881394Y-105670006D01*
X84820306Y-105897989D01*
X84789501Y-106131979D01*
X84789500Y-106131995D01*
X83309997Y-106131995D01*
X83279200Y-105898085D01*
X83218129Y-105670162D01*
X83127839Y-105452180D01*
X83127834Y-105452171D01*
X83009855Y-105247828D01*
X83009854Y-105247827D01*
X82947277Y-105166275D01*
X82111041Y-106002511D01*
X82086022Y-105942110D01*
X82014888Y-105835649D01*
X81924351Y-105745112D01*
X81817890Y-105673978D01*
X81757488Y-105648958D01*
X82593723Y-104812721D01*
X82512172Y-104750145D01*
X82512171Y-104750144D01*
X82307828Y-104632165D01*
X82307819Y-104632160D01*
X82089836Y-104541870D01*
X82089838Y-104541870D01*
X81861914Y-104480799D01*
X81627985Y-104450000D01*
X81392014Y-104450000D01*
X81158085Y-104480799D01*
X80930162Y-104541870D01*
X80712180Y-104632160D01*
X80712171Y-104632165D01*
X80507828Y-104750144D01*
X80507818Y-104750150D01*
X80426275Y-104812720D01*
X80426275Y-104812721D01*
X81262512Y-105648958D01*
X81202110Y-105673978D01*
X81095649Y-105745112D01*
X81005112Y-105835649D01*
X80933978Y-105942110D01*
X80908958Y-106002512D01*
X80072721Y-105166275D01*
X80072720Y-105166275D01*
X80010150Y-105247818D01*
X80010144Y-105247828D01*
X79892165Y-105452171D01*
X79892160Y-105452180D01*
X79801870Y-105670162D01*
X79740799Y-105898085D01*
X79710000Y-106132014D01*
X78230499Y-106132014D01*
X78230499Y-105149992D01*
X78219999Y-105047203D01*
X78164814Y-104880666D01*
X78072712Y-104731344D01*
X77948656Y-104607288D01*
X77799334Y-104515186D01*
X77632797Y-104460001D01*
X77632795Y-104460000D01*
X77530010Y-104449500D01*
X75329998Y-104449500D01*
X75329981Y-104449501D01*
X75227203Y-104460000D01*
X75227200Y-104460001D01*
X75060668Y-104515185D01*
X75060663Y-104515187D01*
X74911342Y-104607289D01*
X74787289Y-104731342D01*
X74695187Y-104880663D01*
X74695185Y-104880668D01*
X74688886Y-104899678D01*
X74640001Y-105047203D01*
X74640001Y-105047204D01*
X74640000Y-105047204D01*
X74629500Y-105149983D01*
X71750000Y-105149983D01*
X71750000Y-93438549D01*
X78784500Y-93438549D01*
X78784500Y-93661450D01*
X78784501Y-93661466D01*
X78813594Y-93882452D01*
X78813595Y-93882457D01*
X78813596Y-93882463D01*
X78871290Y-94097780D01*
X78871293Y-94097790D01*
X78956593Y-94303722D01*
X78956595Y-94303726D01*
X79068052Y-94496774D01*
X79068057Y-94496780D01*
X79068058Y-94496782D01*
X79203751Y-94673622D01*
X79203757Y-94673629D01*
X79361370Y-94831242D01*
X79361376Y-94831247D01*
X79538226Y-94966948D01*
X79731274Y-95078405D01*
X79768199Y-95093699D01*
X79868965Y-95135439D01*
X79923368Y-95179280D01*
X79945433Y-95245574D01*
X79928154Y-95313274D01*
X79877016Y-95360884D01*
X79868965Y-95364561D01*
X79731277Y-95421593D01*
X79731273Y-95421595D01*
X79538226Y-95533052D01*
X79538217Y-95533058D01*
X79361377Y-95668751D01*
X79361370Y-95668757D01*
X79203757Y-95826370D01*
X79203751Y-95826377D01*
X79068058Y-96003217D01*
X79068052Y-96003226D01*
X78956595Y-96196273D01*
X78956593Y-96196277D01*
X78871293Y-96402209D01*
X78871290Y-96402219D01*
X78813597Y-96617534D01*
X78813594Y-96617547D01*
X78784501Y-96838533D01*
X78784500Y-96838549D01*
X78784500Y-97061450D01*
X78784501Y-97061466D01*
X78813594Y-97282452D01*
X78813595Y-97282457D01*
X78813596Y-97282463D01*
X78871290Y-97497780D01*
X78871293Y-97497790D01*
X78956593Y-97703722D01*
X78956595Y-97703726D01*
X79068052Y-97896774D01*
X79068057Y-97896780D01*
X79068058Y-97896782D01*
X79203751Y-98073622D01*
X79203757Y-98073629D01*
X79361370Y-98231242D01*
X79361376Y-98231247D01*
X79538226Y-98366948D01*
X79731274Y-98478405D01*
X79861140Y-98532197D01*
X79936074Y-98563236D01*
X79937219Y-98563710D01*
X80152537Y-98621404D01*
X80373543Y-98650500D01*
X80373550Y-98650500D01*
X80596450Y-98650500D01*
X80596457Y-98650500D01*
X80817463Y-98621404D01*
X81032781Y-98563710D01*
X81238726Y-98478405D01*
X81431774Y-98366948D01*
X81608624Y-98231247D01*
X81608629Y-98231242D01*
X81659550Y-98180322D01*
X81766242Y-98073629D01*
X81766247Y-98073624D01*
X81901948Y-97896774D01*
X82013405Y-97703726D01*
X82098710Y-97497781D01*
X82156404Y-97282463D01*
X82185500Y-97061457D01*
X82185500Y-96838543D01*
X82156404Y-96617537D01*
X82098710Y-96402219D01*
X82013405Y-96196274D01*
X81901948Y-96003226D01*
X81766247Y-95826376D01*
X81766242Y-95826370D01*
X81608629Y-95668757D01*
X81608622Y-95668751D01*
X81431782Y-95533058D01*
X81431780Y-95533057D01*
X81431774Y-95533052D01*
X81238726Y-95421595D01*
X81238722Y-95421593D01*
X81101034Y-95364561D01*
X81046631Y-95320720D01*
X81024566Y-95254426D01*
X81041845Y-95186727D01*
X81092982Y-95139116D01*
X81101034Y-95135439D01*
X81138768Y-95119808D01*
X81238726Y-95078405D01*
X81431774Y-94966948D01*
X81608624Y-94831247D01*
X81608629Y-94831242D01*
X81659550Y-94780322D01*
X81766242Y-94673629D01*
X81766247Y-94673624D01*
X81901948Y-94496774D01*
X82013405Y-94303726D01*
X82098710Y-94097781D01*
X82156404Y-93882463D01*
X82185500Y-93661457D01*
X82185500Y-93438575D01*
X87315000Y-93438575D01*
X87315000Y-93661424D01*
X87344085Y-93882354D01*
X87344088Y-93882367D01*
X87401763Y-94097618D01*
X87487045Y-94303502D01*
X87487054Y-94303520D01*
X87598464Y-94496491D01*
X87598473Y-94496504D01*
X87649040Y-94562403D01*
X87649043Y-94562403D01*
X88299152Y-93912293D01*
X88306049Y-93928942D01*
X88393599Y-94059970D01*
X88505030Y-94171401D01*
X88636058Y-94258951D01*
X88652705Y-94265846D01*
X88002595Y-94915955D01*
X88002595Y-94915956D01*
X88068507Y-94966533D01*
X88261485Y-95077949D01*
X88261492Y-95077952D01*
X88400274Y-95135439D01*
X88454677Y-95179281D01*
X88476741Y-95245575D01*
X88459461Y-95313274D01*
X88408324Y-95360884D01*
X88400274Y-95364561D01*
X88261492Y-95422047D01*
X88261479Y-95422054D01*
X88068511Y-95533462D01*
X88002595Y-95584042D01*
X88652706Y-96234152D01*
X88636058Y-96241049D01*
X88505030Y-96328599D01*
X88393599Y-96440030D01*
X88306049Y-96571058D01*
X88299153Y-96587706D01*
X87649042Y-95937595D01*
X87598462Y-96003511D01*
X87487054Y-96196479D01*
X87487045Y-96196497D01*
X87401763Y-96402381D01*
X87344088Y-96617632D01*
X87344085Y-96617645D01*
X87315000Y-96838575D01*
X87315000Y-97061424D01*
X87344085Y-97282354D01*
X87344088Y-97282367D01*
X87401763Y-97497618D01*
X87487045Y-97703502D01*
X87487054Y-97703520D01*
X87598464Y-97896491D01*
X87598473Y-97896504D01*
X87649040Y-97962403D01*
X87649043Y-97962403D01*
X88299152Y-97312293D01*
X88306049Y-97328942D01*
X88393599Y-97459970D01*
X88505030Y-97571401D01*
X88636058Y-97658951D01*
X88652705Y-97665846D01*
X88002595Y-98315955D01*
X88002595Y-98315956D01*
X88068507Y-98366533D01*
X88261485Y-98477949D01*
X88261497Y-98477954D01*
X88467381Y-98563236D01*
X88682632Y-98620911D01*
X88682645Y-98620914D01*
X88903575Y-98650000D01*
X89126425Y-98650000D01*
X89347354Y-98620914D01*
X89347367Y-98620911D01*
X89562618Y-98563236D01*
X89768502Y-98477954D01*
X89768514Y-98477949D01*
X89961498Y-98366530D01*
X90027403Y-98315957D01*
X90027404Y-98315956D01*
X89377294Y-97665846D01*
X89393942Y-97658951D01*
X89524970Y-97571401D01*
X89636401Y-97459970D01*
X89723951Y-97328942D01*
X89730846Y-97312294D01*
X90380956Y-97962404D01*
X90380957Y-97962403D01*
X90431530Y-97896498D01*
X90542949Y-97703514D01*
X90542954Y-97703502D01*
X90628236Y-97497618D01*
X90685911Y-97282367D01*
X90685914Y-97282354D01*
X90715000Y-97061424D01*
X90715000Y-96838575D01*
X90685914Y-96617645D01*
X90685911Y-96617632D01*
X90628236Y-96402381D01*
X90542954Y-96196497D01*
X90542949Y-96196485D01*
X90431533Y-96003507D01*
X90380956Y-95937595D01*
X90380955Y-95937595D01*
X89730846Y-96587704D01*
X89723951Y-96571058D01*
X89636401Y-96440030D01*
X89524970Y-96328599D01*
X89393942Y-96241049D01*
X89377293Y-96234152D01*
X90027403Y-95584043D01*
X90027403Y-95584040D01*
X89961504Y-95533473D01*
X89961491Y-95533464D01*
X89768520Y-95422054D01*
X89768502Y-95422045D01*
X89629726Y-95364561D01*
X89575322Y-95320719D01*
X89553258Y-95254425D01*
X89570538Y-95186726D01*
X89621675Y-95139116D01*
X89629726Y-95135439D01*
X89768502Y-95077954D01*
X89768514Y-95077949D01*
X89961498Y-94966530D01*
X90027403Y-94915957D01*
X90027404Y-94915956D01*
X89377294Y-94265846D01*
X89393942Y-94258951D01*
X89524970Y-94171401D01*
X89636401Y-94059970D01*
X89723951Y-93928942D01*
X89730846Y-93912294D01*
X90380956Y-94562404D01*
X90380957Y-94562403D01*
X90431530Y-94496498D01*
X90542949Y-94303514D01*
X90542954Y-94303502D01*
X90628236Y-94097618D01*
X90685911Y-93882367D01*
X90685914Y-93882354D01*
X90715000Y-93661424D01*
X90715000Y-93438575D01*
X90685914Y-93217645D01*
X90685911Y-93217632D01*
X90628236Y-93002381D01*
X90542954Y-92796497D01*
X90542949Y-92796485D01*
X90431533Y-92603507D01*
X90380956Y-92537595D01*
X90380955Y-92537595D01*
X89730846Y-93187704D01*
X89723951Y-93171058D01*
X89636401Y-93040030D01*
X89524970Y-92928599D01*
X89393942Y-92841049D01*
X89377293Y-92834152D01*
X90027403Y-92184043D01*
X90027403Y-92184040D01*
X89961504Y-92133473D01*
X89961491Y-92133464D01*
X89768520Y-92022054D01*
X89768502Y-92022045D01*
X89562618Y-91936763D01*
X89347367Y-91879088D01*
X89347354Y-91879085D01*
X89126425Y-91850000D01*
X88903575Y-91850000D01*
X88682645Y-91879085D01*
X88682632Y-91879088D01*
X88467381Y-91936763D01*
X88261497Y-92022045D01*
X88261479Y-92022054D01*
X88068511Y-92133462D01*
X88002595Y-92184042D01*
X88652706Y-92834152D01*
X88636058Y-92841049D01*
X88505030Y-92928599D01*
X88393599Y-93040030D01*
X88306049Y-93171058D01*
X88299153Y-93187706D01*
X87649042Y-92537595D01*
X87598462Y-92603511D01*
X87487054Y-92796479D01*
X87487045Y-92796497D01*
X87401763Y-93002381D01*
X87344088Y-93217632D01*
X87344085Y-93217645D01*
X87315000Y-93438575D01*
X82185500Y-93438575D01*
X82185500Y-93438543D01*
X82156404Y-93217537D01*
X82098710Y-93002219D01*
X82013405Y-92796274D01*
X81901948Y-92603226D01*
X81766247Y-92426376D01*
X81766242Y-92426370D01*
X81608629Y-92268757D01*
X81608622Y-92268751D01*
X81431782Y-92133058D01*
X81431780Y-92133057D01*
X81431774Y-92133052D01*
X81238726Y-92021595D01*
X81238722Y-92021593D01*
X81032790Y-91936293D01*
X81032783Y-91936291D01*
X81032781Y-91936290D01*
X80817463Y-91878596D01*
X80817457Y-91878595D01*
X80817452Y-91878594D01*
X80596466Y-91849501D01*
X80596463Y-91849500D01*
X80596457Y-91849500D01*
X80373543Y-91849500D01*
X80373537Y-91849500D01*
X80373533Y-91849501D01*
X80152547Y-91878594D01*
X80152540Y-91878595D01*
X80152537Y-91878596D01*
X79937219Y-91936290D01*
X79937209Y-91936293D01*
X79731277Y-92021593D01*
X79731273Y-92021595D01*
X79538226Y-92133052D01*
X79538217Y-92133058D01*
X79361377Y-92268751D01*
X79361370Y-92268757D01*
X79203757Y-92426370D01*
X79203751Y-92426377D01*
X79068058Y-92603217D01*
X79068052Y-92603226D01*
X78956595Y-92796273D01*
X78956593Y-92796277D01*
X78871293Y-93002209D01*
X78871290Y-93002219D01*
X78813597Y-93217534D01*
X78813594Y-93217547D01*
X78784501Y-93438533D01*
X78784500Y-93438549D01*
X71750000Y-93438549D01*
X71750000Y-78624000D01*
X71769685Y-78556961D01*
X71822489Y-78511206D01*
X71874000Y-78500000D01*
X98376000Y-78500000D01*
X98443039Y-78519685D01*
G37*
%TD.AperFunction*%
%TA.AperFunction,Conductor*%
G36*
X130200617Y-58005023D02*
G01*
X130215615Y-58009427D01*
X130274389Y-58047198D01*
X130279201Y-58052751D01*
X130307108Y-58109766D01*
X130343104Y-58290735D01*
X130343107Y-58290746D01*
X130435820Y-58596383D01*
X130557758Y-58890767D01*
X130557993Y-58891346D01*
X130558038Y-58891441D01*
X130558040Y-58891446D01*
X130558042Y-58891451D01*
X130558045Y-58891456D01*
X130708571Y-59173072D01*
X130708583Y-59173093D01*
X130708584Y-59173094D01*
X130708601Y-59173122D01*
X130886012Y-59438638D01*
X130886015Y-59438642D01*
X130886030Y-59438663D01*
X130886039Y-59438674D01*
X131088642Y-59685545D01*
X131314460Y-59911363D01*
X131314513Y-59911411D01*
X131315048Y-59911845D01*
X131561344Y-60113975D01*
X131561351Y-60113980D01*
X131561361Y-60113987D01*
X131561378Y-60113998D01*
X131561406Y-60114018D01*
X131824399Y-60289743D01*
X131826364Y-60291126D01*
X131827548Y-60291769D01*
X131829846Y-60293034D01*
X131830875Y-60293537D01*
X132103246Y-60439123D01*
X132103290Y-60439150D01*
X132107481Y-60441387D01*
X132107516Y-60441405D01*
X132108548Y-60441957D01*
X132112022Y-60443814D01*
X132116996Y-60445457D01*
X132121907Y-60447491D01*
X132403619Y-60564180D01*
X132709240Y-60656889D01*
X132882709Y-60691394D01*
X132915989Y-60703135D01*
X132929841Y-60710381D01*
X132980113Y-60758886D01*
X132983748Y-60765268D01*
X133000000Y-60826638D01*
X133000000Y-106915680D01*
X132994975Y-106950624D01*
X132990570Y-106965622D01*
X132952801Y-107024388D01*
X132947248Y-107029200D01*
X132890234Y-107057107D01*
X132721224Y-107090727D01*
X132717982Y-107091046D01*
X132703351Y-107094500D01*
X132699183Y-107096160D01*
X132629720Y-107117232D01*
X132629719Y-107117233D01*
X132403611Y-107185821D01*
X132109231Y-107307758D01*
X132108656Y-107307992D01*
X132108542Y-107308045D01*
X131826926Y-107458571D01*
X131826905Y-107458583D01*
X131826886Y-107458595D01*
X131561356Y-107636015D01*
X131561329Y-107636034D01*
X131314453Y-107838642D01*
X131088642Y-108064453D01*
X130886039Y-108311324D01*
X130886030Y-108311335D01*
X130886015Y-108311356D01*
X130708595Y-108576886D01*
X130708583Y-108576905D01*
X130708571Y-108576926D01*
X130558045Y-108858542D01*
X130557990Y-108858660D01*
X130557758Y-108859230D01*
X130435821Y-109153611D01*
X130343107Y-109459252D01*
X130343104Y-109459263D01*
X130308606Y-109632704D01*
X130296862Y-109665992D01*
X130289616Y-109679843D01*
X130241119Y-109730109D01*
X130234736Y-109733745D01*
X130173360Y-109750000D01*
X110912330Y-109750000D01*
X110877389Y-109744975D01*
X110862390Y-109740570D01*
X110803644Y-109702827D01*
X110802457Y-109701458D01*
X110774977Y-109646583D01*
X110773332Y-109639021D01*
X110770500Y-109612668D01*
X110770500Y-109461902D01*
X110770078Y-109459240D01*
X110733553Y-109228631D01*
X110672425Y-109040500D01*
X110662067Y-109008621D01*
X110661006Y-109004861D01*
X110660014Y-109002865D01*
X110658215Y-108999152D01*
X110657283Y-108997559D01*
X110604002Y-108892991D01*
X110553343Y-108793567D01*
X110414517Y-108602490D01*
X110247510Y-108435483D01*
X110056433Y-108296657D01*
X109845996Y-108189433D01*
X109621368Y-108116446D01*
X109621362Y-108116445D01*
X109388102Y-108079500D01*
X109388097Y-108079500D01*
X109388092Y-108079500D01*
X109151908Y-108079500D01*
X109151903Y-108079500D01*
X109151898Y-108079500D01*
X108918636Y-108116445D01*
X108918634Y-108116445D01*
X108918631Y-108116446D01*
X108694003Y-108189433D01*
X108580280Y-108247378D01*
X108483573Y-108296653D01*
X108483560Y-108296661D01*
X108393834Y-108361850D01*
X108393835Y-108361851D01*
X108304361Y-108426858D01*
X108296980Y-108430991D01*
X108120991Y-108606980D01*
X108116858Y-108614361D01*
X108065862Y-108684550D01*
X108065861Y-108684549D01*
X107986659Y-108793562D01*
X107986657Y-108793566D01*
X107879433Y-109004003D01*
X107806446Y-109228631D01*
X107806445Y-109228634D01*
X107806445Y-109228636D01*
X107769500Y-109461896D01*
X107769500Y-109608170D01*
X107764475Y-109643114D01*
X107760070Y-109658112D01*
X107722327Y-109716855D01*
X107720958Y-109718042D01*
X107666097Y-109745518D01*
X107658539Y-109747163D01*
X107632168Y-109750000D01*
X99129500Y-109750000D01*
X99062461Y-109730315D01*
X99016706Y-109677511D01*
X99005500Y-109626000D01*
X99005500Y-107282692D01*
X99005499Y-107282671D01*
X99002976Y-107252453D01*
X98998501Y-107198856D01*
X98991681Y-107158299D01*
X98975397Y-107094500D01*
X98970878Y-107076794D01*
X98904952Y-106948914D01*
X98904951Y-106948912D01*
X98880978Y-106915246D01*
X98864605Y-106892254D01*
X98864423Y-106891996D01*
X98831395Y-106857358D01*
X98765131Y-106787862D01*
X98750408Y-106779361D01*
X98640529Y-106715922D01*
X98600921Y-106700065D01*
X98546001Y-106656874D01*
X98523149Y-106590846D01*
X98524069Y-106568769D01*
X98550500Y-106368011D01*
X98550500Y-106131995D01*
X100029500Y-106131995D01*
X100029500Y-106368004D01*
X100029501Y-106368020D01*
X100029503Y-106368035D01*
X100060305Y-106602006D01*
X100121395Y-106829997D01*
X100211715Y-107048048D01*
X100211724Y-107048065D01*
X100282675Y-107170954D01*
X100282677Y-107170957D01*
X100329723Y-107252445D01*
X100329725Y-107252447D01*
X100329944Y-107252776D01*
X100330947Y-107254040D01*
X100473399Y-107439689D01*
X100473403Y-107439694D01*
X100473406Y-107439697D01*
X100473412Y-107439704D01*
X100640295Y-107606587D01*
X100640302Y-107606593D01*
X100640305Y-107606595D01*
X100640309Y-107606599D01*
X100656909Y-107619336D01*
X100827548Y-107750272D01*
X100827550Y-107750273D01*
X100958918Y-107826118D01*
X101028516Y-107866301D01*
X101030255Y-107867382D01*
X101031708Y-107868189D01*
X101032447Y-107868489D01*
X101250007Y-107958606D01*
X101477986Y-108019693D01*
X101711989Y-108050500D01*
X101711996Y-108050500D01*
X101948004Y-108050500D01*
X101948011Y-108050500D01*
X102182014Y-108019693D01*
X102409993Y-107958606D01*
X102628049Y-107868284D01*
X102832450Y-107750273D01*
X103019699Y-107606592D01*
X103186592Y-107439699D01*
X103330273Y-107252450D01*
X103448284Y-107048049D01*
X103505934Y-106908871D01*
X123929500Y-106908871D01*
X123929500Y-107171133D01*
X123947527Y-107308045D01*
X123953051Y-107350001D01*
X123963730Y-107431116D01*
X124018635Y-107636025D01*
X124031602Y-107684418D01*
X124031605Y-107684428D01*
X124058879Y-107750273D01*
X124131954Y-107926693D01*
X124131967Y-107926717D01*
X124263074Y-108153803D01*
X124422718Y-108361851D01*
X124422721Y-108361855D01*
X124608120Y-108547255D01*
X124608142Y-108547276D01*
X124608148Y-108547281D01*
X124816195Y-108706924D01*
X125043281Y-108838031D01*
X125043291Y-108838036D01*
X125043299Y-108838041D01*
X125043309Y-108838046D01*
X125285571Y-108938394D01*
X125285581Y-108938398D01*
X125538884Y-109006270D01*
X125798880Y-109040500D01*
X125798887Y-109040500D01*
X126061113Y-109040500D01*
X126061120Y-109040500D01*
X126321116Y-109006270D01*
X126574419Y-108938398D01*
X126816697Y-108838043D01*
X127043803Y-108706924D01*
X127246256Y-108551574D01*
X127246993Y-108551074D01*
X127251407Y-108547628D01*
X127251862Y-108547275D01*
X127252385Y-108546758D01*
X127256006Y-108543209D01*
X127256702Y-108542433D01*
X127432433Y-108366702D01*
X127433209Y-108366006D01*
X127436758Y-108362385D01*
X127437275Y-108361862D01*
X127437628Y-108361407D01*
X127441074Y-108356993D01*
X127441574Y-108356256D01*
X127596924Y-108153803D01*
X127728043Y-107926697D01*
X127752239Y-107868284D01*
X127827784Y-107685900D01*
X127828292Y-107684715D01*
X127828394Y-107684428D01*
X127828398Y-107684419D01*
X127896270Y-107431116D01*
X127930500Y-107171120D01*
X127930500Y-106908880D01*
X127896270Y-106648884D01*
X127828398Y-106395581D01*
X127816975Y-106368004D01*
X127728046Y-106153309D01*
X127728041Y-106153299D01*
X127719181Y-106137953D01*
X127596924Y-105926195D01*
X127437281Y-105718148D01*
X127437276Y-105718142D01*
X127437255Y-105718120D01*
X127251855Y-105532721D01*
X127251851Y-105532718D01*
X127043803Y-105373074D01*
X126816717Y-105241967D01*
X126816693Y-105241954D01*
X126578474Y-105143281D01*
X126576654Y-105142450D01*
X126576174Y-105142268D01*
X126574653Y-105141664D01*
X126336839Y-105077943D01*
X126321116Y-105073730D01*
X126263339Y-105066123D01*
X126061128Y-105039500D01*
X126061127Y-105039500D01*
X126061120Y-105039500D01*
X125798880Y-105039500D01*
X125798872Y-105039500D01*
X125798864Y-105039500D01*
X125567773Y-105069925D01*
X125567772Y-105069926D01*
X125538892Y-105073729D01*
X125538884Y-105073730D01*
X125402436Y-105110291D01*
X125285578Y-105141602D01*
X125043305Y-105241954D01*
X125043281Y-105241967D01*
X124816195Y-105373074D01*
X124608152Y-105532714D01*
X124608142Y-105532723D01*
X124422723Y-105718142D01*
X124422714Y-105718152D01*
X124263074Y-105926195D01*
X124131967Y-106153281D01*
X124131954Y-106153305D01*
X124031602Y-106395578D01*
X123963731Y-106648881D01*
X123963729Y-106648892D01*
X123929500Y-106908871D01*
X103505934Y-106908871D01*
X103538606Y-106829993D01*
X103599693Y-106602014D01*
X103630500Y-106368011D01*
X103630500Y-106131989D01*
X103599693Y-105897986D01*
X103538606Y-105670007D01*
X103448481Y-105452427D01*
X103448189Y-105451710D01*
X103447376Y-105450245D01*
X103446294Y-105448503D01*
X103418579Y-105400500D01*
X103400818Y-105369737D01*
X103330273Y-105247550D01*
X103200129Y-105077943D01*
X103186593Y-105060302D01*
X103186587Y-105060295D01*
X103019704Y-104893412D01*
X103019697Y-104893406D01*
X103019694Y-104893403D01*
X103019689Y-104893399D01*
X102834040Y-104750947D01*
X102832770Y-104749939D01*
X102832455Y-104749730D01*
X102709681Y-104678846D01*
X102709679Y-104678844D01*
X102628065Y-104631724D01*
X102628048Y-104631715D01*
X102409997Y-104541395D01*
X102182006Y-104480305D01*
X101949889Y-104449747D01*
X101948208Y-104449500D01*
X101948017Y-104449500D01*
X101948011Y-104449500D01*
X101711989Y-104449500D01*
X101711983Y-104449500D01*
X101711981Y-104449500D01*
X101705861Y-104450253D01*
X101704955Y-104450425D01*
X101477992Y-104480305D01*
X101250001Y-104541395D01*
X101031950Y-104631715D01*
X101031942Y-104631719D01*
X100827545Y-104749730D01*
X100827536Y-104749736D01*
X100640309Y-104893399D01*
X100640294Y-104893413D01*
X100640286Y-104893420D01*
X100473420Y-105060286D01*
X100473413Y-105060294D01*
X100473399Y-105060309D01*
X100329736Y-105247536D01*
X100329730Y-105247545D01*
X100211719Y-105451942D01*
X100211715Y-105451950D01*
X100121395Y-105670001D01*
X100060305Y-105897992D01*
X100046810Y-106000499D01*
X100029501Y-106131979D01*
X100029500Y-106131995D01*
X98550500Y-106131995D01*
X98550500Y-106131989D01*
X98524177Y-105932046D01*
X98529641Y-105897849D01*
X98535002Y-105863474D01*
X98535163Y-105863291D01*
X98535202Y-105863053D01*
X98558348Y-105837169D01*
X98581382Y-105811218D01*
X98581673Y-105811087D01*
X98581777Y-105810971D01*
X98582178Y-105810859D01*
X98612244Y-105797345D01*
X98620792Y-105794835D01*
X98637502Y-105789930D01*
X98637504Y-105789929D01*
X98758543Y-105712141D01*
X98811347Y-105666386D01*
X98905567Y-105557652D01*
X98965338Y-105426775D01*
X98985023Y-105359736D01*
X98985024Y-105359732D01*
X99005500Y-105217316D01*
X99005500Y-103452125D01*
X107769500Y-103452125D01*
X107769500Y-105547876D01*
X107769659Y-105549806D01*
X107769885Y-105551454D01*
X107775907Y-105607482D01*
X107797877Y-105666386D01*
X107826202Y-105742328D01*
X107826203Y-105742330D01*
X107826204Y-105742332D01*
X107826205Y-105742333D01*
X107912450Y-105857542D01*
X107912452Y-105857544D01*
X107912455Y-105857547D01*
X108027664Y-105943793D01*
X108027671Y-105943797D01*
X108077155Y-105962253D01*
X108112513Y-105988721D01*
X108169444Y-105994835D01*
X108169443Y-105994839D01*
X108169458Y-105994836D01*
X108222127Y-106000500D01*
X110317872Y-106000499D01*
X110377483Y-105994091D01*
X110512331Y-105943796D01*
X110627546Y-105857546D01*
X110713796Y-105742331D01*
X110764091Y-105607483D01*
X110770500Y-105547873D01*
X110770499Y-103452128D01*
X110764091Y-103392517D01*
X110713796Y-103257669D01*
X110713795Y-103257668D01*
X110713794Y-103257666D01*
X110713778Y-103257623D01*
X110713199Y-103256703D01*
X110712249Y-103255164D01*
X110711397Y-103253937D01*
X110711391Y-103253928D01*
X110708489Y-103250579D01*
X110627547Y-103142455D01*
X110627544Y-103142452D01*
X110627542Y-103142450D01*
X110569616Y-103099086D01*
X110512335Y-103056206D01*
X110512332Y-103056204D01*
X110512330Y-103056203D01*
X110512328Y-103056202D01*
X110462844Y-103037746D01*
X110427497Y-103011284D01*
X110325583Y-103000328D01*
X110320742Y-102999500D01*
X110317881Y-102999500D01*
X110317873Y-102999500D01*
X110317864Y-102999500D01*
X108222129Y-102999500D01*
X108222123Y-102999500D01*
X108220192Y-102999659D01*
X108218545Y-102999885D01*
X108162516Y-103005908D01*
X108077152Y-103037747D01*
X108027666Y-103056204D01*
X108027665Y-103056205D01*
X107912456Y-103142450D01*
X107912450Y-103142456D01*
X107826205Y-103257665D01*
X107826203Y-103257668D01*
X107775908Y-103392516D01*
X107769500Y-103452125D01*
X99005500Y-103452125D01*
X99005500Y-93438574D01*
X100785000Y-93438574D01*
X100785000Y-93661424D01*
X100814083Y-93882344D01*
X100814086Y-93882357D01*
X100814091Y-93882382D01*
X100861675Y-94059970D01*
X100871763Y-94097618D01*
X100902325Y-94171399D01*
X100957047Y-94303508D01*
X100957058Y-94303527D01*
X101068466Y-94496494D01*
X101068478Y-94496511D01*
X101119039Y-94562402D01*
X101119040Y-94562403D01*
X101119043Y-94562403D01*
X101659779Y-94021665D01*
X101721100Y-93988182D01*
X101790791Y-93993166D01*
X101846725Y-94035037D01*
X101850559Y-94040456D01*
X101863596Y-94059967D01*
X101863601Y-94059973D01*
X101975026Y-94171398D01*
X101975031Y-94171402D01*
X101994538Y-94184436D01*
X102039344Y-94238047D01*
X102048053Y-94307372D01*
X102017899Y-94370400D01*
X102013330Y-94375220D01*
X101472595Y-94915954D01*
X101472595Y-94915957D01*
X101538505Y-94966532D01*
X101695927Y-95057420D01*
X101731485Y-95077949D01*
X101731490Y-95077951D01*
X101731489Y-95077951D01*
X101752261Y-95086555D01*
X101853804Y-95128616D01*
X101884158Y-95146628D01*
X101892963Y-95153724D01*
X101932810Y-95211118D01*
X101935301Y-95280943D01*
X101899647Y-95341031D01*
X101899644Y-95341033D01*
X101894028Y-95346261D01*
X101856992Y-95370062D01*
X101731491Y-95422047D01*
X101731488Y-95422048D01*
X101731484Y-95422050D01*
X101538508Y-95533463D01*
X101472595Y-95584040D01*
X101472595Y-95584043D01*
X102013331Y-96124778D01*
X102046816Y-96186101D01*
X102041832Y-96255792D01*
X101999961Y-96311726D01*
X101994543Y-96315560D01*
X101975028Y-96328599D01*
X101863599Y-96440028D01*
X101850560Y-96459543D01*
X101796946Y-96504347D01*
X101727621Y-96513053D01*
X101664594Y-96482897D01*
X101659778Y-96478331D01*
X101119043Y-95937595D01*
X101119040Y-95937595D01*
X101068463Y-96003508D01*
X100957058Y-96196471D01*
X100957047Y-96196490D01*
X100907726Y-96315560D01*
X100871839Y-96402199D01*
X100871764Y-96402379D01*
X100871761Y-96402387D01*
X100814091Y-96617616D01*
X100814086Y-96617641D01*
X100814085Y-96617645D01*
X100785000Y-96838574D01*
X100785000Y-97061424D01*
X100814083Y-97282344D01*
X100814086Y-97282357D01*
X100814091Y-97282382D01*
X100869644Y-97489711D01*
X100871763Y-97497618D01*
X100909314Y-97588272D01*
X100957047Y-97703508D01*
X100957052Y-97703517D01*
X100957054Y-97703520D01*
X101057265Y-97877094D01*
X101068466Y-97896494D01*
X101068478Y-97896511D01*
X101119039Y-97962402D01*
X101119040Y-97962403D01*
X101119043Y-97962403D01*
X101659779Y-97421665D01*
X101721100Y-97388182D01*
X101790791Y-97393166D01*
X101846725Y-97435037D01*
X101850559Y-97440456D01*
X101863596Y-97459967D01*
X101863601Y-97459973D01*
X101975026Y-97571398D01*
X101975031Y-97571402D01*
X101994538Y-97584436D01*
X102039344Y-97638047D01*
X102048053Y-97707372D01*
X102017899Y-97770400D01*
X102013330Y-97775220D01*
X101472595Y-98315954D01*
X101472595Y-98315957D01*
X101538505Y-98366532D01*
X101539224Y-98366947D01*
X101731485Y-98477949D01*
X101731497Y-98477954D01*
X101937381Y-98563236D01*
X102083557Y-98602403D01*
X102152616Y-98620907D01*
X102152620Y-98620907D01*
X102152632Y-98620911D01*
X102152645Y-98620914D01*
X102373575Y-98650000D01*
X102596418Y-98650000D01*
X102596425Y-98650000D01*
X102817354Y-98620914D01*
X102817367Y-98620911D01*
X103032618Y-98563236D01*
X103238502Y-98477954D01*
X103238514Y-98477949D01*
X103431498Y-98366530D01*
X103497403Y-98315957D01*
X103497404Y-98315956D01*
X102956668Y-97775220D01*
X102923183Y-97713897D01*
X102928167Y-97644205D01*
X102970039Y-97588272D01*
X102975426Y-97584459D01*
X102994970Y-97571401D01*
X103106401Y-97459970D01*
X103119436Y-97440461D01*
X103173043Y-97395656D01*
X103242368Y-97386945D01*
X103305397Y-97417096D01*
X103310220Y-97421668D01*
X103850955Y-97962403D01*
X103850956Y-97962404D01*
X103850957Y-97962403D01*
X103901530Y-97896498D01*
X104012949Y-97703514D01*
X104012954Y-97703502D01*
X104098236Y-97497618D01*
X104155911Y-97282367D01*
X104155914Y-97282354D01*
X104185000Y-97061424D01*
X104185000Y-96876265D01*
X108962000Y-96876265D01*
X108962000Y-97123733D01*
X108962001Y-97123762D01*
X108994302Y-97369113D01*
X108994303Y-97369117D01*
X109000747Y-97393166D01*
X109053025Y-97588272D01*
X109058361Y-97608184D01*
X109153069Y-97836829D01*
X109153072Y-97836835D01*
X109153071Y-97836835D01*
X109225567Y-97962400D01*
X109276812Y-98051159D01*
X109276823Y-98051175D01*
X109276831Y-98051185D01*
X109427472Y-98247506D01*
X109427477Y-98247512D01*
X109427479Y-98247514D01*
X109427485Y-98247521D01*
X109602478Y-98422514D01*
X109602485Y-98422520D01*
X109602488Y-98422522D01*
X109602492Y-98422526D01*
X109696920Y-98494982D01*
X109696921Y-98494984D01*
X109760462Y-98543739D01*
X109798833Y-98573183D01*
X109798836Y-98573184D01*
X109798839Y-98573187D01*
X109798840Y-98573188D01*
X109799066Y-98573318D01*
X110009719Y-98694939D01*
X110011457Y-98696019D01*
X110012926Y-98696834D01*
X110013643Y-98697126D01*
X110241820Y-98791640D01*
X110480879Y-98855696D01*
X110726254Y-98888000D01*
X110726261Y-98888000D01*
X110973739Y-98888000D01*
X110973746Y-98888000D01*
X111219121Y-98855696D01*
X111458180Y-98791640D01*
X111686833Y-98696929D01*
X111901167Y-98573183D01*
X112097516Y-98422519D01*
X112272519Y-98247516D01*
X112423183Y-98051167D01*
X112546929Y-97836833D01*
X112641640Y-97608180D01*
X112705696Y-97369121D01*
X112738000Y-97123746D01*
X112738000Y-96876265D01*
X113662000Y-96876265D01*
X113662000Y-97123733D01*
X113662001Y-97123762D01*
X113694302Y-97369113D01*
X113694303Y-97369117D01*
X113700747Y-97393166D01*
X113753025Y-97588272D01*
X113758361Y-97608184D01*
X113853069Y-97836829D01*
X113853072Y-97836835D01*
X113853071Y-97836835D01*
X113925567Y-97962400D01*
X113976812Y-98051159D01*
X113976823Y-98051175D01*
X113976831Y-98051185D01*
X114127472Y-98247506D01*
X114127477Y-98247512D01*
X114127479Y-98247514D01*
X114127485Y-98247521D01*
X114302478Y-98422514D01*
X114302485Y-98422520D01*
X114302488Y-98422522D01*
X114302492Y-98422526D01*
X114396920Y-98494982D01*
X114396921Y-98494984D01*
X114460462Y-98543739D01*
X114498833Y-98573183D01*
X114498836Y-98573184D01*
X114498839Y-98573187D01*
X114498840Y-98573188D01*
X114499066Y-98573318D01*
X114709719Y-98694939D01*
X114711457Y-98696019D01*
X114712926Y-98696834D01*
X114713643Y-98697126D01*
X114941820Y-98791640D01*
X115180879Y-98855696D01*
X115426254Y-98888000D01*
X115426261Y-98888000D01*
X115673739Y-98888000D01*
X115673746Y-98888000D01*
X115919121Y-98855696D01*
X116158180Y-98791640D01*
X116386833Y-98696929D01*
X116601167Y-98573183D01*
X116797516Y-98422519D01*
X116972519Y-98247516D01*
X117123183Y-98051167D01*
X117246929Y-97836833D01*
X117341640Y-97608180D01*
X117405696Y-97369121D01*
X117438000Y-97123746D01*
X117438000Y-96876254D01*
X117405696Y-96630879D01*
X117341640Y-96391820D01*
X117247126Y-96163643D01*
X117246834Y-96162926D01*
X117246019Y-96161457D01*
X117244939Y-96159719D01*
X117123318Y-95949066D01*
X117123188Y-95948840D01*
X117123188Y-95948839D01*
X117029214Y-95826370D01*
X116972526Y-95752492D01*
X116972522Y-95752488D01*
X116972520Y-95752485D01*
X116972514Y-95752478D01*
X116797521Y-95577485D01*
X116797514Y-95577479D01*
X116797511Y-95577476D01*
X116797506Y-95577472D01*
X116780782Y-95564639D01*
X118362000Y-95564639D01*
X118362000Y-98435376D01*
X118362159Y-98437306D01*
X118362385Y-98438954D01*
X118368407Y-98494982D01*
X118396190Y-98569471D01*
X118418702Y-98629828D01*
X118418706Y-98629835D01*
X118434176Y-98650500D01*
X118504950Y-98745042D01*
X118504952Y-98745044D01*
X118504955Y-98745047D01*
X118620164Y-98831293D01*
X118620171Y-98831297D01*
X118669655Y-98849753D01*
X118705013Y-98876221D01*
X118761944Y-98882335D01*
X118761943Y-98882339D01*
X118761958Y-98882336D01*
X118814627Y-98888000D01*
X121685372Y-98887999D01*
X121744983Y-98881591D01*
X121879831Y-98831296D01*
X121995046Y-98745046D01*
X122081296Y-98629831D01*
X122131591Y-98494983D01*
X122138000Y-98435373D01*
X122137999Y-95564628D01*
X122131591Y-95505017D01*
X122112974Y-95455103D01*
X122081297Y-95370171D01*
X122081293Y-95370164D01*
X121995047Y-95254955D01*
X121995044Y-95254952D01*
X121995042Y-95254950D01*
X121932807Y-95208361D01*
X121879835Y-95168706D01*
X121879832Y-95168704D01*
X121879830Y-95168703D01*
X121879828Y-95168702D01*
X121830344Y-95150246D01*
X121794997Y-95123784D01*
X121693083Y-95112828D01*
X121688242Y-95112000D01*
X121685381Y-95112000D01*
X121685373Y-95112000D01*
X121685364Y-95112000D01*
X118814629Y-95112000D01*
X118814623Y-95112000D01*
X118812692Y-95112159D01*
X118811045Y-95112385D01*
X118755016Y-95118408D01*
X118669652Y-95150247D01*
X118620166Y-95168704D01*
X118620165Y-95168705D01*
X118504956Y-95254950D01*
X118504950Y-95254956D01*
X118418705Y-95370165D01*
X118418703Y-95370168D01*
X118387015Y-95455130D01*
X118368408Y-95505017D01*
X118362271Y-95562103D01*
X118362001Y-95564623D01*
X118362001Y-95564629D01*
X118362000Y-95564639D01*
X116780782Y-95564639D01*
X116602765Y-95428043D01*
X116601490Y-95427031D01*
X116601166Y-95426815D01*
X116461674Y-95346280D01*
X116386840Y-95303074D01*
X116386829Y-95303069D01*
X116158184Y-95208361D01*
X116158182Y-95208360D01*
X116158181Y-95208360D01*
X115954355Y-95153745D01*
X115919117Y-95144303D01*
X115919116Y-95144302D01*
X115919113Y-95144302D01*
X115677846Y-95112539D01*
X115675830Y-95112205D01*
X115673756Y-95112000D01*
X115673751Y-95112000D01*
X115673746Y-95112000D01*
X115426254Y-95112000D01*
X115426248Y-95112000D01*
X115426243Y-95112000D01*
X115424166Y-95112205D01*
X115422152Y-95112539D01*
X115180885Y-95144302D01*
X114941817Y-95208360D01*
X114829327Y-95254955D01*
X114713170Y-95303069D01*
X114713159Y-95303074D01*
X114654237Y-95337093D01*
X114498844Y-95426809D01*
X114498827Y-95426821D01*
X114498813Y-95426831D01*
X114302492Y-95577472D01*
X114302477Y-95577486D01*
X114302469Y-95577493D01*
X114127493Y-95752469D01*
X114127486Y-95752477D01*
X114127472Y-95752492D01*
X113976831Y-95948813D01*
X113976821Y-95948827D01*
X113976809Y-95948844D01*
X113891358Y-96096849D01*
X113853074Y-96163159D01*
X113853069Y-96163170D01*
X113839213Y-96196621D01*
X113758360Y-96391817D01*
X113694302Y-96630885D01*
X113662001Y-96876236D01*
X113662000Y-96876265D01*
X112738000Y-96876265D01*
X112738000Y-96876254D01*
X112705696Y-96630879D01*
X112641640Y-96391820D01*
X112547126Y-96163643D01*
X112546834Y-96162926D01*
X112546019Y-96161457D01*
X112544939Y-96159719D01*
X112423318Y-95949066D01*
X112423188Y-95948840D01*
X112423188Y-95948839D01*
X112329214Y-95826370D01*
X112272526Y-95752492D01*
X112272522Y-95752488D01*
X112272520Y-95752485D01*
X112272514Y-95752478D01*
X112097521Y-95577485D01*
X112097514Y-95577479D01*
X112097511Y-95577476D01*
X112097506Y-95577472D01*
X111902765Y-95428043D01*
X111901490Y-95427031D01*
X111901166Y-95426815D01*
X111761674Y-95346280D01*
X111686840Y-95303074D01*
X111686829Y-95303069D01*
X111458184Y-95208361D01*
X111458182Y-95208360D01*
X111458181Y-95208360D01*
X111254355Y-95153745D01*
X111219117Y-95144303D01*
X111219116Y-95144302D01*
X111219113Y-95144302D01*
X110977846Y-95112539D01*
X110975830Y-95112205D01*
X110973756Y-95112000D01*
X110973751Y-95112000D01*
X110973746Y-95112000D01*
X110726254Y-95112000D01*
X110726248Y-95112000D01*
X110726243Y-95112000D01*
X110724166Y-95112205D01*
X110722152Y-95112539D01*
X110480885Y-95144302D01*
X110241817Y-95208360D01*
X110129327Y-95254955D01*
X110013170Y-95303069D01*
X110013159Y-95303074D01*
X109954237Y-95337093D01*
X109798844Y-95426809D01*
X109798827Y-95426821D01*
X109798813Y-95426831D01*
X109602492Y-95577472D01*
X109602477Y-95577486D01*
X109602469Y-95577493D01*
X109427493Y-95752469D01*
X109427486Y-95752477D01*
X109427472Y-95752492D01*
X109276831Y-95948813D01*
X109276821Y-95948827D01*
X109276809Y-95948844D01*
X109191358Y-96096849D01*
X109153074Y-96163159D01*
X109153069Y-96163170D01*
X109139213Y-96196621D01*
X109058360Y-96391817D01*
X108994302Y-96630885D01*
X108962001Y-96876236D01*
X108962000Y-96876265D01*
X104185000Y-96876265D01*
X104185000Y-96838575D01*
X104155914Y-96617645D01*
X104155911Y-96617632D01*
X104155888Y-96617547D01*
X104125557Y-96504347D01*
X104098236Y-96402381D01*
X104012954Y-96196497D01*
X104012949Y-96196485D01*
X103902135Y-96004550D01*
X103901532Y-96003505D01*
X103850957Y-95937595D01*
X103850956Y-95937595D01*
X103850955Y-95937595D01*
X103850954Y-95937595D01*
X103310220Y-96478329D01*
X103248897Y-96511814D01*
X103179205Y-96506830D01*
X103123272Y-96464958D01*
X103119437Y-96459539D01*
X103106401Y-96440030D01*
X103106398Y-96440026D01*
X102994973Y-96328601D01*
X102994967Y-96328596D01*
X102975456Y-96315559D01*
X102930651Y-96261946D01*
X102921945Y-96192621D01*
X102952101Y-96129594D01*
X102956645Y-96124799D01*
X103497403Y-95584043D01*
X103497403Y-95584040D01*
X103472120Y-95564639D01*
X103431511Y-95533478D01*
X103431494Y-95533466D01*
X103431487Y-95533462D01*
X103238520Y-95422054D01*
X103238508Y-95422047D01*
X103116196Y-95371383D01*
X103085846Y-95353375D01*
X103077040Y-95346279D01*
X103037190Y-95288888D01*
X103034695Y-95219063D01*
X103070343Y-95158975D01*
X103075965Y-95153742D01*
X103112999Y-95129940D01*
X103238502Y-95077954D01*
X103238514Y-95077949D01*
X103431498Y-94966530D01*
X103497403Y-94915957D01*
X103497404Y-94915956D01*
X102956668Y-94375220D01*
X102923183Y-94313897D01*
X102928167Y-94244205D01*
X102970039Y-94188272D01*
X102975426Y-94184459D01*
X102994970Y-94171401D01*
X103106401Y-94059970D01*
X103119436Y-94040461D01*
X103173043Y-93995656D01*
X103242368Y-93986945D01*
X103305397Y-94017096D01*
X103310220Y-94021668D01*
X103850955Y-94562403D01*
X103850956Y-94562404D01*
X103850957Y-94562403D01*
X103901530Y-94496498D01*
X103901533Y-94496494D01*
X103929384Y-94448252D01*
X104012949Y-94303514D01*
X104012954Y-94303502D01*
X104098236Y-94097618D01*
X104155911Y-93882367D01*
X104155914Y-93882354D01*
X104168388Y-93787610D01*
X126469500Y-93787610D01*
X126469500Y-93988388D01*
X126500906Y-94186680D01*
X126538511Y-94302414D01*
X126562949Y-94377626D01*
X126603837Y-94457873D01*
X126623517Y-94496497D01*
X126654093Y-94556506D01*
X126689548Y-94605305D01*
X126772103Y-94718932D01*
X126914068Y-94860897D01*
X127076492Y-94978905D01*
X127156285Y-95019561D01*
X127195263Y-95039422D01*
X127224104Y-95059754D01*
X127228058Y-95063488D01*
X127233521Y-95068647D01*
X127268743Y-95128989D01*
X127265751Y-95198794D01*
X127229583Y-95252508D01*
X127222578Y-95258578D01*
X127197669Y-95275350D01*
X127076492Y-95337093D01*
X127076491Y-95337094D01*
X126983821Y-95404422D01*
X126983822Y-95404423D01*
X126925939Y-95446478D01*
X126918558Y-95450611D01*
X126767611Y-95601558D01*
X126763481Y-95608934D01*
X126748192Y-95629979D01*
X126748189Y-95629982D01*
X126659191Y-95752477D01*
X126654095Y-95759491D01*
X126654093Y-95759493D01*
X126654091Y-95759498D01*
X126562948Y-95938375D01*
X126500906Y-96129318D01*
X126490302Y-96196276D01*
X126490302Y-96196278D01*
X126469500Y-96327611D01*
X126469500Y-96528382D01*
X126483638Y-96617645D01*
X126483638Y-96617646D01*
X126500906Y-96726678D01*
X126500907Y-96726683D01*
X126549503Y-96876243D01*
X126562949Y-96917626D01*
X126571008Y-96933442D01*
X126636239Y-97061465D01*
X126654093Y-97096506D01*
X126676584Y-97127462D01*
X126772103Y-97258932D01*
X126914068Y-97400897D01*
X127076492Y-97518905D01*
X127156285Y-97559561D01*
X127195263Y-97579422D01*
X127224104Y-97599754D01*
X127233030Y-97608184D01*
X127233521Y-97608647D01*
X127268743Y-97668989D01*
X127265751Y-97738794D01*
X127229583Y-97792508D01*
X127222578Y-97798578D01*
X127197669Y-97815350D01*
X127076492Y-97877093D01*
X127076491Y-97877094D01*
X126983821Y-97944422D01*
X126983822Y-97944423D01*
X126925939Y-97986478D01*
X126918558Y-97990611D01*
X126767610Y-98141559D01*
X126763478Y-98148938D01*
X126740677Y-98180321D01*
X126740677Y-98180322D01*
X126654095Y-98299490D01*
X126613499Y-98379165D01*
X126562949Y-98478373D01*
X126557552Y-98494983D01*
X126500906Y-98669318D01*
X126469500Y-98867610D01*
X126469500Y-99068388D01*
X126500906Y-99266680D01*
X126538511Y-99382414D01*
X126562949Y-99457626D01*
X126619083Y-99567795D01*
X126646094Y-99620807D01*
X126646102Y-99620821D01*
X126654095Y-99636508D01*
X126772103Y-99798932D01*
X126914068Y-99940897D01*
X127076492Y-100058905D01*
X127161007Y-100101967D01*
X127248932Y-100146768D01*
X127250534Y-100147706D01*
X127254256Y-100149509D01*
X127256230Y-100150489D01*
X127259984Y-100151548D01*
X127446320Y-100212093D01*
X127644616Y-100243500D01*
X127644617Y-100243500D01*
X127845383Y-100243500D01*
X127845384Y-100243500D01*
X128043680Y-100212093D01*
X128234622Y-100150052D01*
X128413508Y-100058905D01*
X128575932Y-99940897D01*
X128717897Y-99798932D01*
X128835905Y-99636508D01*
X128927052Y-99457622D01*
X128989093Y-99266680D01*
X129020500Y-99068384D01*
X129020500Y-98867616D01*
X128989093Y-98669320D01*
X128928551Y-98482991D01*
X128927491Y-98479233D01*
X128926495Y-98477229D01*
X128924700Y-98473524D01*
X128923767Y-98471929D01*
X128876504Y-98379172D01*
X128835905Y-98299492D01*
X128717897Y-98137068D01*
X128575932Y-97995103D01*
X128413508Y-97877095D01*
X128334482Y-97836829D01*
X128294736Y-97816577D01*
X128265885Y-97796237D01*
X128256473Y-97787347D01*
X128221254Y-97727004D01*
X128224249Y-97657198D01*
X128260413Y-97603493D01*
X128267429Y-97597413D01*
X128292328Y-97580649D01*
X128310477Y-97571402D01*
X128413508Y-97518905D01*
X128575932Y-97400897D01*
X128717897Y-97258932D01*
X128835905Y-97096508D01*
X128918992Y-96933440D01*
X128939326Y-96904596D01*
X128948859Y-96894502D01*
X129009200Y-96859282D01*
X129079003Y-96862275D01*
X129079031Y-96862285D01*
X129080975Y-96862948D01*
X129129716Y-96893728D01*
X129132688Y-96896775D01*
X129147023Y-96914466D01*
X129205536Y-97002036D01*
X129205537Y-97002037D01*
X129205542Y-97002043D01*
X129330955Y-97127456D01*
X129330961Y-97127461D01*
X129330965Y-97127464D01*
X129478446Y-97226009D01*
X129478459Y-97226016D01*
X129557932Y-97258934D01*
X129642334Y-97293894D01*
X129642335Y-97293894D01*
X129642336Y-97293894D01*
X129642341Y-97293896D01*
X129808680Y-97326982D01*
X129811403Y-97327704D01*
X129816306Y-97328500D01*
X129993693Y-97328500D01*
X129997814Y-97328500D01*
X130005667Y-97326117D01*
X130051682Y-97316964D01*
X130051683Y-97316964D01*
X130167663Y-97293895D01*
X130167665Y-97293894D01*
X130167666Y-97293894D01*
X130169868Y-97292982D01*
X130178829Y-97289275D01*
X130178869Y-97289253D01*
X130321284Y-97230264D01*
X130324975Y-97228734D01*
X130327778Y-97227757D01*
X130329229Y-97227086D01*
X130333894Y-97225040D01*
X130343158Y-97221202D01*
X130352044Y-97212317D01*
X130371226Y-97199500D01*
X130479035Y-97127464D01*
X130604464Y-97002035D01*
X130703013Y-96854547D01*
X130704911Y-96849966D01*
X130709629Y-96838575D01*
X130712954Y-96830545D01*
X130712958Y-96830535D01*
X130755977Y-96726678D01*
X130770894Y-96690666D01*
X130770894Y-96690662D01*
X130770896Y-96690659D01*
X130776867Y-96660636D01*
X130782787Y-96630879D01*
X130805074Y-96518828D01*
X130805500Y-96516872D01*
X130805500Y-96339125D01*
X130805074Y-96337169D01*
X130770896Y-96165341D01*
X130770893Y-96165332D01*
X130769997Y-96163170D01*
X130769992Y-96163159D01*
X130769988Y-96163148D01*
X130704296Y-96004550D01*
X130704292Y-96004540D01*
X130703016Y-96001459D01*
X130703009Y-96001446D01*
X130604464Y-95853965D01*
X130604461Y-95853961D01*
X130604459Y-95853959D01*
X130604456Y-95853955D01*
X130479043Y-95728542D01*
X130479037Y-95728537D01*
X130479036Y-95728536D01*
X130331559Y-95629994D01*
X130331558Y-95629993D01*
X130331553Y-95629990D01*
X130331540Y-95629983D01*
X130331526Y-95629977D01*
X130167676Y-95562109D01*
X130167653Y-95562101D01*
X130167646Y-95562099D01*
X129993698Y-95527500D01*
X129993694Y-95527500D01*
X129993691Y-95527500D01*
X129816309Y-95527500D01*
X129816306Y-95527500D01*
X129816301Y-95527500D01*
X129642352Y-95562100D01*
X129642345Y-95562101D01*
X129642322Y-95562109D01*
X129478472Y-95629977D01*
X129478454Y-95629985D01*
X129478439Y-95629994D01*
X129330962Y-95728536D01*
X129330961Y-95728537D01*
X129330955Y-95728542D01*
X129205550Y-95853947D01*
X129205540Y-95853958D01*
X129205521Y-95853983D01*
X129150574Y-95936216D01*
X129126990Y-95962471D01*
X129116343Y-95971369D01*
X129052280Y-95999255D01*
X128983310Y-95988079D01*
X128983308Y-95988078D01*
X128981452Y-95987190D01*
X128936644Y-95950885D01*
X128934043Y-95947499D01*
X128921899Y-95928265D01*
X128884039Y-95853961D01*
X128869986Y-95826380D01*
X128835906Y-95759493D01*
X128813413Y-95728535D01*
X128717897Y-95597068D01*
X128575932Y-95455103D01*
X128413508Y-95337095D01*
X128413504Y-95337093D01*
X128294736Y-95276577D01*
X128265885Y-95256237D01*
X128256473Y-95247347D01*
X128221254Y-95187004D01*
X128224249Y-95117198D01*
X128260413Y-95063493D01*
X128267429Y-95057413D01*
X128292328Y-95040649D01*
X128413506Y-94978906D01*
X128413505Y-94978906D01*
X128413508Y-94978905D01*
X128575932Y-94860897D01*
X128717897Y-94718932D01*
X128835905Y-94556508D01*
X128927052Y-94377622D01*
X128989093Y-94186680D01*
X129020500Y-93988384D01*
X129020500Y-93787616D01*
X128989093Y-93589320D01*
X128989092Y-93589316D01*
X128989092Y-93589315D01*
X128928555Y-93403002D01*
X128927492Y-93399235D01*
X128926488Y-93397213D01*
X128924703Y-93393528D01*
X128923765Y-93391926D01*
X128835903Y-93219490D01*
X128834558Y-93217638D01*
X128834558Y-93217637D01*
X128768576Y-93126822D01*
X128717897Y-93057068D01*
X128575932Y-92915103D01*
X128483978Y-92848294D01*
X128458667Y-92823695D01*
X128451762Y-92814740D01*
X128426415Y-92749630D01*
X128440292Y-92681153D01*
X128488985Y-92631049D01*
X128491685Y-92629524D01*
X128552657Y-92613499D01*
X128557871Y-92613499D01*
X128557872Y-92613499D01*
X128617483Y-92607091D01*
X128752331Y-92556796D01*
X128867546Y-92470546D01*
X128953796Y-92355331D01*
X129004091Y-92220483D01*
X129010500Y-92160873D01*
X129010499Y-90535128D01*
X129004091Y-90475517D01*
X128987212Y-90430263D01*
X128953797Y-90340671D01*
X128953793Y-90340664D01*
X128867547Y-90225455D01*
X128867544Y-90225452D01*
X128867542Y-90225450D01*
X128809616Y-90182086D01*
X128752335Y-90139206D01*
X128752332Y-90139204D01*
X128752330Y-90139203D01*
X128752328Y-90139202D01*
X128702844Y-90120746D01*
X128667497Y-90094284D01*
X128565583Y-90083328D01*
X128560742Y-90082500D01*
X128557881Y-90082500D01*
X128557873Y-90082500D01*
X128557864Y-90082500D01*
X126932129Y-90082500D01*
X126932123Y-90082500D01*
X126930192Y-90082659D01*
X126928545Y-90082885D01*
X126872516Y-90088908D01*
X126787152Y-90120747D01*
X126737666Y-90139204D01*
X126737665Y-90139205D01*
X126622456Y-90225450D01*
X126622450Y-90225456D01*
X126536205Y-90340665D01*
X126536203Y-90340668D01*
X126485908Y-90475516D01*
X126485907Y-90475518D01*
X126484286Y-90490608D01*
X126479500Y-90535133D01*
X126479500Y-92160876D01*
X126479659Y-92162806D01*
X126479885Y-92164454D01*
X126485907Y-92220482D01*
X126503905Y-92268736D01*
X126536202Y-92355328D01*
X126536203Y-92355330D01*
X126536204Y-92355332D01*
X126536205Y-92355333D01*
X126622450Y-92470542D01*
X126622452Y-92470544D01*
X126622455Y-92470547D01*
X126737664Y-92556793D01*
X126737671Y-92556797D01*
X126782618Y-92573561D01*
X126872516Y-92607091D01*
X126932116Y-92613499D01*
X126932119Y-92613499D01*
X126932127Y-92613500D01*
X126932134Y-92613499D01*
X126935435Y-92613677D01*
X126935425Y-92613855D01*
X126935432Y-92613856D01*
X126935418Y-92613977D01*
X126935400Y-92614330D01*
X126964656Y-92618520D01*
X126975511Y-92621707D01*
X127034290Y-92659481D01*
X127063316Y-92723036D01*
X127053388Y-92792163D01*
X127052103Y-92794979D01*
X127012180Y-92843818D01*
X126914065Y-92915104D01*
X126767611Y-93061558D01*
X126763478Y-93068939D01*
X126721423Y-93126822D01*
X126721422Y-93126821D01*
X126654097Y-93219487D01*
X126654095Y-93219491D01*
X126562949Y-93398373D01*
X126562669Y-93399235D01*
X126500906Y-93589318D01*
X126469500Y-93787610D01*
X104168388Y-93787610D01*
X104171159Y-93766559D01*
X104185000Y-93661424D01*
X104185000Y-93438575D01*
X104155914Y-93217645D01*
X104155911Y-93217632D01*
X104155888Y-93217547D01*
X104125557Y-93104347D01*
X104098236Y-93002381D01*
X104012954Y-92796497D01*
X104012949Y-92796485D01*
X103907508Y-92613856D01*
X103901532Y-92603505D01*
X103850957Y-92537595D01*
X103850956Y-92537595D01*
X103850955Y-92537595D01*
X103850954Y-92537595D01*
X103310220Y-93078329D01*
X103248897Y-93111814D01*
X103179205Y-93106830D01*
X103123272Y-93064958D01*
X103119437Y-93059539D01*
X103106401Y-93040030D01*
X103106398Y-93040026D01*
X102994973Y-92928601D01*
X102994967Y-92928596D01*
X102975456Y-92915559D01*
X102930651Y-92861946D01*
X102921945Y-92792621D01*
X102952101Y-92729594D01*
X102956645Y-92724799D01*
X103497403Y-92184043D01*
X103497403Y-92184040D01*
X103497402Y-92184039D01*
X103431511Y-92133478D01*
X103431494Y-92133466D01*
X103431487Y-92133462D01*
X103238520Y-92022054D01*
X103238508Y-92022047D01*
X103145216Y-91983403D01*
X103032618Y-91936763D01*
X103032611Y-91936761D01*
X102817382Y-91879091D01*
X102817367Y-91879088D01*
X102817354Y-91879085D01*
X102817350Y-91879084D01*
X102817344Y-91879083D01*
X102596426Y-91850000D01*
X102596425Y-91850000D01*
X102373575Y-91850000D01*
X102373574Y-91850000D01*
X102152654Y-91879083D01*
X102152641Y-91879086D01*
X102152616Y-91879091D01*
X101937387Y-91936761D01*
X101937383Y-91936762D01*
X101937381Y-91936763D01*
X101937379Y-91936764D01*
X101731490Y-92022047D01*
X101731471Y-92022058D01*
X101538508Y-92133463D01*
X101472595Y-92184040D01*
X101472595Y-92184043D01*
X102013331Y-92724778D01*
X102046816Y-92786101D01*
X102041832Y-92855792D01*
X101999961Y-92911726D01*
X101994543Y-92915560D01*
X101975028Y-92928599D01*
X101863599Y-93040028D01*
X101850560Y-93059543D01*
X101796946Y-93104347D01*
X101727621Y-93113053D01*
X101664594Y-93082897D01*
X101659778Y-93078331D01*
X101119043Y-92537595D01*
X101119040Y-92537595D01*
X101068463Y-92603508D01*
X100957058Y-92796471D01*
X100957047Y-92796490D01*
X100907726Y-92915560D01*
X100871839Y-93002199D01*
X100871764Y-93002379D01*
X100871761Y-93002387D01*
X100814091Y-93217616D01*
X100814087Y-93217638D01*
X100814083Y-93217654D01*
X100785000Y-93438574D01*
X99005500Y-93438574D01*
X99005500Y-83672395D01*
X99025185Y-83605356D01*
X99077989Y-83559601D01*
X99147147Y-83549657D01*
X99198389Y-83569292D01*
X99295814Y-83634390D01*
X99295827Y-83634397D01*
X99441498Y-83694735D01*
X99441503Y-83694737D01*
X99588513Y-83723979D01*
X99591247Y-83724703D01*
X99596155Y-83725500D01*
X99753844Y-83725500D01*
X99757964Y-83725500D01*
X99765814Y-83723118D01*
X99908497Y-83694737D01*
X100054179Y-83634394D01*
X100185289Y-83546789D01*
X100296789Y-83435289D01*
X100384394Y-83304179D01*
X100444737Y-83158497D01*
X100474217Y-83010292D01*
X100475500Y-83003844D01*
X100475500Y-82845971D01*
X100475064Y-82843966D01*
X100453090Y-82733496D01*
X100444737Y-82691503D01*
X100435294Y-82668706D01*
X100435293Y-82668704D01*
X100398074Y-82578848D01*
X100384397Y-82545827D01*
X100384390Y-82545814D01*
X100296789Y-82414711D01*
X100296786Y-82414707D01*
X100296781Y-82414701D01*
X100185297Y-82303217D01*
X100185291Y-82303212D01*
X100185290Y-82303211D01*
X100054191Y-82215613D01*
X100054190Y-82215612D01*
X100054185Y-82215609D01*
X100054172Y-82215602D01*
X100054165Y-82215598D01*
X99908502Y-82155264D01*
X99908471Y-82155257D01*
X99753847Y-82124500D01*
X99753845Y-82124500D01*
X99753842Y-82124500D01*
X99596158Y-82124500D01*
X99596155Y-82124500D01*
X99596153Y-82124500D01*
X99441527Y-82155257D01*
X99441496Y-82155264D01*
X99295833Y-82215598D01*
X99295824Y-82215603D01*
X99295797Y-82215619D01*
X99198390Y-82280705D01*
X99131713Y-82301583D01*
X99064333Y-82283098D01*
X99017643Y-82231119D01*
X99005500Y-82177603D01*
X99005500Y-78624010D01*
X99005500Y-78624000D01*
X98993947Y-78516544D01*
X98982741Y-78465033D01*
X98982637Y-78464722D01*
X98948616Y-78362502D01*
X98948613Y-78362496D01*
X98870828Y-78241462D01*
X98870825Y-78241457D01*
X98870820Y-78241451D01*
X98825076Y-78188659D01*
X98825072Y-78188656D01*
X98825070Y-78188653D01*
X98716336Y-78094433D01*
X98716333Y-78094431D01*
X98716331Y-78094430D01*
X98585465Y-78034664D01*
X98585460Y-78034662D01*
X98585459Y-78034662D01*
X98518420Y-78014977D01*
X98518422Y-78014977D01*
X98518417Y-78014976D01*
X98456347Y-78006052D01*
X98376000Y-77994500D01*
X98375998Y-77994500D01*
X71874010Y-77994500D01*
X71874000Y-77994500D01*
X71873991Y-77994500D01*
X71873990Y-77994501D01*
X71766549Y-78006052D01*
X71766537Y-78006054D01*
X71715027Y-78017260D01*
X71612502Y-78051383D01*
X71612496Y-78051386D01*
X71491462Y-78129171D01*
X71491451Y-78129179D01*
X71438659Y-78174923D01*
X71344433Y-78283664D01*
X71344430Y-78283668D01*
X71284664Y-78414534D01*
X71264976Y-78481582D01*
X71259949Y-78516549D01*
X71244502Y-78623990D01*
X71244500Y-78624001D01*
X71244500Y-109626000D01*
X71224815Y-109693039D01*
X71172011Y-109738794D01*
X71120500Y-109750000D01*
X50834319Y-109750000D01*
X50799378Y-109744975D01*
X50784379Y-109740570D01*
X50725617Y-109702809D01*
X50720805Y-109697257D01*
X50692891Y-109640234D01*
X50688925Y-109620298D01*
X50688924Y-109620295D01*
X50688923Y-109620289D01*
X50656889Y-109459240D01*
X50564180Y-109153619D01*
X50475031Y-108938394D01*
X50441964Y-108858563D01*
X50441963Y-108858562D01*
X50441961Y-108858556D01*
X50430995Y-108838041D01*
X50293530Y-108580863D01*
X50293016Y-108579810D01*
X50291777Y-108577561D01*
X50291133Y-108576375D01*
X50289761Y-108574428D01*
X50271623Y-108547282D01*
X50113987Y-108311361D01*
X50113980Y-108311351D01*
X50113975Y-108311344D01*
X49911845Y-108065048D01*
X49911411Y-108064513D01*
X49911363Y-108064460D01*
X49685545Y-107838642D01*
X49438669Y-107636034D01*
X49438642Y-107636015D01*
X49413680Y-107619336D01*
X49173122Y-107458601D01*
X49173109Y-107458593D01*
X49173093Y-107458583D01*
X49173072Y-107458571D01*
X48950258Y-107339475D01*
X48891451Y-107308042D01*
X48891446Y-107308040D01*
X48891441Y-107308038D01*
X48891346Y-107307993D01*
X48890767Y-107307758D01*
X48596387Y-107185821D01*
X48300812Y-107096160D01*
X48290754Y-107093109D01*
X48290753Y-107093108D01*
X48290744Y-107093106D01*
X48290733Y-107093103D01*
X48082933Y-107051770D01*
X48082840Y-107051752D01*
X47977521Y-107030803D01*
X47977523Y-107030803D01*
X47967842Y-107029849D01*
X47967834Y-107029848D01*
X47879588Y-107021157D01*
X47845311Y-107012733D01*
X47830817Y-107006880D01*
X47796455Y-106979693D01*
X47788627Y-106975679D01*
X47786288Y-106971648D01*
X47776031Y-106963533D01*
X47773123Y-106959424D01*
X47758322Y-106923452D01*
X47753560Y-106915246D01*
X47753697Y-106912214D01*
X47752022Y-106908141D01*
X47751680Y-106906094D01*
X47750000Y-106885748D01*
X47750000Y-105483466D01*
X47755022Y-105448533D01*
X47755031Y-105448503D01*
X47758933Y-105435214D01*
X47796706Y-105376437D01*
X47860258Y-105347412D01*
X47865453Y-105346665D01*
X47930546Y-105354843D01*
X47966503Y-105369737D01*
X48111596Y-105398598D01*
X48113515Y-105398979D01*
X48116248Y-105399703D01*
X48121155Y-105400500D01*
X48278844Y-105400500D01*
X48282964Y-105400500D01*
X48290814Y-105398118D01*
X48433497Y-105369737D01*
X48579179Y-105309394D01*
X48710289Y-105221789D01*
X48756337Y-105175741D01*
X48821788Y-105110291D01*
X48821789Y-105110289D01*
X48909394Y-104979179D01*
X48969737Y-104833497D01*
X49000500Y-104678842D01*
X49000500Y-104521158D01*
X49000500Y-104521155D01*
X49000500Y-104520973D01*
X49000065Y-104518972D01*
X48992374Y-104480306D01*
X48970395Y-104369816D01*
X48969994Y-104367467D01*
X48969738Y-104366508D01*
X48969737Y-104366506D01*
X48969737Y-104366503D01*
X48969735Y-104366498D01*
X48909397Y-104220827D01*
X48909390Y-104220814D01*
X48821789Y-104089711D01*
X48821786Y-104089707D01*
X48821781Y-104089701D01*
X48710297Y-103978217D01*
X48710291Y-103978212D01*
X48710290Y-103978211D01*
X48579191Y-103890613D01*
X48579190Y-103890612D01*
X48579185Y-103890609D01*
X48579172Y-103890602D01*
X48579165Y-103890598D01*
X48433502Y-103830264D01*
X48433471Y-103830257D01*
X48278847Y-103799500D01*
X48278845Y-103799500D01*
X48278842Y-103799500D01*
X48121158Y-103799500D01*
X48121155Y-103799500D01*
X48121153Y-103799500D01*
X47966527Y-103830257D01*
X47966503Y-103830262D01*
X47966489Y-103830267D01*
X47937921Y-103842101D01*
X47903727Y-103850828D01*
X47889924Y-103852312D01*
X47821168Y-103839906D01*
X47770031Y-103792296D01*
X47770026Y-103792287D01*
X47767353Y-103787781D01*
X47750000Y-103724517D01*
X47750000Y-100078848D01*
X51399499Y-100078848D01*
X51430257Y-100233471D01*
X51430264Y-100233502D01*
X51490598Y-100379165D01*
X51490603Y-100379174D01*
X51490613Y-100379191D01*
X51578211Y-100510290D01*
X51578212Y-100510291D01*
X51578217Y-100510297D01*
X51689701Y-100621781D01*
X51689707Y-100621786D01*
X51689711Y-100621789D01*
X51820814Y-100709390D01*
X51820827Y-100709397D01*
X51966498Y-100769735D01*
X51966503Y-100769737D01*
X52113513Y-100798979D01*
X52116247Y-100799703D01*
X52121155Y-100800500D01*
X52278844Y-100800500D01*
X52282964Y-100800500D01*
X52290814Y-100798118D01*
X52433497Y-100769737D01*
X52579179Y-100709394D01*
X52710289Y-100621789D01*
X52821789Y-100510289D01*
X52909394Y-100379179D01*
X52969737Y-100233497D01*
X53000500Y-100078842D01*
X53000500Y-99921158D01*
X53000500Y-99921155D01*
X53000500Y-99920971D01*
X53000064Y-99918966D01*
X52976188Y-99798934D01*
X52969737Y-99766503D01*
X52915892Y-99636508D01*
X52909397Y-99620827D01*
X52909390Y-99620814D01*
X52821789Y-99489711D01*
X52821786Y-99489707D01*
X52821781Y-99489701D01*
X52710297Y-99378217D01*
X52710291Y-99378212D01*
X52710290Y-99378211D01*
X52579191Y-99290613D01*
X52579190Y-99290612D01*
X52579185Y-99290609D01*
X52579172Y-99290602D01*
X52579165Y-99290598D01*
X52433502Y-99230264D01*
X52433471Y-99230257D01*
X52278847Y-99199500D01*
X52278845Y-99199500D01*
X52278842Y-99199500D01*
X52121158Y-99199500D01*
X52121155Y-99199500D01*
X52121153Y-99199500D01*
X51966527Y-99230257D01*
X51966496Y-99230264D01*
X51820833Y-99290598D01*
X51820824Y-99290603D01*
X51820807Y-99290613D01*
X51689708Y-99378211D01*
X51689707Y-99378212D01*
X51689701Y-99378217D01*
X51578217Y-99489701D01*
X51578212Y-99489707D01*
X51578211Y-99489708D01*
X51490613Y-99620807D01*
X51490600Y-99620829D01*
X51490599Y-99620831D01*
X51430264Y-99766496D01*
X51430257Y-99766527D01*
X51399500Y-99921150D01*
X51399500Y-99921153D01*
X51399500Y-100078846D01*
X51399500Y-100078848D01*
X51399499Y-100078848D01*
X47750000Y-100078848D01*
X47750000Y-98078848D01*
X54199499Y-98078848D01*
X54230257Y-98233471D01*
X54230264Y-98233502D01*
X54290598Y-98379165D01*
X54290602Y-98379172D01*
X54290609Y-98379185D01*
X54290612Y-98379190D01*
X54290613Y-98379191D01*
X54378211Y-98510290D01*
X54378212Y-98510291D01*
X54378217Y-98510297D01*
X54489701Y-98621781D01*
X54489707Y-98621786D01*
X54489711Y-98621789D01*
X54620814Y-98709390D01*
X54620827Y-98709397D01*
X54766498Y-98769735D01*
X54766503Y-98769737D01*
X54913513Y-98798979D01*
X54916247Y-98799703D01*
X54921155Y-98800500D01*
X55078844Y-98800500D01*
X55082964Y-98800500D01*
X55090814Y-98798118D01*
X55233497Y-98769737D01*
X55379179Y-98709394D01*
X55510289Y-98621789D01*
X55621789Y-98510289D01*
X55709394Y-98379179D01*
X55769737Y-98233497D01*
X55800500Y-98078842D01*
X55800500Y-97921158D01*
X55800500Y-97921155D01*
X55800500Y-97920971D01*
X55800064Y-97918966D01*
X55783728Y-97836840D01*
X55776117Y-97798578D01*
X55769737Y-97766503D01*
X55747947Y-97713897D01*
X55743734Y-97703725D01*
X55719080Y-97644205D01*
X55709397Y-97620827D01*
X55709390Y-97620814D01*
X55621789Y-97489711D01*
X55621786Y-97489707D01*
X55621781Y-97489701D01*
X55510297Y-97378217D01*
X55510291Y-97378212D01*
X55510290Y-97378211D01*
X55379191Y-97290613D01*
X55379190Y-97290612D01*
X55379185Y-97290609D01*
X55379172Y-97290602D01*
X55379165Y-97290598D01*
X55233502Y-97230264D01*
X55233471Y-97230257D01*
X55078847Y-97199500D01*
X55078845Y-97199500D01*
X55078842Y-97199500D01*
X54921158Y-97199500D01*
X54921155Y-97199500D01*
X54921153Y-97199500D01*
X54766527Y-97230257D01*
X54766496Y-97230264D01*
X54620833Y-97290598D01*
X54620824Y-97290603D01*
X54620807Y-97290613D01*
X54489708Y-97378211D01*
X54489707Y-97378212D01*
X54489701Y-97378217D01*
X54378217Y-97489701D01*
X54378212Y-97489707D01*
X54378211Y-97489708D01*
X54290613Y-97620807D01*
X54290603Y-97620824D01*
X54290598Y-97620833D01*
X54230264Y-97766496D01*
X54230257Y-97766527D01*
X54199500Y-97921150D01*
X54199500Y-97921153D01*
X54199500Y-98078846D01*
X54199500Y-98078848D01*
X54199499Y-98078848D01*
X47750000Y-98078848D01*
X47750000Y-93438541D01*
X65314500Y-93438541D01*
X65314500Y-93661457D01*
X65314503Y-93661482D01*
X65343593Y-93882447D01*
X65343597Y-93882467D01*
X65401288Y-94097776D01*
X65401290Y-94097780D01*
X65401293Y-94097790D01*
X65486512Y-94303527D01*
X65486595Y-94303726D01*
X65596212Y-94493589D01*
X65597233Y-94495486D01*
X65598067Y-94496873D01*
X65599571Y-94498754D01*
X65648409Y-94562402D01*
X65733751Y-94673622D01*
X65733757Y-94673629D01*
X65891370Y-94831242D01*
X65891376Y-94831247D01*
X66068226Y-94966948D01*
X66261274Y-95078405D01*
X66280945Y-95086553D01*
X66280948Y-95086555D01*
X66280949Y-95086555D01*
X66332194Y-95107781D01*
X66382496Y-95128617D01*
X66412845Y-95146624D01*
X66421657Y-95153725D01*
X66461503Y-95211118D01*
X66463994Y-95280943D01*
X66428340Y-95341031D01*
X66428336Y-95341034D01*
X66422721Y-95346261D01*
X66385685Y-95370061D01*
X66261272Y-95421594D01*
X66068237Y-95533044D01*
X66068212Y-95533061D01*
X66068210Y-95533062D01*
X65891395Y-95668736D01*
X65891379Y-95668749D01*
X65891369Y-95668758D01*
X65891361Y-95668765D01*
X65733765Y-95826361D01*
X65733758Y-95826369D01*
X65733749Y-95826379D01*
X65733736Y-95826395D01*
X65598062Y-96003210D01*
X65598061Y-96003212D01*
X65598044Y-96003237D01*
X65486595Y-96196272D01*
X65401297Y-96402199D01*
X65401289Y-96402219D01*
X65370617Y-96516694D01*
X65343594Y-96617544D01*
X65343592Y-96617556D01*
X65314503Y-96838516D01*
X65314500Y-96838541D01*
X65314500Y-97061457D01*
X65314503Y-97061482D01*
X65343593Y-97282447D01*
X65343597Y-97282467D01*
X65401288Y-97497776D01*
X65401290Y-97497780D01*
X65401293Y-97497790D01*
X65486512Y-97703527D01*
X65486595Y-97703726D01*
X65596212Y-97893589D01*
X65597233Y-97895486D01*
X65598067Y-97896873D01*
X65599571Y-97898754D01*
X65716534Y-98051185D01*
X65733751Y-98073622D01*
X65733757Y-98073629D01*
X65891370Y-98231242D01*
X65891377Y-98231248D01*
X65891380Y-98231250D01*
X65891384Y-98231254D01*
X65894314Y-98233502D01*
X65912578Y-98247516D01*
X66068226Y-98366948D01*
X66261274Y-98478405D01*
X66261277Y-98478406D01*
X66261284Y-98478410D01*
X66289860Y-98490245D01*
X66301292Y-98494980D01*
X66301294Y-98494982D01*
X66301295Y-98494982D01*
X66466074Y-98563236D01*
X66466086Y-98563241D01*
X66466085Y-98563241D01*
X66467216Y-98563709D01*
X66467217Y-98563709D01*
X66467219Y-98563710D01*
X66682537Y-98621404D01*
X66903543Y-98650500D01*
X66903550Y-98650500D01*
X67126450Y-98650500D01*
X67126457Y-98650500D01*
X67347463Y-98621404D01*
X67562781Y-98563710D01*
X67768726Y-98478405D01*
X67961774Y-98366948D01*
X68138624Y-98231247D01*
X68296247Y-98073624D01*
X68431948Y-97896774D01*
X68543405Y-97703726D01*
X68628710Y-97497781D01*
X68686404Y-97282463D01*
X68715500Y-97061457D01*
X68715500Y-96838543D01*
X68686404Y-96617537D01*
X68628710Y-96402219D01*
X68624403Y-96391820D01*
X68543406Y-96196276D01*
X68543404Y-96196273D01*
X68431948Y-96003226D01*
X68296247Y-95826376D01*
X68296242Y-95826370D01*
X68138629Y-95668757D01*
X68138622Y-95668751D01*
X68138612Y-95668743D01*
X68138603Y-95668736D01*
X67963754Y-95534571D01*
X67961873Y-95533067D01*
X67960486Y-95532233D01*
X67958589Y-95531212D01*
X67768726Y-95421594D01*
X67647503Y-95371382D01*
X67617153Y-95353375D01*
X67608346Y-95346278D01*
X67568498Y-95288889D01*
X67566002Y-95219064D01*
X67601650Y-95158976D01*
X67607269Y-95153744D01*
X67644308Y-95129940D01*
X67687620Y-95112000D01*
X67768726Y-95078405D01*
X67961774Y-94966948D01*
X68138624Y-94831247D01*
X68296247Y-94673624D01*
X68431948Y-94496774D01*
X68543405Y-94303726D01*
X68628710Y-94097781D01*
X68686404Y-93882463D01*
X68715500Y-93661457D01*
X68715500Y-93438543D01*
X68686404Y-93217537D01*
X68628710Y-93002219D01*
X68543405Y-92796274D01*
X68431948Y-92603226D01*
X68381588Y-92537595D01*
X68296248Y-92426377D01*
X68296242Y-92426370D01*
X68138629Y-92268757D01*
X68138622Y-92268751D01*
X68138612Y-92268743D01*
X68138603Y-92268736D01*
X67963754Y-92134571D01*
X67961873Y-92133067D01*
X67960486Y-92132233D01*
X67958589Y-92131212D01*
X67768726Y-92021595D01*
X67768722Y-92021593D01*
X67566833Y-91937968D01*
X67565016Y-91937138D01*
X67564536Y-91936956D01*
X67563015Y-91936352D01*
X67347467Y-91878597D01*
X67347465Y-91878596D01*
X67347463Y-91878596D01*
X67347457Y-91878595D01*
X67347452Y-91878594D01*
X67347447Y-91878593D01*
X67128335Y-91849747D01*
X67126654Y-91849500D01*
X67126463Y-91849500D01*
X67126457Y-91849500D01*
X66903543Y-91849500D01*
X66903537Y-91849500D01*
X66903535Y-91849500D01*
X66897415Y-91850253D01*
X66896509Y-91850425D01*
X66682568Y-91878591D01*
X66682536Y-91878595D01*
X66680727Y-91879022D01*
X66678951Y-91879556D01*
X66567612Y-91909390D01*
X66567611Y-91909390D01*
X66467222Y-91936288D01*
X66467199Y-91936297D01*
X66261272Y-92021595D01*
X66068237Y-92133044D01*
X66068212Y-92133061D01*
X66068210Y-92133062D01*
X65891395Y-92268736D01*
X65891379Y-92268749D01*
X65891369Y-92268758D01*
X65891361Y-92268765D01*
X65733765Y-92426361D01*
X65733758Y-92426369D01*
X65733749Y-92426379D01*
X65733736Y-92426395D01*
X65598062Y-92603210D01*
X65598061Y-92603212D01*
X65598044Y-92603237D01*
X65486595Y-92796272D01*
X65401297Y-93002199D01*
X65401288Y-93002222D01*
X65343600Y-93217518D01*
X65343595Y-93217543D01*
X65343592Y-93217556D01*
X65314503Y-93438516D01*
X65314500Y-93438541D01*
X47750000Y-93438541D01*
X47750000Y-91278848D01*
X55199499Y-91278848D01*
X55230257Y-91433471D01*
X55230264Y-91433502D01*
X55290598Y-91579165D01*
X55290603Y-91579174D01*
X55290613Y-91579191D01*
X55378211Y-91710290D01*
X55378212Y-91710291D01*
X55378217Y-91710297D01*
X55489701Y-91821781D01*
X55489707Y-91821786D01*
X55489711Y-91821789D01*
X55620814Y-91909390D01*
X55620827Y-91909397D01*
X55766498Y-91969735D01*
X55766503Y-91969737D01*
X55913513Y-91998979D01*
X55916247Y-91999703D01*
X55921155Y-92000500D01*
X56078844Y-92000500D01*
X56082964Y-92000500D01*
X56090814Y-91998118D01*
X56233497Y-91969737D01*
X56379179Y-91909394D01*
X56510289Y-91821789D01*
X56621789Y-91710289D01*
X56709394Y-91579179D01*
X56769737Y-91433497D01*
X56800500Y-91278842D01*
X56800500Y-91121158D01*
X56800500Y-91121155D01*
X56800500Y-91120973D01*
X56800065Y-91118972D01*
X56770397Y-90969824D01*
X56769994Y-90967467D01*
X56769738Y-90966508D01*
X56769737Y-90966506D01*
X56769737Y-90966503D01*
X56769735Y-90966498D01*
X56709397Y-90820827D01*
X56709390Y-90820814D01*
X56621789Y-90689711D01*
X56621786Y-90689707D01*
X56621781Y-90689701D01*
X56510297Y-90578217D01*
X56510291Y-90578212D01*
X56510290Y-90578211D01*
X56379191Y-90490613D01*
X56379190Y-90490612D01*
X56379185Y-90490609D01*
X56379172Y-90490602D01*
X56379165Y-90490598D01*
X56233502Y-90430264D01*
X56233471Y-90430257D01*
X56078847Y-90399500D01*
X56078845Y-90399500D01*
X56078842Y-90399500D01*
X55921158Y-90399500D01*
X55921155Y-90399500D01*
X55921153Y-90399500D01*
X55766527Y-90430257D01*
X55766496Y-90430264D01*
X55620833Y-90490598D01*
X55620824Y-90490603D01*
X55620807Y-90490613D01*
X55489708Y-90578211D01*
X55489707Y-90578212D01*
X55489701Y-90578217D01*
X55378217Y-90689701D01*
X55378212Y-90689707D01*
X55378211Y-90689708D01*
X55290613Y-90820807D01*
X55290603Y-90820824D01*
X55290598Y-90820833D01*
X55230264Y-90966496D01*
X55230257Y-90966527D01*
X55199500Y-91121150D01*
X55199500Y-91121153D01*
X55199500Y-91278846D01*
X55199500Y-91278848D01*
X55199499Y-91278848D01*
X47750000Y-91278848D01*
X47750000Y-83064625D01*
X50112000Y-83064625D01*
X50112000Y-85935376D01*
X50112159Y-85937306D01*
X50112385Y-85938954D01*
X50118407Y-85994982D01*
X50118408Y-85994984D01*
X50168702Y-86129828D01*
X50168703Y-86129830D01*
X50168704Y-86129832D01*
X50168705Y-86129833D01*
X50254950Y-86245042D01*
X50254952Y-86245044D01*
X50254955Y-86245047D01*
X50370164Y-86331293D01*
X50370171Y-86331297D01*
X50419655Y-86349753D01*
X50455013Y-86376221D01*
X50511944Y-86382335D01*
X50511943Y-86382339D01*
X50511958Y-86382336D01*
X50564627Y-86388000D01*
X53435372Y-86387999D01*
X53494983Y-86381591D01*
X53629831Y-86331296D01*
X53745046Y-86245046D01*
X53831296Y-86129831D01*
X53881591Y-85994983D01*
X53888000Y-85935373D01*
X53887999Y-84376265D01*
X54812000Y-84376265D01*
X54812000Y-84623733D01*
X54812001Y-84623762D01*
X54844302Y-84869113D01*
X54844303Y-84869117D01*
X54908361Y-85108184D01*
X55003069Y-85336829D01*
X55003072Y-85336835D01*
X55003071Y-85336835D01*
X55003074Y-85336840D01*
X55126812Y-85551159D01*
X55126823Y-85551175D01*
X55126831Y-85551185D01*
X55277472Y-85747506D01*
X55277476Y-85747511D01*
X55277479Y-85747514D01*
X55277485Y-85747521D01*
X55452478Y-85922514D01*
X55452485Y-85922520D01*
X55452488Y-85922522D01*
X55452492Y-85922526D01*
X55546920Y-85994982D01*
X55546921Y-85994984D01*
X55610462Y-86043739D01*
X55648833Y-86073183D01*
X55648836Y-86073184D01*
X55648839Y-86073187D01*
X55648840Y-86073188D01*
X55649066Y-86073318D01*
X55859719Y-86194939D01*
X55861457Y-86196019D01*
X55862926Y-86196834D01*
X55863643Y-86197126D01*
X56091820Y-86291640D01*
X56330879Y-86355696D01*
X56576254Y-86388000D01*
X56576261Y-86388000D01*
X56823739Y-86388000D01*
X56823746Y-86388000D01*
X57069121Y-86355696D01*
X57308180Y-86291640D01*
X57536833Y-86196929D01*
X57751167Y-86073183D01*
X57947516Y-85922519D01*
X58122519Y-85747516D01*
X58273183Y-85551167D01*
X58396929Y-85336833D01*
X58491640Y-85108180D01*
X58555696Y-84869121D01*
X58588000Y-84623746D01*
X58588000Y-84376265D01*
X59512000Y-84376265D01*
X59512000Y-84623733D01*
X59512001Y-84623762D01*
X59544302Y-84869113D01*
X59544303Y-84869117D01*
X59608361Y-85108184D01*
X59703069Y-85336829D01*
X59703072Y-85336835D01*
X59703071Y-85336835D01*
X59703074Y-85336840D01*
X59826812Y-85551159D01*
X59826823Y-85551175D01*
X59826831Y-85551185D01*
X59977472Y-85747506D01*
X59977476Y-85747511D01*
X59977479Y-85747514D01*
X59977485Y-85747521D01*
X60152478Y-85922514D01*
X60152485Y-85922520D01*
X60152488Y-85922522D01*
X60152492Y-85922526D01*
X60246920Y-85994982D01*
X60246921Y-85994984D01*
X60310462Y-86043739D01*
X60348833Y-86073183D01*
X60348836Y-86073184D01*
X60348839Y-86073187D01*
X60348840Y-86073188D01*
X60349066Y-86073318D01*
X60559719Y-86194939D01*
X60561457Y-86196019D01*
X60562926Y-86196834D01*
X60563643Y-86197126D01*
X60791820Y-86291640D01*
X61030879Y-86355696D01*
X61276254Y-86388000D01*
X61276261Y-86388000D01*
X61523739Y-86388000D01*
X61523746Y-86388000D01*
X61769121Y-86355696D01*
X62008180Y-86291640D01*
X62236833Y-86196929D01*
X62451167Y-86073183D01*
X62647516Y-85922519D01*
X62822519Y-85747516D01*
X62973183Y-85551167D01*
X63096929Y-85336833D01*
X63191640Y-85108180D01*
X63255696Y-84869121D01*
X63288000Y-84623746D01*
X63288000Y-84376254D01*
X63255696Y-84130879D01*
X63191640Y-83891820D01*
X63097126Y-83663643D01*
X63096834Y-83662926D01*
X63096019Y-83661457D01*
X63094939Y-83659719D01*
X62973274Y-83448990D01*
X62973187Y-83448838D01*
X62859364Y-83300500D01*
X62859360Y-83300497D01*
X62858195Y-83298979D01*
X62822520Y-83252485D01*
X62822514Y-83252478D01*
X62647521Y-83077485D01*
X62647514Y-83077479D01*
X62647511Y-83077476D01*
X62647506Y-83077472D01*
X62452765Y-82928043D01*
X62451490Y-82927031D01*
X62451166Y-82926815D01*
X62311139Y-82845971D01*
X62236840Y-82803074D01*
X62236829Y-82803069D01*
X62008184Y-82708361D01*
X62008182Y-82708360D01*
X62008181Y-82708360D01*
X61769113Y-82644302D01*
X61527846Y-82612539D01*
X61525830Y-82612205D01*
X61523756Y-82612000D01*
X61523751Y-82612000D01*
X61523746Y-82612000D01*
X61276254Y-82612000D01*
X61276248Y-82612000D01*
X61276243Y-82612000D01*
X61274166Y-82612205D01*
X61272152Y-82612539D01*
X61030885Y-82644302D01*
X60791817Y-82708360D01*
X60679327Y-82754955D01*
X60563170Y-82803069D01*
X60563159Y-82803074D01*
X60496849Y-82841358D01*
X60348844Y-82926809D01*
X60348827Y-82926821D01*
X60348813Y-82926831D01*
X60152492Y-83077472D01*
X60152477Y-83077486D01*
X60152469Y-83077493D01*
X59977493Y-83252469D01*
X59977486Y-83252477D01*
X59977472Y-83252492D01*
X59826831Y-83448813D01*
X59826821Y-83448827D01*
X59826809Y-83448844D01*
X59703072Y-83663163D01*
X59608360Y-83891817D01*
X59544302Y-84130885D01*
X59512001Y-84376236D01*
X59512000Y-84376265D01*
X58588000Y-84376265D01*
X58588000Y-84376254D01*
X58555696Y-84130879D01*
X58491640Y-83891820D01*
X58397126Y-83663643D01*
X58396834Y-83662926D01*
X58396019Y-83661457D01*
X58394939Y-83659719D01*
X58273274Y-83448990D01*
X58273187Y-83448838D01*
X58159364Y-83300500D01*
X58159360Y-83300497D01*
X58158195Y-83298979D01*
X58122520Y-83252485D01*
X58122514Y-83252478D01*
X57947521Y-83077485D01*
X57947514Y-83077479D01*
X57947511Y-83077476D01*
X57947506Y-83077472D01*
X57752765Y-82928043D01*
X57751490Y-82927031D01*
X57751166Y-82926815D01*
X57611139Y-82845971D01*
X57536840Y-82803074D01*
X57536829Y-82803069D01*
X57308184Y-82708361D01*
X57308182Y-82708360D01*
X57308181Y-82708360D01*
X57069113Y-82644302D01*
X56827846Y-82612539D01*
X56825830Y-82612205D01*
X56823756Y-82612000D01*
X56823751Y-82612000D01*
X56823746Y-82612000D01*
X56576254Y-82612000D01*
X56576248Y-82612000D01*
X56576243Y-82612000D01*
X56574166Y-82612205D01*
X56572152Y-82612539D01*
X56330885Y-82644302D01*
X56091817Y-82708360D01*
X55979327Y-82754955D01*
X55863170Y-82803069D01*
X55863159Y-82803074D01*
X55796849Y-82841358D01*
X55648844Y-82926809D01*
X55648827Y-82926821D01*
X55648813Y-82926831D01*
X55452492Y-83077472D01*
X55452477Y-83077486D01*
X55452469Y-83077493D01*
X55277493Y-83252469D01*
X55277486Y-83252477D01*
X55277472Y-83252492D01*
X55126831Y-83448813D01*
X55126821Y-83448827D01*
X55126809Y-83448844D01*
X55003072Y-83663163D01*
X54908360Y-83891817D01*
X54844302Y-84130885D01*
X54812001Y-84376236D01*
X54812000Y-84376265D01*
X53887999Y-84376265D01*
X53887999Y-83064628D01*
X53881591Y-83005017D01*
X53881154Y-83003846D01*
X53831297Y-82870171D01*
X53831293Y-82870164D01*
X53745047Y-82754955D01*
X53745044Y-82754952D01*
X53745042Y-82754950D01*
X53682807Y-82708361D01*
X53629835Y-82668706D01*
X53629832Y-82668704D01*
X53629830Y-82668703D01*
X53629828Y-82668702D01*
X53580344Y-82650246D01*
X53544997Y-82623784D01*
X53443083Y-82612828D01*
X53438242Y-82612000D01*
X53435381Y-82612000D01*
X53435373Y-82612000D01*
X53435364Y-82612000D01*
X50564629Y-82612000D01*
X50564623Y-82612000D01*
X50562692Y-82612159D01*
X50561045Y-82612385D01*
X50505016Y-82618408D01*
X50419652Y-82650247D01*
X50370166Y-82668704D01*
X50370165Y-82668705D01*
X50254956Y-82754950D01*
X50254950Y-82754956D01*
X50168705Y-82870165D01*
X50168703Y-82870168D01*
X50118408Y-83005016D01*
X50112000Y-83064625D01*
X47750000Y-83064625D01*
X47750000Y-82578848D01*
X65577599Y-82578848D01*
X65608357Y-82733471D01*
X65608361Y-82733489D01*
X65608363Y-82733496D01*
X65608363Y-82733500D01*
X65668698Y-82879165D01*
X65668703Y-82879174D01*
X65668713Y-82879191D01*
X65756311Y-83010290D01*
X65756312Y-83010291D01*
X65756317Y-83010297D01*
X65867801Y-83121781D01*
X65867807Y-83121786D01*
X65867811Y-83121789D01*
X65998914Y-83209390D01*
X65998927Y-83209397D01*
X66144598Y-83269735D01*
X66144603Y-83269737D01*
X66291613Y-83298979D01*
X66294347Y-83299703D01*
X66299255Y-83300500D01*
X66456944Y-83300500D01*
X66461064Y-83300500D01*
X66468914Y-83298118D01*
X66611597Y-83269737D01*
X66757279Y-83209394D01*
X66888389Y-83121789D01*
X66999889Y-83010289D01*
X67087494Y-82879179D01*
X67101174Y-82846153D01*
X67123351Y-82792613D01*
X67129376Y-82778063D01*
X67129385Y-82778052D01*
X67129382Y-82778051D01*
X67138948Y-82754956D01*
X67147837Y-82733497D01*
X67178600Y-82578842D01*
X67178600Y-82421158D01*
X67178600Y-82421155D01*
X67178600Y-82420978D01*
X67178182Y-82419060D01*
X67155139Y-82303213D01*
X67147837Y-82266503D01*
X67126755Y-82215606D01*
X67087497Y-82120827D01*
X67087490Y-82120814D01*
X66999889Y-81989711D01*
X66999886Y-81989707D01*
X66999881Y-81989701D01*
X66888397Y-81878217D01*
X66888391Y-81878212D01*
X66888390Y-81878211D01*
X66757291Y-81790613D01*
X66757290Y-81790612D01*
X66757285Y-81790609D01*
X66757272Y-81790602D01*
X66757265Y-81790598D01*
X66611602Y-81730264D01*
X66611571Y-81730257D01*
X66456947Y-81699500D01*
X66456945Y-81699500D01*
X66456942Y-81699500D01*
X66299258Y-81699500D01*
X66299255Y-81699500D01*
X66299253Y-81699500D01*
X66144627Y-81730257D01*
X66144596Y-81730264D01*
X65998933Y-81790598D01*
X65998924Y-81790603D01*
X65998907Y-81790613D01*
X65867808Y-81878211D01*
X65867807Y-81878212D01*
X65867801Y-81878217D01*
X65756317Y-81989701D01*
X65756312Y-81989707D01*
X65756311Y-81989708D01*
X65668713Y-82120807D01*
X65668703Y-82120824D01*
X65668698Y-82120833D01*
X65608364Y-82266496D01*
X65608357Y-82266527D01*
X65577600Y-82421150D01*
X65577600Y-82421153D01*
X65577600Y-82578846D01*
X65577600Y-82578848D01*
X65577599Y-82578848D01*
X47750000Y-82578848D01*
X47750000Y-76578848D01*
X88199499Y-76578848D01*
X88230257Y-76733471D01*
X88230264Y-76733502D01*
X88290598Y-76879165D01*
X88290603Y-76879174D01*
X88290613Y-76879191D01*
X88378211Y-77010290D01*
X88378212Y-77010291D01*
X88378217Y-77010297D01*
X88489701Y-77121781D01*
X88489707Y-77121786D01*
X88489711Y-77121789D01*
X88620814Y-77209390D01*
X88620827Y-77209397D01*
X88766498Y-77269735D01*
X88766503Y-77269737D01*
X88913513Y-77298979D01*
X88916247Y-77299703D01*
X88921155Y-77300500D01*
X89078844Y-77300500D01*
X89082964Y-77300500D01*
X89090814Y-77298118D01*
X89233497Y-77269737D01*
X89379179Y-77209394D01*
X89510289Y-77121789D01*
X89621789Y-77010289D01*
X89709394Y-76879179D01*
X89769737Y-76733497D01*
X89800500Y-76578842D01*
X89800500Y-76421158D01*
X89800500Y-76421155D01*
X89800500Y-76420973D01*
X89800065Y-76418972D01*
X89770397Y-76269824D01*
X89769994Y-76267467D01*
X89769738Y-76266508D01*
X89769737Y-76266506D01*
X89769737Y-76266503D01*
X89769735Y-76266498D01*
X89709397Y-76120827D01*
X89709390Y-76120814D01*
X89621789Y-75989711D01*
X89621786Y-75989707D01*
X89621781Y-75989701D01*
X89510297Y-75878217D01*
X89510291Y-75878212D01*
X89510290Y-75878211D01*
X89379191Y-75790613D01*
X89379190Y-75790612D01*
X89379185Y-75790609D01*
X89379172Y-75790602D01*
X89379165Y-75790598D01*
X89233502Y-75730264D01*
X89233471Y-75730257D01*
X89078847Y-75699500D01*
X89078845Y-75699500D01*
X89078842Y-75699500D01*
X88921158Y-75699500D01*
X88921155Y-75699500D01*
X88921153Y-75699500D01*
X88766527Y-75730257D01*
X88766496Y-75730264D01*
X88620833Y-75790598D01*
X88620824Y-75790603D01*
X88620807Y-75790613D01*
X88489708Y-75878211D01*
X88489707Y-75878212D01*
X88489701Y-75878217D01*
X88378217Y-75989701D01*
X88378212Y-75989707D01*
X88378211Y-75989708D01*
X88290613Y-76120807D01*
X88290603Y-76120824D01*
X88290598Y-76120833D01*
X88230264Y-76266496D01*
X88230257Y-76266527D01*
X88199500Y-76421150D01*
X88199500Y-76421153D01*
X88199500Y-76578846D01*
X88199500Y-76578848D01*
X88199499Y-76578848D01*
X47750000Y-76578848D01*
X47750000Y-74097899D01*
X56524500Y-74097899D01*
X56524500Y-74345899D01*
X56531270Y-74388643D01*
X56536862Y-74423952D01*
X56563294Y-74590831D01*
X56639927Y-74826682D01*
X56752511Y-75047642D01*
X56898276Y-75248270D01*
X57073630Y-75423624D01*
X57274258Y-75569389D01*
X57495218Y-75681973D01*
X57731066Y-75758605D01*
X57731069Y-75758606D01*
X57822759Y-75773128D01*
X57822858Y-75773143D01*
X57822920Y-75773153D01*
X57976000Y-75797400D01*
X57976005Y-75797400D01*
X58223998Y-75797400D01*
X58224000Y-75797400D01*
X58360070Y-75775847D01*
X58360071Y-75775847D01*
X58377238Y-75773128D01*
X58468931Y-75758606D01*
X58704782Y-75681973D01*
X58925742Y-75569389D01*
X59126370Y-75423624D01*
X59301724Y-75248270D01*
X59447489Y-75047642D01*
X59560073Y-74826682D01*
X59636706Y-74590831D01*
X59668730Y-74388642D01*
X59675500Y-74345900D01*
X59675500Y-74097899D01*
X60724500Y-74097899D01*
X60724500Y-74345899D01*
X60731270Y-74388643D01*
X60736862Y-74423952D01*
X60763294Y-74590831D01*
X60839927Y-74826682D01*
X60952511Y-75047642D01*
X61098276Y-75248270D01*
X61273630Y-75423624D01*
X61474258Y-75569389D01*
X61695218Y-75681973D01*
X61931066Y-75758605D01*
X61931069Y-75758606D01*
X62022759Y-75773128D01*
X62022858Y-75773143D01*
X62022920Y-75773153D01*
X62176000Y-75797400D01*
X62176005Y-75797400D01*
X62423998Y-75797400D01*
X62424000Y-75797400D01*
X62560070Y-75775847D01*
X62560071Y-75775847D01*
X62577238Y-75773128D01*
X62668931Y-75758606D01*
X62904782Y-75681973D01*
X63125742Y-75569389D01*
X63326370Y-75423624D01*
X63501724Y-75248270D01*
X63647489Y-75047642D01*
X63760073Y-74826682D01*
X63836706Y-74590831D01*
X63868730Y-74388642D01*
X63875500Y-74345900D01*
X63875500Y-74097899D01*
X64924500Y-74097899D01*
X64924500Y-74345899D01*
X64931270Y-74388643D01*
X64936862Y-74423952D01*
X64963294Y-74590831D01*
X65039927Y-74826682D01*
X65152511Y-75047642D01*
X65298276Y-75248270D01*
X65473630Y-75423624D01*
X65674258Y-75569389D01*
X65895218Y-75681973D01*
X66131066Y-75758605D01*
X66131069Y-75758606D01*
X66222759Y-75773128D01*
X66222858Y-75773143D01*
X66222920Y-75773153D01*
X66376000Y-75797400D01*
X66376005Y-75797400D01*
X66623998Y-75797400D01*
X66624000Y-75797400D01*
X66760070Y-75775847D01*
X66760071Y-75775847D01*
X66777238Y-75773128D01*
X66868931Y-75758606D01*
X67104782Y-75681973D01*
X67325742Y-75569389D01*
X67526370Y-75423624D01*
X67701724Y-75248270D01*
X67847489Y-75047642D01*
X67960073Y-74826682D01*
X68036706Y-74590831D01*
X68068730Y-74388642D01*
X68075500Y-74345900D01*
X68075500Y-74097899D01*
X69124500Y-74097899D01*
X69124500Y-74345899D01*
X69131270Y-74388643D01*
X69136862Y-74423952D01*
X69163294Y-74590831D01*
X69239927Y-74826682D01*
X69352511Y-75047642D01*
X69498276Y-75248270D01*
X69673630Y-75423624D01*
X69874258Y-75569389D01*
X70095218Y-75681973D01*
X70331066Y-75758605D01*
X70331069Y-75758606D01*
X70422759Y-75773128D01*
X70422858Y-75773143D01*
X70422920Y-75773153D01*
X70576000Y-75797400D01*
X70576005Y-75797400D01*
X70823998Y-75797400D01*
X70824000Y-75797400D01*
X70960070Y-75775847D01*
X70960071Y-75775847D01*
X70977238Y-75773128D01*
X71068931Y-75758606D01*
X71304782Y-75681973D01*
X71525742Y-75569389D01*
X71726370Y-75423624D01*
X71901724Y-75248270D01*
X72047489Y-75047642D01*
X72160073Y-74826682D01*
X72236706Y-74590831D01*
X72268730Y-74388642D01*
X72275500Y-74345900D01*
X72275500Y-74097899D01*
X73324500Y-74097899D01*
X73324500Y-74345899D01*
X73331270Y-74388643D01*
X73336862Y-74423952D01*
X73363294Y-74590831D01*
X73439927Y-74826682D01*
X73552511Y-75047642D01*
X73698276Y-75248270D01*
X73873630Y-75423624D01*
X74074258Y-75569389D01*
X74295218Y-75681973D01*
X74531066Y-75758605D01*
X74531069Y-75758606D01*
X74622759Y-75773128D01*
X74622858Y-75773143D01*
X74622920Y-75773153D01*
X74776000Y-75797400D01*
X74776005Y-75797400D01*
X75023998Y-75797400D01*
X75024000Y-75797400D01*
X75160070Y-75775847D01*
X75160071Y-75775847D01*
X75177238Y-75773128D01*
X75268931Y-75758606D01*
X75504782Y-75681973D01*
X75725742Y-75569389D01*
X75926370Y-75423624D01*
X76101724Y-75248270D01*
X76247489Y-75047642D01*
X76360073Y-74826682D01*
X76436706Y-74590831D01*
X76468730Y-74388642D01*
X76475500Y-74345900D01*
X76475500Y-74097899D01*
X77524500Y-74097899D01*
X77524500Y-74345899D01*
X77531270Y-74388643D01*
X77536862Y-74423952D01*
X77563294Y-74590831D01*
X77639927Y-74826682D01*
X77752511Y-75047642D01*
X77898276Y-75248270D01*
X78073630Y-75423624D01*
X78274258Y-75569389D01*
X78495218Y-75681973D01*
X78731066Y-75758605D01*
X78731069Y-75758606D01*
X78822759Y-75773128D01*
X78822858Y-75773143D01*
X78822920Y-75773153D01*
X78976000Y-75797400D01*
X78976005Y-75797400D01*
X79223998Y-75797400D01*
X79224000Y-75797400D01*
X79360070Y-75775847D01*
X79360071Y-75775847D01*
X79377238Y-75773128D01*
X79468931Y-75758606D01*
X79704782Y-75681973D01*
X79925742Y-75569389D01*
X80126370Y-75423624D01*
X80301724Y-75248270D01*
X80447489Y-75047642D01*
X80560073Y-74826682D01*
X80636706Y-74590831D01*
X80668730Y-74388642D01*
X80675500Y-74345900D01*
X80675500Y-74097899D01*
X81724500Y-74097899D01*
X81724500Y-74345899D01*
X81731270Y-74388643D01*
X81736862Y-74423952D01*
X81763294Y-74590831D01*
X81839927Y-74826682D01*
X81952511Y-75047642D01*
X82098276Y-75248270D01*
X82273630Y-75423624D01*
X82474258Y-75569389D01*
X82695218Y-75681973D01*
X82931066Y-75758605D01*
X82931069Y-75758606D01*
X83022759Y-75773128D01*
X83022858Y-75773143D01*
X83022920Y-75773153D01*
X83176000Y-75797400D01*
X83176005Y-75797400D01*
X83423998Y-75797400D01*
X83424000Y-75797400D01*
X83560070Y-75775847D01*
X83560071Y-75775847D01*
X83577238Y-75773128D01*
X83668931Y-75758606D01*
X83904782Y-75681973D01*
X84125742Y-75569389D01*
X84326370Y-75423624D01*
X84501724Y-75248270D01*
X84647489Y-75047642D01*
X84760073Y-74826682D01*
X84836706Y-74590831D01*
X84868730Y-74388642D01*
X84875500Y-74345900D01*
X84875500Y-74097899D01*
X85924500Y-74097899D01*
X85924500Y-74345899D01*
X85931270Y-74388643D01*
X85936862Y-74423952D01*
X85963294Y-74590831D01*
X86039927Y-74826682D01*
X86152511Y-75047642D01*
X86298276Y-75248270D01*
X86473630Y-75423624D01*
X86674258Y-75569389D01*
X86895218Y-75681973D01*
X87131066Y-75758605D01*
X87131069Y-75758606D01*
X87222759Y-75773128D01*
X87222858Y-75773143D01*
X87222920Y-75773153D01*
X87376000Y-75797400D01*
X87376005Y-75797400D01*
X87623998Y-75797400D01*
X87624000Y-75797400D01*
X87760070Y-75775847D01*
X87760071Y-75775847D01*
X87777238Y-75773128D01*
X87868931Y-75758606D01*
X88104782Y-75681973D01*
X88325742Y-75569389D01*
X88526370Y-75423624D01*
X88701724Y-75248270D01*
X88847489Y-75047642D01*
X88960073Y-74826682D01*
X89036706Y-74590831D01*
X89068730Y-74388642D01*
X89075500Y-74345900D01*
X89075500Y-74097899D01*
X90124500Y-74097899D01*
X90124500Y-74345899D01*
X90131270Y-74388643D01*
X90136862Y-74423952D01*
X90163294Y-74590831D01*
X90239927Y-74826682D01*
X90352511Y-75047642D01*
X90498276Y-75248270D01*
X90673630Y-75423624D01*
X90874258Y-75569389D01*
X91095218Y-75681973D01*
X91331066Y-75758605D01*
X91331069Y-75758606D01*
X91422759Y-75773128D01*
X91422858Y-75773143D01*
X91422920Y-75773153D01*
X91576000Y-75797400D01*
X91576005Y-75797400D01*
X91823998Y-75797400D01*
X91824000Y-75797400D01*
X91960070Y-75775847D01*
X91960071Y-75775847D01*
X91977238Y-75773128D01*
X92068931Y-75758606D01*
X92304782Y-75681973D01*
X92525742Y-75569389D01*
X92726370Y-75423624D01*
X92901724Y-75248270D01*
X93047489Y-75047642D01*
X93160073Y-74826682D01*
X93236706Y-74590831D01*
X93268730Y-74388642D01*
X93275500Y-74345900D01*
X93275500Y-74097899D01*
X94324500Y-74097899D01*
X94324500Y-74345899D01*
X94331270Y-74388643D01*
X94336862Y-74423952D01*
X94363294Y-74590831D01*
X94439927Y-74826682D01*
X94552511Y-75047642D01*
X94698276Y-75248270D01*
X94873630Y-75423624D01*
X95074258Y-75569389D01*
X95295218Y-75681973D01*
X95531066Y-75758605D01*
X95531069Y-75758606D01*
X95622759Y-75773128D01*
X95622858Y-75773143D01*
X95622920Y-75773153D01*
X95776000Y-75797400D01*
X95776005Y-75797400D01*
X96023998Y-75797400D01*
X96024000Y-75797400D01*
X96160070Y-75775847D01*
X96160071Y-75775847D01*
X96177238Y-75773128D01*
X96268931Y-75758606D01*
X96504782Y-75681973D01*
X96725742Y-75569389D01*
X96926370Y-75423624D01*
X97101724Y-75248270D01*
X97247489Y-75047642D01*
X97360073Y-74826682D01*
X97436706Y-74590831D01*
X97468730Y-74388642D01*
X97475500Y-74345900D01*
X97475500Y-74097899D01*
X98524500Y-74097899D01*
X98524500Y-74345899D01*
X98531270Y-74388643D01*
X98536862Y-74423952D01*
X98563294Y-74590831D01*
X98639927Y-74826682D01*
X98752511Y-75047642D01*
X98898276Y-75248270D01*
X99073630Y-75423624D01*
X99274258Y-75569389D01*
X99495218Y-75681973D01*
X99731066Y-75758605D01*
X99731069Y-75758606D01*
X99822759Y-75773128D01*
X99822858Y-75773143D01*
X99822920Y-75773153D01*
X99976000Y-75797400D01*
X99976005Y-75797400D01*
X100223998Y-75797400D01*
X100224000Y-75797400D01*
X100360070Y-75775847D01*
X100360071Y-75775847D01*
X100377238Y-75773128D01*
X100468931Y-75758606D01*
X100704782Y-75681973D01*
X100925742Y-75569389D01*
X101126370Y-75423624D01*
X101301724Y-75248270D01*
X101447489Y-75047642D01*
X101560073Y-74826682D01*
X101636706Y-74590831D01*
X101668730Y-74388642D01*
X101675500Y-74345900D01*
X101675500Y-74097899D01*
X102724500Y-74097899D01*
X102724500Y-74345899D01*
X102731270Y-74388643D01*
X102736862Y-74423952D01*
X102763294Y-74590831D01*
X102839927Y-74826682D01*
X102952511Y-75047642D01*
X103098276Y-75248270D01*
X103273630Y-75423624D01*
X103474258Y-75569389D01*
X103695218Y-75681973D01*
X103931066Y-75758605D01*
X103931069Y-75758606D01*
X104022759Y-75773128D01*
X104022858Y-75773143D01*
X104022920Y-75773153D01*
X104176000Y-75797400D01*
X104176005Y-75797400D01*
X104423998Y-75797400D01*
X104424000Y-75797400D01*
X104560070Y-75775847D01*
X104560071Y-75775847D01*
X104577238Y-75773128D01*
X104668931Y-75758606D01*
X104904782Y-75681973D01*
X105125742Y-75569389D01*
X105326370Y-75423624D01*
X105501724Y-75248270D01*
X105647489Y-75047642D01*
X105760073Y-74826682D01*
X105836706Y-74590831D01*
X105868730Y-74388642D01*
X105875500Y-74345900D01*
X105875500Y-74176045D01*
X111575000Y-74176045D01*
X111575000Y-74423953D01*
X111613782Y-74668815D01*
X111690388Y-74904589D01*
X111802938Y-75125479D01*
X111869593Y-75217219D01*
X111873646Y-75222798D01*
X111873647Y-75222799D01*
X111873648Y-75222799D01*
X112252682Y-74843763D01*
X112314005Y-74810278D01*
X112383696Y-74815262D01*
X112439630Y-74857133D01*
X112443451Y-74862533D01*
X112450924Y-74873717D01*
X112450927Y-74873720D01*
X112450928Y-74873721D01*
X112450928Y-74873722D01*
X112576279Y-74999073D01*
X112576283Y-74999076D01*
X112587444Y-75006534D01*
X112632249Y-75060147D01*
X112640956Y-75129472D01*
X112610801Y-75192499D01*
X112606234Y-75197317D01*
X112227198Y-75576351D01*
X112227199Y-75576352D01*
X112324519Y-75647059D01*
X112324519Y-75647060D01*
X112487801Y-75730257D01*
X112545409Y-75759610D01*
X112545412Y-75759611D01*
X112781185Y-75836217D01*
X113026046Y-75875000D01*
X113273953Y-75875000D01*
X113273954Y-75875000D01*
X113518814Y-75836217D01*
X113754587Y-75759611D01*
X113754590Y-75759610D01*
X113975480Y-75647060D01*
X114072798Y-75576352D01*
X113693763Y-75197317D01*
X113660278Y-75135994D01*
X113665262Y-75066302D01*
X113707134Y-75010369D01*
X113712523Y-75006554D01*
X113723717Y-74999076D01*
X113849076Y-74873717D01*
X113856533Y-74862555D01*
X113910143Y-74817750D01*
X113979468Y-74809041D01*
X114042496Y-74839194D01*
X114047317Y-74843764D01*
X114426351Y-75222799D01*
X114426351Y-75222798D01*
X114426352Y-75222799D01*
X114426352Y-75222798D01*
X114439820Y-75217219D01*
X114446037Y-75196050D01*
X114450035Y-75190202D01*
X114497060Y-75125480D01*
X114609610Y-74904590D01*
X114609611Y-74904587D01*
X114686217Y-74668814D01*
X114725000Y-74423954D01*
X114725000Y-74176045D01*
X115775000Y-74176045D01*
X115775000Y-74423953D01*
X115813782Y-74668815D01*
X115890388Y-74904589D01*
X116002938Y-75125479D01*
X116069593Y-75217219D01*
X116073646Y-75222798D01*
X116073647Y-75222799D01*
X116073648Y-75222799D01*
X116452682Y-74843763D01*
X116514005Y-74810278D01*
X116583696Y-74815262D01*
X116639630Y-74857133D01*
X116643451Y-74862533D01*
X116650924Y-74873717D01*
X116650927Y-74873720D01*
X116650928Y-74873721D01*
X116650928Y-74873722D01*
X116776279Y-74999073D01*
X116776283Y-74999076D01*
X116787444Y-75006534D01*
X116832249Y-75060147D01*
X116840956Y-75129472D01*
X116810801Y-75192499D01*
X116806234Y-75197317D01*
X116427198Y-75576351D01*
X116427199Y-75576352D01*
X116524519Y-75647059D01*
X116524519Y-75647060D01*
X116687801Y-75730257D01*
X116745409Y-75759610D01*
X116745412Y-75759611D01*
X116981185Y-75836217D01*
X117226046Y-75875000D01*
X117473953Y-75875000D01*
X117473954Y-75875000D01*
X117718814Y-75836217D01*
X117954587Y-75759611D01*
X117954590Y-75759610D01*
X118175480Y-75647060D01*
X118272798Y-75576352D01*
X117893763Y-75197317D01*
X117860278Y-75135994D01*
X117865262Y-75066302D01*
X117907134Y-75010369D01*
X117912523Y-75006554D01*
X117923717Y-74999076D01*
X118049076Y-74873717D01*
X118056533Y-74862555D01*
X118110143Y-74817750D01*
X118179468Y-74809041D01*
X118242496Y-74839194D01*
X118247317Y-74843764D01*
X118626351Y-75222799D01*
X118626351Y-75222798D01*
X118626352Y-75222799D01*
X118626352Y-75222798D01*
X118639820Y-75217219D01*
X118646037Y-75196050D01*
X118650035Y-75190202D01*
X118697060Y-75125480D01*
X118809610Y-74904590D01*
X118809611Y-74904587D01*
X118886217Y-74668814D01*
X118925000Y-74423954D01*
X118925000Y-74176045D01*
X119975000Y-74176045D01*
X119975000Y-74423953D01*
X120013782Y-74668815D01*
X120090388Y-74904589D01*
X120202938Y-75125479D01*
X120269593Y-75217219D01*
X120273646Y-75222798D01*
X120273647Y-75222799D01*
X120273648Y-75222799D01*
X120652682Y-74843763D01*
X120714005Y-74810278D01*
X120783696Y-74815262D01*
X120839630Y-74857133D01*
X120843451Y-74862533D01*
X120850924Y-74873717D01*
X120850927Y-74873720D01*
X120850928Y-74873721D01*
X120850928Y-74873722D01*
X120976279Y-74999073D01*
X120976283Y-74999076D01*
X120987444Y-75006534D01*
X121032249Y-75060147D01*
X121040956Y-75129472D01*
X121010801Y-75192499D01*
X121006234Y-75197317D01*
X120627198Y-75576351D01*
X120627199Y-75576352D01*
X120724519Y-75647059D01*
X120724519Y-75647060D01*
X120887801Y-75730257D01*
X120945409Y-75759610D01*
X120945412Y-75759611D01*
X121181185Y-75836217D01*
X121426046Y-75875000D01*
X121673953Y-75875000D01*
X121673954Y-75875000D01*
X121918814Y-75836217D01*
X122154587Y-75759611D01*
X122154590Y-75759610D01*
X122375480Y-75647060D01*
X122472798Y-75576352D01*
X122093763Y-75197317D01*
X122060278Y-75135994D01*
X122065262Y-75066302D01*
X122107134Y-75010369D01*
X122112523Y-75006554D01*
X122123717Y-74999076D01*
X122249076Y-74873717D01*
X122256533Y-74862555D01*
X122310143Y-74817750D01*
X122379468Y-74809041D01*
X122442496Y-74839194D01*
X122447317Y-74843764D01*
X122826351Y-75222799D01*
X122826351Y-75222798D01*
X122826352Y-75222799D01*
X122826352Y-75222798D01*
X122839820Y-75217219D01*
X122846037Y-75196050D01*
X122850035Y-75190202D01*
X122897060Y-75125480D01*
X123009610Y-74904590D01*
X123009611Y-74904587D01*
X123086217Y-74668814D01*
X123125000Y-74423954D01*
X123125000Y-74176045D01*
X124175000Y-74176045D01*
X124175000Y-74423953D01*
X124213782Y-74668815D01*
X124290388Y-74904589D01*
X124402938Y-75125479D01*
X124469593Y-75217219D01*
X124473646Y-75222798D01*
X124473647Y-75222799D01*
X124473648Y-75222799D01*
X124852682Y-74843763D01*
X124914005Y-74810278D01*
X124983696Y-74815262D01*
X125039630Y-74857133D01*
X125043451Y-74862533D01*
X125050924Y-74873717D01*
X125050927Y-74873720D01*
X125050928Y-74873721D01*
X125050928Y-74873722D01*
X125176279Y-74999073D01*
X125176283Y-74999076D01*
X125187444Y-75006534D01*
X125232249Y-75060147D01*
X125240956Y-75129472D01*
X125210801Y-75192499D01*
X125206234Y-75197317D01*
X124827198Y-75576351D01*
X124827199Y-75576352D01*
X124924519Y-75647059D01*
X124924519Y-75647060D01*
X125087801Y-75730257D01*
X125145409Y-75759610D01*
X125145412Y-75759611D01*
X125381185Y-75836217D01*
X125626046Y-75875000D01*
X125873953Y-75875000D01*
X125873954Y-75875000D01*
X126118814Y-75836217D01*
X126354587Y-75759611D01*
X126354590Y-75759610D01*
X126575480Y-75647060D01*
X126672798Y-75576352D01*
X126293763Y-75197317D01*
X126260278Y-75135994D01*
X126265262Y-75066302D01*
X126307134Y-75010369D01*
X126312523Y-75006554D01*
X126323717Y-74999076D01*
X126449076Y-74873717D01*
X126456533Y-74862555D01*
X126510143Y-74817750D01*
X126579468Y-74809041D01*
X126642496Y-74839194D01*
X126647317Y-74843764D01*
X127026351Y-75222799D01*
X127026351Y-75222798D01*
X127026352Y-75222799D01*
X127026352Y-75222798D01*
X127039820Y-75217219D01*
X127046037Y-75196050D01*
X127050035Y-75190202D01*
X127097060Y-75125480D01*
X127209610Y-74904590D01*
X127209611Y-74904587D01*
X127286217Y-74668814D01*
X127325000Y-74423954D01*
X127325000Y-74176045D01*
X127286217Y-73931185D01*
X127209611Y-73695412D01*
X127209610Y-73695409D01*
X127097064Y-73474527D01*
X127097060Y-73474521D01*
X127050034Y-73409795D01*
X127040493Y-73383056D01*
X127026351Y-73377198D01*
X126647316Y-73756233D01*
X126585993Y-73789718D01*
X126516301Y-73784734D01*
X126460368Y-73742862D01*
X126456532Y-73737442D01*
X126449074Y-73726280D01*
X126323720Y-73600926D01*
X126323715Y-73600922D01*
X126312551Y-73593462D01*
X126267747Y-73539848D01*
X126259042Y-73470523D01*
X126289199Y-73407496D01*
X126293745Y-73402700D01*
X126672799Y-73023647D01*
X126672798Y-73023646D01*
X126672796Y-73023644D01*
X126575479Y-72952938D01*
X126354589Y-72840388D01*
X126118815Y-72763782D01*
X125996384Y-72744391D01*
X125873954Y-72725000D01*
X125873953Y-72725000D01*
X125626041Y-72725000D01*
X125381183Y-72763782D01*
X125145415Y-72840386D01*
X124924520Y-72952939D01*
X124924515Y-72952941D01*
X124827200Y-73023643D01*
X124827198Y-73023645D01*
X124827199Y-73023647D01*
X125206235Y-73402682D01*
X125239720Y-73464005D01*
X125234736Y-73533696D01*
X125192865Y-73589630D01*
X125187447Y-73593464D01*
X125176281Y-73600924D01*
X125050924Y-73726281D01*
X125043464Y-73737447D01*
X124989851Y-73782251D01*
X124920526Y-73790957D01*
X124857499Y-73760801D01*
X124852682Y-73756235D01*
X124473647Y-73377199D01*
X124473645Y-73377198D01*
X124473643Y-73377200D01*
X124402941Y-73474515D01*
X124402940Y-73474517D01*
X124290386Y-73695415D01*
X124213782Y-73931183D01*
X124175000Y-74176045D01*
X123125000Y-74176045D01*
X123086217Y-73931185D01*
X123009611Y-73695412D01*
X123009610Y-73695409D01*
X122897064Y-73474527D01*
X122897060Y-73474521D01*
X122850034Y-73409795D01*
X122840493Y-73383056D01*
X122826351Y-73377198D01*
X122447316Y-73756233D01*
X122385993Y-73789718D01*
X122316301Y-73784734D01*
X122260368Y-73742862D01*
X122256532Y-73737442D01*
X122249074Y-73726280D01*
X122123720Y-73600926D01*
X122123715Y-73600922D01*
X122112551Y-73593462D01*
X122067747Y-73539848D01*
X122059042Y-73470523D01*
X122089199Y-73407496D01*
X122093745Y-73402700D01*
X122472799Y-73023647D01*
X122472798Y-73023646D01*
X122472796Y-73023644D01*
X122375479Y-72952938D01*
X122154589Y-72840388D01*
X121918815Y-72763782D01*
X121796384Y-72744391D01*
X121673954Y-72725000D01*
X121673953Y-72725000D01*
X121426041Y-72725000D01*
X121181183Y-72763782D01*
X120945415Y-72840386D01*
X120724520Y-72952939D01*
X120724515Y-72952941D01*
X120627200Y-73023643D01*
X120627198Y-73023645D01*
X120627199Y-73023647D01*
X121006235Y-73402682D01*
X121039720Y-73464005D01*
X121034736Y-73533696D01*
X120992865Y-73589630D01*
X120987447Y-73593464D01*
X120976281Y-73600924D01*
X120850924Y-73726281D01*
X120843464Y-73737447D01*
X120789851Y-73782251D01*
X120720526Y-73790957D01*
X120657499Y-73760801D01*
X120652682Y-73756235D01*
X120273647Y-73377199D01*
X120273645Y-73377198D01*
X120273643Y-73377200D01*
X120202941Y-73474515D01*
X120202940Y-73474517D01*
X120090386Y-73695415D01*
X120013782Y-73931183D01*
X119975000Y-74176045D01*
X118925000Y-74176045D01*
X118886217Y-73931185D01*
X118809611Y-73695412D01*
X118809610Y-73695409D01*
X118697064Y-73474527D01*
X118697060Y-73474521D01*
X118650034Y-73409795D01*
X118640493Y-73383056D01*
X118626351Y-73377198D01*
X118247316Y-73756233D01*
X118185993Y-73789718D01*
X118116301Y-73784734D01*
X118060368Y-73742862D01*
X118056532Y-73737442D01*
X118049074Y-73726280D01*
X117923720Y-73600926D01*
X117923715Y-73600922D01*
X117912551Y-73593462D01*
X117867747Y-73539848D01*
X117859042Y-73470523D01*
X117889199Y-73407496D01*
X117893745Y-73402700D01*
X118272799Y-73023647D01*
X118272798Y-73023646D01*
X118272796Y-73023644D01*
X118175479Y-72952938D01*
X117954589Y-72840388D01*
X117718815Y-72763782D01*
X117596384Y-72744391D01*
X117473954Y-72725000D01*
X117473953Y-72725000D01*
X117226041Y-72725000D01*
X116981183Y-72763782D01*
X116745415Y-72840386D01*
X116524520Y-72952939D01*
X116524515Y-72952941D01*
X116427200Y-73023643D01*
X116427198Y-73023645D01*
X116427199Y-73023647D01*
X116806235Y-73402682D01*
X116839720Y-73464005D01*
X116834736Y-73533696D01*
X116792865Y-73589630D01*
X116787447Y-73593464D01*
X116776281Y-73600924D01*
X116650924Y-73726281D01*
X116643464Y-73737447D01*
X116589851Y-73782251D01*
X116520526Y-73790957D01*
X116457499Y-73760801D01*
X116452682Y-73756235D01*
X116073647Y-73377199D01*
X116073645Y-73377198D01*
X116073643Y-73377200D01*
X116002941Y-73474515D01*
X116002940Y-73474517D01*
X115890386Y-73695415D01*
X115813782Y-73931183D01*
X115775000Y-74176045D01*
X114725000Y-74176045D01*
X114686217Y-73931185D01*
X114609611Y-73695412D01*
X114609610Y-73695409D01*
X114497064Y-73474527D01*
X114497060Y-73474521D01*
X114450034Y-73409795D01*
X114440493Y-73383056D01*
X114426351Y-73377198D01*
X114047316Y-73756233D01*
X113985993Y-73789718D01*
X113916301Y-73784734D01*
X113860368Y-73742862D01*
X113856532Y-73737442D01*
X113849074Y-73726280D01*
X113723720Y-73600926D01*
X113723715Y-73600922D01*
X113712551Y-73593462D01*
X113667747Y-73539848D01*
X113659042Y-73470523D01*
X113689199Y-73407496D01*
X113693745Y-73402700D01*
X114072799Y-73023647D01*
X114072798Y-73023646D01*
X114072796Y-73023644D01*
X113975479Y-72952938D01*
X113754589Y-72840388D01*
X113518815Y-72763782D01*
X113396384Y-72744391D01*
X113273954Y-72725000D01*
X113273953Y-72725000D01*
X113026041Y-72725000D01*
X112781183Y-72763782D01*
X112545415Y-72840386D01*
X112324520Y-72952939D01*
X112324515Y-72952941D01*
X112227200Y-73023643D01*
X112227198Y-73023645D01*
X112227199Y-73023647D01*
X112606235Y-73402682D01*
X112639720Y-73464005D01*
X112634736Y-73533696D01*
X112592865Y-73589630D01*
X112587447Y-73593464D01*
X112576281Y-73600924D01*
X112450924Y-73726281D01*
X112443464Y-73737447D01*
X112389851Y-73782251D01*
X112320526Y-73790957D01*
X112257499Y-73760801D01*
X112252682Y-73756235D01*
X111873647Y-73377199D01*
X111873645Y-73377198D01*
X111873643Y-73377200D01*
X111802941Y-73474515D01*
X111802940Y-73474517D01*
X111690386Y-73695415D01*
X111613782Y-73931183D01*
X111575000Y-74176045D01*
X105875500Y-74176045D01*
X105875500Y-74097899D01*
X105836706Y-73852972D01*
X105836706Y-73852969D01*
X105760073Y-73617118D01*
X105647489Y-73396158D01*
X105501724Y-73195530D01*
X105326370Y-73020176D01*
X105125742Y-72874411D01*
X105058964Y-72840386D01*
X104904786Y-72761828D01*
X104677762Y-72688063D01*
X104673240Y-72686210D01*
X104664050Y-72684041D01*
X104659286Y-72683666D01*
X104657983Y-72683459D01*
X104424000Y-72646400D01*
X104423999Y-72646400D01*
X104176001Y-72646400D01*
X104176000Y-72646400D01*
X104119222Y-72655392D01*
X103931075Y-72685192D01*
X103695212Y-72761829D01*
X103474264Y-72874407D01*
X103474251Y-72874415D01*
X103366173Y-72952938D01*
X103366174Y-72952939D01*
X103285499Y-73011552D01*
X103278119Y-73015685D01*
X103093784Y-73200020D01*
X103089651Y-73207401D01*
X103035675Y-73281692D01*
X102952511Y-73396156D01*
X102839929Y-73617112D01*
X102763292Y-73852975D01*
X102724500Y-74097899D01*
X101675500Y-74097899D01*
X101636706Y-73852972D01*
X101636706Y-73852969D01*
X101560073Y-73617118D01*
X101447489Y-73396158D01*
X101301724Y-73195530D01*
X101126370Y-73020176D01*
X100925742Y-72874411D01*
X100858964Y-72840386D01*
X100704786Y-72761828D01*
X100477762Y-72688063D01*
X100473240Y-72686210D01*
X100464050Y-72684041D01*
X100459286Y-72683666D01*
X100457983Y-72683459D01*
X100224000Y-72646400D01*
X100223999Y-72646400D01*
X99976001Y-72646400D01*
X99976000Y-72646400D01*
X99919222Y-72655392D01*
X99731075Y-72685192D01*
X99495212Y-72761829D01*
X99274264Y-72874407D01*
X99274251Y-72874415D01*
X99166173Y-72952938D01*
X99166174Y-72952939D01*
X99085499Y-73011552D01*
X99078119Y-73015685D01*
X98893784Y-73200020D01*
X98889651Y-73207401D01*
X98835675Y-73281692D01*
X98752511Y-73396156D01*
X98639929Y-73617112D01*
X98563292Y-73852975D01*
X98524500Y-74097899D01*
X97475500Y-74097899D01*
X97436706Y-73852972D01*
X97436706Y-73852969D01*
X97360073Y-73617118D01*
X97247489Y-73396158D01*
X97101724Y-73195530D01*
X96926370Y-73020176D01*
X96725742Y-72874411D01*
X96658964Y-72840386D01*
X96504786Y-72761828D01*
X96277762Y-72688063D01*
X96273240Y-72686210D01*
X96264050Y-72684041D01*
X96259286Y-72683666D01*
X96257983Y-72683459D01*
X96024000Y-72646400D01*
X96023999Y-72646400D01*
X95776001Y-72646400D01*
X95776000Y-72646400D01*
X95719222Y-72655392D01*
X95531075Y-72685192D01*
X95295212Y-72761829D01*
X95074264Y-72874407D01*
X95074251Y-72874415D01*
X94966173Y-72952938D01*
X94966174Y-72952939D01*
X94885499Y-73011552D01*
X94878119Y-73015685D01*
X94693784Y-73200020D01*
X94689651Y-73207401D01*
X94635675Y-73281692D01*
X94552511Y-73396156D01*
X94439929Y-73617112D01*
X94363292Y-73852975D01*
X94324500Y-74097899D01*
X93275500Y-74097899D01*
X93236706Y-73852972D01*
X93236706Y-73852969D01*
X93160073Y-73617118D01*
X93047489Y-73396158D01*
X92901724Y-73195530D01*
X92726370Y-73020176D01*
X92525742Y-72874411D01*
X92458964Y-72840386D01*
X92304786Y-72761828D01*
X92077762Y-72688063D01*
X92073240Y-72686210D01*
X92064050Y-72684041D01*
X92059286Y-72683666D01*
X92057983Y-72683459D01*
X91824000Y-72646400D01*
X91823999Y-72646400D01*
X91576001Y-72646400D01*
X91576000Y-72646400D01*
X91519222Y-72655392D01*
X91331075Y-72685192D01*
X91095212Y-72761829D01*
X90874264Y-72874407D01*
X90874251Y-72874415D01*
X90766173Y-72952938D01*
X90766174Y-72952939D01*
X90685499Y-73011552D01*
X90678119Y-73015685D01*
X90493784Y-73200020D01*
X90489651Y-73207401D01*
X90435675Y-73281692D01*
X90352511Y-73396156D01*
X90239929Y-73617112D01*
X90163292Y-73852975D01*
X90124500Y-74097899D01*
X89075500Y-74097899D01*
X89036706Y-73852972D01*
X89036706Y-73852969D01*
X88960073Y-73617118D01*
X88847489Y-73396158D01*
X88701724Y-73195530D01*
X88526370Y-73020176D01*
X88325742Y-72874411D01*
X88258964Y-72840386D01*
X88104786Y-72761828D01*
X87877762Y-72688063D01*
X87873240Y-72686210D01*
X87864050Y-72684041D01*
X87859286Y-72683666D01*
X87857983Y-72683459D01*
X87624000Y-72646400D01*
X87623999Y-72646400D01*
X87376001Y-72646400D01*
X87376000Y-72646400D01*
X87319222Y-72655392D01*
X87131075Y-72685192D01*
X86895212Y-72761829D01*
X86674264Y-72874407D01*
X86674251Y-72874415D01*
X86566173Y-72952938D01*
X86566174Y-72952939D01*
X86485499Y-73011552D01*
X86478119Y-73015685D01*
X86293784Y-73200020D01*
X86289651Y-73207401D01*
X86235675Y-73281692D01*
X86152511Y-73396156D01*
X86039929Y-73617112D01*
X85963292Y-73852975D01*
X85924500Y-74097899D01*
X84875500Y-74097899D01*
X84836706Y-73852972D01*
X84836706Y-73852969D01*
X84760073Y-73617118D01*
X84647489Y-73396158D01*
X84501724Y-73195530D01*
X84326370Y-73020176D01*
X84125742Y-72874411D01*
X84058964Y-72840386D01*
X83904786Y-72761828D01*
X83677762Y-72688063D01*
X83673240Y-72686210D01*
X83664050Y-72684041D01*
X83659286Y-72683666D01*
X83657983Y-72683459D01*
X83424000Y-72646400D01*
X83423999Y-72646400D01*
X83176001Y-72646400D01*
X83176000Y-72646400D01*
X83119222Y-72655392D01*
X82931075Y-72685192D01*
X82695212Y-72761829D01*
X82474264Y-72874407D01*
X82474251Y-72874415D01*
X82366173Y-72952938D01*
X82366174Y-72952939D01*
X82285499Y-73011552D01*
X82278119Y-73015685D01*
X82093784Y-73200020D01*
X82089651Y-73207401D01*
X82035675Y-73281692D01*
X81952511Y-73396156D01*
X81839929Y-73617112D01*
X81763292Y-73852975D01*
X81724500Y-74097899D01*
X80675500Y-74097899D01*
X80636706Y-73852972D01*
X80636706Y-73852969D01*
X80560073Y-73617118D01*
X80447489Y-73396158D01*
X80301724Y-73195530D01*
X80126370Y-73020176D01*
X79925742Y-72874411D01*
X79858964Y-72840386D01*
X79704786Y-72761828D01*
X79477762Y-72688063D01*
X79473240Y-72686210D01*
X79464050Y-72684041D01*
X79459286Y-72683666D01*
X79457983Y-72683459D01*
X79224000Y-72646400D01*
X79223999Y-72646400D01*
X78976001Y-72646400D01*
X78976000Y-72646400D01*
X78919222Y-72655392D01*
X78731075Y-72685192D01*
X78495212Y-72761829D01*
X78274264Y-72874407D01*
X78274251Y-72874415D01*
X78166173Y-72952938D01*
X78166174Y-72952939D01*
X78085499Y-73011552D01*
X78078119Y-73015685D01*
X77893784Y-73200020D01*
X77889651Y-73207401D01*
X77835675Y-73281692D01*
X77752511Y-73396156D01*
X77639929Y-73617112D01*
X77563292Y-73852975D01*
X77524500Y-74097899D01*
X76475500Y-74097899D01*
X76436706Y-73852972D01*
X76436706Y-73852969D01*
X76360073Y-73617118D01*
X76247489Y-73396158D01*
X76101724Y-73195530D01*
X75926370Y-73020176D01*
X75725742Y-72874411D01*
X75658964Y-72840386D01*
X75504786Y-72761828D01*
X75277762Y-72688063D01*
X75273240Y-72686210D01*
X75264050Y-72684041D01*
X75259286Y-72683666D01*
X75257983Y-72683459D01*
X75024000Y-72646400D01*
X75023999Y-72646400D01*
X74776001Y-72646400D01*
X74776000Y-72646400D01*
X74719222Y-72655392D01*
X74531075Y-72685192D01*
X74295212Y-72761829D01*
X74074264Y-72874407D01*
X74074251Y-72874415D01*
X73966173Y-72952938D01*
X73966174Y-72952939D01*
X73885499Y-73011552D01*
X73878119Y-73015685D01*
X73693784Y-73200020D01*
X73689651Y-73207401D01*
X73635675Y-73281692D01*
X73552511Y-73396156D01*
X73439929Y-73617112D01*
X73363292Y-73852975D01*
X73324500Y-74097899D01*
X72275500Y-74097899D01*
X72236706Y-73852972D01*
X72236706Y-73852969D01*
X72160073Y-73617118D01*
X72047489Y-73396158D01*
X71901724Y-73195530D01*
X71726370Y-73020176D01*
X71525742Y-72874411D01*
X71458964Y-72840386D01*
X71304786Y-72761828D01*
X71077762Y-72688063D01*
X71073240Y-72686210D01*
X71064050Y-72684041D01*
X71059286Y-72683666D01*
X71057983Y-72683459D01*
X70824000Y-72646400D01*
X70823999Y-72646400D01*
X70576001Y-72646400D01*
X70576000Y-72646400D01*
X70519222Y-72655392D01*
X70331075Y-72685192D01*
X70095212Y-72761829D01*
X69874264Y-72874407D01*
X69874251Y-72874415D01*
X69766173Y-72952938D01*
X69766174Y-72952939D01*
X69685499Y-73011552D01*
X69678119Y-73015685D01*
X69493784Y-73200020D01*
X69489651Y-73207401D01*
X69435675Y-73281692D01*
X69352511Y-73396156D01*
X69239929Y-73617112D01*
X69163292Y-73852975D01*
X69124500Y-74097899D01*
X68075500Y-74097899D01*
X68036706Y-73852972D01*
X68036706Y-73852969D01*
X67960073Y-73617118D01*
X67847489Y-73396158D01*
X67701724Y-73195530D01*
X67526370Y-73020176D01*
X67325742Y-72874411D01*
X67258964Y-72840386D01*
X67104786Y-72761828D01*
X66877762Y-72688063D01*
X66873240Y-72686210D01*
X66864050Y-72684041D01*
X66859286Y-72683666D01*
X66857983Y-72683459D01*
X66624000Y-72646400D01*
X66623999Y-72646400D01*
X66376001Y-72646400D01*
X66376000Y-72646400D01*
X66319222Y-72655392D01*
X66131075Y-72685192D01*
X65895212Y-72761829D01*
X65674264Y-72874407D01*
X65674251Y-72874415D01*
X65566173Y-72952938D01*
X65566174Y-72952939D01*
X65485499Y-73011552D01*
X65478119Y-73015685D01*
X65293784Y-73200020D01*
X65289651Y-73207401D01*
X65235675Y-73281692D01*
X65152511Y-73396156D01*
X65039929Y-73617112D01*
X64963292Y-73852975D01*
X64924500Y-74097899D01*
X63875500Y-74097899D01*
X63836706Y-73852972D01*
X63836706Y-73852969D01*
X63760073Y-73617118D01*
X63647489Y-73396158D01*
X63501724Y-73195530D01*
X63326370Y-73020176D01*
X63125742Y-72874411D01*
X63058964Y-72840386D01*
X62904786Y-72761828D01*
X62677762Y-72688063D01*
X62673240Y-72686210D01*
X62664050Y-72684041D01*
X62659286Y-72683666D01*
X62657983Y-72683459D01*
X62424000Y-72646400D01*
X62423999Y-72646400D01*
X62176001Y-72646400D01*
X62176000Y-72646400D01*
X62119222Y-72655392D01*
X61931075Y-72685192D01*
X61695212Y-72761829D01*
X61474264Y-72874407D01*
X61474251Y-72874415D01*
X61366173Y-72952938D01*
X61366174Y-72952939D01*
X61285499Y-73011552D01*
X61278119Y-73015685D01*
X61093784Y-73200020D01*
X61089651Y-73207401D01*
X61035675Y-73281692D01*
X60952511Y-73396156D01*
X60839929Y-73617112D01*
X60763292Y-73852975D01*
X60724500Y-74097899D01*
X59675500Y-74097899D01*
X59636706Y-73852972D01*
X59636706Y-73852969D01*
X59560073Y-73617118D01*
X59447489Y-73396158D01*
X59301724Y-73195530D01*
X59126370Y-73020176D01*
X58925742Y-72874411D01*
X58858964Y-72840386D01*
X58704786Y-72761828D01*
X58477762Y-72688063D01*
X58473240Y-72686210D01*
X58464050Y-72684041D01*
X58459286Y-72683666D01*
X58457983Y-72683459D01*
X58224000Y-72646400D01*
X58223999Y-72646400D01*
X57976001Y-72646400D01*
X57976000Y-72646400D01*
X57919222Y-72655392D01*
X57731075Y-72685192D01*
X57495212Y-72761829D01*
X57274264Y-72874407D01*
X57274251Y-72874415D01*
X57166173Y-72952938D01*
X57166174Y-72952939D01*
X57085499Y-73011552D01*
X57078119Y-73015685D01*
X56893784Y-73200020D01*
X56889651Y-73207401D01*
X56835675Y-73281692D01*
X56752511Y-73396156D01*
X56639929Y-73617112D01*
X56563292Y-73852975D01*
X56524500Y-74097899D01*
X47750000Y-74097899D01*
X47750000Y-67599025D01*
X56524500Y-67599025D01*
X56524500Y-69844776D01*
X56524659Y-69846706D01*
X56524885Y-69848354D01*
X56530907Y-69904382D01*
X56537801Y-69922864D01*
X56581202Y-70039228D01*
X56581206Y-70039235D01*
X56624086Y-70096516D01*
X56667450Y-70154442D01*
X56667452Y-70154444D01*
X56667455Y-70154447D01*
X56782664Y-70240693D01*
X56782671Y-70240697D01*
X56832155Y-70259153D01*
X56867513Y-70285621D01*
X56924444Y-70291735D01*
X56924443Y-70291739D01*
X56924458Y-70291736D01*
X56977127Y-70297400D01*
X59222872Y-70297399D01*
X59282483Y-70290991D01*
X59417331Y-70240696D01*
X59532546Y-70154446D01*
X59618796Y-70039231D01*
X59669091Y-69904383D01*
X59675500Y-69844773D01*
X59675499Y-68597899D01*
X60724500Y-68597899D01*
X60724500Y-68845900D01*
X60763275Y-69090714D01*
X60763294Y-69090831D01*
X60839927Y-69326682D01*
X60952511Y-69547642D01*
X61098276Y-69748270D01*
X61273630Y-69923624D01*
X61474258Y-70069389D01*
X61695218Y-70181973D01*
X61929561Y-70258116D01*
X61931069Y-70258606D01*
X62022759Y-70273128D01*
X62022858Y-70273143D01*
X62022920Y-70273153D01*
X62176000Y-70297400D01*
X62176005Y-70297400D01*
X62423998Y-70297400D01*
X62424000Y-70297400D01*
X62560070Y-70275847D01*
X62560071Y-70275847D01*
X62577238Y-70273128D01*
X62668931Y-70258606D01*
X62904782Y-70181973D01*
X63125742Y-70069389D01*
X63326370Y-69923624D01*
X63501724Y-69748270D01*
X63647489Y-69547642D01*
X63760073Y-69326682D01*
X63836706Y-69090831D01*
X63853947Y-68981970D01*
X63875500Y-68845900D01*
X63875500Y-68597899D01*
X64924500Y-68597899D01*
X64924500Y-68845900D01*
X64963275Y-69090714D01*
X64963294Y-69090831D01*
X65039927Y-69326682D01*
X65152511Y-69547642D01*
X65298276Y-69748270D01*
X65473630Y-69923624D01*
X65674258Y-70069389D01*
X65895218Y-70181973D01*
X66129561Y-70258116D01*
X66131069Y-70258606D01*
X66222759Y-70273128D01*
X66222858Y-70273143D01*
X66222920Y-70273153D01*
X66376000Y-70297400D01*
X66376005Y-70297400D01*
X66623998Y-70297400D01*
X66624000Y-70297400D01*
X66760070Y-70275847D01*
X66760071Y-70275847D01*
X66777238Y-70273128D01*
X66868931Y-70258606D01*
X67104782Y-70181973D01*
X67325742Y-70069389D01*
X67526370Y-69923624D01*
X67701724Y-69748270D01*
X67847489Y-69547642D01*
X67960073Y-69326682D01*
X68036706Y-69090831D01*
X68053947Y-68981970D01*
X68075500Y-68845900D01*
X68075500Y-68597899D01*
X69124500Y-68597899D01*
X69124500Y-68845900D01*
X69163275Y-69090714D01*
X69163294Y-69090831D01*
X69239927Y-69326682D01*
X69352511Y-69547642D01*
X69498276Y-69748270D01*
X69673630Y-69923624D01*
X69874258Y-70069389D01*
X70095218Y-70181973D01*
X70329561Y-70258116D01*
X70331069Y-70258606D01*
X70422759Y-70273128D01*
X70422858Y-70273143D01*
X70422920Y-70273153D01*
X70576000Y-70297400D01*
X70576005Y-70297400D01*
X70823998Y-70297400D01*
X70824000Y-70297400D01*
X70960070Y-70275847D01*
X70960071Y-70275847D01*
X70977238Y-70273128D01*
X71068931Y-70258606D01*
X71304782Y-70181973D01*
X71525742Y-70069389D01*
X71726370Y-69923624D01*
X71901724Y-69748270D01*
X72047489Y-69547642D01*
X72160073Y-69326682D01*
X72236706Y-69090831D01*
X72253947Y-68981970D01*
X72275500Y-68845900D01*
X72275500Y-68597899D01*
X73324500Y-68597899D01*
X73324500Y-68845900D01*
X73363275Y-69090714D01*
X73363294Y-69090831D01*
X73439927Y-69326682D01*
X73552511Y-69547642D01*
X73698276Y-69748270D01*
X73873630Y-69923624D01*
X74074258Y-70069389D01*
X74295218Y-70181973D01*
X74529561Y-70258116D01*
X74531069Y-70258606D01*
X74622759Y-70273128D01*
X74622858Y-70273143D01*
X74622920Y-70273153D01*
X74776000Y-70297400D01*
X74776005Y-70297400D01*
X75023998Y-70297400D01*
X75024000Y-70297400D01*
X75160070Y-70275847D01*
X75160071Y-70275847D01*
X75177238Y-70273128D01*
X75268931Y-70258606D01*
X75504782Y-70181973D01*
X75725742Y-70069389D01*
X75926370Y-69923624D01*
X76101724Y-69748270D01*
X76247489Y-69547642D01*
X76360073Y-69326682D01*
X76436706Y-69090831D01*
X76453947Y-68981970D01*
X76475500Y-68845900D01*
X76475500Y-68597899D01*
X77524500Y-68597899D01*
X77524500Y-68845900D01*
X77563275Y-69090714D01*
X77563294Y-69090831D01*
X77639927Y-69326682D01*
X77752511Y-69547642D01*
X77898276Y-69748270D01*
X78073630Y-69923624D01*
X78274258Y-70069389D01*
X78495218Y-70181973D01*
X78729561Y-70258116D01*
X78731069Y-70258606D01*
X78822759Y-70273128D01*
X78822858Y-70273143D01*
X78822920Y-70273153D01*
X78976000Y-70297400D01*
X78976005Y-70297400D01*
X79223998Y-70297400D01*
X79224000Y-70297400D01*
X79360070Y-70275847D01*
X79360071Y-70275847D01*
X79377238Y-70273128D01*
X79468931Y-70258606D01*
X79704782Y-70181973D01*
X79925742Y-70069389D01*
X80126370Y-69923624D01*
X80301724Y-69748270D01*
X80447489Y-69547642D01*
X80560073Y-69326682D01*
X80636706Y-69090831D01*
X80653947Y-68981970D01*
X80675500Y-68845900D01*
X80675500Y-68597899D01*
X81724500Y-68597899D01*
X81724500Y-68845900D01*
X81763275Y-69090714D01*
X81763294Y-69090831D01*
X81839927Y-69326682D01*
X81952511Y-69547642D01*
X82098276Y-69748270D01*
X82273630Y-69923624D01*
X82474258Y-70069389D01*
X82695218Y-70181973D01*
X82929561Y-70258116D01*
X82931069Y-70258606D01*
X83022759Y-70273128D01*
X83022858Y-70273143D01*
X83022920Y-70273153D01*
X83176000Y-70297400D01*
X83176005Y-70297400D01*
X83423998Y-70297400D01*
X83424000Y-70297400D01*
X83560070Y-70275847D01*
X83560071Y-70275847D01*
X83577238Y-70273128D01*
X83668931Y-70258606D01*
X83904782Y-70181973D01*
X84125742Y-70069389D01*
X84326370Y-69923624D01*
X84501724Y-69748270D01*
X84647489Y-69547642D01*
X84760073Y-69326682D01*
X84836706Y-69090831D01*
X84853947Y-68981970D01*
X84875500Y-68845900D01*
X84875500Y-68597899D01*
X85924500Y-68597899D01*
X85924500Y-68845900D01*
X85963275Y-69090714D01*
X85963294Y-69090831D01*
X86039927Y-69326682D01*
X86152511Y-69547642D01*
X86298276Y-69748270D01*
X86473630Y-69923624D01*
X86674258Y-70069389D01*
X86895218Y-70181973D01*
X87129561Y-70258116D01*
X87131069Y-70258606D01*
X87222759Y-70273128D01*
X87222858Y-70273143D01*
X87222920Y-70273153D01*
X87376000Y-70297400D01*
X87376005Y-70297400D01*
X87623998Y-70297400D01*
X87624000Y-70297400D01*
X87760070Y-70275847D01*
X87760071Y-70275847D01*
X87777238Y-70273128D01*
X87868931Y-70258606D01*
X88104782Y-70181973D01*
X88325742Y-70069389D01*
X88526370Y-69923624D01*
X88701724Y-69748270D01*
X88847489Y-69547642D01*
X88960073Y-69326682D01*
X89036706Y-69090831D01*
X89053947Y-68981970D01*
X89075500Y-68845900D01*
X89075500Y-68597899D01*
X90124500Y-68597899D01*
X90124500Y-68845900D01*
X90163275Y-69090714D01*
X90163294Y-69090831D01*
X90239927Y-69326682D01*
X90352511Y-69547642D01*
X90498276Y-69748270D01*
X90673630Y-69923624D01*
X90874258Y-70069389D01*
X91095218Y-70181973D01*
X91329561Y-70258116D01*
X91331069Y-70258606D01*
X91422759Y-70273128D01*
X91422858Y-70273143D01*
X91422920Y-70273153D01*
X91576000Y-70297400D01*
X91576005Y-70297400D01*
X91823998Y-70297400D01*
X91824000Y-70297400D01*
X91960070Y-70275847D01*
X91960071Y-70275847D01*
X91977238Y-70273128D01*
X92068931Y-70258606D01*
X92304782Y-70181973D01*
X92525742Y-70069389D01*
X92726370Y-69923624D01*
X92901724Y-69748270D01*
X93047489Y-69547642D01*
X93160073Y-69326682D01*
X93236706Y-69090831D01*
X93253947Y-68981970D01*
X93275500Y-68845900D01*
X93275500Y-68597945D01*
X94325000Y-68597945D01*
X94325000Y-68845853D01*
X94363782Y-69090715D01*
X94440388Y-69326489D01*
X94552938Y-69547379D01*
X94619593Y-69639119D01*
X94623646Y-69644698D01*
X94623647Y-69644699D01*
X94623648Y-69644699D01*
X95002682Y-69265663D01*
X95064005Y-69232178D01*
X95133696Y-69237162D01*
X95189630Y-69279033D01*
X95193451Y-69284433D01*
X95200924Y-69295617D01*
X95200927Y-69295620D01*
X95200928Y-69295621D01*
X95200928Y-69295622D01*
X95326279Y-69420973D01*
X95326283Y-69420976D01*
X95337444Y-69428434D01*
X95382249Y-69482047D01*
X95390956Y-69551372D01*
X95360801Y-69614399D01*
X95356234Y-69619217D01*
X94977198Y-69998251D01*
X94977199Y-69998252D01*
X95074519Y-70068959D01*
X95074519Y-70068960D01*
X95242289Y-70154444D01*
X95295409Y-70181510D01*
X95295412Y-70181511D01*
X95531185Y-70258117D01*
X95776046Y-70296900D01*
X96023953Y-70296900D01*
X96023954Y-70296900D01*
X96268814Y-70258117D01*
X96504587Y-70181511D01*
X96504590Y-70181510D01*
X96725480Y-70068960D01*
X96822798Y-69998252D01*
X96443763Y-69619217D01*
X96410278Y-69557894D01*
X96415262Y-69488202D01*
X96457134Y-69432269D01*
X96462523Y-69428454D01*
X96473717Y-69420976D01*
X96599076Y-69295617D01*
X96606533Y-69284456D01*
X96660140Y-69239651D01*
X96729465Y-69230940D01*
X96792494Y-69261091D01*
X96797317Y-69265663D01*
X97176352Y-69644698D01*
X97247060Y-69547380D01*
X97359610Y-69326490D01*
X97359611Y-69326487D01*
X97436217Y-69090714D01*
X97475000Y-68845854D01*
X97475000Y-68597945D01*
X98525000Y-68597945D01*
X98525000Y-68845853D01*
X98563782Y-69090715D01*
X98640388Y-69326489D01*
X98752938Y-69547379D01*
X98819593Y-69639119D01*
X98823646Y-69644698D01*
X98823647Y-69644699D01*
X98823648Y-69644699D01*
X99202682Y-69265663D01*
X99264005Y-69232178D01*
X99333696Y-69237162D01*
X99389630Y-69279033D01*
X99393451Y-69284433D01*
X99400924Y-69295617D01*
X99400927Y-69295620D01*
X99400928Y-69295621D01*
X99400928Y-69295622D01*
X99526279Y-69420973D01*
X99526283Y-69420976D01*
X99537444Y-69428434D01*
X99582249Y-69482047D01*
X99590956Y-69551372D01*
X99560801Y-69614399D01*
X99556234Y-69619217D01*
X99177198Y-69998251D01*
X99177199Y-69998252D01*
X99274519Y-70068959D01*
X99274519Y-70068960D01*
X99442289Y-70154444D01*
X99495409Y-70181510D01*
X99495412Y-70181511D01*
X99731185Y-70258117D01*
X99976046Y-70296900D01*
X100223953Y-70296900D01*
X100223954Y-70296900D01*
X100468814Y-70258117D01*
X100704587Y-70181511D01*
X100704590Y-70181510D01*
X100925480Y-70068960D01*
X101022798Y-69998252D01*
X100643763Y-69619217D01*
X100610278Y-69557894D01*
X100615262Y-69488202D01*
X100657134Y-69432269D01*
X100662523Y-69428454D01*
X100673717Y-69420976D01*
X100799076Y-69295617D01*
X100806533Y-69284455D01*
X100860143Y-69239650D01*
X100929468Y-69230941D01*
X100992496Y-69261094D01*
X100997317Y-69265664D01*
X101376351Y-69644699D01*
X101376351Y-69644698D01*
X101376352Y-69644699D01*
X101376352Y-69644698D01*
X101389820Y-69639119D01*
X101396037Y-69617950D01*
X101400035Y-69612102D01*
X101447060Y-69547380D01*
X101559610Y-69326490D01*
X101559611Y-69326487D01*
X101636217Y-69090714D01*
X101675000Y-68845854D01*
X101675000Y-68597945D01*
X101674993Y-68597899D01*
X102724500Y-68597899D01*
X102724500Y-68845900D01*
X102763275Y-69090714D01*
X102763294Y-69090831D01*
X102839927Y-69326682D01*
X102952511Y-69547642D01*
X103098276Y-69748270D01*
X103273630Y-69923624D01*
X103474258Y-70069389D01*
X103695218Y-70181973D01*
X103929561Y-70258116D01*
X103931069Y-70258606D01*
X104022759Y-70273128D01*
X104022858Y-70273143D01*
X104022920Y-70273153D01*
X104176000Y-70297400D01*
X104176005Y-70297400D01*
X104423998Y-70297400D01*
X104424000Y-70297400D01*
X104560070Y-70275847D01*
X104560071Y-70275847D01*
X104577238Y-70273128D01*
X104668931Y-70258606D01*
X104904782Y-70181973D01*
X105125742Y-70069389D01*
X105326370Y-69923624D01*
X105501724Y-69748270D01*
X105647489Y-69547642D01*
X105760073Y-69326682D01*
X105836706Y-69090831D01*
X105853947Y-68981970D01*
X105875500Y-68845900D01*
X105875500Y-68597899D01*
X105849076Y-68431069D01*
X105838233Y-68362611D01*
X105838232Y-68362605D01*
X105838232Y-68362606D01*
X105836706Y-68352972D01*
X105836706Y-68352969D01*
X105760073Y-68117118D01*
X105647489Y-67896158D01*
X105600654Y-67831695D01*
X105539443Y-67747445D01*
X105539441Y-67747443D01*
X105538893Y-67746689D01*
X105501724Y-67695530D01*
X105483319Y-67677125D01*
X111574500Y-67677125D01*
X111574500Y-69922876D01*
X111574659Y-69924806D01*
X111574885Y-69926454D01*
X111580907Y-69982482D01*
X111602074Y-70039231D01*
X111631202Y-70117328D01*
X111631206Y-70117335D01*
X111658988Y-70154447D01*
X111717450Y-70232542D01*
X111717456Y-70232548D01*
X111728342Y-70240697D01*
X111832664Y-70318793D01*
X111832671Y-70318797D01*
X111882155Y-70337253D01*
X111917513Y-70363721D01*
X111974444Y-70369835D01*
X111974443Y-70369839D01*
X111974458Y-70369836D01*
X112027127Y-70375500D01*
X114272872Y-70375499D01*
X114332483Y-70369091D01*
X114467331Y-70318796D01*
X114582546Y-70232546D01*
X114668796Y-70117331D01*
X114719091Y-69982483D01*
X114725500Y-69922873D01*
X114725499Y-68675999D01*
X115774500Y-68675999D01*
X115774500Y-68924000D01*
X115800924Y-69090831D01*
X115813294Y-69168931D01*
X115889927Y-69404782D01*
X116002511Y-69625742D01*
X116148276Y-69826370D01*
X116323630Y-70001724D01*
X116524258Y-70147489D01*
X116745218Y-70260073D01*
X116981066Y-70336705D01*
X116981069Y-70336706D01*
X117072759Y-70351228D01*
X117072858Y-70351243D01*
X117072920Y-70351253D01*
X117226000Y-70375500D01*
X117226005Y-70375500D01*
X117473998Y-70375500D01*
X117474000Y-70375500D01*
X117610070Y-70353947D01*
X117610071Y-70353947D01*
X117627238Y-70351228D01*
X117718931Y-70336706D01*
X117954782Y-70260073D01*
X118175742Y-70147489D01*
X118376370Y-70001724D01*
X118551724Y-69826370D01*
X118697489Y-69625742D01*
X118810073Y-69404782D01*
X118886706Y-69168931D01*
X118915930Y-68984420D01*
X118925500Y-68924000D01*
X118925500Y-68675999D01*
X119974500Y-68675999D01*
X119974500Y-68924000D01*
X120000924Y-69090831D01*
X120013294Y-69168931D01*
X120089927Y-69404782D01*
X120202511Y-69625742D01*
X120348276Y-69826370D01*
X120523630Y-70001724D01*
X120724258Y-70147489D01*
X120945218Y-70260073D01*
X121181066Y-70336705D01*
X121181069Y-70336706D01*
X121272759Y-70351228D01*
X121272858Y-70351243D01*
X121272920Y-70351253D01*
X121426000Y-70375500D01*
X121426005Y-70375500D01*
X121673998Y-70375500D01*
X121674000Y-70375500D01*
X121810070Y-70353947D01*
X121810071Y-70353947D01*
X121827238Y-70351228D01*
X121918931Y-70336706D01*
X122154782Y-70260073D01*
X122375742Y-70147489D01*
X122576370Y-70001724D01*
X122751724Y-69826370D01*
X122897489Y-69625742D01*
X123010073Y-69404782D01*
X123086706Y-69168931D01*
X123115930Y-68984420D01*
X123125500Y-68924000D01*
X123125500Y-68675999D01*
X124174500Y-68675999D01*
X124174500Y-68924000D01*
X124200924Y-69090831D01*
X124213294Y-69168931D01*
X124289927Y-69404782D01*
X124402511Y-69625742D01*
X124548276Y-69826370D01*
X124723630Y-70001724D01*
X124924258Y-70147489D01*
X125145218Y-70260073D01*
X125381066Y-70336705D01*
X125381069Y-70336706D01*
X125472759Y-70351228D01*
X125472858Y-70351243D01*
X125472920Y-70351253D01*
X125626000Y-70375500D01*
X125626005Y-70375500D01*
X125873998Y-70375500D01*
X125874000Y-70375500D01*
X126010070Y-70353947D01*
X126010071Y-70353947D01*
X126027238Y-70351228D01*
X126118931Y-70336706D01*
X126354782Y-70260073D01*
X126575742Y-70147489D01*
X126776370Y-70001724D01*
X126951724Y-69826370D01*
X127097489Y-69625742D01*
X127210073Y-69404782D01*
X127286706Y-69168931D01*
X127315930Y-68984420D01*
X127325500Y-68924000D01*
X127325500Y-68675999D01*
X127286706Y-68431072D01*
X127286706Y-68431069D01*
X127210073Y-68195218D01*
X127097489Y-67974258D01*
X126951724Y-67773630D01*
X126776370Y-67598276D01*
X126575742Y-67452511D01*
X126562070Y-67445545D01*
X126354786Y-67339928D01*
X126127762Y-67266163D01*
X126123240Y-67264310D01*
X126114050Y-67262141D01*
X126109286Y-67261766D01*
X126107983Y-67261559D01*
X125874000Y-67224500D01*
X125873999Y-67224500D01*
X125626001Y-67224500D01*
X125626000Y-67224500D01*
X125585542Y-67230908D01*
X125381075Y-67263292D01*
X125145212Y-67339929D01*
X124924256Y-67452511D01*
X124809792Y-67535675D01*
X124735501Y-67589651D01*
X124728120Y-67593784D01*
X124543784Y-67778120D01*
X124539651Y-67785501D01*
X124485675Y-67859792D01*
X124402511Y-67974256D01*
X124289929Y-68195212D01*
X124213292Y-68431075D01*
X124186862Y-68597946D01*
X124174500Y-68675999D01*
X123125500Y-68675999D01*
X123086706Y-68431072D01*
X123086706Y-68431069D01*
X123010073Y-68195218D01*
X122897489Y-67974258D01*
X122751724Y-67773630D01*
X122576370Y-67598276D01*
X122375742Y-67452511D01*
X122362070Y-67445545D01*
X122154786Y-67339928D01*
X121927762Y-67266163D01*
X121923240Y-67264310D01*
X121914050Y-67262141D01*
X121909286Y-67261766D01*
X121907983Y-67261559D01*
X121674000Y-67224500D01*
X121673999Y-67224500D01*
X121426001Y-67224500D01*
X121426000Y-67224500D01*
X121385542Y-67230908D01*
X121181075Y-67263292D01*
X120945212Y-67339929D01*
X120724256Y-67452511D01*
X120609792Y-67535675D01*
X120535501Y-67589651D01*
X120528120Y-67593784D01*
X120343784Y-67778120D01*
X120339651Y-67785501D01*
X120285675Y-67859792D01*
X120202511Y-67974256D01*
X120089929Y-68195212D01*
X120013292Y-68431075D01*
X119986862Y-68597946D01*
X119974500Y-68675999D01*
X118925500Y-68675999D01*
X118886706Y-68431072D01*
X118886706Y-68431069D01*
X118810073Y-68195218D01*
X118697489Y-67974258D01*
X118551724Y-67773630D01*
X118376370Y-67598276D01*
X118175742Y-67452511D01*
X118162070Y-67445545D01*
X117954786Y-67339928D01*
X117727762Y-67266163D01*
X117723240Y-67264310D01*
X117714050Y-67262141D01*
X117709286Y-67261766D01*
X117707983Y-67261559D01*
X117474000Y-67224500D01*
X117473999Y-67224500D01*
X117226001Y-67224500D01*
X117226000Y-67224500D01*
X117185542Y-67230908D01*
X116981075Y-67263292D01*
X116745212Y-67339929D01*
X116524256Y-67452511D01*
X116409792Y-67535675D01*
X116335501Y-67589651D01*
X116328120Y-67593784D01*
X116143784Y-67778120D01*
X116139651Y-67785501D01*
X116085675Y-67859792D01*
X116002511Y-67974256D01*
X115889929Y-68195212D01*
X115813292Y-68431075D01*
X115786862Y-68597946D01*
X115774500Y-68675999D01*
X114725499Y-68675999D01*
X114725499Y-67677128D01*
X114719091Y-67617517D01*
X114712195Y-67599029D01*
X114682785Y-67520175D01*
X114668798Y-67482673D01*
X114668797Y-67482671D01*
X114668795Y-67482668D01*
X114668793Y-67482664D01*
X114588076Y-67374841D01*
X114582548Y-67367456D01*
X114582542Y-67367450D01*
X114524616Y-67324086D01*
X114467335Y-67281206D01*
X114467332Y-67281204D01*
X114467330Y-67281203D01*
X114467328Y-67281202D01*
X114417844Y-67262746D01*
X114382497Y-67236284D01*
X114280583Y-67225328D01*
X114275742Y-67224500D01*
X114272881Y-67224500D01*
X114272873Y-67224500D01*
X114272864Y-67224500D01*
X112027129Y-67224500D01*
X112027123Y-67224500D01*
X112025192Y-67224659D01*
X112023545Y-67224885D01*
X111967516Y-67230908D01*
X111880688Y-67263293D01*
X111832666Y-67281204D01*
X111832665Y-67281205D01*
X111717456Y-67367450D01*
X111717450Y-67367456D01*
X111631205Y-67482665D01*
X111631203Y-67482668D01*
X111580908Y-67617516D01*
X111574500Y-67677125D01*
X105483319Y-67677125D01*
X105326370Y-67520176D01*
X105125742Y-67374411D01*
X105058065Y-67339928D01*
X104904786Y-67261828D01*
X104677762Y-67188063D01*
X104673240Y-67186210D01*
X104664050Y-67184041D01*
X104659286Y-67183666D01*
X104657983Y-67183459D01*
X104424000Y-67146400D01*
X104423999Y-67146400D01*
X104176001Y-67146400D01*
X104176000Y-67146400D01*
X104135542Y-67152808D01*
X103931075Y-67185192D01*
X103695212Y-67261829D01*
X103474256Y-67374411D01*
X103448693Y-67392984D01*
X103432749Y-67404569D01*
X103285500Y-67511551D01*
X103278121Y-67515683D01*
X103093783Y-67700021D01*
X103089653Y-67707397D01*
X103061107Y-67746689D01*
X103061105Y-67746692D01*
X102952511Y-67896156D01*
X102839929Y-68117112D01*
X102763292Y-68352975D01*
X102749397Y-68440705D01*
X102724500Y-68597899D01*
X101674993Y-68597899D01*
X101636217Y-68353085D01*
X101559611Y-68117312D01*
X101559610Y-68117309D01*
X101447064Y-67896427D01*
X101447060Y-67896421D01*
X101400034Y-67831695D01*
X101390493Y-67804956D01*
X101376351Y-67799098D01*
X100997316Y-68178133D01*
X100935993Y-68211618D01*
X100866301Y-68206634D01*
X100810368Y-68164762D01*
X100806532Y-68159342D01*
X100799074Y-68148180D01*
X100673720Y-68022826D01*
X100673715Y-68022822D01*
X100662551Y-68015362D01*
X100617747Y-67961748D01*
X100609042Y-67892423D01*
X100639199Y-67829396D01*
X100643745Y-67824600D01*
X101022799Y-67445547D01*
X101022798Y-67445546D01*
X101022796Y-67445544D01*
X100925479Y-67374838D01*
X100704589Y-67262288D01*
X100468815Y-67185682D01*
X100295198Y-67158184D01*
X100223954Y-67146900D01*
X100223953Y-67146900D01*
X99976041Y-67146900D01*
X99731183Y-67185682D01*
X99495415Y-67262286D01*
X99274517Y-67374840D01*
X99274515Y-67374841D01*
X99177200Y-67445543D01*
X99177198Y-67445545D01*
X99177199Y-67445547D01*
X99556235Y-67824582D01*
X99589720Y-67885905D01*
X99584736Y-67955596D01*
X99542865Y-68011530D01*
X99537447Y-68015364D01*
X99526281Y-68022824D01*
X99400924Y-68148181D01*
X99393464Y-68159347D01*
X99339851Y-68204151D01*
X99270526Y-68212857D01*
X99207499Y-68182701D01*
X99202682Y-68178135D01*
X98823647Y-67799099D01*
X98823645Y-67799098D01*
X98823643Y-67799100D01*
X98752941Y-67896415D01*
X98752940Y-67896417D01*
X98640386Y-68117315D01*
X98563782Y-68353083D01*
X98525000Y-68597945D01*
X97475000Y-68597945D01*
X97436217Y-68353085D01*
X97359611Y-68117312D01*
X97359610Y-68117309D01*
X97247064Y-67896427D01*
X97247060Y-67896421D01*
X97200034Y-67831695D01*
X97190493Y-67804956D01*
X97176351Y-67799098D01*
X96797316Y-68178133D01*
X96735993Y-68211618D01*
X96666301Y-68206634D01*
X96610368Y-68164762D01*
X96606532Y-68159342D01*
X96599074Y-68148180D01*
X96473720Y-68022826D01*
X96473715Y-68022822D01*
X96462551Y-68015362D01*
X96417747Y-67961748D01*
X96409042Y-67892423D01*
X96439199Y-67829396D01*
X96443745Y-67824600D01*
X96822799Y-67445547D01*
X96822798Y-67445546D01*
X96822796Y-67445544D01*
X96725479Y-67374838D01*
X96504589Y-67262288D01*
X96268815Y-67185682D01*
X96095198Y-67158184D01*
X96023954Y-67146900D01*
X96023953Y-67146900D01*
X95776041Y-67146900D01*
X95531183Y-67185682D01*
X95295415Y-67262286D01*
X95074517Y-67374840D01*
X95074515Y-67374841D01*
X94977200Y-67445543D01*
X94977198Y-67445545D01*
X94977199Y-67445547D01*
X95356235Y-67824582D01*
X95389720Y-67885905D01*
X95384736Y-67955596D01*
X95342865Y-68011530D01*
X95337447Y-68015364D01*
X95326281Y-68022824D01*
X95200924Y-68148181D01*
X95193464Y-68159347D01*
X95139851Y-68204151D01*
X95070526Y-68212857D01*
X95007499Y-68182701D01*
X95002682Y-68178135D01*
X94623647Y-67799099D01*
X94623645Y-67799098D01*
X94623643Y-67799100D01*
X94552941Y-67896415D01*
X94552940Y-67896417D01*
X94440386Y-68117315D01*
X94363782Y-68353083D01*
X94325000Y-68597945D01*
X93275500Y-68597945D01*
X93275500Y-68597899D01*
X93249076Y-68431069D01*
X93238233Y-68362611D01*
X93238232Y-68362605D01*
X93238232Y-68362606D01*
X93236706Y-68352972D01*
X93236706Y-68352969D01*
X93160073Y-68117118D01*
X93047489Y-67896158D01*
X92901724Y-67695530D01*
X92726370Y-67520176D01*
X92525742Y-67374411D01*
X92458065Y-67339928D01*
X92304786Y-67261828D01*
X92077762Y-67188063D01*
X92073240Y-67186210D01*
X92064050Y-67184041D01*
X92059286Y-67183666D01*
X92057983Y-67183459D01*
X91824000Y-67146400D01*
X91823999Y-67146400D01*
X91576001Y-67146400D01*
X91576000Y-67146400D01*
X91535542Y-67152808D01*
X91331075Y-67185192D01*
X91095212Y-67261829D01*
X90874256Y-67374411D01*
X90848693Y-67392984D01*
X90832749Y-67404569D01*
X90685500Y-67511551D01*
X90678121Y-67515683D01*
X90493783Y-67700021D01*
X90489653Y-67707397D01*
X90461107Y-67746689D01*
X90461105Y-67746692D01*
X90352511Y-67896156D01*
X90239929Y-68117112D01*
X90163292Y-68352975D01*
X90149397Y-68440705D01*
X90124500Y-68597899D01*
X89075500Y-68597899D01*
X89049076Y-68431069D01*
X89038233Y-68362611D01*
X89038232Y-68362605D01*
X89038232Y-68362606D01*
X89036706Y-68352972D01*
X89036706Y-68352969D01*
X88960073Y-68117118D01*
X88847489Y-67896158D01*
X88701724Y-67695530D01*
X88526370Y-67520176D01*
X88325742Y-67374411D01*
X88258065Y-67339928D01*
X88104786Y-67261828D01*
X87877762Y-67188063D01*
X87873240Y-67186210D01*
X87864050Y-67184041D01*
X87859286Y-67183666D01*
X87857983Y-67183459D01*
X87624000Y-67146400D01*
X87623999Y-67146400D01*
X87376001Y-67146400D01*
X87376000Y-67146400D01*
X87335542Y-67152808D01*
X87131075Y-67185192D01*
X86895212Y-67261829D01*
X86674256Y-67374411D01*
X86648693Y-67392984D01*
X86632749Y-67404569D01*
X86485500Y-67511551D01*
X86478121Y-67515683D01*
X86293783Y-67700021D01*
X86289653Y-67707397D01*
X86261107Y-67746689D01*
X86261105Y-67746692D01*
X86152511Y-67896156D01*
X86039929Y-68117112D01*
X85963292Y-68352975D01*
X85949397Y-68440705D01*
X85924500Y-68597899D01*
X84875500Y-68597899D01*
X84849076Y-68431069D01*
X84838233Y-68362611D01*
X84838232Y-68362605D01*
X84838232Y-68362606D01*
X84836706Y-68352972D01*
X84836706Y-68352969D01*
X84760073Y-68117118D01*
X84647489Y-67896158D01*
X84501724Y-67695530D01*
X84326370Y-67520176D01*
X84125742Y-67374411D01*
X84058065Y-67339928D01*
X83904786Y-67261828D01*
X83677762Y-67188063D01*
X83673240Y-67186210D01*
X83664050Y-67184041D01*
X83659286Y-67183666D01*
X83657983Y-67183459D01*
X83424000Y-67146400D01*
X83423999Y-67146400D01*
X83176001Y-67146400D01*
X83176000Y-67146400D01*
X83135542Y-67152808D01*
X82931075Y-67185192D01*
X82695212Y-67261829D01*
X82474256Y-67374411D01*
X82448693Y-67392984D01*
X82432749Y-67404569D01*
X82285500Y-67511551D01*
X82278121Y-67515683D01*
X82093783Y-67700021D01*
X82089653Y-67707397D01*
X82061107Y-67746689D01*
X82061105Y-67746692D01*
X81952511Y-67896156D01*
X81839929Y-68117112D01*
X81763292Y-68352975D01*
X81749397Y-68440705D01*
X81724500Y-68597899D01*
X80675500Y-68597899D01*
X80649076Y-68431069D01*
X80638233Y-68362611D01*
X80638232Y-68362605D01*
X80638232Y-68362606D01*
X80636706Y-68352972D01*
X80636706Y-68352969D01*
X80560073Y-68117118D01*
X80447489Y-67896158D01*
X80301724Y-67695530D01*
X80126370Y-67520176D01*
X79925742Y-67374411D01*
X79858065Y-67339928D01*
X79704786Y-67261828D01*
X79477762Y-67188063D01*
X79473240Y-67186210D01*
X79464050Y-67184041D01*
X79459286Y-67183666D01*
X79457983Y-67183459D01*
X79224000Y-67146400D01*
X79223999Y-67146400D01*
X78976001Y-67146400D01*
X78976000Y-67146400D01*
X78935542Y-67152808D01*
X78731075Y-67185192D01*
X78495212Y-67261829D01*
X78274256Y-67374411D01*
X78248693Y-67392984D01*
X78232749Y-67404569D01*
X78085500Y-67511551D01*
X78078121Y-67515683D01*
X77893783Y-67700021D01*
X77889653Y-67707397D01*
X77861107Y-67746689D01*
X77861105Y-67746692D01*
X77752511Y-67896156D01*
X77639929Y-68117112D01*
X77563292Y-68352975D01*
X77549397Y-68440705D01*
X77524500Y-68597899D01*
X76475500Y-68597899D01*
X76449076Y-68431069D01*
X76438233Y-68362611D01*
X76438232Y-68362605D01*
X76438232Y-68362606D01*
X76436706Y-68352972D01*
X76436706Y-68352969D01*
X76360073Y-68117118D01*
X76247489Y-67896158D01*
X76101724Y-67695530D01*
X75926370Y-67520176D01*
X75725742Y-67374411D01*
X75658065Y-67339928D01*
X75504786Y-67261828D01*
X75277762Y-67188063D01*
X75273240Y-67186210D01*
X75264050Y-67184041D01*
X75259286Y-67183666D01*
X75257983Y-67183459D01*
X75024000Y-67146400D01*
X75023999Y-67146400D01*
X74776001Y-67146400D01*
X74776000Y-67146400D01*
X74735542Y-67152808D01*
X74531075Y-67185192D01*
X74295212Y-67261829D01*
X74074256Y-67374411D01*
X74048693Y-67392984D01*
X74032749Y-67404569D01*
X73885500Y-67511551D01*
X73878121Y-67515683D01*
X73693783Y-67700021D01*
X73689653Y-67707397D01*
X73661107Y-67746689D01*
X73661105Y-67746692D01*
X73552511Y-67896156D01*
X73439929Y-68117112D01*
X73363292Y-68352975D01*
X73349397Y-68440705D01*
X73324500Y-68597899D01*
X72275500Y-68597899D01*
X72249076Y-68431069D01*
X72238233Y-68362611D01*
X72238232Y-68362605D01*
X72238232Y-68362606D01*
X72236706Y-68352972D01*
X72236706Y-68352969D01*
X72160073Y-68117118D01*
X72047489Y-67896158D01*
X71901724Y-67695530D01*
X71726370Y-67520176D01*
X71525742Y-67374411D01*
X71458065Y-67339928D01*
X71304786Y-67261828D01*
X71077762Y-67188063D01*
X71073240Y-67186210D01*
X71064050Y-67184041D01*
X71059286Y-67183666D01*
X71057983Y-67183459D01*
X70824000Y-67146400D01*
X70823999Y-67146400D01*
X70576001Y-67146400D01*
X70576000Y-67146400D01*
X70535542Y-67152808D01*
X70331075Y-67185192D01*
X70095212Y-67261829D01*
X69874256Y-67374411D01*
X69848693Y-67392984D01*
X69832749Y-67404569D01*
X69685500Y-67511551D01*
X69678121Y-67515683D01*
X69493783Y-67700021D01*
X69489653Y-67707397D01*
X69461107Y-67746689D01*
X69461105Y-67746692D01*
X69352511Y-67896156D01*
X69239929Y-68117112D01*
X69163292Y-68352975D01*
X69149397Y-68440705D01*
X69124500Y-68597899D01*
X68075500Y-68597899D01*
X68049076Y-68431069D01*
X68038233Y-68362611D01*
X68038232Y-68362605D01*
X68038232Y-68362606D01*
X68036706Y-68352972D01*
X68036706Y-68352969D01*
X67960073Y-68117118D01*
X67847489Y-67896158D01*
X67701724Y-67695530D01*
X67526370Y-67520176D01*
X67325742Y-67374411D01*
X67258065Y-67339928D01*
X67104786Y-67261828D01*
X66877762Y-67188063D01*
X66873240Y-67186210D01*
X66864050Y-67184041D01*
X66859286Y-67183666D01*
X66857983Y-67183459D01*
X66624000Y-67146400D01*
X66623999Y-67146400D01*
X66376001Y-67146400D01*
X66376000Y-67146400D01*
X66335542Y-67152808D01*
X66131075Y-67185192D01*
X65895212Y-67261829D01*
X65674256Y-67374411D01*
X65648693Y-67392984D01*
X65632749Y-67404569D01*
X65485500Y-67511551D01*
X65478121Y-67515683D01*
X65293783Y-67700021D01*
X65289653Y-67707397D01*
X65261107Y-67746689D01*
X65261105Y-67746692D01*
X65152511Y-67896156D01*
X65039929Y-68117112D01*
X64963292Y-68352975D01*
X64949397Y-68440705D01*
X64924500Y-68597899D01*
X63875500Y-68597899D01*
X63849076Y-68431069D01*
X63838233Y-68362611D01*
X63838232Y-68362605D01*
X63838232Y-68362606D01*
X63836706Y-68352972D01*
X63836706Y-68352969D01*
X63760073Y-68117118D01*
X63647489Y-67896158D01*
X63501724Y-67695530D01*
X63326370Y-67520176D01*
X63125742Y-67374411D01*
X63058065Y-67339928D01*
X62904786Y-67261828D01*
X62677762Y-67188063D01*
X62673240Y-67186210D01*
X62664050Y-67184041D01*
X62659286Y-67183666D01*
X62657983Y-67183459D01*
X62424000Y-67146400D01*
X62423999Y-67146400D01*
X62176001Y-67146400D01*
X62176000Y-67146400D01*
X62135542Y-67152808D01*
X61931075Y-67185192D01*
X61695212Y-67261829D01*
X61474256Y-67374411D01*
X61448693Y-67392984D01*
X61432749Y-67404569D01*
X61285500Y-67511551D01*
X61278121Y-67515683D01*
X61093783Y-67700021D01*
X61089653Y-67707397D01*
X61061107Y-67746689D01*
X61061105Y-67746692D01*
X60952511Y-67896156D01*
X60839929Y-68117112D01*
X60763292Y-68352975D01*
X60749397Y-68440705D01*
X60724500Y-68597899D01*
X59675499Y-68597899D01*
X59675499Y-67599028D01*
X59669091Y-67539417D01*
X59661915Y-67520178D01*
X59661914Y-67520175D01*
X59618798Y-67404573D01*
X59618796Y-67404569D01*
X59618795Y-67404568D01*
X59618793Y-67404564D01*
X59532547Y-67289355D01*
X59532544Y-67289352D01*
X59532542Y-67289350D01*
X59454473Y-67230908D01*
X59417335Y-67203106D01*
X59417332Y-67203104D01*
X59417330Y-67203103D01*
X59417328Y-67203102D01*
X59367844Y-67184646D01*
X59332497Y-67158184D01*
X59230583Y-67147228D01*
X59225742Y-67146400D01*
X59222881Y-67146400D01*
X59222873Y-67146400D01*
X59222864Y-67146400D01*
X56977129Y-67146400D01*
X56977123Y-67146400D01*
X56975192Y-67146559D01*
X56973545Y-67146785D01*
X56917516Y-67152808D01*
X56829377Y-67185682D01*
X56782666Y-67203104D01*
X56782665Y-67203105D01*
X56667456Y-67289350D01*
X56667450Y-67289356D01*
X56581205Y-67404565D01*
X56581203Y-67404568D01*
X56530908Y-67539416D01*
X56524500Y-67599025D01*
X47750000Y-67599025D01*
X47750000Y-61307157D01*
X56349500Y-61307157D01*
X56349500Y-61536647D01*
X56359781Y-61614726D01*
X56359781Y-61614728D01*
X56379485Y-61764396D01*
X56380027Y-61766283D01*
X56438842Y-61985786D01*
X56438845Y-61985796D01*
X56526652Y-62197781D01*
X56526655Y-62197787D01*
X56526657Y-62197790D01*
X56641392Y-62396517D01*
X56641395Y-62396521D01*
X56641399Y-62396527D01*
X56781079Y-62578559D01*
X56781081Y-62578561D01*
X56781089Y-62578570D01*
X56863341Y-62660822D01*
X56943325Y-62740806D01*
X56943332Y-62740813D01*
X56943338Y-62740818D01*
X57125591Y-62880668D01*
X57127272Y-62881599D01*
X57324139Y-62995260D01*
X57324731Y-62995501D01*
X57415480Y-63033090D01*
X57415481Y-63033091D01*
X57475796Y-63058074D01*
X57536113Y-63083058D01*
X57757762Y-63142448D01*
X57985266Y-63172400D01*
X57985273Y-63172400D01*
X58214727Y-63172400D01*
X58214734Y-63172400D01*
X58442238Y-63142448D01*
X58663887Y-63083058D01*
X58875888Y-62995244D01*
X59074612Y-62880511D01*
X59251061Y-62745115D01*
X59251795Y-62744616D01*
X59256142Y-62741223D01*
X59256670Y-62740814D01*
X59257167Y-62740322D01*
X59260822Y-62736740D01*
X59261512Y-62735970D01*
X59414070Y-62583412D01*
X59414840Y-62582722D01*
X59418422Y-62579067D01*
X59418914Y-62578570D01*
X59419323Y-62578042D01*
X59422716Y-62573695D01*
X59423216Y-62572961D01*
X59498671Y-62474627D01*
X59558611Y-62396512D01*
X59673344Y-62197788D01*
X59761158Y-61985787D01*
X59820548Y-61764138D01*
X59850500Y-61536634D01*
X59850500Y-61307166D01*
X59850499Y-61307157D01*
X102549500Y-61307157D01*
X102549500Y-61536647D01*
X102559781Y-61614726D01*
X102559781Y-61614728D01*
X102579485Y-61764396D01*
X102580027Y-61766283D01*
X102638842Y-61985786D01*
X102638845Y-61985796D01*
X102726652Y-62197781D01*
X102726655Y-62197787D01*
X102726657Y-62197790D01*
X102841392Y-62396517D01*
X102841395Y-62396521D01*
X102841399Y-62396527D01*
X102981079Y-62578559D01*
X102981081Y-62578561D01*
X102981089Y-62578570D01*
X103063341Y-62660822D01*
X103143325Y-62740806D01*
X103143332Y-62740813D01*
X103143338Y-62740818D01*
X103325591Y-62880668D01*
X103327272Y-62881599D01*
X103524139Y-62995260D01*
X103524731Y-62995501D01*
X103615480Y-63033090D01*
X103615481Y-63033091D01*
X103675796Y-63058074D01*
X103736113Y-63083058D01*
X103957762Y-63142448D01*
X104185266Y-63172400D01*
X104185273Y-63172400D01*
X104414727Y-63172400D01*
X104414734Y-63172400D01*
X104642238Y-63142448D01*
X104863887Y-63083058D01*
X105075888Y-62995244D01*
X105274612Y-62880511D01*
X105451061Y-62745115D01*
X105451795Y-62744616D01*
X105456142Y-62741223D01*
X105456670Y-62740814D01*
X105457167Y-62740322D01*
X105460822Y-62736740D01*
X105461512Y-62735970D01*
X105614070Y-62583412D01*
X105614840Y-62582722D01*
X105618422Y-62579067D01*
X105618914Y-62578570D01*
X105619323Y-62578042D01*
X105622716Y-62573695D01*
X105623216Y-62572961D01*
X105698671Y-62474627D01*
X105758611Y-62396512D01*
X105873344Y-62197788D01*
X105961158Y-61985787D01*
X106020548Y-61764138D01*
X106050500Y-61536634D01*
X106050500Y-61385257D01*
X111399500Y-61385257D01*
X111399500Y-61614747D01*
X111419170Y-61764137D01*
X111419170Y-61764139D01*
X111429450Y-61842227D01*
X111429451Y-61842232D01*
X111429452Y-61842238D01*
X111467918Y-61985796D01*
X111488842Y-62063886D01*
X111488845Y-62063896D01*
X111576652Y-62275881D01*
X111576655Y-62275887D01*
X111576657Y-62275890D01*
X111691392Y-62474617D01*
X111691395Y-62474621D01*
X111691399Y-62474627D01*
X111831079Y-62656659D01*
X111831081Y-62656661D01*
X111831089Y-62656670D01*
X111914741Y-62740322D01*
X111993325Y-62818906D01*
X111993332Y-62818913D01*
X111993338Y-62818918D01*
X112175591Y-62958768D01*
X112177272Y-62959699D01*
X112374139Y-63073360D01*
X112374731Y-63073601D01*
X112465480Y-63111190D01*
X112465481Y-63111191D01*
X112525796Y-63136174D01*
X112586113Y-63161158D01*
X112807762Y-63220548D01*
X113035266Y-63250500D01*
X113035273Y-63250500D01*
X113264727Y-63250500D01*
X113264734Y-63250500D01*
X113492238Y-63220548D01*
X113713887Y-63161158D01*
X113925888Y-63073344D01*
X114124612Y-62958611D01*
X114301061Y-62823215D01*
X114301795Y-62822716D01*
X114306142Y-62819323D01*
X114306670Y-62818914D01*
X114307167Y-62818422D01*
X114310822Y-62814840D01*
X114311512Y-62814070D01*
X114464070Y-62661512D01*
X114464840Y-62660822D01*
X114468422Y-62657167D01*
X114468914Y-62656670D01*
X114469323Y-62656142D01*
X114472716Y-62651795D01*
X114473216Y-62651061D01*
X114528841Y-62578570D01*
X114608611Y-62474612D01*
X114723344Y-62275888D01*
X114811158Y-62063887D01*
X114870548Y-61842238D01*
X114900500Y-61614734D01*
X114900500Y-61385266D01*
X114900499Y-61385257D01*
X123999500Y-61385257D01*
X123999500Y-61614747D01*
X124019170Y-61764137D01*
X124019170Y-61764139D01*
X124029450Y-61842227D01*
X124029451Y-61842232D01*
X124029452Y-61842238D01*
X124067918Y-61985796D01*
X124088842Y-62063886D01*
X124088845Y-62063896D01*
X124176652Y-62275881D01*
X124176655Y-62275887D01*
X124176657Y-62275890D01*
X124291392Y-62474617D01*
X124291395Y-62474621D01*
X124291399Y-62474627D01*
X124431079Y-62656659D01*
X124431081Y-62656661D01*
X124431089Y-62656670D01*
X124514741Y-62740322D01*
X124593325Y-62818906D01*
X124593332Y-62818913D01*
X124593338Y-62818918D01*
X124775591Y-62958768D01*
X124777272Y-62959699D01*
X124974139Y-63073360D01*
X124974731Y-63073601D01*
X125065480Y-63111190D01*
X125065481Y-63111191D01*
X125125796Y-63136174D01*
X125186113Y-63161158D01*
X125407762Y-63220548D01*
X125635266Y-63250500D01*
X125635273Y-63250500D01*
X125864727Y-63250500D01*
X125864734Y-63250500D01*
X126092238Y-63220548D01*
X126313887Y-63161158D01*
X126525888Y-63073344D01*
X126724612Y-62958611D01*
X126901061Y-62823215D01*
X126901795Y-62822716D01*
X126906142Y-62819323D01*
X126906670Y-62818914D01*
X126907167Y-62818422D01*
X126910822Y-62814840D01*
X126911512Y-62814070D01*
X127064070Y-62661512D01*
X127064840Y-62660822D01*
X127068422Y-62657167D01*
X127068914Y-62656670D01*
X127069323Y-62656142D01*
X127072716Y-62651795D01*
X127073216Y-62651061D01*
X127128841Y-62578570D01*
X127208611Y-62474612D01*
X127323344Y-62275888D01*
X127411158Y-62063887D01*
X127470548Y-61842238D01*
X127500500Y-61614734D01*
X127500500Y-61385266D01*
X127470548Y-61157762D01*
X127411158Y-60936113D01*
X127349373Y-60786952D01*
X127340391Y-60765268D01*
X127323607Y-60724745D01*
X127323361Y-60724141D01*
X127209699Y-60527272D01*
X127208768Y-60525591D01*
X127068918Y-60343338D01*
X127068913Y-60343332D01*
X127068906Y-60343325D01*
X126990806Y-60265225D01*
X126906670Y-60181089D01*
X126906661Y-60181081D01*
X126906659Y-60181079D01*
X126724627Y-60041399D01*
X126724621Y-60041395D01*
X126724617Y-60041392D01*
X126525890Y-59926657D01*
X126525887Y-59926655D01*
X126525881Y-59926652D01*
X126313896Y-59838845D01*
X126313889Y-59838843D01*
X126313887Y-59838842D01*
X126092238Y-59779452D01*
X126054215Y-59774446D01*
X125950136Y-59760743D01*
X125864742Y-59749500D01*
X125864741Y-59749500D01*
X125864734Y-59749500D01*
X125635266Y-59749500D01*
X125635258Y-59749500D01*
X125635250Y-59749500D01*
X125471755Y-59771025D01*
X125418715Y-59778009D01*
X125418709Y-59778009D01*
X125407764Y-59779451D01*
X125407760Y-59779452D01*
X125314076Y-59804553D01*
X125314076Y-59804554D01*
X125257651Y-59819672D01*
X125186107Y-59838843D01*
X124974117Y-59926652D01*
X124775388Y-60041388D01*
X124775371Y-60041399D01*
X124593342Y-60181077D01*
X124593332Y-60181086D01*
X124431086Y-60343332D01*
X124431077Y-60343342D01*
X124291399Y-60525371D01*
X124291388Y-60525388D01*
X124176652Y-60724117D01*
X124088845Y-60936102D01*
X124088842Y-60936112D01*
X124029453Y-61157759D01*
X124029452Y-61157763D01*
X124029450Y-61157773D01*
X124029448Y-61157789D01*
X123999500Y-61385257D01*
X114900499Y-61385257D01*
X114870548Y-61157762D01*
X114811158Y-60936113D01*
X114749373Y-60786952D01*
X114740391Y-60765268D01*
X114723607Y-60724745D01*
X114723361Y-60724141D01*
X114609699Y-60527272D01*
X114608768Y-60525591D01*
X114468918Y-60343338D01*
X114468913Y-60343332D01*
X114468906Y-60343325D01*
X114390806Y-60265225D01*
X114306670Y-60181089D01*
X114306661Y-60181081D01*
X114306659Y-60181079D01*
X114124627Y-60041399D01*
X114124621Y-60041395D01*
X114124617Y-60041392D01*
X113925890Y-59926657D01*
X113925887Y-59926655D01*
X113925881Y-59926652D01*
X113713896Y-59838845D01*
X113713889Y-59838843D01*
X113713887Y-59838842D01*
X113492238Y-59779452D01*
X113454215Y-59774446D01*
X113350136Y-59760743D01*
X113264742Y-59749500D01*
X113264741Y-59749500D01*
X113264734Y-59749500D01*
X113035266Y-59749500D01*
X113035258Y-59749500D01*
X113035250Y-59749500D01*
X112871755Y-59771025D01*
X112818715Y-59778009D01*
X112818709Y-59778009D01*
X112807764Y-59779451D01*
X112807760Y-59779452D01*
X112714076Y-59804553D01*
X112714076Y-59804554D01*
X112657651Y-59819672D01*
X112586107Y-59838843D01*
X112374117Y-59926652D01*
X112175388Y-60041388D01*
X112175371Y-60041399D01*
X111993342Y-60181077D01*
X111993332Y-60181086D01*
X111831086Y-60343332D01*
X111831077Y-60343342D01*
X111691399Y-60525371D01*
X111691388Y-60525388D01*
X111576652Y-60724117D01*
X111488845Y-60936102D01*
X111488842Y-60936112D01*
X111429453Y-61157759D01*
X111429452Y-61157763D01*
X111429450Y-61157773D01*
X111429448Y-61157789D01*
X111399500Y-61385257D01*
X106050500Y-61385257D01*
X106050500Y-61307166D01*
X106020548Y-61079662D01*
X105961158Y-60858013D01*
X105961153Y-60858002D01*
X105908377Y-60730588D01*
X105873622Y-60646682D01*
X105873361Y-60646042D01*
X105759699Y-60449172D01*
X105758768Y-60447491D01*
X105618918Y-60265238D01*
X105618913Y-60265232D01*
X105618906Y-60265225D01*
X105456670Y-60102989D01*
X105456661Y-60102981D01*
X105456659Y-60102979D01*
X105274627Y-59963299D01*
X105274621Y-59963295D01*
X105274617Y-59963292D01*
X105075890Y-59848557D01*
X105075887Y-59848555D01*
X105075881Y-59848552D01*
X104863896Y-59760745D01*
X104863889Y-59760743D01*
X104863887Y-59760742D01*
X104642238Y-59701352D01*
X104604215Y-59696346D01*
X104414742Y-59671400D01*
X104414741Y-59671400D01*
X104414734Y-59671400D01*
X104185266Y-59671400D01*
X104185258Y-59671400D01*
X104185250Y-59671400D01*
X104021755Y-59692925D01*
X103968715Y-59699909D01*
X103968709Y-59699909D01*
X103957764Y-59701351D01*
X103957760Y-59701352D01*
X103864076Y-59726453D01*
X103864076Y-59726454D01*
X103807651Y-59741572D01*
X103736107Y-59760743D01*
X103524117Y-59848552D01*
X103325388Y-59963288D01*
X103325371Y-59963299D01*
X103143342Y-60102977D01*
X103143332Y-60102986D01*
X102981086Y-60265232D01*
X102981077Y-60265242D01*
X102841399Y-60447271D01*
X102841388Y-60447288D01*
X102726652Y-60646017D01*
X102638845Y-60858002D01*
X102638842Y-60858012D01*
X102579453Y-61079659D01*
X102579452Y-61079663D01*
X102579450Y-61079673D01*
X102579448Y-61079689D01*
X102549500Y-61307157D01*
X59850499Y-61307157D01*
X59820548Y-61079662D01*
X59761158Y-60858013D01*
X59761153Y-60858002D01*
X59708377Y-60730588D01*
X59673622Y-60646682D01*
X59673361Y-60646042D01*
X59559699Y-60449172D01*
X59558768Y-60447491D01*
X59418918Y-60265238D01*
X59418913Y-60265232D01*
X59418906Y-60265225D01*
X59256670Y-60102989D01*
X59256661Y-60102981D01*
X59256659Y-60102979D01*
X59074627Y-59963299D01*
X59074621Y-59963295D01*
X59074617Y-59963292D01*
X58875890Y-59848557D01*
X58875887Y-59848555D01*
X58875881Y-59848552D01*
X58663896Y-59760745D01*
X58663889Y-59760743D01*
X58663887Y-59760742D01*
X58442238Y-59701352D01*
X58404215Y-59696346D01*
X58214742Y-59671400D01*
X58214741Y-59671400D01*
X58214734Y-59671400D01*
X57985266Y-59671400D01*
X57985258Y-59671400D01*
X57985250Y-59671400D01*
X57821755Y-59692925D01*
X57768715Y-59699909D01*
X57768709Y-59699909D01*
X57757764Y-59701351D01*
X57757760Y-59701352D01*
X57664076Y-59726453D01*
X57664076Y-59726454D01*
X57607651Y-59741572D01*
X57536107Y-59760743D01*
X57324117Y-59848552D01*
X57125388Y-59963288D01*
X57125371Y-59963299D01*
X56943342Y-60102977D01*
X56943332Y-60102986D01*
X56781086Y-60265232D01*
X56781077Y-60265242D01*
X56641399Y-60447271D01*
X56641388Y-60447288D01*
X56526652Y-60646017D01*
X56438845Y-60858002D01*
X56438842Y-60858012D01*
X56379453Y-61079659D01*
X56379452Y-61079663D01*
X56379450Y-61079673D01*
X56379448Y-61079689D01*
X56349500Y-61307157D01*
X47750000Y-61307157D01*
X47750000Y-60871820D01*
X47755023Y-60836884D01*
X47759427Y-60821886D01*
X47797200Y-60763110D01*
X47801006Y-60759812D01*
X47849923Y-60733801D01*
X47851924Y-60733262D01*
X47872048Y-60729583D01*
X47977523Y-60719196D01*
X48290760Y-60656889D01*
X48596381Y-60564180D01*
X48891444Y-60441961D01*
X49173106Y-60291409D01*
X49438656Y-60113975D01*
X49685535Y-59911366D01*
X49911366Y-59685535D01*
X50113975Y-59438656D01*
X50291409Y-59173106D01*
X50441961Y-58891444D01*
X50564180Y-58596381D01*
X50656889Y-58290760D01*
X50691394Y-58117291D01*
X50703137Y-58084007D01*
X50710383Y-58070156D01*
X50758900Y-58019879D01*
X50758900Y-58019878D01*
X50765285Y-58016242D01*
X50826640Y-58000000D01*
X130165681Y-58000000D01*
X130200617Y-58005023D01*
G37*
%TD.AperFunction*%
M02*
