G04 #@! TF.GenerationSoftware,KiCad,Pcbnew,8.0.4*
G04 #@! TF.CreationDate,2024-09-02T14:28:07-04:00*
G04 #@! TF.ProjectId,360_atx_power_board,3336305f-6174-4785-9f70-6f7765725f62,rev?*
G04 #@! TF.SameCoordinates,Original*
G04 #@! TF.FileFunction,Paste,Top*
G04 #@! TF.FilePolarity,Positive*
%FSLAX46Y46*%
G04 Gerber Fmt 4.6, Leading zero omitted, Abs format (unit mm)*
G04 Created by KiCad (PCBNEW 8.0.4) date 2024-09-02 14:28:07*
%MOMM*%
%LPD*%
G01*
G04 APERTURE LIST*
G04 Aperture macros list*
%AMRoundRect*
0 Rectangle with rounded corners*
0 $1 Rounding radius*
0 $2 $3 $4 $5 $6 $7 $8 $9 X,Y pos of 4 corners*
0 Add a 4 corners polygon primitive as box body*
4,1,4,$2,$3,$4,$5,$6,$7,$8,$9,$2,$3,0*
0 Add four circle primitives for the rounded corners*
1,1,$1+$1,$2,$3*
1,1,$1+$1,$4,$5*
1,1,$1+$1,$6,$7*
1,1,$1+$1,$8,$9*
0 Add four rect primitives between the rounded corners*
20,1,$1+$1,$2,$3,$4,$5,0*
20,1,$1+$1,$4,$5,$6,$7,0*
20,1,$1+$1,$6,$7,$8,$9,0*
20,1,$1+$1,$8,$9,$2,$3,0*%
G04 Aperture macros list end*
%ADD10RoundRect,0.250000X-0.400000X-0.625000X0.400000X-0.625000X0.400000X0.625000X-0.400000X0.625000X0*%
%ADD11RoundRect,0.250001X-0.462499X-0.624999X0.462499X-0.624999X0.462499X0.624999X-0.462499X0.624999X0*%
%ADD12RoundRect,0.250000X0.550000X-1.500000X0.550000X1.500000X-0.550000X1.500000X-0.550000X-1.500000X0*%
%ADD13RoundRect,0.250000X-0.412500X-0.650000X0.412500X-0.650000X0.412500X0.650000X-0.412500X0.650000X0*%
%ADD14RoundRect,0.250000X0.400000X0.625000X-0.400000X0.625000X-0.400000X-0.625000X0.400000X-0.625000X0*%
%ADD15RoundRect,0.150000X0.150000X-0.512500X0.150000X0.512500X-0.150000X0.512500X-0.150000X-0.512500X0*%
G04 APERTURE END LIST*
D10*
X78200000Y-82500000D03*
X81300000Y-82500000D03*
D11*
X67762500Y-87500000D03*
X70737500Y-87500000D03*
X94112500Y-87500000D03*
X97087500Y-87500000D03*
X88762500Y-87500000D03*
X91737500Y-87500000D03*
X73000000Y-87500000D03*
X75975000Y-87500000D03*
D12*
X105800000Y-86950000D03*
X105800000Y-81550000D03*
D13*
X61837500Y-101200000D03*
X64962500Y-101200000D03*
D11*
X83512500Y-87500000D03*
X86487500Y-87500000D03*
D13*
X56637500Y-101200000D03*
X59762500Y-101200000D03*
D10*
X83450000Y-82500000D03*
X86550000Y-82500000D03*
X88700000Y-82500000D03*
X91800000Y-82500000D03*
D14*
X53050000Y-96000000D03*
X49950000Y-96000000D03*
D10*
X49950000Y-91200000D03*
X53050000Y-91200000D03*
X72937500Y-82500000D03*
X76037500Y-82500000D03*
D14*
X70800000Y-82500000D03*
X67700000Y-82500000D03*
D10*
X94050000Y-82500000D03*
X97150000Y-82500000D03*
D11*
X78262500Y-87500000D03*
X81237500Y-87500000D03*
D15*
X50300000Y-103675000D03*
X51250000Y-103675000D03*
X52200000Y-103675000D03*
X52200000Y-101400000D03*
X50300000Y-101400000D03*
D12*
X115800000Y-86900000D03*
X115800000Y-81500000D03*
M02*
