G04 #@! TF.GenerationSoftware,KiCad,Pcbnew,8.0.4*
G04 #@! TF.CreationDate,2024-09-02T14:28:06-04:00*
G04 #@! TF.ProjectId,360_atx_power_board,3336305f-6174-4785-9f70-6f7765725f62,rev?*
G04 #@! TF.SameCoordinates,Original*
G04 #@! TF.FileFunction,Copper,L2,Inr*
G04 #@! TF.FilePolarity,Positive*
%FSLAX46Y46*%
G04 Gerber Fmt 4.6, Leading zero omitted, Abs format (unit mm)*
G04 Created by KiCad (PCBNEW 8.0.4) date 2024-09-02 14:28:06*
%MOMM*%
%LPD*%
G01*
G04 APERTURE LIST*
G04 #@! TA.AperFunction,ComponentPad*
%ADD10R,2.150000X2.150000*%
G04 #@! TD*
G04 #@! TA.AperFunction,ComponentPad*
%ADD11C,2.150000*%
G04 #@! TD*
G04 #@! TA.AperFunction,ComponentPad*
%ADD12R,2.600000X2.600000*%
G04 #@! TD*
G04 #@! TA.AperFunction,ComponentPad*
%ADD13C,2.600000*%
G04 #@! TD*
G04 #@! TA.AperFunction,ComponentPad*
%ADD14C,5.500000*%
G04 #@! TD*
G04 #@! TA.AperFunction,ComponentPad*
%ADD15C,2.400000*%
G04 #@! TD*
G04 #@! TA.AperFunction,ComponentPad*
%ADD16R,2.775000X2.775000*%
G04 #@! TD*
G04 #@! TA.AperFunction,ComponentPad*
%ADD17C,2.775000*%
G04 #@! TD*
G04 #@! TA.AperFunction,ComponentPad*
%ADD18R,1.530000X1.530000*%
G04 #@! TD*
G04 #@! TA.AperFunction,ComponentPad*
%ADD19C,1.550000*%
G04 #@! TD*
G04 #@! TA.AperFunction,ViaPad*
%ADD20C,0.600000*%
G04 #@! TD*
G04 APERTURE END LIST*
D10*
X113150000Y-68800000D03*
D11*
X117350000Y-68800000D03*
X121550000Y-68800000D03*
X125750000Y-68800000D03*
X113150000Y-74300000D03*
X117350000Y-74300000D03*
X121550000Y-74300000D03*
X125750000Y-74300000D03*
D12*
X76430000Y-106250000D03*
D13*
X81510000Y-106250000D03*
X86590000Y-106250000D03*
X91670000Y-106250000D03*
X96750000Y-106250000D03*
X101830000Y-106250000D03*
D14*
X47500000Y-57500000D03*
X133500000Y-57500000D03*
D15*
X89015000Y-93550000D03*
X102485000Y-93550000D03*
X89015000Y-96950000D03*
X102485000Y-96950000D03*
X80485000Y-96950000D03*
X67015000Y-96950000D03*
X80485000Y-93550000D03*
X67015000Y-93550000D03*
D16*
X52000000Y-84500000D03*
D17*
X56700000Y-84500000D03*
X61400000Y-84500000D03*
D16*
X120250000Y-97000000D03*
D17*
X115550000Y-97000000D03*
X110850000Y-97000000D03*
D14*
X133500000Y-110250000D03*
D18*
X127745000Y-91348000D03*
D19*
X127745000Y-93888000D03*
X127745000Y-96428000D03*
X127745000Y-98968000D03*
D11*
X95900000Y-68721900D03*
X100100000Y-68721900D03*
D14*
X47500000Y-110250000D03*
D20*
X55000000Y-98000000D03*
X99675000Y-82925000D03*
X89000000Y-76500000D03*
X80400000Y-77400000D03*
X66378100Y-82500000D03*
X48200000Y-104600000D03*
X52200000Y-100000000D03*
X56000000Y-91200000D03*
G04 #@! TA.AperFunction,Conductor*
G36*
X98443039Y-78519685D02*
G01*
X98488794Y-78572489D01*
X98500000Y-78624000D01*
X98500000Y-105217314D01*
X98480315Y-105284353D01*
X98427511Y-105330108D01*
X98358353Y-105340052D01*
X98294797Y-105311027D01*
X98268613Y-105279314D01*
X98241815Y-105232898D01*
X98073561Y-105021915D01*
X98073560Y-105021914D01*
X98073557Y-105021910D01*
X97875741Y-104838365D01*
X97836038Y-104811296D01*
X97652775Y-104686349D01*
X97652769Y-104686346D01*
X97652768Y-104686345D01*
X97652767Y-104686344D01*
X97409643Y-104569263D01*
X97409645Y-104569263D01*
X97151773Y-104489720D01*
X97151767Y-104489718D01*
X96884936Y-104449500D01*
X96884929Y-104449500D01*
X96615071Y-104449500D01*
X96615063Y-104449500D01*
X96348232Y-104489718D01*
X96348226Y-104489720D01*
X96090358Y-104569262D01*
X95847230Y-104686346D01*
X95624258Y-104838365D01*
X95426442Y-105021910D01*
X95258185Y-105232898D01*
X95123258Y-105466599D01*
X95123256Y-105466603D01*
X95024666Y-105717804D01*
X95024664Y-105717811D01*
X94964616Y-105980898D01*
X94944451Y-106249995D01*
X94944451Y-106250004D01*
X94964616Y-106519101D01*
X95024664Y-106782188D01*
X95024666Y-106782195D01*
X95070901Y-106900000D01*
X95123257Y-107033398D01*
X95258185Y-107267102D01*
X95311655Y-107334151D01*
X95426442Y-107478089D01*
X95613183Y-107651358D01*
X95624259Y-107661635D01*
X95847226Y-107813651D01*
X96090359Y-107930738D01*
X96348228Y-108010280D01*
X96348229Y-108010280D01*
X96348232Y-108010281D01*
X96615063Y-108050499D01*
X96615068Y-108050499D01*
X96615071Y-108050500D01*
X96615072Y-108050500D01*
X96884928Y-108050500D01*
X96884929Y-108050500D01*
X96884936Y-108050499D01*
X97151767Y-108010281D01*
X97151768Y-108010280D01*
X97151772Y-108010280D01*
X97409641Y-107930738D01*
X97652775Y-107813651D01*
X97875741Y-107661635D01*
X98073561Y-107478085D01*
X98241815Y-107267102D01*
X98268614Y-107220683D01*
X98319179Y-107172470D01*
X98387786Y-107159246D01*
X98452651Y-107185214D01*
X98493180Y-107242127D01*
X98500000Y-107282685D01*
X98500000Y-109626000D01*
X98480315Y-109693039D01*
X98427511Y-109738794D01*
X98376000Y-109750000D01*
X71874000Y-109750000D01*
X71806961Y-109730315D01*
X71761206Y-109677511D01*
X71750000Y-109626000D01*
X71750000Y-104902135D01*
X74629500Y-104902135D01*
X74629500Y-107597870D01*
X74629501Y-107597876D01*
X74635908Y-107657483D01*
X74686202Y-107792328D01*
X74686206Y-107792335D01*
X74772452Y-107907544D01*
X74772455Y-107907547D01*
X74887664Y-107993793D01*
X74887671Y-107993797D01*
X75022517Y-108044091D01*
X75022516Y-108044091D01*
X75029444Y-108044835D01*
X75082127Y-108050500D01*
X77777872Y-108050499D01*
X77837483Y-108044091D01*
X77972331Y-107993796D01*
X78087546Y-107907546D01*
X78173796Y-107792331D01*
X78224091Y-107657483D01*
X78230500Y-107597873D01*
X78230499Y-106249995D01*
X79704953Y-106249995D01*
X79704953Y-106250004D01*
X79725113Y-106519026D01*
X79725113Y-106519028D01*
X79785142Y-106782033D01*
X79785148Y-106782052D01*
X79883709Y-107033181D01*
X79883708Y-107033181D01*
X80018602Y-107266822D01*
X80072294Y-107334151D01*
X80072295Y-107334151D01*
X80908958Y-106497488D01*
X80933978Y-106557890D01*
X81005112Y-106664351D01*
X81095649Y-106754888D01*
X81202110Y-106826022D01*
X81262510Y-106851041D01*
X80424848Y-107688702D01*
X80607483Y-107813220D01*
X80607485Y-107813221D01*
X80850539Y-107930269D01*
X80850537Y-107930269D01*
X81108337Y-108009790D01*
X81108343Y-108009792D01*
X81375101Y-108049999D01*
X81375110Y-108050000D01*
X81644890Y-108050000D01*
X81644898Y-108049999D01*
X81911656Y-108009792D01*
X81911662Y-108009790D01*
X82169461Y-107930269D01*
X82412521Y-107813218D01*
X82595150Y-107688702D01*
X81757488Y-106851041D01*
X81817890Y-106826022D01*
X81924351Y-106754888D01*
X82014888Y-106664351D01*
X82086022Y-106557890D01*
X82111041Y-106497488D01*
X82947703Y-107334151D01*
X82947704Y-107334150D01*
X83001393Y-107266828D01*
X83001400Y-107266817D01*
X83136290Y-107033181D01*
X83234851Y-106782052D01*
X83234857Y-106782033D01*
X83294886Y-106519028D01*
X83294886Y-106519026D01*
X83315047Y-106250004D01*
X83315047Y-106249995D01*
X84784451Y-106249995D01*
X84784451Y-106250004D01*
X84804616Y-106519101D01*
X84864664Y-106782188D01*
X84864666Y-106782195D01*
X84910901Y-106900000D01*
X84963257Y-107033398D01*
X85098185Y-107267102D01*
X85151655Y-107334151D01*
X85266442Y-107478089D01*
X85453183Y-107651358D01*
X85464259Y-107661635D01*
X85687226Y-107813651D01*
X85930359Y-107930738D01*
X86188228Y-108010280D01*
X86188229Y-108010280D01*
X86188232Y-108010281D01*
X86455063Y-108050499D01*
X86455068Y-108050499D01*
X86455071Y-108050500D01*
X86455072Y-108050500D01*
X86724928Y-108050500D01*
X86724929Y-108050500D01*
X86724936Y-108050499D01*
X86991767Y-108010281D01*
X86991768Y-108010280D01*
X86991772Y-108010280D01*
X87249641Y-107930738D01*
X87492775Y-107813651D01*
X87715741Y-107661635D01*
X87913561Y-107478085D01*
X88081815Y-107267102D01*
X88216743Y-107033398D01*
X88315334Y-106782195D01*
X88375383Y-106519103D01*
X88395549Y-106250000D01*
X88395549Y-106249995D01*
X89864451Y-106249995D01*
X89864451Y-106250004D01*
X89884616Y-106519101D01*
X89944664Y-106782188D01*
X89944666Y-106782195D01*
X89990901Y-106900000D01*
X90043257Y-107033398D01*
X90178185Y-107267102D01*
X90231655Y-107334151D01*
X90346442Y-107478089D01*
X90533183Y-107651358D01*
X90544259Y-107661635D01*
X90767226Y-107813651D01*
X91010359Y-107930738D01*
X91268228Y-108010280D01*
X91268229Y-108010280D01*
X91268232Y-108010281D01*
X91535063Y-108050499D01*
X91535068Y-108050499D01*
X91535071Y-108050500D01*
X91535072Y-108050500D01*
X91804928Y-108050500D01*
X91804929Y-108050500D01*
X91804936Y-108050499D01*
X92071767Y-108010281D01*
X92071768Y-108010280D01*
X92071772Y-108010280D01*
X92329641Y-107930738D01*
X92572775Y-107813651D01*
X92795741Y-107661635D01*
X92993561Y-107478085D01*
X93161815Y-107267102D01*
X93296743Y-107033398D01*
X93395334Y-106782195D01*
X93455383Y-106519103D01*
X93475549Y-106250000D01*
X93455383Y-105980897D01*
X93395334Y-105717805D01*
X93296743Y-105466602D01*
X93161815Y-105232898D01*
X92993561Y-105021915D01*
X92993560Y-105021914D01*
X92993557Y-105021910D01*
X92795741Y-104838365D01*
X92756038Y-104811296D01*
X92572775Y-104686349D01*
X92572769Y-104686346D01*
X92572768Y-104686345D01*
X92572767Y-104686344D01*
X92329643Y-104569263D01*
X92329645Y-104569263D01*
X92071773Y-104489720D01*
X92071767Y-104489718D01*
X91804936Y-104449500D01*
X91804929Y-104449500D01*
X91535071Y-104449500D01*
X91535063Y-104449500D01*
X91268232Y-104489718D01*
X91268226Y-104489720D01*
X91010358Y-104569262D01*
X90767230Y-104686346D01*
X90544258Y-104838365D01*
X90346442Y-105021910D01*
X90178185Y-105232898D01*
X90043258Y-105466599D01*
X90043256Y-105466603D01*
X89944666Y-105717804D01*
X89944664Y-105717811D01*
X89884616Y-105980898D01*
X89864451Y-106249995D01*
X88395549Y-106249995D01*
X88375383Y-105980897D01*
X88315334Y-105717805D01*
X88216743Y-105466602D01*
X88081815Y-105232898D01*
X87913561Y-105021915D01*
X87913560Y-105021914D01*
X87913557Y-105021910D01*
X87715741Y-104838365D01*
X87676038Y-104811296D01*
X87492775Y-104686349D01*
X87492769Y-104686346D01*
X87492768Y-104686345D01*
X87492767Y-104686344D01*
X87249643Y-104569263D01*
X87249645Y-104569263D01*
X86991773Y-104489720D01*
X86991767Y-104489718D01*
X86724936Y-104449500D01*
X86724929Y-104449500D01*
X86455071Y-104449500D01*
X86455063Y-104449500D01*
X86188232Y-104489718D01*
X86188226Y-104489720D01*
X85930358Y-104569262D01*
X85687230Y-104686346D01*
X85464258Y-104838365D01*
X85266442Y-105021910D01*
X85098185Y-105232898D01*
X84963258Y-105466599D01*
X84963256Y-105466603D01*
X84864666Y-105717804D01*
X84864664Y-105717811D01*
X84804616Y-105980898D01*
X84784451Y-106249995D01*
X83315047Y-106249995D01*
X83294886Y-105980973D01*
X83294886Y-105980971D01*
X83234857Y-105717966D01*
X83234851Y-105717947D01*
X83136290Y-105466818D01*
X83136291Y-105466818D01*
X83001397Y-105233177D01*
X82947704Y-105165847D01*
X82111041Y-106002510D01*
X82086022Y-105942110D01*
X82014888Y-105835649D01*
X81924351Y-105745112D01*
X81817890Y-105673978D01*
X81757488Y-105648958D01*
X82595150Y-104811296D01*
X82412517Y-104686779D01*
X82412516Y-104686778D01*
X82169460Y-104569730D01*
X82169462Y-104569730D01*
X81911662Y-104490209D01*
X81911656Y-104490207D01*
X81644898Y-104450000D01*
X81375101Y-104450000D01*
X81108343Y-104490207D01*
X81108337Y-104490209D01*
X80850538Y-104569730D01*
X80607485Y-104686778D01*
X80607476Y-104686783D01*
X80424848Y-104811296D01*
X81262511Y-105648958D01*
X81202110Y-105673978D01*
X81095649Y-105745112D01*
X81005112Y-105835649D01*
X80933978Y-105942110D01*
X80908958Y-106002511D01*
X80072295Y-105165848D01*
X80018600Y-105233180D01*
X79883709Y-105466818D01*
X79785148Y-105717947D01*
X79785142Y-105717966D01*
X79725113Y-105980971D01*
X79725113Y-105980973D01*
X79704953Y-106249995D01*
X78230499Y-106249995D01*
X78230499Y-104902128D01*
X78224091Y-104842517D01*
X78222542Y-104838365D01*
X78173797Y-104707671D01*
X78173793Y-104707664D01*
X78087547Y-104592455D01*
X78087544Y-104592452D01*
X77972335Y-104506206D01*
X77972328Y-104506202D01*
X77837482Y-104455908D01*
X77837483Y-104455908D01*
X77777883Y-104449501D01*
X77777881Y-104449500D01*
X77777873Y-104449500D01*
X77777864Y-104449500D01*
X75082129Y-104449500D01*
X75082123Y-104449501D01*
X75022516Y-104455908D01*
X74887671Y-104506202D01*
X74887664Y-104506206D01*
X74772455Y-104592452D01*
X74772452Y-104592455D01*
X74686206Y-104707664D01*
X74686202Y-104707671D01*
X74635908Y-104842517D01*
X74629501Y-104902116D01*
X74629501Y-104902123D01*
X74629500Y-104902135D01*
X71750000Y-104902135D01*
X71750000Y-93549995D01*
X78779732Y-93549995D01*
X78779732Y-93550004D01*
X78798777Y-93804154D01*
X78821464Y-93903553D01*
X78855492Y-94052637D01*
X78948607Y-94289888D01*
X79076041Y-94510612D01*
X79234950Y-94709877D01*
X79421783Y-94883232D01*
X79632366Y-95026805D01*
X79632371Y-95026807D01*
X79632372Y-95026808D01*
X79632374Y-95026809D01*
X79863846Y-95138280D01*
X79915706Y-95185102D01*
X79934019Y-95252529D01*
X79912971Y-95319153D01*
X79863846Y-95361720D01*
X79632374Y-95473190D01*
X79632372Y-95473191D01*
X79421782Y-95616768D01*
X79234952Y-95790121D01*
X79234950Y-95790123D01*
X79076041Y-95989388D01*
X78948608Y-96210109D01*
X78855492Y-96447362D01*
X78855490Y-96447369D01*
X78798777Y-96695845D01*
X78779732Y-96949995D01*
X78779732Y-96950004D01*
X78798777Y-97204154D01*
X78821464Y-97303553D01*
X78855492Y-97452637D01*
X78948607Y-97689888D01*
X79076041Y-97910612D01*
X79234950Y-98109877D01*
X79421783Y-98283232D01*
X79632366Y-98426805D01*
X79632371Y-98426807D01*
X79632372Y-98426808D01*
X79632373Y-98426809D01*
X79754328Y-98485538D01*
X79861992Y-98537387D01*
X79861993Y-98537387D01*
X79861996Y-98537389D01*
X80105542Y-98612513D01*
X80357565Y-98650500D01*
X80612435Y-98650500D01*
X80864458Y-98612513D01*
X81108004Y-98537389D01*
X81337634Y-98426805D01*
X81548217Y-98283232D01*
X81735050Y-98109877D01*
X81893959Y-97910612D01*
X82021393Y-97689888D01*
X82114508Y-97452637D01*
X82171222Y-97204157D01*
X82179384Y-97095232D01*
X82190268Y-96950004D01*
X82190268Y-96949995D01*
X82171222Y-96695845D01*
X82142740Y-96571058D01*
X82114508Y-96447363D01*
X82021393Y-96210112D01*
X81893959Y-95989388D01*
X81735050Y-95790123D01*
X81548217Y-95616768D01*
X81337634Y-95473195D01*
X81337630Y-95473193D01*
X81337627Y-95473191D01*
X81337626Y-95473190D01*
X81165407Y-95390255D01*
X81108004Y-95362611D01*
X81108001Y-95362610D01*
X81106153Y-95361720D01*
X81054293Y-95314898D01*
X81035980Y-95247471D01*
X81057028Y-95180847D01*
X81106153Y-95138280D01*
X81108001Y-95137389D01*
X81108004Y-95137389D01*
X81337634Y-95026805D01*
X81548217Y-94883232D01*
X81735050Y-94709877D01*
X81893959Y-94510612D01*
X82021393Y-94289888D01*
X82114508Y-94052637D01*
X82171222Y-93804157D01*
X82179384Y-93695232D01*
X82190268Y-93550004D01*
X82190268Y-93549995D01*
X87310233Y-93549995D01*
X87310233Y-93550004D01*
X87329273Y-93804079D01*
X87385968Y-94052477D01*
X87385973Y-94052494D01*
X87479058Y-94289671D01*
X87479057Y-94289671D01*
X87606454Y-94510327D01*
X87606461Y-94510338D01*
X87648452Y-94562991D01*
X87648453Y-94562992D01*
X88299152Y-93912292D01*
X88306049Y-93928942D01*
X88393599Y-94059970D01*
X88505030Y-94171401D01*
X88636058Y-94258951D01*
X88652705Y-94265846D01*
X88001813Y-94916738D01*
X88162616Y-95026371D01*
X88162625Y-95026376D01*
X88394996Y-95138280D01*
X88446856Y-95185102D01*
X88465169Y-95252529D01*
X88444121Y-95319153D01*
X88394996Y-95361720D01*
X88162622Y-95473625D01*
X88162609Y-95473632D01*
X88001813Y-95583259D01*
X88652706Y-96234152D01*
X88636058Y-96241049D01*
X88505030Y-96328599D01*
X88393599Y-96440030D01*
X88306049Y-96571058D01*
X88299152Y-96587706D01*
X87648452Y-95937006D01*
X87606457Y-95989667D01*
X87479058Y-96210328D01*
X87385973Y-96447505D01*
X87385968Y-96447522D01*
X87329273Y-96695920D01*
X87310233Y-96949995D01*
X87310233Y-96950004D01*
X87329273Y-97204079D01*
X87385968Y-97452477D01*
X87385973Y-97452494D01*
X87479058Y-97689671D01*
X87479057Y-97689671D01*
X87606454Y-97910327D01*
X87606461Y-97910338D01*
X87648452Y-97962991D01*
X87648453Y-97962992D01*
X88299152Y-97312292D01*
X88306049Y-97328942D01*
X88393599Y-97459970D01*
X88505030Y-97571401D01*
X88636058Y-97658951D01*
X88652705Y-97665846D01*
X88001813Y-98316738D01*
X88162616Y-98426371D01*
X88162624Y-98426376D01*
X88392176Y-98536921D01*
X88392174Y-98536921D01*
X88635652Y-98612024D01*
X88635658Y-98612026D01*
X88887595Y-98649999D01*
X88887604Y-98650000D01*
X89142396Y-98650000D01*
X89142404Y-98649999D01*
X89394341Y-98612026D01*
X89394347Y-98612024D01*
X89637824Y-98536921D01*
X89867376Y-98426376D01*
X89867377Y-98426375D01*
X90028185Y-98316738D01*
X89377294Y-97665846D01*
X89393942Y-97658951D01*
X89524970Y-97571401D01*
X89636401Y-97459970D01*
X89723951Y-97328942D01*
X89730846Y-97312294D01*
X90381544Y-97962992D01*
X90381546Y-97962991D01*
X90423544Y-97910330D01*
X90550941Y-97689671D01*
X90644026Y-97452494D01*
X90644031Y-97452477D01*
X90700726Y-97204079D01*
X90719767Y-96950004D01*
X90719767Y-96949995D01*
X90700726Y-96695920D01*
X90644031Y-96447522D01*
X90644026Y-96447505D01*
X90550941Y-96210328D01*
X90550942Y-96210328D01*
X90423545Y-95989672D01*
X90381545Y-95937006D01*
X89730846Y-96587705D01*
X89723951Y-96571058D01*
X89636401Y-96440030D01*
X89524970Y-96328599D01*
X89393942Y-96241049D01*
X89377293Y-96234152D01*
X90028185Y-95583260D01*
X89867384Y-95473628D01*
X89867376Y-95473623D01*
X89635003Y-95361720D01*
X89583143Y-95314898D01*
X89564830Y-95247471D01*
X89585877Y-95180847D01*
X89635003Y-95138280D01*
X89867376Y-95026376D01*
X89867377Y-95026375D01*
X90028185Y-94916738D01*
X89377294Y-94265846D01*
X89393942Y-94258951D01*
X89524970Y-94171401D01*
X89636401Y-94059970D01*
X89723951Y-93928942D01*
X89730846Y-93912294D01*
X90381544Y-94562992D01*
X90381546Y-94562991D01*
X90423544Y-94510330D01*
X90550941Y-94289671D01*
X90644026Y-94052494D01*
X90644031Y-94052477D01*
X90700726Y-93804079D01*
X90719767Y-93550004D01*
X90719767Y-93549995D01*
X90700726Y-93295920D01*
X90644031Y-93047522D01*
X90644026Y-93047505D01*
X90550941Y-92810328D01*
X90550942Y-92810328D01*
X90423545Y-92589672D01*
X90381545Y-92537006D01*
X89730846Y-93187705D01*
X89723951Y-93171058D01*
X89636401Y-93040030D01*
X89524970Y-92928599D01*
X89393942Y-92841049D01*
X89377293Y-92834152D01*
X90028185Y-92183260D01*
X89867384Y-92073628D01*
X89867376Y-92073623D01*
X89637823Y-91963078D01*
X89637825Y-91963078D01*
X89394347Y-91887975D01*
X89394341Y-91887973D01*
X89142404Y-91850000D01*
X88887595Y-91850000D01*
X88635658Y-91887973D01*
X88635652Y-91887975D01*
X88392175Y-91963078D01*
X88162622Y-92073625D01*
X88162609Y-92073632D01*
X88001813Y-92183259D01*
X88652706Y-92834152D01*
X88636058Y-92841049D01*
X88505030Y-92928599D01*
X88393599Y-93040030D01*
X88306049Y-93171058D01*
X88299152Y-93187706D01*
X87648452Y-92537006D01*
X87606457Y-92589667D01*
X87479058Y-92810328D01*
X87385973Y-93047505D01*
X87385968Y-93047522D01*
X87329273Y-93295920D01*
X87310233Y-93549995D01*
X82190268Y-93549995D01*
X82171222Y-93295845D01*
X82142740Y-93171058D01*
X82114508Y-93047363D01*
X82021393Y-92810112D01*
X81893959Y-92589388D01*
X81735050Y-92390123D01*
X81548217Y-92216768D01*
X81337634Y-92073195D01*
X81337630Y-92073193D01*
X81337627Y-92073191D01*
X81337626Y-92073190D01*
X81108006Y-91962612D01*
X81108008Y-91962612D01*
X80864466Y-91887489D01*
X80864462Y-91887488D01*
X80864458Y-91887487D01*
X80743231Y-91869214D01*
X80612440Y-91849500D01*
X80612435Y-91849500D01*
X80357565Y-91849500D01*
X80357559Y-91849500D01*
X80200609Y-91873157D01*
X80105542Y-91887487D01*
X80105539Y-91887488D01*
X80105533Y-91887489D01*
X79861992Y-91962612D01*
X79632373Y-92073190D01*
X79632372Y-92073191D01*
X79421782Y-92216768D01*
X79234952Y-92390121D01*
X79234950Y-92390123D01*
X79076041Y-92589388D01*
X78948608Y-92810109D01*
X78855492Y-93047362D01*
X78855490Y-93047369D01*
X78798777Y-93295845D01*
X78779732Y-93549995D01*
X71750000Y-93549995D01*
X71750000Y-78624000D01*
X71769685Y-78556961D01*
X71822489Y-78511206D01*
X71874000Y-78500000D01*
X98376000Y-78500000D01*
X98443039Y-78519685D01*
G37*
G04 #@! TD.AperFunction*
G04 #@! TA.AperFunction,Conductor*
G36*
X130249791Y-58019685D02*
G01*
X130295546Y-58072489D01*
X130305119Y-58103939D01*
X130320833Y-58199793D01*
X130320834Y-58199796D01*
X130415126Y-58539408D01*
X130415127Y-58539410D01*
X130545588Y-58866844D01*
X130545597Y-58866862D01*
X130710695Y-59178269D01*
X130908498Y-59470006D01*
X130908505Y-59470016D01*
X131136685Y-59738649D01*
X131136686Y-59738650D01*
X131392580Y-59981046D01*
X131673182Y-60194354D01*
X131975202Y-60376074D01*
X131975206Y-60376075D01*
X131975210Y-60376078D01*
X132295088Y-60524070D01*
X132295092Y-60524070D01*
X132295099Y-60524074D01*
X132629122Y-60636619D01*
X132902658Y-60696829D01*
X132963897Y-60730464D01*
X132997231Y-60791869D01*
X133000000Y-60817929D01*
X133000000Y-106932070D01*
X132980315Y-106999109D01*
X132927511Y-107044864D01*
X132902657Y-107053171D01*
X132629117Y-107113382D01*
X132295093Y-107225928D01*
X132295088Y-107225929D01*
X131975210Y-107373921D01*
X131975197Y-107373928D01*
X131673184Y-107555644D01*
X131392589Y-107768946D01*
X131392580Y-107768954D01*
X131136685Y-108011350D01*
X130908505Y-108279983D01*
X130908498Y-108279993D01*
X130710695Y-108571730D01*
X130545597Y-108883137D01*
X130545588Y-108883155D01*
X130415127Y-109210589D01*
X130415126Y-109210591D01*
X130320834Y-109550203D01*
X130320833Y-109550206D01*
X130320832Y-109550211D01*
X130320832Y-109550212D01*
X130308408Y-109626000D01*
X130305119Y-109646061D01*
X130274848Y-109709033D01*
X130215337Y-109745642D01*
X130182752Y-109750000D01*
X110444500Y-109750000D01*
X110377461Y-109730315D01*
X110331706Y-109677511D01*
X110320500Y-109626000D01*
X110320500Y-109476534D01*
X110320499Y-109476530D01*
X110280618Y-109276034D01*
X110280130Y-109273580D01*
X110200941Y-109082402D01*
X110085977Y-108910345D01*
X110085975Y-108910342D01*
X109939657Y-108764024D01*
X109853626Y-108706541D01*
X109767598Y-108649059D01*
X109576420Y-108569870D01*
X109576412Y-108569868D01*
X109373469Y-108529500D01*
X109373465Y-108529500D01*
X109166535Y-108529500D01*
X109166530Y-108529500D01*
X108963587Y-108569868D01*
X108963579Y-108569870D01*
X108772403Y-108649058D01*
X108600342Y-108764024D01*
X108454024Y-108910342D01*
X108339058Y-109082403D01*
X108259870Y-109273579D01*
X108259868Y-109273587D01*
X108219500Y-109476530D01*
X108219500Y-109626000D01*
X108199815Y-109693039D01*
X108147011Y-109738794D01*
X108095500Y-109750000D01*
X99129500Y-109750000D01*
X99062461Y-109730315D01*
X99016706Y-109677511D01*
X99005500Y-109626000D01*
X99005500Y-107282694D01*
X99005499Y-107282673D01*
X99000761Y-107225928D01*
X98998501Y-107198860D01*
X98991681Y-107158302D01*
X98970875Y-107076786D01*
X98904943Y-106948901D01*
X98864414Y-106891988D01*
X98765130Y-106787864D01*
X98765128Y-106787863D01*
X98765129Y-106787863D01*
X98640527Y-106715923D01*
X98640524Y-106715922D01*
X98601410Y-106700263D01*
X98546489Y-106657072D01*
X98523637Y-106591045D01*
X98526605Y-106557560D01*
X98535383Y-106519103D01*
X98555549Y-106250000D01*
X98555549Y-106249995D01*
X100024451Y-106249995D01*
X100024451Y-106250004D01*
X100044616Y-106519101D01*
X100104664Y-106782188D01*
X100104666Y-106782195D01*
X100203256Y-107033396D01*
X100203258Y-107033400D01*
X100205688Y-107037609D01*
X100338185Y-107267102D01*
X100474080Y-107437509D01*
X100506442Y-107478089D01*
X100663392Y-107623716D01*
X100704259Y-107661635D01*
X100927226Y-107813651D01*
X101170359Y-107930738D01*
X101428228Y-108010280D01*
X101428229Y-108010280D01*
X101428232Y-108010281D01*
X101695063Y-108050499D01*
X101695068Y-108050499D01*
X101695071Y-108050500D01*
X101695072Y-108050500D01*
X101964928Y-108050500D01*
X101964929Y-108050500D01*
X101964936Y-108050499D01*
X102231767Y-108010281D01*
X102231768Y-108010280D01*
X102231772Y-108010280D01*
X102489641Y-107930738D01*
X102732775Y-107813651D01*
X102955741Y-107661635D01*
X103153561Y-107478085D01*
X103321815Y-107267102D01*
X103452936Y-107039992D01*
X123674671Y-107039992D01*
X123674671Y-107040007D01*
X123693964Y-107334363D01*
X123693965Y-107334373D01*
X123693966Y-107334380D01*
X123701832Y-107373928D01*
X123751518Y-107623716D01*
X123751521Y-107623730D01*
X123846349Y-107903080D01*
X123976825Y-108167660D01*
X123976829Y-108167667D01*
X124140725Y-108412955D01*
X124335241Y-108634758D01*
X124557044Y-108829274D01*
X124802332Y-108993170D01*
X124802339Y-108993174D01*
X124934629Y-109058412D01*
X125066923Y-109123652D01*
X125346278Y-109218481D01*
X125635620Y-109276034D01*
X125663888Y-109277886D01*
X125929993Y-109295329D01*
X125930000Y-109295329D01*
X125930007Y-109295329D01*
X126165675Y-109279881D01*
X126224380Y-109276034D01*
X126513722Y-109218481D01*
X126793077Y-109123652D01*
X127057665Y-108993172D01*
X127302957Y-108829273D01*
X127524758Y-108634758D01*
X127719273Y-108412957D01*
X127883172Y-108167665D01*
X128013652Y-107903077D01*
X128108481Y-107623722D01*
X128166034Y-107334380D01*
X128173142Y-107225929D01*
X128185329Y-107040007D01*
X128185329Y-107039992D01*
X128166035Y-106745636D01*
X128166034Y-106745620D01*
X128108481Y-106456278D01*
X128013652Y-106176923D01*
X127883172Y-105912336D01*
X127857553Y-105873995D01*
X127801381Y-105789927D01*
X127719273Y-105667043D01*
X127617067Y-105550500D01*
X127524758Y-105445241D01*
X127302955Y-105250725D01*
X127057667Y-105086829D01*
X127057660Y-105086825D01*
X126793080Y-104956349D01*
X126513730Y-104861521D01*
X126513724Y-104861519D01*
X126513722Y-104861519D01*
X126224380Y-104803966D01*
X126224373Y-104803965D01*
X126224363Y-104803964D01*
X125930007Y-104784671D01*
X125929993Y-104784671D01*
X125635636Y-104803964D01*
X125635624Y-104803965D01*
X125635620Y-104803966D01*
X125635612Y-104803967D01*
X125635609Y-104803968D01*
X125346283Y-104861518D01*
X125346269Y-104861521D01*
X125066919Y-104956349D01*
X124802334Y-105086828D01*
X124557041Y-105250728D01*
X124335241Y-105445241D01*
X124140728Y-105667041D01*
X123976828Y-105912334D01*
X123846349Y-106176919D01*
X123751521Y-106456269D01*
X123751518Y-106456283D01*
X123693968Y-106745609D01*
X123693964Y-106745636D01*
X123674671Y-107039992D01*
X103452936Y-107039992D01*
X103456743Y-107033398D01*
X103555334Y-106782195D01*
X103615383Y-106519103D01*
X103635549Y-106250000D01*
X103630072Y-106176919D01*
X103615383Y-105980898D01*
X103555335Y-105717811D01*
X103555334Y-105717805D01*
X103456743Y-105466602D01*
X103321815Y-105232898D01*
X103153561Y-105021915D01*
X103153560Y-105021914D01*
X103153557Y-105021910D01*
X102955741Y-104838365D01*
X102908886Y-104806420D01*
X102732775Y-104686349D01*
X102732769Y-104686346D01*
X102732768Y-104686345D01*
X102732767Y-104686344D01*
X102489643Y-104569263D01*
X102489645Y-104569263D01*
X102231773Y-104489720D01*
X102231767Y-104489718D01*
X101964936Y-104449500D01*
X101964929Y-104449500D01*
X101695071Y-104449500D01*
X101695063Y-104449500D01*
X101428232Y-104489718D01*
X101428226Y-104489720D01*
X101170358Y-104569262D01*
X100927230Y-104686346D01*
X100704258Y-104838365D01*
X100506442Y-105021910D01*
X100338185Y-105232898D01*
X100203258Y-105466599D01*
X100203256Y-105466603D01*
X100104666Y-105717804D01*
X100104664Y-105717811D01*
X100044616Y-105980898D01*
X100024451Y-106249995D01*
X98555549Y-106249995D01*
X98550072Y-106176919D01*
X98535383Y-105980899D01*
X98526901Y-105943734D01*
X98531174Y-105873995D01*
X98572472Y-105817637D01*
X98612857Y-105797163D01*
X98637504Y-105789927D01*
X98758543Y-105712139D01*
X98811347Y-105666384D01*
X98905567Y-105557650D01*
X98965338Y-105426773D01*
X98985023Y-105359734D01*
X98985024Y-105359730D01*
X99005500Y-105217314D01*
X99005500Y-104396530D01*
X108219500Y-104396530D01*
X108219500Y-104603469D01*
X108259868Y-104806412D01*
X108259870Y-104806420D01*
X108339058Y-104997596D01*
X108454024Y-105169657D01*
X108600342Y-105315975D01*
X108600345Y-105315977D01*
X108772402Y-105430941D01*
X108963580Y-105510130D01*
X109166530Y-105550499D01*
X109166534Y-105550500D01*
X109166535Y-105550500D01*
X109373466Y-105550500D01*
X109373467Y-105550499D01*
X109576420Y-105510130D01*
X109767598Y-105430941D01*
X109939655Y-105315977D01*
X110085977Y-105169655D01*
X110200941Y-104997598D01*
X110280130Y-104806420D01*
X110320500Y-104603465D01*
X110320500Y-104396535D01*
X110280130Y-104193580D01*
X110200941Y-104002402D01*
X110085977Y-103830345D01*
X110085975Y-103830342D01*
X109939657Y-103684024D01*
X109853626Y-103626541D01*
X109767598Y-103569059D01*
X109576420Y-103489870D01*
X109576412Y-103489868D01*
X109373469Y-103449500D01*
X109373465Y-103449500D01*
X109166535Y-103449500D01*
X109166530Y-103449500D01*
X108963587Y-103489868D01*
X108963579Y-103489870D01*
X108772403Y-103569058D01*
X108600342Y-103684024D01*
X108454024Y-103830342D01*
X108339058Y-104002403D01*
X108259870Y-104193579D01*
X108259868Y-104193587D01*
X108219500Y-104396530D01*
X99005500Y-104396530D01*
X99005500Y-93549995D01*
X100780233Y-93549995D01*
X100780233Y-93550004D01*
X100799273Y-93804079D01*
X100855968Y-94052477D01*
X100855973Y-94052494D01*
X100949058Y-94289671D01*
X100949057Y-94289671D01*
X101076454Y-94510327D01*
X101076461Y-94510338D01*
X101118452Y-94562991D01*
X101118453Y-94562992D01*
X101769152Y-93912292D01*
X101776049Y-93928942D01*
X101863599Y-94059970D01*
X101975030Y-94171401D01*
X102106058Y-94258951D01*
X102122705Y-94265846D01*
X101471813Y-94916738D01*
X101632616Y-95026371D01*
X101632625Y-95026376D01*
X101864996Y-95138280D01*
X101916856Y-95185102D01*
X101935169Y-95252529D01*
X101914121Y-95319153D01*
X101864996Y-95361720D01*
X101632622Y-95473625D01*
X101632609Y-95473632D01*
X101471813Y-95583259D01*
X102122706Y-96234152D01*
X102106058Y-96241049D01*
X101975030Y-96328599D01*
X101863599Y-96440030D01*
X101776049Y-96571058D01*
X101769152Y-96587706D01*
X101118452Y-95937006D01*
X101076457Y-95989667D01*
X100949058Y-96210328D01*
X100855973Y-96447505D01*
X100855968Y-96447522D01*
X100799273Y-96695920D01*
X100780233Y-96949995D01*
X100780233Y-96950004D01*
X100799273Y-97204079D01*
X100855968Y-97452477D01*
X100855973Y-97452494D01*
X100949058Y-97689671D01*
X100949057Y-97689671D01*
X101076454Y-97910327D01*
X101076461Y-97910338D01*
X101118452Y-97962991D01*
X101118453Y-97962992D01*
X101769152Y-97312292D01*
X101776049Y-97328942D01*
X101863599Y-97459970D01*
X101975030Y-97571401D01*
X102106058Y-97658951D01*
X102122705Y-97665846D01*
X101471813Y-98316738D01*
X101632616Y-98426371D01*
X101632624Y-98426376D01*
X101862176Y-98536921D01*
X101862174Y-98536921D01*
X102105652Y-98612024D01*
X102105658Y-98612026D01*
X102357595Y-98649999D01*
X102357604Y-98650000D01*
X102612396Y-98650000D01*
X102612404Y-98649999D01*
X102864341Y-98612026D01*
X102864347Y-98612024D01*
X103107824Y-98536921D01*
X103337376Y-98426376D01*
X103337377Y-98426375D01*
X103498185Y-98316738D01*
X102847294Y-97665846D01*
X102863942Y-97658951D01*
X102994970Y-97571401D01*
X103106401Y-97459970D01*
X103193951Y-97328942D01*
X103200846Y-97312294D01*
X103851544Y-97962992D01*
X103851546Y-97962991D01*
X103893544Y-97910330D01*
X104020941Y-97689671D01*
X104114026Y-97452494D01*
X104114031Y-97452477D01*
X104170726Y-97204079D01*
X104186020Y-96999998D01*
X108957177Y-96999998D01*
X108957177Y-97000001D01*
X108976443Y-97269382D01*
X109016309Y-97452637D01*
X109033850Y-97533270D01*
X109092185Y-97689671D01*
X109128228Y-97786308D01*
X109128230Y-97786312D01*
X109257652Y-98023331D01*
X109257657Y-98023339D01*
X109419493Y-98239527D01*
X109419509Y-98239545D01*
X109610454Y-98430490D01*
X109610472Y-98430506D01*
X109826660Y-98592342D01*
X109826668Y-98592347D01*
X110063687Y-98721769D01*
X110063691Y-98721771D01*
X110063693Y-98721772D01*
X110316730Y-98816150D01*
X110448676Y-98844853D01*
X110580617Y-98873556D01*
X110580619Y-98873556D01*
X110580623Y-98873557D01*
X110820007Y-98890677D01*
X110849999Y-98892823D01*
X110850000Y-98892823D01*
X110850001Y-98892823D01*
X110876987Y-98890892D01*
X111119377Y-98873557D01*
X111383270Y-98816150D01*
X111636307Y-98721772D01*
X111873337Y-98592344D01*
X112089535Y-98430500D01*
X112280500Y-98239535D01*
X112442344Y-98023337D01*
X112571772Y-97786307D01*
X112666150Y-97533270D01*
X112723557Y-97269377D01*
X112742677Y-97002038D01*
X112742823Y-97000001D01*
X112742823Y-96999998D01*
X113657177Y-96999998D01*
X113657177Y-97000001D01*
X113676443Y-97269382D01*
X113716309Y-97452637D01*
X113733850Y-97533270D01*
X113792185Y-97689671D01*
X113828228Y-97786308D01*
X113828230Y-97786312D01*
X113957652Y-98023331D01*
X113957657Y-98023339D01*
X114119493Y-98239527D01*
X114119509Y-98239545D01*
X114310454Y-98430490D01*
X114310472Y-98430506D01*
X114526660Y-98592342D01*
X114526668Y-98592347D01*
X114763687Y-98721769D01*
X114763691Y-98721771D01*
X114763693Y-98721772D01*
X115016730Y-98816150D01*
X115148676Y-98844853D01*
X115280617Y-98873556D01*
X115280619Y-98873556D01*
X115280623Y-98873557D01*
X115520007Y-98890677D01*
X115549999Y-98892823D01*
X115550000Y-98892823D01*
X115550001Y-98892823D01*
X115576987Y-98890892D01*
X115819377Y-98873557D01*
X116083270Y-98816150D01*
X116336307Y-98721772D01*
X116573337Y-98592344D01*
X116789535Y-98430500D01*
X116980500Y-98239535D01*
X117142344Y-98023337D01*
X117271772Y-97786307D01*
X117366150Y-97533270D01*
X117423557Y-97269377D01*
X117442677Y-97002038D01*
X117442823Y-97000001D01*
X117442823Y-96999998D01*
X117435841Y-96902379D01*
X117423557Y-96730623D01*
X117415991Y-96695845D01*
X117366151Y-96466736D01*
X117366150Y-96466730D01*
X117271772Y-96213693D01*
X117158981Y-96007132D01*
X117142347Y-95976668D01*
X117142342Y-95976660D01*
X116980506Y-95760472D01*
X116980490Y-95760454D01*
X116789545Y-95569509D01*
X116789527Y-95569493D01*
X116783037Y-95564635D01*
X118362000Y-95564635D01*
X118362000Y-98435370D01*
X118362001Y-98435376D01*
X118368408Y-98494983D01*
X118418702Y-98629828D01*
X118418706Y-98629835D01*
X118504952Y-98745044D01*
X118504955Y-98745047D01*
X118620164Y-98831293D01*
X118620171Y-98831297D01*
X118755017Y-98881591D01*
X118755016Y-98881591D01*
X118761944Y-98882335D01*
X118814627Y-98888000D01*
X121685372Y-98887999D01*
X121744983Y-98881591D01*
X121879831Y-98831296D01*
X121995046Y-98745046D01*
X122081296Y-98629831D01*
X122131591Y-98494983D01*
X122138000Y-98435373D01*
X122137999Y-95564628D01*
X122131591Y-95505017D01*
X122119885Y-95473632D01*
X122081297Y-95370171D01*
X122081293Y-95370164D01*
X121995047Y-95254955D01*
X121995044Y-95254952D01*
X121879835Y-95168706D01*
X121879828Y-95168702D01*
X121744982Y-95118408D01*
X121744983Y-95118408D01*
X121685383Y-95112001D01*
X121685381Y-95112000D01*
X121685373Y-95112000D01*
X121685364Y-95112000D01*
X118814629Y-95112000D01*
X118814623Y-95112001D01*
X118755016Y-95118408D01*
X118620171Y-95168702D01*
X118620164Y-95168706D01*
X118504955Y-95254952D01*
X118504952Y-95254955D01*
X118418706Y-95370164D01*
X118418702Y-95370171D01*
X118368408Y-95505017D01*
X118362271Y-95562103D01*
X118362001Y-95564623D01*
X118362000Y-95564635D01*
X116783037Y-95564635D01*
X116573339Y-95407657D01*
X116573331Y-95407652D01*
X116336312Y-95278230D01*
X116336308Y-95278228D01*
X116160118Y-95212513D01*
X116083270Y-95183850D01*
X116083266Y-95183849D01*
X116083263Y-95183848D01*
X115819382Y-95126443D01*
X115550001Y-95107177D01*
X115549999Y-95107177D01*
X115280617Y-95126443D01*
X115016736Y-95183848D01*
X115016731Y-95183849D01*
X115016730Y-95183850D01*
X114955551Y-95206668D01*
X114763691Y-95278228D01*
X114763687Y-95278230D01*
X114526668Y-95407652D01*
X114526660Y-95407657D01*
X114310472Y-95569493D01*
X114310454Y-95569509D01*
X114119509Y-95760454D01*
X114119493Y-95760472D01*
X113957657Y-95976660D01*
X113957652Y-95976668D01*
X113828230Y-96213687D01*
X113828228Y-96213691D01*
X113733848Y-96466736D01*
X113676443Y-96730617D01*
X113657177Y-96999998D01*
X112742823Y-96999998D01*
X112735841Y-96902379D01*
X112723557Y-96730623D01*
X112715991Y-96695845D01*
X112666151Y-96466736D01*
X112666150Y-96466730D01*
X112571772Y-96213693D01*
X112458981Y-96007132D01*
X112442347Y-95976668D01*
X112442342Y-95976660D01*
X112280506Y-95760472D01*
X112280490Y-95760454D01*
X112089545Y-95569509D01*
X112089527Y-95569493D01*
X111873339Y-95407657D01*
X111873331Y-95407652D01*
X111636312Y-95278230D01*
X111636308Y-95278228D01*
X111460118Y-95212513D01*
X111383270Y-95183850D01*
X111383266Y-95183849D01*
X111383263Y-95183848D01*
X111119382Y-95126443D01*
X110850001Y-95107177D01*
X110849999Y-95107177D01*
X110580617Y-95126443D01*
X110316736Y-95183848D01*
X110316731Y-95183849D01*
X110316730Y-95183850D01*
X110255551Y-95206668D01*
X110063691Y-95278228D01*
X110063687Y-95278230D01*
X109826668Y-95407652D01*
X109826660Y-95407657D01*
X109610472Y-95569493D01*
X109610454Y-95569509D01*
X109419509Y-95760454D01*
X109419493Y-95760472D01*
X109257657Y-95976660D01*
X109257652Y-95976668D01*
X109128230Y-96213687D01*
X109128228Y-96213691D01*
X109033848Y-96466736D01*
X108976443Y-96730617D01*
X108957177Y-96999998D01*
X104186020Y-96999998D01*
X104189767Y-96950004D01*
X104189767Y-96949995D01*
X104170726Y-96695920D01*
X104114031Y-96447522D01*
X104114026Y-96447505D01*
X104020941Y-96210328D01*
X104020942Y-96210328D01*
X103893545Y-95989672D01*
X103851545Y-95937006D01*
X103200846Y-96587705D01*
X103193951Y-96571058D01*
X103106401Y-96440030D01*
X102994970Y-96328599D01*
X102863942Y-96241049D01*
X102847293Y-96234152D01*
X103498185Y-95583260D01*
X103337384Y-95473628D01*
X103337376Y-95473623D01*
X103105003Y-95361720D01*
X103053143Y-95314898D01*
X103034830Y-95247471D01*
X103055877Y-95180847D01*
X103105003Y-95138280D01*
X103337376Y-95026376D01*
X103337377Y-95026375D01*
X103498185Y-94916738D01*
X102847294Y-94265846D01*
X102863942Y-94258951D01*
X102994970Y-94171401D01*
X103106401Y-94059970D01*
X103193951Y-93928942D01*
X103200846Y-93912294D01*
X103851544Y-94562992D01*
X103851546Y-94562991D01*
X103893544Y-94510330D01*
X104020941Y-94289671D01*
X104114026Y-94052494D01*
X104114031Y-94052477D01*
X104151572Y-93887999D01*
X126464628Y-93887999D01*
X126464628Y-93888000D01*
X126484079Y-94110329D01*
X126484081Y-94110339D01*
X126541841Y-94325905D01*
X126541843Y-94325909D01*
X126541844Y-94325913D01*
X126636165Y-94528186D01*
X126764178Y-94711007D01*
X126921993Y-94868822D01*
X127104814Y-94996835D01*
X127209430Y-95045618D01*
X127261869Y-95091790D01*
X127281021Y-95158984D01*
X127260805Y-95225865D01*
X127209430Y-95270382D01*
X127104814Y-95319164D01*
X127031970Y-95370171D01*
X126921993Y-95447178D01*
X126921991Y-95447179D01*
X126921988Y-95447182D01*
X126764182Y-95604988D01*
X126764179Y-95604991D01*
X126764178Y-95604993D01*
X126746680Y-95629983D01*
X126636165Y-95787814D01*
X126541845Y-95990085D01*
X126541841Y-95990094D01*
X126484081Y-96205660D01*
X126484079Y-96205670D01*
X126464628Y-96427999D01*
X126464628Y-96428000D01*
X126484079Y-96650329D01*
X126484081Y-96650339D01*
X126541841Y-96865905D01*
X126541843Y-96865909D01*
X126541844Y-96865913D01*
X126636165Y-97068186D01*
X126764178Y-97251007D01*
X126921993Y-97408822D01*
X127099713Y-97533263D01*
X127104814Y-97536835D01*
X127209430Y-97585618D01*
X127261869Y-97631790D01*
X127281021Y-97698984D01*
X127260805Y-97765865D01*
X127209430Y-97810382D01*
X127104814Y-97859164D01*
X127031340Y-97910612D01*
X126921993Y-97987178D01*
X126921991Y-97987179D01*
X126921988Y-97987182D01*
X126764182Y-98144988D01*
X126764179Y-98144991D01*
X126764178Y-98144993D01*
X126636165Y-98327814D01*
X126590206Y-98426375D01*
X126541845Y-98530085D01*
X126541841Y-98530094D01*
X126484081Y-98745660D01*
X126484079Y-98745670D01*
X126464628Y-98967999D01*
X126464628Y-98968000D01*
X126484079Y-99190329D01*
X126484081Y-99190339D01*
X126541841Y-99405905D01*
X126541843Y-99405909D01*
X126541844Y-99405913D01*
X126636165Y-99608186D01*
X126764178Y-99791007D01*
X126921993Y-99948822D01*
X127104814Y-100076835D01*
X127307087Y-100171156D01*
X127307093Y-100171157D01*
X127307094Y-100171158D01*
X127337309Y-100179254D01*
X127522666Y-100228920D01*
X127700533Y-100244481D01*
X127744999Y-100248372D01*
X127745000Y-100248372D01*
X127745001Y-100248372D01*
X127782055Y-100245130D01*
X127967334Y-100228920D01*
X128182913Y-100171156D01*
X128385186Y-100076835D01*
X128568007Y-99948822D01*
X128725822Y-99791007D01*
X128853835Y-99608186D01*
X128948156Y-99405913D01*
X129005920Y-99190334D01*
X129025372Y-98968000D01*
X129005920Y-98745666D01*
X128948156Y-98530087D01*
X128853835Y-98327814D01*
X128725822Y-98144993D01*
X128568007Y-97987178D01*
X128385186Y-97859165D01*
X128280569Y-97810381D01*
X128228130Y-97764210D01*
X128208978Y-97697017D01*
X128229193Y-97630135D01*
X128280570Y-97585618D01*
X128385186Y-97536835D01*
X128568007Y-97408822D01*
X128725822Y-97251007D01*
X128853835Y-97068186D01*
X128923465Y-96918861D01*
X128969635Y-96866426D01*
X129036828Y-96847274D01*
X129103709Y-96867489D01*
X129138947Y-96902379D01*
X129205535Y-97002034D01*
X129205538Y-97002038D01*
X129330961Y-97127461D01*
X129330965Y-97127464D01*
X129478446Y-97226009D01*
X129478459Y-97226016D01*
X129601363Y-97276923D01*
X129642334Y-97293894D01*
X129642336Y-97293894D01*
X129642341Y-97293896D01*
X129816304Y-97328499D01*
X129816307Y-97328500D01*
X129816309Y-97328500D01*
X129993693Y-97328500D01*
X129993694Y-97328499D01*
X130051682Y-97316964D01*
X130167658Y-97293896D01*
X130167661Y-97293894D01*
X130167666Y-97293894D01*
X130331547Y-97226013D01*
X130479035Y-97127464D01*
X130604464Y-97002035D01*
X130703013Y-96854547D01*
X130770894Y-96690666D01*
X130805500Y-96516691D01*
X130805500Y-96339309D01*
X130805500Y-96339306D01*
X130805499Y-96339304D01*
X130770896Y-96165341D01*
X130770893Y-96165332D01*
X130764542Y-96150000D01*
X130753923Y-96124363D01*
X130703016Y-96001459D01*
X130703009Y-96001446D01*
X130604464Y-95853965D01*
X130604461Y-95853961D01*
X130479038Y-95728538D01*
X130479034Y-95728535D01*
X130331553Y-95629990D01*
X130331540Y-95629983D01*
X130167667Y-95562106D01*
X130167658Y-95562103D01*
X129993694Y-95527500D01*
X129993691Y-95527500D01*
X129816309Y-95527500D01*
X129816306Y-95527500D01*
X129642341Y-95562103D01*
X129642332Y-95562106D01*
X129478459Y-95629983D01*
X129478446Y-95629990D01*
X129330965Y-95728535D01*
X129330961Y-95728538D01*
X129205538Y-95853961D01*
X129138947Y-95953621D01*
X129085334Y-95998425D01*
X129016009Y-96007132D01*
X128952982Y-95976977D01*
X128923463Y-95937133D01*
X128923404Y-95937006D01*
X128853835Y-95787814D01*
X128725822Y-95604993D01*
X128568007Y-95447178D01*
X128385186Y-95319165D01*
X128385160Y-95319153D01*
X128280570Y-95270382D01*
X128228130Y-95224210D01*
X128208978Y-95157017D01*
X128229193Y-95090135D01*
X128280570Y-95045618D01*
X128320908Y-95026808D01*
X128385186Y-94996835D01*
X128568007Y-94868822D01*
X128725822Y-94711007D01*
X128853835Y-94528186D01*
X128948156Y-94325913D01*
X129005920Y-94110334D01*
X129025372Y-93888000D01*
X129005920Y-93665666D01*
X128948156Y-93450087D01*
X128853835Y-93247814D01*
X128725822Y-93064993D01*
X128568007Y-92907178D01*
X128470744Y-92839073D01*
X128427119Y-92784496D01*
X128419927Y-92714998D01*
X128451450Y-92652643D01*
X128511680Y-92617230D01*
X128541868Y-92613499D01*
X128557871Y-92613499D01*
X128557872Y-92613499D01*
X128617483Y-92607091D01*
X128752331Y-92556796D01*
X128867546Y-92470546D01*
X128953796Y-92355331D01*
X129004091Y-92220483D01*
X129010500Y-92160873D01*
X129010499Y-90535128D01*
X129004091Y-90475517D01*
X128981382Y-90414632D01*
X128953797Y-90340671D01*
X128953793Y-90340664D01*
X128867547Y-90225455D01*
X128867544Y-90225452D01*
X128752335Y-90139206D01*
X128752328Y-90139202D01*
X128617482Y-90088908D01*
X128617483Y-90088908D01*
X128557883Y-90082501D01*
X128557881Y-90082500D01*
X128557873Y-90082500D01*
X128557864Y-90082500D01*
X126932129Y-90082500D01*
X126932123Y-90082501D01*
X126872516Y-90088908D01*
X126737671Y-90139202D01*
X126737664Y-90139206D01*
X126622455Y-90225452D01*
X126622452Y-90225455D01*
X126536206Y-90340664D01*
X126536202Y-90340671D01*
X126485908Y-90475517D01*
X126479501Y-90535116D01*
X126479501Y-90535123D01*
X126479500Y-90535135D01*
X126479500Y-92160870D01*
X126479501Y-92160876D01*
X126485908Y-92220483D01*
X126536202Y-92355328D01*
X126536206Y-92355335D01*
X126622452Y-92470544D01*
X126622455Y-92470547D01*
X126737664Y-92556793D01*
X126737671Y-92556797D01*
X126782618Y-92573561D01*
X126872517Y-92607091D01*
X126932127Y-92613500D01*
X126948128Y-92613499D01*
X127015165Y-92633180D01*
X127060923Y-92685982D01*
X127070870Y-92755140D01*
X127041848Y-92818697D01*
X127019256Y-92839073D01*
X126921989Y-92907181D01*
X126764182Y-93064988D01*
X126764179Y-93064991D01*
X126764178Y-93064993D01*
X126636165Y-93247814D01*
X126541845Y-93450085D01*
X126541841Y-93450094D01*
X126484081Y-93665660D01*
X126484079Y-93665670D01*
X126464628Y-93887999D01*
X104151572Y-93887999D01*
X104170726Y-93804079D01*
X104189767Y-93550004D01*
X104189767Y-93549995D01*
X104170726Y-93295920D01*
X104114031Y-93047522D01*
X104114026Y-93047505D01*
X104020941Y-92810328D01*
X104020942Y-92810328D01*
X103893545Y-92589672D01*
X103851545Y-92537006D01*
X103200846Y-93187705D01*
X103193951Y-93171058D01*
X103106401Y-93040030D01*
X102994970Y-92928599D01*
X102863942Y-92841049D01*
X102847293Y-92834152D01*
X103498185Y-92183260D01*
X103337384Y-92073628D01*
X103337376Y-92073623D01*
X103107823Y-91963078D01*
X103107825Y-91963078D01*
X102864347Y-91887975D01*
X102864341Y-91887973D01*
X102612404Y-91850000D01*
X102357595Y-91850000D01*
X102105658Y-91887973D01*
X102105652Y-91887975D01*
X101862175Y-91963078D01*
X101632622Y-92073625D01*
X101632609Y-92073632D01*
X101471813Y-92183259D01*
X102122706Y-92834152D01*
X102106058Y-92841049D01*
X101975030Y-92928599D01*
X101863599Y-93040030D01*
X101776049Y-93171058D01*
X101769152Y-93187706D01*
X101118452Y-92537006D01*
X101076457Y-92589667D01*
X100949058Y-92810328D01*
X100855973Y-93047505D01*
X100855968Y-93047522D01*
X100799273Y-93295920D01*
X100780233Y-93549995D01*
X99005500Y-93549995D01*
X99005500Y-83674094D01*
X99025185Y-83607055D01*
X99077989Y-83561300D01*
X99147147Y-83551356D01*
X99195471Y-83569100D01*
X99233193Y-83592802D01*
X99325475Y-83650788D01*
X99495745Y-83710368D01*
X99495750Y-83710369D01*
X99674996Y-83730565D01*
X99675000Y-83730565D01*
X99675004Y-83730565D01*
X99854249Y-83710369D01*
X99854252Y-83710368D01*
X99854255Y-83710368D01*
X100024522Y-83650789D01*
X100177262Y-83554816D01*
X100304816Y-83427262D01*
X100400789Y-83274522D01*
X100460368Y-83104255D01*
X100464833Y-83064627D01*
X100480565Y-82925003D01*
X100480565Y-82924996D01*
X100460369Y-82745750D01*
X100460368Y-82745745D01*
X100413569Y-82612001D01*
X100400789Y-82575478D01*
X100304816Y-82422738D01*
X100177262Y-82295184D01*
X100154528Y-82280899D01*
X100024523Y-82199211D01*
X99854254Y-82139631D01*
X99854249Y-82139630D01*
X99675004Y-82119435D01*
X99674996Y-82119435D01*
X99495750Y-82139630D01*
X99495745Y-82139631D01*
X99325476Y-82199211D01*
X99195472Y-82280899D01*
X99128235Y-82299899D01*
X99061400Y-82279531D01*
X99016186Y-82226263D01*
X99005500Y-82175905D01*
X99005500Y-78624010D01*
X99005500Y-78624000D01*
X98993947Y-78516544D01*
X98982741Y-78465033D01*
X98982637Y-78464722D01*
X98948616Y-78362502D01*
X98948613Y-78362496D01*
X98870828Y-78241462D01*
X98870825Y-78241457D01*
X98870820Y-78241451D01*
X98825076Y-78188659D01*
X98825072Y-78188656D01*
X98825070Y-78188653D01*
X98716336Y-78094433D01*
X98716333Y-78094431D01*
X98716331Y-78094430D01*
X98585465Y-78034664D01*
X98585460Y-78034662D01*
X98585459Y-78034662D01*
X98518420Y-78014977D01*
X98518422Y-78014977D01*
X98518417Y-78014976D01*
X98456347Y-78006052D01*
X98376000Y-77994500D01*
X71874000Y-77994500D01*
X71873991Y-77994500D01*
X71873990Y-77994501D01*
X71766549Y-78006052D01*
X71766537Y-78006054D01*
X71715027Y-78017260D01*
X71612502Y-78051383D01*
X71612496Y-78051386D01*
X71491462Y-78129171D01*
X71491451Y-78129179D01*
X71438659Y-78174923D01*
X71344433Y-78283664D01*
X71344430Y-78283668D01*
X71284664Y-78414534D01*
X71264976Y-78481582D01*
X71259949Y-78516549D01*
X71244502Y-78623990D01*
X71244500Y-78624001D01*
X71244500Y-109626000D01*
X71224815Y-109693039D01*
X71172011Y-109738794D01*
X71120500Y-109750000D01*
X50817248Y-109750000D01*
X50750209Y-109730315D01*
X50704454Y-109677511D01*
X50694881Y-109646061D01*
X50679168Y-109550212D01*
X50603042Y-109276031D01*
X50584873Y-109210591D01*
X50584872Y-109210589D01*
X50454411Y-108883155D01*
X50454402Y-108883137D01*
X50391252Y-108764023D01*
X50289305Y-108571731D01*
X50091501Y-108279992D01*
X50091497Y-108279987D01*
X50091494Y-108279983D01*
X49863314Y-108011350D01*
X49778211Y-107930736D01*
X49607420Y-107768954D01*
X49607413Y-107768948D01*
X49607410Y-107768946D01*
X49326815Y-107555644D01*
X49024802Y-107373928D01*
X49024789Y-107373921D01*
X48704911Y-107225929D01*
X48704906Y-107225928D01*
X48704903Y-107225927D01*
X48704901Y-107225926D01*
X48598432Y-107190052D01*
X48370880Y-107113381D01*
X48026643Y-107037608D01*
X47860593Y-107019549D01*
X47796075Y-106992731D01*
X47756297Y-106935290D01*
X47750000Y-106896276D01*
X47750000Y-105465392D01*
X47769685Y-105398353D01*
X47822489Y-105352598D01*
X47891647Y-105342654D01*
X47914955Y-105348351D01*
X48020737Y-105385366D01*
X48020743Y-105385367D01*
X48020745Y-105385368D01*
X48020746Y-105385368D01*
X48020750Y-105385369D01*
X48199996Y-105405565D01*
X48200000Y-105405565D01*
X48200004Y-105405565D01*
X48379249Y-105385369D01*
X48379252Y-105385368D01*
X48379255Y-105385368D01*
X48549522Y-105325789D01*
X48702262Y-105229816D01*
X48829816Y-105102262D01*
X48925789Y-104949522D01*
X48985368Y-104779255D01*
X48995836Y-104686349D01*
X49005565Y-104600003D01*
X49005565Y-104599996D01*
X48985369Y-104420750D01*
X48985368Y-104420745D01*
X48925788Y-104250476D01*
X48829815Y-104097737D01*
X48702262Y-103970184D01*
X48549523Y-103874211D01*
X48379254Y-103814631D01*
X48379249Y-103814630D01*
X48200004Y-103794435D01*
X48199996Y-103794435D01*
X48020750Y-103814630D01*
X48020742Y-103814632D01*
X47914954Y-103851649D01*
X47845175Y-103855210D01*
X47784548Y-103820481D01*
X47752321Y-103758488D01*
X47750000Y-103734607D01*
X47750000Y-99999996D01*
X51394435Y-99999996D01*
X51394435Y-100000003D01*
X51414630Y-100179249D01*
X51414631Y-100179254D01*
X51474211Y-100349523D01*
X51570184Y-100502262D01*
X51697738Y-100629816D01*
X51850478Y-100725789D01*
X52020745Y-100785368D01*
X52020750Y-100785369D01*
X52199996Y-100805565D01*
X52200000Y-100805565D01*
X52200004Y-100805565D01*
X52379249Y-100785369D01*
X52379252Y-100785368D01*
X52379255Y-100785368D01*
X52549522Y-100725789D01*
X52702262Y-100629816D01*
X52829816Y-100502262D01*
X52925789Y-100349522D01*
X52985368Y-100179255D01*
X52985369Y-100179249D01*
X53005565Y-100000003D01*
X53005565Y-99999996D01*
X52985369Y-99820750D01*
X52985368Y-99820745D01*
X52925788Y-99650476D01*
X52829815Y-99497737D01*
X52702262Y-99370184D01*
X52549523Y-99274211D01*
X52379254Y-99214631D01*
X52379249Y-99214630D01*
X52200004Y-99194435D01*
X52199996Y-99194435D01*
X52020750Y-99214630D01*
X52020745Y-99214631D01*
X51850476Y-99274211D01*
X51697737Y-99370184D01*
X51570184Y-99497737D01*
X51474211Y-99650476D01*
X51414631Y-99820745D01*
X51414630Y-99820750D01*
X51394435Y-99999996D01*
X47750000Y-99999996D01*
X47750000Y-97999996D01*
X54194435Y-97999996D01*
X54194435Y-98000003D01*
X54214630Y-98179249D01*
X54214631Y-98179254D01*
X54274211Y-98349523D01*
X54328161Y-98435383D01*
X54370184Y-98502262D01*
X54497738Y-98629816D01*
X54650478Y-98725789D01*
X54707295Y-98745670D01*
X54820745Y-98785368D01*
X54820750Y-98785369D01*
X54999996Y-98805565D01*
X55000000Y-98805565D01*
X55000004Y-98805565D01*
X55179249Y-98785369D01*
X55179252Y-98785368D01*
X55179255Y-98785368D01*
X55349522Y-98725789D01*
X55502262Y-98629816D01*
X55629816Y-98502262D01*
X55725789Y-98349522D01*
X55785368Y-98179255D01*
X55785369Y-98179249D01*
X55805565Y-98000003D01*
X55805565Y-97999996D01*
X55785369Y-97820750D01*
X55785368Y-97820745D01*
X55765807Y-97764844D01*
X55725789Y-97650478D01*
X55629816Y-97497738D01*
X55502262Y-97370184D01*
X55436626Y-97328942D01*
X55349523Y-97274211D01*
X55179254Y-97214631D01*
X55179249Y-97214630D01*
X55000004Y-97194435D01*
X54999996Y-97194435D01*
X54820750Y-97214630D01*
X54820745Y-97214631D01*
X54650476Y-97274211D01*
X54497737Y-97370184D01*
X54370184Y-97497737D01*
X54274211Y-97650476D01*
X54214631Y-97820745D01*
X54214630Y-97820750D01*
X54194435Y-97999996D01*
X47750000Y-97999996D01*
X47750000Y-93549995D01*
X65309732Y-93549995D01*
X65309732Y-93550004D01*
X65328777Y-93804154D01*
X65351464Y-93903553D01*
X65385492Y-94052637D01*
X65478607Y-94289888D01*
X65606041Y-94510612D01*
X65764950Y-94709877D01*
X65951783Y-94883232D01*
X66162366Y-95026805D01*
X66162371Y-95026807D01*
X66162372Y-95026808D01*
X66162374Y-95026809D01*
X66393846Y-95138280D01*
X66445706Y-95185102D01*
X66464019Y-95252529D01*
X66442971Y-95319153D01*
X66393846Y-95361720D01*
X66162374Y-95473190D01*
X66162372Y-95473191D01*
X65951782Y-95616768D01*
X65764952Y-95790121D01*
X65764950Y-95790123D01*
X65606041Y-95989388D01*
X65478608Y-96210109D01*
X65385492Y-96447362D01*
X65385490Y-96447369D01*
X65328777Y-96695845D01*
X65309732Y-96949995D01*
X65309732Y-96950004D01*
X65328777Y-97204154D01*
X65375491Y-97408822D01*
X65385492Y-97452637D01*
X65455155Y-97630135D01*
X65478608Y-97689890D01*
X65488533Y-97707080D01*
X65606041Y-97910612D01*
X65764950Y-98109877D01*
X65951783Y-98283232D01*
X66162366Y-98426805D01*
X66162371Y-98426807D01*
X66162372Y-98426808D01*
X66162373Y-98426809D01*
X66284328Y-98485538D01*
X66391992Y-98537387D01*
X66391993Y-98537387D01*
X66391996Y-98537389D01*
X66635542Y-98612513D01*
X66887565Y-98650500D01*
X67142435Y-98650500D01*
X67394458Y-98612513D01*
X67638004Y-98537389D01*
X67849836Y-98435376D01*
X67867626Y-98426809D01*
X67867626Y-98426808D01*
X67867634Y-98426805D01*
X68078217Y-98283232D01*
X68265050Y-98109877D01*
X68423959Y-97910612D01*
X68551393Y-97689888D01*
X68644508Y-97452637D01*
X68701222Y-97204157D01*
X68711411Y-97068186D01*
X68720268Y-96950004D01*
X68720268Y-96949995D01*
X68701222Y-96695845D01*
X68700040Y-96690667D01*
X68644508Y-96447363D01*
X68551393Y-96210112D01*
X68423959Y-95989388D01*
X68265050Y-95790123D01*
X68078217Y-95616768D01*
X67867634Y-95473195D01*
X67867630Y-95473193D01*
X67867627Y-95473191D01*
X67867626Y-95473190D01*
X67653698Y-95370169D01*
X67638004Y-95362611D01*
X67638001Y-95362610D01*
X67636153Y-95361720D01*
X67584293Y-95314898D01*
X67565980Y-95247471D01*
X67587028Y-95180847D01*
X67636153Y-95138280D01*
X67638001Y-95137389D01*
X67638004Y-95137389D01*
X67804696Y-95057114D01*
X67867626Y-95026809D01*
X67867626Y-95026808D01*
X67867634Y-95026805D01*
X68078217Y-94883232D01*
X68265050Y-94709877D01*
X68423959Y-94510612D01*
X68551393Y-94289888D01*
X68644508Y-94052637D01*
X68701222Y-93804157D01*
X68711601Y-93665660D01*
X68720268Y-93550004D01*
X68720268Y-93549995D01*
X68701222Y-93295845D01*
X68690259Y-93247814D01*
X68644508Y-93047363D01*
X68551393Y-92810112D01*
X68423959Y-92589388D01*
X68265050Y-92390123D01*
X68078217Y-92216768D01*
X67867634Y-92073195D01*
X67867630Y-92073193D01*
X67867627Y-92073191D01*
X67867626Y-92073190D01*
X67638006Y-91962612D01*
X67638008Y-91962612D01*
X67394466Y-91887489D01*
X67394462Y-91887488D01*
X67394458Y-91887487D01*
X67273231Y-91869214D01*
X67142440Y-91849500D01*
X67142435Y-91849500D01*
X66887565Y-91849500D01*
X66887559Y-91849500D01*
X66730609Y-91873157D01*
X66635542Y-91887487D01*
X66635539Y-91887488D01*
X66635533Y-91887489D01*
X66391992Y-91962612D01*
X66162373Y-92073190D01*
X66162372Y-92073191D01*
X65951782Y-92216768D01*
X65764952Y-92390121D01*
X65764950Y-92390123D01*
X65606041Y-92589388D01*
X65478608Y-92810109D01*
X65385492Y-93047362D01*
X65385490Y-93047369D01*
X65328777Y-93295845D01*
X65309732Y-93549995D01*
X47750000Y-93549995D01*
X47750000Y-91199996D01*
X55194435Y-91199996D01*
X55194435Y-91200003D01*
X55214630Y-91379249D01*
X55214631Y-91379254D01*
X55274211Y-91549523D01*
X55370184Y-91702262D01*
X55497738Y-91829816D01*
X55650478Y-91925789D01*
X55755712Y-91962612D01*
X55820745Y-91985368D01*
X55820750Y-91985369D01*
X55999996Y-92005565D01*
X56000000Y-92005565D01*
X56000004Y-92005565D01*
X56179249Y-91985369D01*
X56179252Y-91985368D01*
X56179255Y-91985368D01*
X56349522Y-91925789D01*
X56502262Y-91829816D01*
X56629816Y-91702262D01*
X56725789Y-91549522D01*
X56785368Y-91379255D01*
X56805565Y-91200000D01*
X56785368Y-91020745D01*
X56725789Y-90850478D01*
X56629816Y-90697738D01*
X56502262Y-90570184D01*
X56446482Y-90535135D01*
X56349523Y-90474211D01*
X56179254Y-90414631D01*
X56179249Y-90414630D01*
X56000004Y-90394435D01*
X55999996Y-90394435D01*
X55820750Y-90414630D01*
X55820745Y-90414631D01*
X55650476Y-90474211D01*
X55497737Y-90570184D01*
X55370184Y-90697737D01*
X55274211Y-90850476D01*
X55214631Y-91020745D01*
X55214630Y-91020750D01*
X55194435Y-91199996D01*
X47750000Y-91199996D01*
X47750000Y-83064635D01*
X50112000Y-83064635D01*
X50112000Y-85935370D01*
X50112001Y-85935376D01*
X50118408Y-85994983D01*
X50168702Y-86129828D01*
X50168706Y-86129835D01*
X50254952Y-86245044D01*
X50254955Y-86245047D01*
X50370164Y-86331293D01*
X50370171Y-86331297D01*
X50505017Y-86381591D01*
X50505016Y-86381591D01*
X50511944Y-86382335D01*
X50564627Y-86388000D01*
X53435372Y-86387999D01*
X53494983Y-86381591D01*
X53629831Y-86331296D01*
X53745046Y-86245046D01*
X53831296Y-86129831D01*
X53881591Y-85994983D01*
X53888000Y-85935373D01*
X53887999Y-84499998D01*
X54807177Y-84499998D01*
X54807177Y-84500001D01*
X54826443Y-84769382D01*
X54883848Y-85033263D01*
X54883850Y-85033270D01*
X54942448Y-85190377D01*
X54978228Y-85286308D01*
X54978230Y-85286312D01*
X55107652Y-85523331D01*
X55107657Y-85523339D01*
X55269493Y-85739527D01*
X55269509Y-85739545D01*
X55460454Y-85930490D01*
X55460472Y-85930506D01*
X55676660Y-86092342D01*
X55676668Y-86092347D01*
X55913687Y-86221769D01*
X55913691Y-86221771D01*
X55913693Y-86221772D01*
X56166730Y-86316150D01*
X56298676Y-86344853D01*
X56430617Y-86373556D01*
X56430619Y-86373556D01*
X56430623Y-86373557D01*
X56670007Y-86390677D01*
X56699999Y-86392823D01*
X56700000Y-86392823D01*
X56700001Y-86392823D01*
X56726987Y-86390892D01*
X56969377Y-86373557D01*
X57233270Y-86316150D01*
X57486307Y-86221772D01*
X57723337Y-86092344D01*
X57939535Y-85930500D01*
X58130500Y-85739535D01*
X58292344Y-85523337D01*
X58421772Y-85286307D01*
X58516150Y-85033270D01*
X58573557Y-84769377D01*
X58592823Y-84500000D01*
X58592823Y-84499998D01*
X59507177Y-84499998D01*
X59507177Y-84500001D01*
X59526443Y-84769382D01*
X59583848Y-85033263D01*
X59583850Y-85033270D01*
X59642448Y-85190377D01*
X59678228Y-85286308D01*
X59678230Y-85286312D01*
X59807652Y-85523331D01*
X59807657Y-85523339D01*
X59969493Y-85739527D01*
X59969509Y-85739545D01*
X60160454Y-85930490D01*
X60160472Y-85930506D01*
X60376660Y-86092342D01*
X60376668Y-86092347D01*
X60613687Y-86221769D01*
X60613691Y-86221771D01*
X60613693Y-86221772D01*
X60866730Y-86316150D01*
X60998676Y-86344853D01*
X61130617Y-86373556D01*
X61130619Y-86373556D01*
X61130623Y-86373557D01*
X61370007Y-86390677D01*
X61399999Y-86392823D01*
X61400000Y-86392823D01*
X61400001Y-86392823D01*
X61426987Y-86390892D01*
X61669377Y-86373557D01*
X61933270Y-86316150D01*
X62186307Y-86221772D01*
X62423337Y-86092344D01*
X62639535Y-85930500D01*
X62830500Y-85739535D01*
X62992344Y-85523337D01*
X63121772Y-85286307D01*
X63216150Y-85033270D01*
X63273557Y-84769377D01*
X63292823Y-84500000D01*
X63273557Y-84230623D01*
X63216150Y-83966730D01*
X63121772Y-83713693D01*
X63119956Y-83710368D01*
X62992347Y-83476668D01*
X62992342Y-83476660D01*
X62830506Y-83260472D01*
X62830490Y-83260454D01*
X62639545Y-83069509D01*
X62639527Y-83069493D01*
X62423339Y-82907657D01*
X62423331Y-82907652D01*
X62186312Y-82778230D01*
X62186308Y-82778228D01*
X62090377Y-82742448D01*
X61933270Y-82683850D01*
X61933266Y-82683849D01*
X61933263Y-82683848D01*
X61669382Y-82626443D01*
X61400001Y-82607177D01*
X61399999Y-82607177D01*
X61130617Y-82626443D01*
X60866736Y-82683848D01*
X60866731Y-82683849D01*
X60866730Y-82683850D01*
X60805551Y-82706668D01*
X60613691Y-82778228D01*
X60613687Y-82778230D01*
X60376668Y-82907652D01*
X60376660Y-82907657D01*
X60160472Y-83069493D01*
X60160454Y-83069509D01*
X59969509Y-83260454D01*
X59969493Y-83260472D01*
X59807657Y-83476660D01*
X59807652Y-83476668D01*
X59678230Y-83713687D01*
X59678228Y-83713691D01*
X59583848Y-83966736D01*
X59526443Y-84230617D01*
X59507177Y-84499998D01*
X58592823Y-84499998D01*
X58573557Y-84230623D01*
X58516150Y-83966730D01*
X58421772Y-83713693D01*
X58419956Y-83710368D01*
X58292347Y-83476668D01*
X58292342Y-83476660D01*
X58130506Y-83260472D01*
X58130490Y-83260454D01*
X57939545Y-83069509D01*
X57939527Y-83069493D01*
X57723339Y-82907657D01*
X57723331Y-82907652D01*
X57486312Y-82778230D01*
X57486308Y-82778228D01*
X57390377Y-82742448D01*
X57233270Y-82683850D01*
X57233266Y-82683849D01*
X57233263Y-82683848D01*
X56969382Y-82626443D01*
X56700001Y-82607177D01*
X56699999Y-82607177D01*
X56430617Y-82626443D01*
X56166736Y-82683848D01*
X56166731Y-82683849D01*
X56166730Y-82683850D01*
X56105551Y-82706668D01*
X55913691Y-82778228D01*
X55913687Y-82778230D01*
X55676668Y-82907652D01*
X55676660Y-82907657D01*
X55460472Y-83069493D01*
X55460454Y-83069509D01*
X55269509Y-83260454D01*
X55269493Y-83260472D01*
X55107657Y-83476660D01*
X55107652Y-83476668D01*
X54978230Y-83713687D01*
X54978228Y-83713691D01*
X54883848Y-83966736D01*
X54826443Y-84230617D01*
X54807177Y-84499998D01*
X53887999Y-84499998D01*
X53887999Y-83064628D01*
X53881591Y-83005017D01*
X53880563Y-83002262D01*
X53831297Y-82870171D01*
X53831293Y-82870164D01*
X53745047Y-82754955D01*
X53745044Y-82754952D01*
X53629835Y-82668706D01*
X53629828Y-82668702D01*
X53494982Y-82618408D01*
X53494983Y-82618408D01*
X53435383Y-82612001D01*
X53435381Y-82612000D01*
X53435373Y-82612000D01*
X53435364Y-82612000D01*
X50564629Y-82612000D01*
X50564623Y-82612001D01*
X50505016Y-82618408D01*
X50370171Y-82668702D01*
X50370164Y-82668706D01*
X50254955Y-82754952D01*
X50254952Y-82754955D01*
X50168706Y-82870164D01*
X50168702Y-82870171D01*
X50118408Y-83005017D01*
X50112001Y-83064616D01*
X50112001Y-83064623D01*
X50112000Y-83064635D01*
X47750000Y-83064635D01*
X47750000Y-82499996D01*
X65572535Y-82499996D01*
X65572535Y-82500003D01*
X65592730Y-82679249D01*
X65592731Y-82679254D01*
X65652311Y-82849523D01*
X65699737Y-82925000D01*
X65748284Y-83002262D01*
X65875838Y-83129816D01*
X66028578Y-83225789D01*
X66167849Y-83274522D01*
X66198845Y-83285368D01*
X66198850Y-83285369D01*
X66378096Y-83305565D01*
X66378100Y-83305565D01*
X66378104Y-83305565D01*
X66557349Y-83285369D01*
X66557352Y-83285368D01*
X66557355Y-83285368D01*
X66727622Y-83225789D01*
X66880362Y-83129816D01*
X67007916Y-83002262D01*
X67103889Y-82849522D01*
X67163468Y-82679255D01*
X67164657Y-82668702D01*
X67183665Y-82500003D01*
X67183665Y-82499996D01*
X67163469Y-82320750D01*
X67163468Y-82320745D01*
X67103888Y-82150476D01*
X67007915Y-81997737D01*
X66880362Y-81870184D01*
X66727623Y-81774211D01*
X66557354Y-81714631D01*
X66557349Y-81714630D01*
X66378104Y-81694435D01*
X66378096Y-81694435D01*
X66198850Y-81714630D01*
X66198845Y-81714631D01*
X66028576Y-81774211D01*
X65875837Y-81870184D01*
X65748284Y-81997737D01*
X65652311Y-82150476D01*
X65592731Y-82320745D01*
X65592730Y-82320750D01*
X65572535Y-82499996D01*
X47750000Y-82499996D01*
X47750000Y-76499996D01*
X88194435Y-76499996D01*
X88194435Y-76500003D01*
X88214630Y-76679249D01*
X88214631Y-76679254D01*
X88274211Y-76849523D01*
X88370184Y-77002262D01*
X88497738Y-77129816D01*
X88650478Y-77225789D01*
X88820745Y-77285368D01*
X88820750Y-77285369D01*
X88999996Y-77305565D01*
X89000000Y-77305565D01*
X89000004Y-77305565D01*
X89179249Y-77285369D01*
X89179252Y-77285368D01*
X89179255Y-77285368D01*
X89349522Y-77225789D01*
X89502262Y-77129816D01*
X89629816Y-77002262D01*
X89725789Y-76849522D01*
X89785368Y-76679255D01*
X89805565Y-76500000D01*
X89785368Y-76320745D01*
X89725789Y-76150478D01*
X89629816Y-75997738D01*
X89502262Y-75870184D01*
X89486720Y-75860418D01*
X89349523Y-75774211D01*
X89179254Y-75714631D01*
X89179249Y-75714630D01*
X89000004Y-75694435D01*
X88999996Y-75694435D01*
X88820750Y-75714630D01*
X88820745Y-75714631D01*
X88650476Y-75774211D01*
X88497737Y-75870184D01*
X88370184Y-75997737D01*
X88274211Y-76150476D01*
X88214631Y-76320745D01*
X88214630Y-76320750D01*
X88194435Y-76499996D01*
X47750000Y-76499996D01*
X47750000Y-74111678D01*
X56699500Y-74111678D01*
X56699500Y-74332121D01*
X56733985Y-74549852D01*
X56802103Y-74759503D01*
X56802104Y-74759506D01*
X56902187Y-74955925D01*
X57031752Y-75134258D01*
X57031756Y-75134263D01*
X57187636Y-75290143D01*
X57187641Y-75290147D01*
X57343192Y-75403160D01*
X57365978Y-75419715D01*
X57494375Y-75485137D01*
X57562393Y-75519795D01*
X57562396Y-75519796D01*
X57667221Y-75553855D01*
X57772049Y-75587915D01*
X57989778Y-75622400D01*
X57989779Y-75622400D01*
X58210221Y-75622400D01*
X58210222Y-75622400D01*
X58427951Y-75587915D01*
X58637606Y-75519795D01*
X58834022Y-75419715D01*
X59012365Y-75290142D01*
X59168242Y-75134265D01*
X59297815Y-74955922D01*
X59397895Y-74759506D01*
X59466015Y-74549851D01*
X59500500Y-74332122D01*
X59500500Y-74111678D01*
X60899500Y-74111678D01*
X60899500Y-74332121D01*
X60933985Y-74549852D01*
X61002103Y-74759503D01*
X61002104Y-74759506D01*
X61102187Y-74955925D01*
X61231752Y-75134258D01*
X61231756Y-75134263D01*
X61387636Y-75290143D01*
X61387641Y-75290147D01*
X61543192Y-75403160D01*
X61565978Y-75419715D01*
X61694375Y-75485137D01*
X61762393Y-75519795D01*
X61762396Y-75519796D01*
X61867221Y-75553855D01*
X61972049Y-75587915D01*
X62189778Y-75622400D01*
X62189779Y-75622400D01*
X62410221Y-75622400D01*
X62410222Y-75622400D01*
X62627951Y-75587915D01*
X62837606Y-75519795D01*
X63034022Y-75419715D01*
X63212365Y-75290142D01*
X63368242Y-75134265D01*
X63497815Y-74955922D01*
X63597895Y-74759506D01*
X63666015Y-74549851D01*
X63700500Y-74332122D01*
X63700500Y-74111678D01*
X65099500Y-74111678D01*
X65099500Y-74332121D01*
X65133985Y-74549852D01*
X65202103Y-74759503D01*
X65202104Y-74759506D01*
X65302187Y-74955925D01*
X65431752Y-75134258D01*
X65431756Y-75134263D01*
X65587636Y-75290143D01*
X65587641Y-75290147D01*
X65743192Y-75403160D01*
X65765978Y-75419715D01*
X65894375Y-75485137D01*
X65962393Y-75519795D01*
X65962396Y-75519796D01*
X66067221Y-75553855D01*
X66172049Y-75587915D01*
X66389778Y-75622400D01*
X66389779Y-75622400D01*
X66610221Y-75622400D01*
X66610222Y-75622400D01*
X66827951Y-75587915D01*
X67037606Y-75519795D01*
X67234022Y-75419715D01*
X67412365Y-75290142D01*
X67568242Y-75134265D01*
X67697815Y-74955922D01*
X67797895Y-74759506D01*
X67866015Y-74549851D01*
X67900500Y-74332122D01*
X67900500Y-74111678D01*
X69299500Y-74111678D01*
X69299500Y-74332121D01*
X69333985Y-74549852D01*
X69402103Y-74759503D01*
X69402104Y-74759506D01*
X69502187Y-74955925D01*
X69631752Y-75134258D01*
X69631756Y-75134263D01*
X69787636Y-75290143D01*
X69787641Y-75290147D01*
X69943192Y-75403160D01*
X69965978Y-75419715D01*
X70094375Y-75485137D01*
X70162393Y-75519795D01*
X70162396Y-75519796D01*
X70267221Y-75553855D01*
X70372049Y-75587915D01*
X70589778Y-75622400D01*
X70589779Y-75622400D01*
X70810221Y-75622400D01*
X70810222Y-75622400D01*
X71027951Y-75587915D01*
X71237606Y-75519795D01*
X71434022Y-75419715D01*
X71612365Y-75290142D01*
X71768242Y-75134265D01*
X71897815Y-74955922D01*
X71997895Y-74759506D01*
X72066015Y-74549851D01*
X72100500Y-74332122D01*
X72100500Y-74111678D01*
X73499500Y-74111678D01*
X73499500Y-74332121D01*
X73533985Y-74549852D01*
X73602103Y-74759503D01*
X73602104Y-74759506D01*
X73702187Y-74955925D01*
X73831752Y-75134258D01*
X73831756Y-75134263D01*
X73987636Y-75290143D01*
X73987641Y-75290147D01*
X74143192Y-75403160D01*
X74165978Y-75419715D01*
X74294375Y-75485137D01*
X74362393Y-75519795D01*
X74362396Y-75519796D01*
X74467221Y-75553855D01*
X74572049Y-75587915D01*
X74789778Y-75622400D01*
X74789779Y-75622400D01*
X75010221Y-75622400D01*
X75010222Y-75622400D01*
X75227951Y-75587915D01*
X75437606Y-75519795D01*
X75634022Y-75419715D01*
X75812365Y-75290142D01*
X75968242Y-75134265D01*
X76097815Y-74955922D01*
X76197895Y-74759506D01*
X76266015Y-74549851D01*
X76300500Y-74332122D01*
X76300500Y-74111678D01*
X77699500Y-74111678D01*
X77699500Y-74332121D01*
X77733985Y-74549852D01*
X77802103Y-74759503D01*
X77802104Y-74759506D01*
X77902187Y-74955925D01*
X78031752Y-75134258D01*
X78031756Y-75134263D01*
X78187636Y-75290143D01*
X78187641Y-75290147D01*
X78343192Y-75403160D01*
X78365978Y-75419715D01*
X78494375Y-75485137D01*
X78562393Y-75519795D01*
X78562396Y-75519796D01*
X78667221Y-75553855D01*
X78772049Y-75587915D01*
X78989778Y-75622400D01*
X78989779Y-75622400D01*
X79210221Y-75622400D01*
X79210222Y-75622400D01*
X79427951Y-75587915D01*
X79637606Y-75519795D01*
X79834022Y-75419715D01*
X80012365Y-75290142D01*
X80168242Y-75134265D01*
X80297815Y-74955922D01*
X80397895Y-74759506D01*
X80466015Y-74549851D01*
X80500500Y-74332122D01*
X80500500Y-74111678D01*
X81899500Y-74111678D01*
X81899500Y-74332121D01*
X81933985Y-74549852D01*
X82002103Y-74759503D01*
X82002104Y-74759506D01*
X82102187Y-74955925D01*
X82231752Y-75134258D01*
X82231756Y-75134263D01*
X82387636Y-75290143D01*
X82387641Y-75290147D01*
X82543192Y-75403160D01*
X82565978Y-75419715D01*
X82694375Y-75485137D01*
X82762393Y-75519795D01*
X82762396Y-75519796D01*
X82867221Y-75553855D01*
X82972049Y-75587915D01*
X83189778Y-75622400D01*
X83189779Y-75622400D01*
X83410221Y-75622400D01*
X83410222Y-75622400D01*
X83627951Y-75587915D01*
X83837606Y-75519795D01*
X84034022Y-75419715D01*
X84212365Y-75290142D01*
X84368242Y-75134265D01*
X84497815Y-74955922D01*
X84597895Y-74759506D01*
X84666015Y-74549851D01*
X84700500Y-74332122D01*
X84700500Y-74111678D01*
X86099500Y-74111678D01*
X86099500Y-74332121D01*
X86133985Y-74549852D01*
X86202103Y-74759503D01*
X86202104Y-74759506D01*
X86302187Y-74955925D01*
X86431752Y-75134258D01*
X86431756Y-75134263D01*
X86587636Y-75290143D01*
X86587641Y-75290147D01*
X86743192Y-75403160D01*
X86765978Y-75419715D01*
X86894375Y-75485137D01*
X86962393Y-75519795D01*
X86962396Y-75519796D01*
X87067221Y-75553855D01*
X87172049Y-75587915D01*
X87389778Y-75622400D01*
X87389779Y-75622400D01*
X87610221Y-75622400D01*
X87610222Y-75622400D01*
X87827951Y-75587915D01*
X88037606Y-75519795D01*
X88234022Y-75419715D01*
X88412365Y-75290142D01*
X88568242Y-75134265D01*
X88697815Y-74955922D01*
X88797895Y-74759506D01*
X88866015Y-74549851D01*
X88900500Y-74332122D01*
X88900500Y-74111678D01*
X90299500Y-74111678D01*
X90299500Y-74332121D01*
X90333985Y-74549852D01*
X90402103Y-74759503D01*
X90402104Y-74759506D01*
X90502187Y-74955925D01*
X90631752Y-75134258D01*
X90631756Y-75134263D01*
X90787636Y-75290143D01*
X90787641Y-75290147D01*
X90943192Y-75403160D01*
X90965978Y-75419715D01*
X91094375Y-75485137D01*
X91162393Y-75519795D01*
X91162396Y-75519796D01*
X91267221Y-75553855D01*
X91372049Y-75587915D01*
X91589778Y-75622400D01*
X91589779Y-75622400D01*
X91810221Y-75622400D01*
X91810222Y-75622400D01*
X92027951Y-75587915D01*
X92237606Y-75519795D01*
X92434022Y-75419715D01*
X92612365Y-75290142D01*
X92768242Y-75134265D01*
X92897815Y-74955922D01*
X92997895Y-74759506D01*
X93066015Y-74549851D01*
X93100500Y-74332122D01*
X93100500Y-74111678D01*
X94499500Y-74111678D01*
X94499500Y-74332121D01*
X94533985Y-74549852D01*
X94602103Y-74759503D01*
X94602104Y-74759506D01*
X94702187Y-74955925D01*
X94831752Y-75134258D01*
X94831756Y-75134263D01*
X94987636Y-75290143D01*
X94987641Y-75290147D01*
X95143192Y-75403160D01*
X95165978Y-75419715D01*
X95294375Y-75485137D01*
X95362393Y-75519795D01*
X95362396Y-75519796D01*
X95467221Y-75553855D01*
X95572049Y-75587915D01*
X95789778Y-75622400D01*
X95789779Y-75622400D01*
X96010221Y-75622400D01*
X96010222Y-75622400D01*
X96227951Y-75587915D01*
X96437606Y-75519795D01*
X96634022Y-75419715D01*
X96812365Y-75290142D01*
X96968242Y-75134265D01*
X97097815Y-74955922D01*
X97197895Y-74759506D01*
X97266015Y-74549851D01*
X97300500Y-74332122D01*
X97300500Y-74111678D01*
X98699500Y-74111678D01*
X98699500Y-74332121D01*
X98733985Y-74549852D01*
X98802103Y-74759503D01*
X98802104Y-74759506D01*
X98902187Y-74955925D01*
X99031752Y-75134258D01*
X99031756Y-75134263D01*
X99187636Y-75290143D01*
X99187641Y-75290147D01*
X99343192Y-75403160D01*
X99365978Y-75419715D01*
X99494375Y-75485137D01*
X99562393Y-75519795D01*
X99562396Y-75519796D01*
X99667221Y-75553855D01*
X99772049Y-75587915D01*
X99989778Y-75622400D01*
X99989779Y-75622400D01*
X100210221Y-75622400D01*
X100210222Y-75622400D01*
X100427951Y-75587915D01*
X100637606Y-75519795D01*
X100834022Y-75419715D01*
X101012365Y-75290142D01*
X101168242Y-75134265D01*
X101297815Y-74955922D01*
X101397895Y-74759506D01*
X101466015Y-74549851D01*
X101500500Y-74332122D01*
X101500500Y-74111678D01*
X102899500Y-74111678D01*
X102899500Y-74332121D01*
X102933985Y-74549852D01*
X103002103Y-74759503D01*
X103002104Y-74759506D01*
X103102187Y-74955925D01*
X103231752Y-75134258D01*
X103231756Y-75134263D01*
X103387636Y-75290143D01*
X103387641Y-75290147D01*
X103543192Y-75403160D01*
X103565978Y-75419715D01*
X103694375Y-75485137D01*
X103762393Y-75519795D01*
X103762396Y-75519796D01*
X103867221Y-75553855D01*
X103972049Y-75587915D01*
X104189778Y-75622400D01*
X104189779Y-75622400D01*
X104410221Y-75622400D01*
X104410222Y-75622400D01*
X104627951Y-75587915D01*
X104837606Y-75519795D01*
X105034022Y-75419715D01*
X105212365Y-75290142D01*
X105368242Y-75134265D01*
X105497815Y-74955922D01*
X105597895Y-74759506D01*
X105666015Y-74549851D01*
X105700500Y-74332122D01*
X105700500Y-74300000D01*
X111570130Y-74300000D01*
X111589581Y-74547149D01*
X111647451Y-74788197D01*
X111647455Y-74788209D01*
X111742322Y-75017238D01*
X111742325Y-75017244D01*
X111870324Y-75226122D01*
X112359522Y-74736924D01*
X112450924Y-74873717D01*
X112576283Y-74999076D01*
X112713074Y-75090477D01*
X112223876Y-75579674D01*
X112432753Y-75707674D01*
X112661790Y-75802544D01*
X112661802Y-75802548D01*
X112902850Y-75860418D01*
X113150000Y-75879869D01*
X113397149Y-75860418D01*
X113638197Y-75802548D01*
X113638209Y-75802544D01*
X113867246Y-75707674D01*
X114076122Y-75579674D01*
X113586924Y-75090477D01*
X113723717Y-74999076D01*
X113849076Y-74873717D01*
X113940477Y-74736925D01*
X114429674Y-75226122D01*
X114557674Y-75017246D01*
X114652544Y-74788209D01*
X114652548Y-74788197D01*
X114710418Y-74547149D01*
X114729869Y-74300000D01*
X115770130Y-74300000D01*
X115789581Y-74547149D01*
X115847451Y-74788197D01*
X115847455Y-74788209D01*
X115942322Y-75017238D01*
X115942325Y-75017244D01*
X116070324Y-75226122D01*
X116559522Y-74736924D01*
X116650924Y-74873717D01*
X116776283Y-74999076D01*
X116913074Y-75090477D01*
X116423876Y-75579674D01*
X116632753Y-75707674D01*
X116861790Y-75802544D01*
X116861802Y-75802548D01*
X117102850Y-75860418D01*
X117350000Y-75879869D01*
X117597149Y-75860418D01*
X117838197Y-75802548D01*
X117838209Y-75802544D01*
X118067246Y-75707674D01*
X118276122Y-75579674D01*
X117786924Y-75090477D01*
X117923717Y-74999076D01*
X118049076Y-74873717D01*
X118140477Y-74736925D01*
X118629674Y-75226122D01*
X118757674Y-75017246D01*
X118852544Y-74788209D01*
X118852548Y-74788197D01*
X118910418Y-74547149D01*
X118929869Y-74300000D01*
X119970130Y-74300000D01*
X119989581Y-74547149D01*
X120047451Y-74788197D01*
X120047455Y-74788209D01*
X120142322Y-75017238D01*
X120142325Y-75017244D01*
X120270324Y-75226122D01*
X120759522Y-74736924D01*
X120850924Y-74873717D01*
X120976283Y-74999076D01*
X121113074Y-75090477D01*
X120623876Y-75579674D01*
X120832753Y-75707674D01*
X121061790Y-75802544D01*
X121061802Y-75802548D01*
X121302850Y-75860418D01*
X121550000Y-75879869D01*
X121797149Y-75860418D01*
X122038197Y-75802548D01*
X122038209Y-75802544D01*
X122267246Y-75707674D01*
X122476122Y-75579674D01*
X121986924Y-75090477D01*
X122123717Y-74999076D01*
X122249076Y-74873717D01*
X122340477Y-74736925D01*
X122829674Y-75226122D01*
X122957674Y-75017246D01*
X123052544Y-74788209D01*
X123052548Y-74788197D01*
X123110418Y-74547149D01*
X123129869Y-74300000D01*
X124170130Y-74300000D01*
X124189581Y-74547149D01*
X124247451Y-74788197D01*
X124247455Y-74788209D01*
X124342322Y-75017238D01*
X124342325Y-75017244D01*
X124470324Y-75226122D01*
X124959522Y-74736924D01*
X125050924Y-74873717D01*
X125176283Y-74999076D01*
X125313074Y-75090477D01*
X124823876Y-75579674D01*
X125032753Y-75707674D01*
X125261790Y-75802544D01*
X125261802Y-75802548D01*
X125502850Y-75860418D01*
X125750000Y-75879869D01*
X125997149Y-75860418D01*
X126238197Y-75802548D01*
X126238209Y-75802544D01*
X126467246Y-75707674D01*
X126676122Y-75579674D01*
X126186924Y-75090477D01*
X126323717Y-74999076D01*
X126449076Y-74873717D01*
X126540477Y-74736925D01*
X127029674Y-75226122D01*
X127157674Y-75017246D01*
X127252544Y-74788209D01*
X127252548Y-74788197D01*
X127310418Y-74547149D01*
X127329869Y-74300000D01*
X127310418Y-74052850D01*
X127252548Y-73811802D01*
X127252544Y-73811790D01*
X127157674Y-73582753D01*
X127029674Y-73373876D01*
X126540476Y-73863074D01*
X126449076Y-73726283D01*
X126323717Y-73600924D01*
X126186924Y-73509522D01*
X126676122Y-73020324D01*
X126467244Y-72892325D01*
X126467238Y-72892322D01*
X126238209Y-72797455D01*
X126238197Y-72797451D01*
X125997149Y-72739581D01*
X125750000Y-72720130D01*
X125502850Y-72739581D01*
X125261802Y-72797451D01*
X125261790Y-72797455D01*
X125032761Y-72892322D01*
X125032755Y-72892325D01*
X124823876Y-73020324D01*
X125313075Y-73509522D01*
X125176283Y-73600924D01*
X125050924Y-73726283D01*
X124959522Y-73863074D01*
X124470324Y-73373876D01*
X124342325Y-73582755D01*
X124342322Y-73582761D01*
X124247455Y-73811790D01*
X124247451Y-73811802D01*
X124189581Y-74052850D01*
X124170130Y-74300000D01*
X123129869Y-74300000D01*
X123110418Y-74052850D01*
X123052548Y-73811802D01*
X123052544Y-73811790D01*
X122957674Y-73582753D01*
X122829674Y-73373876D01*
X122340476Y-73863074D01*
X122249076Y-73726283D01*
X122123717Y-73600924D01*
X121986924Y-73509522D01*
X122476122Y-73020324D01*
X122267244Y-72892325D01*
X122267238Y-72892322D01*
X122038209Y-72797455D01*
X122038197Y-72797451D01*
X121797149Y-72739581D01*
X121550000Y-72720130D01*
X121302850Y-72739581D01*
X121061802Y-72797451D01*
X121061790Y-72797455D01*
X120832761Y-72892322D01*
X120832755Y-72892325D01*
X120623876Y-73020324D01*
X121113075Y-73509522D01*
X120976283Y-73600924D01*
X120850924Y-73726283D01*
X120759522Y-73863074D01*
X120270324Y-73373876D01*
X120142325Y-73582755D01*
X120142322Y-73582761D01*
X120047455Y-73811790D01*
X120047451Y-73811802D01*
X119989581Y-74052850D01*
X119970130Y-74300000D01*
X118929869Y-74300000D01*
X118910418Y-74052850D01*
X118852548Y-73811802D01*
X118852544Y-73811790D01*
X118757674Y-73582753D01*
X118629674Y-73373876D01*
X118140476Y-73863074D01*
X118049076Y-73726283D01*
X117923717Y-73600924D01*
X117786924Y-73509522D01*
X118276122Y-73020324D01*
X118067244Y-72892325D01*
X118067238Y-72892322D01*
X117838209Y-72797455D01*
X117838197Y-72797451D01*
X117597149Y-72739581D01*
X117350000Y-72720130D01*
X117102850Y-72739581D01*
X116861802Y-72797451D01*
X116861790Y-72797455D01*
X116632761Y-72892322D01*
X116632755Y-72892325D01*
X116423876Y-73020324D01*
X116913075Y-73509522D01*
X116776283Y-73600924D01*
X116650924Y-73726283D01*
X116559522Y-73863074D01*
X116070324Y-73373876D01*
X115942325Y-73582755D01*
X115942322Y-73582761D01*
X115847455Y-73811790D01*
X115847451Y-73811802D01*
X115789581Y-74052850D01*
X115770130Y-74300000D01*
X114729869Y-74300000D01*
X114710418Y-74052850D01*
X114652548Y-73811802D01*
X114652544Y-73811790D01*
X114557674Y-73582753D01*
X114429674Y-73373876D01*
X113940476Y-73863074D01*
X113849076Y-73726283D01*
X113723717Y-73600924D01*
X113586924Y-73509522D01*
X114076122Y-73020324D01*
X113867244Y-72892325D01*
X113867238Y-72892322D01*
X113638209Y-72797455D01*
X113638197Y-72797451D01*
X113397149Y-72739581D01*
X113150000Y-72720130D01*
X112902850Y-72739581D01*
X112661802Y-72797451D01*
X112661790Y-72797455D01*
X112432761Y-72892322D01*
X112432755Y-72892325D01*
X112223876Y-73020324D01*
X112713075Y-73509522D01*
X112576283Y-73600924D01*
X112450924Y-73726283D01*
X112359522Y-73863074D01*
X111870324Y-73373876D01*
X111742325Y-73582755D01*
X111742322Y-73582761D01*
X111647455Y-73811790D01*
X111647451Y-73811802D01*
X111589581Y-74052850D01*
X111570130Y-74300000D01*
X105700500Y-74300000D01*
X105700500Y-74111678D01*
X105666015Y-73893949D01*
X105597895Y-73684294D01*
X105597895Y-73684293D01*
X105546158Y-73582755D01*
X105497815Y-73487878D01*
X105459096Y-73434586D01*
X105368247Y-73309541D01*
X105368243Y-73309536D01*
X105212363Y-73153656D01*
X105212358Y-73153652D01*
X105034025Y-73024087D01*
X105034024Y-73024086D01*
X105034022Y-73024085D01*
X104971096Y-72992022D01*
X104837606Y-72924004D01*
X104837603Y-72924003D01*
X104627952Y-72855885D01*
X104519086Y-72838642D01*
X104410222Y-72821400D01*
X104189778Y-72821400D01*
X104117201Y-72832895D01*
X103972047Y-72855885D01*
X103762396Y-72924003D01*
X103762393Y-72924004D01*
X103565974Y-73024087D01*
X103387641Y-73153652D01*
X103387636Y-73153656D01*
X103231756Y-73309536D01*
X103231752Y-73309541D01*
X103102187Y-73487874D01*
X103002104Y-73684293D01*
X103002103Y-73684296D01*
X102933985Y-73893947D01*
X102899500Y-74111678D01*
X101500500Y-74111678D01*
X101466015Y-73893949D01*
X101397895Y-73684294D01*
X101397895Y-73684293D01*
X101346158Y-73582755D01*
X101297815Y-73487878D01*
X101259096Y-73434586D01*
X101168247Y-73309541D01*
X101168243Y-73309536D01*
X101012363Y-73153656D01*
X101012358Y-73153652D01*
X100834025Y-73024087D01*
X100834024Y-73024086D01*
X100834022Y-73024085D01*
X100771096Y-72992022D01*
X100637606Y-72924004D01*
X100637603Y-72924003D01*
X100427952Y-72855885D01*
X100319086Y-72838642D01*
X100210222Y-72821400D01*
X99989778Y-72821400D01*
X99917201Y-72832895D01*
X99772047Y-72855885D01*
X99562396Y-72924003D01*
X99562393Y-72924004D01*
X99365974Y-73024087D01*
X99187641Y-73153652D01*
X99187636Y-73153656D01*
X99031756Y-73309536D01*
X99031752Y-73309541D01*
X98902187Y-73487874D01*
X98802104Y-73684293D01*
X98802103Y-73684296D01*
X98733985Y-73893947D01*
X98699500Y-74111678D01*
X97300500Y-74111678D01*
X97266015Y-73893949D01*
X97197895Y-73684294D01*
X97197895Y-73684293D01*
X97146158Y-73582755D01*
X97097815Y-73487878D01*
X97059096Y-73434586D01*
X96968247Y-73309541D01*
X96968243Y-73309536D01*
X96812363Y-73153656D01*
X96812358Y-73153652D01*
X96634025Y-73024087D01*
X96634024Y-73024086D01*
X96634022Y-73024085D01*
X96571096Y-72992022D01*
X96437606Y-72924004D01*
X96437603Y-72924003D01*
X96227952Y-72855885D01*
X96119086Y-72838642D01*
X96010222Y-72821400D01*
X95789778Y-72821400D01*
X95717201Y-72832895D01*
X95572047Y-72855885D01*
X95362396Y-72924003D01*
X95362393Y-72924004D01*
X95165974Y-73024087D01*
X94987641Y-73153652D01*
X94987636Y-73153656D01*
X94831756Y-73309536D01*
X94831752Y-73309541D01*
X94702187Y-73487874D01*
X94602104Y-73684293D01*
X94602103Y-73684296D01*
X94533985Y-73893947D01*
X94499500Y-74111678D01*
X93100500Y-74111678D01*
X93066015Y-73893949D01*
X92997895Y-73684294D01*
X92997895Y-73684293D01*
X92946158Y-73582755D01*
X92897815Y-73487878D01*
X92859096Y-73434586D01*
X92768247Y-73309541D01*
X92768243Y-73309536D01*
X92612363Y-73153656D01*
X92612358Y-73153652D01*
X92434025Y-73024087D01*
X92434024Y-73024086D01*
X92434022Y-73024085D01*
X92371096Y-72992022D01*
X92237606Y-72924004D01*
X92237603Y-72924003D01*
X92027952Y-72855885D01*
X91919086Y-72838642D01*
X91810222Y-72821400D01*
X91589778Y-72821400D01*
X91517201Y-72832895D01*
X91372047Y-72855885D01*
X91162396Y-72924003D01*
X91162393Y-72924004D01*
X90965974Y-73024087D01*
X90787641Y-73153652D01*
X90787636Y-73153656D01*
X90631756Y-73309536D01*
X90631752Y-73309541D01*
X90502187Y-73487874D01*
X90402104Y-73684293D01*
X90402103Y-73684296D01*
X90333985Y-73893947D01*
X90299500Y-74111678D01*
X88900500Y-74111678D01*
X88866015Y-73893949D01*
X88797895Y-73684294D01*
X88797895Y-73684293D01*
X88746158Y-73582755D01*
X88697815Y-73487878D01*
X88659096Y-73434586D01*
X88568247Y-73309541D01*
X88568243Y-73309536D01*
X88412363Y-73153656D01*
X88412358Y-73153652D01*
X88234025Y-73024087D01*
X88234024Y-73024086D01*
X88234022Y-73024085D01*
X88171096Y-72992022D01*
X88037606Y-72924004D01*
X88037603Y-72924003D01*
X87827952Y-72855885D01*
X87719086Y-72838642D01*
X87610222Y-72821400D01*
X87389778Y-72821400D01*
X87317201Y-72832895D01*
X87172047Y-72855885D01*
X86962396Y-72924003D01*
X86962393Y-72924004D01*
X86765974Y-73024087D01*
X86587641Y-73153652D01*
X86587636Y-73153656D01*
X86431756Y-73309536D01*
X86431752Y-73309541D01*
X86302187Y-73487874D01*
X86202104Y-73684293D01*
X86202103Y-73684296D01*
X86133985Y-73893947D01*
X86099500Y-74111678D01*
X84700500Y-74111678D01*
X84666015Y-73893949D01*
X84597895Y-73684294D01*
X84597895Y-73684293D01*
X84546158Y-73582755D01*
X84497815Y-73487878D01*
X84459096Y-73434586D01*
X84368247Y-73309541D01*
X84368243Y-73309536D01*
X84212363Y-73153656D01*
X84212358Y-73153652D01*
X84034025Y-73024087D01*
X84034024Y-73024086D01*
X84034022Y-73024085D01*
X83971096Y-72992022D01*
X83837606Y-72924004D01*
X83837603Y-72924003D01*
X83627952Y-72855885D01*
X83519086Y-72838642D01*
X83410222Y-72821400D01*
X83189778Y-72821400D01*
X83117201Y-72832895D01*
X82972047Y-72855885D01*
X82762396Y-72924003D01*
X82762393Y-72924004D01*
X82565974Y-73024087D01*
X82387641Y-73153652D01*
X82387636Y-73153656D01*
X82231756Y-73309536D01*
X82231752Y-73309541D01*
X82102187Y-73487874D01*
X82002104Y-73684293D01*
X82002103Y-73684296D01*
X81933985Y-73893947D01*
X81899500Y-74111678D01*
X80500500Y-74111678D01*
X80466015Y-73893949D01*
X80397895Y-73684294D01*
X80397895Y-73684293D01*
X80346158Y-73582755D01*
X80297815Y-73487878D01*
X80259096Y-73434586D01*
X80168247Y-73309541D01*
X80168243Y-73309536D01*
X80012363Y-73153656D01*
X80012358Y-73153652D01*
X79834025Y-73024087D01*
X79834024Y-73024086D01*
X79834022Y-73024085D01*
X79771096Y-72992022D01*
X79637606Y-72924004D01*
X79637603Y-72924003D01*
X79427952Y-72855885D01*
X79319086Y-72838642D01*
X79210222Y-72821400D01*
X78989778Y-72821400D01*
X78917201Y-72832895D01*
X78772047Y-72855885D01*
X78562396Y-72924003D01*
X78562393Y-72924004D01*
X78365974Y-73024087D01*
X78187641Y-73153652D01*
X78187636Y-73153656D01*
X78031756Y-73309536D01*
X78031752Y-73309541D01*
X77902187Y-73487874D01*
X77802104Y-73684293D01*
X77802103Y-73684296D01*
X77733985Y-73893947D01*
X77699500Y-74111678D01*
X76300500Y-74111678D01*
X76266015Y-73893949D01*
X76197895Y-73684294D01*
X76197895Y-73684293D01*
X76146158Y-73582755D01*
X76097815Y-73487878D01*
X76059096Y-73434586D01*
X75968247Y-73309541D01*
X75968243Y-73309536D01*
X75812363Y-73153656D01*
X75812358Y-73153652D01*
X75634025Y-73024087D01*
X75634024Y-73024086D01*
X75634022Y-73024085D01*
X75571096Y-72992022D01*
X75437606Y-72924004D01*
X75437603Y-72924003D01*
X75227952Y-72855885D01*
X75119086Y-72838642D01*
X75010222Y-72821400D01*
X74789778Y-72821400D01*
X74717201Y-72832895D01*
X74572047Y-72855885D01*
X74362396Y-72924003D01*
X74362393Y-72924004D01*
X74165974Y-73024087D01*
X73987641Y-73153652D01*
X73987636Y-73153656D01*
X73831756Y-73309536D01*
X73831752Y-73309541D01*
X73702187Y-73487874D01*
X73602104Y-73684293D01*
X73602103Y-73684296D01*
X73533985Y-73893947D01*
X73499500Y-74111678D01*
X72100500Y-74111678D01*
X72066015Y-73893949D01*
X71997895Y-73684294D01*
X71997895Y-73684293D01*
X71946158Y-73582755D01*
X71897815Y-73487878D01*
X71859096Y-73434586D01*
X71768247Y-73309541D01*
X71768243Y-73309536D01*
X71612363Y-73153656D01*
X71612358Y-73153652D01*
X71434025Y-73024087D01*
X71434024Y-73024086D01*
X71434022Y-73024085D01*
X71371096Y-72992022D01*
X71237606Y-72924004D01*
X71237603Y-72924003D01*
X71027952Y-72855885D01*
X70919086Y-72838642D01*
X70810222Y-72821400D01*
X70589778Y-72821400D01*
X70517201Y-72832895D01*
X70372047Y-72855885D01*
X70162396Y-72924003D01*
X70162393Y-72924004D01*
X69965974Y-73024087D01*
X69787641Y-73153652D01*
X69787636Y-73153656D01*
X69631756Y-73309536D01*
X69631752Y-73309541D01*
X69502187Y-73487874D01*
X69402104Y-73684293D01*
X69402103Y-73684296D01*
X69333985Y-73893947D01*
X69299500Y-74111678D01*
X67900500Y-74111678D01*
X67866015Y-73893949D01*
X67797895Y-73684294D01*
X67797895Y-73684293D01*
X67746158Y-73582755D01*
X67697815Y-73487878D01*
X67659096Y-73434586D01*
X67568247Y-73309541D01*
X67568243Y-73309536D01*
X67412363Y-73153656D01*
X67412358Y-73153652D01*
X67234025Y-73024087D01*
X67234024Y-73024086D01*
X67234022Y-73024085D01*
X67171096Y-72992022D01*
X67037606Y-72924004D01*
X67037603Y-72924003D01*
X66827952Y-72855885D01*
X66719086Y-72838642D01*
X66610222Y-72821400D01*
X66389778Y-72821400D01*
X66317201Y-72832895D01*
X66172047Y-72855885D01*
X65962396Y-72924003D01*
X65962393Y-72924004D01*
X65765974Y-73024087D01*
X65587641Y-73153652D01*
X65587636Y-73153656D01*
X65431756Y-73309536D01*
X65431752Y-73309541D01*
X65302187Y-73487874D01*
X65202104Y-73684293D01*
X65202103Y-73684296D01*
X65133985Y-73893947D01*
X65099500Y-74111678D01*
X63700500Y-74111678D01*
X63666015Y-73893949D01*
X63597895Y-73684294D01*
X63597895Y-73684293D01*
X63546158Y-73582755D01*
X63497815Y-73487878D01*
X63459096Y-73434586D01*
X63368247Y-73309541D01*
X63368243Y-73309536D01*
X63212363Y-73153656D01*
X63212358Y-73153652D01*
X63034025Y-73024087D01*
X63034024Y-73024086D01*
X63034022Y-73024085D01*
X62971096Y-72992022D01*
X62837606Y-72924004D01*
X62837603Y-72924003D01*
X62627952Y-72855885D01*
X62519086Y-72838642D01*
X62410222Y-72821400D01*
X62189778Y-72821400D01*
X62117201Y-72832895D01*
X61972047Y-72855885D01*
X61762396Y-72924003D01*
X61762393Y-72924004D01*
X61565974Y-73024087D01*
X61387641Y-73153652D01*
X61387636Y-73153656D01*
X61231756Y-73309536D01*
X61231752Y-73309541D01*
X61102187Y-73487874D01*
X61002104Y-73684293D01*
X61002103Y-73684296D01*
X60933985Y-73893947D01*
X60899500Y-74111678D01*
X59500500Y-74111678D01*
X59466015Y-73893949D01*
X59397895Y-73684294D01*
X59397895Y-73684293D01*
X59346158Y-73582755D01*
X59297815Y-73487878D01*
X59259096Y-73434586D01*
X59168247Y-73309541D01*
X59168243Y-73309536D01*
X59012363Y-73153656D01*
X59012358Y-73153652D01*
X58834025Y-73024087D01*
X58834024Y-73024086D01*
X58834022Y-73024085D01*
X58771096Y-72992022D01*
X58637606Y-72924004D01*
X58637603Y-72924003D01*
X58427952Y-72855885D01*
X58319086Y-72838642D01*
X58210222Y-72821400D01*
X57989778Y-72821400D01*
X57917201Y-72832895D01*
X57772047Y-72855885D01*
X57562396Y-72924003D01*
X57562393Y-72924004D01*
X57365974Y-73024087D01*
X57187641Y-73153652D01*
X57187636Y-73153656D01*
X57031756Y-73309536D01*
X57031752Y-73309541D01*
X56902187Y-73487874D01*
X56802104Y-73684293D01*
X56802103Y-73684296D01*
X56733985Y-73893947D01*
X56699500Y-74111678D01*
X47750000Y-74111678D01*
X47750000Y-68611678D01*
X56699500Y-68611678D01*
X56699500Y-68832121D01*
X56733985Y-69049852D01*
X56802103Y-69259503D01*
X56802104Y-69259506D01*
X56902187Y-69455925D01*
X57031752Y-69634258D01*
X57031756Y-69634263D01*
X57187636Y-69790143D01*
X57187641Y-69790147D01*
X57343192Y-69903160D01*
X57365978Y-69919715D01*
X57489164Y-69982482D01*
X57562393Y-70019795D01*
X57562396Y-70019796D01*
X57667221Y-70053855D01*
X57772049Y-70087915D01*
X57989778Y-70122400D01*
X57989779Y-70122400D01*
X58210221Y-70122400D01*
X58210222Y-70122400D01*
X58427951Y-70087915D01*
X58637606Y-70019795D01*
X58834022Y-69919715D01*
X59012365Y-69790142D01*
X59168242Y-69634265D01*
X59297815Y-69455922D01*
X59397895Y-69259506D01*
X59466015Y-69049851D01*
X59500500Y-68832122D01*
X59500500Y-68611678D01*
X60899500Y-68611678D01*
X60899500Y-68832121D01*
X60933985Y-69049852D01*
X61002103Y-69259503D01*
X61002104Y-69259506D01*
X61102187Y-69455925D01*
X61231752Y-69634258D01*
X61231756Y-69634263D01*
X61387636Y-69790143D01*
X61387641Y-69790147D01*
X61543192Y-69903160D01*
X61565978Y-69919715D01*
X61689164Y-69982482D01*
X61762393Y-70019795D01*
X61762396Y-70019796D01*
X61867221Y-70053855D01*
X61972049Y-70087915D01*
X62189778Y-70122400D01*
X62189779Y-70122400D01*
X62410221Y-70122400D01*
X62410222Y-70122400D01*
X62627951Y-70087915D01*
X62837606Y-70019795D01*
X63034022Y-69919715D01*
X63212365Y-69790142D01*
X63368242Y-69634265D01*
X63497815Y-69455922D01*
X63597895Y-69259506D01*
X63666015Y-69049851D01*
X63700500Y-68832122D01*
X63700500Y-68611678D01*
X65099500Y-68611678D01*
X65099500Y-68832121D01*
X65133985Y-69049852D01*
X65202103Y-69259503D01*
X65202104Y-69259506D01*
X65302187Y-69455925D01*
X65431752Y-69634258D01*
X65431756Y-69634263D01*
X65587636Y-69790143D01*
X65587641Y-69790147D01*
X65743192Y-69903160D01*
X65765978Y-69919715D01*
X65889164Y-69982482D01*
X65962393Y-70019795D01*
X65962396Y-70019796D01*
X66067221Y-70053855D01*
X66172049Y-70087915D01*
X66389778Y-70122400D01*
X66389779Y-70122400D01*
X66610221Y-70122400D01*
X66610222Y-70122400D01*
X66827951Y-70087915D01*
X67037606Y-70019795D01*
X67234022Y-69919715D01*
X67412365Y-69790142D01*
X67568242Y-69634265D01*
X67697815Y-69455922D01*
X67797895Y-69259506D01*
X67866015Y-69049851D01*
X67900500Y-68832122D01*
X67900500Y-68611678D01*
X69299500Y-68611678D01*
X69299500Y-68832121D01*
X69333985Y-69049852D01*
X69402103Y-69259503D01*
X69402104Y-69259506D01*
X69502187Y-69455925D01*
X69631752Y-69634258D01*
X69631756Y-69634263D01*
X69787636Y-69790143D01*
X69787641Y-69790147D01*
X69943192Y-69903160D01*
X69965978Y-69919715D01*
X70089164Y-69982482D01*
X70162393Y-70019795D01*
X70162396Y-70019796D01*
X70267221Y-70053855D01*
X70372049Y-70087915D01*
X70589778Y-70122400D01*
X70589779Y-70122400D01*
X70810221Y-70122400D01*
X70810222Y-70122400D01*
X71027951Y-70087915D01*
X71237606Y-70019795D01*
X71434022Y-69919715D01*
X71612365Y-69790142D01*
X71768242Y-69634265D01*
X71897815Y-69455922D01*
X71997895Y-69259506D01*
X72066015Y-69049851D01*
X72100500Y-68832122D01*
X72100500Y-68611678D01*
X73499500Y-68611678D01*
X73499500Y-68832121D01*
X73533985Y-69049852D01*
X73602103Y-69259503D01*
X73602104Y-69259506D01*
X73702187Y-69455925D01*
X73831752Y-69634258D01*
X73831756Y-69634263D01*
X73987636Y-69790143D01*
X73987641Y-69790147D01*
X74143192Y-69903160D01*
X74165978Y-69919715D01*
X74289164Y-69982482D01*
X74362393Y-70019795D01*
X74362396Y-70019796D01*
X74467221Y-70053855D01*
X74572049Y-70087915D01*
X74789778Y-70122400D01*
X74789779Y-70122400D01*
X75010221Y-70122400D01*
X75010222Y-70122400D01*
X75227951Y-70087915D01*
X75437606Y-70019795D01*
X75634022Y-69919715D01*
X75812365Y-69790142D01*
X75968242Y-69634265D01*
X76097815Y-69455922D01*
X76197895Y-69259506D01*
X76266015Y-69049851D01*
X76300500Y-68832122D01*
X76300500Y-68611678D01*
X77699500Y-68611678D01*
X77699500Y-68832121D01*
X77733985Y-69049852D01*
X77802103Y-69259503D01*
X77802104Y-69259506D01*
X77902187Y-69455925D01*
X78031752Y-69634258D01*
X78031756Y-69634263D01*
X78187636Y-69790143D01*
X78187641Y-69790147D01*
X78343192Y-69903160D01*
X78365978Y-69919715D01*
X78489164Y-69982482D01*
X78562393Y-70019795D01*
X78562396Y-70019796D01*
X78667221Y-70053855D01*
X78772049Y-70087915D01*
X78989778Y-70122400D01*
X78989779Y-70122400D01*
X79210221Y-70122400D01*
X79210222Y-70122400D01*
X79427951Y-70087915D01*
X79637606Y-70019795D01*
X79834022Y-69919715D01*
X80012365Y-69790142D01*
X80168242Y-69634265D01*
X80297815Y-69455922D01*
X80397895Y-69259506D01*
X80466015Y-69049851D01*
X80500500Y-68832122D01*
X80500500Y-68611678D01*
X81899500Y-68611678D01*
X81899500Y-68832121D01*
X81933985Y-69049852D01*
X82002103Y-69259503D01*
X82002104Y-69259506D01*
X82102187Y-69455925D01*
X82231752Y-69634258D01*
X82231756Y-69634263D01*
X82387636Y-69790143D01*
X82387641Y-69790147D01*
X82543192Y-69903160D01*
X82565978Y-69919715D01*
X82689164Y-69982482D01*
X82762393Y-70019795D01*
X82762396Y-70019796D01*
X82867221Y-70053855D01*
X82972049Y-70087915D01*
X83189778Y-70122400D01*
X83189779Y-70122400D01*
X83410221Y-70122400D01*
X83410222Y-70122400D01*
X83627951Y-70087915D01*
X83837606Y-70019795D01*
X84034022Y-69919715D01*
X84212365Y-69790142D01*
X84368242Y-69634265D01*
X84497815Y-69455922D01*
X84597895Y-69259506D01*
X84666015Y-69049851D01*
X84700500Y-68832122D01*
X84700500Y-68611678D01*
X86099500Y-68611678D01*
X86099500Y-68832121D01*
X86133985Y-69049852D01*
X86202103Y-69259503D01*
X86202104Y-69259506D01*
X86302187Y-69455925D01*
X86431752Y-69634258D01*
X86431756Y-69634263D01*
X86587636Y-69790143D01*
X86587641Y-69790147D01*
X86743192Y-69903160D01*
X86765978Y-69919715D01*
X86889164Y-69982482D01*
X86962393Y-70019795D01*
X86962396Y-70019796D01*
X87067221Y-70053855D01*
X87172049Y-70087915D01*
X87389778Y-70122400D01*
X87389779Y-70122400D01*
X87610221Y-70122400D01*
X87610222Y-70122400D01*
X87827951Y-70087915D01*
X88037606Y-70019795D01*
X88234022Y-69919715D01*
X88412365Y-69790142D01*
X88568242Y-69634265D01*
X88697815Y-69455922D01*
X88797895Y-69259506D01*
X88866015Y-69049851D01*
X88900500Y-68832122D01*
X88900500Y-68611678D01*
X90299500Y-68611678D01*
X90299500Y-68832121D01*
X90333985Y-69049852D01*
X90402103Y-69259503D01*
X90402104Y-69259506D01*
X90502187Y-69455925D01*
X90631752Y-69634258D01*
X90631756Y-69634263D01*
X90787636Y-69790143D01*
X90787641Y-69790147D01*
X90943192Y-69903160D01*
X90965978Y-69919715D01*
X91089164Y-69982482D01*
X91162393Y-70019795D01*
X91162396Y-70019796D01*
X91267221Y-70053855D01*
X91372049Y-70087915D01*
X91589778Y-70122400D01*
X91589779Y-70122400D01*
X91810221Y-70122400D01*
X91810222Y-70122400D01*
X92027951Y-70087915D01*
X92237606Y-70019795D01*
X92434022Y-69919715D01*
X92612365Y-69790142D01*
X92768242Y-69634265D01*
X92897815Y-69455922D01*
X92997895Y-69259506D01*
X93066015Y-69049851D01*
X93100500Y-68832122D01*
X93100500Y-68721900D01*
X94320130Y-68721900D01*
X94339581Y-68969049D01*
X94397451Y-69210097D01*
X94397455Y-69210109D01*
X94492322Y-69439138D01*
X94492325Y-69439144D01*
X94620324Y-69648022D01*
X95109522Y-69158824D01*
X95200924Y-69295617D01*
X95326283Y-69420976D01*
X95463074Y-69512377D01*
X94973876Y-70001574D01*
X95182753Y-70129574D01*
X95411790Y-70224444D01*
X95411802Y-70224448D01*
X95652850Y-70282318D01*
X95900000Y-70301769D01*
X96147149Y-70282318D01*
X96388197Y-70224448D01*
X96388209Y-70224444D01*
X96617246Y-70129574D01*
X96826122Y-70001574D01*
X96336924Y-69512377D01*
X96473717Y-69420976D01*
X96599076Y-69295617D01*
X96690477Y-69158824D01*
X97179674Y-69648022D01*
X97307674Y-69439146D01*
X97402544Y-69210109D01*
X97402548Y-69210097D01*
X97460418Y-68969049D01*
X97479869Y-68721900D01*
X98520130Y-68721900D01*
X98539581Y-68969049D01*
X98597451Y-69210097D01*
X98597455Y-69210109D01*
X98692322Y-69439138D01*
X98692325Y-69439144D01*
X98820324Y-69648022D01*
X99309522Y-69158824D01*
X99400924Y-69295617D01*
X99526283Y-69420976D01*
X99663074Y-69512377D01*
X99173876Y-70001574D01*
X99382753Y-70129574D01*
X99611790Y-70224444D01*
X99611802Y-70224448D01*
X99852850Y-70282318D01*
X100100000Y-70301769D01*
X100347149Y-70282318D01*
X100588197Y-70224448D01*
X100588209Y-70224444D01*
X100817246Y-70129574D01*
X101026122Y-70001574D01*
X100536924Y-69512377D01*
X100673717Y-69420976D01*
X100799076Y-69295617D01*
X100890477Y-69158825D01*
X101379674Y-69648022D01*
X101507674Y-69439146D01*
X101602544Y-69210109D01*
X101602548Y-69210097D01*
X101660418Y-68969049D01*
X101679869Y-68721900D01*
X101671194Y-68611678D01*
X102899500Y-68611678D01*
X102899500Y-68832121D01*
X102933985Y-69049852D01*
X103002103Y-69259503D01*
X103002104Y-69259506D01*
X103102187Y-69455925D01*
X103231752Y-69634258D01*
X103231756Y-69634263D01*
X103387636Y-69790143D01*
X103387641Y-69790147D01*
X103543192Y-69903160D01*
X103565978Y-69919715D01*
X103689164Y-69982482D01*
X103762393Y-70019795D01*
X103762396Y-70019796D01*
X103867221Y-70053855D01*
X103972049Y-70087915D01*
X104189778Y-70122400D01*
X104189779Y-70122400D01*
X104410221Y-70122400D01*
X104410222Y-70122400D01*
X104627951Y-70087915D01*
X104837606Y-70019795D01*
X105034022Y-69919715D01*
X105212365Y-69790142D01*
X105368242Y-69634265D01*
X105497815Y-69455922D01*
X105597895Y-69259506D01*
X105666015Y-69049851D01*
X105700500Y-68832122D01*
X105700500Y-68611678D01*
X105666015Y-68393949D01*
X105631955Y-68289121D01*
X105597896Y-68184296D01*
X105597895Y-68184293D01*
X105546041Y-68082526D01*
X105497815Y-67987878D01*
X105412958Y-67871081D01*
X105368247Y-67809541D01*
X105368243Y-67809536D01*
X105235842Y-67677135D01*
X111574500Y-67677135D01*
X111574500Y-69922870D01*
X111574501Y-69922876D01*
X111580908Y-69982483D01*
X111631202Y-70117328D01*
X111631206Y-70117335D01*
X111717452Y-70232544D01*
X111717455Y-70232547D01*
X111832664Y-70318793D01*
X111832671Y-70318797D01*
X111967517Y-70369091D01*
X111967516Y-70369091D01*
X111974444Y-70369835D01*
X112027127Y-70375500D01*
X114272872Y-70375499D01*
X114332483Y-70369091D01*
X114467331Y-70318796D01*
X114582546Y-70232546D01*
X114668796Y-70117331D01*
X114719091Y-69982483D01*
X114725500Y-69922873D01*
X114725499Y-68800000D01*
X115769628Y-68800000D01*
X115789085Y-69047228D01*
X115846976Y-69288362D01*
X115941877Y-69517474D01*
X116071450Y-69728916D01*
X116071453Y-69728921D01*
X116123741Y-69790142D01*
X116232508Y-69917492D01*
X116308602Y-69982482D01*
X116421078Y-70078546D01*
X116421083Y-70078549D01*
X116632525Y-70208122D01*
X116861637Y-70303023D01*
X116927341Y-70318797D01*
X117102775Y-70360915D01*
X117350000Y-70380372D01*
X117597225Y-70360915D01*
X117838362Y-70303023D01*
X118067474Y-70208122D01*
X118278919Y-70078548D01*
X118467492Y-69917492D01*
X118628548Y-69728919D01*
X118758122Y-69517474D01*
X118853023Y-69288362D01*
X118910915Y-69047225D01*
X118930372Y-68800000D01*
X119969628Y-68800000D01*
X119989085Y-69047228D01*
X120046976Y-69288362D01*
X120141877Y-69517474D01*
X120271450Y-69728916D01*
X120271453Y-69728921D01*
X120323741Y-69790142D01*
X120432508Y-69917492D01*
X120508602Y-69982482D01*
X120621078Y-70078546D01*
X120621083Y-70078549D01*
X120832525Y-70208122D01*
X121061637Y-70303023D01*
X121127341Y-70318797D01*
X121302775Y-70360915D01*
X121550000Y-70380372D01*
X121797225Y-70360915D01*
X122038362Y-70303023D01*
X122267474Y-70208122D01*
X122478919Y-70078548D01*
X122667492Y-69917492D01*
X122828548Y-69728919D01*
X122958122Y-69517474D01*
X123053023Y-69288362D01*
X123110915Y-69047225D01*
X123130372Y-68800000D01*
X124169628Y-68800000D01*
X124189085Y-69047228D01*
X124246976Y-69288362D01*
X124341877Y-69517474D01*
X124471450Y-69728916D01*
X124471453Y-69728921D01*
X124523741Y-69790142D01*
X124632508Y-69917492D01*
X124708602Y-69982482D01*
X124821078Y-70078546D01*
X124821083Y-70078549D01*
X125032525Y-70208122D01*
X125261637Y-70303023D01*
X125327341Y-70318797D01*
X125502775Y-70360915D01*
X125750000Y-70380372D01*
X125997225Y-70360915D01*
X126238362Y-70303023D01*
X126467474Y-70208122D01*
X126678919Y-70078548D01*
X126867492Y-69917492D01*
X127028548Y-69728919D01*
X127158122Y-69517474D01*
X127253023Y-69288362D01*
X127310915Y-69047225D01*
X127330372Y-68800000D01*
X127310915Y-68552775D01*
X127253023Y-68311638D01*
X127200277Y-68184296D01*
X127158122Y-68082525D01*
X127028549Y-67871083D01*
X127028546Y-67871078D01*
X126964232Y-67795776D01*
X126867492Y-67682508D01*
X126764399Y-67594458D01*
X126678921Y-67521453D01*
X126678916Y-67521450D01*
X126467474Y-67391877D01*
X126238362Y-67296976D01*
X125997228Y-67239085D01*
X125750000Y-67219628D01*
X125502771Y-67239085D01*
X125261637Y-67296976D01*
X125032525Y-67391877D01*
X124821083Y-67521450D01*
X124821078Y-67521453D01*
X124632508Y-67682508D01*
X124471453Y-67871078D01*
X124471450Y-67871083D01*
X124341877Y-68082525D01*
X124246976Y-68311637D01*
X124189085Y-68552771D01*
X124169628Y-68800000D01*
X123130372Y-68800000D01*
X123110915Y-68552775D01*
X123053023Y-68311638D01*
X123000277Y-68184296D01*
X122958122Y-68082525D01*
X122828549Y-67871083D01*
X122828546Y-67871078D01*
X122764232Y-67795776D01*
X122667492Y-67682508D01*
X122564399Y-67594458D01*
X122478921Y-67521453D01*
X122478916Y-67521450D01*
X122267474Y-67391877D01*
X122038362Y-67296976D01*
X121797228Y-67239085D01*
X121550000Y-67219628D01*
X121302771Y-67239085D01*
X121061637Y-67296976D01*
X120832525Y-67391877D01*
X120621083Y-67521450D01*
X120621078Y-67521453D01*
X120432508Y-67682508D01*
X120271453Y-67871078D01*
X120271450Y-67871083D01*
X120141877Y-68082525D01*
X120046976Y-68311637D01*
X119989085Y-68552771D01*
X119969628Y-68800000D01*
X118930372Y-68800000D01*
X118910915Y-68552775D01*
X118853023Y-68311638D01*
X118800277Y-68184296D01*
X118758122Y-68082525D01*
X118628549Y-67871083D01*
X118628546Y-67871078D01*
X118564232Y-67795776D01*
X118467492Y-67682508D01*
X118364399Y-67594458D01*
X118278921Y-67521453D01*
X118278916Y-67521450D01*
X118067474Y-67391877D01*
X117838362Y-67296976D01*
X117597228Y-67239085D01*
X117350000Y-67219628D01*
X117102771Y-67239085D01*
X116861637Y-67296976D01*
X116632525Y-67391877D01*
X116421083Y-67521450D01*
X116421078Y-67521453D01*
X116232508Y-67682508D01*
X116071453Y-67871078D01*
X116071450Y-67871083D01*
X115941877Y-68082525D01*
X115846976Y-68311637D01*
X115789085Y-68552771D01*
X115769628Y-68800000D01*
X114725499Y-68800000D01*
X114725499Y-67677128D01*
X114719091Y-67617517D01*
X114683261Y-67521453D01*
X114668797Y-67482671D01*
X114668793Y-67482664D01*
X114582547Y-67367455D01*
X114582544Y-67367452D01*
X114467335Y-67281206D01*
X114467328Y-67281202D01*
X114332482Y-67230908D01*
X114332483Y-67230908D01*
X114272883Y-67224501D01*
X114272881Y-67224500D01*
X114272873Y-67224500D01*
X114272864Y-67224500D01*
X112027129Y-67224500D01*
X112027123Y-67224501D01*
X111967516Y-67230908D01*
X111832671Y-67281202D01*
X111832664Y-67281206D01*
X111717455Y-67367452D01*
X111717452Y-67367455D01*
X111631206Y-67482664D01*
X111631202Y-67482671D01*
X111580908Y-67617517D01*
X111577023Y-67653656D01*
X111574501Y-67677123D01*
X111574500Y-67677135D01*
X105235842Y-67677135D01*
X105212363Y-67653656D01*
X105212358Y-67653652D01*
X105034025Y-67524087D01*
X105034024Y-67524086D01*
X105034022Y-67524085D01*
X104971096Y-67492022D01*
X104837606Y-67424004D01*
X104837603Y-67424003D01*
X104627952Y-67355885D01*
X104519086Y-67338642D01*
X104410222Y-67321400D01*
X104189778Y-67321400D01*
X104117201Y-67332895D01*
X103972047Y-67355885D01*
X103762396Y-67424003D01*
X103762393Y-67424004D01*
X103565974Y-67524087D01*
X103387641Y-67653652D01*
X103387636Y-67653656D01*
X103231756Y-67809536D01*
X103231752Y-67809541D01*
X103102187Y-67987874D01*
X103002104Y-68184293D01*
X103002103Y-68184296D01*
X102933985Y-68393947D01*
X102899500Y-68611678D01*
X101671194Y-68611678D01*
X101660418Y-68474750D01*
X101602548Y-68233702D01*
X101602544Y-68233690D01*
X101507674Y-68004653D01*
X101379674Y-67795776D01*
X100890476Y-68284974D01*
X100799076Y-68148183D01*
X100673717Y-68022824D01*
X100536924Y-67931422D01*
X101026122Y-67442224D01*
X100817244Y-67314225D01*
X100817238Y-67314222D01*
X100588209Y-67219355D01*
X100588197Y-67219351D01*
X100347149Y-67161481D01*
X100100000Y-67142030D01*
X99852850Y-67161481D01*
X99611802Y-67219351D01*
X99611790Y-67219355D01*
X99382761Y-67314222D01*
X99382755Y-67314225D01*
X99173876Y-67442224D01*
X99663075Y-67931422D01*
X99526283Y-68022824D01*
X99400924Y-68148183D01*
X99309522Y-68284974D01*
X98820324Y-67795776D01*
X98692325Y-68004655D01*
X98692322Y-68004661D01*
X98597455Y-68233690D01*
X98597451Y-68233702D01*
X98539581Y-68474750D01*
X98520130Y-68721900D01*
X97479869Y-68721900D01*
X97460418Y-68474750D01*
X97402548Y-68233702D01*
X97402544Y-68233690D01*
X97307674Y-68004653D01*
X97179674Y-67795776D01*
X96690476Y-68284974D01*
X96599076Y-68148183D01*
X96473717Y-68022824D01*
X96336924Y-67931422D01*
X96826122Y-67442224D01*
X96617244Y-67314225D01*
X96617238Y-67314222D01*
X96388209Y-67219355D01*
X96388197Y-67219351D01*
X96147149Y-67161481D01*
X95900000Y-67142030D01*
X95652850Y-67161481D01*
X95411802Y-67219351D01*
X95411790Y-67219355D01*
X95182761Y-67314222D01*
X95182755Y-67314225D01*
X94973876Y-67442224D01*
X95463075Y-67931422D01*
X95326283Y-68022824D01*
X95200924Y-68148183D01*
X95109522Y-68284974D01*
X94620324Y-67795776D01*
X94492325Y-68004655D01*
X94492322Y-68004661D01*
X94397455Y-68233690D01*
X94397451Y-68233702D01*
X94339581Y-68474750D01*
X94320130Y-68721900D01*
X93100500Y-68721900D01*
X93100500Y-68611678D01*
X93066015Y-68393949D01*
X93031955Y-68289121D01*
X92997896Y-68184296D01*
X92997895Y-68184293D01*
X92946041Y-68082526D01*
X92897815Y-67987878D01*
X92812958Y-67871081D01*
X92768247Y-67809541D01*
X92768243Y-67809536D01*
X92612363Y-67653656D01*
X92612358Y-67653652D01*
X92434025Y-67524087D01*
X92434024Y-67524086D01*
X92434022Y-67524085D01*
X92371096Y-67492022D01*
X92237606Y-67424004D01*
X92237603Y-67424003D01*
X92027952Y-67355885D01*
X91919086Y-67338642D01*
X91810222Y-67321400D01*
X91589778Y-67321400D01*
X91517201Y-67332895D01*
X91372047Y-67355885D01*
X91162396Y-67424003D01*
X91162393Y-67424004D01*
X90965974Y-67524087D01*
X90787641Y-67653652D01*
X90787636Y-67653656D01*
X90631756Y-67809536D01*
X90631752Y-67809541D01*
X90502187Y-67987874D01*
X90402104Y-68184293D01*
X90402103Y-68184296D01*
X90333985Y-68393947D01*
X90299500Y-68611678D01*
X88900500Y-68611678D01*
X88866015Y-68393949D01*
X88831955Y-68289121D01*
X88797896Y-68184296D01*
X88797895Y-68184293D01*
X88746041Y-68082526D01*
X88697815Y-67987878D01*
X88612958Y-67871081D01*
X88568247Y-67809541D01*
X88568243Y-67809536D01*
X88412363Y-67653656D01*
X88412358Y-67653652D01*
X88234025Y-67524087D01*
X88234024Y-67524086D01*
X88234022Y-67524085D01*
X88171096Y-67492022D01*
X88037606Y-67424004D01*
X88037603Y-67424003D01*
X87827952Y-67355885D01*
X87719086Y-67338642D01*
X87610222Y-67321400D01*
X87389778Y-67321400D01*
X87317201Y-67332895D01*
X87172047Y-67355885D01*
X86962396Y-67424003D01*
X86962393Y-67424004D01*
X86765974Y-67524087D01*
X86587641Y-67653652D01*
X86587636Y-67653656D01*
X86431756Y-67809536D01*
X86431752Y-67809541D01*
X86302187Y-67987874D01*
X86202104Y-68184293D01*
X86202103Y-68184296D01*
X86133985Y-68393947D01*
X86099500Y-68611678D01*
X84700500Y-68611678D01*
X84666015Y-68393949D01*
X84631955Y-68289121D01*
X84597896Y-68184296D01*
X84597895Y-68184293D01*
X84546041Y-68082526D01*
X84497815Y-67987878D01*
X84412958Y-67871081D01*
X84368247Y-67809541D01*
X84368243Y-67809536D01*
X84212363Y-67653656D01*
X84212358Y-67653652D01*
X84034025Y-67524087D01*
X84034024Y-67524086D01*
X84034022Y-67524085D01*
X83971096Y-67492022D01*
X83837606Y-67424004D01*
X83837603Y-67424003D01*
X83627952Y-67355885D01*
X83519086Y-67338642D01*
X83410222Y-67321400D01*
X83189778Y-67321400D01*
X83117201Y-67332895D01*
X82972047Y-67355885D01*
X82762396Y-67424003D01*
X82762393Y-67424004D01*
X82565974Y-67524087D01*
X82387641Y-67653652D01*
X82387636Y-67653656D01*
X82231756Y-67809536D01*
X82231752Y-67809541D01*
X82102187Y-67987874D01*
X82002104Y-68184293D01*
X82002103Y-68184296D01*
X81933985Y-68393947D01*
X81899500Y-68611678D01*
X80500500Y-68611678D01*
X80466015Y-68393949D01*
X80431955Y-68289121D01*
X80397896Y-68184296D01*
X80397895Y-68184293D01*
X80346041Y-68082526D01*
X80297815Y-67987878D01*
X80212958Y-67871081D01*
X80168247Y-67809541D01*
X80168243Y-67809536D01*
X80012363Y-67653656D01*
X80012358Y-67653652D01*
X79834025Y-67524087D01*
X79834024Y-67524086D01*
X79834022Y-67524085D01*
X79771096Y-67492022D01*
X79637606Y-67424004D01*
X79637603Y-67424003D01*
X79427952Y-67355885D01*
X79319086Y-67338642D01*
X79210222Y-67321400D01*
X78989778Y-67321400D01*
X78917201Y-67332895D01*
X78772047Y-67355885D01*
X78562396Y-67424003D01*
X78562393Y-67424004D01*
X78365974Y-67524087D01*
X78187641Y-67653652D01*
X78187636Y-67653656D01*
X78031756Y-67809536D01*
X78031752Y-67809541D01*
X77902187Y-67987874D01*
X77802104Y-68184293D01*
X77802103Y-68184296D01*
X77733985Y-68393947D01*
X77699500Y-68611678D01*
X76300500Y-68611678D01*
X76266015Y-68393949D01*
X76231955Y-68289121D01*
X76197896Y-68184296D01*
X76197895Y-68184293D01*
X76146041Y-68082526D01*
X76097815Y-67987878D01*
X76012958Y-67871081D01*
X75968247Y-67809541D01*
X75968243Y-67809536D01*
X75812363Y-67653656D01*
X75812358Y-67653652D01*
X75634025Y-67524087D01*
X75634024Y-67524086D01*
X75634022Y-67524085D01*
X75571096Y-67492022D01*
X75437606Y-67424004D01*
X75437603Y-67424003D01*
X75227952Y-67355885D01*
X75119086Y-67338642D01*
X75010222Y-67321400D01*
X74789778Y-67321400D01*
X74717201Y-67332895D01*
X74572047Y-67355885D01*
X74362396Y-67424003D01*
X74362393Y-67424004D01*
X74165974Y-67524087D01*
X73987641Y-67653652D01*
X73987636Y-67653656D01*
X73831756Y-67809536D01*
X73831752Y-67809541D01*
X73702187Y-67987874D01*
X73602104Y-68184293D01*
X73602103Y-68184296D01*
X73533985Y-68393947D01*
X73499500Y-68611678D01*
X72100500Y-68611678D01*
X72066015Y-68393949D01*
X72031955Y-68289121D01*
X71997896Y-68184296D01*
X71997895Y-68184293D01*
X71946041Y-68082526D01*
X71897815Y-67987878D01*
X71812958Y-67871081D01*
X71768247Y-67809541D01*
X71768243Y-67809536D01*
X71612363Y-67653656D01*
X71612358Y-67653652D01*
X71434025Y-67524087D01*
X71434024Y-67524086D01*
X71434022Y-67524085D01*
X71371096Y-67492022D01*
X71237606Y-67424004D01*
X71237603Y-67424003D01*
X71027952Y-67355885D01*
X70919086Y-67338642D01*
X70810222Y-67321400D01*
X70589778Y-67321400D01*
X70517201Y-67332895D01*
X70372047Y-67355885D01*
X70162396Y-67424003D01*
X70162393Y-67424004D01*
X69965974Y-67524087D01*
X69787641Y-67653652D01*
X69787636Y-67653656D01*
X69631756Y-67809536D01*
X69631752Y-67809541D01*
X69502187Y-67987874D01*
X69402104Y-68184293D01*
X69402103Y-68184296D01*
X69333985Y-68393947D01*
X69299500Y-68611678D01*
X67900500Y-68611678D01*
X67866015Y-68393949D01*
X67831955Y-68289121D01*
X67797896Y-68184296D01*
X67797895Y-68184293D01*
X67746041Y-68082526D01*
X67697815Y-67987878D01*
X67612958Y-67871081D01*
X67568247Y-67809541D01*
X67568243Y-67809536D01*
X67412363Y-67653656D01*
X67412358Y-67653652D01*
X67234025Y-67524087D01*
X67234024Y-67524086D01*
X67234022Y-67524085D01*
X67171096Y-67492022D01*
X67037606Y-67424004D01*
X67037603Y-67424003D01*
X66827952Y-67355885D01*
X66719086Y-67338642D01*
X66610222Y-67321400D01*
X66389778Y-67321400D01*
X66317201Y-67332895D01*
X66172047Y-67355885D01*
X65962396Y-67424003D01*
X65962393Y-67424004D01*
X65765974Y-67524087D01*
X65587641Y-67653652D01*
X65587636Y-67653656D01*
X65431756Y-67809536D01*
X65431752Y-67809541D01*
X65302187Y-67987874D01*
X65202104Y-68184293D01*
X65202103Y-68184296D01*
X65133985Y-68393947D01*
X65099500Y-68611678D01*
X63700500Y-68611678D01*
X63666015Y-68393949D01*
X63631955Y-68289121D01*
X63597896Y-68184296D01*
X63597895Y-68184293D01*
X63546041Y-68082526D01*
X63497815Y-67987878D01*
X63412958Y-67871081D01*
X63368247Y-67809541D01*
X63368243Y-67809536D01*
X63212363Y-67653656D01*
X63212358Y-67653652D01*
X63034025Y-67524087D01*
X63034024Y-67524086D01*
X63034022Y-67524085D01*
X62971096Y-67492022D01*
X62837606Y-67424004D01*
X62837603Y-67424003D01*
X62627952Y-67355885D01*
X62519086Y-67338642D01*
X62410222Y-67321400D01*
X62189778Y-67321400D01*
X62117201Y-67332895D01*
X61972047Y-67355885D01*
X61762396Y-67424003D01*
X61762393Y-67424004D01*
X61565974Y-67524087D01*
X61387641Y-67653652D01*
X61387636Y-67653656D01*
X61231756Y-67809536D01*
X61231752Y-67809541D01*
X61102187Y-67987874D01*
X61002104Y-68184293D01*
X61002103Y-68184296D01*
X60933985Y-68393947D01*
X60899500Y-68611678D01*
X59500500Y-68611678D01*
X59466015Y-68393949D01*
X59431955Y-68289121D01*
X59397896Y-68184296D01*
X59397895Y-68184293D01*
X59346041Y-68082526D01*
X59297815Y-67987878D01*
X59212958Y-67871081D01*
X59168247Y-67809541D01*
X59168243Y-67809536D01*
X59012363Y-67653656D01*
X59012358Y-67653652D01*
X58834025Y-67524087D01*
X58834024Y-67524086D01*
X58834022Y-67524085D01*
X58771096Y-67492022D01*
X58637606Y-67424004D01*
X58637603Y-67424003D01*
X58427952Y-67355885D01*
X58319086Y-67338642D01*
X58210222Y-67321400D01*
X57989778Y-67321400D01*
X57917201Y-67332895D01*
X57772047Y-67355885D01*
X57562396Y-67424003D01*
X57562393Y-67424004D01*
X57365974Y-67524087D01*
X57187641Y-67653652D01*
X57187636Y-67653656D01*
X57031756Y-67809536D01*
X57031752Y-67809541D01*
X56902187Y-67987874D01*
X56802104Y-68184293D01*
X56802103Y-68184296D01*
X56733985Y-68393947D01*
X56699500Y-68611678D01*
X47750000Y-68611678D01*
X47750000Y-61307158D01*
X56349500Y-61307158D01*
X56349500Y-61536641D01*
X56359781Y-61614727D01*
X56379452Y-61764138D01*
X56379453Y-61764140D01*
X56438842Y-61985787D01*
X56526650Y-62197776D01*
X56526657Y-62197790D01*
X56641392Y-62396517D01*
X56781081Y-62578561D01*
X56781089Y-62578570D01*
X56943330Y-62740811D01*
X56943338Y-62740818D01*
X57125382Y-62880507D01*
X57125385Y-62880508D01*
X57125388Y-62880511D01*
X57324112Y-62995244D01*
X57324117Y-62995246D01*
X57324123Y-62995249D01*
X57415480Y-63033090D01*
X57536113Y-63083058D01*
X57757762Y-63142448D01*
X57985266Y-63172400D01*
X57985273Y-63172400D01*
X58214727Y-63172400D01*
X58214734Y-63172400D01*
X58442238Y-63142448D01*
X58663887Y-63083058D01*
X58875888Y-62995244D01*
X59074612Y-62880511D01*
X59256661Y-62740819D01*
X59256665Y-62740814D01*
X59256670Y-62740811D01*
X59418911Y-62578570D01*
X59418914Y-62578565D01*
X59418919Y-62578561D01*
X59558611Y-62396512D01*
X59673344Y-62197788D01*
X59761158Y-61985787D01*
X59820548Y-61764138D01*
X59850500Y-61536634D01*
X59850500Y-61307166D01*
X59850499Y-61307158D01*
X102549500Y-61307158D01*
X102549500Y-61536641D01*
X102559781Y-61614727D01*
X102579452Y-61764138D01*
X102579453Y-61764140D01*
X102638842Y-61985787D01*
X102726650Y-62197776D01*
X102726657Y-62197790D01*
X102841392Y-62396517D01*
X102981081Y-62578561D01*
X102981089Y-62578570D01*
X103143330Y-62740811D01*
X103143338Y-62740818D01*
X103325382Y-62880507D01*
X103325385Y-62880508D01*
X103325388Y-62880511D01*
X103524112Y-62995244D01*
X103524117Y-62995246D01*
X103524123Y-62995249D01*
X103615480Y-63033090D01*
X103736113Y-63083058D01*
X103957762Y-63142448D01*
X104185266Y-63172400D01*
X104185273Y-63172400D01*
X104414727Y-63172400D01*
X104414734Y-63172400D01*
X104642238Y-63142448D01*
X104863887Y-63083058D01*
X105075888Y-62995244D01*
X105274612Y-62880511D01*
X105456661Y-62740819D01*
X105456665Y-62740814D01*
X105456670Y-62740811D01*
X105618911Y-62578570D01*
X105618914Y-62578565D01*
X105618919Y-62578561D01*
X105758611Y-62396512D01*
X105873344Y-62197788D01*
X105961158Y-61985787D01*
X106020548Y-61764138D01*
X106050500Y-61536634D01*
X106050500Y-61385258D01*
X111399500Y-61385258D01*
X111399500Y-61614741D01*
X111419170Y-61764138D01*
X111429452Y-61842238D01*
X111488842Y-62063887D01*
X111576650Y-62275876D01*
X111576657Y-62275890D01*
X111691392Y-62474617D01*
X111831081Y-62656661D01*
X111831089Y-62656670D01*
X111993330Y-62818911D01*
X111993338Y-62818918D01*
X112175382Y-62958607D01*
X112175385Y-62958608D01*
X112175388Y-62958611D01*
X112374112Y-63073344D01*
X112374117Y-63073346D01*
X112374123Y-63073349D01*
X112465480Y-63111190D01*
X112586113Y-63161158D01*
X112807762Y-63220548D01*
X113035266Y-63250500D01*
X113035273Y-63250500D01*
X113264727Y-63250500D01*
X113264734Y-63250500D01*
X113492238Y-63220548D01*
X113713887Y-63161158D01*
X113925888Y-63073344D01*
X114124612Y-62958611D01*
X114306661Y-62818919D01*
X114306665Y-62818914D01*
X114306670Y-62818911D01*
X114468911Y-62656670D01*
X114468914Y-62656665D01*
X114468919Y-62656661D01*
X114608611Y-62474612D01*
X114723344Y-62275888D01*
X114811158Y-62063887D01*
X114870548Y-61842238D01*
X114900500Y-61614734D01*
X114900500Y-61385266D01*
X114900499Y-61385258D01*
X123999500Y-61385258D01*
X123999500Y-61614741D01*
X124019170Y-61764138D01*
X124029452Y-61842238D01*
X124088842Y-62063887D01*
X124176650Y-62275876D01*
X124176657Y-62275890D01*
X124291392Y-62474617D01*
X124431081Y-62656661D01*
X124431089Y-62656670D01*
X124593330Y-62818911D01*
X124593338Y-62818918D01*
X124775382Y-62958607D01*
X124775385Y-62958608D01*
X124775388Y-62958611D01*
X124974112Y-63073344D01*
X124974117Y-63073346D01*
X124974123Y-63073349D01*
X125065480Y-63111190D01*
X125186113Y-63161158D01*
X125407762Y-63220548D01*
X125635266Y-63250500D01*
X125635273Y-63250500D01*
X125864727Y-63250500D01*
X125864734Y-63250500D01*
X126092238Y-63220548D01*
X126313887Y-63161158D01*
X126525888Y-63073344D01*
X126724612Y-62958611D01*
X126906661Y-62818919D01*
X126906665Y-62818914D01*
X126906670Y-62818911D01*
X127068911Y-62656670D01*
X127068914Y-62656665D01*
X127068919Y-62656661D01*
X127208611Y-62474612D01*
X127323344Y-62275888D01*
X127411158Y-62063887D01*
X127470548Y-61842238D01*
X127500500Y-61614734D01*
X127500500Y-61385266D01*
X127470548Y-61157762D01*
X127411158Y-60936113D01*
X127349262Y-60786683D01*
X127323349Y-60724123D01*
X127323346Y-60724117D01*
X127323344Y-60724112D01*
X127208611Y-60525388D01*
X127208608Y-60525385D01*
X127208607Y-60525382D01*
X127068918Y-60343338D01*
X127068911Y-60343330D01*
X126906670Y-60181089D01*
X126906661Y-60181081D01*
X126724617Y-60041392D01*
X126525890Y-59926657D01*
X126525876Y-59926650D01*
X126313887Y-59838842D01*
X126092238Y-59779452D01*
X126054215Y-59774446D01*
X125864741Y-59749500D01*
X125864734Y-59749500D01*
X125635266Y-59749500D01*
X125635258Y-59749500D01*
X125418715Y-59778009D01*
X125407762Y-59779452D01*
X125314076Y-59804554D01*
X125186112Y-59838842D01*
X124974123Y-59926650D01*
X124974109Y-59926657D01*
X124775382Y-60041392D01*
X124593338Y-60181081D01*
X124431081Y-60343338D01*
X124291392Y-60525382D01*
X124176657Y-60724109D01*
X124176650Y-60724123D01*
X124088842Y-60936112D01*
X124029453Y-61157759D01*
X124029451Y-61157770D01*
X123999500Y-61385258D01*
X114900499Y-61385258D01*
X114870548Y-61157762D01*
X114811158Y-60936113D01*
X114749262Y-60786683D01*
X114723349Y-60724123D01*
X114723346Y-60724117D01*
X114723344Y-60724112D01*
X114608611Y-60525388D01*
X114608608Y-60525385D01*
X114608607Y-60525382D01*
X114468918Y-60343338D01*
X114468911Y-60343330D01*
X114306670Y-60181089D01*
X114306661Y-60181081D01*
X114124617Y-60041392D01*
X113925890Y-59926657D01*
X113925876Y-59926650D01*
X113713887Y-59838842D01*
X113492238Y-59779452D01*
X113454215Y-59774446D01*
X113264741Y-59749500D01*
X113264734Y-59749500D01*
X113035266Y-59749500D01*
X113035258Y-59749500D01*
X112818715Y-59778009D01*
X112807762Y-59779452D01*
X112714076Y-59804554D01*
X112586112Y-59838842D01*
X112374123Y-59926650D01*
X112374109Y-59926657D01*
X112175382Y-60041392D01*
X111993338Y-60181081D01*
X111831081Y-60343338D01*
X111691392Y-60525382D01*
X111576657Y-60724109D01*
X111576650Y-60724123D01*
X111488842Y-60936112D01*
X111429453Y-61157759D01*
X111429451Y-61157770D01*
X111399500Y-61385258D01*
X106050500Y-61385258D01*
X106050500Y-61307166D01*
X106020548Y-61079662D01*
X105961158Y-60858013D01*
X105873344Y-60646012D01*
X105758611Y-60447288D01*
X105758608Y-60447285D01*
X105758607Y-60447282D01*
X105618918Y-60265238D01*
X105618911Y-60265230D01*
X105456670Y-60102989D01*
X105456661Y-60102981D01*
X105274617Y-59963292D01*
X105075890Y-59848557D01*
X105075876Y-59848550D01*
X104863887Y-59760742D01*
X104642238Y-59701352D01*
X104604215Y-59696346D01*
X104414741Y-59671400D01*
X104414734Y-59671400D01*
X104185266Y-59671400D01*
X104185258Y-59671400D01*
X103968715Y-59699909D01*
X103957762Y-59701352D01*
X103864076Y-59726454D01*
X103736112Y-59760742D01*
X103524123Y-59848550D01*
X103524109Y-59848557D01*
X103325382Y-59963292D01*
X103143338Y-60102981D01*
X102981081Y-60265238D01*
X102841392Y-60447282D01*
X102726657Y-60646009D01*
X102726650Y-60646023D01*
X102638842Y-60858012D01*
X102579453Y-61079659D01*
X102579451Y-61079670D01*
X102549500Y-61307158D01*
X59850499Y-61307158D01*
X59820548Y-61079662D01*
X59761158Y-60858013D01*
X59673344Y-60646012D01*
X59558611Y-60447288D01*
X59558608Y-60447285D01*
X59558607Y-60447282D01*
X59418918Y-60265238D01*
X59418911Y-60265230D01*
X59256670Y-60102989D01*
X59256661Y-60102981D01*
X59074617Y-59963292D01*
X58875890Y-59848557D01*
X58875876Y-59848550D01*
X58663887Y-59760742D01*
X58442238Y-59701352D01*
X58404215Y-59696346D01*
X58214741Y-59671400D01*
X58214734Y-59671400D01*
X57985266Y-59671400D01*
X57985258Y-59671400D01*
X57768715Y-59699909D01*
X57757762Y-59701352D01*
X57664076Y-59726454D01*
X57536112Y-59760742D01*
X57324123Y-59848550D01*
X57324109Y-59848557D01*
X57125382Y-59963292D01*
X56943338Y-60102981D01*
X56781081Y-60265238D01*
X56641392Y-60447282D01*
X56526657Y-60646009D01*
X56526650Y-60646023D01*
X56438842Y-60858012D01*
X56379453Y-61079659D01*
X56379451Y-61079670D01*
X56349500Y-61307158D01*
X47750000Y-61307158D01*
X47750000Y-60853722D01*
X47769685Y-60786683D01*
X47822489Y-60740928D01*
X47860587Y-60730450D01*
X48026645Y-60712391D01*
X48370878Y-60636619D01*
X48704901Y-60524074D01*
X48704908Y-60524070D01*
X48704911Y-60524070D01*
X49024789Y-60376078D01*
X49024798Y-60376074D01*
X49326818Y-60194354D01*
X49607420Y-59981046D01*
X49863314Y-59738650D01*
X50091501Y-59470008D01*
X50289305Y-59178269D01*
X50454407Y-58866854D01*
X50584871Y-58539414D01*
X50679168Y-58199788D01*
X50694881Y-58103937D01*
X50725152Y-58040967D01*
X50784663Y-58004358D01*
X50817248Y-58000000D01*
X130182752Y-58000000D01*
X130249791Y-58019685D01*
G37*
G04 #@! TD.AperFunction*
G04 #@! TA.AperFunction,Conductor*
G36*
X46279588Y-111292330D02*
G01*
X46457670Y-111470412D01*
X46559300Y-111544251D01*
X45382625Y-112720926D01*
X45382625Y-112720928D01*
X45392900Y-112730660D01*
X45673460Y-112943938D01*
X45673477Y-112943950D01*
X45798628Y-113019250D01*
X45845923Y-113070679D01*
X45857906Y-113139513D01*
X45830771Y-113203899D01*
X45773135Y-113243393D01*
X45734700Y-113249500D01*
X44374500Y-113249500D01*
X44307461Y-113229815D01*
X44261706Y-113177011D01*
X44250500Y-113125500D01*
X44250500Y-111521101D01*
X44270185Y-111454062D01*
X44322989Y-111408307D01*
X44392147Y-111398363D01*
X44455703Y-111427388D01*
X44489693Y-111475204D01*
X44546043Y-111616634D01*
X44546052Y-111616652D01*
X44711124Y-111928011D01*
X44908896Y-112219702D01*
X45031914Y-112364532D01*
X46205748Y-111190698D01*
X46279588Y-111292330D01*
G37*
G04 #@! TD.AperFunction*
G04 #@! TA.AperFunction,Conductor*
G36*
X98801251Y-110161088D02*
G01*
X98907529Y-110209624D01*
X98920041Y-110215338D01*
X98987080Y-110235023D01*
X98987084Y-110235024D01*
X99129500Y-110255500D01*
X99129503Y-110255500D01*
X108095490Y-110255500D01*
X108095500Y-110255500D01*
X108202956Y-110243947D01*
X108254467Y-110232741D01*
X108319394Y-110211130D01*
X108389215Y-110208636D01*
X108449304Y-110244287D01*
X108453826Y-110249459D01*
X108600342Y-110395975D01*
X108600345Y-110395977D01*
X108772402Y-110510941D01*
X108963580Y-110590130D01*
X109166530Y-110630499D01*
X109166534Y-110630500D01*
X109166535Y-110630500D01*
X109373466Y-110630500D01*
X109373467Y-110630499D01*
X109576420Y-110590130D01*
X109767598Y-110510941D01*
X109939655Y-110395977D01*
X110085977Y-110249655D01*
X110085985Y-110249641D01*
X110086542Y-110248965D01*
X110086931Y-110248699D01*
X110090284Y-110245347D01*
X110090919Y-110245982D01*
X110144283Y-110209624D01*
X110214127Y-110207746D01*
X110233910Y-110214822D01*
X110235034Y-110215335D01*
X110235041Y-110215338D01*
X110302080Y-110235023D01*
X110302084Y-110235024D01*
X110444500Y-110255500D01*
X110444503Y-110255500D01*
X130128066Y-110255500D01*
X130195105Y-110275185D01*
X130240860Y-110327989D01*
X130251884Y-110372786D01*
X130264306Y-110601897D01*
X130264309Y-110601920D01*
X130321319Y-110949667D01*
X130321325Y-110949693D01*
X130415600Y-111289243D01*
X130415602Y-111289250D01*
X130546043Y-111616634D01*
X130546052Y-111616652D01*
X130711124Y-111928011D01*
X130908896Y-112219702D01*
X131031914Y-112364532D01*
X132205747Y-111190698D01*
X132279588Y-111292330D01*
X132457670Y-111470412D01*
X132559300Y-111544251D01*
X131382625Y-112720926D01*
X131382625Y-112720928D01*
X131392900Y-112730660D01*
X131673460Y-112943938D01*
X131673477Y-112943950D01*
X131798628Y-113019250D01*
X131845923Y-113070679D01*
X131857906Y-113139513D01*
X131830771Y-113203899D01*
X131773135Y-113243393D01*
X131734700Y-113249500D01*
X49265300Y-113249500D01*
X49198261Y-113229815D01*
X49152506Y-113177011D01*
X49142562Y-113107853D01*
X49171587Y-113044297D01*
X49201372Y-113019250D01*
X49326522Y-112943950D01*
X49326539Y-112943938D01*
X49607093Y-112730665D01*
X49607105Y-112730654D01*
X49617373Y-112720927D01*
X49617373Y-112720926D01*
X48440698Y-111544251D01*
X48542330Y-111470412D01*
X48720412Y-111292330D01*
X48794251Y-111190698D01*
X49968084Y-112364532D01*
X49968085Y-112364531D01*
X50091102Y-112219704D01*
X50288875Y-111928011D01*
X50453947Y-111616652D01*
X50453956Y-111616634D01*
X50584397Y-111289250D01*
X50584399Y-111289243D01*
X50678674Y-110949693D01*
X50678680Y-110949667D01*
X50735691Y-110601917D01*
X50735692Y-110601900D01*
X50748115Y-110372787D01*
X50771400Y-110306911D01*
X50826604Y-110264082D01*
X50871933Y-110255500D01*
X71120490Y-110255500D01*
X71120500Y-110255500D01*
X71227956Y-110243947D01*
X71279467Y-110232741D01*
X71382004Y-110198613D01*
X71427198Y-110169567D01*
X71494236Y-110149882D01*
X71545751Y-110161088D01*
X71652029Y-110209624D01*
X71664541Y-110215338D01*
X71731580Y-110235023D01*
X71731584Y-110235024D01*
X71874000Y-110255500D01*
X71874003Y-110255500D01*
X98375990Y-110255500D01*
X98376000Y-110255500D01*
X98483456Y-110243947D01*
X98534967Y-110232741D01*
X98637504Y-110198613D01*
X98682698Y-110169567D01*
X98749736Y-110149882D01*
X98801251Y-110161088D01*
G37*
G04 #@! TD.AperFunction*
G04 #@! TA.AperFunction,Conductor*
G36*
X135968084Y-112364532D02*
G01*
X135968085Y-112364531D01*
X136091102Y-112219704D01*
X136272867Y-111951622D01*
X136326781Y-111907181D01*
X136396163Y-111898943D01*
X136458985Y-111929523D01*
X136495301Y-111989214D01*
X136499500Y-112021209D01*
X136499500Y-113125500D01*
X136479815Y-113192539D01*
X136427011Y-113238294D01*
X136375500Y-113249500D01*
X135265300Y-113249500D01*
X135198261Y-113229815D01*
X135152506Y-113177011D01*
X135142562Y-113107853D01*
X135171587Y-113044297D01*
X135201372Y-113019250D01*
X135326522Y-112943950D01*
X135326539Y-112943938D01*
X135607093Y-112730665D01*
X135607105Y-112730654D01*
X135617373Y-112720927D01*
X135617373Y-112720926D01*
X134440698Y-111544251D01*
X134542330Y-111470412D01*
X134720412Y-111292330D01*
X134794251Y-111190699D01*
X135968084Y-112364532D01*
G37*
G04 #@! TD.AperFunction*
G04 #@! TA.AperFunction,Conductor*
G36*
X46279588Y-58542330D02*
G01*
X46457670Y-58720412D01*
X46559300Y-58794251D01*
X45382625Y-59970926D01*
X45382625Y-59970928D01*
X45392900Y-59980660D01*
X45673460Y-60193938D01*
X45673464Y-60193941D01*
X45975445Y-60375635D01*
X46295273Y-60523603D01*
X46629256Y-60636136D01*
X46973437Y-60711896D01*
X47133906Y-60729348D01*
X47198425Y-60756165D01*
X47238202Y-60813606D01*
X47244500Y-60852621D01*
X47244500Y-60853722D01*
X47244500Y-61340293D01*
X47244500Y-67650821D01*
X47244500Y-68651464D01*
X47244500Y-69792926D01*
X47244500Y-69869999D01*
X47244500Y-73228921D01*
X47244500Y-74151464D01*
X47244500Y-75371026D01*
X47244500Y-76499996D01*
X47244500Y-82499996D01*
X47244500Y-85882499D01*
X47244500Y-91199996D01*
X47244500Y-93549999D01*
X47244500Y-97999996D01*
X47244500Y-99999996D01*
X47244500Y-103734607D01*
X47246871Y-103783506D01*
X47246872Y-103783522D01*
X47249190Y-103807374D01*
X47249192Y-103807387D01*
X47256284Y-103855842D01*
X47303805Y-103991649D01*
X47333746Y-104049245D01*
X47336033Y-104053644D01*
X47419886Y-104170555D01*
X47426030Y-104176955D01*
X47423683Y-104179207D01*
X47455136Y-104223046D01*
X47458707Y-104292824D01*
X47455142Y-104304971D01*
X47414632Y-104420742D01*
X47414630Y-104420750D01*
X47394435Y-104599996D01*
X47394435Y-104600003D01*
X47414630Y-104779249D01*
X47414632Y-104779257D01*
X47456894Y-104900035D01*
X47460455Y-104969814D01*
X47433565Y-105022191D01*
X47344435Y-105125052D01*
X47344430Y-105125060D01*
X47284664Y-105255926D01*
X47264976Y-105322974D01*
X47244500Y-105465393D01*
X47244500Y-106897377D01*
X47224815Y-106964416D01*
X47172011Y-107010171D01*
X47133908Y-107020650D01*
X46973440Y-107038103D01*
X46973434Y-107038104D01*
X46629256Y-107113863D01*
X46295273Y-107226396D01*
X45975445Y-107374364D01*
X45673464Y-107556058D01*
X45673460Y-107556061D01*
X45392906Y-107769334D01*
X45382625Y-107779071D01*
X45382625Y-107779073D01*
X46559301Y-108955748D01*
X46457670Y-109029588D01*
X46279588Y-109207670D01*
X46205748Y-109309300D01*
X45031914Y-108135466D01*
X45031913Y-108135466D01*
X44908896Y-108280296D01*
X44711124Y-108571988D01*
X44546052Y-108883347D01*
X44546043Y-108883365D01*
X44489693Y-109024795D01*
X44446593Y-109079787D01*
X44380603Y-109102748D01*
X44312676Y-109086387D01*
X44264378Y-109035899D01*
X44250500Y-108978898D01*
X44250500Y-58771101D01*
X44270185Y-58704062D01*
X44322989Y-58658307D01*
X44392147Y-58648363D01*
X44455703Y-58677388D01*
X44489693Y-58725204D01*
X44546043Y-58866634D01*
X44546052Y-58866652D01*
X44711124Y-59178011D01*
X44908896Y-59469702D01*
X45031914Y-59614532D01*
X46205748Y-58440698D01*
X46279588Y-58542330D01*
G37*
G04 #@! TD.AperFunction*
G04 #@! TA.AperFunction,Conductor*
G36*
X135968084Y-59614532D02*
G01*
X135968085Y-59614531D01*
X136091102Y-59469704D01*
X136272867Y-59201622D01*
X136326781Y-59157181D01*
X136396163Y-59148943D01*
X136458985Y-59179523D01*
X136495301Y-59239214D01*
X136499500Y-59271209D01*
X136499500Y-108478790D01*
X136479815Y-108545829D01*
X136427011Y-108591584D01*
X136357853Y-108601528D01*
X136294297Y-108572503D01*
X136272867Y-108548377D01*
X136091099Y-108280291D01*
X135968085Y-108135467D01*
X135968084Y-108135466D01*
X134794250Y-109309300D01*
X134720412Y-109207670D01*
X134542330Y-109029588D01*
X134440698Y-108955747D01*
X135617374Y-107779072D01*
X135607099Y-107769340D01*
X135607087Y-107769330D01*
X135326539Y-107556061D01*
X135326535Y-107556058D01*
X135024554Y-107374364D01*
X134704726Y-107226396D01*
X134370743Y-107113863D01*
X134026562Y-107038103D01*
X133676211Y-107000000D01*
X133629500Y-107000000D01*
X133562461Y-106980315D01*
X133516706Y-106927511D01*
X133505500Y-106876000D01*
X133505500Y-60874000D01*
X133525185Y-60806961D01*
X133577989Y-60761206D01*
X133629500Y-60750000D01*
X133676205Y-60750000D01*
X133676211Y-60749999D01*
X134026562Y-60711896D01*
X134370743Y-60636136D01*
X134704726Y-60523603D01*
X135024554Y-60375635D01*
X135326535Y-60193941D01*
X135326539Y-60193938D01*
X135607093Y-59980665D01*
X135607105Y-59980654D01*
X135617373Y-59970927D01*
X135617373Y-59970926D01*
X134440698Y-58794251D01*
X134542330Y-58720412D01*
X134720412Y-58542330D01*
X134794251Y-58440699D01*
X135968084Y-59614532D01*
G37*
G04 #@! TD.AperFunction*
G04 #@! TA.AperFunction,Conductor*
G36*
X131801739Y-54520185D02*
G01*
X131847494Y-54572989D01*
X131857438Y-54642147D01*
X131828413Y-54705703D01*
X131798628Y-54730750D01*
X131673477Y-54806049D01*
X131673460Y-54806061D01*
X131392906Y-55019334D01*
X131382625Y-55029071D01*
X131382625Y-55029073D01*
X132559301Y-56205748D01*
X132457670Y-56279588D01*
X132279588Y-56457670D01*
X132205748Y-56559301D01*
X131031914Y-55385466D01*
X131031913Y-55385466D01*
X130908896Y-55530296D01*
X130711124Y-55821988D01*
X130546052Y-56133347D01*
X130546043Y-56133365D01*
X130415602Y-56460749D01*
X130415600Y-56460756D01*
X130321325Y-56800306D01*
X130321319Y-56800332D01*
X130264308Y-57148082D01*
X130264307Y-57148098D01*
X130251884Y-57377214D01*
X130228599Y-57443089D01*
X130173395Y-57485918D01*
X130128066Y-57494500D01*
X50871933Y-57494500D01*
X50804894Y-57474815D01*
X50759139Y-57422011D01*
X50748115Y-57377213D01*
X50735692Y-57148099D01*
X50735691Y-57148082D01*
X50678680Y-56800332D01*
X50678674Y-56800306D01*
X50584399Y-56460756D01*
X50584397Y-56460749D01*
X50453956Y-56133365D01*
X50453947Y-56133347D01*
X50288875Y-55821988D01*
X50091099Y-55530291D01*
X49968085Y-55385467D01*
X49968084Y-55385466D01*
X48794250Y-56559300D01*
X48720412Y-56457670D01*
X48542330Y-56279588D01*
X48440698Y-56205748D01*
X49617374Y-55029073D01*
X49617373Y-55029072D01*
X49607099Y-55019340D01*
X49607087Y-55019330D01*
X49326539Y-54806061D01*
X49326522Y-54806049D01*
X49201372Y-54730750D01*
X49154077Y-54679321D01*
X49142094Y-54610487D01*
X49169229Y-54546101D01*
X49226865Y-54506607D01*
X49265300Y-54500500D01*
X131734700Y-54500500D01*
X131801739Y-54520185D01*
G37*
G04 #@! TD.AperFunction*
G04 #@! TA.AperFunction,Conductor*
G36*
X45801739Y-54520185D02*
G01*
X45847494Y-54572989D01*
X45857438Y-54642147D01*
X45828413Y-54705703D01*
X45798628Y-54730750D01*
X45673477Y-54806049D01*
X45673460Y-54806061D01*
X45392906Y-55019334D01*
X45382625Y-55029071D01*
X45382625Y-55029073D01*
X46559301Y-56205748D01*
X46457670Y-56279588D01*
X46279588Y-56457670D01*
X46205748Y-56559300D01*
X45031914Y-55385466D01*
X45031913Y-55385466D01*
X44908896Y-55530296D01*
X44711124Y-55821988D01*
X44546052Y-56133347D01*
X44546043Y-56133365D01*
X44489693Y-56274795D01*
X44446593Y-56329787D01*
X44380603Y-56352748D01*
X44312676Y-56336387D01*
X44264378Y-56285899D01*
X44250500Y-56228898D01*
X44250500Y-54624500D01*
X44270185Y-54557461D01*
X44322989Y-54511706D01*
X44374500Y-54500500D01*
X45734700Y-54500500D01*
X45801739Y-54520185D01*
G37*
G04 #@! TD.AperFunction*
G04 #@! TA.AperFunction,Conductor*
G36*
X136442539Y-54520185D02*
G01*
X136488294Y-54572989D01*
X136499500Y-54624500D01*
X136499500Y-55728790D01*
X136479815Y-55795829D01*
X136427011Y-55841584D01*
X136357853Y-55851528D01*
X136294297Y-55822503D01*
X136272867Y-55798377D01*
X136091099Y-55530291D01*
X135968085Y-55385467D01*
X135968084Y-55385466D01*
X134794250Y-56559300D01*
X134720412Y-56457670D01*
X134542330Y-56279588D01*
X134440698Y-56205748D01*
X135617374Y-55029073D01*
X135617373Y-55029072D01*
X135607099Y-55019340D01*
X135607087Y-55019330D01*
X135326539Y-54806061D01*
X135326522Y-54806049D01*
X135201372Y-54730750D01*
X135154077Y-54679321D01*
X135142094Y-54610487D01*
X135169229Y-54546101D01*
X135226865Y-54506607D01*
X135265300Y-54500500D01*
X136375500Y-54500500D01*
X136442539Y-54520185D01*
G37*
G04 #@! TD.AperFunction*
M02*
