%TF.GenerationSoftware,KiCad,Pcbnew,10.0.5*%
%TF.CreationDate,2026-08-08T21:12:03-04:00*%
%TF.ProjectId,360_atx_power_board,3336305f-6174-4785-9f70-6f7765725f62,rev?*%
%TF.SameCoordinates,Original*%
%TF.FileFunction,Drillmap*%
%TF.FilePolarity,Positive*%
%FSLAX45Y45*%
G04 Gerber Fmt 4.5, Leading zero omitted, Abs format (unit mm)*
G04 Created by KiCad (PCBNEW 10.0.5) date 2026-08-08 21:12:03*
%MOMM*%
%LPD*%
G01*
G04 APERTURE LIST*
%ADD10C,0.050000*%
%ADD11C,0.200000*%
%ADD12C,0.130000*%
%ADD13C,0.300000*%
%ADD14C,0.350000*%
G04 APERTURE END LIST*
D10*
X4375000Y-5400000D02*
X13700000Y-5400000D01*
X13700000Y-11375000D01*
X4375000Y-11375000D01*
X4375000Y-5400000D01*
D11*
D12*
X12925500Y-9577800D02*
X13055500Y-9707800D01*
X13055500Y-9577800D02*
X12925500Y-9707800D01*
D13*
X5960000Y-6142190D02*
G75*
G02*
X5660000Y-6142190I-150000J0D01*
G01*
X5660000Y-6142190D02*
G75*
G02*
X5960000Y-6142190I150000J0D01*
G01*
X10580000Y-6142190D02*
G75*
G02*
X10280000Y-6142190I-150000J0D01*
G01*
X10280000Y-6142190D02*
G75*
G02*
X10580000Y-6142190I150000J0D01*
G01*
X11465000Y-6150000D02*
G75*
G02*
X11165000Y-6150000I-150000J0D01*
G01*
X11165000Y-6150000D02*
G75*
G02*
X11465000Y-6150000I150000J0D01*
G01*
X12725000Y-6150000D02*
G75*
G02*
X12425000Y-6150000I-150000J0D01*
G01*
X12425000Y-6150000D02*
G75*
G02*
X12725000Y-6150000I150000J0D01*
G01*
D14*
X12593000Y-10529000D02*
X12593000Y-10879000D01*
X12418000Y-10704000D02*
X12768000Y-10704000D01*
D11*
X4633277Y-11688984D02*
X4633277Y-11488984D01*
X4633277Y-11488984D02*
X4680896Y-11488984D01*
X4680896Y-11488984D02*
X4709467Y-11498508D01*
X4709467Y-11498508D02*
X4728515Y-11517555D01*
X4728515Y-11517555D02*
X4738039Y-11536603D01*
X4738039Y-11536603D02*
X4747563Y-11574698D01*
X4747563Y-11574698D02*
X4747563Y-11603269D01*
X4747563Y-11603269D02*
X4738039Y-11641365D01*
X4738039Y-11641365D02*
X4728515Y-11660412D01*
X4728515Y-11660412D02*
X4709467Y-11679460D01*
X4709467Y-11679460D02*
X4680896Y-11688984D01*
X4680896Y-11688984D02*
X4633277Y-11688984D01*
X4833277Y-11688984D02*
X4833277Y-11555650D01*
X4833277Y-11593746D02*
X4842801Y-11574698D01*
X4842801Y-11574698D02*
X4852324Y-11565174D01*
X4852324Y-11565174D02*
X4871372Y-11555650D01*
X4871372Y-11555650D02*
X4890420Y-11555650D01*
X4957086Y-11688984D02*
X4957086Y-11555650D01*
X4957086Y-11488984D02*
X4947563Y-11498508D01*
X4947563Y-11498508D02*
X4957086Y-11508031D01*
X4957086Y-11508031D02*
X4966610Y-11498508D01*
X4966610Y-11498508D02*
X4957086Y-11488984D01*
X4957086Y-11488984D02*
X4957086Y-11508031D01*
X5080896Y-11688984D02*
X5061848Y-11679460D01*
X5061848Y-11679460D02*
X5052324Y-11660412D01*
X5052324Y-11660412D02*
X5052324Y-11488984D01*
X5185658Y-11688984D02*
X5166610Y-11679460D01*
X5166610Y-11679460D02*
X5157086Y-11660412D01*
X5157086Y-11660412D02*
X5157086Y-11488984D01*
X5414229Y-11688984D02*
X5414229Y-11488984D01*
X5414229Y-11488984D02*
X5480896Y-11631841D01*
X5480896Y-11631841D02*
X5547563Y-11488984D01*
X5547563Y-11488984D02*
X5547563Y-11688984D01*
X5728515Y-11688984D02*
X5728515Y-11584222D01*
X5728515Y-11584222D02*
X5718991Y-11565174D01*
X5718991Y-11565174D02*
X5699943Y-11555650D01*
X5699943Y-11555650D02*
X5661848Y-11555650D01*
X5661848Y-11555650D02*
X5642801Y-11565174D01*
X5728515Y-11679460D02*
X5709467Y-11688984D01*
X5709467Y-11688984D02*
X5661848Y-11688984D01*
X5661848Y-11688984D02*
X5642801Y-11679460D01*
X5642801Y-11679460D02*
X5633277Y-11660412D01*
X5633277Y-11660412D02*
X5633277Y-11641365D01*
X5633277Y-11641365D02*
X5642801Y-11622317D01*
X5642801Y-11622317D02*
X5661848Y-11612793D01*
X5661848Y-11612793D02*
X5709467Y-11612793D01*
X5709467Y-11612793D02*
X5728515Y-11603269D01*
X5823753Y-11555650D02*
X5823753Y-11755650D01*
X5823753Y-11565174D02*
X5842801Y-11555650D01*
X5842801Y-11555650D02*
X5880896Y-11555650D01*
X5880896Y-11555650D02*
X5899943Y-11565174D01*
X5899943Y-11565174D02*
X5909467Y-11574698D01*
X5909467Y-11574698D02*
X5918991Y-11593746D01*
X5918991Y-11593746D02*
X5918991Y-11650888D01*
X5918991Y-11650888D02*
X5909467Y-11669936D01*
X5909467Y-11669936D02*
X5899943Y-11679460D01*
X5899943Y-11679460D02*
X5880896Y-11688984D01*
X5880896Y-11688984D02*
X5842801Y-11688984D01*
X5842801Y-11688984D02*
X5823753Y-11679460D01*
X6004705Y-11669936D02*
X6014229Y-11679460D01*
X6014229Y-11679460D02*
X6004705Y-11688984D01*
X6004705Y-11688984D02*
X5995182Y-11679460D01*
X5995182Y-11679460D02*
X6004705Y-11669936D01*
X6004705Y-11669936D02*
X6004705Y-11688984D01*
X6004705Y-11565174D02*
X6014229Y-11574698D01*
X6014229Y-11574698D02*
X6004705Y-11584222D01*
X6004705Y-11584222D02*
X5995182Y-11574698D01*
X5995182Y-11574698D02*
X6004705Y-11565174D01*
X6004705Y-11565174D02*
X6004705Y-11584222D01*
D12*
X4242500Y-11952500D02*
X4372500Y-12082500D01*
X4372500Y-11952500D02*
X4242500Y-12082500D01*
D11*
X4738039Y-12108984D02*
X4623753Y-12108984D01*
X4680896Y-12108984D02*
X4680896Y-11908984D01*
X4680896Y-11908984D02*
X4661848Y-11937555D01*
X4661848Y-11937555D02*
X4642801Y-11956603D01*
X4642801Y-11956603D02*
X4623753Y-11966127D01*
X4823753Y-12089936D02*
X4833277Y-12099460D01*
X4833277Y-12099460D02*
X4823753Y-12108984D01*
X4823753Y-12108984D02*
X4814229Y-12099460D01*
X4814229Y-12099460D02*
X4823753Y-12089936D01*
X4823753Y-12089936D02*
X4823753Y-12108984D01*
X4899944Y-11908984D02*
X5023753Y-11908984D01*
X5023753Y-11908984D02*
X4957086Y-11985174D01*
X4957086Y-11985174D02*
X4985658Y-11985174D01*
X4985658Y-11985174D02*
X5004705Y-11994698D01*
X5004705Y-11994698D02*
X5014229Y-12004222D01*
X5014229Y-12004222D02*
X5023753Y-12023269D01*
X5023753Y-12023269D02*
X5023753Y-12070888D01*
X5023753Y-12070888D02*
X5014229Y-12089936D01*
X5014229Y-12089936D02*
X5004705Y-12099460D01*
X5004705Y-12099460D02*
X4985658Y-12108984D01*
X4985658Y-12108984D02*
X4928515Y-12108984D01*
X4928515Y-12108984D02*
X4909467Y-12099460D01*
X4909467Y-12099460D02*
X4899944Y-12089936D01*
X5147563Y-11908984D02*
X5166610Y-11908984D01*
X5166610Y-11908984D02*
X5185658Y-11918508D01*
X5185658Y-11918508D02*
X5195182Y-11928031D01*
X5195182Y-11928031D02*
X5204705Y-11947079D01*
X5204705Y-11947079D02*
X5214229Y-11985174D01*
X5214229Y-11985174D02*
X5214229Y-12032793D01*
X5214229Y-12032793D02*
X5204705Y-12070888D01*
X5204705Y-12070888D02*
X5195182Y-12089936D01*
X5195182Y-12089936D02*
X5185658Y-12099460D01*
X5185658Y-12099460D02*
X5166610Y-12108984D01*
X5166610Y-12108984D02*
X5147563Y-12108984D01*
X5147563Y-12108984D02*
X5128515Y-12099460D01*
X5128515Y-12099460D02*
X5118991Y-12089936D01*
X5118991Y-12089936D02*
X5109467Y-12070888D01*
X5109467Y-12070888D02*
X5099944Y-12032793D01*
X5099944Y-12032793D02*
X5099944Y-11985174D01*
X5099944Y-11985174D02*
X5109467Y-11947079D01*
X5109467Y-11947079D02*
X5118991Y-11928031D01*
X5118991Y-11928031D02*
X5128515Y-11918508D01*
X5128515Y-11918508D02*
X5147563Y-11908984D01*
X5338039Y-11908984D02*
X5357086Y-11908984D01*
X5357086Y-11908984D02*
X5376134Y-11918508D01*
X5376134Y-11918508D02*
X5385658Y-11928031D01*
X5385658Y-11928031D02*
X5395182Y-11947079D01*
X5395182Y-11947079D02*
X5404705Y-11985174D01*
X5404705Y-11985174D02*
X5404705Y-12032793D01*
X5404705Y-12032793D02*
X5395182Y-12070888D01*
X5395182Y-12070888D02*
X5385658Y-12089936D01*
X5385658Y-12089936D02*
X5376134Y-12099460D01*
X5376134Y-12099460D02*
X5357086Y-12108984D01*
X5357086Y-12108984D02*
X5338039Y-12108984D01*
X5338039Y-12108984D02*
X5318991Y-12099460D01*
X5318991Y-12099460D02*
X5309467Y-12089936D01*
X5309467Y-12089936D02*
X5299944Y-12070888D01*
X5299944Y-12070888D02*
X5290420Y-12032793D01*
X5290420Y-12032793D02*
X5290420Y-11985174D01*
X5290420Y-11985174D02*
X5299944Y-11947079D01*
X5299944Y-11947079D02*
X5309467Y-11928031D01*
X5309467Y-11928031D02*
X5318991Y-11918508D01*
X5318991Y-11918508D02*
X5338039Y-11908984D01*
X5490420Y-12108984D02*
X5490420Y-11975650D01*
X5490420Y-11994698D02*
X5499944Y-11985174D01*
X5499944Y-11985174D02*
X5518991Y-11975650D01*
X5518991Y-11975650D02*
X5547563Y-11975650D01*
X5547563Y-11975650D02*
X5566610Y-11985174D01*
X5566610Y-11985174D02*
X5576134Y-12004222D01*
X5576134Y-12004222D02*
X5576134Y-12108984D01*
X5576134Y-12004222D02*
X5585658Y-11985174D01*
X5585658Y-11985174D02*
X5604705Y-11975650D01*
X5604705Y-11975650D02*
X5633277Y-11975650D01*
X5633277Y-11975650D02*
X5652324Y-11985174D01*
X5652324Y-11985174D02*
X5661848Y-12004222D01*
X5661848Y-12004222D02*
X5661848Y-12108984D01*
X5757086Y-12108984D02*
X5757086Y-11975650D01*
X5757086Y-11994698D02*
X5766610Y-11985174D01*
X5766610Y-11985174D02*
X5785658Y-11975650D01*
X5785658Y-11975650D02*
X5814229Y-11975650D01*
X5814229Y-11975650D02*
X5833277Y-11985174D01*
X5833277Y-11985174D02*
X5842801Y-12004222D01*
X5842801Y-12004222D02*
X5842801Y-12108984D01*
X5842801Y-12004222D02*
X5852324Y-11985174D01*
X5852324Y-11985174D02*
X5871372Y-11975650D01*
X5871372Y-11975650D02*
X5899943Y-11975650D01*
X5899943Y-11975650D02*
X5918991Y-11985174D01*
X5918991Y-11985174D02*
X5928515Y-12004222D01*
X5928515Y-12004222D02*
X5928515Y-12108984D01*
X6318991Y-11899460D02*
X6147563Y-12156603D01*
X6576134Y-11908984D02*
X6595182Y-11908984D01*
X6595182Y-11908984D02*
X6614229Y-11918508D01*
X6614229Y-11918508D02*
X6623753Y-11928031D01*
X6623753Y-11928031D02*
X6633277Y-11947079D01*
X6633277Y-11947079D02*
X6642801Y-11985174D01*
X6642801Y-11985174D02*
X6642801Y-12032793D01*
X6642801Y-12032793D02*
X6633277Y-12070888D01*
X6633277Y-12070888D02*
X6623753Y-12089936D01*
X6623753Y-12089936D02*
X6614229Y-12099460D01*
X6614229Y-12099460D02*
X6595182Y-12108984D01*
X6595182Y-12108984D02*
X6576134Y-12108984D01*
X6576134Y-12108984D02*
X6557086Y-12099460D01*
X6557086Y-12099460D02*
X6547563Y-12089936D01*
X6547563Y-12089936D02*
X6538039Y-12070888D01*
X6538039Y-12070888D02*
X6528515Y-12032793D01*
X6528515Y-12032793D02*
X6528515Y-11985174D01*
X6528515Y-11985174D02*
X6538039Y-11947079D01*
X6538039Y-11947079D02*
X6547563Y-11928031D01*
X6547563Y-11928031D02*
X6557086Y-11918508D01*
X6557086Y-11918508D02*
X6576134Y-11908984D01*
X6728515Y-12089936D02*
X6738039Y-12099460D01*
X6738039Y-12099460D02*
X6728515Y-12108984D01*
X6728515Y-12108984D02*
X6718991Y-12099460D01*
X6718991Y-12099460D02*
X6728515Y-12089936D01*
X6728515Y-12089936D02*
X6728515Y-12108984D01*
X6861848Y-11908984D02*
X6880896Y-11908984D01*
X6880896Y-11908984D02*
X6899944Y-11918508D01*
X6899944Y-11918508D02*
X6909467Y-11928031D01*
X6909467Y-11928031D02*
X6918991Y-11947079D01*
X6918991Y-11947079D02*
X6928515Y-11985174D01*
X6928515Y-11985174D02*
X6928515Y-12032793D01*
X6928515Y-12032793D02*
X6918991Y-12070888D01*
X6918991Y-12070888D02*
X6909467Y-12089936D01*
X6909467Y-12089936D02*
X6899944Y-12099460D01*
X6899944Y-12099460D02*
X6880896Y-12108984D01*
X6880896Y-12108984D02*
X6861848Y-12108984D01*
X6861848Y-12108984D02*
X6842801Y-12099460D01*
X6842801Y-12099460D02*
X6833277Y-12089936D01*
X6833277Y-12089936D02*
X6823753Y-12070888D01*
X6823753Y-12070888D02*
X6814229Y-12032793D01*
X6814229Y-12032793D02*
X6814229Y-11985174D01*
X6814229Y-11985174D02*
X6823753Y-11947079D01*
X6823753Y-11947079D02*
X6833277Y-11928031D01*
X6833277Y-11928031D02*
X6842801Y-11918508D01*
X6842801Y-11918508D02*
X6861848Y-11908984D01*
X7109467Y-11908984D02*
X7014229Y-11908984D01*
X7014229Y-11908984D02*
X7004706Y-12004222D01*
X7004706Y-12004222D02*
X7014229Y-11994698D01*
X7014229Y-11994698D02*
X7033277Y-11985174D01*
X7033277Y-11985174D02*
X7080896Y-11985174D01*
X7080896Y-11985174D02*
X7099944Y-11994698D01*
X7099944Y-11994698D02*
X7109467Y-12004222D01*
X7109467Y-12004222D02*
X7118991Y-12023269D01*
X7118991Y-12023269D02*
X7118991Y-12070888D01*
X7118991Y-12070888D02*
X7109467Y-12089936D01*
X7109467Y-12089936D02*
X7099944Y-12099460D01*
X7099944Y-12099460D02*
X7080896Y-12108984D01*
X7080896Y-12108984D02*
X7033277Y-12108984D01*
X7033277Y-12108984D02*
X7014229Y-12099460D01*
X7014229Y-12099460D02*
X7004706Y-12089936D01*
X7309467Y-12108984D02*
X7195182Y-12108984D01*
X7252325Y-12108984D02*
X7252325Y-11908984D01*
X7252325Y-11908984D02*
X7233277Y-11937555D01*
X7233277Y-11937555D02*
X7214229Y-11956603D01*
X7214229Y-11956603D02*
X7195182Y-11966127D01*
X7385658Y-11928031D02*
X7395182Y-11918508D01*
X7395182Y-11918508D02*
X7414229Y-11908984D01*
X7414229Y-11908984D02*
X7461848Y-11908984D01*
X7461848Y-11908984D02*
X7480896Y-11918508D01*
X7480896Y-11918508D02*
X7490420Y-11928031D01*
X7490420Y-11928031D02*
X7499944Y-11947079D01*
X7499944Y-11947079D02*
X7499944Y-11966127D01*
X7499944Y-11966127D02*
X7490420Y-11994698D01*
X7490420Y-11994698D02*
X7376134Y-12108984D01*
X7376134Y-12108984D02*
X7499944Y-12108984D01*
X7576134Y-11908984D02*
X7576134Y-11947079D01*
X7652325Y-11908984D02*
X7652325Y-11947079D01*
X7947563Y-12185174D02*
X7938039Y-12175650D01*
X7938039Y-12175650D02*
X7918991Y-12147079D01*
X7918991Y-12147079D02*
X7909468Y-12128031D01*
X7909468Y-12128031D02*
X7899944Y-12099460D01*
X7899944Y-12099460D02*
X7890420Y-12051841D01*
X7890420Y-12051841D02*
X7890420Y-12013746D01*
X7890420Y-12013746D02*
X7899944Y-11966127D01*
X7899944Y-11966127D02*
X7909468Y-11937555D01*
X7909468Y-11937555D02*
X7918991Y-11918508D01*
X7918991Y-11918508D02*
X7938039Y-11889936D01*
X7938039Y-11889936D02*
X7947563Y-11880412D01*
X8128515Y-12108984D02*
X8014229Y-12108984D01*
X8071372Y-12108984D02*
X8071372Y-11908984D01*
X8071372Y-11908984D02*
X8052325Y-11937555D01*
X8052325Y-11937555D02*
X8033277Y-11956603D01*
X8033277Y-11956603D02*
X8014229Y-11966127D01*
X8366610Y-12108984D02*
X8366610Y-11908984D01*
X8452325Y-12108984D02*
X8452325Y-12004222D01*
X8452325Y-12004222D02*
X8442801Y-11985174D01*
X8442801Y-11985174D02*
X8423753Y-11975650D01*
X8423753Y-11975650D02*
X8395182Y-11975650D01*
X8395182Y-11975650D02*
X8376134Y-11985174D01*
X8376134Y-11985174D02*
X8366610Y-11994698D01*
X8576134Y-12108984D02*
X8557087Y-12099460D01*
X8557087Y-12099460D02*
X8547563Y-12089936D01*
X8547563Y-12089936D02*
X8538039Y-12070888D01*
X8538039Y-12070888D02*
X8538039Y-12013746D01*
X8538039Y-12013746D02*
X8547563Y-11994698D01*
X8547563Y-11994698D02*
X8557087Y-11985174D01*
X8557087Y-11985174D02*
X8576134Y-11975650D01*
X8576134Y-11975650D02*
X8604706Y-11975650D01*
X8604706Y-11975650D02*
X8623753Y-11985174D01*
X8623753Y-11985174D02*
X8633277Y-11994698D01*
X8633277Y-11994698D02*
X8642801Y-12013746D01*
X8642801Y-12013746D02*
X8642801Y-12070888D01*
X8642801Y-12070888D02*
X8633277Y-12089936D01*
X8633277Y-12089936D02*
X8623753Y-12099460D01*
X8623753Y-12099460D02*
X8604706Y-12108984D01*
X8604706Y-12108984D02*
X8576134Y-12108984D01*
X8757087Y-12108984D02*
X8738039Y-12099460D01*
X8738039Y-12099460D02*
X8728515Y-12080412D01*
X8728515Y-12080412D02*
X8728515Y-11908984D01*
X8909468Y-12099460D02*
X8890420Y-12108984D01*
X8890420Y-12108984D02*
X8852325Y-12108984D01*
X8852325Y-12108984D02*
X8833277Y-12099460D01*
X8833277Y-12099460D02*
X8823753Y-12080412D01*
X8823753Y-12080412D02*
X8823753Y-12004222D01*
X8823753Y-12004222D02*
X8833277Y-11985174D01*
X8833277Y-11985174D02*
X8852325Y-11975650D01*
X8852325Y-11975650D02*
X8890420Y-11975650D01*
X8890420Y-11975650D02*
X8909468Y-11985174D01*
X8909468Y-11985174D02*
X8918992Y-12004222D01*
X8918992Y-12004222D02*
X8918992Y-12023269D01*
X8918992Y-12023269D02*
X8823753Y-12042317D01*
X8985658Y-12185174D02*
X8995182Y-12175650D01*
X8995182Y-12175650D02*
X9014230Y-12147079D01*
X9014230Y-12147079D02*
X9023753Y-12128031D01*
X9023753Y-12128031D02*
X9033277Y-12099460D01*
X9033277Y-12099460D02*
X9042801Y-12051841D01*
X9042801Y-12051841D02*
X9042801Y-12013746D01*
X9042801Y-12013746D02*
X9033277Y-11966127D01*
X9033277Y-11966127D02*
X9023753Y-11937555D01*
X9023753Y-11937555D02*
X9014230Y-11918508D01*
X9014230Y-11918508D02*
X8995182Y-11889936D01*
X8995182Y-11889936D02*
X8985658Y-11880412D01*
X9347563Y-12185174D02*
X9338039Y-12175650D01*
X9338039Y-12175650D02*
X9318992Y-12147079D01*
X9318992Y-12147079D02*
X9309468Y-12128031D01*
X9309468Y-12128031D02*
X9299944Y-12099460D01*
X9299944Y-12099460D02*
X9290420Y-12051841D01*
X9290420Y-12051841D02*
X9290420Y-12013746D01*
X9290420Y-12013746D02*
X9299944Y-11966127D01*
X9299944Y-11966127D02*
X9309468Y-11937555D01*
X9309468Y-11937555D02*
X9318992Y-11918508D01*
X9318992Y-11918508D02*
X9338039Y-11889936D01*
X9338039Y-11889936D02*
X9347563Y-11880412D01*
X9423753Y-11975650D02*
X9423753Y-12108984D01*
X9423753Y-11994698D02*
X9433277Y-11985174D01*
X9433277Y-11985174D02*
X9452325Y-11975650D01*
X9452325Y-11975650D02*
X9480896Y-11975650D01*
X9480896Y-11975650D02*
X9499944Y-11985174D01*
X9499944Y-11985174D02*
X9509468Y-12004222D01*
X9509468Y-12004222D02*
X9509468Y-12108984D01*
X9633277Y-12108984D02*
X9614230Y-12099460D01*
X9614230Y-12099460D02*
X9604706Y-12089936D01*
X9604706Y-12089936D02*
X9595182Y-12070888D01*
X9595182Y-12070888D02*
X9595182Y-12013746D01*
X9595182Y-12013746D02*
X9604706Y-11994698D01*
X9604706Y-11994698D02*
X9614230Y-11985174D01*
X9614230Y-11985174D02*
X9633277Y-11975650D01*
X9633277Y-11975650D02*
X9661849Y-11975650D01*
X9661849Y-11975650D02*
X9680896Y-11985174D01*
X9680896Y-11985174D02*
X9690420Y-11994698D01*
X9690420Y-11994698D02*
X9699944Y-12013746D01*
X9699944Y-12013746D02*
X9699944Y-12070888D01*
X9699944Y-12070888D02*
X9690420Y-12089936D01*
X9690420Y-12089936D02*
X9680896Y-12099460D01*
X9680896Y-12099460D02*
X9661849Y-12108984D01*
X9661849Y-12108984D02*
X9633277Y-12108984D01*
X9757087Y-11975650D02*
X9833277Y-11975650D01*
X9785658Y-11908984D02*
X9785658Y-12080412D01*
X9785658Y-12080412D02*
X9795182Y-12099460D01*
X9795182Y-12099460D02*
X9814230Y-12108984D01*
X9814230Y-12108984D02*
X9833277Y-12108984D01*
X10052325Y-11975650D02*
X10052325Y-12175650D01*
X10052325Y-11985174D02*
X10071373Y-11975650D01*
X10071373Y-11975650D02*
X10109468Y-11975650D01*
X10109468Y-11975650D02*
X10128515Y-11985174D01*
X10128515Y-11985174D02*
X10138039Y-11994698D01*
X10138039Y-11994698D02*
X10147563Y-12013746D01*
X10147563Y-12013746D02*
X10147563Y-12070888D01*
X10147563Y-12070888D02*
X10138039Y-12089936D01*
X10138039Y-12089936D02*
X10128515Y-12099460D01*
X10128515Y-12099460D02*
X10109468Y-12108984D01*
X10109468Y-12108984D02*
X10071373Y-12108984D01*
X10071373Y-12108984D02*
X10052325Y-12099460D01*
X10261849Y-12108984D02*
X10242801Y-12099460D01*
X10242801Y-12099460D02*
X10233277Y-12080412D01*
X10233277Y-12080412D02*
X10233277Y-11908984D01*
X10423754Y-12108984D02*
X10423754Y-12004222D01*
X10423754Y-12004222D02*
X10414230Y-11985174D01*
X10414230Y-11985174D02*
X10395182Y-11975650D01*
X10395182Y-11975650D02*
X10357087Y-11975650D01*
X10357087Y-11975650D02*
X10338039Y-11985174D01*
X10423754Y-12099460D02*
X10404706Y-12108984D01*
X10404706Y-12108984D02*
X10357087Y-12108984D01*
X10357087Y-12108984D02*
X10338039Y-12099460D01*
X10338039Y-12099460D02*
X10328515Y-12080412D01*
X10328515Y-12080412D02*
X10328515Y-12061365D01*
X10328515Y-12061365D02*
X10338039Y-12042317D01*
X10338039Y-12042317D02*
X10357087Y-12032793D01*
X10357087Y-12032793D02*
X10404706Y-12032793D01*
X10404706Y-12032793D02*
X10423754Y-12023269D01*
X10490420Y-11975650D02*
X10566611Y-11975650D01*
X10518992Y-11908984D02*
X10518992Y-12080412D01*
X10518992Y-12080412D02*
X10528515Y-12099460D01*
X10528515Y-12099460D02*
X10547563Y-12108984D01*
X10547563Y-12108984D02*
X10566611Y-12108984D01*
X10709468Y-12099460D02*
X10690420Y-12108984D01*
X10690420Y-12108984D02*
X10652325Y-12108984D01*
X10652325Y-12108984D02*
X10633277Y-12099460D01*
X10633277Y-12099460D02*
X10623754Y-12080412D01*
X10623754Y-12080412D02*
X10623754Y-12004222D01*
X10623754Y-12004222D02*
X10633277Y-11985174D01*
X10633277Y-11985174D02*
X10652325Y-11975650D01*
X10652325Y-11975650D02*
X10690420Y-11975650D01*
X10690420Y-11975650D02*
X10709468Y-11985174D01*
X10709468Y-11985174D02*
X10718992Y-12004222D01*
X10718992Y-12004222D02*
X10718992Y-12023269D01*
X10718992Y-12023269D02*
X10623754Y-12042317D01*
X10890420Y-12108984D02*
X10890420Y-11908984D01*
X10890420Y-12099460D02*
X10871373Y-12108984D01*
X10871373Y-12108984D02*
X10833277Y-12108984D01*
X10833277Y-12108984D02*
X10814230Y-12099460D01*
X10814230Y-12099460D02*
X10804706Y-12089936D01*
X10804706Y-12089936D02*
X10795182Y-12070888D01*
X10795182Y-12070888D02*
X10795182Y-12013746D01*
X10795182Y-12013746D02*
X10804706Y-11994698D01*
X10804706Y-11994698D02*
X10814230Y-11985174D01*
X10814230Y-11985174D02*
X10833277Y-11975650D01*
X10833277Y-11975650D02*
X10871373Y-11975650D01*
X10871373Y-11975650D02*
X10890420Y-11985174D01*
X10966611Y-12185174D02*
X10976135Y-12175650D01*
X10976135Y-12175650D02*
X10995182Y-12147079D01*
X10995182Y-12147079D02*
X11004706Y-12128031D01*
X11004706Y-12128031D02*
X11014230Y-12099460D01*
X11014230Y-12099460D02*
X11023754Y-12051841D01*
X11023754Y-12051841D02*
X11023754Y-12013746D01*
X11023754Y-12013746D02*
X11014230Y-11966127D01*
X11014230Y-11966127D02*
X11004706Y-11937555D01*
X11004706Y-11937555D02*
X10995182Y-11918508D01*
X10995182Y-11918508D02*
X10976135Y-11889936D01*
X10976135Y-11889936D02*
X10966611Y-11880412D01*
X4372500Y-12281500D02*
G75*
G02*
X4172500Y-12281500I-100000J0D01*
G01*
X4172500Y-12281500D02*
G75*
G02*
X4372500Y-12281500I100000J0D01*
G01*
X4614229Y-12172984D02*
X4738039Y-12172984D01*
X4738039Y-12172984D02*
X4671372Y-12249174D01*
X4671372Y-12249174D02*
X4699944Y-12249174D01*
X4699944Y-12249174D02*
X4718991Y-12258698D01*
X4718991Y-12258698D02*
X4728515Y-12268222D01*
X4728515Y-12268222D02*
X4738039Y-12287269D01*
X4738039Y-12287269D02*
X4738039Y-12334888D01*
X4738039Y-12334888D02*
X4728515Y-12353936D01*
X4728515Y-12353936D02*
X4718991Y-12363460D01*
X4718991Y-12363460D02*
X4699944Y-12372984D01*
X4699944Y-12372984D02*
X4642801Y-12372984D01*
X4642801Y-12372984D02*
X4623753Y-12363460D01*
X4623753Y-12363460D02*
X4614229Y-12353936D01*
X4823753Y-12353936D02*
X4833277Y-12363460D01*
X4833277Y-12363460D02*
X4823753Y-12372984D01*
X4823753Y-12372984D02*
X4814229Y-12363460D01*
X4814229Y-12363460D02*
X4823753Y-12353936D01*
X4823753Y-12353936D02*
X4823753Y-12372984D01*
X4957086Y-12172984D02*
X4976134Y-12172984D01*
X4976134Y-12172984D02*
X4995182Y-12182508D01*
X4995182Y-12182508D02*
X5004705Y-12192031D01*
X5004705Y-12192031D02*
X5014229Y-12211079D01*
X5014229Y-12211079D02*
X5023753Y-12249174D01*
X5023753Y-12249174D02*
X5023753Y-12296793D01*
X5023753Y-12296793D02*
X5014229Y-12334888D01*
X5014229Y-12334888D02*
X5004705Y-12353936D01*
X5004705Y-12353936D02*
X4995182Y-12363460D01*
X4995182Y-12363460D02*
X4976134Y-12372984D01*
X4976134Y-12372984D02*
X4957086Y-12372984D01*
X4957086Y-12372984D02*
X4938039Y-12363460D01*
X4938039Y-12363460D02*
X4928515Y-12353936D01*
X4928515Y-12353936D02*
X4918991Y-12334888D01*
X4918991Y-12334888D02*
X4909467Y-12296793D01*
X4909467Y-12296793D02*
X4909467Y-12249174D01*
X4909467Y-12249174D02*
X4918991Y-12211079D01*
X4918991Y-12211079D02*
X4928515Y-12192031D01*
X4928515Y-12192031D02*
X4938039Y-12182508D01*
X4938039Y-12182508D02*
X4957086Y-12172984D01*
X5147563Y-12172984D02*
X5166610Y-12172984D01*
X5166610Y-12172984D02*
X5185658Y-12182508D01*
X5185658Y-12182508D02*
X5195182Y-12192031D01*
X5195182Y-12192031D02*
X5204705Y-12211079D01*
X5204705Y-12211079D02*
X5214229Y-12249174D01*
X5214229Y-12249174D02*
X5214229Y-12296793D01*
X5214229Y-12296793D02*
X5204705Y-12334888D01*
X5204705Y-12334888D02*
X5195182Y-12353936D01*
X5195182Y-12353936D02*
X5185658Y-12363460D01*
X5185658Y-12363460D02*
X5166610Y-12372984D01*
X5166610Y-12372984D02*
X5147563Y-12372984D01*
X5147563Y-12372984D02*
X5128515Y-12363460D01*
X5128515Y-12363460D02*
X5118991Y-12353936D01*
X5118991Y-12353936D02*
X5109467Y-12334888D01*
X5109467Y-12334888D02*
X5099944Y-12296793D01*
X5099944Y-12296793D02*
X5099944Y-12249174D01*
X5099944Y-12249174D02*
X5109467Y-12211079D01*
X5109467Y-12211079D02*
X5118991Y-12192031D01*
X5118991Y-12192031D02*
X5128515Y-12182508D01*
X5128515Y-12182508D02*
X5147563Y-12172984D01*
X5338039Y-12172984D02*
X5357086Y-12172984D01*
X5357086Y-12172984D02*
X5376134Y-12182508D01*
X5376134Y-12182508D02*
X5385658Y-12192031D01*
X5385658Y-12192031D02*
X5395182Y-12211079D01*
X5395182Y-12211079D02*
X5404705Y-12249174D01*
X5404705Y-12249174D02*
X5404705Y-12296793D01*
X5404705Y-12296793D02*
X5395182Y-12334888D01*
X5395182Y-12334888D02*
X5385658Y-12353936D01*
X5385658Y-12353936D02*
X5376134Y-12363460D01*
X5376134Y-12363460D02*
X5357086Y-12372984D01*
X5357086Y-12372984D02*
X5338039Y-12372984D01*
X5338039Y-12372984D02*
X5318991Y-12363460D01*
X5318991Y-12363460D02*
X5309467Y-12353936D01*
X5309467Y-12353936D02*
X5299944Y-12334888D01*
X5299944Y-12334888D02*
X5290420Y-12296793D01*
X5290420Y-12296793D02*
X5290420Y-12249174D01*
X5290420Y-12249174D02*
X5299944Y-12211079D01*
X5299944Y-12211079D02*
X5309467Y-12192031D01*
X5309467Y-12192031D02*
X5318991Y-12182508D01*
X5318991Y-12182508D02*
X5338039Y-12172984D01*
X5490420Y-12372984D02*
X5490420Y-12239650D01*
X5490420Y-12258698D02*
X5499944Y-12249174D01*
X5499944Y-12249174D02*
X5518991Y-12239650D01*
X5518991Y-12239650D02*
X5547563Y-12239650D01*
X5547563Y-12239650D02*
X5566610Y-12249174D01*
X5566610Y-12249174D02*
X5576134Y-12268222D01*
X5576134Y-12268222D02*
X5576134Y-12372984D01*
X5576134Y-12268222D02*
X5585658Y-12249174D01*
X5585658Y-12249174D02*
X5604705Y-12239650D01*
X5604705Y-12239650D02*
X5633277Y-12239650D01*
X5633277Y-12239650D02*
X5652324Y-12249174D01*
X5652324Y-12249174D02*
X5661848Y-12268222D01*
X5661848Y-12268222D02*
X5661848Y-12372984D01*
X5757086Y-12372984D02*
X5757086Y-12239650D01*
X5757086Y-12258698D02*
X5766610Y-12249174D01*
X5766610Y-12249174D02*
X5785658Y-12239650D01*
X5785658Y-12239650D02*
X5814229Y-12239650D01*
X5814229Y-12239650D02*
X5833277Y-12249174D01*
X5833277Y-12249174D02*
X5842801Y-12268222D01*
X5842801Y-12268222D02*
X5842801Y-12372984D01*
X5842801Y-12268222D02*
X5852324Y-12249174D01*
X5852324Y-12249174D02*
X5871372Y-12239650D01*
X5871372Y-12239650D02*
X5899943Y-12239650D01*
X5899943Y-12239650D02*
X5918991Y-12249174D01*
X5918991Y-12249174D02*
X5928515Y-12268222D01*
X5928515Y-12268222D02*
X5928515Y-12372984D01*
X6318991Y-12163460D02*
X6147563Y-12420603D01*
X6576134Y-12172984D02*
X6595182Y-12172984D01*
X6595182Y-12172984D02*
X6614229Y-12182508D01*
X6614229Y-12182508D02*
X6623753Y-12192031D01*
X6623753Y-12192031D02*
X6633277Y-12211079D01*
X6633277Y-12211079D02*
X6642801Y-12249174D01*
X6642801Y-12249174D02*
X6642801Y-12296793D01*
X6642801Y-12296793D02*
X6633277Y-12334888D01*
X6633277Y-12334888D02*
X6623753Y-12353936D01*
X6623753Y-12353936D02*
X6614229Y-12363460D01*
X6614229Y-12363460D02*
X6595182Y-12372984D01*
X6595182Y-12372984D02*
X6576134Y-12372984D01*
X6576134Y-12372984D02*
X6557086Y-12363460D01*
X6557086Y-12363460D02*
X6547563Y-12353936D01*
X6547563Y-12353936D02*
X6538039Y-12334888D01*
X6538039Y-12334888D02*
X6528515Y-12296793D01*
X6528515Y-12296793D02*
X6528515Y-12249174D01*
X6528515Y-12249174D02*
X6538039Y-12211079D01*
X6538039Y-12211079D02*
X6547563Y-12192031D01*
X6547563Y-12192031D02*
X6557086Y-12182508D01*
X6557086Y-12182508D02*
X6576134Y-12172984D01*
X6728515Y-12353936D02*
X6738039Y-12363460D01*
X6738039Y-12363460D02*
X6728515Y-12372984D01*
X6728515Y-12372984D02*
X6718991Y-12363460D01*
X6718991Y-12363460D02*
X6728515Y-12353936D01*
X6728515Y-12353936D02*
X6728515Y-12372984D01*
X6928515Y-12372984D02*
X6814229Y-12372984D01*
X6871372Y-12372984D02*
X6871372Y-12172984D01*
X6871372Y-12172984D02*
X6852325Y-12201555D01*
X6852325Y-12201555D02*
X6833277Y-12220603D01*
X6833277Y-12220603D02*
X6814229Y-12230127D01*
X7118991Y-12372984D02*
X7004706Y-12372984D01*
X7061848Y-12372984D02*
X7061848Y-12172984D01*
X7061848Y-12172984D02*
X7042801Y-12201555D01*
X7042801Y-12201555D02*
X7023753Y-12220603D01*
X7023753Y-12220603D02*
X7004706Y-12230127D01*
X7233277Y-12258698D02*
X7214229Y-12249174D01*
X7214229Y-12249174D02*
X7204706Y-12239650D01*
X7204706Y-12239650D02*
X7195182Y-12220603D01*
X7195182Y-12220603D02*
X7195182Y-12211079D01*
X7195182Y-12211079D02*
X7204706Y-12192031D01*
X7204706Y-12192031D02*
X7214229Y-12182508D01*
X7214229Y-12182508D02*
X7233277Y-12172984D01*
X7233277Y-12172984D02*
X7271372Y-12172984D01*
X7271372Y-12172984D02*
X7290420Y-12182508D01*
X7290420Y-12182508D02*
X7299944Y-12192031D01*
X7299944Y-12192031D02*
X7309467Y-12211079D01*
X7309467Y-12211079D02*
X7309467Y-12220603D01*
X7309467Y-12220603D02*
X7299944Y-12239650D01*
X7299944Y-12239650D02*
X7290420Y-12249174D01*
X7290420Y-12249174D02*
X7271372Y-12258698D01*
X7271372Y-12258698D02*
X7233277Y-12258698D01*
X7233277Y-12258698D02*
X7214229Y-12268222D01*
X7214229Y-12268222D02*
X7204706Y-12277746D01*
X7204706Y-12277746D02*
X7195182Y-12296793D01*
X7195182Y-12296793D02*
X7195182Y-12334888D01*
X7195182Y-12334888D02*
X7204706Y-12353936D01*
X7204706Y-12353936D02*
X7214229Y-12363460D01*
X7214229Y-12363460D02*
X7233277Y-12372984D01*
X7233277Y-12372984D02*
X7271372Y-12372984D01*
X7271372Y-12372984D02*
X7290420Y-12363460D01*
X7290420Y-12363460D02*
X7299944Y-12353936D01*
X7299944Y-12353936D02*
X7309467Y-12334888D01*
X7309467Y-12334888D02*
X7309467Y-12296793D01*
X7309467Y-12296793D02*
X7299944Y-12277746D01*
X7299944Y-12277746D02*
X7290420Y-12268222D01*
X7290420Y-12268222D02*
X7271372Y-12258698D01*
X7499944Y-12372984D02*
X7385658Y-12372984D01*
X7442801Y-12372984D02*
X7442801Y-12172984D01*
X7442801Y-12172984D02*
X7423753Y-12201555D01*
X7423753Y-12201555D02*
X7404706Y-12220603D01*
X7404706Y-12220603D02*
X7385658Y-12230127D01*
X7576134Y-12172984D02*
X7576134Y-12211079D01*
X7652325Y-12172984D02*
X7652325Y-12211079D01*
X7947563Y-12449174D02*
X7938039Y-12439650D01*
X7938039Y-12439650D02*
X7918991Y-12411079D01*
X7918991Y-12411079D02*
X7909468Y-12392031D01*
X7909468Y-12392031D02*
X7899944Y-12363460D01*
X7899944Y-12363460D02*
X7890420Y-12315841D01*
X7890420Y-12315841D02*
X7890420Y-12277746D01*
X7890420Y-12277746D02*
X7899944Y-12230127D01*
X7899944Y-12230127D02*
X7909468Y-12201555D01*
X7909468Y-12201555D02*
X7918991Y-12182508D01*
X7918991Y-12182508D02*
X7938039Y-12153936D01*
X7938039Y-12153936D02*
X7947563Y-12144412D01*
X8109468Y-12239650D02*
X8109468Y-12372984D01*
X8061848Y-12163460D02*
X8014229Y-12306317D01*
X8014229Y-12306317D02*
X8138039Y-12306317D01*
X8366610Y-12372984D02*
X8366610Y-12172984D01*
X8452325Y-12372984D02*
X8452325Y-12268222D01*
X8452325Y-12268222D02*
X8442801Y-12249174D01*
X8442801Y-12249174D02*
X8423753Y-12239650D01*
X8423753Y-12239650D02*
X8395182Y-12239650D01*
X8395182Y-12239650D02*
X8376134Y-12249174D01*
X8376134Y-12249174D02*
X8366610Y-12258698D01*
X8576134Y-12372984D02*
X8557087Y-12363460D01*
X8557087Y-12363460D02*
X8547563Y-12353936D01*
X8547563Y-12353936D02*
X8538039Y-12334888D01*
X8538039Y-12334888D02*
X8538039Y-12277746D01*
X8538039Y-12277746D02*
X8547563Y-12258698D01*
X8547563Y-12258698D02*
X8557087Y-12249174D01*
X8557087Y-12249174D02*
X8576134Y-12239650D01*
X8576134Y-12239650D02*
X8604706Y-12239650D01*
X8604706Y-12239650D02*
X8623753Y-12249174D01*
X8623753Y-12249174D02*
X8633277Y-12258698D01*
X8633277Y-12258698D02*
X8642801Y-12277746D01*
X8642801Y-12277746D02*
X8642801Y-12334888D01*
X8642801Y-12334888D02*
X8633277Y-12353936D01*
X8633277Y-12353936D02*
X8623753Y-12363460D01*
X8623753Y-12363460D02*
X8604706Y-12372984D01*
X8604706Y-12372984D02*
X8576134Y-12372984D01*
X8757087Y-12372984D02*
X8738039Y-12363460D01*
X8738039Y-12363460D02*
X8728515Y-12344412D01*
X8728515Y-12344412D02*
X8728515Y-12172984D01*
X8909468Y-12363460D02*
X8890420Y-12372984D01*
X8890420Y-12372984D02*
X8852325Y-12372984D01*
X8852325Y-12372984D02*
X8833277Y-12363460D01*
X8833277Y-12363460D02*
X8823753Y-12344412D01*
X8823753Y-12344412D02*
X8823753Y-12268222D01*
X8823753Y-12268222D02*
X8833277Y-12249174D01*
X8833277Y-12249174D02*
X8852325Y-12239650D01*
X8852325Y-12239650D02*
X8890420Y-12239650D01*
X8890420Y-12239650D02*
X8909468Y-12249174D01*
X8909468Y-12249174D02*
X8918992Y-12268222D01*
X8918992Y-12268222D02*
X8918992Y-12287269D01*
X8918992Y-12287269D02*
X8823753Y-12306317D01*
X8995182Y-12363460D02*
X9014230Y-12372984D01*
X9014230Y-12372984D02*
X9052325Y-12372984D01*
X9052325Y-12372984D02*
X9071373Y-12363460D01*
X9071373Y-12363460D02*
X9080896Y-12344412D01*
X9080896Y-12344412D02*
X9080896Y-12334888D01*
X9080896Y-12334888D02*
X9071373Y-12315841D01*
X9071373Y-12315841D02*
X9052325Y-12306317D01*
X9052325Y-12306317D02*
X9023753Y-12306317D01*
X9023753Y-12306317D02*
X9004706Y-12296793D01*
X9004706Y-12296793D02*
X8995182Y-12277746D01*
X8995182Y-12277746D02*
X8995182Y-12268222D01*
X8995182Y-12268222D02*
X9004706Y-12249174D01*
X9004706Y-12249174D02*
X9023753Y-12239650D01*
X9023753Y-12239650D02*
X9052325Y-12239650D01*
X9052325Y-12239650D02*
X9071373Y-12249174D01*
X9147563Y-12449174D02*
X9157087Y-12439650D01*
X9157087Y-12439650D02*
X9176134Y-12411079D01*
X9176134Y-12411079D02*
X9185658Y-12392031D01*
X9185658Y-12392031D02*
X9195182Y-12363460D01*
X9195182Y-12363460D02*
X9204706Y-12315841D01*
X9204706Y-12315841D02*
X9204706Y-12277746D01*
X9204706Y-12277746D02*
X9195182Y-12230127D01*
X9195182Y-12230127D02*
X9185658Y-12201555D01*
X9185658Y-12201555D02*
X9176134Y-12182508D01*
X9176134Y-12182508D02*
X9157087Y-12153936D01*
X9157087Y-12153936D02*
X9147563Y-12144412D01*
X9509468Y-12449174D02*
X9499944Y-12439650D01*
X9499944Y-12439650D02*
X9480896Y-12411079D01*
X9480896Y-12411079D02*
X9471373Y-12392031D01*
X9471373Y-12392031D02*
X9461849Y-12363460D01*
X9461849Y-12363460D02*
X9452325Y-12315841D01*
X9452325Y-12315841D02*
X9452325Y-12277746D01*
X9452325Y-12277746D02*
X9461849Y-12230127D01*
X9461849Y-12230127D02*
X9471373Y-12201555D01*
X9471373Y-12201555D02*
X9480896Y-12182508D01*
X9480896Y-12182508D02*
X9499944Y-12153936D01*
X9499944Y-12153936D02*
X9509468Y-12144412D01*
X9585658Y-12239650D02*
X9585658Y-12372984D01*
X9585658Y-12258698D02*
X9595182Y-12249174D01*
X9595182Y-12249174D02*
X9614230Y-12239650D01*
X9614230Y-12239650D02*
X9642801Y-12239650D01*
X9642801Y-12239650D02*
X9661849Y-12249174D01*
X9661849Y-12249174D02*
X9671373Y-12268222D01*
X9671373Y-12268222D02*
X9671373Y-12372984D01*
X9795182Y-12372984D02*
X9776134Y-12363460D01*
X9776134Y-12363460D02*
X9766611Y-12353936D01*
X9766611Y-12353936D02*
X9757087Y-12334888D01*
X9757087Y-12334888D02*
X9757087Y-12277746D01*
X9757087Y-12277746D02*
X9766611Y-12258698D01*
X9766611Y-12258698D02*
X9776134Y-12249174D01*
X9776134Y-12249174D02*
X9795182Y-12239650D01*
X9795182Y-12239650D02*
X9823754Y-12239650D01*
X9823754Y-12239650D02*
X9842801Y-12249174D01*
X9842801Y-12249174D02*
X9852325Y-12258698D01*
X9852325Y-12258698D02*
X9861849Y-12277746D01*
X9861849Y-12277746D02*
X9861849Y-12334888D01*
X9861849Y-12334888D02*
X9852325Y-12353936D01*
X9852325Y-12353936D02*
X9842801Y-12363460D01*
X9842801Y-12363460D02*
X9823754Y-12372984D01*
X9823754Y-12372984D02*
X9795182Y-12372984D01*
X9918992Y-12239650D02*
X9995182Y-12239650D01*
X9947563Y-12172984D02*
X9947563Y-12344412D01*
X9947563Y-12344412D02*
X9957087Y-12363460D01*
X9957087Y-12363460D02*
X9976134Y-12372984D01*
X9976134Y-12372984D02*
X9995182Y-12372984D01*
X10214230Y-12239650D02*
X10214230Y-12439650D01*
X10214230Y-12249174D02*
X10233277Y-12239650D01*
X10233277Y-12239650D02*
X10271373Y-12239650D01*
X10271373Y-12239650D02*
X10290420Y-12249174D01*
X10290420Y-12249174D02*
X10299944Y-12258698D01*
X10299944Y-12258698D02*
X10309468Y-12277746D01*
X10309468Y-12277746D02*
X10309468Y-12334888D01*
X10309468Y-12334888D02*
X10299944Y-12353936D01*
X10299944Y-12353936D02*
X10290420Y-12363460D01*
X10290420Y-12363460D02*
X10271373Y-12372984D01*
X10271373Y-12372984D02*
X10233277Y-12372984D01*
X10233277Y-12372984D02*
X10214230Y-12363460D01*
X10423754Y-12372984D02*
X10404706Y-12363460D01*
X10404706Y-12363460D02*
X10395182Y-12344412D01*
X10395182Y-12344412D02*
X10395182Y-12172984D01*
X10585658Y-12372984D02*
X10585658Y-12268222D01*
X10585658Y-12268222D02*
X10576135Y-12249174D01*
X10576135Y-12249174D02*
X10557087Y-12239650D01*
X10557087Y-12239650D02*
X10518992Y-12239650D01*
X10518992Y-12239650D02*
X10499944Y-12249174D01*
X10585658Y-12363460D02*
X10566611Y-12372984D01*
X10566611Y-12372984D02*
X10518992Y-12372984D01*
X10518992Y-12372984D02*
X10499944Y-12363460D01*
X10499944Y-12363460D02*
X10490420Y-12344412D01*
X10490420Y-12344412D02*
X10490420Y-12325365D01*
X10490420Y-12325365D02*
X10499944Y-12306317D01*
X10499944Y-12306317D02*
X10518992Y-12296793D01*
X10518992Y-12296793D02*
X10566611Y-12296793D01*
X10566611Y-12296793D02*
X10585658Y-12287269D01*
X10652325Y-12239650D02*
X10728515Y-12239650D01*
X10680896Y-12172984D02*
X10680896Y-12344412D01*
X10680896Y-12344412D02*
X10690420Y-12363460D01*
X10690420Y-12363460D02*
X10709468Y-12372984D01*
X10709468Y-12372984D02*
X10728515Y-12372984D01*
X10871373Y-12363460D02*
X10852325Y-12372984D01*
X10852325Y-12372984D02*
X10814230Y-12372984D01*
X10814230Y-12372984D02*
X10795182Y-12363460D01*
X10795182Y-12363460D02*
X10785658Y-12344412D01*
X10785658Y-12344412D02*
X10785658Y-12268222D01*
X10785658Y-12268222D02*
X10795182Y-12249174D01*
X10795182Y-12249174D02*
X10814230Y-12239650D01*
X10814230Y-12239650D02*
X10852325Y-12239650D01*
X10852325Y-12239650D02*
X10871373Y-12249174D01*
X10871373Y-12249174D02*
X10880896Y-12268222D01*
X10880896Y-12268222D02*
X10880896Y-12287269D01*
X10880896Y-12287269D02*
X10785658Y-12306317D01*
X11052325Y-12372984D02*
X11052325Y-12172984D01*
X11052325Y-12363460D02*
X11033277Y-12372984D01*
X11033277Y-12372984D02*
X10995182Y-12372984D01*
X10995182Y-12372984D02*
X10976135Y-12363460D01*
X10976135Y-12363460D02*
X10966611Y-12353936D01*
X10966611Y-12353936D02*
X10957087Y-12334888D01*
X10957087Y-12334888D02*
X10957087Y-12277746D01*
X10957087Y-12277746D02*
X10966611Y-12258698D01*
X10966611Y-12258698D02*
X10976135Y-12249174D01*
X10976135Y-12249174D02*
X10995182Y-12239650D01*
X10995182Y-12239650D02*
X11033277Y-12239650D01*
X11033277Y-12239650D02*
X11052325Y-12249174D01*
X11128516Y-12449174D02*
X11138039Y-12439650D01*
X11138039Y-12439650D02*
X11157087Y-12411079D01*
X11157087Y-12411079D02*
X11166611Y-12392031D01*
X11166611Y-12392031D02*
X11176135Y-12363460D01*
X11176135Y-12363460D02*
X11185658Y-12315841D01*
X11185658Y-12315841D02*
X11185658Y-12277746D01*
X11185658Y-12277746D02*
X11176135Y-12230127D01*
X11176135Y-12230127D02*
X11166611Y-12201555D01*
X11166611Y-12201555D02*
X11157087Y-12182508D01*
X11157087Y-12182508D02*
X11138039Y-12153936D01*
X11138039Y-12153936D02*
X11128516Y-12144412D01*
X4272500Y-12501500D02*
X4272500Y-12701500D01*
X4172500Y-12601500D02*
X4372500Y-12601500D01*
X4614229Y-12492984D02*
X4738039Y-12492984D01*
X4738039Y-12492984D02*
X4671372Y-12569174D01*
X4671372Y-12569174D02*
X4699944Y-12569174D01*
X4699944Y-12569174D02*
X4718991Y-12578698D01*
X4718991Y-12578698D02*
X4728515Y-12588222D01*
X4728515Y-12588222D02*
X4738039Y-12607269D01*
X4738039Y-12607269D02*
X4738039Y-12654888D01*
X4738039Y-12654888D02*
X4728515Y-12673936D01*
X4728515Y-12673936D02*
X4718991Y-12683460D01*
X4718991Y-12683460D02*
X4699944Y-12692984D01*
X4699944Y-12692984D02*
X4642801Y-12692984D01*
X4642801Y-12692984D02*
X4623753Y-12683460D01*
X4623753Y-12683460D02*
X4614229Y-12673936D01*
X4823753Y-12673936D02*
X4833277Y-12683460D01*
X4833277Y-12683460D02*
X4823753Y-12692984D01*
X4823753Y-12692984D02*
X4814229Y-12683460D01*
X4814229Y-12683460D02*
X4823753Y-12673936D01*
X4823753Y-12673936D02*
X4823753Y-12692984D01*
X5014229Y-12492984D02*
X4918991Y-12492984D01*
X4918991Y-12492984D02*
X4909467Y-12588222D01*
X4909467Y-12588222D02*
X4918991Y-12578698D01*
X4918991Y-12578698D02*
X4938039Y-12569174D01*
X4938039Y-12569174D02*
X4985658Y-12569174D01*
X4985658Y-12569174D02*
X5004705Y-12578698D01*
X5004705Y-12578698D02*
X5014229Y-12588222D01*
X5014229Y-12588222D02*
X5023753Y-12607269D01*
X5023753Y-12607269D02*
X5023753Y-12654888D01*
X5023753Y-12654888D02*
X5014229Y-12673936D01*
X5014229Y-12673936D02*
X5004705Y-12683460D01*
X5004705Y-12683460D02*
X4985658Y-12692984D01*
X4985658Y-12692984D02*
X4938039Y-12692984D01*
X4938039Y-12692984D02*
X4918991Y-12683460D01*
X4918991Y-12683460D02*
X4909467Y-12673936D01*
X5147563Y-12492984D02*
X5166610Y-12492984D01*
X5166610Y-12492984D02*
X5185658Y-12502508D01*
X5185658Y-12502508D02*
X5195182Y-12512031D01*
X5195182Y-12512031D02*
X5204705Y-12531079D01*
X5204705Y-12531079D02*
X5214229Y-12569174D01*
X5214229Y-12569174D02*
X5214229Y-12616793D01*
X5214229Y-12616793D02*
X5204705Y-12654888D01*
X5204705Y-12654888D02*
X5195182Y-12673936D01*
X5195182Y-12673936D02*
X5185658Y-12683460D01*
X5185658Y-12683460D02*
X5166610Y-12692984D01*
X5166610Y-12692984D02*
X5147563Y-12692984D01*
X5147563Y-12692984D02*
X5128515Y-12683460D01*
X5128515Y-12683460D02*
X5118991Y-12673936D01*
X5118991Y-12673936D02*
X5109467Y-12654888D01*
X5109467Y-12654888D02*
X5099944Y-12616793D01*
X5099944Y-12616793D02*
X5099944Y-12569174D01*
X5099944Y-12569174D02*
X5109467Y-12531079D01*
X5109467Y-12531079D02*
X5118991Y-12512031D01*
X5118991Y-12512031D02*
X5128515Y-12502508D01*
X5128515Y-12502508D02*
X5147563Y-12492984D01*
X5338039Y-12492984D02*
X5357086Y-12492984D01*
X5357086Y-12492984D02*
X5376134Y-12502508D01*
X5376134Y-12502508D02*
X5385658Y-12512031D01*
X5385658Y-12512031D02*
X5395182Y-12531079D01*
X5395182Y-12531079D02*
X5404705Y-12569174D01*
X5404705Y-12569174D02*
X5404705Y-12616793D01*
X5404705Y-12616793D02*
X5395182Y-12654888D01*
X5395182Y-12654888D02*
X5385658Y-12673936D01*
X5385658Y-12673936D02*
X5376134Y-12683460D01*
X5376134Y-12683460D02*
X5357086Y-12692984D01*
X5357086Y-12692984D02*
X5338039Y-12692984D01*
X5338039Y-12692984D02*
X5318991Y-12683460D01*
X5318991Y-12683460D02*
X5309467Y-12673936D01*
X5309467Y-12673936D02*
X5299944Y-12654888D01*
X5299944Y-12654888D02*
X5290420Y-12616793D01*
X5290420Y-12616793D02*
X5290420Y-12569174D01*
X5290420Y-12569174D02*
X5299944Y-12531079D01*
X5299944Y-12531079D02*
X5309467Y-12512031D01*
X5309467Y-12512031D02*
X5318991Y-12502508D01*
X5318991Y-12502508D02*
X5338039Y-12492984D01*
X5490420Y-12692984D02*
X5490420Y-12559650D01*
X5490420Y-12578698D02*
X5499944Y-12569174D01*
X5499944Y-12569174D02*
X5518991Y-12559650D01*
X5518991Y-12559650D02*
X5547563Y-12559650D01*
X5547563Y-12559650D02*
X5566610Y-12569174D01*
X5566610Y-12569174D02*
X5576134Y-12588222D01*
X5576134Y-12588222D02*
X5576134Y-12692984D01*
X5576134Y-12588222D02*
X5585658Y-12569174D01*
X5585658Y-12569174D02*
X5604705Y-12559650D01*
X5604705Y-12559650D02*
X5633277Y-12559650D01*
X5633277Y-12559650D02*
X5652324Y-12569174D01*
X5652324Y-12569174D02*
X5661848Y-12588222D01*
X5661848Y-12588222D02*
X5661848Y-12692984D01*
X5757086Y-12692984D02*
X5757086Y-12559650D01*
X5757086Y-12578698D02*
X5766610Y-12569174D01*
X5766610Y-12569174D02*
X5785658Y-12559650D01*
X5785658Y-12559650D02*
X5814229Y-12559650D01*
X5814229Y-12559650D02*
X5833277Y-12569174D01*
X5833277Y-12569174D02*
X5842801Y-12588222D01*
X5842801Y-12588222D02*
X5842801Y-12692984D01*
X5842801Y-12588222D02*
X5852324Y-12569174D01*
X5852324Y-12569174D02*
X5871372Y-12559650D01*
X5871372Y-12559650D02*
X5899943Y-12559650D01*
X5899943Y-12559650D02*
X5918991Y-12569174D01*
X5918991Y-12569174D02*
X5928515Y-12588222D01*
X5928515Y-12588222D02*
X5928515Y-12692984D01*
X6318991Y-12483460D02*
X6147563Y-12740603D01*
X6576134Y-12492984D02*
X6595182Y-12492984D01*
X6595182Y-12492984D02*
X6614229Y-12502508D01*
X6614229Y-12502508D02*
X6623753Y-12512031D01*
X6623753Y-12512031D02*
X6633277Y-12531079D01*
X6633277Y-12531079D02*
X6642801Y-12569174D01*
X6642801Y-12569174D02*
X6642801Y-12616793D01*
X6642801Y-12616793D02*
X6633277Y-12654888D01*
X6633277Y-12654888D02*
X6623753Y-12673936D01*
X6623753Y-12673936D02*
X6614229Y-12683460D01*
X6614229Y-12683460D02*
X6595182Y-12692984D01*
X6595182Y-12692984D02*
X6576134Y-12692984D01*
X6576134Y-12692984D02*
X6557086Y-12683460D01*
X6557086Y-12683460D02*
X6547563Y-12673936D01*
X6547563Y-12673936D02*
X6538039Y-12654888D01*
X6538039Y-12654888D02*
X6528515Y-12616793D01*
X6528515Y-12616793D02*
X6528515Y-12569174D01*
X6528515Y-12569174D02*
X6538039Y-12531079D01*
X6538039Y-12531079D02*
X6547563Y-12512031D01*
X6547563Y-12512031D02*
X6557086Y-12502508D01*
X6557086Y-12502508D02*
X6576134Y-12492984D01*
X6728515Y-12673936D02*
X6738039Y-12683460D01*
X6738039Y-12683460D02*
X6728515Y-12692984D01*
X6728515Y-12692984D02*
X6718991Y-12683460D01*
X6718991Y-12683460D02*
X6728515Y-12673936D01*
X6728515Y-12673936D02*
X6728515Y-12692984D01*
X6928515Y-12692984D02*
X6814229Y-12692984D01*
X6871372Y-12692984D02*
X6871372Y-12492984D01*
X6871372Y-12492984D02*
X6852325Y-12521555D01*
X6852325Y-12521555D02*
X6833277Y-12540603D01*
X6833277Y-12540603D02*
X6814229Y-12550127D01*
X6995182Y-12492984D02*
X7118991Y-12492984D01*
X7118991Y-12492984D02*
X7052325Y-12569174D01*
X7052325Y-12569174D02*
X7080896Y-12569174D01*
X7080896Y-12569174D02*
X7099944Y-12578698D01*
X7099944Y-12578698D02*
X7109467Y-12588222D01*
X7109467Y-12588222D02*
X7118991Y-12607269D01*
X7118991Y-12607269D02*
X7118991Y-12654888D01*
X7118991Y-12654888D02*
X7109467Y-12673936D01*
X7109467Y-12673936D02*
X7099944Y-12683460D01*
X7099944Y-12683460D02*
X7080896Y-12692984D01*
X7080896Y-12692984D02*
X7023753Y-12692984D01*
X7023753Y-12692984D02*
X7004706Y-12683460D01*
X7004706Y-12683460D02*
X6995182Y-12673936D01*
X7185658Y-12492984D02*
X7318991Y-12492984D01*
X7318991Y-12492984D02*
X7233277Y-12692984D01*
X7423753Y-12578698D02*
X7404706Y-12569174D01*
X7404706Y-12569174D02*
X7395182Y-12559650D01*
X7395182Y-12559650D02*
X7385658Y-12540603D01*
X7385658Y-12540603D02*
X7385658Y-12531079D01*
X7385658Y-12531079D02*
X7395182Y-12512031D01*
X7395182Y-12512031D02*
X7404706Y-12502508D01*
X7404706Y-12502508D02*
X7423753Y-12492984D01*
X7423753Y-12492984D02*
X7461848Y-12492984D01*
X7461848Y-12492984D02*
X7480896Y-12502508D01*
X7480896Y-12502508D02*
X7490420Y-12512031D01*
X7490420Y-12512031D02*
X7499944Y-12531079D01*
X7499944Y-12531079D02*
X7499944Y-12540603D01*
X7499944Y-12540603D02*
X7490420Y-12559650D01*
X7490420Y-12559650D02*
X7480896Y-12569174D01*
X7480896Y-12569174D02*
X7461848Y-12578698D01*
X7461848Y-12578698D02*
X7423753Y-12578698D01*
X7423753Y-12578698D02*
X7404706Y-12588222D01*
X7404706Y-12588222D02*
X7395182Y-12597746D01*
X7395182Y-12597746D02*
X7385658Y-12616793D01*
X7385658Y-12616793D02*
X7385658Y-12654888D01*
X7385658Y-12654888D02*
X7395182Y-12673936D01*
X7395182Y-12673936D02*
X7404706Y-12683460D01*
X7404706Y-12683460D02*
X7423753Y-12692984D01*
X7423753Y-12692984D02*
X7461848Y-12692984D01*
X7461848Y-12692984D02*
X7480896Y-12683460D01*
X7480896Y-12683460D02*
X7490420Y-12673936D01*
X7490420Y-12673936D02*
X7499944Y-12654888D01*
X7499944Y-12654888D02*
X7499944Y-12616793D01*
X7499944Y-12616793D02*
X7490420Y-12597746D01*
X7490420Y-12597746D02*
X7480896Y-12588222D01*
X7480896Y-12588222D02*
X7461848Y-12578698D01*
X7576134Y-12492984D02*
X7576134Y-12531079D01*
X7652325Y-12492984D02*
X7652325Y-12531079D01*
X7947563Y-12769174D02*
X7938039Y-12759650D01*
X7938039Y-12759650D02*
X7918991Y-12731079D01*
X7918991Y-12731079D02*
X7909468Y-12712031D01*
X7909468Y-12712031D02*
X7899944Y-12683460D01*
X7899944Y-12683460D02*
X7890420Y-12635841D01*
X7890420Y-12635841D02*
X7890420Y-12597746D01*
X7890420Y-12597746D02*
X7899944Y-12550127D01*
X7899944Y-12550127D02*
X7909468Y-12521555D01*
X7909468Y-12521555D02*
X7918991Y-12502508D01*
X7918991Y-12502508D02*
X7938039Y-12473936D01*
X7938039Y-12473936D02*
X7947563Y-12464412D01*
X8128515Y-12692984D02*
X8014229Y-12692984D01*
X8071372Y-12692984D02*
X8071372Y-12492984D01*
X8071372Y-12492984D02*
X8052325Y-12521555D01*
X8052325Y-12521555D02*
X8033277Y-12540603D01*
X8033277Y-12540603D02*
X8014229Y-12550127D01*
X8366610Y-12692984D02*
X8366610Y-12492984D01*
X8452325Y-12692984D02*
X8452325Y-12588222D01*
X8452325Y-12588222D02*
X8442801Y-12569174D01*
X8442801Y-12569174D02*
X8423753Y-12559650D01*
X8423753Y-12559650D02*
X8395182Y-12559650D01*
X8395182Y-12559650D02*
X8376134Y-12569174D01*
X8376134Y-12569174D02*
X8366610Y-12578698D01*
X8576134Y-12692984D02*
X8557087Y-12683460D01*
X8557087Y-12683460D02*
X8547563Y-12673936D01*
X8547563Y-12673936D02*
X8538039Y-12654888D01*
X8538039Y-12654888D02*
X8538039Y-12597746D01*
X8538039Y-12597746D02*
X8547563Y-12578698D01*
X8547563Y-12578698D02*
X8557087Y-12569174D01*
X8557087Y-12569174D02*
X8576134Y-12559650D01*
X8576134Y-12559650D02*
X8604706Y-12559650D01*
X8604706Y-12559650D02*
X8623753Y-12569174D01*
X8623753Y-12569174D02*
X8633277Y-12578698D01*
X8633277Y-12578698D02*
X8642801Y-12597746D01*
X8642801Y-12597746D02*
X8642801Y-12654888D01*
X8642801Y-12654888D02*
X8633277Y-12673936D01*
X8633277Y-12673936D02*
X8623753Y-12683460D01*
X8623753Y-12683460D02*
X8604706Y-12692984D01*
X8604706Y-12692984D02*
X8576134Y-12692984D01*
X8757087Y-12692984D02*
X8738039Y-12683460D01*
X8738039Y-12683460D02*
X8728515Y-12664412D01*
X8728515Y-12664412D02*
X8728515Y-12492984D01*
X8909468Y-12683460D02*
X8890420Y-12692984D01*
X8890420Y-12692984D02*
X8852325Y-12692984D01*
X8852325Y-12692984D02*
X8833277Y-12683460D01*
X8833277Y-12683460D02*
X8823753Y-12664412D01*
X8823753Y-12664412D02*
X8823753Y-12588222D01*
X8823753Y-12588222D02*
X8833277Y-12569174D01*
X8833277Y-12569174D02*
X8852325Y-12559650D01*
X8852325Y-12559650D02*
X8890420Y-12559650D01*
X8890420Y-12559650D02*
X8909468Y-12569174D01*
X8909468Y-12569174D02*
X8918992Y-12588222D01*
X8918992Y-12588222D02*
X8918992Y-12607269D01*
X8918992Y-12607269D02*
X8823753Y-12626317D01*
X8985658Y-12769174D02*
X8995182Y-12759650D01*
X8995182Y-12759650D02*
X9014230Y-12731079D01*
X9014230Y-12731079D02*
X9023753Y-12712031D01*
X9023753Y-12712031D02*
X9033277Y-12683460D01*
X9033277Y-12683460D02*
X9042801Y-12635841D01*
X9042801Y-12635841D02*
X9042801Y-12597746D01*
X9042801Y-12597746D02*
X9033277Y-12550127D01*
X9033277Y-12550127D02*
X9023753Y-12521555D01*
X9023753Y-12521555D02*
X9014230Y-12502508D01*
X9014230Y-12502508D02*
X8995182Y-12473936D01*
X8995182Y-12473936D02*
X8985658Y-12464412D01*
X9347563Y-12769174D02*
X9338039Y-12759650D01*
X9338039Y-12759650D02*
X9318992Y-12731079D01*
X9318992Y-12731079D02*
X9309468Y-12712031D01*
X9309468Y-12712031D02*
X9299944Y-12683460D01*
X9299944Y-12683460D02*
X9290420Y-12635841D01*
X9290420Y-12635841D02*
X9290420Y-12597746D01*
X9290420Y-12597746D02*
X9299944Y-12550127D01*
X9299944Y-12550127D02*
X9309468Y-12521555D01*
X9309468Y-12521555D02*
X9318992Y-12502508D01*
X9318992Y-12502508D02*
X9338039Y-12473936D01*
X9338039Y-12473936D02*
X9347563Y-12464412D01*
X9423753Y-12559650D02*
X9423753Y-12692984D01*
X9423753Y-12578698D02*
X9433277Y-12569174D01*
X9433277Y-12569174D02*
X9452325Y-12559650D01*
X9452325Y-12559650D02*
X9480896Y-12559650D01*
X9480896Y-12559650D02*
X9499944Y-12569174D01*
X9499944Y-12569174D02*
X9509468Y-12588222D01*
X9509468Y-12588222D02*
X9509468Y-12692984D01*
X9633277Y-12692984D02*
X9614230Y-12683460D01*
X9614230Y-12683460D02*
X9604706Y-12673936D01*
X9604706Y-12673936D02*
X9595182Y-12654888D01*
X9595182Y-12654888D02*
X9595182Y-12597746D01*
X9595182Y-12597746D02*
X9604706Y-12578698D01*
X9604706Y-12578698D02*
X9614230Y-12569174D01*
X9614230Y-12569174D02*
X9633277Y-12559650D01*
X9633277Y-12559650D02*
X9661849Y-12559650D01*
X9661849Y-12559650D02*
X9680896Y-12569174D01*
X9680896Y-12569174D02*
X9690420Y-12578698D01*
X9690420Y-12578698D02*
X9699944Y-12597746D01*
X9699944Y-12597746D02*
X9699944Y-12654888D01*
X9699944Y-12654888D02*
X9690420Y-12673936D01*
X9690420Y-12673936D02*
X9680896Y-12683460D01*
X9680896Y-12683460D02*
X9661849Y-12692984D01*
X9661849Y-12692984D02*
X9633277Y-12692984D01*
X9757087Y-12559650D02*
X9833277Y-12559650D01*
X9785658Y-12492984D02*
X9785658Y-12664412D01*
X9785658Y-12664412D02*
X9795182Y-12683460D01*
X9795182Y-12683460D02*
X9814230Y-12692984D01*
X9814230Y-12692984D02*
X9833277Y-12692984D01*
X10052325Y-12559650D02*
X10052325Y-12759650D01*
X10052325Y-12569174D02*
X10071373Y-12559650D01*
X10071373Y-12559650D02*
X10109468Y-12559650D01*
X10109468Y-12559650D02*
X10128515Y-12569174D01*
X10128515Y-12569174D02*
X10138039Y-12578698D01*
X10138039Y-12578698D02*
X10147563Y-12597746D01*
X10147563Y-12597746D02*
X10147563Y-12654888D01*
X10147563Y-12654888D02*
X10138039Y-12673936D01*
X10138039Y-12673936D02*
X10128515Y-12683460D01*
X10128515Y-12683460D02*
X10109468Y-12692984D01*
X10109468Y-12692984D02*
X10071373Y-12692984D01*
X10071373Y-12692984D02*
X10052325Y-12683460D01*
X10261849Y-12692984D02*
X10242801Y-12683460D01*
X10242801Y-12683460D02*
X10233277Y-12664412D01*
X10233277Y-12664412D02*
X10233277Y-12492984D01*
X10423754Y-12692984D02*
X10423754Y-12588222D01*
X10423754Y-12588222D02*
X10414230Y-12569174D01*
X10414230Y-12569174D02*
X10395182Y-12559650D01*
X10395182Y-12559650D02*
X10357087Y-12559650D01*
X10357087Y-12559650D02*
X10338039Y-12569174D01*
X10423754Y-12683460D02*
X10404706Y-12692984D01*
X10404706Y-12692984D02*
X10357087Y-12692984D01*
X10357087Y-12692984D02*
X10338039Y-12683460D01*
X10338039Y-12683460D02*
X10328515Y-12664412D01*
X10328515Y-12664412D02*
X10328515Y-12645365D01*
X10328515Y-12645365D02*
X10338039Y-12626317D01*
X10338039Y-12626317D02*
X10357087Y-12616793D01*
X10357087Y-12616793D02*
X10404706Y-12616793D01*
X10404706Y-12616793D02*
X10423754Y-12607269D01*
X10490420Y-12559650D02*
X10566611Y-12559650D01*
X10518992Y-12492984D02*
X10518992Y-12664412D01*
X10518992Y-12664412D02*
X10528515Y-12683460D01*
X10528515Y-12683460D02*
X10547563Y-12692984D01*
X10547563Y-12692984D02*
X10566611Y-12692984D01*
X10709468Y-12683460D02*
X10690420Y-12692984D01*
X10690420Y-12692984D02*
X10652325Y-12692984D01*
X10652325Y-12692984D02*
X10633277Y-12683460D01*
X10633277Y-12683460D02*
X10623754Y-12664412D01*
X10623754Y-12664412D02*
X10623754Y-12588222D01*
X10623754Y-12588222D02*
X10633277Y-12569174D01*
X10633277Y-12569174D02*
X10652325Y-12559650D01*
X10652325Y-12559650D02*
X10690420Y-12559650D01*
X10690420Y-12559650D02*
X10709468Y-12569174D01*
X10709468Y-12569174D02*
X10718992Y-12588222D01*
X10718992Y-12588222D02*
X10718992Y-12607269D01*
X10718992Y-12607269D02*
X10623754Y-12626317D01*
X10890420Y-12692984D02*
X10890420Y-12492984D01*
X10890420Y-12683460D02*
X10871373Y-12692984D01*
X10871373Y-12692984D02*
X10833277Y-12692984D01*
X10833277Y-12692984D02*
X10814230Y-12683460D01*
X10814230Y-12683460D02*
X10804706Y-12673936D01*
X10804706Y-12673936D02*
X10795182Y-12654888D01*
X10795182Y-12654888D02*
X10795182Y-12597746D01*
X10795182Y-12597746D02*
X10804706Y-12578698D01*
X10804706Y-12578698D02*
X10814230Y-12569174D01*
X10814230Y-12569174D02*
X10833277Y-12559650D01*
X10833277Y-12559650D02*
X10871373Y-12559650D01*
X10871373Y-12559650D02*
X10890420Y-12569174D01*
X10966611Y-12769174D02*
X10976135Y-12759650D01*
X10976135Y-12759650D02*
X10995182Y-12731079D01*
X10995182Y-12731079D02*
X11004706Y-12712031D01*
X11004706Y-12712031D02*
X11014230Y-12683460D01*
X11014230Y-12683460D02*
X11023754Y-12635841D01*
X11023754Y-12635841D02*
X11023754Y-12597746D01*
X11023754Y-12597746D02*
X11014230Y-12550127D01*
X11014230Y-12550127D02*
X11004706Y-12521555D01*
X11004706Y-12521555D02*
X10995182Y-12502508D01*
X10995182Y-12502508D02*
X10976135Y-12473936D01*
X10976135Y-12473936D02*
X10966611Y-12464412D01*
M02*
