G04 #@! TF.GenerationSoftware,KiCad,Pcbnew,8.0.4*
G04 #@! TF.CreationDate,2024-09-02T14:28:07-04:00*
G04 #@! TF.ProjectId,360_atx_power_board,3336305f-6174-4785-9f70-6f7765725f62,rev?*
G04 #@! TF.SameCoordinates,Original*
G04 #@! TF.FileFunction,Soldermask,Top*
G04 #@! TF.FilePolarity,Negative*
%FSLAX46Y46*%
G04 Gerber Fmt 4.6, Leading zero omitted, Abs format (unit mm)*
G04 Created by KiCad (PCBNEW 8.0.4) date 2024-09-02 14:28:07*
%MOMM*%
%LPD*%
G01*
G04 APERTURE LIST*
G04 Aperture macros list*
%AMRoundRect*
0 Rectangle with rounded corners*
0 $1 Rounding radius*
0 $2 $3 $4 $5 $6 $7 $8 $9 X,Y pos of 4 corners*
0 Add a 4 corners polygon primitive as box body*
4,1,4,$2,$3,$4,$5,$6,$7,$8,$9,$2,$3,0*
0 Add four circle primitives for the rounded corners*
1,1,$1+$1,$2,$3*
1,1,$1+$1,$4,$5*
1,1,$1+$1,$6,$7*
1,1,$1+$1,$8,$9*
0 Add four rect primitives between the rounded corners*
20,1,$1+$1,$2,$3,$4,$5,0*
20,1,$1+$1,$4,$5,$6,$7,0*
20,1,$1+$1,$6,$7,$8,$9,0*
20,1,$1+$1,$8,$9,$2,$3,0*%
G04 Aperture macros list end*
%ADD10RoundRect,0.250000X-0.400000X-0.625000X0.400000X-0.625000X0.400000X0.625000X-0.400000X0.625000X0*%
%ADD11RoundRect,0.250001X-0.462499X-0.624999X0.462499X-0.624999X0.462499X0.624999X-0.462499X0.624999X0*%
%ADD12RoundRect,0.250000X0.550000X-1.500000X0.550000X1.500000X-0.550000X1.500000X-0.550000X-1.500000X0*%
%ADD13RoundRect,0.250000X-0.412500X-0.650000X0.412500X-0.650000X0.412500X0.650000X-0.412500X0.650000X0*%
%ADD14C,3.000000*%
%ADD15R,2.150000X2.150000*%
%ADD16C,2.150000*%
%ADD17R,2.600000X2.600000*%
%ADD18C,2.600000*%
%ADD19C,5.500000*%
%ADD20C,2.400000*%
%ADD21R,2.775000X2.775000*%
%ADD22C,2.775000*%
%ADD23RoundRect,0.250000X0.400000X0.625000X-0.400000X0.625000X-0.400000X-0.625000X0.400000X-0.625000X0*%
%ADD24C,1.300000*%
%ADD25R,1.530000X1.530000*%
%ADD26C,1.550000*%
%ADD27O,3.500000X3.500000*%
%ADD28R,2.000000X2.000000*%
%ADD29O,2.000000X2.000000*%
%ADD30RoundRect,0.150000X0.150000X-0.512500X0.150000X0.512500X-0.150000X0.512500X-0.150000X-0.512500X0*%
G04 APERTURE END LIST*
D10*
X78200000Y-82500000D03*
X81300000Y-82500000D03*
D11*
X67762500Y-87500000D03*
X70737500Y-87500000D03*
X94112500Y-87500000D03*
X97087500Y-87500000D03*
X88762500Y-87500000D03*
X91737500Y-87500000D03*
X73000000Y-87500000D03*
X75975000Y-87500000D03*
D12*
X105800000Y-86950000D03*
X105800000Y-81550000D03*
D13*
X61837500Y-101200000D03*
X64962500Y-101200000D03*
D14*
X125750000Y-61500000D03*
X113150000Y-61500000D03*
D15*
X113150000Y-68800000D03*
D16*
X117350000Y-68800000D03*
X121550000Y-68800000D03*
X125750000Y-68800000D03*
X113150000Y-74300000D03*
X117350000Y-74300000D03*
X121550000Y-74300000D03*
X125750000Y-74300000D03*
D11*
X83512500Y-87500000D03*
X86487500Y-87500000D03*
D13*
X56637500Y-101200000D03*
X59762500Y-101200000D03*
D17*
X76430000Y-106250000D03*
D18*
X81510000Y-106250000D03*
X86590000Y-106250000D03*
X91670000Y-106250000D03*
X96750000Y-106250000D03*
X101830000Y-106250000D03*
D19*
X47500000Y-57500000D03*
X133500000Y-57500000D03*
D20*
X89015000Y-93550000D03*
X102485000Y-93550000D03*
X89015000Y-96950000D03*
X102485000Y-96950000D03*
X80485000Y-96950000D03*
X67015000Y-96950000D03*
X80485000Y-93550000D03*
X67015000Y-93550000D03*
D21*
X52000000Y-84500000D03*
D22*
X56700000Y-84500000D03*
X61400000Y-84500000D03*
D10*
X83450000Y-82500000D03*
X86550000Y-82500000D03*
D21*
X120250000Y-97000000D03*
D22*
X115550000Y-97000000D03*
X110850000Y-97000000D03*
D10*
X88700000Y-82500000D03*
X91800000Y-82500000D03*
D23*
X53050000Y-96000000D03*
X49950000Y-96000000D03*
D19*
X133500000Y-110250000D03*
D24*
X129905000Y-96428000D03*
D25*
X127745000Y-91348000D03*
D26*
X127745000Y-93888000D03*
X127745000Y-96428000D03*
X127745000Y-98968000D03*
D14*
X104300000Y-61421900D03*
X58100000Y-61421900D03*
D15*
X58100000Y-68721900D03*
D16*
X62300000Y-68721900D03*
X66500000Y-68721900D03*
X70700000Y-68721900D03*
X74900000Y-68721900D03*
X79100000Y-68721900D03*
X83300000Y-68721900D03*
X87500000Y-68721900D03*
X91700000Y-68721900D03*
X95900000Y-68721900D03*
X100100000Y-68721900D03*
X104300000Y-68721900D03*
X58100000Y-74221900D03*
X62300000Y-74221900D03*
X66500000Y-74221900D03*
X70700000Y-74221900D03*
X74900000Y-74221900D03*
X79100000Y-74221900D03*
X83300000Y-74221900D03*
X87500000Y-74221900D03*
X91700000Y-74221900D03*
X95900000Y-74221900D03*
X100100000Y-74221900D03*
X104300000Y-74221900D03*
D19*
X47500000Y-110250000D03*
D10*
X49950000Y-91200000D03*
X53050000Y-91200000D03*
X72937500Y-82500000D03*
X76037500Y-82500000D03*
D27*
X125930000Y-107040000D03*
D28*
X109270000Y-104500000D03*
D29*
X109270000Y-109580000D03*
D23*
X70800000Y-82500000D03*
X67700000Y-82500000D03*
D10*
X94050000Y-82500000D03*
X97150000Y-82500000D03*
D11*
X78262500Y-87500000D03*
X81237500Y-87500000D03*
D30*
X50300000Y-103675000D03*
X51250000Y-103675000D03*
X52200000Y-103675000D03*
X52200000Y-101400000D03*
X50300000Y-101400000D03*
D12*
X115800000Y-86900000D03*
X115800000Y-81500000D03*
M02*
