%TF.GenerationSoftware,KiCad,Pcbnew,8.0.4*%
%TF.CreationDate,2024-07-30T17:49:45-04:00*%
%TF.ProjectId,360_atx_power_board,3336305f-6174-4785-9f70-6f7765725f62,rev?*%
%TF.SameCoordinates,Original*%
%TF.FileFunction,Soldermask,Bot*%
%TF.FilePolarity,Negative*%
%FSLAX46Y46*%
G04 Gerber Fmt 4.6, Leading zero omitted, Abs format (unit mm)*
G04 Created by KiCad (PCBNEW 8.0.4) date 2024-07-30 17:49:45*
%MOMM*%
%LPD*%
G01*
G04 APERTURE LIST*
%ADD10C,3.000000*%
%ADD11R,2.300000X2.300000*%
%ADD12C,2.300000*%
%ADD13C,2.540000*%
%ADD14C,4.000000*%
%ADD15C,2.400000*%
%ADD16R,2.600000X2.600000*%
%ADD17C,2.600000*%
%ADD18C,5.500000*%
%ADD19R,2.775000X2.775000*%
%ADD20C,2.775000*%
%ADD21R,2.150000X2.150000*%
%ADD22C,2.150000*%
%ADD23O,3.500000X3.500000*%
%ADD24R,2.000000X2.000000*%
%ADD25O,2.000000X2.000000*%
G04 APERTURE END LIST*
D10*
%TO.C,J5*%
X172465100Y-89584250D03*
X172465100Y-76984250D03*
D11*
X165165100Y-76984250D03*
D12*
X165165100Y-81184250D03*
X165165100Y-85384250D03*
X165165100Y-89584250D03*
X160965100Y-76984250D03*
X160965100Y-81184250D03*
X160965100Y-85384250D03*
X160965100Y-89584250D03*
%TD*%
D13*
%TO.C,J3*%
X149340000Y-60120000D03*
D14*
X154420000Y-52500000D03*
X164580000Y-52500000D03*
D13*
X169660000Y-60120000D03*
D15*
X167120000Y-62660000D03*
X162040000Y-62660000D03*
X156960000Y-62660000D03*
X151880000Y-62660000D03*
%TD*%
D16*
%TO.C,J2*%
X71760000Y-110000000D03*
D17*
X76840000Y-110000000D03*
X81920000Y-110000000D03*
X87000000Y-110000000D03*
X92080000Y-110000000D03*
%TD*%
D18*
%TO.C,H1*%
X50000000Y-53000000D03*
%TD*%
%TO.C,H2*%
X113000000Y-53000000D03*
%TD*%
D19*
%TO.C,SW1*%
X52792500Y-77000000D03*
D20*
X57492500Y-77000000D03*
X62192500Y-77000000D03*
%TD*%
D19*
%TO.C,SW2*%
X151707500Y-89500000D03*
D20*
X147007500Y-89500000D03*
X142307500Y-89500000D03*
%TD*%
D18*
%TO.C,H5*%
X176000000Y-52950000D03*
%TD*%
%TO.C,H4*%
X113000000Y-115000000D03*
%TD*%
D10*
%TO.C,J1*%
X104100000Y-56921900D03*
X57900000Y-56921900D03*
D21*
X57900000Y-64221900D03*
D22*
X62100000Y-64221900D03*
X66300000Y-64221900D03*
X70500000Y-64221900D03*
X74700000Y-64221900D03*
X78900000Y-64221900D03*
X83100000Y-64221900D03*
X87300000Y-64221900D03*
X91500000Y-64221900D03*
X95700000Y-64221900D03*
X99900000Y-64221900D03*
X104100000Y-64221900D03*
X57900000Y-69721900D03*
X62100000Y-69721900D03*
X66300000Y-69721900D03*
X70500000Y-69721900D03*
X74700000Y-69721900D03*
X78900000Y-69721900D03*
X83100000Y-69721900D03*
X87300000Y-69721900D03*
X91500000Y-69721900D03*
X95700000Y-69721900D03*
X99900000Y-69721900D03*
X104100000Y-69721900D03*
%TD*%
D18*
%TO.C,H3*%
X50000000Y-115000000D03*
%TD*%
D23*
%TO.C,R7*%
X146000000Y-98070000D03*
D24*
X143460000Y-114730000D03*
D25*
X148540000Y-114730000D03*
%TD*%
D10*
%TO.C,J4*%
X138200000Y-56700000D03*
X125600000Y-56700000D03*
D21*
X125600000Y-64000000D03*
D22*
X129800000Y-64000000D03*
X134000000Y-64000000D03*
X138200000Y-64000000D03*
X125600000Y-69500000D03*
X129800000Y-69500000D03*
X134000000Y-69500000D03*
X138200000Y-69500000D03*
%TD*%
D18*
%TO.C,H6*%
X176000000Y-115000000D03*
%TD*%
M02*
