G04 #@! TF.GenerationSoftware,KiCad,Pcbnew,8.0.4*
G04 #@! TF.CreationDate,2024-09-02T14:28:07-04:00*
G04 #@! TF.ProjectId,360_atx_power_board,3336305f-6174-4785-9f70-6f7765725f62,rev?*
G04 #@! TF.SameCoordinates,Original*
G04 #@! TF.FileFunction,Soldermask,Bot*
G04 #@! TF.FilePolarity,Negative*
%FSLAX46Y46*%
G04 Gerber Fmt 4.6, Leading zero omitted, Abs format (unit mm)*
G04 Created by KiCad (PCBNEW 8.0.4) date 2024-09-02 14:28:07*
%MOMM*%
%LPD*%
G01*
G04 APERTURE LIST*
%ADD10C,3.000000*%
%ADD11R,2.150000X2.150000*%
%ADD12C,2.150000*%
%ADD13R,2.600000X2.600000*%
%ADD14C,2.600000*%
%ADD15C,5.500000*%
%ADD16C,2.400000*%
%ADD17R,2.775000X2.775000*%
%ADD18C,2.775000*%
%ADD19C,1.300000*%
%ADD20R,1.530000X1.530000*%
%ADD21C,1.550000*%
%ADD22O,3.500000X3.500000*%
%ADD23R,2.000000X2.000000*%
%ADD24O,2.000000X2.000000*%
G04 APERTURE END LIST*
D10*
X125750000Y-61500000D03*
X113150000Y-61500000D03*
D11*
X113150000Y-68800000D03*
D12*
X117350000Y-68800000D03*
X121550000Y-68800000D03*
X125750000Y-68800000D03*
X113150000Y-74300000D03*
X117350000Y-74300000D03*
X121550000Y-74300000D03*
X125750000Y-74300000D03*
D13*
X76430000Y-106250000D03*
D14*
X81510000Y-106250000D03*
X86590000Y-106250000D03*
X91670000Y-106250000D03*
X96750000Y-106250000D03*
X101830000Y-106250000D03*
D15*
X47500000Y-57500000D03*
X133500000Y-57500000D03*
D16*
X89015000Y-93550000D03*
X102485000Y-93550000D03*
X89015000Y-96950000D03*
X102485000Y-96950000D03*
X80485000Y-96950000D03*
X67015000Y-96950000D03*
X80485000Y-93550000D03*
X67015000Y-93550000D03*
D17*
X52000000Y-84500000D03*
D18*
X56700000Y-84500000D03*
X61400000Y-84500000D03*
D17*
X120250000Y-97000000D03*
D18*
X115550000Y-97000000D03*
X110850000Y-97000000D03*
D15*
X133500000Y-110250000D03*
D19*
X129905000Y-96428000D03*
D20*
X127745000Y-91348000D03*
D21*
X127745000Y-93888000D03*
X127745000Y-96428000D03*
X127745000Y-98968000D03*
D10*
X104300000Y-61421900D03*
X58100000Y-61421900D03*
D11*
X58100000Y-68721900D03*
D12*
X62300000Y-68721900D03*
X66500000Y-68721900D03*
X70700000Y-68721900D03*
X74900000Y-68721900D03*
X79100000Y-68721900D03*
X83300000Y-68721900D03*
X87500000Y-68721900D03*
X91700000Y-68721900D03*
X95900000Y-68721900D03*
X100100000Y-68721900D03*
X104300000Y-68721900D03*
X58100000Y-74221900D03*
X62300000Y-74221900D03*
X66500000Y-74221900D03*
X70700000Y-74221900D03*
X74900000Y-74221900D03*
X79100000Y-74221900D03*
X83300000Y-74221900D03*
X87500000Y-74221900D03*
X91700000Y-74221900D03*
X95900000Y-74221900D03*
X100100000Y-74221900D03*
X104300000Y-74221900D03*
D15*
X47500000Y-110250000D03*
D22*
X125930000Y-107040000D03*
D23*
X109270000Y-104500000D03*
D24*
X109270000Y-109580000D03*
M02*
