%TF.GenerationSoftware,KiCad,Pcbnew,8.0.4*%
%TF.CreationDate,2024-07-30T17:49:45-04:00*%
%TF.ProjectId,360_atx_power_board,3336305f-6174-4785-9f70-6f7765725f62,rev?*%
%TF.SameCoordinates,Original*%
%TF.FileFunction,Copper,L2,Bot*%
%TF.FilePolarity,Positive*%
%FSLAX46Y46*%
G04 Gerber Fmt 4.6, Leading zero omitted, Abs format (unit mm)*
G04 Created by KiCad (PCBNEW 8.0.4) date 2024-07-30 17:49:45*
%MOMM*%
%LPD*%
G01*
G04 APERTURE LIST*
%TA.AperFunction,ComponentPad*%
%ADD10R,2.300000X2.300000*%
%TD*%
%TA.AperFunction,ComponentPad*%
%ADD11C,2.300000*%
%TD*%
%TA.AperFunction,ComponentPad*%
%ADD12C,2.400000*%
%TD*%
%TA.AperFunction,ComponentPad*%
%ADD13R,2.600000X2.600000*%
%TD*%
%TA.AperFunction,ComponentPad*%
%ADD14C,2.600000*%
%TD*%
%TA.AperFunction,ComponentPad*%
%ADD15C,5.500000*%
%TD*%
%TA.AperFunction,ComponentPad*%
%ADD16R,2.775000X2.775000*%
%TD*%
%TA.AperFunction,ComponentPad*%
%ADD17C,2.775000*%
%TD*%
%TA.AperFunction,ComponentPad*%
%ADD18R,2.150000X2.150000*%
%TD*%
%TA.AperFunction,ComponentPad*%
%ADD19C,2.150000*%
%TD*%
%TA.AperFunction,ComponentPad*%
%ADD20R,2.000000X2.000000*%
%TD*%
%TA.AperFunction,ComponentPad*%
%ADD21O,2.000000X2.000000*%
%TD*%
%TA.AperFunction,ViaPad*%
%ADD22C,0.600000*%
%TD*%
%TA.AperFunction,Conductor*%
%ADD23C,0.500000*%
%TD*%
G04 APERTURE END LIST*
D10*
%TO.P,J5,1,1*%
%TO.N,/+12V*%
X165165100Y-76984250D03*
D11*
%TO.P,J5,2,2*%
X165165100Y-81184250D03*
%TO.P,J5,3,3*%
X165165100Y-85384250D03*
%TO.P,J5,4,4*%
%TO.N,GND*%
X165165100Y-89584250D03*
%TO.P,J5,5,5*%
X160965100Y-76984250D03*
%TO.P,J5,6,6*%
X160965100Y-81184250D03*
%TO.P,J5,7,7*%
X160965100Y-85384250D03*
%TO.P,J5,8,8*%
X160965100Y-89584250D03*
%TD*%
D12*
%TO.P,J3,1,1*%
%TO.N,/+12V*%
X167120000Y-62660000D03*
%TO.P,J3,2,2*%
%TO.N,GND*%
X162040000Y-62660000D03*
%TO.P,J3,3,3*%
X156960000Y-62660000D03*
%TO.P,J3,4,4*%
%TO.N,/+5V*%
X151880000Y-62660000D03*
%TD*%
D13*
%TO.P,J2,1,Pin_1*%
%TO.N,Net-(J2-Pin_1)*%
X71760000Y-110000000D03*
D14*
%TO.P,J2,2,Pin_2*%
%TO.N,/+12V*%
X76840000Y-110000000D03*
%TO.P,J2,3,Pin_3*%
%TO.N,/+5VSB*%
X81920000Y-110000000D03*
%TO.P,J2,4,Pin_4*%
%TO.N,GND*%
X87000000Y-110000000D03*
%TO.P,J2,5,Pin_5*%
X92080000Y-110000000D03*
%TD*%
D15*
%TO.P,H1,1,1*%
%TO.N,GND*%
X50000000Y-53000000D03*
%TD*%
%TO.P,H2,1,1*%
%TO.N,GND*%
X113000000Y-53000000D03*
%TD*%
D16*
%TO.P,SW1,1,1*%
%TO.N,Net-(Q1-C)*%
X52792500Y-77000000D03*
D17*
%TO.P,SW1,2,2*%
%TO.N,/PS_ON#*%
X57492500Y-77000000D03*
%TO.P,SW1,3,3*%
%TO.N,unconnected-(SW1-Pad3)*%
X62192500Y-77000000D03*
%TD*%
D16*
%TO.P,SW2,1,1*%
%TO.N,Net-(R7-Pad2)*%
X151707500Y-89500000D03*
D17*
%TO.P,SW2,2,2*%
%TO.N,/+5V*%
X147007500Y-89500000D03*
%TO.P,SW2,3,3*%
%TO.N,unconnected-(SW2-Pad3)*%
X142307500Y-89500000D03*
%TD*%
D15*
%TO.P,H5,1,1*%
%TO.N,GND*%
X176000000Y-52950000D03*
%TD*%
%TO.P,H4,1,1*%
%TO.N,GND*%
X113000000Y-115000000D03*
%TD*%
D18*
%TO.P,J1,1,+3.3V*%
%TO.N,/+3.3V*%
X57900000Y-64221900D03*
D19*
%TO.P,J1,2,+3.3V*%
X62100000Y-64221900D03*
%TO.P,J1,3,GND*%
%TO.N,GND*%
X66300000Y-64221900D03*
%TO.P,J1,4,+5V*%
%TO.N,/+5V*%
X70500000Y-64221900D03*
%TO.P,J1,5,GND*%
%TO.N,GND*%
X74700000Y-64221900D03*
%TO.P,J1,6,+5V*%
%TO.N,/+5V*%
X78900000Y-64221900D03*
%TO.P,J1,7,GND*%
%TO.N,GND*%
X83100000Y-64221900D03*
%TO.P,J1,8,PWR_OK*%
%TO.N,/PWR_OK*%
X87300000Y-64221900D03*
%TO.P,J1,9,+5VSB*%
%TO.N,/+5VSB*%
X91500000Y-64221900D03*
%TO.P,J1,10,+12V*%
%TO.N,/+12V*%
X95700000Y-64221900D03*
%TO.P,J1,11,+12V*%
X99900000Y-64221900D03*
%TO.P,J1,12,+3.3V*%
%TO.N,/+3.3V*%
X104100000Y-64221900D03*
%TO.P,J1,13,+3.3V*%
X57900000Y-69721900D03*
%TO.P,J1,14,-12V*%
%TO.N,/-12V*%
X62100000Y-69721900D03*
%TO.P,J1,15,GND*%
%TO.N,GND*%
X66300000Y-69721900D03*
%TO.P,J1,16,PS_ON#*%
%TO.N,/PS_ON#*%
X70500000Y-69721900D03*
%TO.P,J1,17,GND*%
%TO.N,GND*%
X74700000Y-69721900D03*
%TO.P,J1,18,GND*%
X78900000Y-69721900D03*
%TO.P,J1,19,GND*%
X83100000Y-69721900D03*
%TO.P,J1,20,NC*%
%TO.N,unconnected-(J1-NC-Pad20)*%
X87300000Y-69721900D03*
%TO.P,J1,21,+5V*%
%TO.N,/+5V*%
X91500000Y-69721900D03*
%TO.P,J1,22,+5V*%
X95700000Y-69721900D03*
%TO.P,J1,23,+5V*%
X99900000Y-69721900D03*
%TO.P,J1,24,GND*%
%TO.N,GND*%
X104100000Y-69721900D03*
%TD*%
D15*
%TO.P,H3,1,1*%
%TO.N,GND*%
X50000000Y-115000000D03*
%TD*%
D20*
%TO.P,R7,1*%
%TO.N,GND*%
X143460000Y-114730000D03*
D21*
%TO.P,R7,2*%
%TO.N,Net-(R7-Pad2)*%
X148540000Y-114730000D03*
%TD*%
D18*
%TO.P,J4,1,1*%
%TO.N,GND*%
X125600000Y-64000000D03*
D19*
%TO.P,J4,2,2*%
X129800000Y-64000000D03*
%TO.P,J4,3,3*%
X134000000Y-64000000D03*
%TO.P,J4,4,4*%
X138200000Y-64000000D03*
%TO.P,J4,5,5*%
%TO.N,/+12V*%
X125600000Y-69500000D03*
%TO.P,J4,6,6*%
X129800000Y-69500000D03*
%TO.P,J4,7,7*%
X134000000Y-69500000D03*
%TO.P,J4,8,8*%
X138200000Y-69500000D03*
%TD*%
D15*
%TO.P,H6,1,1*%
%TO.N,GND*%
X176000000Y-115000000D03*
%TD*%
D22*
%TO.N,/+5VSB*%
X79000000Y-87000000D03*
%TO.N,/PWR_OK*%
X70500000Y-86500000D03*
%TO.N,GND*%
X85000000Y-93500000D03*
X65500000Y-93500000D03*
X72000000Y-93500000D03*
X78500000Y-93500000D03*
X95050000Y-93500000D03*
X57000000Y-93000000D03*
X59000000Y-93500000D03*
%TO.N,/-12V*%
X94500000Y-76000000D03*
X95050000Y-86000000D03*
%TD*%
D23*
%TO.N,/+5VSB*%
X93500000Y-72500000D02*
X93500000Y-66221900D01*
X79000000Y-87000000D02*
X93500000Y-72500000D01*
X94000000Y-60000000D02*
X91500000Y-62500000D01*
X93500000Y-66221900D02*
X91500000Y-64221900D01*
X91500000Y-62500000D02*
X91500000Y-64221900D01*
X104000000Y-60000000D02*
X94000000Y-60000000D01*
X107000000Y-63000000D02*
X104000000Y-60000000D01*
X107000000Y-84920000D02*
X107000000Y-63000000D01*
X107000000Y-84920000D02*
X81920000Y-110000000D01*
%TO.N,/PS_ON#*%
X70500000Y-69721900D02*
X66221900Y-74000000D01*
X59270000Y-74000000D02*
X57500000Y-75770000D01*
X66221900Y-74000000D02*
X59270000Y-74000000D01*
X57500000Y-75770000D02*
X57500000Y-77000000D01*
%TO.N,/PWR_OK*%
X87300000Y-65200000D02*
X87300000Y-64221900D01*
X70500000Y-86500000D02*
X85000000Y-72000000D01*
X85000000Y-67500000D02*
X87300000Y-65200000D01*
X85000000Y-72000000D02*
X85000000Y-67500000D01*
%TO.N,/-12V*%
X97500000Y-79000000D02*
X97500000Y-83550000D01*
X94500000Y-76000000D02*
X97500000Y-79000000D01*
X97500000Y-83550000D02*
X95050000Y-86000000D01*
%TD*%
%TA.AperFunction,Conductor*%
%TO.N,GND*%
G36*
X178942539Y-50020185D02*
G01*
X178988294Y-50072989D01*
X178999500Y-50124500D01*
X178999500Y-117875500D01*
X178979815Y-117942539D01*
X178927011Y-117988294D01*
X178875500Y-117999500D01*
X47124500Y-117999500D01*
X47057461Y-117979815D01*
X47011706Y-117927011D01*
X47000500Y-117875500D01*
X47000500Y-113682155D01*
X141960000Y-113682155D01*
X141960000Y-114480000D01*
X142969252Y-114480000D01*
X142947482Y-114517708D01*
X142910000Y-114657591D01*
X142910000Y-114802409D01*
X142947482Y-114942292D01*
X142969252Y-114980000D01*
X141960000Y-114980000D01*
X141960000Y-115777844D01*
X141966401Y-115837372D01*
X141966403Y-115837379D01*
X142016645Y-115972086D01*
X142016649Y-115972093D01*
X142102809Y-116087187D01*
X142102812Y-116087190D01*
X142217906Y-116173350D01*
X142217913Y-116173354D01*
X142352620Y-116223596D01*
X142352627Y-116223598D01*
X142412155Y-116229999D01*
X142412172Y-116230000D01*
X143210000Y-116230000D01*
X143210000Y-115220747D01*
X143247708Y-115242518D01*
X143387591Y-115280000D01*
X143532409Y-115280000D01*
X143672292Y-115242518D01*
X143710000Y-115220747D01*
X143710000Y-116230000D01*
X144507828Y-116230000D01*
X144507844Y-116229999D01*
X144567372Y-116223598D01*
X144567379Y-116223596D01*
X144702086Y-116173354D01*
X144702093Y-116173350D01*
X144817187Y-116087190D01*
X144817190Y-116087187D01*
X144903350Y-115972093D01*
X144903354Y-115972086D01*
X144953596Y-115837379D01*
X144953598Y-115837372D01*
X144959999Y-115777844D01*
X144960000Y-115777827D01*
X144960000Y-114980000D01*
X143950748Y-114980000D01*
X143972518Y-114942292D01*
X144010000Y-114802409D01*
X144010000Y-114729994D01*
X147034357Y-114729994D01*
X147034357Y-114730005D01*
X147054890Y-114977812D01*
X147054892Y-114977824D01*
X147115936Y-115218881D01*
X147215826Y-115446606D01*
X147351833Y-115654782D01*
X147351836Y-115654785D01*
X147520256Y-115837738D01*
X147716491Y-115990474D01*
X147935190Y-116108828D01*
X148170386Y-116189571D01*
X148415665Y-116230500D01*
X148664335Y-116230500D01*
X148909614Y-116189571D01*
X149144810Y-116108828D01*
X149363509Y-115990474D01*
X149559744Y-115837738D01*
X149728164Y-115654785D01*
X149864173Y-115446607D01*
X149964063Y-115218881D01*
X150025108Y-114977821D01*
X150045643Y-114730000D01*
X150025108Y-114482179D01*
X150024556Y-114480000D01*
X149964063Y-114241118D01*
X149864173Y-114013393D01*
X149728166Y-113805217D01*
X149706557Y-113781744D01*
X149559744Y-113622262D01*
X149363509Y-113469526D01*
X149363507Y-113469525D01*
X149363506Y-113469524D01*
X149144811Y-113351172D01*
X149144802Y-113351169D01*
X148909616Y-113270429D01*
X148664335Y-113229500D01*
X148415665Y-113229500D01*
X148170383Y-113270429D01*
X147935197Y-113351169D01*
X147935188Y-113351172D01*
X147716493Y-113469524D01*
X147692876Y-113487906D01*
X147520256Y-113622262D01*
X147519920Y-113622627D01*
X147351833Y-113805217D01*
X147215826Y-114013393D01*
X147115936Y-114241118D01*
X147054892Y-114482175D01*
X147054890Y-114482187D01*
X147034357Y-114729994D01*
X144010000Y-114729994D01*
X144010000Y-114657591D01*
X143972518Y-114517708D01*
X143950748Y-114480000D01*
X144960000Y-114480000D01*
X144960000Y-113682172D01*
X144959999Y-113682155D01*
X144953598Y-113622627D01*
X144953596Y-113622620D01*
X144903354Y-113487913D01*
X144903350Y-113487906D01*
X144817190Y-113372812D01*
X144817187Y-113372809D01*
X144702093Y-113286649D01*
X144702086Y-113286645D01*
X144567379Y-113236403D01*
X144567372Y-113236401D01*
X144507844Y-113230000D01*
X143710000Y-113230000D01*
X143710000Y-114239252D01*
X143672292Y-114217482D01*
X143532409Y-114180000D01*
X143387591Y-114180000D01*
X143247708Y-114217482D01*
X143210000Y-114239252D01*
X143210000Y-113230000D01*
X142412155Y-113230000D01*
X142352627Y-113236401D01*
X142352620Y-113236403D01*
X142217913Y-113286645D01*
X142217906Y-113286649D01*
X142102812Y-113372809D01*
X142102809Y-113372812D01*
X142016649Y-113487906D01*
X142016645Y-113487913D01*
X141966403Y-113622620D01*
X141966401Y-113622627D01*
X141960000Y-113682155D01*
X47000500Y-113682155D01*
X47000500Y-108652135D01*
X69959500Y-108652135D01*
X69959500Y-111347870D01*
X69959501Y-111347876D01*
X69965908Y-111407483D01*
X70016202Y-111542328D01*
X70016206Y-111542335D01*
X70102452Y-111657544D01*
X70102455Y-111657547D01*
X70217664Y-111743793D01*
X70217671Y-111743797D01*
X70352517Y-111794091D01*
X70352516Y-111794091D01*
X70359444Y-111794835D01*
X70412127Y-111800500D01*
X73107872Y-111800499D01*
X73167483Y-111794091D01*
X73302331Y-111743796D01*
X73417546Y-111657546D01*
X73503796Y-111542331D01*
X73554091Y-111407483D01*
X73560500Y-111347873D01*
X73560499Y-109999995D01*
X75034451Y-109999995D01*
X75034451Y-110000004D01*
X75054616Y-110269101D01*
X75114664Y-110532188D01*
X75114666Y-110532195D01*
X75160901Y-110650000D01*
X75213257Y-110783398D01*
X75348185Y-111017102D01*
X75401655Y-111084151D01*
X75516442Y-111228089D01*
X75703183Y-111401358D01*
X75714259Y-111411635D01*
X75937226Y-111563651D01*
X76180359Y-111680738D01*
X76438228Y-111760280D01*
X76438229Y-111760280D01*
X76438232Y-111760281D01*
X76705063Y-111800499D01*
X76705068Y-111800499D01*
X76705071Y-111800500D01*
X76705072Y-111800500D01*
X76974928Y-111800500D01*
X76974929Y-111800500D01*
X76974936Y-111800499D01*
X77241767Y-111760281D01*
X77241768Y-111760280D01*
X77241772Y-111760280D01*
X77499641Y-111680738D01*
X77742775Y-111563651D01*
X77965741Y-111411635D01*
X78163561Y-111228085D01*
X78331815Y-111017102D01*
X78466743Y-110783398D01*
X78565334Y-110532195D01*
X78625383Y-110269103D01*
X78645549Y-110000000D01*
X78625383Y-109730897D01*
X78565334Y-109467805D01*
X78466743Y-109216602D01*
X78331815Y-108982898D01*
X78163561Y-108771915D01*
X78163560Y-108771914D01*
X78163557Y-108771910D01*
X77965741Y-108588365D01*
X77926038Y-108561296D01*
X77742775Y-108436349D01*
X77742769Y-108436346D01*
X77742768Y-108436345D01*
X77742767Y-108436344D01*
X77499643Y-108319263D01*
X77499645Y-108319263D01*
X77241773Y-108239720D01*
X77241767Y-108239718D01*
X76974936Y-108199500D01*
X76974929Y-108199500D01*
X76705071Y-108199500D01*
X76705063Y-108199500D01*
X76438232Y-108239718D01*
X76438226Y-108239720D01*
X76180358Y-108319262D01*
X75937230Y-108436346D01*
X75714258Y-108588365D01*
X75516442Y-108771910D01*
X75348185Y-108982898D01*
X75213258Y-109216599D01*
X75213256Y-109216603D01*
X75114666Y-109467804D01*
X75114664Y-109467811D01*
X75054616Y-109730898D01*
X75034451Y-109999995D01*
X73560499Y-109999995D01*
X73560499Y-108652128D01*
X73554091Y-108592517D01*
X73552542Y-108588365D01*
X73503797Y-108457671D01*
X73503793Y-108457664D01*
X73417547Y-108342455D01*
X73417544Y-108342452D01*
X73302335Y-108256206D01*
X73302328Y-108256202D01*
X73167482Y-108205908D01*
X73167483Y-108205908D01*
X73107883Y-108199501D01*
X73107881Y-108199500D01*
X73107873Y-108199500D01*
X73107864Y-108199500D01*
X70412129Y-108199500D01*
X70412123Y-108199501D01*
X70352516Y-108205908D01*
X70217671Y-108256202D01*
X70217664Y-108256206D01*
X70102455Y-108342452D01*
X70102452Y-108342455D01*
X70016206Y-108457664D01*
X70016202Y-108457671D01*
X69965908Y-108592517D01*
X69959501Y-108652116D01*
X69959501Y-108652123D01*
X69959500Y-108652135D01*
X47000500Y-108652135D01*
X47000500Y-86499996D01*
X69694435Y-86499996D01*
X69694435Y-86500003D01*
X69714630Y-86679249D01*
X69714631Y-86679254D01*
X69774211Y-86849523D01*
X69842889Y-86958822D01*
X69870184Y-87002262D01*
X69997738Y-87129816D01*
X70150478Y-87225789D01*
X70320745Y-87285368D01*
X70320750Y-87285369D01*
X70499996Y-87305565D01*
X70500000Y-87305565D01*
X70500004Y-87305565D01*
X70679249Y-87285369D01*
X70679252Y-87285368D01*
X70679255Y-87285368D01*
X70849522Y-87225789D01*
X71002262Y-87129816D01*
X71129816Y-87002262D01*
X71131240Y-86999996D01*
X78194435Y-86999996D01*
X78194435Y-87000003D01*
X78214630Y-87179249D01*
X78214631Y-87179254D01*
X78274211Y-87349523D01*
X78370184Y-87502262D01*
X78497738Y-87629816D01*
X78650478Y-87725789D01*
X78733827Y-87754954D01*
X78820745Y-87785368D01*
X78820750Y-87785369D01*
X78999996Y-87805565D01*
X79000000Y-87805565D01*
X79000004Y-87805565D01*
X79179249Y-87785369D01*
X79179252Y-87785368D01*
X79179255Y-87785368D01*
X79349522Y-87725789D01*
X79502262Y-87629816D01*
X79629816Y-87502262D01*
X79725789Y-87349522D01*
X79725790Y-87349518D01*
X79728811Y-87343246D01*
X79730655Y-87344134D01*
X79753305Y-87308061D01*
X91061371Y-75999996D01*
X93694435Y-75999996D01*
X93694435Y-76000003D01*
X93714630Y-76179249D01*
X93714631Y-76179254D01*
X93774211Y-76349523D01*
X93870184Y-76502262D01*
X93997738Y-76629816D01*
X94017148Y-76642012D01*
X94150483Y-76725792D01*
X94156753Y-76728812D01*
X94155864Y-76730656D01*
X94191937Y-76753305D01*
X95461964Y-78023331D01*
X96713181Y-79274548D01*
X96746666Y-79335871D01*
X96749500Y-79362229D01*
X96749500Y-83187769D01*
X96729815Y-83254808D01*
X96713181Y-83275450D01*
X94741937Y-85246693D01*
X94705873Y-85269370D01*
X94706750Y-85271191D01*
X94700475Y-85274212D01*
X94547737Y-85370184D01*
X94420184Y-85497737D01*
X94324211Y-85650476D01*
X94264631Y-85820745D01*
X94264630Y-85820750D01*
X94244435Y-85999996D01*
X94244435Y-86000003D01*
X94264630Y-86179249D01*
X94264631Y-86179254D01*
X94324211Y-86349523D01*
X94417341Y-86497737D01*
X94420184Y-86502262D01*
X94547738Y-86629816D01*
X94700478Y-86725789D01*
X94870745Y-86785368D01*
X94870750Y-86785369D01*
X95049996Y-86805565D01*
X95050000Y-86805565D01*
X95050004Y-86805565D01*
X95229249Y-86785369D01*
X95229252Y-86785368D01*
X95229255Y-86785368D01*
X95399522Y-86725789D01*
X95552262Y-86629816D01*
X95679816Y-86502262D01*
X95775789Y-86349522D01*
X95775792Y-86349510D01*
X95778810Y-86343248D01*
X95780650Y-86344134D01*
X95803305Y-86308061D01*
X98082951Y-84028416D01*
X98165084Y-83905495D01*
X98221658Y-83768913D01*
X98250500Y-83623918D01*
X98250500Y-83476083D01*
X98250500Y-78926082D01*
X98240052Y-78873557D01*
X98221659Y-78781088D01*
X98167408Y-78650117D01*
X98165764Y-78645522D01*
X98082954Y-78521588D01*
X98082953Y-78521587D01*
X98082951Y-78521584D01*
X97978416Y-78417049D01*
X95253305Y-75691937D01*
X95230656Y-75655864D01*
X95228812Y-75656753D01*
X95225792Y-75650483D01*
X95225788Y-75650476D01*
X95129816Y-75497738D01*
X95002262Y-75370184D01*
X94954476Y-75340158D01*
X94849523Y-75274211D01*
X94679254Y-75214631D01*
X94679249Y-75214630D01*
X94500004Y-75194435D01*
X94499996Y-75194435D01*
X94320750Y-75214630D01*
X94320745Y-75214631D01*
X94150476Y-75274211D01*
X93997737Y-75370184D01*
X93870184Y-75497737D01*
X93774211Y-75650476D01*
X93714631Y-75820745D01*
X93714630Y-75820750D01*
X93694435Y-75999996D01*
X91061371Y-75999996D01*
X94082952Y-72978415D01*
X94110205Y-72937627D01*
X94165084Y-72855495D01*
X94188518Y-72798920D01*
X94221659Y-72718912D01*
X94250500Y-72573917D01*
X94250500Y-72426082D01*
X94250500Y-70786777D01*
X94270185Y-70719738D01*
X94322989Y-70673983D01*
X94392147Y-70664039D01*
X94455703Y-70693064D01*
X94468790Y-70706245D01*
X94582508Y-70839392D01*
X94633800Y-70883199D01*
X94771078Y-71000446D01*
X94771080Y-71000447D01*
X94771081Y-71000448D01*
X94775283Y-71003023D01*
X94982525Y-71130022D01*
X95211637Y-71224923D01*
X95314358Y-71249584D01*
X95452775Y-71282815D01*
X95700000Y-71302272D01*
X95947225Y-71282815D01*
X96188362Y-71224923D01*
X96417474Y-71130022D01*
X96628919Y-71000448D01*
X96817492Y-70839392D01*
X96978548Y-70650819D01*
X97108122Y-70439374D01*
X97203023Y-70210262D01*
X97260915Y-69969125D01*
X97280372Y-69721900D01*
X98319628Y-69721900D01*
X98339085Y-69969128D01*
X98396976Y-70210262D01*
X98491877Y-70439374D01*
X98621450Y-70650816D01*
X98621453Y-70650821D01*
X98668790Y-70706245D01*
X98782508Y-70839392D01*
X98833800Y-70883199D01*
X98971078Y-71000446D01*
X98971080Y-71000447D01*
X98971081Y-71000448D01*
X98975283Y-71003023D01*
X99182525Y-71130022D01*
X99411637Y-71224923D01*
X99514358Y-71249584D01*
X99652775Y-71282815D01*
X99900000Y-71302272D01*
X100147225Y-71282815D01*
X100388362Y-71224923D01*
X100617474Y-71130022D01*
X100828919Y-71000448D01*
X101017492Y-70839392D01*
X101178548Y-70650819D01*
X101308122Y-70439374D01*
X101403023Y-70210262D01*
X101460915Y-69969125D01*
X101480372Y-69721900D01*
X102520130Y-69721900D01*
X102539581Y-69969049D01*
X102597451Y-70210097D01*
X102597455Y-70210109D01*
X102692322Y-70439138D01*
X102692325Y-70439144D01*
X102820324Y-70648022D01*
X103309522Y-70158824D01*
X103400924Y-70295617D01*
X103526283Y-70420976D01*
X103663074Y-70512377D01*
X103173876Y-71001574D01*
X103382753Y-71129574D01*
X103611790Y-71224444D01*
X103611802Y-71224448D01*
X103852850Y-71282318D01*
X104100000Y-71301769D01*
X104347149Y-71282318D01*
X104588197Y-71224448D01*
X104588209Y-71224444D01*
X104817246Y-71129574D01*
X105026122Y-71001574D01*
X104536924Y-70512377D01*
X104673717Y-70420976D01*
X104799076Y-70295617D01*
X104890477Y-70158825D01*
X105379674Y-70648022D01*
X105507674Y-70439146D01*
X105602544Y-70210109D01*
X105602548Y-70210097D01*
X105660418Y-69969049D01*
X105679869Y-69721900D01*
X105660418Y-69474750D01*
X105602548Y-69233702D01*
X105602544Y-69233690D01*
X105507674Y-69004653D01*
X105379674Y-68795776D01*
X104890476Y-69284974D01*
X104799076Y-69148183D01*
X104673717Y-69022824D01*
X104536924Y-68931422D01*
X105026122Y-68442224D01*
X104817244Y-68314225D01*
X104817238Y-68314222D01*
X104588209Y-68219355D01*
X104588197Y-68219351D01*
X104347149Y-68161481D01*
X104100000Y-68142030D01*
X103852850Y-68161481D01*
X103611802Y-68219351D01*
X103611790Y-68219355D01*
X103382761Y-68314222D01*
X103382755Y-68314225D01*
X103173876Y-68442224D01*
X103663075Y-68931422D01*
X103526283Y-69022824D01*
X103400924Y-69148183D01*
X103309522Y-69284974D01*
X102820324Y-68795776D01*
X102692325Y-69004655D01*
X102692322Y-69004661D01*
X102597455Y-69233690D01*
X102597451Y-69233702D01*
X102539581Y-69474750D01*
X102520130Y-69721900D01*
X101480372Y-69721900D01*
X101460915Y-69474675D01*
X101435388Y-69368347D01*
X101403023Y-69233537D01*
X101308122Y-69004425D01*
X101178549Y-68792983D01*
X101178546Y-68792978D01*
X101120583Y-68725113D01*
X101017492Y-68604408D01*
X100867403Y-68476220D01*
X100828921Y-68443353D01*
X100828916Y-68443350D01*
X100617474Y-68313777D01*
X100388362Y-68218876D01*
X100147228Y-68160985D01*
X99900000Y-68141528D01*
X99652771Y-68160985D01*
X99411637Y-68218876D01*
X99182525Y-68313777D01*
X98971083Y-68443350D01*
X98971078Y-68443353D01*
X98782508Y-68604408D01*
X98621453Y-68792978D01*
X98621450Y-68792983D01*
X98491877Y-69004425D01*
X98396976Y-69233537D01*
X98339085Y-69474671D01*
X98319628Y-69721900D01*
X97280372Y-69721900D01*
X97260915Y-69474675D01*
X97235388Y-69368347D01*
X97203023Y-69233537D01*
X97108122Y-69004425D01*
X96978549Y-68792983D01*
X96978546Y-68792978D01*
X96920583Y-68725113D01*
X96817492Y-68604408D01*
X96667403Y-68476220D01*
X96628921Y-68443353D01*
X96628916Y-68443350D01*
X96417474Y-68313777D01*
X96188362Y-68218876D01*
X95947228Y-68160985D01*
X95700000Y-68141528D01*
X95452771Y-68160985D01*
X95211637Y-68218876D01*
X94982525Y-68313777D01*
X94771083Y-68443350D01*
X94771078Y-68443353D01*
X94582508Y-68604408D01*
X94468790Y-68737554D01*
X94410283Y-68775747D01*
X94340415Y-68776245D01*
X94281369Y-68738891D01*
X94251891Y-68675544D01*
X94250500Y-68657022D01*
X94250500Y-66147979D01*
X94221659Y-66002992D01*
X94221658Y-66002991D01*
X94221658Y-66002987D01*
X94221656Y-66002982D01*
X94165087Y-65866411D01*
X94165080Y-65866398D01*
X94082952Y-65743485D01*
X94047832Y-65708365D01*
X93978416Y-65638949D01*
X93061169Y-64721701D01*
X93027684Y-64660378D01*
X93028275Y-64605074D01*
X93060915Y-64469125D01*
X93080372Y-64221900D01*
X94119628Y-64221900D01*
X94139085Y-64469128D01*
X94196976Y-64710262D01*
X94291877Y-64939374D01*
X94421450Y-65150816D01*
X94421453Y-65150821D01*
X94469707Y-65207319D01*
X94582508Y-65339392D01*
X94624823Y-65375532D01*
X94771078Y-65500446D01*
X94771080Y-65500447D01*
X94771081Y-65500448D01*
X94827979Y-65535315D01*
X94982525Y-65630022D01*
X95211637Y-65724923D01*
X95316824Y-65750176D01*
X95452775Y-65782815D01*
X95700000Y-65802272D01*
X95947225Y-65782815D01*
X96188362Y-65724923D01*
X96417474Y-65630022D01*
X96628919Y-65500448D01*
X96817492Y-65339392D01*
X96978548Y-65150819D01*
X97108122Y-64939374D01*
X97203023Y-64710262D01*
X97260915Y-64469125D01*
X97280372Y-64221900D01*
X98319628Y-64221900D01*
X98339085Y-64469128D01*
X98396976Y-64710262D01*
X98491877Y-64939374D01*
X98621450Y-65150816D01*
X98621453Y-65150821D01*
X98669707Y-65207319D01*
X98782508Y-65339392D01*
X98824823Y-65375532D01*
X98971078Y-65500446D01*
X98971080Y-65500447D01*
X98971081Y-65500448D01*
X99027979Y-65535315D01*
X99182525Y-65630022D01*
X99411637Y-65724923D01*
X99516824Y-65750176D01*
X99652775Y-65782815D01*
X99900000Y-65802272D01*
X100147225Y-65782815D01*
X100388362Y-65724923D01*
X100617474Y-65630022D01*
X100828919Y-65500448D01*
X101017492Y-65339392D01*
X101178548Y-65150819D01*
X101308122Y-64939374D01*
X101403023Y-64710262D01*
X101460915Y-64469125D01*
X101480372Y-64221900D01*
X102519628Y-64221900D01*
X102539085Y-64469128D01*
X102596976Y-64710262D01*
X102691877Y-64939374D01*
X102821450Y-65150816D01*
X102821453Y-65150821D01*
X102869707Y-65207319D01*
X102982508Y-65339392D01*
X103024823Y-65375532D01*
X103171078Y-65500446D01*
X103171080Y-65500447D01*
X103171081Y-65500448D01*
X103227979Y-65535315D01*
X103382525Y-65630022D01*
X103611637Y-65724923D01*
X103716824Y-65750176D01*
X103852775Y-65782815D01*
X104100000Y-65802272D01*
X104347225Y-65782815D01*
X104588362Y-65724923D01*
X104817474Y-65630022D01*
X105028919Y-65500448D01*
X105217492Y-65339392D01*
X105378548Y-65150819D01*
X105508122Y-64939374D01*
X105603023Y-64710262D01*
X105660915Y-64469125D01*
X105680372Y-64221900D01*
X105660915Y-63974675D01*
X105635388Y-63868347D01*
X105603023Y-63733537D01*
X105508122Y-63504425D01*
X105396270Y-63321900D01*
X105378548Y-63292981D01*
X105378547Y-63292980D01*
X105378546Y-63292978D01*
X105267218Y-63162630D01*
X105217492Y-63104408D01*
X105111114Y-63013553D01*
X105028921Y-62943353D01*
X105028916Y-62943350D01*
X104817474Y-62813777D01*
X104588362Y-62718876D01*
X104347228Y-62660985D01*
X104100000Y-62641528D01*
X103852771Y-62660985D01*
X103611637Y-62718876D01*
X103382525Y-62813777D01*
X103171083Y-62943350D01*
X103171078Y-62943353D01*
X102982508Y-63104408D01*
X102821453Y-63292978D01*
X102821450Y-63292983D01*
X102691877Y-63504425D01*
X102596976Y-63733537D01*
X102539085Y-63974671D01*
X102519628Y-64221900D01*
X101480372Y-64221900D01*
X101460915Y-63974675D01*
X101435388Y-63868347D01*
X101403023Y-63733537D01*
X101308122Y-63504425D01*
X101196270Y-63321900D01*
X101178548Y-63292981D01*
X101178547Y-63292980D01*
X101178546Y-63292978D01*
X101067218Y-63162630D01*
X101017492Y-63104408D01*
X100911114Y-63013553D01*
X100828921Y-62943353D01*
X100828916Y-62943350D01*
X100617474Y-62813777D01*
X100388362Y-62718876D01*
X100147228Y-62660985D01*
X99900000Y-62641528D01*
X99652771Y-62660985D01*
X99411637Y-62718876D01*
X99182525Y-62813777D01*
X98971083Y-62943350D01*
X98971078Y-62943353D01*
X98782508Y-63104408D01*
X98621453Y-63292978D01*
X98621450Y-63292983D01*
X98491877Y-63504425D01*
X98396976Y-63733537D01*
X98339085Y-63974671D01*
X98319628Y-64221900D01*
X97280372Y-64221900D01*
X97260915Y-63974675D01*
X97235388Y-63868347D01*
X97203023Y-63733537D01*
X97108122Y-63504425D01*
X96996270Y-63321900D01*
X96978548Y-63292981D01*
X96978547Y-63292980D01*
X96978546Y-63292978D01*
X96867218Y-63162630D01*
X96817492Y-63104408D01*
X96711114Y-63013553D01*
X96628921Y-62943353D01*
X96628916Y-62943350D01*
X96417474Y-62813777D01*
X96188362Y-62718876D01*
X95947228Y-62660985D01*
X95700000Y-62641528D01*
X95452771Y-62660985D01*
X95211637Y-62718876D01*
X94982525Y-62813777D01*
X94771083Y-62943350D01*
X94771078Y-62943353D01*
X94582508Y-63104408D01*
X94421453Y-63292978D01*
X94421450Y-63292983D01*
X94291877Y-63504425D01*
X94196976Y-63733537D01*
X94139085Y-63974671D01*
X94119628Y-64221900D01*
X93080372Y-64221900D01*
X93060915Y-63974675D01*
X93035388Y-63868347D01*
X93003023Y-63733537D01*
X92908122Y-63504425D01*
X92796270Y-63321900D01*
X92778548Y-63292981D01*
X92778547Y-63292980D01*
X92778546Y-63292978D01*
X92617489Y-63104405D01*
X92428922Y-62943354D01*
X92428918Y-62943351D01*
X92370260Y-62907405D01*
X92323385Y-62855593D01*
X92311963Y-62786663D01*
X92339621Y-62722500D01*
X92347359Y-62714008D01*
X94274549Y-60786819D01*
X94335872Y-60753334D01*
X94362230Y-60750500D01*
X103637770Y-60750500D01*
X103704809Y-60770185D01*
X103725451Y-60786819D01*
X106213181Y-63274548D01*
X106246666Y-63335871D01*
X106249500Y-63362229D01*
X106249500Y-84557769D01*
X106229815Y-84624808D01*
X106213181Y-84645450D01*
X82601696Y-108256934D01*
X82540373Y-108290419D01*
X82477466Y-108287744D01*
X82321777Y-108239721D01*
X82321767Y-108239718D01*
X82054936Y-108199500D01*
X82054929Y-108199500D01*
X81785071Y-108199500D01*
X81785063Y-108199500D01*
X81518232Y-108239718D01*
X81518226Y-108239720D01*
X81260358Y-108319262D01*
X81017230Y-108436346D01*
X80794258Y-108588365D01*
X80596442Y-108771910D01*
X80428185Y-108982898D01*
X80293258Y-109216599D01*
X80293256Y-109216603D01*
X80194666Y-109467804D01*
X80194664Y-109467811D01*
X80134616Y-109730898D01*
X80114451Y-109999995D01*
X80114451Y-110000004D01*
X80134616Y-110269101D01*
X80194664Y-110532188D01*
X80194666Y-110532195D01*
X80240901Y-110650000D01*
X80293257Y-110783398D01*
X80428185Y-111017102D01*
X80481655Y-111084151D01*
X80596442Y-111228089D01*
X80783183Y-111401358D01*
X80794259Y-111411635D01*
X81017226Y-111563651D01*
X81260359Y-111680738D01*
X81518228Y-111760280D01*
X81518229Y-111760280D01*
X81518232Y-111760281D01*
X81785063Y-111800499D01*
X81785068Y-111800499D01*
X81785071Y-111800500D01*
X81785072Y-111800500D01*
X82054928Y-111800500D01*
X82054929Y-111800500D01*
X82054936Y-111800499D01*
X82321767Y-111760281D01*
X82321768Y-111760280D01*
X82321772Y-111760280D01*
X82579641Y-111680738D01*
X82822775Y-111563651D01*
X83045741Y-111411635D01*
X83243561Y-111228085D01*
X83411815Y-111017102D01*
X83546743Y-110783398D01*
X83645334Y-110532195D01*
X83705383Y-110269103D01*
X83725549Y-110000000D01*
X83725549Y-109999995D01*
X85194953Y-109999995D01*
X85194953Y-110000004D01*
X85215113Y-110269026D01*
X85215113Y-110269028D01*
X85275142Y-110532033D01*
X85275148Y-110532052D01*
X85373709Y-110783181D01*
X85373708Y-110783181D01*
X85508602Y-111016822D01*
X85562294Y-111084151D01*
X85562295Y-111084151D01*
X86398958Y-110247488D01*
X86423978Y-110307890D01*
X86495112Y-110414351D01*
X86585649Y-110504888D01*
X86692110Y-110576022D01*
X86752510Y-110601041D01*
X85914848Y-111438702D01*
X86097483Y-111563220D01*
X86097485Y-111563221D01*
X86340539Y-111680269D01*
X86340537Y-111680269D01*
X86598337Y-111759790D01*
X86598343Y-111759792D01*
X86865101Y-111799999D01*
X86865110Y-111800000D01*
X87134890Y-111800000D01*
X87134898Y-111799999D01*
X87401656Y-111759792D01*
X87401662Y-111759790D01*
X87659461Y-111680269D01*
X87902521Y-111563218D01*
X88085150Y-111438702D01*
X87247488Y-110601041D01*
X87307890Y-110576022D01*
X87414351Y-110504888D01*
X87504888Y-110414351D01*
X87576022Y-110307890D01*
X87601041Y-110247488D01*
X88437703Y-111084151D01*
X88437704Y-111084150D01*
X88491393Y-111016828D01*
X88491400Y-111016817D01*
X88626290Y-110783181D01*
X88724851Y-110532052D01*
X88724857Y-110532033D01*
X88784886Y-110269028D01*
X88784886Y-110269026D01*
X88805047Y-110000004D01*
X88805047Y-109999995D01*
X90274953Y-109999995D01*
X90274953Y-110000004D01*
X90295113Y-110269026D01*
X90295113Y-110269028D01*
X90355142Y-110532033D01*
X90355148Y-110532052D01*
X90453709Y-110783181D01*
X90453708Y-110783181D01*
X90588602Y-111016822D01*
X90642294Y-111084151D01*
X90642295Y-111084151D01*
X91478958Y-110247488D01*
X91503978Y-110307890D01*
X91575112Y-110414351D01*
X91665649Y-110504888D01*
X91772110Y-110576022D01*
X91832510Y-110601041D01*
X90994848Y-111438702D01*
X91177483Y-111563220D01*
X91177485Y-111563221D01*
X91420539Y-111680269D01*
X91420537Y-111680269D01*
X91678337Y-111759790D01*
X91678343Y-111759792D01*
X91945101Y-111799999D01*
X91945110Y-111800000D01*
X92214890Y-111800000D01*
X92214898Y-111799999D01*
X92481656Y-111759792D01*
X92481662Y-111759790D01*
X92739461Y-111680269D01*
X92982521Y-111563218D01*
X93165150Y-111438702D01*
X92327488Y-110601041D01*
X92387890Y-110576022D01*
X92494351Y-110504888D01*
X92584888Y-110414351D01*
X92656022Y-110307890D01*
X92681041Y-110247488D01*
X93517703Y-111084151D01*
X93517704Y-111084150D01*
X93571393Y-111016828D01*
X93571400Y-111016817D01*
X93706290Y-110783181D01*
X93804851Y-110532052D01*
X93804857Y-110532033D01*
X93864886Y-110269028D01*
X93864886Y-110269026D01*
X93885047Y-110000004D01*
X93885047Y-109999995D01*
X93864886Y-109730973D01*
X93864886Y-109730971D01*
X93804857Y-109467966D01*
X93804851Y-109467947D01*
X93706290Y-109216818D01*
X93706291Y-109216818D01*
X93571397Y-108983177D01*
X93517704Y-108915847D01*
X92681041Y-109752510D01*
X92656022Y-109692110D01*
X92584888Y-109585649D01*
X92494351Y-109495112D01*
X92387890Y-109423978D01*
X92327488Y-109398958D01*
X93165150Y-108561296D01*
X92982517Y-108436779D01*
X92982516Y-108436778D01*
X92739460Y-108319730D01*
X92739462Y-108319730D01*
X92481662Y-108240209D01*
X92481656Y-108240207D01*
X92214898Y-108200000D01*
X91945101Y-108200000D01*
X91678343Y-108240207D01*
X91678337Y-108240209D01*
X91420538Y-108319730D01*
X91177485Y-108436778D01*
X91177476Y-108436783D01*
X90994848Y-108561296D01*
X91832511Y-109398958D01*
X91772110Y-109423978D01*
X91665649Y-109495112D01*
X91575112Y-109585649D01*
X91503978Y-109692110D01*
X91478958Y-109752510D01*
X90642295Y-108915848D01*
X90588600Y-108983180D01*
X90453709Y-109216818D01*
X90355148Y-109467947D01*
X90355142Y-109467966D01*
X90295113Y-109730971D01*
X90295113Y-109730973D01*
X90274953Y-109999995D01*
X88805047Y-109999995D01*
X88784886Y-109730973D01*
X88784886Y-109730971D01*
X88724857Y-109467966D01*
X88724851Y-109467947D01*
X88626290Y-109216818D01*
X88626291Y-109216818D01*
X88491397Y-108983177D01*
X88437704Y-108915847D01*
X87601041Y-109752510D01*
X87576022Y-109692110D01*
X87504888Y-109585649D01*
X87414351Y-109495112D01*
X87307890Y-109423978D01*
X87247488Y-109398958D01*
X88085150Y-108561296D01*
X87902517Y-108436779D01*
X87902516Y-108436778D01*
X87659460Y-108319730D01*
X87659462Y-108319730D01*
X87401662Y-108240209D01*
X87401656Y-108240207D01*
X87134898Y-108200000D01*
X86865101Y-108200000D01*
X86598343Y-108240207D01*
X86598337Y-108240209D01*
X86340538Y-108319730D01*
X86097485Y-108436778D01*
X86097476Y-108436783D01*
X85914848Y-108561296D01*
X86752511Y-109398958D01*
X86692110Y-109423978D01*
X86585649Y-109495112D01*
X86495112Y-109585649D01*
X86423978Y-109692110D01*
X86398958Y-109752511D01*
X85562295Y-108915848D01*
X85508600Y-108983180D01*
X85373709Y-109216818D01*
X85275148Y-109467947D01*
X85275142Y-109467966D01*
X85215113Y-109730971D01*
X85215113Y-109730973D01*
X85194953Y-109999995D01*
X83725549Y-109999995D01*
X83705383Y-109730897D01*
X83645334Y-109467805D01*
X83637854Y-109448748D01*
X83631684Y-109379156D01*
X83664120Y-109317271D01*
X83665541Y-109315825D01*
X94911375Y-98069992D01*
X143744671Y-98069992D01*
X143744671Y-98070007D01*
X143763964Y-98364363D01*
X143763965Y-98364373D01*
X143763966Y-98364380D01*
X143763968Y-98364390D01*
X143821518Y-98653716D01*
X143821521Y-98653730D01*
X143916349Y-98933080D01*
X144046825Y-99197660D01*
X144046829Y-99197667D01*
X144210725Y-99442955D01*
X144405241Y-99664758D01*
X144627043Y-99859273D01*
X144872335Y-100023172D01*
X145136923Y-100153652D01*
X145416278Y-100248481D01*
X145705620Y-100306034D01*
X145733888Y-100307886D01*
X145999993Y-100325329D01*
X146000000Y-100325329D01*
X146000007Y-100325329D01*
X146235675Y-100309881D01*
X146294380Y-100306034D01*
X146583722Y-100248481D01*
X146863077Y-100153652D01*
X147127665Y-100023172D01*
X147372957Y-99859273D01*
X147594758Y-99664758D01*
X147789273Y-99442957D01*
X147953172Y-99197665D01*
X148083652Y-98933077D01*
X148178481Y-98653722D01*
X148236034Y-98364380D01*
X148255329Y-98070000D01*
X148255329Y-98069992D01*
X148236035Y-97775636D01*
X148236034Y-97775620D01*
X148178481Y-97486278D01*
X148083652Y-97206923D01*
X147953172Y-96942336D01*
X147789273Y-96697043D01*
X147746655Y-96648447D01*
X147594758Y-96475241D01*
X147372955Y-96280725D01*
X147127667Y-96116829D01*
X147127660Y-96116825D01*
X146863080Y-95986349D01*
X146583730Y-95891521D01*
X146583724Y-95891519D01*
X146583722Y-95891519D01*
X146294380Y-95833966D01*
X146294373Y-95833965D01*
X146294363Y-95833964D01*
X146000007Y-95814671D01*
X145999993Y-95814671D01*
X145705636Y-95833964D01*
X145705624Y-95833965D01*
X145705620Y-95833966D01*
X145705612Y-95833967D01*
X145705609Y-95833968D01*
X145416283Y-95891518D01*
X145416269Y-95891521D01*
X145136919Y-95986349D01*
X144872334Y-96116828D01*
X144627041Y-96280728D01*
X144405241Y-96475241D01*
X144210728Y-96697041D01*
X144046828Y-96942334D01*
X143916349Y-97206919D01*
X143821521Y-97486269D01*
X143821518Y-97486283D01*
X143763968Y-97775609D01*
X143763964Y-97775636D01*
X143744671Y-98069992D01*
X94911375Y-98069992D01*
X103481369Y-89499998D01*
X140414677Y-89499998D01*
X140414677Y-89500001D01*
X140433943Y-89769382D01*
X140491348Y-90033263D01*
X140491350Y-90033270D01*
X140534193Y-90148137D01*
X140585728Y-90286308D01*
X140585730Y-90286312D01*
X140715152Y-90523331D01*
X140715157Y-90523339D01*
X140876993Y-90739527D01*
X140877009Y-90739545D01*
X141067954Y-90930490D01*
X141067972Y-90930506D01*
X141284160Y-91092342D01*
X141284168Y-91092347D01*
X141521187Y-91221769D01*
X141521191Y-91221771D01*
X141521193Y-91221772D01*
X141774230Y-91316150D01*
X141859732Y-91334750D01*
X142038117Y-91373556D01*
X142038119Y-91373556D01*
X142038123Y-91373557D01*
X142277507Y-91390677D01*
X142307499Y-91392823D01*
X142307500Y-91392823D01*
X142307501Y-91392823D01*
X142334487Y-91390892D01*
X142576877Y-91373557D01*
X142840770Y-91316150D01*
X143093807Y-91221772D01*
X143330837Y-91092344D01*
X143547035Y-90930500D01*
X143738000Y-90739535D01*
X143899844Y-90523337D01*
X144029272Y-90286307D01*
X144123650Y-90033270D01*
X144181057Y-89769377D01*
X144200323Y-89500000D01*
X144200323Y-89499998D01*
X145114677Y-89499998D01*
X145114677Y-89500001D01*
X145133943Y-89769382D01*
X145191348Y-90033263D01*
X145191350Y-90033270D01*
X145234193Y-90148137D01*
X145285728Y-90286308D01*
X145285730Y-90286312D01*
X145415152Y-90523331D01*
X145415157Y-90523339D01*
X145576993Y-90739527D01*
X145577009Y-90739545D01*
X145767954Y-90930490D01*
X145767972Y-90930506D01*
X145984160Y-91092342D01*
X145984168Y-91092347D01*
X146221187Y-91221769D01*
X146221191Y-91221771D01*
X146221193Y-91221772D01*
X146474230Y-91316150D01*
X146559732Y-91334750D01*
X146738117Y-91373556D01*
X146738119Y-91373556D01*
X146738123Y-91373557D01*
X146977507Y-91390677D01*
X147007499Y-91392823D01*
X147007500Y-91392823D01*
X147007501Y-91392823D01*
X147034487Y-91390892D01*
X147276877Y-91373557D01*
X147540770Y-91316150D01*
X147793807Y-91221772D01*
X148030837Y-91092344D01*
X148247035Y-90930500D01*
X148438000Y-90739535D01*
X148599844Y-90523337D01*
X148729272Y-90286307D01*
X148823650Y-90033270D01*
X148881057Y-89769377D01*
X148900323Y-89500000D01*
X148881057Y-89230623D01*
X148823650Y-88966730D01*
X148729272Y-88713693D01*
X148672450Y-88609632D01*
X148599847Y-88476668D01*
X148599842Y-88476660D01*
X148438006Y-88260472D01*
X148437990Y-88260454D01*
X148247045Y-88069509D01*
X148247027Y-88069493D01*
X148240537Y-88064635D01*
X149819500Y-88064635D01*
X149819500Y-90935370D01*
X149819501Y-90935376D01*
X149825908Y-90994983D01*
X149876202Y-91129828D01*
X149876206Y-91129835D01*
X149962452Y-91245044D01*
X149962455Y-91245047D01*
X150077664Y-91331293D01*
X150077671Y-91331297D01*
X150212517Y-91381591D01*
X150212516Y-91381591D01*
X150219444Y-91382335D01*
X150272127Y-91388000D01*
X153142872Y-91387999D01*
X153202483Y-91381591D01*
X153337331Y-91331296D01*
X153452546Y-91245046D01*
X153538796Y-91129831D01*
X153589091Y-90994983D01*
X153595500Y-90935373D01*
X153595499Y-89469508D01*
X170714600Y-89469508D01*
X170714600Y-89698991D01*
X170723868Y-89769382D01*
X170744552Y-89926488D01*
X170744553Y-89926490D01*
X170803942Y-90148137D01*
X170891750Y-90360126D01*
X170891757Y-90360140D01*
X171006492Y-90558867D01*
X171146181Y-90740911D01*
X171146189Y-90740920D01*
X171308430Y-90903161D01*
X171308438Y-90903168D01*
X171308439Y-90903169D01*
X171350408Y-90935373D01*
X171490482Y-91042857D01*
X171490485Y-91042858D01*
X171490488Y-91042861D01*
X171689212Y-91157594D01*
X171689217Y-91157596D01*
X171689223Y-91157599D01*
X171780580Y-91195440D01*
X171901213Y-91245408D01*
X172122862Y-91304798D01*
X172350366Y-91334750D01*
X172350373Y-91334750D01*
X172579827Y-91334750D01*
X172579834Y-91334750D01*
X172807338Y-91304798D01*
X173028987Y-91245408D01*
X173240988Y-91157594D01*
X173439712Y-91042861D01*
X173621761Y-90903169D01*
X173621765Y-90903164D01*
X173621770Y-90903161D01*
X173784011Y-90740920D01*
X173784014Y-90740915D01*
X173784019Y-90740911D01*
X173923711Y-90558862D01*
X174038444Y-90360138D01*
X174126258Y-90148137D01*
X174185648Y-89926488D01*
X174215600Y-89698984D01*
X174215600Y-89469516D01*
X174185648Y-89242012D01*
X174126258Y-89020363D01*
X174038444Y-88808362D01*
X173923711Y-88609638D01*
X173923708Y-88609635D01*
X173923707Y-88609632D01*
X173784018Y-88427588D01*
X173784011Y-88427580D01*
X173621770Y-88265339D01*
X173621761Y-88265331D01*
X173439717Y-88125642D01*
X173240990Y-88010907D01*
X173240976Y-88010900D01*
X173028987Y-87923092D01*
X172971363Y-87907652D01*
X172807338Y-87863702D01*
X172769315Y-87858696D01*
X172579841Y-87833750D01*
X172579834Y-87833750D01*
X172350366Y-87833750D01*
X172350358Y-87833750D01*
X172133815Y-87862259D01*
X172122862Y-87863702D01*
X172029176Y-87888804D01*
X171901212Y-87923092D01*
X171689223Y-88010900D01*
X171689209Y-88010907D01*
X171490482Y-88125642D01*
X171308438Y-88265331D01*
X171146181Y-88427588D01*
X171006492Y-88609632D01*
X170891757Y-88808359D01*
X170891750Y-88808373D01*
X170803942Y-89020362D01*
X170744553Y-89242009D01*
X170744551Y-89242020D01*
X170714600Y-89469508D01*
X153595499Y-89469508D01*
X153595499Y-88064628D01*
X153589091Y-88005017D01*
X153552776Y-87907652D01*
X153538797Y-87870171D01*
X153538793Y-87870164D01*
X153452547Y-87754955D01*
X153452544Y-87754952D01*
X153337335Y-87668706D01*
X153337328Y-87668702D01*
X153202482Y-87618408D01*
X153202483Y-87618408D01*
X153142883Y-87612001D01*
X153142881Y-87612000D01*
X153142873Y-87612000D01*
X153142864Y-87612000D01*
X150272129Y-87612000D01*
X150272123Y-87612001D01*
X150212516Y-87618408D01*
X150077671Y-87668702D01*
X150077664Y-87668706D01*
X149962455Y-87754952D01*
X149962452Y-87754955D01*
X149876206Y-87870164D01*
X149876202Y-87870171D01*
X149825908Y-88005017D01*
X149819501Y-88064616D01*
X149819501Y-88064623D01*
X149819500Y-88064635D01*
X148240537Y-88064635D01*
X148030839Y-87907657D01*
X148030831Y-87907652D01*
X147793812Y-87778230D01*
X147793808Y-87778228D01*
X147697877Y-87742448D01*
X147540770Y-87683850D01*
X147540766Y-87683849D01*
X147540763Y-87683848D01*
X147276882Y-87626443D01*
X147007501Y-87607177D01*
X147007499Y-87607177D01*
X146738117Y-87626443D01*
X146474236Y-87683848D01*
X146474231Y-87683849D01*
X146474230Y-87683850D01*
X146413051Y-87706668D01*
X146221191Y-87778228D01*
X146221187Y-87778230D01*
X145984168Y-87907652D01*
X145984160Y-87907657D01*
X145767972Y-88069493D01*
X145767954Y-88069509D01*
X145577009Y-88260454D01*
X145576993Y-88260472D01*
X145415157Y-88476660D01*
X145415152Y-88476668D01*
X145285730Y-88713687D01*
X145285728Y-88713691D01*
X145191348Y-88966736D01*
X145133943Y-89230617D01*
X145114677Y-89499998D01*
X144200323Y-89499998D01*
X144181057Y-89230623D01*
X144123650Y-88966730D01*
X144029272Y-88713693D01*
X143972450Y-88609632D01*
X143899847Y-88476668D01*
X143899842Y-88476660D01*
X143738006Y-88260472D01*
X143737990Y-88260454D01*
X143547045Y-88069509D01*
X143547027Y-88069493D01*
X143330839Y-87907657D01*
X143330831Y-87907652D01*
X143093812Y-87778230D01*
X143093808Y-87778228D01*
X142997877Y-87742448D01*
X142840770Y-87683850D01*
X142840766Y-87683849D01*
X142840763Y-87683848D01*
X142576882Y-87626443D01*
X142307501Y-87607177D01*
X142307499Y-87607177D01*
X142038117Y-87626443D01*
X141774236Y-87683848D01*
X141774231Y-87683849D01*
X141774230Y-87683850D01*
X141713051Y-87706668D01*
X141521191Y-87778228D01*
X141521187Y-87778230D01*
X141284168Y-87907652D01*
X141284160Y-87907657D01*
X141067972Y-88069493D01*
X141067954Y-88069509D01*
X140877009Y-88260454D01*
X140876993Y-88260472D01*
X140715157Y-88476660D01*
X140715152Y-88476668D01*
X140585730Y-88713687D01*
X140585728Y-88713691D01*
X140491348Y-88966736D01*
X140433943Y-89230617D01*
X140414677Y-89499998D01*
X103481369Y-89499998D01*
X107582951Y-85398416D01*
X107592416Y-85384250D01*
X163509496Y-85384250D01*
X163529878Y-85643240D01*
X163590527Y-85895860D01*
X163689943Y-86135873D01*
X163689945Y-86135877D01*
X163689946Y-86135878D01*
X163825688Y-86357390D01*
X163994411Y-86554939D01*
X164191960Y-86723662D01*
X164413472Y-86859404D01*
X164413474Y-86859404D01*
X164413476Y-86859406D01*
X164474793Y-86884804D01*
X164653490Y-86958823D01*
X164906106Y-87019471D01*
X165165100Y-87039854D01*
X165424094Y-87019471D01*
X165676710Y-86958823D01*
X165916728Y-86859404D01*
X166138240Y-86723662D01*
X166335789Y-86554939D01*
X166504512Y-86357390D01*
X166640254Y-86135878D01*
X166739673Y-85895860D01*
X166800321Y-85643244D01*
X166820704Y-85384250D01*
X166800321Y-85125256D01*
X166739673Y-84872640D01*
X166640254Y-84632622D01*
X166504512Y-84411110D01*
X166335789Y-84213561D01*
X166138240Y-84044838D01*
X165916728Y-83909096D01*
X165916727Y-83909095D01*
X165916723Y-83909093D01*
X165750727Y-83840336D01*
X165676710Y-83809677D01*
X165676711Y-83809677D01*
X165506891Y-83768907D01*
X165424094Y-83749029D01*
X165424092Y-83749028D01*
X165424091Y-83749028D01*
X165165100Y-83728646D01*
X164906109Y-83749028D01*
X164653489Y-83809677D01*
X164413476Y-83909093D01*
X164191959Y-84044838D01*
X163994411Y-84213561D01*
X163825688Y-84411109D01*
X163689943Y-84632626D01*
X163590527Y-84872639D01*
X163529878Y-85125259D01*
X163509496Y-85384250D01*
X107592416Y-85384250D01*
X107665084Y-85275495D01*
X107665616Y-85274212D01*
X107721656Y-85138917D01*
X107721658Y-85138913D01*
X107750500Y-84993918D01*
X107750500Y-84846083D01*
X107750500Y-81184250D01*
X163509496Y-81184250D01*
X163529878Y-81443240D01*
X163590527Y-81695860D01*
X163689943Y-81935873D01*
X163689945Y-81935877D01*
X163689946Y-81935878D01*
X163825688Y-82157390D01*
X163994411Y-82354939D01*
X164191960Y-82523662D01*
X164413472Y-82659404D01*
X164413474Y-82659404D01*
X164413476Y-82659406D01*
X164474793Y-82684804D01*
X164653490Y-82758823D01*
X164906106Y-82819471D01*
X165165100Y-82839854D01*
X165424094Y-82819471D01*
X165676710Y-82758823D01*
X165916728Y-82659404D01*
X166138240Y-82523662D01*
X166335789Y-82354939D01*
X166504512Y-82157390D01*
X166640254Y-81935878D01*
X166739673Y-81695860D01*
X166800321Y-81443244D01*
X166820704Y-81184250D01*
X166800321Y-80925256D01*
X166739673Y-80672640D01*
X166640254Y-80432622D01*
X166504512Y-80211110D01*
X166335789Y-80013561D01*
X166138240Y-79844838D01*
X165916728Y-79709096D01*
X165916727Y-79709095D01*
X165916723Y-79709093D01*
X165750727Y-79640336D01*
X165676710Y-79609677D01*
X165676711Y-79609677D01*
X165539021Y-79576620D01*
X165424094Y-79549029D01*
X165424092Y-79549028D01*
X165424091Y-79549028D01*
X165165100Y-79528646D01*
X164906109Y-79549028D01*
X164653489Y-79609677D01*
X164413476Y-79709093D01*
X164191959Y-79844838D01*
X163994411Y-80013561D01*
X163825688Y-80211109D01*
X163689943Y-80432626D01*
X163590527Y-80672639D01*
X163529878Y-80925259D01*
X163509496Y-81184250D01*
X107750500Y-81184250D01*
X107750500Y-75786385D01*
X163514600Y-75786385D01*
X163514600Y-78182120D01*
X163514601Y-78182126D01*
X163521008Y-78241733D01*
X163571302Y-78376578D01*
X163571306Y-78376585D01*
X163657552Y-78491794D01*
X163657555Y-78491797D01*
X163772764Y-78578043D01*
X163772771Y-78578047D01*
X163907617Y-78628341D01*
X163907616Y-78628341D01*
X163914544Y-78629085D01*
X163967227Y-78634750D01*
X166362972Y-78634749D01*
X166422583Y-78628341D01*
X166557431Y-78578046D01*
X166672646Y-78491796D01*
X166758896Y-78376581D01*
X166809191Y-78241733D01*
X166815600Y-78182123D01*
X166815599Y-76869508D01*
X170714600Y-76869508D01*
X170714600Y-77098991D01*
X170737033Y-77269377D01*
X170744552Y-77326488D01*
X170744553Y-77326490D01*
X170803942Y-77548137D01*
X170891750Y-77760126D01*
X170891757Y-77760140D01*
X171006492Y-77958867D01*
X171146181Y-78140911D01*
X171146189Y-78140920D01*
X171308430Y-78303161D01*
X171308438Y-78303168D01*
X171490482Y-78442857D01*
X171490485Y-78442858D01*
X171490488Y-78442861D01*
X171689212Y-78557594D01*
X171689217Y-78557596D01*
X171689223Y-78557599D01*
X171773101Y-78592342D01*
X171901213Y-78645408D01*
X172122862Y-78704798D01*
X172350366Y-78734750D01*
X172350373Y-78734750D01*
X172579827Y-78734750D01*
X172579834Y-78734750D01*
X172807338Y-78704798D01*
X173028987Y-78645408D01*
X173240988Y-78557594D01*
X173439712Y-78442861D01*
X173621761Y-78303169D01*
X173621765Y-78303164D01*
X173621770Y-78303161D01*
X173784011Y-78140920D01*
X173784014Y-78140915D01*
X173784019Y-78140911D01*
X173923711Y-77958862D01*
X174038444Y-77760138D01*
X174126258Y-77548137D01*
X174185648Y-77326488D01*
X174215600Y-77098984D01*
X174215600Y-76869516D01*
X174185648Y-76642012D01*
X174126258Y-76420363D01*
X174076290Y-76299730D01*
X174038449Y-76208373D01*
X174038446Y-76208367D01*
X174038444Y-76208362D01*
X173923711Y-76009638D01*
X173923708Y-76009635D01*
X173923707Y-76009632D01*
X173784018Y-75827588D01*
X173784011Y-75827580D01*
X173621770Y-75665339D01*
X173621761Y-75665331D01*
X173439717Y-75525642D01*
X173403993Y-75505017D01*
X173240988Y-75410906D01*
X173240976Y-75410900D01*
X173028987Y-75323092D01*
X172807338Y-75263702D01*
X172769315Y-75258696D01*
X172579841Y-75233750D01*
X172579834Y-75233750D01*
X172350366Y-75233750D01*
X172350358Y-75233750D01*
X172133815Y-75262259D01*
X172122862Y-75263702D01*
X172068650Y-75278228D01*
X171901212Y-75323092D01*
X171689223Y-75410900D01*
X171689209Y-75410907D01*
X171490482Y-75525642D01*
X171308438Y-75665331D01*
X171146181Y-75827588D01*
X171006492Y-76009632D01*
X170891757Y-76208359D01*
X170891750Y-76208373D01*
X170803942Y-76420362D01*
X170744553Y-76642009D01*
X170744551Y-76642020D01*
X170714600Y-76869508D01*
X166815599Y-76869508D01*
X166815599Y-75786378D01*
X166815598Y-75786376D01*
X166815598Y-75786363D01*
X166809191Y-75726766D01*
X166758897Y-75591921D01*
X166758893Y-75591914D01*
X166672647Y-75476705D01*
X166672644Y-75476702D01*
X166557435Y-75390456D01*
X166557428Y-75390452D01*
X166422582Y-75340158D01*
X166422583Y-75340158D01*
X166362983Y-75333751D01*
X166362981Y-75333750D01*
X166362973Y-75333750D01*
X166362964Y-75333750D01*
X163967229Y-75333750D01*
X163967223Y-75333751D01*
X163907616Y-75340158D01*
X163772771Y-75390452D01*
X163772764Y-75390456D01*
X163657555Y-75476702D01*
X163657552Y-75476705D01*
X163571306Y-75591914D01*
X163571302Y-75591921D01*
X163521008Y-75726767D01*
X163514601Y-75786363D01*
X163514600Y-75786385D01*
X107750500Y-75786385D01*
X107750500Y-69500000D01*
X124019628Y-69500000D01*
X124039085Y-69747228D01*
X124096976Y-69988362D01*
X124191877Y-70217474D01*
X124321450Y-70428916D01*
X124321453Y-70428921D01*
X124330381Y-70439374D01*
X124482508Y-70617492D01*
X124537008Y-70664039D01*
X124671078Y-70778546D01*
X124671080Y-70778547D01*
X124671081Y-70778548D01*
X124727979Y-70813415D01*
X124882525Y-70908122D01*
X125111637Y-71003023D01*
X125157685Y-71014078D01*
X125352775Y-71060915D01*
X125600000Y-71080372D01*
X125847225Y-71060915D01*
X126088362Y-71003023D01*
X126317474Y-70908122D01*
X126528919Y-70778548D01*
X126717492Y-70617492D01*
X126878548Y-70428919D01*
X127008122Y-70217474D01*
X127103023Y-69988362D01*
X127160915Y-69747225D01*
X127180372Y-69500000D01*
X128219628Y-69500000D01*
X128239085Y-69747228D01*
X128296976Y-69988362D01*
X128391877Y-70217474D01*
X128521450Y-70428916D01*
X128521453Y-70428921D01*
X128530381Y-70439374D01*
X128682508Y-70617492D01*
X128737008Y-70664039D01*
X128871078Y-70778546D01*
X128871080Y-70778547D01*
X128871081Y-70778548D01*
X128927979Y-70813415D01*
X129082525Y-70908122D01*
X129311637Y-71003023D01*
X129357685Y-71014078D01*
X129552775Y-71060915D01*
X129800000Y-71080372D01*
X130047225Y-71060915D01*
X130288362Y-71003023D01*
X130517474Y-70908122D01*
X130728919Y-70778548D01*
X130917492Y-70617492D01*
X131078548Y-70428919D01*
X131208122Y-70217474D01*
X131303023Y-69988362D01*
X131360915Y-69747225D01*
X131380372Y-69500000D01*
X132419628Y-69500000D01*
X132439085Y-69747228D01*
X132496976Y-69988362D01*
X132591877Y-70217474D01*
X132721450Y-70428916D01*
X132721453Y-70428921D01*
X132730381Y-70439374D01*
X132882508Y-70617492D01*
X132937008Y-70664039D01*
X133071078Y-70778546D01*
X133071080Y-70778547D01*
X133071081Y-70778548D01*
X133127979Y-70813415D01*
X133282525Y-70908122D01*
X133511637Y-71003023D01*
X133557685Y-71014078D01*
X133752775Y-71060915D01*
X134000000Y-71080372D01*
X134247225Y-71060915D01*
X134488362Y-71003023D01*
X134717474Y-70908122D01*
X134928919Y-70778548D01*
X135117492Y-70617492D01*
X135278548Y-70428919D01*
X135408122Y-70217474D01*
X135503023Y-69988362D01*
X135560915Y-69747225D01*
X135580372Y-69500000D01*
X136619628Y-69500000D01*
X136639085Y-69747228D01*
X136696976Y-69988362D01*
X136791877Y-70217474D01*
X136921450Y-70428916D01*
X136921453Y-70428921D01*
X136930381Y-70439374D01*
X137082508Y-70617492D01*
X137137008Y-70664039D01*
X137271078Y-70778546D01*
X137271080Y-70778547D01*
X137271081Y-70778548D01*
X137327979Y-70813415D01*
X137482525Y-70908122D01*
X137711637Y-71003023D01*
X137757685Y-71014078D01*
X137952775Y-71060915D01*
X138200000Y-71080372D01*
X138447225Y-71060915D01*
X138688362Y-71003023D01*
X138917474Y-70908122D01*
X139128919Y-70778548D01*
X139317492Y-70617492D01*
X139478548Y-70428919D01*
X139608122Y-70217474D01*
X139703023Y-69988362D01*
X139760915Y-69747225D01*
X139780372Y-69500000D01*
X139760915Y-69252775D01*
X139703023Y-69011638D01*
X139700036Y-69004425D01*
X139608122Y-68782525D01*
X139478549Y-68571083D01*
X139478546Y-68571078D01*
X139381726Y-68457717D01*
X139317492Y-68382508D01*
X139214399Y-68294458D01*
X139128921Y-68221453D01*
X139128916Y-68221450D01*
X138917474Y-68091877D01*
X138688362Y-67996976D01*
X138447228Y-67939085D01*
X138200000Y-67919628D01*
X137952771Y-67939085D01*
X137711637Y-67996976D01*
X137482525Y-68091877D01*
X137271083Y-68221450D01*
X137271078Y-68221453D01*
X137082508Y-68382508D01*
X136921453Y-68571078D01*
X136921450Y-68571083D01*
X136791877Y-68782525D01*
X136696976Y-69011637D01*
X136639085Y-69252771D01*
X136619628Y-69500000D01*
X135580372Y-69500000D01*
X135560915Y-69252775D01*
X135503023Y-69011638D01*
X135500036Y-69004425D01*
X135408122Y-68782525D01*
X135278549Y-68571083D01*
X135278546Y-68571078D01*
X135181726Y-68457717D01*
X135117492Y-68382508D01*
X135014399Y-68294458D01*
X134928921Y-68221453D01*
X134928916Y-68221450D01*
X134717474Y-68091877D01*
X134488362Y-67996976D01*
X134247228Y-67939085D01*
X134000000Y-67919628D01*
X133752771Y-67939085D01*
X133511637Y-67996976D01*
X133282525Y-68091877D01*
X133071083Y-68221450D01*
X133071078Y-68221453D01*
X132882508Y-68382508D01*
X132721453Y-68571078D01*
X132721450Y-68571083D01*
X132591877Y-68782525D01*
X132496976Y-69011637D01*
X132439085Y-69252771D01*
X132419628Y-69500000D01*
X131380372Y-69500000D01*
X131360915Y-69252775D01*
X131303023Y-69011638D01*
X131300036Y-69004425D01*
X131208122Y-68782525D01*
X131078549Y-68571083D01*
X131078546Y-68571078D01*
X130981726Y-68457717D01*
X130917492Y-68382508D01*
X130814399Y-68294458D01*
X130728921Y-68221453D01*
X130728916Y-68221450D01*
X130517474Y-68091877D01*
X130288362Y-67996976D01*
X130047228Y-67939085D01*
X129800000Y-67919628D01*
X129552771Y-67939085D01*
X129311637Y-67996976D01*
X129082525Y-68091877D01*
X128871083Y-68221450D01*
X128871078Y-68221453D01*
X128682508Y-68382508D01*
X128521453Y-68571078D01*
X128521450Y-68571083D01*
X128391877Y-68782525D01*
X128296976Y-69011637D01*
X128239085Y-69252771D01*
X128219628Y-69500000D01*
X127180372Y-69500000D01*
X127160915Y-69252775D01*
X127103023Y-69011638D01*
X127100036Y-69004425D01*
X127008122Y-68782525D01*
X126878549Y-68571083D01*
X126878546Y-68571078D01*
X126781726Y-68457717D01*
X126717492Y-68382508D01*
X126614399Y-68294458D01*
X126528921Y-68221453D01*
X126528916Y-68221450D01*
X126317474Y-68091877D01*
X126088362Y-67996976D01*
X125847228Y-67939085D01*
X125600000Y-67919628D01*
X125352771Y-67939085D01*
X125111637Y-67996976D01*
X124882525Y-68091877D01*
X124671083Y-68221450D01*
X124671078Y-68221453D01*
X124482508Y-68382508D01*
X124321453Y-68571078D01*
X124321450Y-68571083D01*
X124191877Y-68782525D01*
X124096976Y-69011637D01*
X124039085Y-69252771D01*
X124019628Y-69500000D01*
X107750500Y-69500000D01*
X107750500Y-62926082D01*
X107750500Y-62926079D01*
X107736479Y-62855593D01*
X107728161Y-62813778D01*
X107728161Y-62813777D01*
X107728161Y-62813775D01*
X107721660Y-62781095D01*
X107721659Y-62781088D01*
X107671502Y-62660000D01*
X107671500Y-62659995D01*
X150174732Y-62659995D01*
X150174732Y-62660000D01*
X150193777Y-62914154D01*
X150237201Y-63104408D01*
X150250492Y-63162637D01*
X150343607Y-63399888D01*
X150471041Y-63620612D01*
X150629950Y-63819877D01*
X150816783Y-63993232D01*
X151027366Y-64136805D01*
X151027371Y-64136807D01*
X151027372Y-64136808D01*
X151027373Y-64136809D01*
X151149328Y-64195538D01*
X151256992Y-64247387D01*
X151256993Y-64247387D01*
X151256996Y-64247389D01*
X151500542Y-64322513D01*
X151752565Y-64360500D01*
X152007435Y-64360500D01*
X152259458Y-64322513D01*
X152503004Y-64247389D01*
X152732634Y-64136805D01*
X152943217Y-63993232D01*
X153130050Y-63819877D01*
X153288959Y-63620612D01*
X153416393Y-63399888D01*
X153509508Y-63162637D01*
X153566222Y-62914157D01*
X153585268Y-62660000D01*
X153585268Y-62659995D01*
X155255233Y-62659995D01*
X155255233Y-62660000D01*
X155274273Y-62914079D01*
X155330968Y-63162477D01*
X155330973Y-63162494D01*
X155424058Y-63399671D01*
X155424057Y-63399671D01*
X155551454Y-63620327D01*
X155551461Y-63620338D01*
X155593452Y-63672991D01*
X155593453Y-63672992D01*
X156244152Y-63022292D01*
X156251049Y-63038942D01*
X156338599Y-63169970D01*
X156450030Y-63281401D01*
X156581058Y-63368951D01*
X156597705Y-63375846D01*
X155946813Y-64026738D01*
X156107616Y-64136371D01*
X156107624Y-64136376D01*
X156337176Y-64246921D01*
X156337174Y-64246921D01*
X156580652Y-64322024D01*
X156580658Y-64322026D01*
X156832595Y-64359999D01*
X156832604Y-64360000D01*
X157087396Y-64360000D01*
X157087404Y-64359999D01*
X157339341Y-64322026D01*
X157339347Y-64322024D01*
X157582824Y-64246921D01*
X157812376Y-64136376D01*
X157812377Y-64136375D01*
X157973185Y-64026738D01*
X157322294Y-63375846D01*
X157338942Y-63368951D01*
X157469970Y-63281401D01*
X157581401Y-63169970D01*
X157668951Y-63038942D01*
X157675846Y-63022294D01*
X158326544Y-63672992D01*
X158326546Y-63672991D01*
X158368544Y-63620330D01*
X158495941Y-63399671D01*
X158589026Y-63162494D01*
X158589031Y-63162477D01*
X158645726Y-62914079D01*
X158664767Y-62660000D01*
X158664767Y-62659995D01*
X160335233Y-62659995D01*
X160335233Y-62660000D01*
X160354273Y-62914079D01*
X160410968Y-63162477D01*
X160410973Y-63162494D01*
X160504058Y-63399671D01*
X160504057Y-63399671D01*
X160631454Y-63620327D01*
X160631461Y-63620338D01*
X160673452Y-63672991D01*
X160673453Y-63672992D01*
X161324152Y-63022292D01*
X161331049Y-63038942D01*
X161418599Y-63169970D01*
X161530030Y-63281401D01*
X161661058Y-63368951D01*
X161677705Y-63375846D01*
X161026813Y-64026738D01*
X161187616Y-64136371D01*
X161187624Y-64136376D01*
X161417176Y-64246921D01*
X161417174Y-64246921D01*
X161660652Y-64322024D01*
X161660658Y-64322026D01*
X161912595Y-64359999D01*
X161912604Y-64360000D01*
X162167396Y-64360000D01*
X162167404Y-64359999D01*
X162419341Y-64322026D01*
X162419347Y-64322024D01*
X162662824Y-64246921D01*
X162892376Y-64136376D01*
X162892377Y-64136375D01*
X163053185Y-64026738D01*
X162402294Y-63375846D01*
X162418942Y-63368951D01*
X162549970Y-63281401D01*
X162661401Y-63169970D01*
X162748951Y-63038942D01*
X162755846Y-63022294D01*
X163406544Y-63672992D01*
X163406546Y-63672991D01*
X163448544Y-63620330D01*
X163575941Y-63399671D01*
X163669026Y-63162494D01*
X163669031Y-63162477D01*
X163725726Y-62914079D01*
X163744767Y-62660000D01*
X163744767Y-62659995D01*
X165414732Y-62659995D01*
X165414732Y-62660000D01*
X165433777Y-62914154D01*
X165477201Y-63104408D01*
X165490492Y-63162637D01*
X165583607Y-63399888D01*
X165711041Y-63620612D01*
X165869950Y-63819877D01*
X166056783Y-63993232D01*
X166267366Y-64136805D01*
X166267371Y-64136807D01*
X166267372Y-64136808D01*
X166267373Y-64136809D01*
X166389328Y-64195538D01*
X166496992Y-64247387D01*
X166496993Y-64247387D01*
X166496996Y-64247389D01*
X166740542Y-64322513D01*
X166992565Y-64360500D01*
X167247435Y-64360500D01*
X167499458Y-64322513D01*
X167743004Y-64247389D01*
X167972634Y-64136805D01*
X168183217Y-63993232D01*
X168370050Y-63819877D01*
X168528959Y-63620612D01*
X168656393Y-63399888D01*
X168749508Y-63162637D01*
X168806222Y-62914157D01*
X168825268Y-62660000D01*
X168823921Y-62642030D01*
X168806222Y-62405845D01*
X168777740Y-62281058D01*
X168749508Y-62157363D01*
X168656393Y-61920112D01*
X168528959Y-61699388D01*
X168370050Y-61500123D01*
X168183217Y-61326768D01*
X167972634Y-61183195D01*
X167972630Y-61183193D01*
X167972627Y-61183191D01*
X167972626Y-61183190D01*
X167743006Y-61072612D01*
X167743008Y-61072612D01*
X167499466Y-60997489D01*
X167499462Y-60997488D01*
X167499458Y-60997487D01*
X167378231Y-60979214D01*
X167247440Y-60959500D01*
X167247435Y-60959500D01*
X166992565Y-60959500D01*
X166992559Y-60959500D01*
X166835609Y-60983157D01*
X166740542Y-60997487D01*
X166740539Y-60997488D01*
X166740533Y-60997489D01*
X166496992Y-61072612D01*
X166267373Y-61183190D01*
X166267372Y-61183191D01*
X166056782Y-61326768D01*
X165869952Y-61500121D01*
X165869950Y-61500123D01*
X165711041Y-61699388D01*
X165583608Y-61920109D01*
X165490492Y-62157362D01*
X165490490Y-62157369D01*
X165433777Y-62405845D01*
X165414732Y-62659995D01*
X163744767Y-62659995D01*
X163725726Y-62405920D01*
X163669031Y-62157522D01*
X163669026Y-62157505D01*
X163575941Y-61920328D01*
X163575942Y-61920328D01*
X163448545Y-61699672D01*
X163406545Y-61647006D01*
X162755846Y-62297705D01*
X162748951Y-62281058D01*
X162661401Y-62150030D01*
X162549970Y-62038599D01*
X162418942Y-61951049D01*
X162402293Y-61944152D01*
X163053185Y-61293260D01*
X162892384Y-61183628D01*
X162892376Y-61183623D01*
X162662823Y-61073078D01*
X162662825Y-61073078D01*
X162419347Y-60997975D01*
X162419341Y-60997973D01*
X162167404Y-60960000D01*
X161912595Y-60960000D01*
X161660658Y-60997973D01*
X161660652Y-60997975D01*
X161417175Y-61073078D01*
X161187622Y-61183625D01*
X161187609Y-61183632D01*
X161026813Y-61293259D01*
X161677706Y-61944152D01*
X161661058Y-61951049D01*
X161530030Y-62038599D01*
X161418599Y-62150030D01*
X161331049Y-62281058D01*
X161324152Y-62297706D01*
X160673452Y-61647006D01*
X160631457Y-61699667D01*
X160504058Y-61920328D01*
X160410973Y-62157505D01*
X160410968Y-62157522D01*
X160354273Y-62405920D01*
X160335233Y-62659995D01*
X158664767Y-62659995D01*
X158645726Y-62405920D01*
X158589031Y-62157522D01*
X158589026Y-62157505D01*
X158495941Y-61920328D01*
X158495942Y-61920328D01*
X158368545Y-61699672D01*
X158326545Y-61647006D01*
X157675846Y-62297705D01*
X157668951Y-62281058D01*
X157581401Y-62150030D01*
X157469970Y-62038599D01*
X157338942Y-61951049D01*
X157322293Y-61944152D01*
X157973185Y-61293260D01*
X157812384Y-61183628D01*
X157812376Y-61183623D01*
X157582823Y-61073078D01*
X157582825Y-61073078D01*
X157339347Y-60997975D01*
X157339341Y-60997973D01*
X157087404Y-60960000D01*
X156832595Y-60960000D01*
X156580658Y-60997973D01*
X156580652Y-60997975D01*
X156337175Y-61073078D01*
X156107622Y-61183625D01*
X156107609Y-61183632D01*
X155946813Y-61293259D01*
X156597706Y-61944152D01*
X156581058Y-61951049D01*
X156450030Y-62038599D01*
X156338599Y-62150030D01*
X156251049Y-62281058D01*
X156244152Y-62297706D01*
X155593452Y-61647006D01*
X155551457Y-61699667D01*
X155424058Y-61920328D01*
X155330973Y-62157505D01*
X155330968Y-62157522D01*
X155274273Y-62405920D01*
X155255233Y-62659995D01*
X153585268Y-62659995D01*
X153583921Y-62642030D01*
X153566222Y-62405845D01*
X153537740Y-62281058D01*
X153509508Y-62157363D01*
X153416393Y-61920112D01*
X153288959Y-61699388D01*
X153130050Y-61500123D01*
X152943217Y-61326768D01*
X152732634Y-61183195D01*
X152732630Y-61183193D01*
X152732627Y-61183191D01*
X152732626Y-61183190D01*
X152503006Y-61072612D01*
X152503008Y-61072612D01*
X152259466Y-60997489D01*
X152259462Y-60997488D01*
X152259458Y-60997487D01*
X152138231Y-60979214D01*
X152007440Y-60959500D01*
X152007435Y-60959500D01*
X151752565Y-60959500D01*
X151752559Y-60959500D01*
X151595609Y-60983157D01*
X151500542Y-60997487D01*
X151500539Y-60997488D01*
X151500533Y-60997489D01*
X151256992Y-61072612D01*
X151027373Y-61183190D01*
X151027372Y-61183191D01*
X150816782Y-61326768D01*
X150629952Y-61500121D01*
X150629950Y-61500123D01*
X150471041Y-61699388D01*
X150343608Y-61920109D01*
X150250492Y-62157362D01*
X150250490Y-62157369D01*
X150193777Y-62405845D01*
X150174732Y-62659995D01*
X107671500Y-62659995D01*
X107665084Y-62644505D01*
X107663430Y-62642030D01*
X107582954Y-62521588D01*
X107582953Y-62521587D01*
X107582951Y-62521584D01*
X107478416Y-62417049D01*
X106760755Y-61699388D01*
X105061696Y-60000328D01*
X147819500Y-60000328D01*
X147819500Y-60239671D01*
X147856939Y-60476051D01*
X147930898Y-60703674D01*
X148039554Y-60916919D01*
X148180221Y-61110532D01*
X148180225Y-61110537D01*
X148349462Y-61279774D01*
X148349467Y-61279778D01*
X148368024Y-61293260D01*
X148543084Y-61420448D01*
X148678961Y-61489681D01*
X148756325Y-61529101D01*
X148756327Y-61529101D01*
X148756330Y-61529103D01*
X148983949Y-61603061D01*
X149105735Y-61622349D01*
X149220329Y-61640500D01*
X149220334Y-61640500D01*
X149459671Y-61640500D01*
X149564135Y-61623953D01*
X149696051Y-61603061D01*
X149923670Y-61529103D01*
X150136916Y-61420448D01*
X150330539Y-61279773D01*
X150499773Y-61110539D01*
X150640448Y-60916916D01*
X150749103Y-60703670D01*
X150823061Y-60476051D01*
X150843953Y-60344135D01*
X150860500Y-60239671D01*
X150860500Y-60000328D01*
X168139500Y-60000328D01*
X168139500Y-60239671D01*
X168176939Y-60476051D01*
X168250898Y-60703674D01*
X168359554Y-60916919D01*
X168500221Y-61110532D01*
X168500225Y-61110537D01*
X168669462Y-61279774D01*
X168669467Y-61279778D01*
X168688024Y-61293260D01*
X168863084Y-61420448D01*
X168998961Y-61489681D01*
X169076325Y-61529101D01*
X169076327Y-61529101D01*
X169076330Y-61529103D01*
X169303949Y-61603061D01*
X169425735Y-61622349D01*
X169540329Y-61640500D01*
X169540334Y-61640500D01*
X169779671Y-61640500D01*
X169884135Y-61623953D01*
X170016051Y-61603061D01*
X170243670Y-61529103D01*
X170456916Y-61420448D01*
X170650539Y-61279773D01*
X170819773Y-61110539D01*
X170960448Y-60916916D01*
X171069103Y-60703670D01*
X171143061Y-60476051D01*
X171163953Y-60344135D01*
X171180500Y-60239671D01*
X171180500Y-60000328D01*
X171160644Y-59874970D01*
X171143061Y-59763949D01*
X171069103Y-59536330D01*
X171069101Y-59536327D01*
X171069101Y-59536325D01*
X171008323Y-59417044D01*
X170960448Y-59323084D01*
X170906986Y-59249500D01*
X170819778Y-59129467D01*
X170819774Y-59129462D01*
X170650537Y-58960225D01*
X170650532Y-58960221D01*
X170456919Y-58819554D01*
X170456918Y-58819553D01*
X170456916Y-58819552D01*
X170390324Y-58785621D01*
X170243674Y-58710898D01*
X170016051Y-58636939D01*
X169779671Y-58599500D01*
X169779666Y-58599500D01*
X169540334Y-58599500D01*
X169540329Y-58599500D01*
X169303948Y-58636939D01*
X169076325Y-58710898D01*
X168863080Y-58819554D01*
X168669467Y-58960221D01*
X168669462Y-58960225D01*
X168500225Y-59129462D01*
X168500221Y-59129467D01*
X168359554Y-59323080D01*
X168250898Y-59536325D01*
X168176939Y-59763948D01*
X168139500Y-60000328D01*
X150860500Y-60000328D01*
X150840644Y-59874970D01*
X150823061Y-59763949D01*
X150749103Y-59536330D01*
X150749101Y-59536327D01*
X150749101Y-59536325D01*
X150688323Y-59417044D01*
X150640448Y-59323084D01*
X150586986Y-59249500D01*
X150499778Y-59129467D01*
X150499774Y-59129462D01*
X150330537Y-58960225D01*
X150330532Y-58960221D01*
X150136919Y-58819554D01*
X150136918Y-58819553D01*
X150136916Y-58819552D01*
X150070324Y-58785621D01*
X149923674Y-58710898D01*
X149696051Y-58636939D01*
X149459671Y-58599500D01*
X149459666Y-58599500D01*
X149220334Y-58599500D01*
X149220329Y-58599500D01*
X148983948Y-58636939D01*
X148756325Y-58710898D01*
X148543080Y-58819554D01*
X148349467Y-58960221D01*
X148349462Y-58960225D01*
X148180225Y-59129462D01*
X148180221Y-59129467D01*
X148039554Y-59323080D01*
X147930898Y-59536325D01*
X147856939Y-59763948D01*
X147819500Y-60000328D01*
X105061696Y-60000328D01*
X104478421Y-59417052D01*
X104478414Y-59417046D01*
X104404729Y-59367812D01*
X104404729Y-59367813D01*
X104355491Y-59334913D01*
X104218917Y-59278343D01*
X104218907Y-59278340D01*
X104073920Y-59249500D01*
X104073918Y-59249500D01*
X93926082Y-59249500D01*
X93926080Y-59249500D01*
X93781092Y-59278340D01*
X93781086Y-59278342D01*
X93644508Y-59334914D01*
X93644496Y-59334921D01*
X93595269Y-59367813D01*
X93521588Y-59417044D01*
X93521580Y-59417050D01*
X90917050Y-62021580D01*
X90917044Y-62021588D01*
X90867812Y-62095268D01*
X90867813Y-62095269D01*
X90834921Y-62144496D01*
X90834914Y-62144508D01*
X90778342Y-62281086D01*
X90778340Y-62281092D01*
X90749500Y-62426079D01*
X90749500Y-62764572D01*
X90729815Y-62831611D01*
X90690290Y-62870299D01*
X90571086Y-62943348D01*
X90571077Y-62943354D01*
X90382510Y-63104405D01*
X90221453Y-63292978D01*
X90221450Y-63292983D01*
X90091877Y-63504425D01*
X89996976Y-63733537D01*
X89939085Y-63974671D01*
X89919628Y-64221900D01*
X89939085Y-64469128D01*
X89996976Y-64710262D01*
X90091877Y-64939374D01*
X90221450Y-65150816D01*
X90221453Y-65150821D01*
X90269707Y-65207319D01*
X90382508Y-65339392D01*
X90424823Y-65375532D01*
X90571078Y-65500446D01*
X90571080Y-65500447D01*
X90571081Y-65500448D01*
X90627979Y-65535315D01*
X90782525Y-65630022D01*
X91011637Y-65724923D01*
X91116824Y-65750176D01*
X91252775Y-65782815D01*
X91500000Y-65802272D01*
X91747225Y-65782815D01*
X91883173Y-65750176D01*
X91952955Y-65753667D01*
X91999801Y-65783069D01*
X92713181Y-66496448D01*
X92746666Y-66557771D01*
X92749500Y-66584129D01*
X92749500Y-68448176D01*
X92729815Y-68515215D01*
X92677011Y-68560970D01*
X92607853Y-68570914D01*
X92544969Y-68542467D01*
X92428920Y-68443352D01*
X92428916Y-68443350D01*
X92217474Y-68313777D01*
X91988362Y-68218876D01*
X91747228Y-68160985D01*
X91500000Y-68141528D01*
X91252771Y-68160985D01*
X91011637Y-68218876D01*
X90782525Y-68313777D01*
X90571083Y-68443350D01*
X90571078Y-68443353D01*
X90382508Y-68604408D01*
X90221453Y-68792978D01*
X90221450Y-68792983D01*
X90091877Y-69004425D01*
X89996976Y-69233537D01*
X89939085Y-69474671D01*
X89919628Y-69721900D01*
X89939085Y-69969128D01*
X89996976Y-70210262D01*
X90091877Y-70439374D01*
X90221450Y-70650816D01*
X90221453Y-70650821D01*
X90268790Y-70706245D01*
X90382508Y-70839392D01*
X90433800Y-70883199D01*
X90571078Y-71000446D01*
X90571080Y-71000447D01*
X90571081Y-71000448D01*
X90575283Y-71003023D01*
X90782525Y-71130022D01*
X91011637Y-71224923D01*
X91114358Y-71249584D01*
X91252775Y-71282815D01*
X91500000Y-71302272D01*
X91747225Y-71282815D01*
X91988362Y-71224923D01*
X92217474Y-71130022D01*
X92428919Y-71000448D01*
X92544968Y-70901332D01*
X92608729Y-70872762D01*
X92677815Y-70883199D01*
X92730291Y-70929330D01*
X92749500Y-70995623D01*
X92749500Y-72137769D01*
X92729815Y-72204808D01*
X92713181Y-72225450D01*
X78691937Y-86246693D01*
X78655876Y-86269362D01*
X78656756Y-86271188D01*
X78650478Y-86274211D01*
X78497737Y-86370184D01*
X78370184Y-86497737D01*
X78274211Y-86650476D01*
X78214631Y-86820745D01*
X78214630Y-86820750D01*
X78194435Y-86999996D01*
X71131240Y-86999996D01*
X71225789Y-86849522D01*
X71225790Y-86849518D01*
X71228811Y-86843246D01*
X71230655Y-86844134D01*
X71253305Y-86808061D01*
X85582952Y-72478415D01*
X85617919Y-72426082D01*
X85665084Y-72355495D01*
X85695905Y-72281087D01*
X85721659Y-72218912D01*
X85750500Y-72073917D01*
X85750500Y-71926082D01*
X85750500Y-70648336D01*
X85770185Y-70581297D01*
X85822989Y-70535542D01*
X85892147Y-70525598D01*
X85955703Y-70554623D01*
X85980228Y-70583547D01*
X86021452Y-70650820D01*
X86021453Y-70650821D01*
X86068790Y-70706245D01*
X86182508Y-70839392D01*
X86233800Y-70883199D01*
X86371078Y-71000446D01*
X86371080Y-71000447D01*
X86371081Y-71000448D01*
X86375283Y-71003023D01*
X86582525Y-71130022D01*
X86811637Y-71224923D01*
X86914358Y-71249584D01*
X87052775Y-71282815D01*
X87300000Y-71302272D01*
X87547225Y-71282815D01*
X87788362Y-71224923D01*
X88017474Y-71130022D01*
X88228919Y-71000448D01*
X88417492Y-70839392D01*
X88578548Y-70650819D01*
X88708122Y-70439374D01*
X88803023Y-70210262D01*
X88860915Y-69969125D01*
X88880372Y-69721900D01*
X88860915Y-69474675D01*
X88835388Y-69368347D01*
X88803023Y-69233537D01*
X88708122Y-69004425D01*
X88578549Y-68792983D01*
X88578546Y-68792978D01*
X88520583Y-68725113D01*
X88417492Y-68604408D01*
X88267403Y-68476220D01*
X88228921Y-68443353D01*
X88228916Y-68443350D01*
X88017474Y-68313777D01*
X87788362Y-68218876D01*
X87547228Y-68160985D01*
X87300000Y-68141528D01*
X87052771Y-68160985D01*
X86811637Y-68218876D01*
X86582525Y-68313777D01*
X86371083Y-68443350D01*
X86371078Y-68443353D01*
X86182508Y-68604408D01*
X86021453Y-68792978D01*
X86021449Y-68792983D01*
X85980227Y-68860253D01*
X85928415Y-68907128D01*
X85859486Y-68918551D01*
X85795323Y-68890894D01*
X85756298Y-68832938D01*
X85750500Y-68795463D01*
X85750500Y-67862228D01*
X85770185Y-67795189D01*
X85786814Y-67774552D01*
X87853003Y-65708362D01*
X87893226Y-65681486D01*
X88017474Y-65630022D01*
X88228919Y-65500448D01*
X88417492Y-65339392D01*
X88578548Y-65150819D01*
X88708122Y-64939374D01*
X88803023Y-64710262D01*
X88860915Y-64469125D01*
X88880372Y-64221900D01*
X88860915Y-63974675D01*
X88835388Y-63868347D01*
X88803023Y-63733537D01*
X88708122Y-63504425D01*
X88596270Y-63321900D01*
X88578548Y-63292981D01*
X88578547Y-63292980D01*
X88578546Y-63292978D01*
X88467218Y-63162630D01*
X88417492Y-63104408D01*
X88311114Y-63013553D01*
X88228921Y-62943353D01*
X88228916Y-62943350D01*
X88017474Y-62813777D01*
X87788362Y-62718876D01*
X87547228Y-62660985D01*
X87300000Y-62641528D01*
X87052771Y-62660985D01*
X86811637Y-62718876D01*
X86582525Y-62813777D01*
X86371083Y-62943350D01*
X86371078Y-62943353D01*
X86182508Y-63104408D01*
X86021453Y-63292978D01*
X86021450Y-63292983D01*
X85891877Y-63504425D01*
X85796976Y-63733537D01*
X85739085Y-63974671D01*
X85719628Y-64221900D01*
X85739085Y-64469128D01*
X85796976Y-64710262D01*
X85891877Y-64939374D01*
X86021448Y-65150813D01*
X86021449Y-65150816D01*
X86069708Y-65207319D01*
X86098279Y-65271081D01*
X86087842Y-65340166D01*
X86063099Y-65375532D01*
X84417050Y-67021580D01*
X84417044Y-67021588D01*
X84367812Y-67095268D01*
X84367813Y-67095269D01*
X84334921Y-67144496D01*
X84334914Y-67144508D01*
X84278342Y-67281086D01*
X84278340Y-67281092D01*
X84249500Y-67426079D01*
X84249500Y-68363426D01*
X84229815Y-68430465D01*
X84177011Y-68476220D01*
X84107853Y-68486164D01*
X84044970Y-68457717D01*
X84028632Y-68443763D01*
X84028630Y-68443762D01*
X83817241Y-68314223D01*
X83588209Y-68219355D01*
X83588197Y-68219351D01*
X83347149Y-68161481D01*
X83100000Y-68142030D01*
X82852850Y-68161481D01*
X82611802Y-68219351D01*
X82611790Y-68219355D01*
X82382761Y-68314222D01*
X82382755Y-68314225D01*
X82173876Y-68442224D01*
X82663075Y-68931422D01*
X82526283Y-69022824D01*
X82400924Y-69148183D01*
X82309522Y-69284974D01*
X81820324Y-68795776D01*
X81692325Y-69004655D01*
X81692322Y-69004661D01*
X81597455Y-69233690D01*
X81597451Y-69233702D01*
X81539581Y-69474750D01*
X81520130Y-69721900D01*
X81539581Y-69969049D01*
X81597451Y-70210097D01*
X81597455Y-70210109D01*
X81692322Y-70439138D01*
X81692325Y-70439144D01*
X81820324Y-70648022D01*
X82309522Y-70158824D01*
X82400924Y-70295617D01*
X82526283Y-70420976D01*
X82663073Y-70512376D01*
X82173876Y-71001574D01*
X82382753Y-71129574D01*
X82611790Y-71224444D01*
X82611802Y-71224448D01*
X82852850Y-71282318D01*
X83100000Y-71301769D01*
X83347149Y-71282318D01*
X83588197Y-71224448D01*
X83588209Y-71224444D01*
X83817241Y-71129576D01*
X84028628Y-71000038D01*
X84044967Y-70986084D01*
X84108728Y-70957513D01*
X84177814Y-70967948D01*
X84230290Y-71014078D01*
X84249500Y-71080373D01*
X84249500Y-71637769D01*
X84229815Y-71704808D01*
X84213181Y-71725450D01*
X70191937Y-85746693D01*
X70155876Y-85769362D01*
X70156756Y-85771188D01*
X70150478Y-85774211D01*
X69997737Y-85870184D01*
X69870184Y-85997737D01*
X69774211Y-86150476D01*
X69714631Y-86320745D01*
X69714630Y-86320750D01*
X69694435Y-86499996D01*
X47000500Y-86499996D01*
X47000500Y-75564635D01*
X50904500Y-75564635D01*
X50904500Y-78435370D01*
X50904501Y-78435376D01*
X50910908Y-78494983D01*
X50961202Y-78629828D01*
X50961206Y-78629835D01*
X51047452Y-78745044D01*
X51047455Y-78745047D01*
X51162664Y-78831293D01*
X51162671Y-78831297D01*
X51297517Y-78881591D01*
X51297516Y-78881591D01*
X51304444Y-78882335D01*
X51357127Y-78888000D01*
X54227872Y-78887999D01*
X54287483Y-78881591D01*
X54422331Y-78831296D01*
X54537546Y-78745046D01*
X54623796Y-78629831D01*
X54674091Y-78494983D01*
X54680500Y-78435373D01*
X54680499Y-76999998D01*
X55599677Y-76999998D01*
X55599677Y-77000001D01*
X55618943Y-77269382D01*
X55676348Y-77533263D01*
X55676350Y-77533270D01*
X55734948Y-77690377D01*
X55770728Y-77786308D01*
X55770730Y-77786312D01*
X55900152Y-78023331D01*
X55900157Y-78023339D01*
X56061993Y-78239527D01*
X56062009Y-78239545D01*
X56252954Y-78430490D01*
X56252972Y-78430506D01*
X56469160Y-78592342D01*
X56469168Y-78592347D01*
X56706187Y-78721769D01*
X56706191Y-78721771D01*
X56706193Y-78721772D01*
X56959230Y-78816150D01*
X57091176Y-78844853D01*
X57223117Y-78873556D01*
X57223119Y-78873556D01*
X57223123Y-78873557D01*
X57462507Y-78890677D01*
X57492499Y-78892823D01*
X57492500Y-78892823D01*
X57492501Y-78892823D01*
X57519487Y-78890892D01*
X57761877Y-78873557D01*
X58025770Y-78816150D01*
X58278807Y-78721772D01*
X58515837Y-78592344D01*
X58732035Y-78430500D01*
X58923000Y-78239535D01*
X59084844Y-78023337D01*
X59214272Y-77786307D01*
X59308650Y-77533270D01*
X59366057Y-77269377D01*
X59385323Y-77000000D01*
X59385323Y-76999998D01*
X60299677Y-76999998D01*
X60299677Y-77000001D01*
X60318943Y-77269382D01*
X60376348Y-77533263D01*
X60376350Y-77533270D01*
X60434948Y-77690377D01*
X60470728Y-77786308D01*
X60470730Y-77786312D01*
X60600152Y-78023331D01*
X60600157Y-78023339D01*
X60761993Y-78239527D01*
X60762009Y-78239545D01*
X60952954Y-78430490D01*
X60952972Y-78430506D01*
X61169160Y-78592342D01*
X61169168Y-78592347D01*
X61406187Y-78721769D01*
X61406191Y-78721771D01*
X61406193Y-78721772D01*
X61659230Y-78816150D01*
X61791176Y-78844853D01*
X61923117Y-78873556D01*
X61923119Y-78873556D01*
X61923123Y-78873557D01*
X62162507Y-78890677D01*
X62192499Y-78892823D01*
X62192500Y-78892823D01*
X62192501Y-78892823D01*
X62219487Y-78890892D01*
X62461877Y-78873557D01*
X62725770Y-78816150D01*
X62978807Y-78721772D01*
X63215837Y-78592344D01*
X63432035Y-78430500D01*
X63623000Y-78239535D01*
X63784844Y-78023337D01*
X63914272Y-77786307D01*
X64008650Y-77533270D01*
X64066057Y-77269377D01*
X64085323Y-77000000D01*
X64066057Y-76730623D01*
X64065005Y-76725789D01*
X64037353Y-76598676D01*
X64008650Y-76466730D01*
X63914272Y-76213693D01*
X63911359Y-76208359D01*
X63784847Y-75976668D01*
X63784842Y-75976660D01*
X63623006Y-75760472D01*
X63622990Y-75760454D01*
X63432045Y-75569509D01*
X63432027Y-75569493D01*
X63215839Y-75407657D01*
X63215831Y-75407652D01*
X62978812Y-75278230D01*
X62978808Y-75278228D01*
X62859557Y-75233750D01*
X62725770Y-75183850D01*
X62725766Y-75183849D01*
X62725763Y-75183848D01*
X62461882Y-75126443D01*
X62192501Y-75107177D01*
X62192499Y-75107177D01*
X61923117Y-75126443D01*
X61659236Y-75183848D01*
X61659231Y-75183849D01*
X61659230Y-75183850D01*
X61630851Y-75194435D01*
X61406191Y-75278228D01*
X61406187Y-75278230D01*
X61169168Y-75407652D01*
X61169160Y-75407657D01*
X60952972Y-75569493D01*
X60952954Y-75569509D01*
X60762009Y-75760454D01*
X60761993Y-75760472D01*
X60600157Y-75976660D01*
X60600152Y-75976668D01*
X60470730Y-76213687D01*
X60470728Y-76213691D01*
X60376348Y-76466736D01*
X60318943Y-76730617D01*
X60299677Y-76999998D01*
X59385323Y-76999998D01*
X59366057Y-76730623D01*
X59365005Y-76725789D01*
X59337353Y-76598676D01*
X59308650Y-76466730D01*
X59214272Y-76213693D01*
X59211359Y-76208359D01*
X59084847Y-75976668D01*
X59084842Y-75976660D01*
X58923006Y-75760472D01*
X58922990Y-75760454D01*
X58834632Y-75672096D01*
X58801147Y-75610773D01*
X58806131Y-75541081D01*
X58834630Y-75496737D01*
X59544549Y-74786819D01*
X59605872Y-74753334D01*
X59632230Y-74750500D01*
X66295820Y-74750500D01*
X66393362Y-74731096D01*
X66440813Y-74721658D01*
X66577395Y-74665084D01*
X66626629Y-74632186D01*
X66700316Y-74582952D01*
X70000199Y-71283067D01*
X70061520Y-71249584D01*
X70116825Y-71250176D01*
X70252775Y-71282815D01*
X70500000Y-71302272D01*
X70747225Y-71282815D01*
X70988362Y-71224923D01*
X71217474Y-71130022D01*
X71428919Y-71000448D01*
X71617492Y-70839392D01*
X71778548Y-70650819D01*
X71908122Y-70439374D01*
X72003023Y-70210262D01*
X72060915Y-69969125D01*
X72080372Y-69721900D01*
X73120130Y-69721900D01*
X73139581Y-69969049D01*
X73197451Y-70210097D01*
X73197455Y-70210109D01*
X73292322Y-70439138D01*
X73292325Y-70439144D01*
X73420324Y-70648022D01*
X73909522Y-70158824D01*
X74000924Y-70295617D01*
X74126283Y-70420976D01*
X74263074Y-70512377D01*
X73773876Y-71001574D01*
X73982753Y-71129574D01*
X74211790Y-71224444D01*
X74211802Y-71224448D01*
X74452850Y-71282318D01*
X74700000Y-71301769D01*
X74947149Y-71282318D01*
X75188197Y-71224448D01*
X75188209Y-71224444D01*
X75417246Y-71129574D01*
X75626122Y-71001574D01*
X75136924Y-70512377D01*
X75273717Y-70420976D01*
X75399076Y-70295617D01*
X75490477Y-70158824D01*
X75979674Y-70648022D01*
X76107674Y-70439146D01*
X76202544Y-70210109D01*
X76202548Y-70210097D01*
X76260418Y-69969049D01*
X76279869Y-69721900D01*
X77320130Y-69721900D01*
X77339581Y-69969049D01*
X77397451Y-70210097D01*
X77397455Y-70210109D01*
X77492322Y-70439138D01*
X77492325Y-70439144D01*
X77620324Y-70648022D01*
X78109522Y-70158824D01*
X78200924Y-70295617D01*
X78326283Y-70420976D01*
X78463074Y-70512377D01*
X77973876Y-71001574D01*
X78182753Y-71129574D01*
X78411790Y-71224444D01*
X78411802Y-71224448D01*
X78652850Y-71282318D01*
X78900000Y-71301769D01*
X79147149Y-71282318D01*
X79388197Y-71224448D01*
X79388209Y-71224444D01*
X79617246Y-71129574D01*
X79826122Y-71001574D01*
X79336924Y-70512377D01*
X79473717Y-70420976D01*
X79599076Y-70295617D01*
X79690477Y-70158825D01*
X80179674Y-70648022D01*
X80307674Y-70439146D01*
X80402544Y-70210109D01*
X80402548Y-70210097D01*
X80460418Y-69969049D01*
X80479869Y-69721900D01*
X80460418Y-69474750D01*
X80402548Y-69233702D01*
X80402544Y-69233690D01*
X80307674Y-69004653D01*
X80179674Y-68795776D01*
X79690476Y-69284974D01*
X79599076Y-69148183D01*
X79473717Y-69022824D01*
X79336924Y-68931422D01*
X79826122Y-68442224D01*
X79617244Y-68314225D01*
X79617238Y-68314222D01*
X79388209Y-68219355D01*
X79388197Y-68219351D01*
X79147149Y-68161481D01*
X78900000Y-68142030D01*
X78652850Y-68161481D01*
X78411802Y-68219351D01*
X78411790Y-68219355D01*
X78182761Y-68314222D01*
X78182755Y-68314225D01*
X77973876Y-68442224D01*
X78463075Y-68931422D01*
X78326283Y-69022824D01*
X78200924Y-69148183D01*
X78109522Y-69284974D01*
X77620324Y-68795776D01*
X77492325Y-69004655D01*
X77492322Y-69004661D01*
X77397455Y-69233690D01*
X77397451Y-69233702D01*
X77339581Y-69474750D01*
X77320130Y-69721900D01*
X76279869Y-69721900D01*
X76260418Y-69474750D01*
X76202548Y-69233702D01*
X76202544Y-69233690D01*
X76107674Y-69004653D01*
X75979674Y-68795776D01*
X75490476Y-69284974D01*
X75399076Y-69148183D01*
X75273717Y-69022824D01*
X75136924Y-68931422D01*
X75626122Y-68442224D01*
X75417244Y-68314225D01*
X75417238Y-68314222D01*
X75188209Y-68219355D01*
X75188197Y-68219351D01*
X74947149Y-68161481D01*
X74700000Y-68142030D01*
X74452850Y-68161481D01*
X74211802Y-68219351D01*
X74211790Y-68219355D01*
X73982761Y-68314222D01*
X73982755Y-68314225D01*
X73773876Y-68442224D01*
X74263075Y-68931422D01*
X74126283Y-69022824D01*
X74000924Y-69148183D01*
X73909522Y-69284974D01*
X73420324Y-68795776D01*
X73292325Y-69004655D01*
X73292322Y-69004661D01*
X73197455Y-69233690D01*
X73197451Y-69233702D01*
X73139581Y-69474750D01*
X73120130Y-69721900D01*
X72080372Y-69721900D01*
X72060915Y-69474675D01*
X72035388Y-69368347D01*
X72003023Y-69233537D01*
X71908122Y-69004425D01*
X71778549Y-68792983D01*
X71778546Y-68792978D01*
X71720583Y-68725113D01*
X71617492Y-68604408D01*
X71467403Y-68476220D01*
X71428921Y-68443353D01*
X71428916Y-68443350D01*
X71217474Y-68313777D01*
X70988362Y-68218876D01*
X70747228Y-68160985D01*
X70500000Y-68141528D01*
X70252771Y-68160985D01*
X70011637Y-68218876D01*
X69782525Y-68313777D01*
X69571083Y-68443350D01*
X69571078Y-68443353D01*
X69382508Y-68604408D01*
X69221453Y-68792978D01*
X69221450Y-68792983D01*
X69091877Y-69004425D01*
X68996976Y-69233537D01*
X68939085Y-69474671D01*
X68919628Y-69721900D01*
X68939084Y-69969121D01*
X68971723Y-70105072D01*
X68968232Y-70174854D01*
X68938830Y-70221700D01*
X65947351Y-73213181D01*
X65886028Y-73246666D01*
X65859670Y-73249500D01*
X59196080Y-73249500D01*
X59051092Y-73278340D01*
X59051086Y-73278342D01*
X58914508Y-73334914D01*
X58914496Y-73334921D01*
X58865269Y-73367813D01*
X58791588Y-73417044D01*
X58791580Y-73417050D01*
X57068751Y-75139879D01*
X57007430Y-75173364D01*
X56959233Y-75183849D01*
X56706191Y-75278228D01*
X56706187Y-75278230D01*
X56469168Y-75407652D01*
X56469160Y-75407657D01*
X56252972Y-75569493D01*
X56252954Y-75569509D01*
X56062009Y-75760454D01*
X56061993Y-75760472D01*
X55900157Y-75976660D01*
X55900152Y-75976668D01*
X55770730Y-76213687D01*
X55770728Y-76213691D01*
X55676348Y-76466736D01*
X55618943Y-76730617D01*
X55599677Y-76999998D01*
X54680499Y-76999998D01*
X54680499Y-75564628D01*
X54674091Y-75505017D01*
X54663531Y-75476705D01*
X54623797Y-75370171D01*
X54623793Y-75370164D01*
X54537547Y-75254955D01*
X54537544Y-75254952D01*
X54422335Y-75168706D01*
X54422328Y-75168702D01*
X54287482Y-75118408D01*
X54287483Y-75118408D01*
X54227883Y-75112001D01*
X54227881Y-75112000D01*
X54227873Y-75112000D01*
X54227864Y-75112000D01*
X51357129Y-75112000D01*
X51357123Y-75112001D01*
X51297516Y-75118408D01*
X51162671Y-75168702D01*
X51162664Y-75168706D01*
X51047455Y-75254952D01*
X51047452Y-75254955D01*
X50961206Y-75370164D01*
X50961202Y-75370171D01*
X50910908Y-75505017D01*
X50904501Y-75564616D01*
X50904501Y-75564623D01*
X50904500Y-75564635D01*
X47000500Y-75564635D01*
X47000500Y-69721900D01*
X56319628Y-69721900D01*
X56339085Y-69969128D01*
X56396976Y-70210262D01*
X56491877Y-70439374D01*
X56621450Y-70650816D01*
X56621453Y-70650821D01*
X56668790Y-70706245D01*
X56782508Y-70839392D01*
X56833800Y-70883199D01*
X56971078Y-71000446D01*
X56971080Y-71000447D01*
X56971081Y-71000448D01*
X56975283Y-71003023D01*
X57182525Y-71130022D01*
X57411637Y-71224923D01*
X57514358Y-71249584D01*
X57652775Y-71282815D01*
X57900000Y-71302272D01*
X58147225Y-71282815D01*
X58388362Y-71224923D01*
X58617474Y-71130022D01*
X58828919Y-71000448D01*
X59017492Y-70839392D01*
X59178548Y-70650819D01*
X59308122Y-70439374D01*
X59403023Y-70210262D01*
X59460915Y-69969125D01*
X59480372Y-69721900D01*
X60519628Y-69721900D01*
X60539085Y-69969128D01*
X60596976Y-70210262D01*
X60691877Y-70439374D01*
X60821450Y-70650816D01*
X60821453Y-70650821D01*
X60868790Y-70706245D01*
X60982508Y-70839392D01*
X61033800Y-70883199D01*
X61171078Y-71000446D01*
X61171080Y-71000447D01*
X61171081Y-71000448D01*
X61175283Y-71003023D01*
X61382525Y-71130022D01*
X61611637Y-71224923D01*
X61714358Y-71249584D01*
X61852775Y-71282815D01*
X62100000Y-71302272D01*
X62347225Y-71282815D01*
X62588362Y-71224923D01*
X62817474Y-71130022D01*
X63028919Y-71000448D01*
X63217492Y-70839392D01*
X63378548Y-70650819D01*
X63508122Y-70439374D01*
X63603023Y-70210262D01*
X63660915Y-69969125D01*
X63680372Y-69721900D01*
X64720130Y-69721900D01*
X64739581Y-69969049D01*
X64797451Y-70210097D01*
X64797455Y-70210109D01*
X64892322Y-70439138D01*
X64892325Y-70439144D01*
X65020324Y-70648022D01*
X65509522Y-70158824D01*
X65600924Y-70295617D01*
X65726283Y-70420976D01*
X65863074Y-70512377D01*
X65373876Y-71001574D01*
X65582753Y-71129574D01*
X65811790Y-71224444D01*
X65811802Y-71224448D01*
X66052850Y-71282318D01*
X66300000Y-71301769D01*
X66547149Y-71282318D01*
X66788197Y-71224448D01*
X66788209Y-71224444D01*
X67017246Y-71129574D01*
X67226122Y-71001574D01*
X66736924Y-70512377D01*
X66873717Y-70420976D01*
X66999076Y-70295617D01*
X67090477Y-70158824D01*
X67579674Y-70648022D01*
X67707674Y-70439146D01*
X67802544Y-70210109D01*
X67802548Y-70210097D01*
X67860418Y-69969049D01*
X67879869Y-69721900D01*
X67860418Y-69474750D01*
X67802548Y-69233702D01*
X67802544Y-69233690D01*
X67707674Y-69004653D01*
X67579674Y-68795776D01*
X67090476Y-69284974D01*
X66999076Y-69148183D01*
X66873717Y-69022824D01*
X66736924Y-68931422D01*
X67226122Y-68442224D01*
X67017244Y-68314225D01*
X67017238Y-68314222D01*
X66788209Y-68219355D01*
X66788197Y-68219351D01*
X66547149Y-68161481D01*
X66300000Y-68142030D01*
X66052850Y-68161481D01*
X65811802Y-68219351D01*
X65811790Y-68219355D01*
X65582761Y-68314222D01*
X65582755Y-68314225D01*
X65373876Y-68442224D01*
X65863075Y-68931422D01*
X65726283Y-69022824D01*
X65600924Y-69148183D01*
X65509522Y-69284974D01*
X65020324Y-68795776D01*
X64892325Y-69004655D01*
X64892322Y-69004661D01*
X64797455Y-69233690D01*
X64797451Y-69233702D01*
X64739581Y-69474750D01*
X64720130Y-69721900D01*
X63680372Y-69721900D01*
X63660915Y-69474675D01*
X63635388Y-69368347D01*
X63603023Y-69233537D01*
X63508122Y-69004425D01*
X63378549Y-68792983D01*
X63378546Y-68792978D01*
X63320583Y-68725113D01*
X63217492Y-68604408D01*
X63067403Y-68476220D01*
X63028921Y-68443353D01*
X63028916Y-68443350D01*
X62817474Y-68313777D01*
X62588362Y-68218876D01*
X62347228Y-68160985D01*
X62100000Y-68141528D01*
X61852771Y-68160985D01*
X61611637Y-68218876D01*
X61382525Y-68313777D01*
X61171083Y-68443350D01*
X61171078Y-68443353D01*
X60982508Y-68604408D01*
X60821453Y-68792978D01*
X60821450Y-68792983D01*
X60691877Y-69004425D01*
X60596976Y-69233537D01*
X60539085Y-69474671D01*
X60519628Y-69721900D01*
X59480372Y-69721900D01*
X59460915Y-69474675D01*
X59435388Y-69368347D01*
X59403023Y-69233537D01*
X59308122Y-69004425D01*
X59178549Y-68792983D01*
X59178546Y-68792978D01*
X59120583Y-68725113D01*
X59017492Y-68604408D01*
X58867403Y-68476220D01*
X58828921Y-68443353D01*
X58828916Y-68443350D01*
X58617474Y-68313777D01*
X58388362Y-68218876D01*
X58147228Y-68160985D01*
X57900000Y-68141528D01*
X57652771Y-68160985D01*
X57411637Y-68218876D01*
X57182525Y-68313777D01*
X56971083Y-68443350D01*
X56971078Y-68443353D01*
X56782508Y-68604408D01*
X56621453Y-68792978D01*
X56621450Y-68792983D01*
X56491877Y-69004425D01*
X56396976Y-69233537D01*
X56339085Y-69474671D01*
X56319628Y-69721900D01*
X47000500Y-69721900D01*
X47000500Y-63099035D01*
X56324500Y-63099035D01*
X56324500Y-65344770D01*
X56324501Y-65344776D01*
X56330908Y-65404383D01*
X56381202Y-65539228D01*
X56381206Y-65539235D01*
X56467452Y-65654444D01*
X56467455Y-65654447D01*
X56582664Y-65740693D01*
X56582671Y-65740697D01*
X56717517Y-65790991D01*
X56717516Y-65790991D01*
X56724444Y-65791735D01*
X56777127Y-65797400D01*
X59022872Y-65797399D01*
X59082483Y-65790991D01*
X59217331Y-65740696D01*
X59332546Y-65654446D01*
X59418796Y-65539231D01*
X59469091Y-65404383D01*
X59475500Y-65344773D01*
X59475499Y-64221900D01*
X60519628Y-64221900D01*
X60539085Y-64469128D01*
X60596976Y-64710262D01*
X60691877Y-64939374D01*
X60821450Y-65150816D01*
X60821453Y-65150821D01*
X60869707Y-65207319D01*
X60982508Y-65339392D01*
X61024823Y-65375532D01*
X61171078Y-65500446D01*
X61171080Y-65500447D01*
X61171081Y-65500448D01*
X61227979Y-65535315D01*
X61382525Y-65630022D01*
X61611637Y-65724923D01*
X61716824Y-65750176D01*
X61852775Y-65782815D01*
X62100000Y-65802272D01*
X62347225Y-65782815D01*
X62588362Y-65724923D01*
X62817474Y-65630022D01*
X63028919Y-65500448D01*
X63217492Y-65339392D01*
X63378548Y-65150819D01*
X63508122Y-64939374D01*
X63603023Y-64710262D01*
X63660915Y-64469125D01*
X63680372Y-64221900D01*
X64720130Y-64221900D01*
X64739581Y-64469049D01*
X64797451Y-64710097D01*
X64797455Y-64710109D01*
X64892322Y-64939138D01*
X64892325Y-64939144D01*
X65020324Y-65148022D01*
X65509522Y-64658824D01*
X65600924Y-64795617D01*
X65726283Y-64920976D01*
X65863074Y-65012377D01*
X65373876Y-65501574D01*
X65582753Y-65629574D01*
X65811790Y-65724444D01*
X65811802Y-65724448D01*
X66052850Y-65782318D01*
X66300000Y-65801769D01*
X66547149Y-65782318D01*
X66788197Y-65724448D01*
X66788209Y-65724444D01*
X67017246Y-65629574D01*
X67226122Y-65501574D01*
X66736924Y-65012377D01*
X66873717Y-64920976D01*
X66999076Y-64795617D01*
X67090477Y-64658825D01*
X67579674Y-65148022D01*
X67707674Y-64939146D01*
X67802544Y-64710109D01*
X67802548Y-64710097D01*
X67860418Y-64469049D01*
X67879869Y-64221900D01*
X68919628Y-64221900D01*
X68939085Y-64469128D01*
X68996976Y-64710262D01*
X69091877Y-64939374D01*
X69221450Y-65150816D01*
X69221453Y-65150821D01*
X69269707Y-65207319D01*
X69382508Y-65339392D01*
X69424823Y-65375532D01*
X69571078Y-65500446D01*
X69571080Y-65500447D01*
X69571081Y-65500448D01*
X69627979Y-65535315D01*
X69782525Y-65630022D01*
X70011637Y-65724923D01*
X70116824Y-65750176D01*
X70252775Y-65782815D01*
X70500000Y-65802272D01*
X70747225Y-65782815D01*
X70988362Y-65724923D01*
X71217474Y-65630022D01*
X71428919Y-65500448D01*
X71617492Y-65339392D01*
X71778548Y-65150819D01*
X71908122Y-64939374D01*
X72003023Y-64710262D01*
X72060915Y-64469125D01*
X72080372Y-64221900D01*
X73120130Y-64221900D01*
X73139581Y-64469049D01*
X73197451Y-64710097D01*
X73197455Y-64710109D01*
X73292322Y-64939138D01*
X73292325Y-64939144D01*
X73420324Y-65148022D01*
X73909522Y-64658824D01*
X74000924Y-64795617D01*
X74126283Y-64920976D01*
X74263074Y-65012377D01*
X73773876Y-65501574D01*
X73982753Y-65629574D01*
X74211790Y-65724444D01*
X74211802Y-65724448D01*
X74452850Y-65782318D01*
X74700000Y-65801769D01*
X74947149Y-65782318D01*
X75188197Y-65724448D01*
X75188209Y-65724444D01*
X75417246Y-65629574D01*
X75626122Y-65501574D01*
X75136924Y-65012377D01*
X75273717Y-64920976D01*
X75399076Y-64795617D01*
X75490477Y-64658825D01*
X75979674Y-65148022D01*
X76107674Y-64939146D01*
X76202544Y-64710109D01*
X76202548Y-64710097D01*
X76260418Y-64469049D01*
X76279869Y-64221900D01*
X77319628Y-64221900D01*
X77339085Y-64469128D01*
X77396976Y-64710262D01*
X77491877Y-64939374D01*
X77621450Y-65150816D01*
X77621453Y-65150821D01*
X77669707Y-65207319D01*
X77782508Y-65339392D01*
X77824823Y-65375532D01*
X77971078Y-65500446D01*
X77971080Y-65500447D01*
X77971081Y-65500448D01*
X78027979Y-65535315D01*
X78182525Y-65630022D01*
X78411637Y-65724923D01*
X78516824Y-65750176D01*
X78652775Y-65782815D01*
X78900000Y-65802272D01*
X79147225Y-65782815D01*
X79388362Y-65724923D01*
X79617474Y-65630022D01*
X79828919Y-65500448D01*
X80017492Y-65339392D01*
X80178548Y-65150819D01*
X80308122Y-64939374D01*
X80403023Y-64710262D01*
X80460915Y-64469125D01*
X80480372Y-64221900D01*
X81520130Y-64221900D01*
X81539581Y-64469049D01*
X81597451Y-64710097D01*
X81597455Y-64710109D01*
X81692322Y-64939138D01*
X81692325Y-64939144D01*
X81820324Y-65148022D01*
X82309522Y-64658824D01*
X82400924Y-64795617D01*
X82526283Y-64920976D01*
X82663074Y-65012377D01*
X82173876Y-65501574D01*
X82382753Y-65629574D01*
X82611790Y-65724444D01*
X82611802Y-65724448D01*
X82852850Y-65782318D01*
X83100000Y-65801769D01*
X83347149Y-65782318D01*
X83588197Y-65724448D01*
X83588209Y-65724444D01*
X83817246Y-65629574D01*
X84026122Y-65501574D01*
X83536924Y-65012377D01*
X83673717Y-64920976D01*
X83799076Y-64795617D01*
X83890477Y-64658825D01*
X84379674Y-65148022D01*
X84507674Y-64939146D01*
X84602544Y-64710109D01*
X84602548Y-64710097D01*
X84660418Y-64469049D01*
X84679869Y-64221900D01*
X84660418Y-63974750D01*
X84602548Y-63733702D01*
X84602544Y-63733690D01*
X84507674Y-63504653D01*
X84379674Y-63295776D01*
X83890476Y-63784974D01*
X83799076Y-63648183D01*
X83673717Y-63522824D01*
X83536924Y-63431422D01*
X84026122Y-62942224D01*
X83817244Y-62814225D01*
X83817238Y-62814222D01*
X83588209Y-62719355D01*
X83588197Y-62719351D01*
X83347149Y-62661481D01*
X83100000Y-62642030D01*
X82852850Y-62661481D01*
X82611802Y-62719351D01*
X82611790Y-62719355D01*
X82382761Y-62814222D01*
X82382755Y-62814225D01*
X82173876Y-62942224D01*
X82663075Y-63431422D01*
X82526283Y-63522824D01*
X82400924Y-63648183D01*
X82309522Y-63784974D01*
X81820324Y-63295776D01*
X81692325Y-63504655D01*
X81692322Y-63504661D01*
X81597455Y-63733690D01*
X81597451Y-63733702D01*
X81539581Y-63974750D01*
X81520130Y-64221900D01*
X80480372Y-64221900D01*
X80460915Y-63974675D01*
X80435388Y-63868347D01*
X80403023Y-63733537D01*
X80308122Y-63504425D01*
X80196270Y-63321900D01*
X80178548Y-63292981D01*
X80178547Y-63292980D01*
X80178546Y-63292978D01*
X80067218Y-63162630D01*
X80017492Y-63104408D01*
X79911114Y-63013553D01*
X79828921Y-62943353D01*
X79828916Y-62943350D01*
X79617474Y-62813777D01*
X79388362Y-62718876D01*
X79147228Y-62660985D01*
X78900000Y-62641528D01*
X78652771Y-62660985D01*
X78411637Y-62718876D01*
X78182525Y-62813777D01*
X77971083Y-62943350D01*
X77971078Y-62943353D01*
X77782508Y-63104408D01*
X77621453Y-63292978D01*
X77621450Y-63292983D01*
X77491877Y-63504425D01*
X77396976Y-63733537D01*
X77339085Y-63974671D01*
X77319628Y-64221900D01*
X76279869Y-64221900D01*
X76260418Y-63974750D01*
X76202548Y-63733702D01*
X76202544Y-63733690D01*
X76107674Y-63504653D01*
X75979674Y-63295776D01*
X75490476Y-63784974D01*
X75399076Y-63648183D01*
X75273717Y-63522824D01*
X75136924Y-63431422D01*
X75626122Y-62942224D01*
X75417244Y-62814225D01*
X75417238Y-62814222D01*
X75188209Y-62719355D01*
X75188197Y-62719351D01*
X74947149Y-62661481D01*
X74700000Y-62642030D01*
X74452850Y-62661481D01*
X74211802Y-62719351D01*
X74211790Y-62719355D01*
X73982761Y-62814222D01*
X73982755Y-62814225D01*
X73773876Y-62942224D01*
X74263075Y-63431422D01*
X74126283Y-63522824D01*
X74000924Y-63648183D01*
X73909522Y-63784974D01*
X73420324Y-63295776D01*
X73292325Y-63504655D01*
X73292322Y-63504661D01*
X73197455Y-63733690D01*
X73197451Y-63733702D01*
X73139581Y-63974750D01*
X73120130Y-64221900D01*
X72080372Y-64221900D01*
X72060915Y-63974675D01*
X72035388Y-63868347D01*
X72003023Y-63733537D01*
X71908122Y-63504425D01*
X71796270Y-63321900D01*
X71778548Y-63292981D01*
X71778547Y-63292980D01*
X71778546Y-63292978D01*
X71667218Y-63162630D01*
X71617492Y-63104408D01*
X71511114Y-63013553D01*
X71428921Y-62943353D01*
X71428916Y-62943350D01*
X71217474Y-62813777D01*
X70988362Y-62718876D01*
X70747228Y-62660985D01*
X70500000Y-62641528D01*
X70252771Y-62660985D01*
X70011637Y-62718876D01*
X69782525Y-62813777D01*
X69571083Y-62943350D01*
X69571078Y-62943353D01*
X69382508Y-63104408D01*
X69221453Y-63292978D01*
X69221450Y-63292983D01*
X69091877Y-63504425D01*
X68996976Y-63733537D01*
X68939085Y-63974671D01*
X68919628Y-64221900D01*
X67879869Y-64221900D01*
X67860418Y-63974750D01*
X67802548Y-63733702D01*
X67802544Y-63733690D01*
X67707674Y-63504653D01*
X67579674Y-63295776D01*
X67090476Y-63784974D01*
X66999076Y-63648183D01*
X66873717Y-63522824D01*
X66736924Y-63431422D01*
X67226122Y-62942224D01*
X67017244Y-62814225D01*
X67017238Y-62814222D01*
X66788209Y-62719355D01*
X66788197Y-62719351D01*
X66547149Y-62661481D01*
X66300000Y-62642030D01*
X66052850Y-62661481D01*
X65811802Y-62719351D01*
X65811790Y-62719355D01*
X65582761Y-62814222D01*
X65582755Y-62814225D01*
X65373876Y-62942224D01*
X65863075Y-63431422D01*
X65726283Y-63522824D01*
X65600924Y-63648183D01*
X65509522Y-63784974D01*
X65020324Y-63295776D01*
X64892325Y-63504655D01*
X64892322Y-63504661D01*
X64797455Y-63733690D01*
X64797451Y-63733702D01*
X64739581Y-63974750D01*
X64720130Y-64221900D01*
X63680372Y-64221900D01*
X63660915Y-63974675D01*
X63635388Y-63868347D01*
X63603023Y-63733537D01*
X63508122Y-63504425D01*
X63396270Y-63321900D01*
X63378548Y-63292981D01*
X63378547Y-63292980D01*
X63378546Y-63292978D01*
X63267218Y-63162630D01*
X63217492Y-63104408D01*
X63111114Y-63013553D01*
X63028921Y-62943353D01*
X63028916Y-62943350D01*
X62817474Y-62813777D01*
X62588362Y-62718876D01*
X62347228Y-62660985D01*
X62100000Y-62641528D01*
X61852771Y-62660985D01*
X61611637Y-62718876D01*
X61382525Y-62813777D01*
X61171083Y-62943350D01*
X61171078Y-62943353D01*
X60982508Y-63104408D01*
X60821453Y-63292978D01*
X60821450Y-63292983D01*
X60691877Y-63504425D01*
X60596976Y-63733537D01*
X60539085Y-63974671D01*
X60519628Y-64221900D01*
X59475499Y-64221900D01*
X59475499Y-63099028D01*
X59469091Y-63039417D01*
X59459444Y-63013553D01*
X59418797Y-62904571D01*
X59418793Y-62904564D01*
X59332547Y-62789355D01*
X59332544Y-62789352D01*
X59217335Y-62703106D01*
X59217328Y-62703102D01*
X59082482Y-62652808D01*
X59082483Y-62652808D01*
X59022883Y-62646401D01*
X59022881Y-62646400D01*
X59022873Y-62646400D01*
X59022864Y-62646400D01*
X56777129Y-62646400D01*
X56777123Y-62646401D01*
X56717516Y-62652808D01*
X56582671Y-62703102D01*
X56582664Y-62703106D01*
X56467455Y-62789352D01*
X56467452Y-62789355D01*
X56381206Y-62904564D01*
X56381202Y-62904571D01*
X56330908Y-63039417D01*
X56324501Y-63099016D01*
X56324501Y-63099023D01*
X56324500Y-63099035D01*
X47000500Y-63099035D01*
X47000500Y-56807158D01*
X56149500Y-56807158D01*
X56149500Y-57036641D01*
X56174446Y-57226115D01*
X56179452Y-57264138D01*
X56179453Y-57264140D01*
X56238842Y-57485787D01*
X56326650Y-57697776D01*
X56326657Y-57697790D01*
X56441392Y-57896517D01*
X56581081Y-58078561D01*
X56581089Y-58078570D01*
X56743330Y-58240811D01*
X56743338Y-58240818D01*
X56925382Y-58380507D01*
X56925385Y-58380508D01*
X56925388Y-58380511D01*
X57124112Y-58495244D01*
X57124117Y-58495246D01*
X57124123Y-58495249D01*
X57215480Y-58533090D01*
X57336113Y-58583058D01*
X57557762Y-58642448D01*
X57785266Y-58672400D01*
X57785273Y-58672400D01*
X58014727Y-58672400D01*
X58014734Y-58672400D01*
X58242238Y-58642448D01*
X58463887Y-58583058D01*
X58675888Y-58495244D01*
X58874612Y-58380511D01*
X59056661Y-58240819D01*
X59056665Y-58240814D01*
X59056670Y-58240811D01*
X59218911Y-58078570D01*
X59218914Y-58078565D01*
X59218919Y-58078561D01*
X59358611Y-57896512D01*
X59473344Y-57697788D01*
X59561158Y-57485787D01*
X59620548Y-57264138D01*
X59650500Y-57036634D01*
X59650500Y-56807166D01*
X59650499Y-56807158D01*
X102349500Y-56807158D01*
X102349500Y-57036641D01*
X102374446Y-57226115D01*
X102379452Y-57264138D01*
X102379453Y-57264140D01*
X102438842Y-57485787D01*
X102526650Y-57697776D01*
X102526657Y-57697790D01*
X102641392Y-57896517D01*
X102781081Y-58078561D01*
X102781089Y-58078570D01*
X102943330Y-58240811D01*
X102943338Y-58240818D01*
X103125382Y-58380507D01*
X103125385Y-58380508D01*
X103125388Y-58380511D01*
X103324112Y-58495244D01*
X103324117Y-58495246D01*
X103324123Y-58495249D01*
X103415480Y-58533090D01*
X103536113Y-58583058D01*
X103757762Y-58642448D01*
X103985266Y-58672400D01*
X103985273Y-58672400D01*
X104214727Y-58672400D01*
X104214734Y-58672400D01*
X104442238Y-58642448D01*
X104663887Y-58583058D01*
X104875888Y-58495244D01*
X105074612Y-58380511D01*
X105256661Y-58240819D01*
X105256665Y-58240814D01*
X105256670Y-58240811D01*
X105418911Y-58078570D01*
X105418914Y-58078565D01*
X105418919Y-58078561D01*
X105558611Y-57896512D01*
X105673344Y-57697788D01*
X105761158Y-57485787D01*
X105820548Y-57264138D01*
X105850500Y-57036634D01*
X105850500Y-56807166D01*
X105821285Y-56585258D01*
X123849500Y-56585258D01*
X123849500Y-56814741D01*
X123874446Y-57004215D01*
X123879452Y-57042238D01*
X123879453Y-57042240D01*
X123938842Y-57263887D01*
X124026650Y-57475876D01*
X124026657Y-57475890D01*
X124141392Y-57674617D01*
X124281081Y-57856661D01*
X124281089Y-57856670D01*
X124443330Y-58018911D01*
X124443338Y-58018918D01*
X124625382Y-58158607D01*
X124625385Y-58158608D01*
X124625388Y-58158611D01*
X124824112Y-58273344D01*
X124824117Y-58273346D01*
X124824123Y-58273349D01*
X124915480Y-58311190D01*
X125036113Y-58361158D01*
X125257762Y-58420548D01*
X125485266Y-58450500D01*
X125485273Y-58450500D01*
X125714727Y-58450500D01*
X125714734Y-58450500D01*
X125942238Y-58420548D01*
X126163887Y-58361158D01*
X126375888Y-58273344D01*
X126574612Y-58158611D01*
X126756661Y-58018919D01*
X126756665Y-58018914D01*
X126756670Y-58018911D01*
X126918911Y-57856670D01*
X126918914Y-57856665D01*
X126918919Y-57856661D01*
X127058611Y-57674612D01*
X127173344Y-57475888D01*
X127261158Y-57263887D01*
X127320548Y-57042238D01*
X127350500Y-56814734D01*
X127350500Y-56585266D01*
X127350499Y-56585258D01*
X136449500Y-56585258D01*
X136449500Y-56814741D01*
X136474446Y-57004215D01*
X136479452Y-57042238D01*
X136479453Y-57042240D01*
X136538842Y-57263887D01*
X136626650Y-57475876D01*
X136626657Y-57475890D01*
X136741392Y-57674617D01*
X136881081Y-57856661D01*
X136881089Y-57856670D01*
X137043330Y-58018911D01*
X137043338Y-58018918D01*
X137225382Y-58158607D01*
X137225385Y-58158608D01*
X137225388Y-58158611D01*
X137424112Y-58273344D01*
X137424117Y-58273346D01*
X137424123Y-58273349D01*
X137515480Y-58311190D01*
X137636113Y-58361158D01*
X137857762Y-58420548D01*
X138085266Y-58450500D01*
X138085273Y-58450500D01*
X138314727Y-58450500D01*
X138314734Y-58450500D01*
X138542238Y-58420548D01*
X138763887Y-58361158D01*
X138975888Y-58273344D01*
X139174612Y-58158611D01*
X139356661Y-58018919D01*
X139356665Y-58018914D01*
X139356670Y-58018911D01*
X139518911Y-57856670D01*
X139518914Y-57856665D01*
X139518919Y-57856661D01*
X139658611Y-57674612D01*
X139773344Y-57475888D01*
X139861158Y-57263887D01*
X139920548Y-57042238D01*
X139950500Y-56814734D01*
X139950500Y-56585266D01*
X139920548Y-56357762D01*
X139861158Y-56136113D01*
X139782944Y-55947288D01*
X139773349Y-55924123D01*
X139773346Y-55924117D01*
X139773344Y-55924112D01*
X139658611Y-55725388D01*
X139658608Y-55725385D01*
X139658607Y-55725382D01*
X139518918Y-55543338D01*
X139518911Y-55543330D01*
X139356670Y-55381089D01*
X139356661Y-55381081D01*
X139174617Y-55241392D01*
X138975890Y-55126657D01*
X138975876Y-55126650D01*
X138763887Y-55038842D01*
X138542238Y-54979452D01*
X138504215Y-54974446D01*
X138314741Y-54949500D01*
X138314734Y-54949500D01*
X138085266Y-54949500D01*
X138085258Y-54949500D01*
X137868715Y-54978009D01*
X137857762Y-54979452D01*
X137764076Y-55004554D01*
X137636112Y-55038842D01*
X137424123Y-55126650D01*
X137424109Y-55126657D01*
X137225382Y-55241392D01*
X137043338Y-55381081D01*
X136881081Y-55543338D01*
X136741392Y-55725382D01*
X136626657Y-55924109D01*
X136626650Y-55924123D01*
X136538842Y-56136112D01*
X136479453Y-56357759D01*
X136479451Y-56357770D01*
X136449500Y-56585258D01*
X127350499Y-56585258D01*
X127320548Y-56357762D01*
X127261158Y-56136113D01*
X127182944Y-55947288D01*
X127173349Y-55924123D01*
X127173346Y-55924117D01*
X127173344Y-55924112D01*
X127058611Y-55725388D01*
X127058608Y-55725385D01*
X127058607Y-55725382D01*
X126918918Y-55543338D01*
X126918911Y-55543330D01*
X126756670Y-55381089D01*
X126756661Y-55381081D01*
X126574617Y-55241392D01*
X126375890Y-55126657D01*
X126375876Y-55126650D01*
X126163887Y-55038842D01*
X125942238Y-54979452D01*
X125904215Y-54974446D01*
X125714741Y-54949500D01*
X125714734Y-54949500D01*
X125485266Y-54949500D01*
X125485258Y-54949500D01*
X125268715Y-54978009D01*
X125257762Y-54979452D01*
X125164076Y-55004554D01*
X125036112Y-55038842D01*
X124824123Y-55126650D01*
X124824109Y-55126657D01*
X124625382Y-55241392D01*
X124443338Y-55381081D01*
X124281081Y-55543338D01*
X124141392Y-55725382D01*
X124026657Y-55924109D01*
X124026650Y-55924123D01*
X123938842Y-56136112D01*
X123879453Y-56357759D01*
X123879451Y-56357770D01*
X123849500Y-56585258D01*
X105821285Y-56585258D01*
X105820548Y-56579662D01*
X105761158Y-56358013D01*
X105673344Y-56146012D01*
X105558611Y-55947288D01*
X105558608Y-55947285D01*
X105558607Y-55947282D01*
X105418918Y-55765238D01*
X105418911Y-55765230D01*
X105256670Y-55602989D01*
X105256661Y-55602981D01*
X105074617Y-55463292D01*
X104875890Y-55348557D01*
X104875876Y-55348550D01*
X104663887Y-55260742D01*
X104442238Y-55201352D01*
X104404215Y-55196346D01*
X104214741Y-55171400D01*
X104214734Y-55171400D01*
X103985266Y-55171400D01*
X103985258Y-55171400D01*
X103768715Y-55199909D01*
X103757762Y-55201352D01*
X103664076Y-55226454D01*
X103536112Y-55260742D01*
X103324123Y-55348550D01*
X103324109Y-55348557D01*
X103125382Y-55463292D01*
X102943338Y-55602981D01*
X102781081Y-55765238D01*
X102641392Y-55947282D01*
X102526657Y-56146009D01*
X102526650Y-56146023D01*
X102438842Y-56358012D01*
X102379453Y-56579659D01*
X102379451Y-56579670D01*
X102349500Y-56807158D01*
X59650499Y-56807158D01*
X59620548Y-56579662D01*
X59561158Y-56358013D01*
X59473344Y-56146012D01*
X59358611Y-55947288D01*
X59358608Y-55947285D01*
X59358607Y-55947282D01*
X59218918Y-55765238D01*
X59218911Y-55765230D01*
X59056670Y-55602989D01*
X59056661Y-55602981D01*
X58874617Y-55463292D01*
X58675890Y-55348557D01*
X58675876Y-55348550D01*
X58463887Y-55260742D01*
X58242238Y-55201352D01*
X58204215Y-55196346D01*
X58014741Y-55171400D01*
X58014734Y-55171400D01*
X57785266Y-55171400D01*
X57785258Y-55171400D01*
X57568715Y-55199909D01*
X57557762Y-55201352D01*
X57464076Y-55226454D01*
X57336112Y-55260742D01*
X57124123Y-55348550D01*
X57124109Y-55348557D01*
X56925382Y-55463292D01*
X56743338Y-55602981D01*
X56581081Y-55765238D01*
X56441392Y-55947282D01*
X56326657Y-56146009D01*
X56326650Y-56146023D01*
X56238842Y-56358012D01*
X56179453Y-56579659D01*
X56179451Y-56579670D01*
X56149500Y-56807158D01*
X47000500Y-56807158D01*
X47000500Y-52352486D01*
X152169500Y-52352486D01*
X152169500Y-52647513D01*
X152201571Y-52891113D01*
X152208007Y-52939993D01*
X152208008Y-52939995D01*
X152284361Y-53224951D01*
X152284364Y-53224961D01*
X152397254Y-53497500D01*
X152397258Y-53497510D01*
X152544761Y-53752993D01*
X152724352Y-53987040D01*
X152724358Y-53987047D01*
X152932952Y-54195641D01*
X152932959Y-54195647D01*
X153167006Y-54375238D01*
X153422489Y-54522741D01*
X153422490Y-54522741D01*
X153422493Y-54522743D01*
X153695048Y-54635639D01*
X153980007Y-54711993D01*
X154272494Y-54750500D01*
X154272501Y-54750500D01*
X154567499Y-54750500D01*
X154567506Y-54750500D01*
X154859993Y-54711993D01*
X155144952Y-54635639D01*
X155417507Y-54522743D01*
X155672994Y-54375238D01*
X155907042Y-54195646D01*
X156115646Y-53987042D01*
X156295238Y-53752994D01*
X156442743Y-53497507D01*
X156555639Y-53224952D01*
X156631993Y-52939993D01*
X156670500Y-52647506D01*
X156670500Y-52352494D01*
X156670499Y-52352486D01*
X162329500Y-52352486D01*
X162329500Y-52647513D01*
X162361571Y-52891113D01*
X162368007Y-52939993D01*
X162368008Y-52939995D01*
X162444361Y-53224951D01*
X162444364Y-53224961D01*
X162557254Y-53497500D01*
X162557258Y-53497510D01*
X162704761Y-53752993D01*
X162884352Y-53987040D01*
X162884358Y-53987047D01*
X163092952Y-54195641D01*
X163092959Y-54195647D01*
X163327006Y-54375238D01*
X163582489Y-54522741D01*
X163582490Y-54522741D01*
X163582493Y-54522743D01*
X163855048Y-54635639D01*
X164140007Y-54711993D01*
X164432494Y-54750500D01*
X164432501Y-54750500D01*
X164727499Y-54750500D01*
X164727506Y-54750500D01*
X165019993Y-54711993D01*
X165304952Y-54635639D01*
X165577507Y-54522743D01*
X165832994Y-54375238D01*
X166067042Y-54195646D01*
X166275646Y-53987042D01*
X166455238Y-53752994D01*
X166602743Y-53497507D01*
X166715639Y-53224952D01*
X166791993Y-52939993D01*
X166830500Y-52647506D01*
X166830500Y-52352494D01*
X166791993Y-52060007D01*
X166715639Y-51775048D01*
X166602743Y-51502493D01*
X166455238Y-51247006D01*
X166275646Y-51012958D01*
X166275641Y-51012952D01*
X166067047Y-50804358D01*
X166067040Y-50804352D01*
X165832993Y-50624761D01*
X165577510Y-50477258D01*
X165577500Y-50477254D01*
X165304961Y-50364364D01*
X165304954Y-50364362D01*
X165304952Y-50364361D01*
X165019993Y-50288007D01*
X164971113Y-50281571D01*
X164727513Y-50249500D01*
X164727506Y-50249500D01*
X164432494Y-50249500D01*
X164432486Y-50249500D01*
X164154085Y-50286153D01*
X164140007Y-50288007D01*
X163855048Y-50364361D01*
X163855038Y-50364364D01*
X163582499Y-50477254D01*
X163582489Y-50477258D01*
X163327006Y-50624761D01*
X163092959Y-50804352D01*
X163092952Y-50804358D01*
X162884358Y-51012952D01*
X162884352Y-51012959D01*
X162704761Y-51247006D01*
X162557258Y-51502489D01*
X162557254Y-51502499D01*
X162444364Y-51775038D01*
X162444361Y-51775048D01*
X162368008Y-52060004D01*
X162368006Y-52060015D01*
X162329500Y-52352486D01*
X156670499Y-52352486D01*
X156631993Y-52060007D01*
X156555639Y-51775048D01*
X156442743Y-51502493D01*
X156295238Y-51247006D01*
X156115646Y-51012958D01*
X156115641Y-51012952D01*
X155907047Y-50804358D01*
X155907040Y-50804352D01*
X155672993Y-50624761D01*
X155417510Y-50477258D01*
X155417500Y-50477254D01*
X155144961Y-50364364D01*
X155144954Y-50364362D01*
X155144952Y-50364361D01*
X154859993Y-50288007D01*
X154811113Y-50281571D01*
X154567513Y-50249500D01*
X154567506Y-50249500D01*
X154272494Y-50249500D01*
X154272486Y-50249500D01*
X153994085Y-50286153D01*
X153980007Y-50288007D01*
X153695048Y-50364361D01*
X153695038Y-50364364D01*
X153422499Y-50477254D01*
X153422489Y-50477258D01*
X153167006Y-50624761D01*
X152932959Y-50804352D01*
X152932952Y-50804358D01*
X152724358Y-51012952D01*
X152724352Y-51012959D01*
X152544761Y-51247006D01*
X152397258Y-51502489D01*
X152397254Y-51502499D01*
X152284364Y-51775038D01*
X152284361Y-51775048D01*
X152208008Y-52060004D01*
X152208006Y-52060015D01*
X152169500Y-52352486D01*
X47000500Y-52352486D01*
X47000500Y-50124500D01*
X47020185Y-50057461D01*
X47072989Y-50011706D01*
X47124500Y-50000500D01*
X178875500Y-50000500D01*
X178942539Y-50020185D01*
G37*
%TD.AperFunction*%
%TD*%
M02*
