%TF.GenerationSoftware,KiCad,Pcbnew,8.0.4*%
%TF.CreationDate,2024-07-30T17:49:45-04:00*%
%TF.ProjectId,360_atx_power_board,3336305f-6174-4785-9f70-6f7765725f62,rev?*%
%TF.SameCoordinates,Original*%
%TF.FileFunction,Copper,L1,Top*%
%TF.FilePolarity,Positive*%
%FSLAX46Y46*%
G04 Gerber Fmt 4.6, Leading zero omitted, Abs format (unit mm)*
G04 Created by KiCad (PCBNEW 8.0.4) date 2024-07-30 17:49:45*
%MOMM*%
%LPD*%
G01*
G04 APERTURE LIST*
G04 Aperture macros list*
%AMRoundRect*
0 Rectangle with rounded corners*
0 $1 Rounding radius*
0 $2 $3 $4 $5 $6 $7 $8 $9 X,Y pos of 4 corners*
0 Add a 4 corners polygon primitive as box body*
4,1,4,$2,$3,$4,$5,$6,$7,$8,$9,$2,$3,0*
0 Add four circle primitives for the rounded corners*
1,1,$1+$1,$2,$3*
1,1,$1+$1,$4,$5*
1,1,$1+$1,$6,$7*
1,1,$1+$1,$8,$9*
0 Add four rect primitives between the rounded corners*
20,1,$1+$1,$2,$3,$4,$5,0*
20,1,$1+$1,$4,$5,$6,$7,0*
20,1,$1+$1,$6,$7,$8,$9,0*
20,1,$1+$1,$8,$9,$2,$3,0*%
G04 Aperture macros list end*
%TA.AperFunction,SMDPad,CuDef*%
%ADD10RoundRect,0.250000X-0.400000X-0.625000X0.400000X-0.625000X0.400000X0.625000X-0.400000X0.625000X0*%
%TD*%
%TA.AperFunction,ComponentPad*%
%ADD11R,2.300000X2.300000*%
%TD*%
%TA.AperFunction,ComponentPad*%
%ADD12C,2.300000*%
%TD*%
%TA.AperFunction,SMDPad,CuDef*%
%ADD13RoundRect,0.250001X-0.462499X-0.624999X0.462499X-0.624999X0.462499X0.624999X-0.462499X0.624999X0*%
%TD*%
%TA.AperFunction,ComponentPad*%
%ADD14C,2.400000*%
%TD*%
%TA.AperFunction,ComponentPad*%
%ADD15R,2.600000X2.600000*%
%TD*%
%TA.AperFunction,ComponentPad*%
%ADD16C,2.600000*%
%TD*%
%TA.AperFunction,ComponentPad*%
%ADD17C,5.500000*%
%TD*%
%TA.AperFunction,ComponentPad*%
%ADD18R,2.775000X2.775000*%
%TD*%
%TA.AperFunction,ComponentPad*%
%ADD19C,2.775000*%
%TD*%
%TA.AperFunction,ComponentPad*%
%ADD20R,2.150000X2.150000*%
%TD*%
%TA.AperFunction,ComponentPad*%
%ADD21C,2.150000*%
%TD*%
%TA.AperFunction,SMDPad,CuDef*%
%ADD22RoundRect,0.200000X0.200000X-0.750000X0.200000X0.750000X-0.200000X0.750000X-0.200000X-0.750000X0*%
%TD*%
%TA.AperFunction,ComponentPad*%
%ADD23R,2.000000X2.000000*%
%TD*%
%TA.AperFunction,ComponentPad*%
%ADD24O,2.000000X2.000000*%
%TD*%
%TA.AperFunction,ViaPad*%
%ADD25C,0.600000*%
%TD*%
%TA.AperFunction,Conductor*%
%ADD26C,0.500000*%
%TD*%
%TA.AperFunction,Conductor*%
%ADD27C,1.250000*%
%TD*%
%TA.AperFunction,Conductor*%
%ADD28C,0.200000*%
%TD*%
G04 APERTURE END LIST*
D10*
%TO.P,R3,1*%
%TO.N,Net-(D3-A)*%
X72450000Y-88500000D03*
%TO.P,R3,2*%
%TO.N,/+12V*%
X75550000Y-88500000D03*
%TD*%
D11*
%TO.P,J5,1,1*%
%TO.N,/+12V*%
X165165100Y-76984250D03*
D12*
%TO.P,J5,2,2*%
X165165100Y-81184250D03*
%TO.P,J5,3,3*%
X165165100Y-85384250D03*
%TO.P,J5,4,4*%
%TO.N,GND*%
X165165100Y-89584250D03*
%TO.P,J5,5,5*%
X160965100Y-76984250D03*
%TO.P,J5,6,6*%
X160965100Y-81184250D03*
%TO.P,J5,7,7*%
X160965100Y-85384250D03*
%TO.P,J5,8,8*%
X160965100Y-89584250D03*
%TD*%
D13*
%TO.P,D1,1,K*%
%TO.N,GND*%
X59512500Y-95500000D03*
%TO.P,D1,2,A*%
%TO.N,Net-(D1-A)*%
X62487500Y-95500000D03*
%TD*%
%TO.P,D6,1,K*%
%TO.N,Net-(D6-K)*%
X92062500Y-95500000D03*
%TO.P,D6,2,A*%
%TO.N,GND*%
X95037500Y-95500000D03*
%TD*%
D10*
%TO.P,R8,1*%
%TO.N,Net-(D6-K)*%
X91950000Y-88500000D03*
%TO.P,R8,2*%
%TO.N,/-12V*%
X95050000Y-88500000D03*
%TD*%
D13*
%TO.P,D5,1,K*%
%TO.N,GND*%
X85507500Y-95500000D03*
%TO.P,D5,2,A*%
%TO.N,Net-(D5-A)*%
X88482500Y-95500000D03*
%TD*%
%TO.P,D2,1,K*%
%TO.N,GND*%
X66012500Y-95500000D03*
%TO.P,D2,2,A*%
%TO.N,Net-(D2-A)*%
X68987500Y-95500000D03*
%TD*%
D14*
%TO.P,J3,1,1*%
%TO.N,/+12V*%
X167120000Y-62660000D03*
%TO.P,J3,2,2*%
%TO.N,GND*%
X162040000Y-62660000D03*
%TO.P,J3,3,3*%
X156960000Y-62660000D03*
%TO.P,J3,4,4*%
%TO.N,/+5V*%
X151880000Y-62660000D03*
%TD*%
D13*
%TO.P,D4,1,K*%
%TO.N,GND*%
X79012500Y-95500000D03*
%TO.P,D4,2,A*%
%TO.N,Net-(D4-A)*%
X81987500Y-95500000D03*
%TD*%
D15*
%TO.P,J2,1,Pin_1*%
%TO.N,Net-(J2-Pin_1)*%
X71760000Y-110000000D03*
D16*
%TO.P,J2,2,Pin_2*%
%TO.N,/+12V*%
X76840000Y-110000000D03*
%TO.P,J2,3,Pin_3*%
%TO.N,/+5VSB*%
X81920000Y-110000000D03*
%TO.P,J2,4,Pin_4*%
%TO.N,GND*%
X87000000Y-110000000D03*
%TO.P,J2,5,Pin_5*%
X92080000Y-110000000D03*
%TD*%
D17*
%TO.P,H1,1,1*%
%TO.N,GND*%
X50000000Y-53000000D03*
%TD*%
%TO.P,H2,1,1*%
%TO.N,GND*%
X113000000Y-53000000D03*
%TD*%
D18*
%TO.P,SW1,1,1*%
%TO.N,Net-(Q1-C)*%
X52792500Y-77000000D03*
D19*
%TO.P,SW1,2,2*%
%TO.N,/PS_ON#*%
X57492500Y-77000000D03*
%TO.P,SW1,3,3*%
%TO.N,unconnected-(SW1-Pad3)*%
X62192500Y-77000000D03*
%TD*%
D10*
%TO.P,R4,1*%
%TO.N,/+5VSB*%
X78950000Y-88500000D03*
%TO.P,R4,2*%
%TO.N,Net-(D4-A)*%
X82050000Y-88500000D03*
%TD*%
D18*
%TO.P,SW2,1,1*%
%TO.N,Net-(R7-Pad2)*%
X151707500Y-89500000D03*
D19*
%TO.P,SW2,2,2*%
%TO.N,/+5V*%
X147007500Y-89500000D03*
%TO.P,SW2,3,3*%
%TO.N,unconnected-(SW2-Pad3)*%
X142307500Y-89500000D03*
%TD*%
D10*
%TO.P,R5,1*%
%TO.N,/+5V*%
X85400000Y-88500000D03*
%TO.P,R5,2*%
%TO.N,Net-(D5-A)*%
X88500000Y-88500000D03*
%TD*%
D17*
%TO.P,H5,1,1*%
%TO.N,GND*%
X176000000Y-52950000D03*
%TD*%
%TO.P,H4,1,1*%
%TO.N,GND*%
X113000000Y-115000000D03*
%TD*%
D20*
%TO.P,J1,1,+3.3V*%
%TO.N,/+3.3V*%
X57900000Y-64221900D03*
D21*
%TO.P,J1,2,+3.3V*%
X62100000Y-64221900D03*
%TO.P,J1,3,GND*%
%TO.N,GND*%
X66300000Y-64221900D03*
%TO.P,J1,4,+5V*%
%TO.N,/+5V*%
X70500000Y-64221900D03*
%TO.P,J1,5,GND*%
%TO.N,GND*%
X74700000Y-64221900D03*
%TO.P,J1,6,+5V*%
%TO.N,/+5V*%
X78900000Y-64221900D03*
%TO.P,J1,7,GND*%
%TO.N,GND*%
X83100000Y-64221900D03*
%TO.P,J1,8,PWR_OK*%
%TO.N,/PWR_OK*%
X87300000Y-64221900D03*
%TO.P,J1,9,+5VSB*%
%TO.N,/+5VSB*%
X91500000Y-64221900D03*
%TO.P,J1,10,+12V*%
%TO.N,/+12V*%
X95700000Y-64221900D03*
%TO.P,J1,11,+12V*%
X99900000Y-64221900D03*
%TO.P,J1,12,+3.3V*%
%TO.N,/+3.3V*%
X104100000Y-64221900D03*
%TO.P,J1,13,+3.3V*%
X57900000Y-69721900D03*
%TO.P,J1,14,-12V*%
%TO.N,/-12V*%
X62100000Y-69721900D03*
%TO.P,J1,15,GND*%
%TO.N,GND*%
X66300000Y-69721900D03*
%TO.P,J1,16,PS_ON#*%
%TO.N,/PS_ON#*%
X70500000Y-69721900D03*
%TO.P,J1,17,GND*%
%TO.N,GND*%
X74700000Y-69721900D03*
%TO.P,J1,18,GND*%
X78900000Y-69721900D03*
%TO.P,J1,19,GND*%
X83100000Y-69721900D03*
%TO.P,J1,20,NC*%
%TO.N,unconnected-(J1-NC-Pad20)*%
X87300000Y-69721900D03*
%TO.P,J1,21,+5V*%
%TO.N,/+5V*%
X91500000Y-69721900D03*
%TO.P,J1,22,+5V*%
X95700000Y-69721900D03*
%TO.P,J1,23,+5V*%
X99900000Y-69721900D03*
%TO.P,J1,24,GND*%
%TO.N,GND*%
X104100000Y-69721900D03*
%TD*%
D17*
%TO.P,H3,1,1*%
%TO.N,GND*%
X50000000Y-115000000D03*
%TD*%
D22*
%TO.P,Q1,1,B*%
%TO.N,Net-(Q1-B)*%
X53550000Y-91437500D03*
%TO.P,Q1,2,E*%
%TO.N,GND*%
X55450000Y-91437500D03*
%TO.P,Q1,3,C*%
%TO.N,Net-(Q1-C)*%
X54500000Y-88437500D03*
%TD*%
D10*
%TO.P,R2,1*%
%TO.N,Net-(D2-A)*%
X65950000Y-88500000D03*
%TO.P,R2,2*%
%TO.N,/PWR_OK*%
X69050000Y-88500000D03*
%TD*%
D23*
%TO.P,R7,1*%
%TO.N,GND*%
X143460000Y-114730000D03*
D24*
%TO.P,R7,2*%
%TO.N,Net-(R7-Pad2)*%
X148540000Y-114730000D03*
%TD*%
D10*
%TO.P,R1,1*%
%TO.N,/+3.3V*%
X59450000Y-88500000D03*
%TO.P,R1,2*%
%TO.N,Net-(D1-A)*%
X62550000Y-88500000D03*
%TD*%
D20*
%TO.P,J4,1,1*%
%TO.N,GND*%
X125600000Y-64000000D03*
D21*
%TO.P,J4,2,2*%
X129800000Y-64000000D03*
%TO.P,J4,3,3*%
X134000000Y-64000000D03*
%TO.P,J4,4,4*%
X138200000Y-64000000D03*
%TO.P,J4,5,5*%
%TO.N,/+12V*%
X125600000Y-69500000D03*
%TO.P,J4,6,6*%
X129800000Y-69500000D03*
%TO.P,J4,7,7*%
X134000000Y-69500000D03*
%TO.P,J4,8,8*%
X138200000Y-69500000D03*
%TD*%
D17*
%TO.P,H6,1,1*%
%TO.N,GND*%
X176000000Y-115000000D03*
%TD*%
D10*
%TO.P,R6,1*%
%TO.N,Net-(Q1-B)*%
X53450000Y-95500000D03*
%TO.P,R6,2*%
%TO.N,Net-(J2-Pin_1)*%
X56550000Y-95500000D03*
%TD*%
D13*
%TO.P,D3,1,K*%
%TO.N,GND*%
X72562500Y-95500000D03*
%TO.P,D3,2,A*%
%TO.N,Net-(D3-A)*%
X75537500Y-95500000D03*
%TD*%
D25*
%TO.N,/+5VSB*%
X79000000Y-87000000D03*
%TO.N,/PWR_OK*%
X70500000Y-86500000D03*
%TO.N,GND*%
X85000000Y-93500000D03*
X65500000Y-93500000D03*
X72000000Y-93500000D03*
X78500000Y-93500000D03*
X95050000Y-93500000D03*
X57000000Y-93000000D03*
X59000000Y-93500000D03*
%TO.N,/-12V*%
X94500000Y-76000000D03*
X95050000Y-86000000D03*
%TD*%
D26*
%TO.N,Net-(Q1-B)*%
X53500000Y-95450000D02*
X53500000Y-90925000D01*
%TO.N,/+5VSB*%
X79000000Y-87000000D02*
X79000000Y-88000000D01*
D27*
%TO.N,/+5V*%
X99900000Y-69721900D02*
X95700000Y-69721900D01*
D26*
X85500000Y-87500000D02*
X94000000Y-79000000D01*
X94000000Y-79000000D02*
X105500000Y-79000000D01*
D27*
X141000000Y-83000000D02*
X152000000Y-72000000D01*
X99900000Y-73278100D02*
X99900000Y-69721900D01*
X81678100Y-67000000D02*
X78900000Y-64221900D01*
X72778100Y-66500000D02*
X70500000Y-64221900D01*
X140474600Y-83000000D02*
X146974600Y-89500000D01*
X95700000Y-69721900D02*
X91500000Y-69721900D01*
X109621900Y-83000000D02*
X141000000Y-83000000D01*
X76621900Y-66500000D02*
X72778100Y-66500000D01*
X91500000Y-69721900D02*
X88778100Y-67000000D01*
D26*
X85500000Y-88500000D02*
X85500000Y-87500000D01*
D27*
X88778100Y-67000000D02*
X81678100Y-67000000D01*
X109621900Y-83000000D02*
X99900000Y-73278100D01*
X78900000Y-64221900D02*
X76621900Y-66500000D01*
D26*
X105500000Y-79000000D02*
X105560950Y-78939050D01*
D27*
X152000000Y-62780000D02*
X152000000Y-72000000D01*
D26*
%TO.N,Net-(D1-A)*%
X62487500Y-95500000D02*
X62487500Y-88562500D01*
%TO.N,Net-(J2-Pin_1)*%
X56550000Y-97050000D02*
X56550000Y-95500000D01*
X71760000Y-110000000D02*
X69500000Y-110000000D01*
X69500000Y-110000000D02*
X56550000Y-97050000D01*
%TO.N,/+3.3V*%
X57900000Y-64221900D02*
X57900000Y-69721900D01*
X101378100Y-61500000D02*
X64821900Y-61500000D01*
X60000000Y-87950000D02*
X60000000Y-71821900D01*
X62100000Y-64221900D02*
X57900000Y-64221900D01*
X104100000Y-64221900D02*
X101378100Y-61500000D01*
X64821900Y-61500000D02*
X62100000Y-64221900D01*
X60000000Y-71821900D02*
X57900000Y-69721900D01*
X59450000Y-88500000D02*
X60000000Y-87950000D01*
%TO.N,Net-(Q1-C)*%
X54500000Y-81000000D02*
X52792500Y-79292500D01*
X52792500Y-79292500D02*
X52792500Y-77008500D01*
X54500000Y-88000000D02*
X54500000Y-81000000D01*
%TO.N,Net-(D2-A)*%
X68987500Y-95500000D02*
X68987500Y-91537500D01*
X68987500Y-91537500D02*
X65950000Y-88500000D01*
%TO.N,/PWR_OK*%
X70500000Y-86500000D02*
X69050000Y-87950000D01*
D27*
%TO.N,Net-(R7-Pad2)*%
X153500000Y-109770000D02*
X153500000Y-91326400D01*
X153500000Y-91326400D02*
X151673600Y-89500000D01*
X148540000Y-114730000D02*
X153500000Y-109770000D01*
D26*
%TO.N,Net-(D3-A)*%
X75537500Y-95500000D02*
X75537500Y-91587500D01*
X75537500Y-91587500D02*
X72450000Y-88500000D01*
%TO.N,Net-(D4-A)*%
X82050000Y-88500000D02*
X82050000Y-95437500D01*
%TO.N,Net-(D5-A)*%
X88500000Y-88500000D02*
X88500000Y-95482500D01*
%TO.N,Net-(D6-K)*%
X91950000Y-88500000D02*
X91950000Y-95387500D01*
%TO.N,GND*%
X57000000Y-93000000D02*
X57000000Y-92987500D01*
X95037500Y-95500000D02*
X95037500Y-93512500D01*
X57000000Y-92987500D02*
X55450000Y-91437500D01*
X78500000Y-94987500D02*
X79012500Y-95500000D01*
D28*
X95037500Y-93512500D02*
X95050000Y-93500000D01*
D26*
X85000000Y-94992500D02*
X85507500Y-95500000D01*
X59512500Y-94012500D02*
X59000000Y-93500000D01*
X59512500Y-95500000D02*
X59512500Y-94012500D01*
X78500000Y-93500000D02*
X78500000Y-94987500D01*
X72562500Y-94062500D02*
X72000000Y-93500000D01*
X65500000Y-93500000D02*
X65500000Y-94987500D01*
X72562500Y-95500000D02*
X72562500Y-94062500D01*
X85000000Y-93500000D02*
X85000000Y-94992500D01*
X65500000Y-94987500D02*
X66012500Y-95500000D01*
%TO.N,/-12V*%
X92500000Y-74000000D02*
X66378100Y-74000000D01*
X66378100Y-74000000D02*
X62100000Y-69721900D01*
X94500000Y-76000000D02*
X92500000Y-74000000D01*
X95050000Y-86000000D02*
X95050000Y-88500000D01*
%TD*%
%TA.AperFunction,Conductor*%
%TO.N,/+12V*%
G36*
X111300770Y-50020185D02*
G01*
X111346525Y-50072989D01*
X111356469Y-50142147D01*
X111327444Y-50205703D01*
X111297660Y-50230749D01*
X111173182Y-50305646D01*
X111095944Y-50364361D01*
X110892589Y-50518946D01*
X110892580Y-50518954D01*
X110636685Y-50761350D01*
X110408505Y-51029983D01*
X110408498Y-51029993D01*
X110210695Y-51321730D01*
X110045597Y-51633137D01*
X110045588Y-51633155D01*
X109915127Y-51960589D01*
X109915126Y-51960591D01*
X109820834Y-52300203D01*
X109820833Y-52300206D01*
X109763808Y-52648045D01*
X109744726Y-52999997D01*
X109744726Y-53000002D01*
X109763808Y-53351954D01*
X109820833Y-53699793D01*
X109820834Y-53699796D01*
X109915126Y-54039408D01*
X109915127Y-54039410D01*
X110045588Y-54366844D01*
X110045593Y-54366854D01*
X110210695Y-54678269D01*
X110394594Y-54949500D01*
X110408498Y-54970006D01*
X110408505Y-54970016D01*
X110636685Y-55238649D01*
X110636686Y-55238650D01*
X110892580Y-55481046D01*
X111173182Y-55694354D01*
X111475202Y-55876074D01*
X111475206Y-55876075D01*
X111475210Y-55876078D01*
X111795088Y-56024070D01*
X111795092Y-56024070D01*
X111795099Y-56024074D01*
X112129122Y-56136619D01*
X112473355Y-56212391D01*
X112823763Y-56250500D01*
X112823769Y-56250500D01*
X113176231Y-56250500D01*
X113176237Y-56250500D01*
X113526645Y-56212391D01*
X113870878Y-56136619D01*
X114204901Y-56024074D01*
X114204908Y-56024070D01*
X114204911Y-56024070D01*
X114524789Y-55876078D01*
X114524798Y-55876074D01*
X114826818Y-55694354D01*
X115107420Y-55481046D01*
X115363314Y-55238650D01*
X115591501Y-54970008D01*
X115789305Y-54678269D01*
X115954407Y-54366854D01*
X116084871Y-54039414D01*
X116098754Y-53989414D01*
X116164395Y-53752994D01*
X116179168Y-53699788D01*
X116236191Y-53351957D01*
X116255274Y-53000000D01*
X116252020Y-52939993D01*
X116236191Y-52648045D01*
X116236103Y-52647506D01*
X116187738Y-52352486D01*
X152169500Y-52352486D01*
X152169500Y-52647513D01*
X152201571Y-52891113D01*
X152208007Y-52939993D01*
X152284361Y-53224951D01*
X152284364Y-53224961D01*
X152397254Y-53497500D01*
X152397258Y-53497510D01*
X152544761Y-53752993D01*
X152724352Y-53987040D01*
X152724358Y-53987047D01*
X152932952Y-54195641D01*
X152932959Y-54195647D01*
X153167006Y-54375238D01*
X153422489Y-54522741D01*
X153422490Y-54522741D01*
X153422493Y-54522743D01*
X153695048Y-54635639D01*
X153980007Y-54711993D01*
X154272494Y-54750500D01*
X154272501Y-54750500D01*
X154567499Y-54750500D01*
X154567506Y-54750500D01*
X154859993Y-54711993D01*
X155144952Y-54635639D01*
X155417507Y-54522743D01*
X155672994Y-54375238D01*
X155907042Y-54195646D01*
X156115646Y-53987042D01*
X156295238Y-53752994D01*
X156442743Y-53497507D01*
X156555639Y-53224952D01*
X156631993Y-52939993D01*
X156670500Y-52647506D01*
X156670500Y-52352494D01*
X156670499Y-52352486D01*
X162329500Y-52352486D01*
X162329500Y-52647513D01*
X162361571Y-52891113D01*
X162368007Y-52939993D01*
X162444361Y-53224951D01*
X162444364Y-53224961D01*
X162557254Y-53497500D01*
X162557258Y-53497510D01*
X162704761Y-53752993D01*
X162884352Y-53987040D01*
X162884358Y-53987047D01*
X163092952Y-54195641D01*
X163092959Y-54195647D01*
X163327006Y-54375238D01*
X163582489Y-54522741D01*
X163582490Y-54522741D01*
X163582493Y-54522743D01*
X163855048Y-54635639D01*
X164140007Y-54711993D01*
X164432494Y-54750500D01*
X164432501Y-54750500D01*
X164727499Y-54750500D01*
X164727506Y-54750500D01*
X165019993Y-54711993D01*
X165304952Y-54635639D01*
X165577507Y-54522743D01*
X165832994Y-54375238D01*
X166067042Y-54195646D01*
X166275646Y-53987042D01*
X166455238Y-53752994D01*
X166602743Y-53497507D01*
X166715639Y-53224952D01*
X166791993Y-52939993D01*
X166830500Y-52647506D01*
X166830500Y-52352494D01*
X166791993Y-52060007D01*
X166715639Y-51775048D01*
X166703739Y-51746320D01*
X166656861Y-51633146D01*
X166602743Y-51502493D01*
X166510040Y-51341927D01*
X166455238Y-51247006D01*
X166275647Y-51012959D01*
X166275641Y-51012952D01*
X166067047Y-50804358D01*
X166067040Y-50804352D01*
X165832993Y-50624761D01*
X165577510Y-50477258D01*
X165577500Y-50477254D01*
X165304961Y-50364364D01*
X165304954Y-50364362D01*
X165304952Y-50364361D01*
X165019993Y-50288007D01*
X164971113Y-50281571D01*
X164727513Y-50249500D01*
X164727506Y-50249500D01*
X164432494Y-50249500D01*
X164432486Y-50249500D01*
X164154085Y-50286153D01*
X164140007Y-50288007D01*
X164074181Y-50305645D01*
X163855048Y-50364361D01*
X163855038Y-50364364D01*
X163582499Y-50477254D01*
X163582489Y-50477258D01*
X163327006Y-50624761D01*
X163092959Y-50804352D01*
X163092952Y-50804358D01*
X162884358Y-51012952D01*
X162884352Y-51012959D01*
X162704761Y-51247006D01*
X162557258Y-51502489D01*
X162557254Y-51502499D01*
X162444364Y-51775038D01*
X162444361Y-51775048D01*
X162368008Y-52060004D01*
X162368006Y-52060015D01*
X162329500Y-52352486D01*
X156670499Y-52352486D01*
X156631993Y-52060007D01*
X156555639Y-51775048D01*
X156543739Y-51746320D01*
X156496861Y-51633146D01*
X156442743Y-51502493D01*
X156350040Y-51341927D01*
X156295238Y-51247006D01*
X156115647Y-51012959D01*
X156115641Y-51012952D01*
X155907047Y-50804358D01*
X155907040Y-50804352D01*
X155672993Y-50624761D01*
X155417510Y-50477258D01*
X155417500Y-50477254D01*
X155144961Y-50364364D01*
X155144954Y-50364362D01*
X155144952Y-50364361D01*
X154859993Y-50288007D01*
X154811113Y-50281571D01*
X154567513Y-50249500D01*
X154567506Y-50249500D01*
X154272494Y-50249500D01*
X154272486Y-50249500D01*
X153994085Y-50286153D01*
X153980007Y-50288007D01*
X153914181Y-50305645D01*
X153695048Y-50364361D01*
X153695038Y-50364364D01*
X153422499Y-50477254D01*
X153422489Y-50477258D01*
X153167006Y-50624761D01*
X152932959Y-50804352D01*
X152932952Y-50804358D01*
X152724358Y-51012952D01*
X152724352Y-51012959D01*
X152544761Y-51247006D01*
X152397258Y-51502489D01*
X152397254Y-51502499D01*
X152284364Y-51775038D01*
X152284361Y-51775048D01*
X152208008Y-52060004D01*
X152208006Y-52060015D01*
X152169500Y-52352486D01*
X116187738Y-52352486D01*
X116179168Y-52300212D01*
X116136704Y-52147271D01*
X116084873Y-51960591D01*
X116084872Y-51960589D01*
X115954411Y-51633155D01*
X115954402Y-51633137D01*
X115927903Y-51583155D01*
X115789305Y-51321731D01*
X115591501Y-51029992D01*
X115591497Y-51029987D01*
X115591494Y-51029983D01*
X115363314Y-50761350D01*
X115310530Y-50711350D01*
X115107420Y-50518954D01*
X115107413Y-50518948D01*
X115107410Y-50518946D01*
X115040852Y-50468350D01*
X114826818Y-50305646D01*
X114702339Y-50230749D01*
X114655045Y-50179321D01*
X114643063Y-50110486D01*
X114670198Y-50046101D01*
X114727835Y-50006607D01*
X114766269Y-50000500D01*
X174150631Y-50000500D01*
X174217670Y-50020185D01*
X174263425Y-50072989D01*
X174273369Y-50142147D01*
X174244344Y-50205703D01*
X174214561Y-50230748D01*
X174173182Y-50255646D01*
X174107408Y-50305646D01*
X173892589Y-50468946D01*
X173892580Y-50468954D01*
X173636685Y-50711350D01*
X173408505Y-50979983D01*
X173408498Y-50979993D01*
X173210695Y-51271730D01*
X173045597Y-51583137D01*
X173045588Y-51583155D01*
X172915127Y-51910589D01*
X172915126Y-51910591D01*
X172820834Y-52250203D01*
X172820833Y-52250206D01*
X172763808Y-52598045D01*
X172744726Y-52949997D01*
X172744726Y-52950002D01*
X172763808Y-53301954D01*
X172820833Y-53649793D01*
X172820834Y-53649796D01*
X172915126Y-53989408D01*
X172915127Y-53989410D01*
X173045588Y-54316844D01*
X173045597Y-54316862D01*
X173210695Y-54628269D01*
X173408498Y-54920006D01*
X173408505Y-54920016D01*
X173636685Y-55188649D01*
X173636686Y-55188650D01*
X173892580Y-55431046D01*
X174173182Y-55644354D01*
X174475202Y-55826074D01*
X174475206Y-55826075D01*
X174475210Y-55826078D01*
X174795088Y-55974070D01*
X174795092Y-55974070D01*
X174795099Y-55974074D01*
X175129122Y-56086619D01*
X175473355Y-56162391D01*
X175823763Y-56200500D01*
X175823769Y-56200500D01*
X176176231Y-56200500D01*
X176176237Y-56200500D01*
X176526645Y-56162391D01*
X176870878Y-56086619D01*
X177204901Y-55974074D01*
X177204908Y-55974070D01*
X177204911Y-55974070D01*
X177524789Y-55826078D01*
X177524798Y-55826074D01*
X177826818Y-55644354D01*
X178107420Y-55431046D01*
X178363314Y-55188650D01*
X178591501Y-54920008D01*
X178772867Y-54652512D01*
X178826781Y-54608072D01*
X178896163Y-54599834D01*
X178958985Y-54630415D01*
X178995301Y-54690105D01*
X178999500Y-54722100D01*
X178999500Y-113227899D01*
X178979815Y-113294938D01*
X178927011Y-113340693D01*
X178857853Y-113350637D01*
X178794297Y-113321612D01*
X178772867Y-113297486D01*
X178591502Y-113029993D01*
X178591494Y-113029983D01*
X178363314Y-112761350D01*
X178107420Y-112518954D01*
X178107413Y-112518948D01*
X178107410Y-112518946D01*
X177826815Y-112305644D01*
X177524802Y-112123928D01*
X177524789Y-112123921D01*
X177204911Y-111975929D01*
X177204906Y-111975928D01*
X177204903Y-111975927D01*
X177204901Y-111975926D01*
X177098432Y-111940052D01*
X176870880Y-111863381D01*
X176526643Y-111787608D01*
X176176238Y-111749500D01*
X176176237Y-111749500D01*
X175823763Y-111749500D01*
X175823761Y-111749500D01*
X175473356Y-111787608D01*
X175129119Y-111863381D01*
X174795093Y-111975928D01*
X174795088Y-111975929D01*
X174475210Y-112123921D01*
X174475197Y-112123928D01*
X174173184Y-112305644D01*
X173892589Y-112518946D01*
X173892580Y-112518954D01*
X173636685Y-112761350D01*
X173408505Y-113029983D01*
X173408498Y-113029993D01*
X173210695Y-113321730D01*
X173045597Y-113633137D01*
X173045588Y-113633155D01*
X172915127Y-113960589D01*
X172915126Y-113960591D01*
X172820834Y-114300203D01*
X172820833Y-114300206D01*
X172763808Y-114648045D01*
X172744726Y-114999997D01*
X172744726Y-115000002D01*
X172763808Y-115351954D01*
X172820833Y-115699793D01*
X172820834Y-115699796D01*
X172915126Y-116039408D01*
X172915127Y-116039410D01*
X173045588Y-116366844D01*
X173045597Y-116366862D01*
X173210695Y-116678269D01*
X173408498Y-116970006D01*
X173408505Y-116970016D01*
X173636685Y-117238649D01*
X173636686Y-117238650D01*
X173892580Y-117481046D01*
X174173182Y-117694354D01*
X174297660Y-117769250D01*
X174344955Y-117820679D01*
X174356937Y-117889514D01*
X174329802Y-117953899D01*
X174272165Y-117993393D01*
X174233731Y-117999500D01*
X114766269Y-117999500D01*
X114699230Y-117979815D01*
X114653475Y-117927011D01*
X114643531Y-117857853D01*
X114672556Y-117794297D01*
X114702340Y-117769250D01*
X114826818Y-117694354D01*
X115107420Y-117481046D01*
X115363314Y-117238650D01*
X115591501Y-116970008D01*
X115789305Y-116678269D01*
X115954407Y-116366854D01*
X116084871Y-116039414D01*
X116103496Y-115972335D01*
X116140937Y-115837482D01*
X116179168Y-115699788D01*
X116236191Y-115351957D01*
X116255274Y-115000000D01*
X116254071Y-114977821D01*
X116236191Y-114648045D01*
X116236191Y-114648043D01*
X116179168Y-114300212D01*
X116099533Y-114013393D01*
X116084873Y-113960591D01*
X116084872Y-113960589D01*
X115973926Y-113682135D01*
X141959500Y-113682135D01*
X141959500Y-115777870D01*
X141959501Y-115777876D01*
X141965908Y-115837483D01*
X142016202Y-115972328D01*
X142016206Y-115972335D01*
X142102452Y-116087544D01*
X142102455Y-116087547D01*
X142217664Y-116173793D01*
X142217671Y-116173797D01*
X142352517Y-116224091D01*
X142352516Y-116224091D01*
X142359444Y-116224835D01*
X142412127Y-116230500D01*
X144507872Y-116230499D01*
X144567483Y-116224091D01*
X144702331Y-116173796D01*
X144817546Y-116087546D01*
X144903796Y-115972331D01*
X144954091Y-115837483D01*
X144960500Y-115777873D01*
X144960499Y-114729994D01*
X147034357Y-114729994D01*
X147034357Y-114730005D01*
X147054890Y-114977812D01*
X147054892Y-114977824D01*
X147115936Y-115218881D01*
X147215826Y-115446606D01*
X147351833Y-115654782D01*
X147351836Y-115654785D01*
X147520256Y-115837738D01*
X147716491Y-115990474D01*
X147935190Y-116108828D01*
X148170386Y-116189571D01*
X148415665Y-116230500D01*
X148664335Y-116230500D01*
X148909614Y-116189571D01*
X149144810Y-116108828D01*
X149363509Y-115990474D01*
X149559744Y-115837738D01*
X149728164Y-115654785D01*
X149864173Y-115446607D01*
X149964063Y-115218881D01*
X150025108Y-114977821D01*
X150034114Y-114869123D01*
X150059266Y-114803943D01*
X150070001Y-114791694D01*
X154358483Y-110503214D01*
X154462613Y-110359891D01*
X154467433Y-110350431D01*
X154508718Y-110269408D01*
X154520012Y-110247239D01*
X154543042Y-110202042D01*
X154579269Y-110090546D01*
X154597786Y-110033556D01*
X154625500Y-109858579D01*
X154625500Y-109681422D01*
X154625500Y-91237821D01*
X154597786Y-91062845D01*
X154570414Y-90978601D01*
X154543043Y-90894360D01*
X154543042Y-90894357D01*
X154472004Y-90754939D01*
X154462614Y-90736510D01*
X154447598Y-90715842D01*
X154425319Y-90685178D01*
X154358487Y-90593189D01*
X153631818Y-89866520D01*
X153598333Y-89805197D01*
X153595499Y-89778839D01*
X153595499Y-89584250D01*
X159309496Y-89584250D01*
X159329878Y-89843240D01*
X159390527Y-90095860D01*
X159489943Y-90335873D01*
X159489945Y-90335877D01*
X159489946Y-90335878D01*
X159625688Y-90557390D01*
X159794411Y-90754939D01*
X159991960Y-90923662D01*
X160213472Y-91059404D01*
X160213474Y-91059404D01*
X160213476Y-91059406D01*
X160221774Y-91062843D01*
X160453490Y-91158823D01*
X160706106Y-91219471D01*
X160965100Y-91239854D01*
X161224094Y-91219471D01*
X161476710Y-91158823D01*
X161716728Y-91059404D01*
X161938240Y-90923662D01*
X162135789Y-90754939D01*
X162304512Y-90557390D01*
X162440254Y-90335878D01*
X162539673Y-90095860D01*
X162600321Y-89843244D01*
X162620704Y-89584250D01*
X163509496Y-89584250D01*
X163529878Y-89843240D01*
X163590527Y-90095860D01*
X163689943Y-90335873D01*
X163689945Y-90335877D01*
X163689946Y-90335878D01*
X163825688Y-90557390D01*
X163994411Y-90754939D01*
X164191960Y-90923662D01*
X164413472Y-91059404D01*
X164413474Y-91059404D01*
X164413476Y-91059406D01*
X164421774Y-91062843D01*
X164653490Y-91158823D01*
X164906106Y-91219471D01*
X165165100Y-91239854D01*
X165424094Y-91219471D01*
X165676710Y-91158823D01*
X165916728Y-91059404D01*
X166138240Y-90923662D01*
X166335789Y-90754939D01*
X166504512Y-90557390D01*
X166640254Y-90335878D01*
X166739673Y-90095860D01*
X166800321Y-89843244D01*
X166820704Y-89584250D01*
X166811674Y-89469508D01*
X170714600Y-89469508D01*
X170714600Y-89698991D01*
X170736457Y-89864999D01*
X170744552Y-89926488D01*
X170787475Y-90086680D01*
X170803942Y-90148137D01*
X170891750Y-90360126D01*
X170891757Y-90360140D01*
X171006492Y-90558867D01*
X171146181Y-90740911D01*
X171146189Y-90740920D01*
X171308430Y-90903161D01*
X171308438Y-90903168D01*
X171308439Y-90903169D01*
X171350412Y-90935376D01*
X171490482Y-91042857D01*
X171490485Y-91042858D01*
X171490488Y-91042861D01*
X171689212Y-91157594D01*
X171689217Y-91157596D01*
X171689223Y-91157599D01*
X171780580Y-91195440D01*
X171901213Y-91245408D01*
X172122862Y-91304798D01*
X172350366Y-91334750D01*
X172350373Y-91334750D01*
X172579827Y-91334750D01*
X172579834Y-91334750D01*
X172807338Y-91304798D01*
X173028987Y-91245408D01*
X173240988Y-91157594D01*
X173439712Y-91042861D01*
X173621761Y-90903169D01*
X173621765Y-90903164D01*
X173621770Y-90903161D01*
X173784011Y-90740920D01*
X173784014Y-90740915D01*
X173784019Y-90740911D01*
X173923711Y-90558862D01*
X174038444Y-90360138D01*
X174126258Y-90148137D01*
X174185648Y-89926488D01*
X174215600Y-89698984D01*
X174215600Y-89469516D01*
X174185648Y-89242012D01*
X174126258Y-89020363D01*
X174038444Y-88808362D01*
X173923711Y-88609638D01*
X173923708Y-88609635D01*
X173923707Y-88609632D01*
X173821673Y-88476660D01*
X173784019Y-88427589D01*
X173784018Y-88427588D01*
X173784011Y-88427580D01*
X173621770Y-88265339D01*
X173621761Y-88265331D01*
X173439717Y-88125642D01*
X173411931Y-88109600D01*
X173240988Y-88010906D01*
X173240976Y-88010900D01*
X173028987Y-87923092D01*
X172971363Y-87907652D01*
X172807338Y-87863702D01*
X172769315Y-87858696D01*
X172579841Y-87833750D01*
X172579834Y-87833750D01*
X172350366Y-87833750D01*
X172350358Y-87833750D01*
X172144388Y-87860868D01*
X172122862Y-87863702D01*
X172029176Y-87888804D01*
X171901212Y-87923092D01*
X171689223Y-88010900D01*
X171689209Y-88010907D01*
X171490482Y-88125642D01*
X171308438Y-88265331D01*
X171146181Y-88427588D01*
X171006492Y-88609632D01*
X170891757Y-88808359D01*
X170891750Y-88808373D01*
X170803942Y-89020362D01*
X170785478Y-89089271D01*
X170752726Y-89211508D01*
X170744553Y-89242009D01*
X170744551Y-89242020D01*
X170714600Y-89469508D01*
X166811674Y-89469508D01*
X166800321Y-89325256D01*
X166739673Y-89072640D01*
X166640254Y-88832622D01*
X166504512Y-88611110D01*
X166335789Y-88413561D01*
X166138240Y-88244838D01*
X165916728Y-88109096D01*
X165916727Y-88109095D01*
X165916723Y-88109093D01*
X165711093Y-88023919D01*
X165676710Y-88009677D01*
X165676711Y-88009677D01*
X165539021Y-87976620D01*
X165424094Y-87949029D01*
X165424092Y-87949028D01*
X165424091Y-87949028D01*
X165165100Y-87928646D01*
X164906109Y-87949028D01*
X164653489Y-88009677D01*
X164413476Y-88109093D01*
X164191959Y-88244838D01*
X163994411Y-88413561D01*
X163825688Y-88611109D01*
X163689943Y-88832626D01*
X163590527Y-89072639D01*
X163529878Y-89325259D01*
X163509496Y-89584250D01*
X162620704Y-89584250D01*
X162600321Y-89325256D01*
X162539673Y-89072640D01*
X162440254Y-88832622D01*
X162304512Y-88611110D01*
X162135789Y-88413561D01*
X161938240Y-88244838D01*
X161716728Y-88109096D01*
X161716727Y-88109095D01*
X161716723Y-88109093D01*
X161511093Y-88023919D01*
X161476710Y-88009677D01*
X161476711Y-88009677D01*
X161339021Y-87976620D01*
X161224094Y-87949029D01*
X161224092Y-87949028D01*
X161224091Y-87949028D01*
X160965100Y-87928646D01*
X160706109Y-87949028D01*
X160453489Y-88009677D01*
X160213476Y-88109093D01*
X159991959Y-88244838D01*
X159794411Y-88413561D01*
X159625688Y-88611109D01*
X159489943Y-88832626D01*
X159390527Y-89072639D01*
X159329878Y-89325259D01*
X159309496Y-89584250D01*
X153595499Y-89584250D01*
X153595499Y-88064629D01*
X153595498Y-88064623D01*
X153595497Y-88064616D01*
X153589091Y-88005017D01*
X153568208Y-87949028D01*
X153538797Y-87870171D01*
X153538793Y-87870164D01*
X153452547Y-87754955D01*
X153452544Y-87754952D01*
X153337335Y-87668706D01*
X153337328Y-87668702D01*
X153202482Y-87618408D01*
X153202483Y-87618408D01*
X153142883Y-87612001D01*
X153142881Y-87612000D01*
X153142873Y-87612000D01*
X153142864Y-87612000D01*
X150272129Y-87612000D01*
X150272123Y-87612001D01*
X150212516Y-87618408D01*
X150077671Y-87668702D01*
X150077664Y-87668706D01*
X149962455Y-87754952D01*
X149962452Y-87754955D01*
X149876206Y-87870164D01*
X149876202Y-87870171D01*
X149825908Y-88005017D01*
X149819501Y-88064616D01*
X149819501Y-88064623D01*
X149819500Y-88064635D01*
X149819500Y-90935370D01*
X149819501Y-90935376D01*
X149825908Y-90994983D01*
X149876202Y-91129828D01*
X149876206Y-91129835D01*
X149962452Y-91245044D01*
X149962455Y-91245047D01*
X150077664Y-91331293D01*
X150077671Y-91331297D01*
X150212517Y-91381591D01*
X150212516Y-91381591D01*
X150219444Y-91382335D01*
X150272127Y-91388000D01*
X151918539Y-91387999D01*
X151985578Y-91407684D01*
X152006220Y-91424318D01*
X152338181Y-91756278D01*
X152371666Y-91817601D01*
X152374500Y-91843959D01*
X152374500Y-109252441D01*
X152354815Y-109319480D01*
X152338181Y-109340122D01*
X148483529Y-113194773D01*
X148422206Y-113228258D01*
X148416257Y-113229401D01*
X148170383Y-113270429D01*
X147935197Y-113351169D01*
X147935188Y-113351172D01*
X147716493Y-113469524D01*
X147520257Y-113622261D01*
X147351833Y-113805217D01*
X147215826Y-114013393D01*
X147115936Y-114241118D01*
X147054892Y-114482175D01*
X147054890Y-114482187D01*
X147034357Y-114729994D01*
X144960499Y-114729994D01*
X144960499Y-113682128D01*
X144954091Y-113622517D01*
X144903796Y-113487669D01*
X144903795Y-113487668D01*
X144903793Y-113487664D01*
X144817547Y-113372455D01*
X144817544Y-113372452D01*
X144702335Y-113286206D01*
X144702328Y-113286202D01*
X144567482Y-113235908D01*
X144567483Y-113235908D01*
X144507883Y-113229501D01*
X144507881Y-113229500D01*
X144507873Y-113229500D01*
X144507864Y-113229500D01*
X142412129Y-113229500D01*
X142412123Y-113229501D01*
X142352516Y-113235908D01*
X142217671Y-113286202D01*
X142217664Y-113286206D01*
X142102455Y-113372452D01*
X142102452Y-113372455D01*
X142016206Y-113487664D01*
X142016202Y-113487671D01*
X141965908Y-113622517D01*
X141959501Y-113682116D01*
X141959501Y-113682123D01*
X141959500Y-113682135D01*
X115973926Y-113682135D01*
X115954411Y-113633155D01*
X115954402Y-113633137D01*
X115948771Y-113622516D01*
X115789305Y-113321731D01*
X115591501Y-113029992D01*
X115591497Y-113029987D01*
X115591494Y-113029983D01*
X115363314Y-112761350D01*
X115107420Y-112518954D01*
X115107413Y-112518948D01*
X115107410Y-112518946D01*
X114826815Y-112305644D01*
X114524802Y-112123928D01*
X114524789Y-112123921D01*
X114204911Y-111975929D01*
X114204906Y-111975928D01*
X114204903Y-111975927D01*
X114204901Y-111975926D01*
X114098432Y-111940052D01*
X113870880Y-111863381D01*
X113526643Y-111787608D01*
X113176238Y-111749500D01*
X113176237Y-111749500D01*
X112823763Y-111749500D01*
X112823761Y-111749500D01*
X112473356Y-111787608D01*
X112129119Y-111863381D01*
X111795093Y-111975928D01*
X111795088Y-111975929D01*
X111475210Y-112123921D01*
X111475197Y-112123928D01*
X111173184Y-112305644D01*
X110892589Y-112518946D01*
X110892580Y-112518954D01*
X110636685Y-112761350D01*
X110408505Y-113029983D01*
X110408498Y-113029993D01*
X110210695Y-113321730D01*
X110045597Y-113633137D01*
X110045588Y-113633155D01*
X109915127Y-113960589D01*
X109915126Y-113960591D01*
X109820834Y-114300203D01*
X109820833Y-114300206D01*
X109763808Y-114648045D01*
X109744726Y-114999997D01*
X109744726Y-115000002D01*
X109763808Y-115351954D01*
X109820833Y-115699793D01*
X109820834Y-115699796D01*
X109915126Y-116039408D01*
X109915127Y-116039410D01*
X110045588Y-116366844D01*
X110045597Y-116366862D01*
X110210695Y-116678269D01*
X110408498Y-116970006D01*
X110408505Y-116970016D01*
X110636685Y-117238649D01*
X110636686Y-117238650D01*
X110892580Y-117481046D01*
X111173182Y-117694354D01*
X111297660Y-117769250D01*
X111344955Y-117820679D01*
X111356937Y-117889514D01*
X111329802Y-117953899D01*
X111272165Y-117993393D01*
X111233731Y-117999500D01*
X51766269Y-117999500D01*
X51699230Y-117979815D01*
X51653475Y-117927011D01*
X51643531Y-117857853D01*
X51672556Y-117794297D01*
X51702340Y-117769250D01*
X51826818Y-117694354D01*
X52107420Y-117481046D01*
X52363314Y-117238650D01*
X52591501Y-116970008D01*
X52789305Y-116678269D01*
X52954407Y-116366854D01*
X53084871Y-116039414D01*
X53103496Y-115972335D01*
X53140937Y-115837482D01*
X53179168Y-115699788D01*
X53236191Y-115351957D01*
X53255274Y-115000000D01*
X53254071Y-114977821D01*
X53236191Y-114648045D01*
X53236191Y-114648043D01*
X53179168Y-114300212D01*
X53099533Y-114013393D01*
X53084873Y-113960591D01*
X53084872Y-113960589D01*
X52954411Y-113633155D01*
X52954402Y-113633137D01*
X52948771Y-113622516D01*
X52789305Y-113321731D01*
X52591501Y-113029992D01*
X52591497Y-113029987D01*
X52591494Y-113029983D01*
X52363314Y-112761350D01*
X52107420Y-112518954D01*
X52107413Y-112518948D01*
X52107410Y-112518946D01*
X51826815Y-112305644D01*
X51524802Y-112123928D01*
X51524789Y-112123921D01*
X51204911Y-111975929D01*
X51204906Y-111975928D01*
X51204903Y-111975927D01*
X51204901Y-111975926D01*
X51098432Y-111940052D01*
X50870880Y-111863381D01*
X50526643Y-111787608D01*
X50176238Y-111749500D01*
X50176237Y-111749500D01*
X49823763Y-111749500D01*
X49823761Y-111749500D01*
X49473356Y-111787608D01*
X49129119Y-111863381D01*
X48795093Y-111975928D01*
X48795088Y-111975929D01*
X48475210Y-112123921D01*
X48475197Y-112123928D01*
X48173184Y-112305644D01*
X47892589Y-112518946D01*
X47892580Y-112518954D01*
X47636685Y-112761350D01*
X47408505Y-113029983D01*
X47408497Y-113029993D01*
X47227133Y-113297486D01*
X47173219Y-113341927D01*
X47103837Y-113350165D01*
X47041015Y-113319584D01*
X47004699Y-113259894D01*
X47000500Y-113227899D01*
X47000500Y-75564635D01*
X50904500Y-75564635D01*
X50904500Y-78435370D01*
X50904501Y-78435376D01*
X50910908Y-78494983D01*
X50961202Y-78629828D01*
X50961206Y-78629835D01*
X51047452Y-78745044D01*
X51047455Y-78745047D01*
X51162664Y-78831293D01*
X51162671Y-78831297D01*
X51207618Y-78848061D01*
X51297517Y-78881591D01*
X51357127Y-78888000D01*
X51918000Y-78887999D01*
X51985039Y-78907683D01*
X52030794Y-78960487D01*
X52042000Y-79011999D01*
X52042000Y-79366418D01*
X52042000Y-79366420D01*
X52041999Y-79366420D01*
X52070840Y-79511407D01*
X52070843Y-79511417D01*
X52127414Y-79647992D01*
X52160312Y-79697227D01*
X52160313Y-79697230D01*
X52209546Y-79770914D01*
X52209552Y-79770921D01*
X53713181Y-81274548D01*
X53746666Y-81335871D01*
X53749500Y-81362229D01*
X53749500Y-87209523D01*
X53731617Y-87273671D01*
X53725275Y-87284163D01*
X53656522Y-87397893D01*
X53605913Y-87560307D01*
X53603267Y-87589429D01*
X53599500Y-87630884D01*
X53599500Y-89244116D01*
X53601423Y-89265278D01*
X53605913Y-89314692D01*
X53605913Y-89314694D01*
X53605914Y-89314696D01*
X53646243Y-89444119D01*
X53656522Y-89477106D01*
X53744530Y-89622688D01*
X53864810Y-89742968D01*
X53864814Y-89742971D01*
X53864815Y-89742972D01*
X53883483Y-89754257D01*
X53889850Y-89758106D01*
X53937038Y-89809633D01*
X53948877Y-89878493D01*
X53921609Y-89942821D01*
X53863890Y-89982196D01*
X53814488Y-89987715D01*
X53809939Y-89987302D01*
X53806616Y-89987000D01*
X53293384Y-89987000D01*
X53274145Y-89988748D01*
X53222807Y-89993413D01*
X53060393Y-90044022D01*
X52914811Y-90132030D01*
X52794530Y-90252311D01*
X52706522Y-90397893D01*
X52655913Y-90560307D01*
X52649500Y-90630886D01*
X52649500Y-92244113D01*
X52655913Y-92314692D01*
X52655913Y-92314694D01*
X52655914Y-92314696D01*
X52706522Y-92477106D01*
X52706523Y-92477107D01*
X52706524Y-92477111D01*
X52731616Y-92518616D01*
X52749500Y-92582767D01*
X52749500Y-94109362D01*
X52729815Y-94176401D01*
X52690598Y-94214899D01*
X52649499Y-94240250D01*
X52581342Y-94282289D01*
X52457289Y-94406342D01*
X52365187Y-94555663D01*
X52365187Y-94555664D01*
X52365186Y-94555666D01*
X52310001Y-94722203D01*
X52310001Y-94722204D01*
X52310000Y-94722204D01*
X52299500Y-94824983D01*
X52299500Y-96175001D01*
X52299501Y-96175018D01*
X52310000Y-96277796D01*
X52310001Y-96277799D01*
X52310972Y-96280728D01*
X52365186Y-96444334D01*
X52457288Y-96593656D01*
X52581344Y-96717712D01*
X52730666Y-96809814D01*
X52897203Y-96864999D01*
X52999991Y-96875500D01*
X53900008Y-96875499D01*
X53900016Y-96875498D01*
X53900019Y-96875498D01*
X53956302Y-96869748D01*
X54002797Y-96864999D01*
X54169334Y-96809814D01*
X54318656Y-96717712D01*
X54442712Y-96593656D01*
X54534814Y-96444334D01*
X54589999Y-96277797D01*
X54600500Y-96175009D01*
X54600499Y-94824992D01*
X54600498Y-94824983D01*
X55399500Y-94824983D01*
X55399500Y-96175001D01*
X55399501Y-96175018D01*
X55410000Y-96277796D01*
X55410001Y-96277799D01*
X55410972Y-96280728D01*
X55465186Y-96444334D01*
X55557288Y-96593656D01*
X55681344Y-96717712D01*
X55740596Y-96754258D01*
X55787321Y-96806204D01*
X55799500Y-96859797D01*
X55799500Y-97123918D01*
X55799500Y-97123920D01*
X55799499Y-97123920D01*
X55828340Y-97268907D01*
X55828343Y-97268917D01*
X55884912Y-97405488D01*
X55884921Y-97405504D01*
X55898334Y-97425577D01*
X55898335Y-97425581D01*
X55898336Y-97425581D01*
X55967046Y-97528414D01*
X55967052Y-97528421D01*
X66638133Y-108199500D01*
X69021585Y-110582952D01*
X69048839Y-110601162D01*
X69062374Y-110610206D01*
X69144498Y-110665080D01*
X69144511Y-110665087D01*
X69201079Y-110688518D01*
X69201080Y-110688518D01*
X69281088Y-110721659D01*
X69397241Y-110744763D01*
X69416468Y-110748587D01*
X69426081Y-110750500D01*
X69426082Y-110750500D01*
X69426083Y-110750500D01*
X69573918Y-110750500D01*
X69835501Y-110750500D01*
X69902540Y-110770185D01*
X69948295Y-110822989D01*
X69959501Y-110874500D01*
X69959501Y-111347876D01*
X69965908Y-111407483D01*
X70016202Y-111542328D01*
X70016206Y-111542335D01*
X70102452Y-111657544D01*
X70102455Y-111657547D01*
X70217664Y-111743793D01*
X70217671Y-111743797D01*
X70352517Y-111794091D01*
X70352516Y-111794091D01*
X70359444Y-111794835D01*
X70412127Y-111800500D01*
X73107872Y-111800499D01*
X73167483Y-111794091D01*
X73302331Y-111743796D01*
X73417546Y-111657546D01*
X73503796Y-111542331D01*
X73554091Y-111407483D01*
X73560500Y-111347873D01*
X73560499Y-109999995D01*
X75034953Y-109999995D01*
X75034953Y-110000004D01*
X75055113Y-110269026D01*
X75055113Y-110269028D01*
X75115142Y-110532033D01*
X75115148Y-110532052D01*
X75213709Y-110783181D01*
X75213708Y-110783181D01*
X75348602Y-111016822D01*
X75402294Y-111084151D01*
X75402295Y-111084151D01*
X76238958Y-110247488D01*
X76263978Y-110307890D01*
X76335112Y-110414351D01*
X76425649Y-110504888D01*
X76532110Y-110576022D01*
X76592510Y-110601041D01*
X75754848Y-111438702D01*
X75937483Y-111563220D01*
X75937485Y-111563221D01*
X76180539Y-111680269D01*
X76180537Y-111680269D01*
X76438337Y-111759790D01*
X76438343Y-111759792D01*
X76705101Y-111799999D01*
X76705110Y-111800000D01*
X76974890Y-111800000D01*
X76974898Y-111799999D01*
X77241656Y-111759792D01*
X77241662Y-111759790D01*
X77499461Y-111680269D01*
X77742521Y-111563218D01*
X77925150Y-111438702D01*
X77087488Y-110601041D01*
X77147890Y-110576022D01*
X77254351Y-110504888D01*
X77344888Y-110414351D01*
X77416022Y-110307890D01*
X77441041Y-110247488D01*
X78277703Y-111084151D01*
X78277704Y-111084150D01*
X78331393Y-111016828D01*
X78331400Y-111016817D01*
X78466290Y-110783181D01*
X78564851Y-110532052D01*
X78564857Y-110532033D01*
X78624886Y-110269028D01*
X78624886Y-110269026D01*
X78645047Y-110000004D01*
X78645047Y-109999995D01*
X80114451Y-109999995D01*
X80114451Y-110000004D01*
X80134616Y-110269101D01*
X80194664Y-110532188D01*
X80194666Y-110532195D01*
X80269025Y-110721658D01*
X80293257Y-110783398D01*
X80428185Y-111017102D01*
X80481655Y-111084151D01*
X80596442Y-111228089D01*
X80783183Y-111401358D01*
X80794259Y-111411635D01*
X81017226Y-111563651D01*
X81260359Y-111680738D01*
X81518228Y-111760280D01*
X81518229Y-111760280D01*
X81518232Y-111760281D01*
X81785063Y-111800499D01*
X81785068Y-111800499D01*
X81785071Y-111800500D01*
X81785072Y-111800500D01*
X82054928Y-111800500D01*
X82054929Y-111800500D01*
X82054936Y-111800499D01*
X82321767Y-111760281D01*
X82321768Y-111760280D01*
X82321772Y-111760280D01*
X82579641Y-111680738D01*
X82822775Y-111563651D01*
X83045741Y-111411635D01*
X83243561Y-111228085D01*
X83411815Y-111017102D01*
X83546743Y-110783398D01*
X83645334Y-110532195D01*
X83705383Y-110269103D01*
X83720752Y-110064019D01*
X83725549Y-110000004D01*
X83725549Y-109999995D01*
X85194451Y-109999995D01*
X85194451Y-110000004D01*
X85214616Y-110269101D01*
X85274664Y-110532188D01*
X85274666Y-110532195D01*
X85349025Y-110721658D01*
X85373257Y-110783398D01*
X85508185Y-111017102D01*
X85561655Y-111084151D01*
X85676442Y-111228089D01*
X85863183Y-111401358D01*
X85874259Y-111411635D01*
X86097226Y-111563651D01*
X86340359Y-111680738D01*
X86598228Y-111760280D01*
X86598229Y-111760280D01*
X86598232Y-111760281D01*
X86865063Y-111800499D01*
X86865068Y-111800499D01*
X86865071Y-111800500D01*
X86865072Y-111800500D01*
X87134928Y-111800500D01*
X87134929Y-111800500D01*
X87134936Y-111800499D01*
X87401767Y-111760281D01*
X87401768Y-111760280D01*
X87401772Y-111760280D01*
X87659641Y-111680738D01*
X87902775Y-111563651D01*
X88125741Y-111411635D01*
X88323561Y-111228085D01*
X88491815Y-111017102D01*
X88626743Y-110783398D01*
X88725334Y-110532195D01*
X88785383Y-110269103D01*
X88800752Y-110064019D01*
X88805549Y-110000004D01*
X88805549Y-109999995D01*
X90274451Y-109999995D01*
X90274451Y-110000004D01*
X90294616Y-110269101D01*
X90354664Y-110532188D01*
X90354666Y-110532195D01*
X90429025Y-110721658D01*
X90453257Y-110783398D01*
X90588185Y-111017102D01*
X90641655Y-111084151D01*
X90756442Y-111228089D01*
X90943183Y-111401358D01*
X90954259Y-111411635D01*
X91177226Y-111563651D01*
X91420359Y-111680738D01*
X91678228Y-111760280D01*
X91678229Y-111760280D01*
X91678232Y-111760281D01*
X91945063Y-111800499D01*
X91945068Y-111800499D01*
X91945071Y-111800500D01*
X91945072Y-111800500D01*
X92214928Y-111800500D01*
X92214929Y-111800500D01*
X92214936Y-111800499D01*
X92481767Y-111760281D01*
X92481768Y-111760280D01*
X92481772Y-111760280D01*
X92739641Y-111680738D01*
X92982775Y-111563651D01*
X93205741Y-111411635D01*
X93403561Y-111228085D01*
X93571815Y-111017102D01*
X93706743Y-110783398D01*
X93805334Y-110532195D01*
X93865383Y-110269103D01*
X93880752Y-110064019D01*
X93885549Y-110000004D01*
X93885549Y-109999995D01*
X93865389Y-109730973D01*
X93865383Y-109730897D01*
X93805334Y-109467805D01*
X93706743Y-109216602D01*
X93571815Y-108982898D01*
X93403561Y-108771915D01*
X93403560Y-108771914D01*
X93403557Y-108771910D01*
X93205741Y-108588365D01*
X93166038Y-108561296D01*
X92982775Y-108436349D01*
X92982769Y-108436346D01*
X92982768Y-108436345D01*
X92982767Y-108436344D01*
X92739643Y-108319263D01*
X92739645Y-108319263D01*
X92481773Y-108239720D01*
X92481767Y-108239718D01*
X92214936Y-108199500D01*
X92214929Y-108199500D01*
X91945071Y-108199500D01*
X91945063Y-108199500D01*
X91678232Y-108239718D01*
X91678226Y-108239720D01*
X91420358Y-108319262D01*
X91177230Y-108436346D01*
X90954258Y-108588365D01*
X90756442Y-108771910D01*
X90588185Y-108982898D01*
X90453258Y-109216599D01*
X90453256Y-109216603D01*
X90354666Y-109467804D01*
X90354664Y-109467811D01*
X90294616Y-109730898D01*
X90274451Y-109999995D01*
X88805549Y-109999995D01*
X88785389Y-109730973D01*
X88785383Y-109730897D01*
X88725334Y-109467805D01*
X88626743Y-109216602D01*
X88491815Y-108982898D01*
X88323561Y-108771915D01*
X88323560Y-108771914D01*
X88323557Y-108771910D01*
X88125741Y-108588365D01*
X88086038Y-108561296D01*
X87902775Y-108436349D01*
X87902769Y-108436346D01*
X87902768Y-108436345D01*
X87902767Y-108436344D01*
X87659643Y-108319263D01*
X87659645Y-108319263D01*
X87401773Y-108239720D01*
X87401767Y-108239718D01*
X87134936Y-108199500D01*
X87134929Y-108199500D01*
X86865071Y-108199500D01*
X86865063Y-108199500D01*
X86598232Y-108239718D01*
X86598226Y-108239720D01*
X86340358Y-108319262D01*
X86097230Y-108436346D01*
X85874258Y-108588365D01*
X85676442Y-108771910D01*
X85508185Y-108982898D01*
X85373258Y-109216599D01*
X85373256Y-109216603D01*
X85274666Y-109467804D01*
X85274664Y-109467811D01*
X85214616Y-109730898D01*
X85194451Y-109999995D01*
X83725549Y-109999995D01*
X83705389Y-109730973D01*
X83705383Y-109730897D01*
X83645334Y-109467805D01*
X83546743Y-109216602D01*
X83411815Y-108982898D01*
X83243561Y-108771915D01*
X83243560Y-108771914D01*
X83243557Y-108771910D01*
X83045741Y-108588365D01*
X83006038Y-108561296D01*
X82822775Y-108436349D01*
X82822769Y-108436346D01*
X82822768Y-108436345D01*
X82822767Y-108436344D01*
X82579643Y-108319263D01*
X82579645Y-108319263D01*
X82321773Y-108239720D01*
X82321767Y-108239718D01*
X82054936Y-108199500D01*
X82054929Y-108199500D01*
X81785071Y-108199500D01*
X81785063Y-108199500D01*
X81518232Y-108239718D01*
X81518226Y-108239720D01*
X81260358Y-108319262D01*
X81017230Y-108436346D01*
X80794258Y-108588365D01*
X80596442Y-108771910D01*
X80428185Y-108982898D01*
X80293258Y-109216599D01*
X80293256Y-109216603D01*
X80194666Y-109467804D01*
X80194664Y-109467811D01*
X80134616Y-109730898D01*
X80114451Y-109999995D01*
X78645047Y-109999995D01*
X78624886Y-109730973D01*
X78624886Y-109730971D01*
X78564857Y-109467966D01*
X78564851Y-109467947D01*
X78466290Y-109216818D01*
X78466291Y-109216818D01*
X78331397Y-108983177D01*
X78277704Y-108915847D01*
X77441041Y-109752510D01*
X77416022Y-109692110D01*
X77344888Y-109585649D01*
X77254351Y-109495112D01*
X77147890Y-109423978D01*
X77087488Y-109398958D01*
X77925150Y-108561296D01*
X77742517Y-108436779D01*
X77742516Y-108436778D01*
X77499460Y-108319730D01*
X77499462Y-108319730D01*
X77241662Y-108240209D01*
X77241656Y-108240207D01*
X76974898Y-108200000D01*
X76705101Y-108200000D01*
X76438343Y-108240207D01*
X76438337Y-108240209D01*
X76180538Y-108319730D01*
X75937485Y-108436778D01*
X75937476Y-108436783D01*
X75754848Y-108561296D01*
X76592511Y-109398958D01*
X76532110Y-109423978D01*
X76425649Y-109495112D01*
X76335112Y-109585649D01*
X76263978Y-109692110D01*
X76238958Y-109752511D01*
X75402295Y-108915848D01*
X75348600Y-108983180D01*
X75213709Y-109216818D01*
X75115148Y-109467947D01*
X75115142Y-109467966D01*
X75055113Y-109730971D01*
X75055113Y-109730973D01*
X75034953Y-109999995D01*
X73560499Y-109999995D01*
X73560499Y-108652128D01*
X73554091Y-108592517D01*
X73552542Y-108588365D01*
X73503797Y-108457671D01*
X73503793Y-108457664D01*
X73417547Y-108342455D01*
X73417544Y-108342452D01*
X73302335Y-108256206D01*
X73302328Y-108256202D01*
X73167482Y-108205908D01*
X73167483Y-108205908D01*
X73107883Y-108199501D01*
X73107881Y-108199500D01*
X73107873Y-108199500D01*
X73107864Y-108199500D01*
X70412129Y-108199500D01*
X70412123Y-108199501D01*
X70352516Y-108205908D01*
X70217671Y-108256202D01*
X70217664Y-108256206D01*
X70102455Y-108342452D01*
X70102452Y-108342455D01*
X70016206Y-108457664D01*
X70016202Y-108457671D01*
X69965908Y-108592517D01*
X69959501Y-108652116D01*
X69959501Y-108652123D01*
X69959500Y-108652135D01*
X69959500Y-109098770D01*
X69939815Y-109165809D01*
X69887011Y-109211564D01*
X69817853Y-109221508D01*
X69754297Y-109192483D01*
X69747819Y-109186451D01*
X63581959Y-103020592D01*
X58631360Y-98069992D01*
X143744671Y-98069992D01*
X143744671Y-98070007D01*
X143763964Y-98364363D01*
X143763965Y-98364373D01*
X143763966Y-98364380D01*
X143763968Y-98364390D01*
X143821518Y-98653716D01*
X143821521Y-98653730D01*
X143916349Y-98933080D01*
X144046825Y-99197660D01*
X144046829Y-99197667D01*
X144210725Y-99442955D01*
X144405241Y-99664758D01*
X144627043Y-99859273D01*
X144872335Y-100023172D01*
X145136923Y-100153652D01*
X145416278Y-100248481D01*
X145705620Y-100306034D01*
X145733888Y-100307886D01*
X145999993Y-100325329D01*
X146000000Y-100325329D01*
X146000007Y-100325329D01*
X146235675Y-100309881D01*
X146294380Y-100306034D01*
X146583722Y-100248481D01*
X146863077Y-100153652D01*
X147127665Y-100023172D01*
X147372957Y-99859273D01*
X147594758Y-99664758D01*
X147789273Y-99442957D01*
X147953172Y-99197665D01*
X148083652Y-98933077D01*
X148178481Y-98653722D01*
X148236034Y-98364380D01*
X148255329Y-98070000D01*
X148255329Y-98069992D01*
X148236035Y-97775636D01*
X148236034Y-97775620D01*
X148178481Y-97486278D01*
X148083652Y-97206923D01*
X147953172Y-96942336D01*
X147789273Y-96697043D01*
X147698603Y-96593654D01*
X147594758Y-96475241D01*
X147372955Y-96280725D01*
X147127667Y-96116829D01*
X147127660Y-96116825D01*
X146863080Y-95986349D01*
X146583730Y-95891521D01*
X146583724Y-95891519D01*
X146583722Y-95891519D01*
X146294380Y-95833966D01*
X146294373Y-95833965D01*
X146294363Y-95833964D01*
X146000007Y-95814671D01*
X145999993Y-95814671D01*
X145705636Y-95833964D01*
X145705624Y-95833965D01*
X145705620Y-95833966D01*
X145705612Y-95833967D01*
X145705609Y-95833968D01*
X145416283Y-95891518D01*
X145416269Y-95891521D01*
X145136919Y-95986349D01*
X144872334Y-96116828D01*
X144627041Y-96280728D01*
X144405241Y-96475241D01*
X144210728Y-96697041D01*
X144046828Y-96942334D01*
X143916349Y-97206919D01*
X143821521Y-97486269D01*
X143821518Y-97486283D01*
X143763968Y-97775609D01*
X143763964Y-97775636D01*
X143744671Y-98069992D01*
X58631360Y-98069992D01*
X57436546Y-96875178D01*
X57403063Y-96813858D01*
X57408047Y-96744166D01*
X57436544Y-96699823D01*
X57542712Y-96593656D01*
X57634814Y-96444334D01*
X57689999Y-96277797D01*
X57700500Y-96175009D01*
X57700499Y-94824992D01*
X57689999Y-94722203D01*
X57634814Y-94555666D01*
X57542712Y-94406344D01*
X57418656Y-94282288D01*
X57309404Y-94214901D01*
X57269336Y-94190187D01*
X57269331Y-94190185D01*
X57237997Y-94179802D01*
X57102797Y-94135001D01*
X57102795Y-94135000D01*
X57000010Y-94124500D01*
X56099998Y-94124500D01*
X56099980Y-94124501D01*
X55997203Y-94135000D01*
X55997200Y-94135001D01*
X55830668Y-94190185D01*
X55830663Y-94190187D01*
X55681342Y-94282289D01*
X55557289Y-94406342D01*
X55465187Y-94555663D01*
X55465187Y-94555664D01*
X55465186Y-94555666D01*
X55410001Y-94722203D01*
X55410001Y-94722204D01*
X55410000Y-94722204D01*
X55399500Y-94824983D01*
X54600498Y-94824983D01*
X54589999Y-94722203D01*
X54534814Y-94555666D01*
X54442712Y-94406344D01*
X54318656Y-94282288D01*
X54318655Y-94282287D01*
X54309402Y-94276580D01*
X54262678Y-94224632D01*
X54250500Y-94171042D01*
X54250500Y-92729019D01*
X54270185Y-92661980D01*
X54286821Y-92641336D01*
X54305469Y-92622688D01*
X54305472Y-92622685D01*
X54393478Y-92477106D01*
X54393478Y-92477103D01*
X54393883Y-92476435D01*
X54445411Y-92429247D01*
X54514270Y-92417409D01*
X54578599Y-92444678D01*
X54606117Y-92476435D01*
X54606521Y-92477103D01*
X54606522Y-92477106D01*
X54670397Y-92582767D01*
X54694530Y-92622688D01*
X54814811Y-92742969D01*
X54814813Y-92742970D01*
X54814815Y-92742972D01*
X54960394Y-92830978D01*
X55122804Y-92881586D01*
X55193384Y-92888000D01*
X55193387Y-92888000D01*
X55706612Y-92888000D01*
X55706616Y-92888000D01*
X55770256Y-92882216D01*
X55838800Y-92895752D01*
X55869158Y-92918026D01*
X56239964Y-93288832D01*
X56269323Y-93335554D01*
X56274211Y-93349522D01*
X56370184Y-93502262D01*
X56497738Y-93629816D01*
X56540998Y-93656998D01*
X56646508Y-93723295D01*
X56650478Y-93725789D01*
X56760388Y-93764248D01*
X56820745Y-93785368D01*
X56820750Y-93785369D01*
X56999996Y-93805565D01*
X57000000Y-93805565D01*
X57000004Y-93805565D01*
X57179249Y-93785369D01*
X57179252Y-93785368D01*
X57179255Y-93785368D01*
X57349522Y-93725789D01*
X57502262Y-93629816D01*
X57629816Y-93502262D01*
X57631240Y-93499996D01*
X58194435Y-93499996D01*
X58194435Y-93500003D01*
X58214630Y-93679249D01*
X58214631Y-93679254D01*
X58274211Y-93849523D01*
X58330169Y-93938579D01*
X58370184Y-94002262D01*
X58497738Y-94129816D01*
X58511061Y-94138187D01*
X58557352Y-94190521D01*
X58568001Y-94259575D01*
X58539626Y-94323423D01*
X58532771Y-94330861D01*
X58457289Y-94406344D01*
X58457286Y-94406348D01*
X58365187Y-94555662D01*
X58365186Y-94555664D01*
X58310001Y-94722203D01*
X58310000Y-94722204D01*
X58299500Y-94824984D01*
X58299500Y-96175015D01*
X58310000Y-96277795D01*
X58310001Y-96277797D01*
X58337593Y-96361065D01*
X58365186Y-96444335D01*
X58365187Y-96444337D01*
X58457286Y-96593651D01*
X58457289Y-96593655D01*
X58581344Y-96717710D01*
X58581348Y-96717713D01*
X58730662Y-96809812D01*
X58730664Y-96809813D01*
X58730666Y-96809814D01*
X58897203Y-96864999D01*
X58999992Y-96875500D01*
X58999997Y-96875500D01*
X60025003Y-96875500D01*
X60025008Y-96875500D01*
X60127797Y-96864999D01*
X60294334Y-96809814D01*
X60443655Y-96717711D01*
X60567711Y-96593655D01*
X60659814Y-96444334D01*
X60714999Y-96277797D01*
X60725500Y-96175008D01*
X60725500Y-94824992D01*
X60725499Y-94824984D01*
X61274500Y-94824984D01*
X61274500Y-96175015D01*
X61285000Y-96277795D01*
X61285001Y-96277797D01*
X61312593Y-96361065D01*
X61340186Y-96444335D01*
X61340187Y-96444337D01*
X61432286Y-96593651D01*
X61432289Y-96593655D01*
X61556344Y-96717710D01*
X61556348Y-96717713D01*
X61705662Y-96809812D01*
X61705664Y-96809813D01*
X61705666Y-96809814D01*
X61872203Y-96864999D01*
X61974992Y-96875500D01*
X61974997Y-96875500D01*
X63000003Y-96875500D01*
X63000008Y-96875500D01*
X63102797Y-96864999D01*
X63269334Y-96809814D01*
X63418655Y-96717711D01*
X63542711Y-96593655D01*
X63634814Y-96444334D01*
X63689999Y-96277797D01*
X63700500Y-96175008D01*
X63700500Y-94824992D01*
X63689999Y-94722203D01*
X63634814Y-94555666D01*
X63634813Y-94555664D01*
X63634812Y-94555662D01*
X63542713Y-94406348D01*
X63542710Y-94406344D01*
X63418654Y-94282288D01*
X63296902Y-94207190D01*
X63250178Y-94155242D01*
X63238000Y-94101652D01*
X63238000Y-93499996D01*
X64694435Y-93499996D01*
X64694435Y-93500003D01*
X64714630Y-93679249D01*
X64714631Y-93679254D01*
X64742542Y-93759017D01*
X64749500Y-93799972D01*
X64749500Y-95061418D01*
X64749500Y-95061420D01*
X64749499Y-95061420D01*
X64778340Y-95206407D01*
X64778343Y-95206417D01*
X64790061Y-95234706D01*
X64799500Y-95282158D01*
X64799500Y-96175015D01*
X64810000Y-96277795D01*
X64810001Y-96277797D01*
X64837593Y-96361065D01*
X64865186Y-96444335D01*
X64865187Y-96444337D01*
X64957286Y-96593651D01*
X64957289Y-96593655D01*
X65081344Y-96717710D01*
X65081348Y-96717713D01*
X65230662Y-96809812D01*
X65230664Y-96809813D01*
X65230666Y-96809814D01*
X65397203Y-96864999D01*
X65499992Y-96875500D01*
X65499997Y-96875500D01*
X66525003Y-96875500D01*
X66525008Y-96875500D01*
X66627797Y-96864999D01*
X66794334Y-96809814D01*
X66943655Y-96717711D01*
X67067711Y-96593655D01*
X67159814Y-96444334D01*
X67214999Y-96277797D01*
X67225500Y-96175008D01*
X67225500Y-94824992D01*
X67214999Y-94722203D01*
X67159814Y-94555666D01*
X67159813Y-94555664D01*
X67159812Y-94555662D01*
X67067713Y-94406348D01*
X67067710Y-94406344D01*
X66943655Y-94282289D01*
X66943651Y-94282286D01*
X66794337Y-94190187D01*
X66794335Y-94190186D01*
X66688880Y-94155242D01*
X66627797Y-94135001D01*
X66627795Y-94135000D01*
X66525015Y-94124500D01*
X66525008Y-94124500D01*
X66374500Y-94124500D01*
X66307461Y-94104815D01*
X66261706Y-94052011D01*
X66250500Y-94000500D01*
X66250500Y-93799972D01*
X66257458Y-93759017D01*
X66275660Y-93706998D01*
X66285368Y-93679255D01*
X66285369Y-93679246D01*
X66305565Y-93500003D01*
X66305565Y-93499996D01*
X66285369Y-93320750D01*
X66285368Y-93320745D01*
X66240297Y-93191940D01*
X66225789Y-93150478D01*
X66129816Y-92997738D01*
X66002262Y-92870184D01*
X65939866Y-92830978D01*
X65849523Y-92774211D01*
X65679254Y-92714631D01*
X65679249Y-92714630D01*
X65500004Y-92694435D01*
X65499996Y-92694435D01*
X65320750Y-92714630D01*
X65320745Y-92714631D01*
X65150476Y-92774211D01*
X64997737Y-92870184D01*
X64870184Y-92997737D01*
X64774211Y-93150476D01*
X64714631Y-93320745D01*
X64714630Y-93320750D01*
X64694435Y-93499996D01*
X63238000Y-93499996D01*
X63238000Y-89898347D01*
X63257685Y-89831308D01*
X63296901Y-89792810D01*
X63418656Y-89717712D01*
X63542712Y-89593656D01*
X63634814Y-89444334D01*
X63689999Y-89277797D01*
X63700500Y-89175009D01*
X63700499Y-87824992D01*
X63700498Y-87824983D01*
X64799500Y-87824983D01*
X64799500Y-89175001D01*
X64799501Y-89175018D01*
X64810000Y-89277796D01*
X64810001Y-89277799D01*
X64822228Y-89314696D01*
X64865186Y-89444334D01*
X64957288Y-89593656D01*
X65081344Y-89717712D01*
X65230666Y-89809814D01*
X65397203Y-89864999D01*
X65499991Y-89875500D01*
X66212769Y-89875499D01*
X66279808Y-89895183D01*
X66300450Y-89911818D01*
X68200681Y-91812049D01*
X68234166Y-91873372D01*
X68237000Y-91899730D01*
X68237000Y-94101652D01*
X68217315Y-94168691D01*
X68178098Y-94207190D01*
X68056345Y-94282288D01*
X67932289Y-94406344D01*
X67932286Y-94406348D01*
X67840187Y-94555662D01*
X67840186Y-94555664D01*
X67785001Y-94722203D01*
X67785000Y-94722204D01*
X67774500Y-94824984D01*
X67774500Y-96175015D01*
X67785000Y-96277795D01*
X67785001Y-96277797D01*
X67812593Y-96361065D01*
X67840186Y-96444335D01*
X67840187Y-96444337D01*
X67932286Y-96593651D01*
X67932289Y-96593655D01*
X68056344Y-96717710D01*
X68056348Y-96717713D01*
X68205662Y-96809812D01*
X68205664Y-96809813D01*
X68205666Y-96809814D01*
X68372203Y-96864999D01*
X68474992Y-96875500D01*
X68474997Y-96875500D01*
X69500003Y-96875500D01*
X69500008Y-96875500D01*
X69602797Y-96864999D01*
X69769334Y-96809814D01*
X69918655Y-96717711D01*
X70042711Y-96593655D01*
X70134814Y-96444334D01*
X70189999Y-96277797D01*
X70200500Y-96175008D01*
X70200500Y-94824992D01*
X70189999Y-94722203D01*
X70134814Y-94555666D01*
X70134813Y-94555664D01*
X70134812Y-94555662D01*
X70042713Y-94406348D01*
X70042710Y-94406344D01*
X69918654Y-94282288D01*
X69796902Y-94207190D01*
X69750178Y-94155242D01*
X69738000Y-94101652D01*
X69738000Y-93499996D01*
X71194435Y-93499996D01*
X71194435Y-93500003D01*
X71214630Y-93679249D01*
X71214631Y-93679254D01*
X71274211Y-93849523D01*
X71330169Y-93938579D01*
X71370184Y-94002262D01*
X71497738Y-94129816D01*
X71541767Y-94157481D01*
X71588058Y-94209816D01*
X71598706Y-94278869D01*
X71570331Y-94342718D01*
X71563478Y-94350155D01*
X71507286Y-94406348D01*
X71415187Y-94555662D01*
X71415186Y-94555664D01*
X71360001Y-94722203D01*
X71360000Y-94722204D01*
X71349500Y-94824984D01*
X71349500Y-96175015D01*
X71360000Y-96277795D01*
X71360001Y-96277797D01*
X71387593Y-96361065D01*
X71415186Y-96444335D01*
X71415187Y-96444337D01*
X71507286Y-96593651D01*
X71507289Y-96593655D01*
X71631344Y-96717710D01*
X71631348Y-96717713D01*
X71780662Y-96809812D01*
X71780664Y-96809813D01*
X71780666Y-96809814D01*
X71947203Y-96864999D01*
X72049992Y-96875500D01*
X72049997Y-96875500D01*
X73075003Y-96875500D01*
X73075008Y-96875500D01*
X73177797Y-96864999D01*
X73344334Y-96809814D01*
X73493655Y-96717711D01*
X73617711Y-96593655D01*
X73709814Y-96444334D01*
X73764999Y-96277797D01*
X73775500Y-96175008D01*
X73775500Y-94824992D01*
X73764999Y-94722203D01*
X73709814Y-94555666D01*
X73709813Y-94555664D01*
X73709812Y-94555662D01*
X73617713Y-94406348D01*
X73617710Y-94406344D01*
X73493654Y-94282288D01*
X73371902Y-94207190D01*
X73325178Y-94155242D01*
X73313000Y-94101652D01*
X73313000Y-93988579D01*
X73284159Y-93843592D01*
X73284158Y-93843591D01*
X73284158Y-93843587D01*
X73266092Y-93799972D01*
X73227587Y-93707011D01*
X73227580Y-93706998D01*
X73145452Y-93584085D01*
X73095451Y-93534084D01*
X73040916Y-93479549D01*
X72910889Y-93349522D01*
X72753308Y-93191940D01*
X72730643Y-93155870D01*
X72728812Y-93156753D01*
X72725792Y-93150483D01*
X72631237Y-93000000D01*
X72629816Y-92997738D01*
X72502262Y-92870184D01*
X72439866Y-92830978D01*
X72349523Y-92774211D01*
X72179254Y-92714631D01*
X72179249Y-92714630D01*
X72000004Y-92694435D01*
X71999996Y-92694435D01*
X71820750Y-92714630D01*
X71820745Y-92714631D01*
X71650476Y-92774211D01*
X71497737Y-92870184D01*
X71370184Y-92997737D01*
X71274211Y-93150476D01*
X71214631Y-93320745D01*
X71214630Y-93320750D01*
X71194435Y-93499996D01*
X69738000Y-93499996D01*
X69738000Y-91463580D01*
X69723925Y-91392825D01*
X69723925Y-91392823D01*
X69709159Y-91318588D01*
X69654908Y-91187617D01*
X69653265Y-91183025D01*
X69652584Y-91182005D01*
X69592675Y-91092344D01*
X69592675Y-91092343D01*
X69592673Y-91092342D01*
X69570452Y-91059084D01*
X68598548Y-90087180D01*
X68565063Y-90025857D01*
X68570047Y-89956165D01*
X68611919Y-89900232D01*
X68677383Y-89875815D01*
X68686203Y-89875499D01*
X69500008Y-89875499D01*
X69500016Y-89875498D01*
X69500019Y-89875498D01*
X69587907Y-89866520D01*
X69602797Y-89864999D01*
X69769334Y-89809814D01*
X69918656Y-89717712D01*
X70042712Y-89593656D01*
X70134814Y-89444334D01*
X70189999Y-89277797D01*
X70200500Y-89175009D01*
X70200499Y-87912228D01*
X70220184Y-87845190D01*
X70236467Y-87824983D01*
X71299500Y-87824983D01*
X71299500Y-89175001D01*
X71299501Y-89175018D01*
X71310000Y-89277796D01*
X71310001Y-89277799D01*
X71322228Y-89314696D01*
X71365186Y-89444334D01*
X71457288Y-89593656D01*
X71581344Y-89717712D01*
X71730666Y-89809814D01*
X71897203Y-89864999D01*
X71999991Y-89875500D01*
X72712769Y-89875499D01*
X72779808Y-89895183D01*
X72800450Y-89911818D01*
X74750681Y-91862048D01*
X74784166Y-91923371D01*
X74787000Y-91949729D01*
X74787000Y-94101652D01*
X74767315Y-94168691D01*
X74728098Y-94207190D01*
X74606345Y-94282288D01*
X74482289Y-94406344D01*
X74482286Y-94406348D01*
X74390187Y-94555662D01*
X74390186Y-94555664D01*
X74335001Y-94722203D01*
X74335000Y-94722204D01*
X74324500Y-94824984D01*
X74324500Y-96175015D01*
X74335000Y-96277795D01*
X74335001Y-96277797D01*
X74362593Y-96361065D01*
X74390186Y-96444335D01*
X74390187Y-96444337D01*
X74482286Y-96593651D01*
X74482289Y-96593655D01*
X74606344Y-96717710D01*
X74606348Y-96717713D01*
X74755662Y-96809812D01*
X74755664Y-96809813D01*
X74755666Y-96809814D01*
X74922203Y-96864999D01*
X75024992Y-96875500D01*
X75024997Y-96875500D01*
X76050003Y-96875500D01*
X76050008Y-96875500D01*
X76152797Y-96864999D01*
X76319334Y-96809814D01*
X76468655Y-96717711D01*
X76592711Y-96593655D01*
X76684814Y-96444334D01*
X76739999Y-96277797D01*
X76750500Y-96175008D01*
X76750500Y-94824992D01*
X76739999Y-94722203D01*
X76684814Y-94555666D01*
X76684813Y-94555664D01*
X76684812Y-94555662D01*
X76592713Y-94406348D01*
X76592710Y-94406344D01*
X76468654Y-94282288D01*
X76346902Y-94207190D01*
X76300178Y-94155242D01*
X76288000Y-94101652D01*
X76288000Y-93499996D01*
X77694435Y-93499996D01*
X77694435Y-93500003D01*
X77714630Y-93679249D01*
X77714631Y-93679254D01*
X77742542Y-93759017D01*
X77749500Y-93799972D01*
X77749500Y-95061418D01*
X77749500Y-95061420D01*
X77749499Y-95061420D01*
X77778340Y-95206407D01*
X77778343Y-95206417D01*
X77790061Y-95234706D01*
X77799500Y-95282158D01*
X77799500Y-96175015D01*
X77810000Y-96277795D01*
X77810001Y-96277797D01*
X77837593Y-96361065D01*
X77865186Y-96444335D01*
X77865187Y-96444337D01*
X77957286Y-96593651D01*
X77957289Y-96593655D01*
X78081344Y-96717710D01*
X78081348Y-96717713D01*
X78230662Y-96809812D01*
X78230664Y-96809813D01*
X78230666Y-96809814D01*
X78397203Y-96864999D01*
X78499992Y-96875500D01*
X78499997Y-96875500D01*
X79525003Y-96875500D01*
X79525008Y-96875500D01*
X79627797Y-96864999D01*
X79794334Y-96809814D01*
X79943655Y-96717711D01*
X80067711Y-96593655D01*
X80159814Y-96444334D01*
X80214999Y-96277797D01*
X80225500Y-96175008D01*
X80225500Y-94824992D01*
X80225499Y-94824984D01*
X80774500Y-94824984D01*
X80774500Y-96175015D01*
X80785000Y-96277795D01*
X80785001Y-96277797D01*
X80812593Y-96361065D01*
X80840186Y-96444335D01*
X80840187Y-96444337D01*
X80932286Y-96593651D01*
X80932289Y-96593655D01*
X81056344Y-96717710D01*
X81056348Y-96717713D01*
X81205662Y-96809812D01*
X81205664Y-96809813D01*
X81205666Y-96809814D01*
X81372203Y-96864999D01*
X81474992Y-96875500D01*
X81474997Y-96875500D01*
X82500003Y-96875500D01*
X82500008Y-96875500D01*
X82602797Y-96864999D01*
X82769334Y-96809814D01*
X82918655Y-96717711D01*
X83042711Y-96593655D01*
X83134814Y-96444334D01*
X83189999Y-96277797D01*
X83200500Y-96175008D01*
X83200500Y-94824992D01*
X83189999Y-94722203D01*
X83134814Y-94555666D01*
X83134813Y-94555664D01*
X83134812Y-94555662D01*
X83042713Y-94406348D01*
X83042712Y-94406347D01*
X83042711Y-94406345D01*
X82918655Y-94282289D01*
X82859401Y-94245740D01*
X82812678Y-94193791D01*
X82800500Y-94140202D01*
X82800500Y-93499996D01*
X84194435Y-93499996D01*
X84194435Y-93500003D01*
X84214630Y-93679249D01*
X84214631Y-93679254D01*
X84242542Y-93759017D01*
X84249500Y-93799972D01*
X84249500Y-95066418D01*
X84249500Y-95066420D01*
X84249499Y-95066420D01*
X84278340Y-95211408D01*
X84278341Y-95211410D01*
X84285061Y-95227633D01*
X84294500Y-95275087D01*
X84294500Y-96175015D01*
X84305000Y-96277795D01*
X84305001Y-96277797D01*
X84332593Y-96361065D01*
X84360186Y-96444335D01*
X84360187Y-96444337D01*
X84452286Y-96593651D01*
X84452289Y-96593655D01*
X84576344Y-96717710D01*
X84576348Y-96717713D01*
X84725662Y-96809812D01*
X84725664Y-96809813D01*
X84725666Y-96809814D01*
X84892203Y-96864999D01*
X84994992Y-96875500D01*
X84994997Y-96875500D01*
X86020003Y-96875500D01*
X86020008Y-96875500D01*
X86122797Y-96864999D01*
X86289334Y-96809814D01*
X86438655Y-96717711D01*
X86562711Y-96593655D01*
X86654814Y-96444334D01*
X86709999Y-96277797D01*
X86720500Y-96175008D01*
X86720500Y-94824992D01*
X86720499Y-94824984D01*
X87269500Y-94824984D01*
X87269500Y-96175015D01*
X87280000Y-96277795D01*
X87280001Y-96277797D01*
X87307593Y-96361065D01*
X87335186Y-96444335D01*
X87335187Y-96444337D01*
X87427286Y-96593651D01*
X87427289Y-96593655D01*
X87551344Y-96717710D01*
X87551348Y-96717713D01*
X87700662Y-96809812D01*
X87700664Y-96809813D01*
X87700666Y-96809814D01*
X87867203Y-96864999D01*
X87969992Y-96875500D01*
X87969997Y-96875500D01*
X88995003Y-96875500D01*
X88995008Y-96875500D01*
X89097797Y-96864999D01*
X89264334Y-96809814D01*
X89413655Y-96717711D01*
X89537711Y-96593655D01*
X89629814Y-96444334D01*
X89684999Y-96277797D01*
X89695500Y-96175008D01*
X89695500Y-94824992D01*
X89684999Y-94722203D01*
X89629814Y-94555666D01*
X89629813Y-94555664D01*
X89629812Y-94555662D01*
X89537713Y-94406348D01*
X89537710Y-94406344D01*
X89413654Y-94282288D01*
X89309402Y-94217984D01*
X89262678Y-94166036D01*
X89250500Y-94112446D01*
X89250500Y-89859797D01*
X89270185Y-89792758D01*
X89309403Y-89754258D01*
X89368656Y-89717712D01*
X89492712Y-89593656D01*
X89584814Y-89444334D01*
X89639999Y-89277797D01*
X89650500Y-89175009D01*
X89650499Y-87824992D01*
X89650498Y-87824983D01*
X90799500Y-87824983D01*
X90799500Y-89175001D01*
X90799501Y-89175018D01*
X90810000Y-89277796D01*
X90810001Y-89277799D01*
X90822228Y-89314696D01*
X90865186Y-89444334D01*
X90957288Y-89593656D01*
X91081344Y-89717712D01*
X91140596Y-89754258D01*
X91187321Y-89806204D01*
X91199500Y-89859797D01*
X91199500Y-94171043D01*
X91179815Y-94238082D01*
X91140601Y-94276579D01*
X91131347Y-94282287D01*
X91131344Y-94282289D01*
X91007289Y-94406344D01*
X91007286Y-94406348D01*
X90915187Y-94555662D01*
X90915186Y-94555664D01*
X90860001Y-94722203D01*
X90860000Y-94722204D01*
X90849500Y-94824984D01*
X90849500Y-96175015D01*
X90860000Y-96277795D01*
X90860001Y-96277797D01*
X90887593Y-96361065D01*
X90915186Y-96444335D01*
X90915187Y-96444337D01*
X91007286Y-96593651D01*
X91007289Y-96593655D01*
X91131344Y-96717710D01*
X91131348Y-96717713D01*
X91280662Y-96809812D01*
X91280664Y-96809813D01*
X91280666Y-96809814D01*
X91447203Y-96864999D01*
X91549992Y-96875500D01*
X91549997Y-96875500D01*
X92575003Y-96875500D01*
X92575008Y-96875500D01*
X92677797Y-96864999D01*
X92844334Y-96809814D01*
X92993655Y-96717711D01*
X93117711Y-96593655D01*
X93209814Y-96444334D01*
X93264999Y-96277797D01*
X93275500Y-96175008D01*
X93275500Y-94824992D01*
X93275499Y-94824984D01*
X93824500Y-94824984D01*
X93824500Y-96175015D01*
X93835000Y-96277795D01*
X93835001Y-96277797D01*
X93862593Y-96361065D01*
X93890186Y-96444335D01*
X93890187Y-96444337D01*
X93982286Y-96593651D01*
X93982289Y-96593655D01*
X94106344Y-96717710D01*
X94106348Y-96717713D01*
X94255662Y-96809812D01*
X94255664Y-96809813D01*
X94255666Y-96809814D01*
X94422203Y-96864999D01*
X94524992Y-96875500D01*
X94524997Y-96875500D01*
X95550003Y-96875500D01*
X95550008Y-96875500D01*
X95652797Y-96864999D01*
X95819334Y-96809814D01*
X95968655Y-96717711D01*
X96092711Y-96593655D01*
X96184814Y-96444334D01*
X96239999Y-96277797D01*
X96250500Y-96175008D01*
X96250500Y-94824992D01*
X96239999Y-94722203D01*
X96184814Y-94555666D01*
X96184813Y-94555664D01*
X96184812Y-94555662D01*
X96092713Y-94406348D01*
X96092710Y-94406344D01*
X95968654Y-94282288D01*
X95846902Y-94207190D01*
X95800178Y-94155242D01*
X95788000Y-94101652D01*
X95788000Y-93835691D01*
X95794959Y-93794736D01*
X95807458Y-93759017D01*
X95835368Y-93679255D01*
X95840938Y-93629816D01*
X95855565Y-93500003D01*
X95855565Y-93499996D01*
X95835369Y-93320750D01*
X95835368Y-93320745D01*
X95790297Y-93191940D01*
X95775789Y-93150478D01*
X95679816Y-92997738D01*
X95552262Y-92870184D01*
X95489866Y-92830978D01*
X95399523Y-92774211D01*
X95229254Y-92714631D01*
X95229249Y-92714630D01*
X95050004Y-92694435D01*
X95049996Y-92694435D01*
X94870750Y-92714630D01*
X94870745Y-92714631D01*
X94700476Y-92774211D01*
X94547737Y-92870184D01*
X94420184Y-92997737D01*
X94324211Y-93150476D01*
X94264631Y-93320745D01*
X94264630Y-93320750D01*
X94244435Y-93499996D01*
X94244435Y-93500003D01*
X94264630Y-93679246D01*
X94264632Y-93679255D01*
X94280042Y-93723295D01*
X94287000Y-93764248D01*
X94287000Y-94101652D01*
X94267315Y-94168691D01*
X94228098Y-94207190D01*
X94106345Y-94282288D01*
X93982289Y-94406344D01*
X93982286Y-94406348D01*
X93890187Y-94555662D01*
X93890186Y-94555664D01*
X93835001Y-94722203D01*
X93835000Y-94722204D01*
X93824500Y-94824984D01*
X93275499Y-94824984D01*
X93264999Y-94722203D01*
X93209814Y-94555666D01*
X93209813Y-94555664D01*
X93209812Y-94555662D01*
X93117713Y-94406348D01*
X93117710Y-94406344D01*
X92993655Y-94282289D01*
X92993651Y-94282286D01*
X92844337Y-94190187D01*
X92844334Y-94190186D01*
X92785496Y-94170689D01*
X92728051Y-94130916D01*
X92701228Y-94066400D01*
X92700500Y-94052983D01*
X92700500Y-89859797D01*
X92720185Y-89792758D01*
X92759403Y-89754258D01*
X92818656Y-89717712D01*
X92942712Y-89593656D01*
X93034814Y-89444334D01*
X93089999Y-89277797D01*
X93100500Y-89175009D01*
X93100499Y-87824992D01*
X93100498Y-87824983D01*
X93899500Y-87824983D01*
X93899500Y-89175001D01*
X93899501Y-89175018D01*
X93910000Y-89277796D01*
X93910001Y-89277799D01*
X93922228Y-89314696D01*
X93965186Y-89444334D01*
X94057288Y-89593656D01*
X94181344Y-89717712D01*
X94330666Y-89809814D01*
X94497203Y-89864999D01*
X94599991Y-89875500D01*
X95500008Y-89875499D01*
X95500016Y-89875498D01*
X95500019Y-89875498D01*
X95587907Y-89866520D01*
X95602797Y-89864999D01*
X95769334Y-89809814D01*
X95918656Y-89717712D01*
X96042712Y-89593656D01*
X96100480Y-89499998D01*
X140414677Y-89499998D01*
X140414677Y-89500001D01*
X140433943Y-89769382D01*
X140489737Y-90025857D01*
X140491350Y-90033270D01*
X140522540Y-90116893D01*
X140585728Y-90286308D01*
X140585730Y-90286312D01*
X140715152Y-90523331D01*
X140715157Y-90523339D01*
X140876993Y-90739527D01*
X140877009Y-90739545D01*
X141067954Y-90930490D01*
X141067972Y-90930506D01*
X141284160Y-91092342D01*
X141284168Y-91092347D01*
X141521187Y-91221769D01*
X141521191Y-91221771D01*
X141521193Y-91221772D01*
X141774230Y-91316150D01*
X141859732Y-91334750D01*
X142038117Y-91373556D01*
X142038119Y-91373556D01*
X142038123Y-91373557D01*
X142277507Y-91390677D01*
X142307499Y-91392823D01*
X142307500Y-91392823D01*
X142307501Y-91392823D01*
X142334487Y-91390892D01*
X142576877Y-91373557D01*
X142599724Y-91368587D01*
X142614788Y-91365309D01*
X142840770Y-91316150D01*
X143093807Y-91221772D01*
X143330837Y-91092344D01*
X143547035Y-90930500D01*
X143738000Y-90739535D01*
X143899844Y-90523337D01*
X144029272Y-90286307D01*
X144123650Y-90033270D01*
X144175971Y-89792758D01*
X144181056Y-89769382D01*
X144181056Y-89769381D01*
X144181057Y-89769377D01*
X144200323Y-89500000D01*
X144181057Y-89230623D01*
X144169381Y-89176952D01*
X144150198Y-89088770D01*
X144123650Y-88966730D01*
X144029272Y-88713693D01*
X143972454Y-88609638D01*
X143899847Y-88476668D01*
X143899842Y-88476660D01*
X143738006Y-88260472D01*
X143737990Y-88260454D01*
X143547045Y-88069509D01*
X143547027Y-88069493D01*
X143330839Y-87907657D01*
X143330831Y-87907652D01*
X143093812Y-87778230D01*
X143093808Y-87778228D01*
X142943882Y-87722309D01*
X142840770Y-87683850D01*
X142840766Y-87683849D01*
X142840763Y-87683848D01*
X142576882Y-87626443D01*
X142307501Y-87607177D01*
X142307499Y-87607177D01*
X142038117Y-87626443D01*
X141774236Y-87683848D01*
X141774231Y-87683849D01*
X141774230Y-87683850D01*
X141713051Y-87706668D01*
X141521191Y-87778228D01*
X141521187Y-87778230D01*
X141284168Y-87907652D01*
X141284160Y-87907657D01*
X141067972Y-88069493D01*
X141067954Y-88069509D01*
X140877009Y-88260454D01*
X140876993Y-88260472D01*
X140715157Y-88476660D01*
X140715152Y-88476668D01*
X140585729Y-88713689D01*
X140491348Y-88966736D01*
X140433943Y-89230617D01*
X140414677Y-89499998D01*
X96100480Y-89499998D01*
X96134814Y-89444334D01*
X96189999Y-89277797D01*
X96200500Y-89175009D01*
X96200499Y-87824992D01*
X96189999Y-87722203D01*
X96134814Y-87555666D01*
X96042712Y-87406344D01*
X95918656Y-87282288D01*
X95918655Y-87282287D01*
X95859402Y-87245739D01*
X95812678Y-87193791D01*
X95800500Y-87140201D01*
X95800500Y-86299972D01*
X95807458Y-86259017D01*
X95830056Y-86194435D01*
X95835368Y-86179255D01*
X95838610Y-86150483D01*
X95855565Y-86000003D01*
X95855565Y-85999996D01*
X95835369Y-85820750D01*
X95835368Y-85820745D01*
X95775788Y-85650476D01*
X95679815Y-85497737D01*
X95552262Y-85370184D01*
X95399523Y-85274211D01*
X95229254Y-85214631D01*
X95229249Y-85214630D01*
X95050004Y-85194435D01*
X95049996Y-85194435D01*
X94870750Y-85214630D01*
X94870745Y-85214631D01*
X94700476Y-85274211D01*
X94547737Y-85370184D01*
X94420184Y-85497737D01*
X94324211Y-85650476D01*
X94264631Y-85820745D01*
X94264630Y-85820750D01*
X94244435Y-85999996D01*
X94244435Y-86000003D01*
X94264630Y-86179249D01*
X94264631Y-86179254D01*
X94292542Y-86259017D01*
X94299500Y-86299972D01*
X94299500Y-87140201D01*
X94279815Y-87207240D01*
X94240598Y-87245739D01*
X94181344Y-87282287D01*
X94057289Y-87406342D01*
X93965187Y-87555663D01*
X93965185Y-87555668D01*
X93939046Y-87634551D01*
X93910001Y-87722203D01*
X93910001Y-87722204D01*
X93910000Y-87722204D01*
X93899500Y-87824983D01*
X93100498Y-87824983D01*
X93089999Y-87722203D01*
X93034814Y-87555666D01*
X92942712Y-87406344D01*
X92818656Y-87282288D01*
X92722275Y-87222840D01*
X92669336Y-87190187D01*
X92669331Y-87190185D01*
X92636346Y-87179255D01*
X92502797Y-87135001D01*
X92502795Y-87135000D01*
X92400010Y-87124500D01*
X91499998Y-87124500D01*
X91499980Y-87124501D01*
X91397203Y-87135000D01*
X91397200Y-87135001D01*
X91230668Y-87190185D01*
X91230663Y-87190187D01*
X91081342Y-87282289D01*
X90957289Y-87406342D01*
X90865187Y-87555663D01*
X90865185Y-87555668D01*
X90839046Y-87634551D01*
X90810001Y-87722203D01*
X90810001Y-87722204D01*
X90810000Y-87722204D01*
X90799500Y-87824983D01*
X89650498Y-87824983D01*
X89639999Y-87722203D01*
X89584814Y-87555666D01*
X89492712Y-87406344D01*
X89368656Y-87282288D01*
X89272275Y-87222840D01*
X89219336Y-87190187D01*
X89219331Y-87190185D01*
X89186346Y-87179255D01*
X89052797Y-87135001D01*
X89052795Y-87135000D01*
X88950010Y-87124500D01*
X88049998Y-87124500D01*
X88049980Y-87124501D01*
X87947203Y-87135000D01*
X87947200Y-87135001D01*
X87780668Y-87190185D01*
X87780663Y-87190187D01*
X87631342Y-87282289D01*
X87507289Y-87406342D01*
X87415187Y-87555663D01*
X87415185Y-87555668D01*
X87389046Y-87634551D01*
X87360001Y-87722203D01*
X87360001Y-87722204D01*
X87360000Y-87722204D01*
X87349500Y-87824983D01*
X87349500Y-89175001D01*
X87349501Y-89175018D01*
X87360000Y-89277796D01*
X87360001Y-89277799D01*
X87372228Y-89314696D01*
X87415186Y-89444334D01*
X87507288Y-89593656D01*
X87631344Y-89717712D01*
X87690596Y-89754258D01*
X87737321Y-89806204D01*
X87749500Y-89859797D01*
X87749500Y-94090858D01*
X87729815Y-94157897D01*
X87690597Y-94196396D01*
X87551348Y-94282286D01*
X87551344Y-94282289D01*
X87427289Y-94406344D01*
X87427286Y-94406348D01*
X87335187Y-94555662D01*
X87335186Y-94555664D01*
X87280001Y-94722203D01*
X87280000Y-94722204D01*
X87269500Y-94824984D01*
X86720499Y-94824984D01*
X86709999Y-94722203D01*
X86654814Y-94555666D01*
X86654813Y-94555664D01*
X86654812Y-94555662D01*
X86562713Y-94406348D01*
X86562710Y-94406344D01*
X86438655Y-94282289D01*
X86438651Y-94282286D01*
X86289337Y-94190187D01*
X86289335Y-94190186D01*
X86183880Y-94155242D01*
X86122797Y-94135001D01*
X86122795Y-94135000D01*
X86020015Y-94124500D01*
X86020008Y-94124500D01*
X85874500Y-94124500D01*
X85807461Y-94104815D01*
X85761706Y-94052011D01*
X85750500Y-94000500D01*
X85750500Y-93799972D01*
X85757458Y-93759017D01*
X85775660Y-93706998D01*
X85785368Y-93679255D01*
X85785369Y-93679246D01*
X85805565Y-93500003D01*
X85805565Y-93499996D01*
X85785369Y-93320750D01*
X85785368Y-93320745D01*
X85740297Y-93191940D01*
X85725789Y-93150478D01*
X85629816Y-92997738D01*
X85502262Y-92870184D01*
X85439866Y-92830978D01*
X85349523Y-92774211D01*
X85179254Y-92714631D01*
X85179249Y-92714630D01*
X85000004Y-92694435D01*
X84999996Y-92694435D01*
X84820750Y-92714630D01*
X84820745Y-92714631D01*
X84650476Y-92774211D01*
X84497737Y-92870184D01*
X84370184Y-92997737D01*
X84274211Y-93150476D01*
X84214631Y-93320745D01*
X84214630Y-93320750D01*
X84194435Y-93499996D01*
X82800500Y-93499996D01*
X82800500Y-89859797D01*
X82820185Y-89792758D01*
X82859403Y-89754258D01*
X82918656Y-89717712D01*
X83042712Y-89593656D01*
X83134814Y-89444334D01*
X83189999Y-89277797D01*
X83200500Y-89175009D01*
X83200499Y-87824992D01*
X83189999Y-87722203D01*
X83134814Y-87555666D01*
X83042712Y-87406344D01*
X82918656Y-87282288D01*
X82822275Y-87222840D01*
X82769336Y-87190187D01*
X82769331Y-87190185D01*
X82736346Y-87179255D01*
X82602797Y-87135001D01*
X82602795Y-87135000D01*
X82500010Y-87124500D01*
X81599998Y-87124500D01*
X81599980Y-87124501D01*
X81497203Y-87135000D01*
X81497200Y-87135001D01*
X81330668Y-87190185D01*
X81330663Y-87190187D01*
X81181342Y-87282289D01*
X81057289Y-87406342D01*
X80965187Y-87555663D01*
X80965185Y-87555668D01*
X80939046Y-87634551D01*
X80910001Y-87722203D01*
X80910001Y-87722204D01*
X80910000Y-87722204D01*
X80899500Y-87824983D01*
X80899500Y-89175001D01*
X80899501Y-89175018D01*
X80910000Y-89277796D01*
X80910001Y-89277799D01*
X80922228Y-89314696D01*
X80965186Y-89444334D01*
X81057288Y-89593656D01*
X81181344Y-89717712D01*
X81240596Y-89754258D01*
X81287321Y-89806204D01*
X81299500Y-89859797D01*
X81299500Y-94069551D01*
X81279815Y-94136590D01*
X81227011Y-94182345D01*
X81214507Y-94187256D01*
X81205669Y-94190184D01*
X81205660Y-94190188D01*
X81056345Y-94282288D01*
X80932289Y-94406344D01*
X80932286Y-94406348D01*
X80840187Y-94555662D01*
X80840186Y-94555664D01*
X80785001Y-94722203D01*
X80785000Y-94722204D01*
X80774500Y-94824984D01*
X80225499Y-94824984D01*
X80214999Y-94722203D01*
X80159814Y-94555666D01*
X80159813Y-94555664D01*
X80159812Y-94555662D01*
X80067713Y-94406348D01*
X80067710Y-94406344D01*
X79943655Y-94282289D01*
X79943651Y-94282286D01*
X79794337Y-94190187D01*
X79794335Y-94190186D01*
X79688880Y-94155242D01*
X79627797Y-94135001D01*
X79627795Y-94135000D01*
X79525015Y-94124500D01*
X79525008Y-94124500D01*
X79374500Y-94124500D01*
X79307461Y-94104815D01*
X79261706Y-94052011D01*
X79250500Y-94000500D01*
X79250500Y-93799972D01*
X79257458Y-93759017D01*
X79275660Y-93706998D01*
X79285368Y-93679255D01*
X79285369Y-93679246D01*
X79305565Y-93500003D01*
X79305565Y-93499996D01*
X79285369Y-93320750D01*
X79285368Y-93320745D01*
X79240297Y-93191940D01*
X79225789Y-93150478D01*
X79129816Y-92997738D01*
X79002262Y-92870184D01*
X78939866Y-92830978D01*
X78849523Y-92774211D01*
X78679254Y-92714631D01*
X78679249Y-92714630D01*
X78500004Y-92694435D01*
X78499996Y-92694435D01*
X78320750Y-92714630D01*
X78320745Y-92714631D01*
X78150476Y-92774211D01*
X77997737Y-92870184D01*
X77870184Y-92997737D01*
X77774211Y-93150476D01*
X77714631Y-93320745D01*
X77714630Y-93320750D01*
X77694435Y-93499996D01*
X76288000Y-93499996D01*
X76288000Y-91513579D01*
X76259159Y-91368592D01*
X76259158Y-91368591D01*
X76259158Y-91368587D01*
X76243712Y-91331296D01*
X76202587Y-91232011D01*
X76202580Y-91231998D01*
X76120452Y-91109085D01*
X76070451Y-91059084D01*
X76015916Y-91004549D01*
X75098046Y-90086679D01*
X75064562Y-90025357D01*
X75069546Y-89955665D01*
X75111418Y-89899732D01*
X75176882Y-89875315D01*
X75185728Y-89874999D01*
X75299999Y-89874999D01*
X75800000Y-89874999D01*
X75999972Y-89874999D01*
X75999986Y-89874998D01*
X76102697Y-89864505D01*
X76269119Y-89809358D01*
X76269124Y-89809356D01*
X76418345Y-89717315D01*
X76542315Y-89593345D01*
X76634356Y-89444124D01*
X76634358Y-89444119D01*
X76689505Y-89277697D01*
X76689506Y-89277690D01*
X76699999Y-89174986D01*
X76700000Y-89174973D01*
X76700000Y-88750000D01*
X75800000Y-88750000D01*
X75800000Y-89874999D01*
X75299999Y-89874999D01*
X75300000Y-89874998D01*
X75300000Y-88750000D01*
X74400001Y-88750000D01*
X74400001Y-89089271D01*
X74380316Y-89156310D01*
X74327512Y-89202065D01*
X74258354Y-89212009D01*
X74194798Y-89182984D01*
X74188320Y-89176952D01*
X73636818Y-88625450D01*
X73603333Y-88564127D01*
X73600499Y-88537769D01*
X73600499Y-87825013D01*
X74400000Y-87825013D01*
X74400000Y-88250000D01*
X75300000Y-88250000D01*
X75800000Y-88250000D01*
X76699999Y-88250000D01*
X76699999Y-87825028D01*
X76699998Y-87825013D01*
X76699995Y-87824983D01*
X77799500Y-87824983D01*
X77799500Y-89175001D01*
X77799501Y-89175018D01*
X77810000Y-89277796D01*
X77810001Y-89277799D01*
X77822228Y-89314696D01*
X77865186Y-89444334D01*
X77957288Y-89593656D01*
X78081344Y-89717712D01*
X78230666Y-89809814D01*
X78397203Y-89864999D01*
X78499991Y-89875500D01*
X79400008Y-89875499D01*
X79400016Y-89875498D01*
X79400019Y-89875498D01*
X79487907Y-89866520D01*
X79502797Y-89864999D01*
X79669334Y-89809814D01*
X79818656Y-89717712D01*
X79942712Y-89593656D01*
X80034814Y-89444334D01*
X80089999Y-89277797D01*
X80100500Y-89175009D01*
X80100499Y-87824992D01*
X80089999Y-87722203D01*
X80034814Y-87555666D01*
X79942712Y-87406344D01*
X79820531Y-87284163D01*
X79787046Y-87222840D01*
X79784992Y-87182599D01*
X79805565Y-87000003D01*
X79805565Y-86999996D01*
X79785369Y-86820750D01*
X79785368Y-86820745D01*
X79751397Y-86723661D01*
X79725789Y-86650478D01*
X79629816Y-86497738D01*
X79502262Y-86370184D01*
X79349523Y-86274211D01*
X79179254Y-86214631D01*
X79179249Y-86214630D01*
X79000004Y-86194435D01*
X78999996Y-86194435D01*
X78820750Y-86214630D01*
X78820745Y-86214631D01*
X78650476Y-86274211D01*
X78497737Y-86370184D01*
X78370184Y-86497737D01*
X78274211Y-86650476D01*
X78214631Y-86820745D01*
X78214630Y-86820750D01*
X78194435Y-86999996D01*
X78194435Y-87000004D01*
X78208020Y-87120581D01*
X78195965Y-87189403D01*
X78149898Y-87240002D01*
X78081344Y-87282287D01*
X77957289Y-87406342D01*
X77865187Y-87555663D01*
X77865185Y-87555668D01*
X77839046Y-87634551D01*
X77810001Y-87722203D01*
X77810001Y-87722204D01*
X77810000Y-87722204D01*
X77799500Y-87824983D01*
X76699995Y-87824983D01*
X76689505Y-87722302D01*
X76634358Y-87555880D01*
X76634356Y-87555875D01*
X76542315Y-87406654D01*
X76418345Y-87282684D01*
X76269124Y-87190643D01*
X76269119Y-87190641D01*
X76102697Y-87135494D01*
X76102690Y-87135493D01*
X75999986Y-87125000D01*
X75800000Y-87125000D01*
X75800000Y-88250000D01*
X75300000Y-88250000D01*
X75300000Y-87125000D01*
X75100029Y-87125000D01*
X75100012Y-87125001D01*
X74997302Y-87135494D01*
X74830880Y-87190641D01*
X74830875Y-87190643D01*
X74681654Y-87282684D01*
X74557684Y-87406654D01*
X74465643Y-87555875D01*
X74465641Y-87555880D01*
X74410494Y-87722302D01*
X74410493Y-87722309D01*
X74400000Y-87825013D01*
X73600499Y-87825013D01*
X73600499Y-87824998D01*
X73600498Y-87824981D01*
X73589999Y-87722203D01*
X73589998Y-87722200D01*
X73559739Y-87630886D01*
X73534814Y-87555666D01*
X73442712Y-87406344D01*
X73318656Y-87282288D01*
X73222275Y-87222840D01*
X73169336Y-87190187D01*
X73169331Y-87190185D01*
X73136346Y-87179255D01*
X73002797Y-87135001D01*
X73002795Y-87135000D01*
X72900010Y-87124500D01*
X71999998Y-87124500D01*
X71999980Y-87124501D01*
X71897203Y-87135000D01*
X71897200Y-87135001D01*
X71730668Y-87190185D01*
X71730663Y-87190187D01*
X71581342Y-87282289D01*
X71457289Y-87406342D01*
X71365187Y-87555663D01*
X71365185Y-87555668D01*
X71339046Y-87634551D01*
X71310001Y-87722203D01*
X71310001Y-87722204D01*
X71310000Y-87722204D01*
X71299500Y-87824983D01*
X70236467Y-87824983D01*
X70236814Y-87824552D01*
X70808059Y-87253306D01*
X70844132Y-87230657D01*
X70843244Y-87228813D01*
X70849515Y-87225792D01*
X70849516Y-87225790D01*
X70849522Y-87225789D01*
X71002262Y-87129816D01*
X71129816Y-87002262D01*
X71225789Y-86849522D01*
X71285368Y-86679255D01*
X71285369Y-86679249D01*
X71305565Y-86500003D01*
X71305565Y-86499996D01*
X71285369Y-86320750D01*
X71285368Y-86320745D01*
X71278099Y-86299972D01*
X71225789Y-86150478D01*
X71129816Y-85997738D01*
X71002262Y-85870184D01*
X70849523Y-85774211D01*
X70679254Y-85714631D01*
X70679249Y-85714630D01*
X70500004Y-85694435D01*
X70499996Y-85694435D01*
X70320750Y-85714630D01*
X70320745Y-85714631D01*
X70150476Y-85774211D01*
X69997737Y-85870184D01*
X69870184Y-85997737D01*
X69774208Y-86150483D01*
X69771186Y-86156758D01*
X69769361Y-86155878D01*
X69746692Y-86191939D01*
X68850449Y-87088181D01*
X68789126Y-87121666D01*
X68762769Y-87124500D01*
X68599999Y-87124500D01*
X68599980Y-87124501D01*
X68497203Y-87135000D01*
X68497200Y-87135001D01*
X68330668Y-87190185D01*
X68330663Y-87190187D01*
X68181342Y-87282289D01*
X68057289Y-87406342D01*
X67965187Y-87555663D01*
X67965185Y-87555668D01*
X67939046Y-87634551D01*
X67910001Y-87722203D01*
X67910001Y-87722204D01*
X67910000Y-87722204D01*
X67899500Y-87824983D01*
X67899500Y-89088770D01*
X67879815Y-89155809D01*
X67827011Y-89201564D01*
X67757853Y-89211508D01*
X67694297Y-89182483D01*
X67687819Y-89176451D01*
X67136818Y-88625450D01*
X67103333Y-88564127D01*
X67100499Y-88537769D01*
X67100499Y-87824998D01*
X67100498Y-87824981D01*
X67089999Y-87722203D01*
X67089998Y-87722200D01*
X67059739Y-87630886D01*
X67034814Y-87555666D01*
X66942712Y-87406344D01*
X66818656Y-87282288D01*
X66722275Y-87222840D01*
X66669336Y-87190187D01*
X66669331Y-87190185D01*
X66636346Y-87179255D01*
X66502797Y-87135001D01*
X66502795Y-87135000D01*
X66400010Y-87124500D01*
X65499998Y-87124500D01*
X65499980Y-87124501D01*
X65397203Y-87135000D01*
X65397200Y-87135001D01*
X65230668Y-87190185D01*
X65230663Y-87190187D01*
X65081342Y-87282289D01*
X64957289Y-87406342D01*
X64865187Y-87555663D01*
X64865185Y-87555668D01*
X64839046Y-87634551D01*
X64810001Y-87722203D01*
X64810001Y-87722204D01*
X64810000Y-87722204D01*
X64799500Y-87824983D01*
X63700498Y-87824983D01*
X63689999Y-87722203D01*
X63634814Y-87555666D01*
X63542712Y-87406344D01*
X63418656Y-87282288D01*
X63322275Y-87222840D01*
X63269336Y-87190187D01*
X63269331Y-87190185D01*
X63236346Y-87179255D01*
X63102797Y-87135001D01*
X63102795Y-87135000D01*
X63000010Y-87124500D01*
X62099998Y-87124500D01*
X62099980Y-87124501D01*
X61997203Y-87135000D01*
X61997200Y-87135001D01*
X61830668Y-87190185D01*
X61830663Y-87190187D01*
X61681342Y-87282289D01*
X61557289Y-87406342D01*
X61465187Y-87555663D01*
X61465185Y-87555668D01*
X61439046Y-87634551D01*
X61410001Y-87722203D01*
X61410001Y-87722204D01*
X61410000Y-87722204D01*
X61399500Y-87824983D01*
X61399500Y-89175001D01*
X61399501Y-89175018D01*
X61410000Y-89277796D01*
X61410001Y-89277799D01*
X61422228Y-89314696D01*
X61465186Y-89444334D01*
X61557096Y-89593345D01*
X61557289Y-89593657D01*
X61681345Y-89717713D01*
X61687013Y-89722195D01*
X61685570Y-89724019D01*
X61724820Y-89767654D01*
X61737000Y-89821248D01*
X61737000Y-94101652D01*
X61717315Y-94168691D01*
X61678098Y-94207190D01*
X61556345Y-94282288D01*
X61432289Y-94406344D01*
X61432286Y-94406348D01*
X61340187Y-94555662D01*
X61340186Y-94555664D01*
X61285001Y-94722203D01*
X61285000Y-94722204D01*
X61274500Y-94824984D01*
X60725499Y-94824984D01*
X60714999Y-94722203D01*
X60659814Y-94555666D01*
X60659813Y-94555664D01*
X60659812Y-94555662D01*
X60567713Y-94406348D01*
X60567710Y-94406344D01*
X60443654Y-94282288D01*
X60321902Y-94207190D01*
X60275178Y-94155242D01*
X60263000Y-94101652D01*
X60263000Y-93938579D01*
X60234159Y-93793592D01*
X60234158Y-93793591D01*
X60234158Y-93793587D01*
X60228075Y-93778902D01*
X60177587Y-93657011D01*
X60177580Y-93656998D01*
X60095452Y-93534085D01*
X60061363Y-93499996D01*
X59990916Y-93429549D01*
X59882112Y-93320745D01*
X59753308Y-93191940D01*
X59730643Y-93155870D01*
X59728812Y-93156753D01*
X59725792Y-93150483D01*
X59631237Y-93000000D01*
X59629816Y-92997738D01*
X59502262Y-92870184D01*
X59439866Y-92830978D01*
X59349523Y-92774211D01*
X59179254Y-92714631D01*
X59179249Y-92714630D01*
X59000004Y-92694435D01*
X58999996Y-92694435D01*
X58820750Y-92714630D01*
X58820745Y-92714631D01*
X58650476Y-92774211D01*
X58497737Y-92870184D01*
X58370184Y-92997737D01*
X58274211Y-93150476D01*
X58214631Y-93320745D01*
X58214630Y-93320750D01*
X58194435Y-93499996D01*
X57631240Y-93499996D01*
X57725789Y-93349522D01*
X57785368Y-93179255D01*
X57786194Y-93171926D01*
X57805565Y-93000003D01*
X57805565Y-92999996D01*
X57785369Y-92820750D01*
X57785368Y-92820745D01*
X57735299Y-92677657D01*
X57725789Y-92650478D01*
X57708327Y-92622688D01*
X57661523Y-92548199D01*
X57629816Y-92497738D01*
X57502262Y-92370184D01*
X57357466Y-92279203D01*
X57335759Y-92261891D01*
X56386819Y-91312951D01*
X56353334Y-91251628D01*
X56350500Y-91225270D01*
X56350500Y-90630886D01*
X56344086Y-90560307D01*
X56344086Y-90560304D01*
X56293478Y-90397894D01*
X56205472Y-90252315D01*
X56205470Y-90252313D01*
X56205469Y-90252311D01*
X56085188Y-90132030D01*
X56010170Y-90086680D01*
X55939606Y-90044022D01*
X55777196Y-89993414D01*
X55777194Y-89993413D01*
X55777192Y-89993413D01*
X55727778Y-89988923D01*
X55706616Y-89987000D01*
X55193384Y-89987000D01*
X55192276Y-89987100D01*
X55185510Y-89987715D01*
X55116965Y-89974173D01*
X55066623Y-89925722D01*
X55050467Y-89857746D01*
X55073627Y-89791826D01*
X55110146Y-89758108D01*
X55135185Y-89742972D01*
X55255472Y-89622685D01*
X55343478Y-89477106D01*
X55394086Y-89314696D01*
X55400500Y-89244116D01*
X55400500Y-87630884D01*
X55394086Y-87560304D01*
X55343478Y-87397894D01*
X55268382Y-87273671D01*
X55250500Y-87209523D01*
X55250500Y-80926079D01*
X55236619Y-80856299D01*
X55221659Y-80781088D01*
X55167408Y-80650117D01*
X55165764Y-80645522D01*
X55082954Y-80521588D01*
X55082953Y-80521587D01*
X55082951Y-80521584D01*
X54978416Y-80417049D01*
X54331552Y-79770185D01*
X53661048Y-79099680D01*
X53627563Y-79038357D01*
X53632547Y-78968665D01*
X53674419Y-78912732D01*
X53739883Y-78888315D01*
X53748729Y-78887999D01*
X54227871Y-78887999D01*
X54227872Y-78887999D01*
X54287483Y-78881591D01*
X54422331Y-78831296D01*
X54537546Y-78745046D01*
X54623796Y-78629831D01*
X54674091Y-78494983D01*
X54680500Y-78435373D01*
X54680499Y-76999998D01*
X55599677Y-76999998D01*
X55599677Y-77000001D01*
X55618943Y-77269382D01*
X55676348Y-77533263D01*
X55676350Y-77533270D01*
X55734948Y-77690377D01*
X55770728Y-77786308D01*
X55770730Y-77786312D01*
X55900152Y-78023331D01*
X55900157Y-78023339D01*
X56061993Y-78239527D01*
X56062009Y-78239545D01*
X56252954Y-78430490D01*
X56252972Y-78430506D01*
X56469160Y-78592342D01*
X56469168Y-78592347D01*
X56706187Y-78721769D01*
X56706191Y-78721771D01*
X56706193Y-78721772D01*
X56959230Y-78816150D01*
X57091176Y-78844853D01*
X57223117Y-78873556D01*
X57223119Y-78873556D01*
X57223123Y-78873557D01*
X57462507Y-78890677D01*
X57492499Y-78892823D01*
X57492500Y-78892823D01*
X57492501Y-78892823D01*
X57519487Y-78890892D01*
X57761877Y-78873557D01*
X58025770Y-78816150D01*
X58278807Y-78721772D01*
X58515837Y-78592344D01*
X58732035Y-78430500D01*
X58923000Y-78239535D01*
X59026233Y-78101631D01*
X59082166Y-78059760D01*
X59151858Y-78054776D01*
X59213181Y-78088261D01*
X59246666Y-78149584D01*
X59249500Y-78175942D01*
X59249500Y-87000500D01*
X59229815Y-87067539D01*
X59177011Y-87113294D01*
X59125501Y-87124500D01*
X58999999Y-87124500D01*
X58999980Y-87124501D01*
X58897203Y-87135000D01*
X58897200Y-87135001D01*
X58730668Y-87190185D01*
X58730663Y-87190187D01*
X58581342Y-87282289D01*
X58457289Y-87406342D01*
X58365187Y-87555663D01*
X58365185Y-87555668D01*
X58339046Y-87634551D01*
X58310001Y-87722203D01*
X58310001Y-87722204D01*
X58310000Y-87722204D01*
X58299500Y-87824983D01*
X58299500Y-89175001D01*
X58299501Y-89175018D01*
X58310000Y-89277796D01*
X58310001Y-89277799D01*
X58322228Y-89314696D01*
X58365186Y-89444334D01*
X58457288Y-89593656D01*
X58581344Y-89717712D01*
X58730666Y-89809814D01*
X58897203Y-89864999D01*
X58999991Y-89875500D01*
X59900008Y-89875499D01*
X59900016Y-89875498D01*
X59900019Y-89875498D01*
X59987907Y-89866520D01*
X60002797Y-89864999D01*
X60169334Y-89809814D01*
X60318656Y-89717712D01*
X60442712Y-89593656D01*
X60534814Y-89444334D01*
X60589999Y-89277797D01*
X60600500Y-89175009D01*
X60600499Y-88439766D01*
X60620183Y-88372728D01*
X60621397Y-88370876D01*
X60665084Y-88305495D01*
X60721658Y-88168913D01*
X60733456Y-88109600D01*
X60750500Y-88023918D01*
X60750500Y-78526585D01*
X60770185Y-78459546D01*
X60822989Y-78413791D01*
X60892147Y-78403847D01*
X60948216Y-78429452D01*
X60949419Y-78427846D01*
X61169160Y-78592342D01*
X61169168Y-78592347D01*
X61406187Y-78721769D01*
X61406191Y-78721771D01*
X61406193Y-78721772D01*
X61659230Y-78816150D01*
X61791176Y-78844853D01*
X61923117Y-78873556D01*
X61923119Y-78873556D01*
X61923123Y-78873557D01*
X62162507Y-78890677D01*
X62192499Y-78892823D01*
X62192500Y-78892823D01*
X62192501Y-78892823D01*
X62219487Y-78890892D01*
X62461877Y-78873557D01*
X62725770Y-78816150D01*
X62978807Y-78721772D01*
X63215837Y-78592344D01*
X63432035Y-78430500D01*
X63623000Y-78239535D01*
X63784844Y-78023337D01*
X63914272Y-77786307D01*
X64008650Y-77533270D01*
X64066057Y-77269377D01*
X64085323Y-77000000D01*
X64066057Y-76730623D01*
X64065005Y-76725789D01*
X64037353Y-76598676D01*
X64008650Y-76466730D01*
X63914272Y-76213693D01*
X63911359Y-76208359D01*
X63784847Y-75976668D01*
X63784842Y-75976660D01*
X63623006Y-75760472D01*
X63622990Y-75760454D01*
X63432045Y-75569509D01*
X63432027Y-75569493D01*
X63215839Y-75407657D01*
X63215831Y-75407652D01*
X62978812Y-75278230D01*
X62978808Y-75278228D01*
X62859557Y-75233750D01*
X62725770Y-75183850D01*
X62725766Y-75183849D01*
X62725763Y-75183848D01*
X62461882Y-75126443D01*
X62192501Y-75107177D01*
X62192499Y-75107177D01*
X61923117Y-75126443D01*
X61659236Y-75183848D01*
X61659231Y-75183849D01*
X61659230Y-75183850D01*
X61598051Y-75206668D01*
X61406191Y-75278228D01*
X61406187Y-75278230D01*
X61169168Y-75407652D01*
X61169160Y-75407657D01*
X60949419Y-75572154D01*
X60948226Y-75570560D01*
X60892066Y-75596163D01*
X60822914Y-75586174D01*
X60770140Y-75540385D01*
X60750500Y-75473414D01*
X60750500Y-71747979D01*
X60721659Y-71602992D01*
X60721658Y-71602991D01*
X60721658Y-71602987D01*
X60693001Y-71533803D01*
X60665087Y-71466411D01*
X60665080Y-71466398D01*
X60582952Y-71343485D01*
X60541738Y-71302271D01*
X60478416Y-71238949D01*
X59461169Y-70221701D01*
X59427684Y-70160378D01*
X59428275Y-70105074D01*
X59460915Y-69969125D01*
X59480372Y-69721900D01*
X60519628Y-69721900D01*
X60539085Y-69969128D01*
X60596976Y-70210262D01*
X60691877Y-70439374D01*
X60821450Y-70650816D01*
X60821453Y-70650821D01*
X60894458Y-70736299D01*
X60982508Y-70839392D01*
X61076758Y-70919889D01*
X61171078Y-71000446D01*
X61171083Y-71000449D01*
X61382525Y-71130022D01*
X61611637Y-71224923D01*
X61716824Y-71250176D01*
X61852775Y-71282815D01*
X62100000Y-71302272D01*
X62347225Y-71282815D01*
X62483173Y-71250176D01*
X62552955Y-71253667D01*
X62599801Y-71283069D01*
X65899686Y-74582954D01*
X65929158Y-74602645D01*
X65973370Y-74632186D01*
X66022605Y-74665084D01*
X66022606Y-74665084D01*
X66022607Y-74665085D01*
X66022609Y-74665086D01*
X66159182Y-74721656D01*
X66159187Y-74721658D01*
X66159191Y-74721658D01*
X66159192Y-74721659D01*
X66304179Y-74750500D01*
X66304182Y-74750500D01*
X66304183Y-74750500D01*
X66452017Y-74750500D01*
X92137770Y-74750500D01*
X92204809Y-74770185D01*
X92225451Y-74786819D01*
X93746692Y-76308059D01*
X93769358Y-76344125D01*
X93771188Y-76343244D01*
X93774209Y-76349518D01*
X93774211Y-76349522D01*
X93870184Y-76502262D01*
X93997738Y-76629816D01*
X94017143Y-76642009D01*
X94149634Y-76725259D01*
X94150478Y-76725789D01*
X94320745Y-76785368D01*
X94320750Y-76785369D01*
X94499996Y-76805565D01*
X94500000Y-76805565D01*
X94500004Y-76805565D01*
X94679249Y-76785369D01*
X94679252Y-76785368D01*
X94679255Y-76785368D01*
X94849522Y-76725789D01*
X95002262Y-76629816D01*
X95129816Y-76502262D01*
X95225789Y-76349522D01*
X95285368Y-76179255D01*
X95285369Y-76179249D01*
X95305565Y-76000003D01*
X95305565Y-75999996D01*
X95285369Y-75820750D01*
X95285368Y-75820745D01*
X95282854Y-75813561D01*
X95225789Y-75650478D01*
X95129816Y-75497738D01*
X95002262Y-75370184D01*
X94849522Y-75274211D01*
X94849518Y-75274209D01*
X94843244Y-75271188D01*
X94844125Y-75269358D01*
X94808059Y-75246692D01*
X92978421Y-73417052D01*
X92978414Y-73417046D01*
X92903131Y-73366744D01*
X92903032Y-73366679D01*
X92855495Y-73334916D01*
X92855494Y-73334915D01*
X92855492Y-73334914D01*
X92718917Y-73278343D01*
X92718907Y-73278340D01*
X92573920Y-73249500D01*
X92573918Y-73249500D01*
X66740330Y-73249500D01*
X66673291Y-73229815D01*
X66652649Y-73213181D01*
X63661169Y-70221701D01*
X63627684Y-70160378D01*
X63628275Y-70105074D01*
X63660915Y-69969125D01*
X63680372Y-69721900D01*
X64719628Y-69721900D01*
X64739085Y-69969128D01*
X64796976Y-70210262D01*
X64891877Y-70439374D01*
X65021450Y-70650816D01*
X65021453Y-70650821D01*
X65094458Y-70736299D01*
X65182508Y-70839392D01*
X65276758Y-70919889D01*
X65371078Y-71000446D01*
X65371083Y-71000449D01*
X65582525Y-71130022D01*
X65811637Y-71224923D01*
X65916824Y-71250176D01*
X66052775Y-71282815D01*
X66300000Y-71302272D01*
X66547225Y-71282815D01*
X66788362Y-71224923D01*
X67017474Y-71130022D01*
X67228919Y-71000448D01*
X67417492Y-70839392D01*
X67578548Y-70650819D01*
X67708122Y-70439374D01*
X67803023Y-70210262D01*
X67860915Y-69969125D01*
X67880372Y-69721900D01*
X68919628Y-69721900D01*
X68939085Y-69969128D01*
X68996976Y-70210262D01*
X69091877Y-70439374D01*
X69221450Y-70650816D01*
X69221453Y-70650821D01*
X69294458Y-70736299D01*
X69382508Y-70839392D01*
X69476758Y-70919889D01*
X69571078Y-71000446D01*
X69571083Y-71000449D01*
X69782525Y-71130022D01*
X70011637Y-71224923D01*
X70116824Y-71250176D01*
X70252775Y-71282815D01*
X70500000Y-71302272D01*
X70747225Y-71282815D01*
X70988362Y-71224923D01*
X71217474Y-71130022D01*
X71428919Y-71000448D01*
X71617492Y-70839392D01*
X71778548Y-70650819D01*
X71908122Y-70439374D01*
X72003023Y-70210262D01*
X72060915Y-69969125D01*
X72080372Y-69721900D01*
X73119628Y-69721900D01*
X73139085Y-69969128D01*
X73196976Y-70210262D01*
X73291877Y-70439374D01*
X73421450Y-70650816D01*
X73421453Y-70650821D01*
X73494458Y-70736299D01*
X73582508Y-70839392D01*
X73676758Y-70919889D01*
X73771078Y-71000446D01*
X73771083Y-71000449D01*
X73982525Y-71130022D01*
X74211637Y-71224923D01*
X74316824Y-71250176D01*
X74452775Y-71282815D01*
X74700000Y-71302272D01*
X74947225Y-71282815D01*
X75188362Y-71224923D01*
X75417474Y-71130022D01*
X75628919Y-71000448D01*
X75817492Y-70839392D01*
X75978548Y-70650819D01*
X76108122Y-70439374D01*
X76203023Y-70210262D01*
X76260915Y-69969125D01*
X76280372Y-69721900D01*
X77319628Y-69721900D01*
X77339085Y-69969128D01*
X77396976Y-70210262D01*
X77491877Y-70439374D01*
X77621450Y-70650816D01*
X77621453Y-70650821D01*
X77694458Y-70736299D01*
X77782508Y-70839392D01*
X77876758Y-70919889D01*
X77971078Y-71000446D01*
X77971083Y-71000449D01*
X78182525Y-71130022D01*
X78411637Y-71224923D01*
X78516824Y-71250176D01*
X78652775Y-71282815D01*
X78900000Y-71302272D01*
X79147225Y-71282815D01*
X79388362Y-71224923D01*
X79617474Y-71130022D01*
X79828919Y-71000448D01*
X80017492Y-70839392D01*
X80178548Y-70650819D01*
X80308122Y-70439374D01*
X80403023Y-70210262D01*
X80460915Y-69969125D01*
X80480372Y-69721900D01*
X80460915Y-69474675D01*
X80403023Y-69233538D01*
X80308122Y-69004426D01*
X80308122Y-69004425D01*
X80178549Y-68792983D01*
X80178546Y-68792978D01*
X80120583Y-68725113D01*
X80017492Y-68604408D01*
X79914399Y-68516358D01*
X79828921Y-68443353D01*
X79828916Y-68443350D01*
X79617474Y-68313777D01*
X79388362Y-68218876D01*
X79147228Y-68160985D01*
X78900000Y-68141528D01*
X78652771Y-68160985D01*
X78411637Y-68218876D01*
X78182525Y-68313777D01*
X77971083Y-68443350D01*
X77971078Y-68443353D01*
X77782508Y-68604408D01*
X77621453Y-68792978D01*
X77621450Y-68792983D01*
X77491877Y-69004425D01*
X77396976Y-69233537D01*
X77339085Y-69474671D01*
X77319628Y-69721900D01*
X76280372Y-69721900D01*
X76260915Y-69474675D01*
X76203023Y-69233538D01*
X76108122Y-69004426D01*
X76108122Y-69004425D01*
X75978549Y-68792983D01*
X75978546Y-68792978D01*
X75920583Y-68725113D01*
X75817492Y-68604408D01*
X75714399Y-68516358D01*
X75628921Y-68443353D01*
X75628916Y-68443350D01*
X75417474Y-68313777D01*
X75188362Y-68218876D01*
X74947228Y-68160985D01*
X74700000Y-68141528D01*
X74452771Y-68160985D01*
X74211637Y-68218876D01*
X73982525Y-68313777D01*
X73771083Y-68443350D01*
X73771078Y-68443353D01*
X73582508Y-68604408D01*
X73421453Y-68792978D01*
X73421450Y-68792983D01*
X73291877Y-69004425D01*
X73196976Y-69233537D01*
X73139085Y-69474671D01*
X73119628Y-69721900D01*
X72080372Y-69721900D01*
X72060915Y-69474675D01*
X72003023Y-69233538D01*
X71908122Y-69004426D01*
X71908122Y-69004425D01*
X71778549Y-68792983D01*
X71778546Y-68792978D01*
X71720583Y-68725113D01*
X71617492Y-68604408D01*
X71514399Y-68516358D01*
X71428921Y-68443353D01*
X71428916Y-68443350D01*
X71217474Y-68313777D01*
X70988362Y-68218876D01*
X70747228Y-68160985D01*
X70500000Y-68141528D01*
X70252771Y-68160985D01*
X70011637Y-68218876D01*
X69782525Y-68313777D01*
X69571083Y-68443350D01*
X69571078Y-68443353D01*
X69382508Y-68604408D01*
X69221453Y-68792978D01*
X69221450Y-68792983D01*
X69091877Y-69004425D01*
X68996976Y-69233537D01*
X68939085Y-69474671D01*
X68919628Y-69721900D01*
X67880372Y-69721900D01*
X67860915Y-69474675D01*
X67803023Y-69233538D01*
X67708122Y-69004426D01*
X67708122Y-69004425D01*
X67578549Y-68792983D01*
X67578546Y-68792978D01*
X67520583Y-68725113D01*
X67417492Y-68604408D01*
X67314399Y-68516358D01*
X67228921Y-68443353D01*
X67228916Y-68443350D01*
X67017474Y-68313777D01*
X66788362Y-68218876D01*
X66547228Y-68160985D01*
X66300000Y-68141528D01*
X66052771Y-68160985D01*
X65811637Y-68218876D01*
X65582525Y-68313777D01*
X65371083Y-68443350D01*
X65371078Y-68443353D01*
X65182508Y-68604408D01*
X65021453Y-68792978D01*
X65021450Y-68792983D01*
X64891877Y-69004425D01*
X64796976Y-69233537D01*
X64739085Y-69474671D01*
X64719628Y-69721900D01*
X63680372Y-69721900D01*
X63660915Y-69474675D01*
X63603023Y-69233538D01*
X63508122Y-69004426D01*
X63508122Y-69004425D01*
X63378549Y-68792983D01*
X63378546Y-68792978D01*
X63320583Y-68725113D01*
X63217492Y-68604408D01*
X63114399Y-68516358D01*
X63028921Y-68443353D01*
X63028916Y-68443350D01*
X62817474Y-68313777D01*
X62588362Y-68218876D01*
X62347228Y-68160985D01*
X62100000Y-68141528D01*
X61852771Y-68160985D01*
X61611637Y-68218876D01*
X61382525Y-68313777D01*
X61171083Y-68443350D01*
X61171078Y-68443353D01*
X60982508Y-68604408D01*
X60821453Y-68792978D01*
X60821450Y-68792983D01*
X60691877Y-69004425D01*
X60596976Y-69233537D01*
X60539085Y-69474671D01*
X60519628Y-69721900D01*
X59480372Y-69721900D01*
X59460915Y-69474675D01*
X59403023Y-69233538D01*
X59308122Y-69004426D01*
X59308122Y-69004425D01*
X59178549Y-68792983D01*
X59178546Y-68792978D01*
X59017489Y-68604405D01*
X58828922Y-68443354D01*
X58828913Y-68443348D01*
X58709710Y-68370299D01*
X58662834Y-68318487D01*
X58650500Y-68264572D01*
X58650500Y-65921399D01*
X58670185Y-65854360D01*
X58722989Y-65808605D01*
X58774500Y-65797399D01*
X59022871Y-65797399D01*
X59022872Y-65797399D01*
X59082483Y-65790991D01*
X59217331Y-65740696D01*
X59332546Y-65654446D01*
X59418796Y-65539231D01*
X59469091Y-65404383D01*
X59475500Y-65344773D01*
X59475500Y-65096400D01*
X59495185Y-65029361D01*
X59547989Y-64983606D01*
X59599500Y-64972400D01*
X60642673Y-64972400D01*
X60709712Y-64992085D01*
X60748400Y-65031610D01*
X60821448Y-65150813D01*
X60821454Y-65150822D01*
X60982505Y-65339389D01*
X60982508Y-65339392D01*
X61058602Y-65404382D01*
X61171078Y-65500446D01*
X61171080Y-65500447D01*
X61171081Y-65500448D01*
X61175283Y-65503023D01*
X61382525Y-65630022D01*
X61611637Y-65724923D01*
X61818567Y-65774602D01*
X61852775Y-65782815D01*
X62100000Y-65802272D01*
X62347225Y-65782815D01*
X62588362Y-65724923D01*
X62817474Y-65630022D01*
X63028919Y-65500448D01*
X63217492Y-65339392D01*
X63378548Y-65150819D01*
X63508122Y-64939374D01*
X63603023Y-64710262D01*
X63660915Y-64469125D01*
X63680372Y-64221900D01*
X64719628Y-64221900D01*
X64739085Y-64469128D01*
X64796976Y-64710262D01*
X64891877Y-64939374D01*
X65021450Y-65150816D01*
X65021453Y-65150821D01*
X65091515Y-65232853D01*
X65182508Y-65339392D01*
X65258602Y-65404382D01*
X65371078Y-65500446D01*
X65371080Y-65500447D01*
X65371081Y-65500448D01*
X65375283Y-65503023D01*
X65582525Y-65630022D01*
X65811637Y-65724923D01*
X66018567Y-65774602D01*
X66052775Y-65782815D01*
X66300000Y-65802272D01*
X66547225Y-65782815D01*
X66788362Y-65724923D01*
X67017474Y-65630022D01*
X67228919Y-65500448D01*
X67417492Y-65339392D01*
X67578548Y-65150819D01*
X67708122Y-64939374D01*
X67803023Y-64710262D01*
X67860915Y-64469125D01*
X67880372Y-64221900D01*
X68919628Y-64221900D01*
X68939085Y-64469128D01*
X68996976Y-64710262D01*
X69091877Y-64939374D01*
X69221450Y-65150816D01*
X69221453Y-65150821D01*
X69291515Y-65232853D01*
X69382508Y-65339392D01*
X69458602Y-65404382D01*
X69571078Y-65500446D01*
X69571080Y-65500447D01*
X69571081Y-65500448D01*
X69575283Y-65503023D01*
X69782525Y-65630022D01*
X70011637Y-65724923D01*
X70071922Y-65739396D01*
X70252775Y-65782815D01*
X70392118Y-65793781D01*
X70442102Y-65797715D01*
X70507391Y-65822599D01*
X70520055Y-65833652D01*
X72044885Y-67358483D01*
X72188210Y-67462614D01*
X72346057Y-67543042D01*
X72346060Y-67543043D01*
X72430301Y-67570414D01*
X72514544Y-67597786D01*
X72689521Y-67625500D01*
X72689522Y-67625500D01*
X76710478Y-67625500D01*
X76710479Y-67625500D01*
X76885456Y-67597786D01*
X77053942Y-67543042D01*
X77211790Y-67462614D01*
X77355114Y-67358483D01*
X77480383Y-67233214D01*
X77538942Y-67174655D01*
X77538954Y-67174641D01*
X78812322Y-65901274D01*
X78873641Y-65867792D01*
X78943333Y-65872776D01*
X78987680Y-65901277D01*
X80944885Y-67858483D01*
X81088210Y-67962614D01*
X81246057Y-68043042D01*
X81246060Y-68043043D01*
X81330301Y-68070414D01*
X81414545Y-68097786D01*
X81589521Y-68125500D01*
X81589522Y-68125500D01*
X81766679Y-68125500D01*
X82250097Y-68125500D01*
X82317136Y-68145185D01*
X82362891Y-68197989D01*
X82372835Y-68267147D01*
X82343810Y-68330703D01*
X82314887Y-68355227D01*
X82171083Y-68443350D01*
X82171078Y-68443353D01*
X81982508Y-68604408D01*
X81821453Y-68792978D01*
X81821450Y-68792983D01*
X81691877Y-69004425D01*
X81596976Y-69233537D01*
X81539085Y-69474671D01*
X81519628Y-69721900D01*
X81539085Y-69969128D01*
X81596976Y-70210262D01*
X81691877Y-70439374D01*
X81821450Y-70650816D01*
X81821453Y-70650821D01*
X81894458Y-70736299D01*
X81982508Y-70839392D01*
X82076758Y-70919889D01*
X82171078Y-71000446D01*
X82171083Y-71000449D01*
X82382525Y-71130022D01*
X82611637Y-71224923D01*
X82716824Y-71250176D01*
X82852775Y-71282815D01*
X83100000Y-71302272D01*
X83347225Y-71282815D01*
X83588362Y-71224923D01*
X83817474Y-71130022D01*
X84028919Y-71000448D01*
X84217492Y-70839392D01*
X84378548Y-70650819D01*
X84508122Y-70439374D01*
X84603023Y-70210262D01*
X84660915Y-69969125D01*
X84680372Y-69721900D01*
X84660915Y-69474675D01*
X84603023Y-69233538D01*
X84508122Y-69004426D01*
X84508122Y-69004425D01*
X84378549Y-68792983D01*
X84378546Y-68792978D01*
X84320583Y-68725113D01*
X84217492Y-68604408D01*
X84114399Y-68516358D01*
X84028921Y-68443353D01*
X84028916Y-68443350D01*
X83885113Y-68355227D01*
X83838238Y-68303416D01*
X83826815Y-68234486D01*
X83854472Y-68170323D01*
X83912428Y-68131298D01*
X83949903Y-68125500D01*
X86450097Y-68125500D01*
X86517136Y-68145185D01*
X86562891Y-68197989D01*
X86572835Y-68267147D01*
X86543810Y-68330703D01*
X86514887Y-68355227D01*
X86371083Y-68443350D01*
X86371078Y-68443353D01*
X86182508Y-68604408D01*
X86021453Y-68792978D01*
X86021450Y-68792983D01*
X85891877Y-69004425D01*
X85796976Y-69233537D01*
X85739085Y-69474671D01*
X85719628Y-69721900D01*
X85739085Y-69969128D01*
X85796976Y-70210262D01*
X85891877Y-70439374D01*
X86021450Y-70650816D01*
X86021453Y-70650821D01*
X86094458Y-70736299D01*
X86182508Y-70839392D01*
X86276758Y-70919889D01*
X86371078Y-71000446D01*
X86371083Y-71000449D01*
X86582525Y-71130022D01*
X86811637Y-71224923D01*
X86916824Y-71250176D01*
X87052775Y-71282815D01*
X87300000Y-71302272D01*
X87547225Y-71282815D01*
X87788362Y-71224923D01*
X88017474Y-71130022D01*
X88228919Y-71000448D01*
X88417492Y-70839392D01*
X88578548Y-70650819D01*
X88708122Y-70439374D01*
X88803023Y-70210262D01*
X88860915Y-69969125D01*
X88880372Y-69721900D01*
X88860915Y-69474675D01*
X88803023Y-69233538D01*
X88708122Y-69004426D01*
X88708122Y-69004425D01*
X88578549Y-68792983D01*
X88578546Y-68792978D01*
X88520583Y-68725113D01*
X88417492Y-68604408D01*
X88314399Y-68516358D01*
X88228921Y-68443353D01*
X88228916Y-68443350D01*
X88085113Y-68355227D01*
X88038238Y-68303416D01*
X88026815Y-68234486D01*
X88054472Y-68170323D01*
X88112428Y-68131298D01*
X88149903Y-68125500D01*
X88260541Y-68125500D01*
X88327580Y-68145185D01*
X88348222Y-68161819D01*
X89888247Y-69701845D01*
X89921732Y-69763168D01*
X89924184Y-69779796D01*
X89939085Y-69969125D01*
X89939086Y-69969128D01*
X89996976Y-70210262D01*
X90091877Y-70439374D01*
X90221450Y-70650816D01*
X90221453Y-70650821D01*
X90294458Y-70736299D01*
X90382508Y-70839392D01*
X90476758Y-70919889D01*
X90571078Y-71000446D01*
X90571083Y-71000449D01*
X90782525Y-71130022D01*
X91011637Y-71224923D01*
X91116824Y-71250176D01*
X91252775Y-71282815D01*
X91500000Y-71302272D01*
X91747225Y-71282815D01*
X91988362Y-71224923D01*
X92217474Y-71130022D01*
X92428919Y-71000448D01*
X92573330Y-70877110D01*
X92637092Y-70848539D01*
X92653862Y-70847400D01*
X94546138Y-70847400D01*
X94613177Y-70867085D01*
X94626670Y-70877110D01*
X94771078Y-71000446D01*
X94771083Y-71000449D01*
X94982525Y-71130022D01*
X95211637Y-71224923D01*
X95316824Y-71250176D01*
X95452775Y-71282815D01*
X95700000Y-71302272D01*
X95947225Y-71282815D01*
X96188362Y-71224923D01*
X96417474Y-71130022D01*
X96628919Y-71000448D01*
X96773330Y-70877110D01*
X96837092Y-70848539D01*
X96853862Y-70847400D01*
X98650500Y-70847400D01*
X98717539Y-70867085D01*
X98763294Y-70919889D01*
X98774500Y-70971400D01*
X98774500Y-73366678D01*
X98802213Y-73541656D01*
X98835632Y-73644505D01*
X98835632Y-73644507D01*
X98856955Y-73710136D01*
X98856957Y-73710142D01*
X98937386Y-73867990D01*
X99041517Y-74011314D01*
X99041519Y-74011316D01*
X103068022Y-78037819D01*
X103101507Y-78099142D01*
X103096523Y-78168834D01*
X103054651Y-78224767D01*
X102989187Y-78249184D01*
X102980341Y-78249500D01*
X93926080Y-78249500D01*
X93781092Y-78278340D01*
X93781082Y-78278343D01*
X93644511Y-78334912D01*
X93644498Y-78334919D01*
X93521584Y-78417048D01*
X93521580Y-78417051D01*
X84917045Y-87021586D01*
X84904842Y-87039852D01*
X84904841Y-87039854D01*
X84873198Y-87087210D01*
X84863242Y-87102111D01*
X84809629Y-87146915D01*
X84799145Y-87150925D01*
X84680666Y-87190186D01*
X84531342Y-87282289D01*
X84407289Y-87406342D01*
X84315187Y-87555663D01*
X84315185Y-87555668D01*
X84289046Y-87634551D01*
X84260001Y-87722203D01*
X84260001Y-87722204D01*
X84260000Y-87722204D01*
X84249500Y-87824983D01*
X84249500Y-89175001D01*
X84249501Y-89175018D01*
X84260000Y-89277796D01*
X84260001Y-89277799D01*
X84272228Y-89314696D01*
X84315186Y-89444334D01*
X84407288Y-89593656D01*
X84531344Y-89717712D01*
X84680666Y-89809814D01*
X84847203Y-89864999D01*
X84949991Y-89875500D01*
X85850008Y-89875499D01*
X85850016Y-89875498D01*
X85850019Y-89875498D01*
X85937907Y-89866520D01*
X85952797Y-89864999D01*
X86119334Y-89809814D01*
X86268656Y-89717712D01*
X86392712Y-89593656D01*
X86484814Y-89444334D01*
X86539999Y-89277797D01*
X86550500Y-89175009D01*
X86550499Y-87824992D01*
X86539999Y-87722203D01*
X86514069Y-87643955D01*
X86511668Y-87574128D01*
X86544093Y-87517273D01*
X94274548Y-79786819D01*
X94335871Y-79753334D01*
X94362229Y-79750500D01*
X104729340Y-79750500D01*
X104796379Y-79770185D01*
X104817021Y-79786819D01*
X108888685Y-83858483D01*
X109032010Y-83962614D01*
X109189857Y-84043042D01*
X109189860Y-84043043D01*
X109274101Y-84070414D01*
X109358344Y-84097786D01*
X109445833Y-84111643D01*
X109533321Y-84125500D01*
X109533322Y-84125500D01*
X109710479Y-84125500D01*
X139957041Y-84125500D01*
X140024080Y-84145185D01*
X140044722Y-84161819D01*
X145092537Y-89209634D01*
X145126022Y-89270957D01*
X145128540Y-89306161D01*
X145114677Y-89499999D01*
X145114677Y-89500001D01*
X145133943Y-89769382D01*
X145189737Y-90025857D01*
X145191350Y-90033270D01*
X145222540Y-90116893D01*
X145285728Y-90286308D01*
X145285730Y-90286312D01*
X145415152Y-90523331D01*
X145415157Y-90523339D01*
X145576993Y-90739527D01*
X145577009Y-90739545D01*
X145767954Y-90930490D01*
X145767972Y-90930506D01*
X145984160Y-91092342D01*
X145984168Y-91092347D01*
X146221187Y-91221769D01*
X146221191Y-91221771D01*
X146221193Y-91221772D01*
X146474230Y-91316150D01*
X146559732Y-91334750D01*
X146738117Y-91373556D01*
X146738119Y-91373556D01*
X146738123Y-91373557D01*
X146977507Y-91390677D01*
X147007499Y-91392823D01*
X147007500Y-91392823D01*
X147007501Y-91392823D01*
X147034487Y-91390892D01*
X147276877Y-91373557D01*
X147299724Y-91368587D01*
X147314788Y-91365309D01*
X147540770Y-91316150D01*
X147793807Y-91221772D01*
X148030837Y-91092344D01*
X148247035Y-90930500D01*
X148438000Y-90739535D01*
X148599844Y-90523337D01*
X148729272Y-90286307D01*
X148823650Y-90033270D01*
X148875971Y-89792758D01*
X148881056Y-89769382D01*
X148881056Y-89769381D01*
X148881057Y-89769377D01*
X148900323Y-89500000D01*
X148881057Y-89230623D01*
X148869381Y-89176952D01*
X148850198Y-89088770D01*
X148823650Y-88966730D01*
X148729272Y-88713693D01*
X148672454Y-88609638D01*
X148599847Y-88476668D01*
X148599842Y-88476660D01*
X148438006Y-88260472D01*
X148437990Y-88260454D01*
X148247045Y-88069509D01*
X148247027Y-88069493D01*
X148030839Y-87907657D01*
X148030831Y-87907652D01*
X147793812Y-87778230D01*
X147793808Y-87778228D01*
X147643882Y-87722309D01*
X147540770Y-87683850D01*
X147540766Y-87683849D01*
X147540763Y-87683848D01*
X147276882Y-87626443D01*
X147007501Y-87607177D01*
X147007499Y-87607177D01*
X146752253Y-87625432D01*
X146683980Y-87610580D01*
X146655726Y-87589429D01*
X144450547Y-85384250D01*
X159309496Y-85384250D01*
X159329878Y-85643240D01*
X159390527Y-85895860D01*
X159489943Y-86135873D01*
X159489945Y-86135877D01*
X159489946Y-86135878D01*
X159625688Y-86357390D01*
X159794411Y-86554939D01*
X159991960Y-86723662D01*
X160213472Y-86859404D01*
X160213474Y-86859404D01*
X160213476Y-86859406D01*
X160274793Y-86884804D01*
X160453490Y-86958823D01*
X160706106Y-87019471D01*
X160965100Y-87039854D01*
X161224094Y-87019471D01*
X161476710Y-86958823D01*
X161716728Y-86859404D01*
X161938240Y-86723662D01*
X162135789Y-86554939D01*
X162304512Y-86357390D01*
X162440254Y-86135878D01*
X162539673Y-85895860D01*
X162600321Y-85643244D01*
X162620704Y-85384250D01*
X162600321Y-85125256D01*
X162539673Y-84872640D01*
X162440254Y-84632622D01*
X162304512Y-84411110D01*
X162135789Y-84213561D01*
X161938240Y-84044838D01*
X161716728Y-83909096D01*
X161716727Y-83909095D01*
X161716723Y-83909093D01*
X161550727Y-83840336D01*
X161476710Y-83809677D01*
X161476711Y-83809677D01*
X161339021Y-83776620D01*
X161224094Y-83749029D01*
X161224092Y-83749028D01*
X161224091Y-83749028D01*
X160965100Y-83728646D01*
X160706109Y-83749028D01*
X160453489Y-83809677D01*
X160213476Y-83909093D01*
X159991959Y-84044838D01*
X159794411Y-84213561D01*
X159625688Y-84411109D01*
X159489943Y-84632626D01*
X159390527Y-84872639D01*
X159329878Y-85125259D01*
X159309496Y-85384250D01*
X144450547Y-85384250D01*
X142416678Y-83350381D01*
X142383193Y-83289058D01*
X142388177Y-83219366D01*
X142416678Y-83175019D01*
X144407447Y-81184250D01*
X159309496Y-81184250D01*
X159329878Y-81443240D01*
X159390527Y-81695860D01*
X159489943Y-81935873D01*
X159489945Y-81935877D01*
X159489946Y-81935878D01*
X159625688Y-82157390D01*
X159794411Y-82354939D01*
X159991960Y-82523662D01*
X160213472Y-82659404D01*
X160213474Y-82659404D01*
X160213476Y-82659406D01*
X160274793Y-82684804D01*
X160453490Y-82758823D01*
X160706106Y-82819471D01*
X160965100Y-82839854D01*
X161224094Y-82819471D01*
X161476710Y-82758823D01*
X161716728Y-82659404D01*
X161938240Y-82523662D01*
X162135789Y-82354939D01*
X162304512Y-82157390D01*
X162440254Y-81935878D01*
X162539673Y-81695860D01*
X162600321Y-81443244D01*
X162620704Y-81184250D01*
X162600321Y-80925256D01*
X162539673Y-80672640D01*
X162440254Y-80432622D01*
X162304512Y-80211110D01*
X162135789Y-80013561D01*
X161938240Y-79844838D01*
X161716728Y-79709096D01*
X161716727Y-79709095D01*
X161716723Y-79709093D01*
X161550727Y-79640336D01*
X161476710Y-79609677D01*
X161476711Y-79609677D01*
X161339021Y-79576620D01*
X161224094Y-79549029D01*
X161224092Y-79549028D01*
X161224091Y-79549028D01*
X160965100Y-79528646D01*
X160706109Y-79549028D01*
X160453489Y-79609677D01*
X160213476Y-79709093D01*
X159991959Y-79844838D01*
X159794411Y-80013561D01*
X159625688Y-80211109D01*
X159489943Y-80432626D01*
X159390527Y-80672639D01*
X159329878Y-80925259D01*
X159309496Y-81184250D01*
X144407447Y-81184250D01*
X147634307Y-77957390D01*
X148607447Y-76984250D01*
X159309496Y-76984250D01*
X159329878Y-77243240D01*
X159390527Y-77495860D01*
X159489943Y-77735873D01*
X159489945Y-77735877D01*
X159489946Y-77735878D01*
X159625688Y-77957390D01*
X159794411Y-78154939D01*
X159991960Y-78323662D01*
X160213472Y-78459404D01*
X160213474Y-78459404D01*
X160213476Y-78459406D01*
X160274793Y-78484804D01*
X160453490Y-78558823D01*
X160706106Y-78619471D01*
X160965100Y-78639854D01*
X161224094Y-78619471D01*
X161476710Y-78558823D01*
X161716728Y-78459404D01*
X161938240Y-78323662D01*
X162135789Y-78154939D01*
X162304512Y-77957390D01*
X162440254Y-77735878D01*
X162539673Y-77495860D01*
X162600321Y-77243244D01*
X162620704Y-76984250D01*
X162611674Y-76869508D01*
X170714600Y-76869508D01*
X170714600Y-77098991D01*
X170737033Y-77269377D01*
X170744552Y-77326488D01*
X170744553Y-77326490D01*
X170803942Y-77548137D01*
X170891750Y-77760126D01*
X170891757Y-77760140D01*
X171006492Y-77958867D01*
X171146181Y-78140911D01*
X171146189Y-78140920D01*
X171308430Y-78303161D01*
X171308438Y-78303168D01*
X171490482Y-78442857D01*
X171490485Y-78442858D01*
X171490488Y-78442861D01*
X171689212Y-78557594D01*
X171689217Y-78557596D01*
X171689223Y-78557599D01*
X171773101Y-78592342D01*
X171901213Y-78645408D01*
X172122862Y-78704798D01*
X172350366Y-78734750D01*
X172350373Y-78734750D01*
X172579827Y-78734750D01*
X172579834Y-78734750D01*
X172807338Y-78704798D01*
X173028987Y-78645408D01*
X173240988Y-78557594D01*
X173439712Y-78442861D01*
X173621761Y-78303169D01*
X173621765Y-78303164D01*
X173621770Y-78303161D01*
X173784011Y-78140920D01*
X173784014Y-78140915D01*
X173784019Y-78140911D01*
X173923711Y-77958862D01*
X174038444Y-77760138D01*
X174126258Y-77548137D01*
X174185648Y-77326488D01*
X174215600Y-77098984D01*
X174215600Y-76869516D01*
X174185648Y-76642012D01*
X174126258Y-76420363D01*
X174048493Y-76232622D01*
X174038449Y-76208373D01*
X174038446Y-76208367D01*
X174038444Y-76208362D01*
X173923711Y-76009638D01*
X173923708Y-76009635D01*
X173923707Y-76009632D01*
X173784018Y-75827588D01*
X173784011Y-75827580D01*
X173621770Y-75665339D01*
X173621761Y-75665331D01*
X173439717Y-75525642D01*
X173411058Y-75509096D01*
X173240988Y-75410906D01*
X173240976Y-75410900D01*
X173028987Y-75323092D01*
X172807338Y-75263702D01*
X172769315Y-75258696D01*
X172579841Y-75233750D01*
X172579834Y-75233750D01*
X172350366Y-75233750D01*
X172350358Y-75233750D01*
X172133815Y-75262259D01*
X172122862Y-75263702D01*
X172068650Y-75278228D01*
X171901212Y-75323092D01*
X171689223Y-75410900D01*
X171689209Y-75410907D01*
X171490482Y-75525642D01*
X171308438Y-75665331D01*
X171146181Y-75827588D01*
X171006492Y-76009632D01*
X170891757Y-76208359D01*
X170891750Y-76208373D01*
X170803942Y-76420362D01*
X170744553Y-76642009D01*
X170744551Y-76642020D01*
X170714600Y-76869508D01*
X162611674Y-76869508D01*
X162600321Y-76725256D01*
X162539673Y-76472640D01*
X162476979Y-76321285D01*
X162440256Y-76232626D01*
X162428650Y-76213687D01*
X162304512Y-76011110D01*
X162135789Y-75813561D01*
X161938240Y-75644838D01*
X161716728Y-75509096D01*
X161716727Y-75509095D01*
X161716723Y-75509093D01*
X161479679Y-75410907D01*
X161476710Y-75409677D01*
X161476711Y-75409677D01*
X161339021Y-75376620D01*
X161224094Y-75349029D01*
X161224092Y-75349028D01*
X161224091Y-75349028D01*
X160965100Y-75328646D01*
X160706109Y-75349028D01*
X160453489Y-75409677D01*
X160213476Y-75509093D01*
X159991959Y-75644838D01*
X159794411Y-75813561D01*
X159625688Y-76011109D01*
X159489943Y-76232626D01*
X159390527Y-76472639D01*
X159329878Y-76725259D01*
X159309496Y-76984250D01*
X148607447Y-76984250D01*
X152858483Y-72733214D01*
X152962613Y-72589891D01*
X152985545Y-72544886D01*
X153043042Y-72432042D01*
X153051877Y-72404851D01*
X153097786Y-72263556D01*
X153125500Y-72088579D01*
X153125500Y-71911422D01*
X153125500Y-63868971D01*
X153145185Y-63801932D01*
X153152544Y-63791670D01*
X153288959Y-63620612D01*
X153416393Y-63399888D01*
X153509508Y-63162637D01*
X153566222Y-62914157D01*
X153575574Y-62789355D01*
X153585268Y-62660004D01*
X153585268Y-62659995D01*
X155254732Y-62659995D01*
X155254732Y-62660004D01*
X155273777Y-62914154D01*
X155317201Y-63104408D01*
X155330492Y-63162637D01*
X155381649Y-63292983D01*
X155423608Y-63399890D01*
X155437718Y-63424330D01*
X155551041Y-63620612D01*
X155709950Y-63819877D01*
X155896783Y-63993232D01*
X156107366Y-64136805D01*
X156107371Y-64136807D01*
X156107372Y-64136808D01*
X156107373Y-64136809D01*
X156229328Y-64195538D01*
X156336992Y-64247387D01*
X156336993Y-64247387D01*
X156336996Y-64247389D01*
X156580542Y-64322513D01*
X156832565Y-64360500D01*
X157087435Y-64360500D01*
X157339458Y-64322513D01*
X157583004Y-64247389D01*
X157812634Y-64136805D01*
X158023217Y-63993232D01*
X158210050Y-63819877D01*
X158368959Y-63620612D01*
X158496393Y-63399888D01*
X158589508Y-63162637D01*
X158646222Y-62914157D01*
X158655574Y-62789355D01*
X158665268Y-62660004D01*
X158665268Y-62659995D01*
X160334732Y-62659995D01*
X160334732Y-62660004D01*
X160353777Y-62914154D01*
X160397201Y-63104408D01*
X160410492Y-63162637D01*
X160461649Y-63292983D01*
X160503608Y-63399890D01*
X160517718Y-63424330D01*
X160631041Y-63620612D01*
X160789950Y-63819877D01*
X160976783Y-63993232D01*
X161187366Y-64136805D01*
X161187371Y-64136807D01*
X161187372Y-64136808D01*
X161187373Y-64136809D01*
X161309328Y-64195538D01*
X161416992Y-64247387D01*
X161416993Y-64247387D01*
X161416996Y-64247389D01*
X161660542Y-64322513D01*
X161912565Y-64360500D01*
X162167435Y-64360500D01*
X162419458Y-64322513D01*
X162663004Y-64247389D01*
X162892634Y-64136805D01*
X163103217Y-63993232D01*
X163290050Y-63819877D01*
X163448959Y-63620612D01*
X163576393Y-63399888D01*
X163669508Y-63162637D01*
X163726222Y-62914157D01*
X163735574Y-62789355D01*
X163745268Y-62660004D01*
X163745268Y-62659995D01*
X165415233Y-62659995D01*
X165415233Y-62660004D01*
X165434273Y-62914079D01*
X165490968Y-63162477D01*
X165490973Y-63162494D01*
X165584058Y-63399671D01*
X165584057Y-63399671D01*
X165711454Y-63620327D01*
X165711461Y-63620338D01*
X165753452Y-63672991D01*
X165753453Y-63672992D01*
X166404152Y-63022292D01*
X166411049Y-63038942D01*
X166498599Y-63169970D01*
X166610030Y-63281401D01*
X166741058Y-63368951D01*
X166757705Y-63375846D01*
X166106813Y-64026738D01*
X166267616Y-64136371D01*
X166267624Y-64136376D01*
X166497176Y-64246921D01*
X166497174Y-64246921D01*
X166740652Y-64322024D01*
X166740658Y-64322026D01*
X166992595Y-64359999D01*
X166992604Y-64360000D01*
X167247396Y-64360000D01*
X167247404Y-64359999D01*
X167499341Y-64322026D01*
X167499347Y-64322024D01*
X167742824Y-64246921D01*
X167972376Y-64136376D01*
X167972377Y-64136375D01*
X168133185Y-64026738D01*
X167482294Y-63375846D01*
X167498942Y-63368951D01*
X167629970Y-63281401D01*
X167741401Y-63169970D01*
X167828951Y-63038942D01*
X167835846Y-63022294D01*
X168486544Y-63672992D01*
X168486546Y-63672991D01*
X168528544Y-63620330D01*
X168655941Y-63399671D01*
X168749026Y-63162494D01*
X168749031Y-63162477D01*
X168805726Y-62914079D01*
X168824767Y-62660004D01*
X168824767Y-62659995D01*
X168805726Y-62405920D01*
X168749031Y-62157522D01*
X168749026Y-62157505D01*
X168655941Y-61920328D01*
X168655942Y-61920328D01*
X168528545Y-61699672D01*
X168486545Y-61647006D01*
X167835846Y-62297705D01*
X167828951Y-62281058D01*
X167741401Y-62150030D01*
X167629970Y-62038599D01*
X167498942Y-61951049D01*
X167482293Y-61944152D01*
X168133185Y-61293260D01*
X167972384Y-61183628D01*
X167972376Y-61183623D01*
X167742823Y-61073078D01*
X167742825Y-61073078D01*
X167499347Y-60997975D01*
X167499341Y-60997973D01*
X167247404Y-60960000D01*
X166992595Y-60960000D01*
X166740658Y-60997973D01*
X166740652Y-60997975D01*
X166497175Y-61073078D01*
X166267622Y-61183625D01*
X166267609Y-61183632D01*
X166106813Y-61293259D01*
X166757706Y-61944152D01*
X166741058Y-61951049D01*
X166610030Y-62038599D01*
X166498599Y-62150030D01*
X166411049Y-62281058D01*
X166404152Y-62297706D01*
X165753452Y-61647006D01*
X165711457Y-61699667D01*
X165584058Y-61920328D01*
X165490973Y-62157505D01*
X165490968Y-62157522D01*
X165434273Y-62405920D01*
X165415233Y-62659995D01*
X163745268Y-62659995D01*
X163726222Y-62405845D01*
X163699055Y-62286819D01*
X163669508Y-62157363D01*
X163576393Y-61920112D01*
X163448959Y-61699388D01*
X163290050Y-61500123D01*
X163103217Y-61326768D01*
X162892634Y-61183195D01*
X162892630Y-61183193D01*
X162892627Y-61183191D01*
X162892626Y-61183190D01*
X162663006Y-61072612D01*
X162663008Y-61072612D01*
X162419466Y-60997489D01*
X162419462Y-60997488D01*
X162419458Y-60997487D01*
X162298231Y-60979214D01*
X162167440Y-60959500D01*
X162167435Y-60959500D01*
X161912565Y-60959500D01*
X161912559Y-60959500D01*
X161755609Y-60983157D01*
X161660542Y-60997487D01*
X161660539Y-60997488D01*
X161660533Y-60997489D01*
X161416992Y-61072612D01*
X161187373Y-61183190D01*
X161187372Y-61183191D01*
X160976782Y-61326768D01*
X160789952Y-61500121D01*
X160789950Y-61500123D01*
X160631041Y-61699388D01*
X160503608Y-61920109D01*
X160410492Y-62157362D01*
X160410490Y-62157369D01*
X160353777Y-62405845D01*
X160334732Y-62659995D01*
X158665268Y-62659995D01*
X158646222Y-62405845D01*
X158619055Y-62286819D01*
X158589508Y-62157363D01*
X158496393Y-61920112D01*
X158368959Y-61699388D01*
X158210050Y-61500123D01*
X158023217Y-61326768D01*
X157812634Y-61183195D01*
X157812630Y-61183193D01*
X157812627Y-61183191D01*
X157812626Y-61183190D01*
X157583006Y-61072612D01*
X157583008Y-61072612D01*
X157339466Y-60997489D01*
X157339462Y-60997488D01*
X157339458Y-60997487D01*
X157218231Y-60979214D01*
X157087440Y-60959500D01*
X157087435Y-60959500D01*
X156832565Y-60959500D01*
X156832559Y-60959500D01*
X156675609Y-60983157D01*
X156580542Y-60997487D01*
X156580539Y-60997488D01*
X156580533Y-60997489D01*
X156336992Y-61072612D01*
X156107373Y-61183190D01*
X156107372Y-61183191D01*
X155896782Y-61326768D01*
X155709952Y-61500121D01*
X155709950Y-61500123D01*
X155551041Y-61699388D01*
X155423608Y-61920109D01*
X155330492Y-62157362D01*
X155330490Y-62157369D01*
X155273777Y-62405845D01*
X155254732Y-62659995D01*
X153585268Y-62659995D01*
X153566222Y-62405845D01*
X153539055Y-62286819D01*
X153509508Y-62157363D01*
X153416393Y-61920112D01*
X153288959Y-61699388D01*
X153130050Y-61500123D01*
X152943217Y-61326768D01*
X152732634Y-61183195D01*
X152732630Y-61183193D01*
X152732627Y-61183191D01*
X152732626Y-61183190D01*
X152503006Y-61072612D01*
X152503008Y-61072612D01*
X152259466Y-60997489D01*
X152259462Y-60997488D01*
X152259458Y-60997487D01*
X152138231Y-60979214D01*
X152007440Y-60959500D01*
X152007435Y-60959500D01*
X151752565Y-60959500D01*
X151752559Y-60959500D01*
X151595609Y-60983157D01*
X151500542Y-60997487D01*
X151500539Y-60997488D01*
X151500533Y-60997489D01*
X151256992Y-61072612D01*
X151027373Y-61183190D01*
X151027372Y-61183191D01*
X150816782Y-61326768D01*
X150629952Y-61500121D01*
X150629950Y-61500123D01*
X150471041Y-61699388D01*
X150343608Y-61920109D01*
X150250492Y-62157362D01*
X150250490Y-62157369D01*
X150193777Y-62405845D01*
X150174732Y-62659995D01*
X150174732Y-62660004D01*
X150193777Y-62914154D01*
X150237201Y-63104408D01*
X150250492Y-63162637D01*
X150301649Y-63292983D01*
X150343608Y-63399890D01*
X150357718Y-63424330D01*
X150471041Y-63620612D01*
X150629950Y-63819877D01*
X150629955Y-63819881D01*
X150629958Y-63819885D01*
X150816767Y-63993218D01*
X150816774Y-63993224D01*
X150816783Y-63993232D01*
X150820346Y-63995661D01*
X150864649Y-64049683D01*
X150874500Y-64098117D01*
X150874500Y-71482441D01*
X150854815Y-71549480D01*
X150838181Y-71570122D01*
X140570122Y-81838181D01*
X140508799Y-81871666D01*
X140482441Y-81874500D01*
X110139460Y-81874500D01*
X110072421Y-81854815D01*
X110051779Y-81838181D01*
X101061819Y-72848221D01*
X101028334Y-72786898D01*
X101025500Y-72760540D01*
X101025500Y-70875761D01*
X101045185Y-70808722D01*
X101055210Y-70795230D01*
X101178545Y-70650822D01*
X101178546Y-70650821D01*
X101178548Y-70650819D01*
X101308122Y-70439374D01*
X101403023Y-70210262D01*
X101460915Y-69969125D01*
X101480372Y-69721900D01*
X102519628Y-69721900D01*
X102539085Y-69969128D01*
X102596976Y-70210262D01*
X102691877Y-70439374D01*
X102821450Y-70650816D01*
X102821453Y-70650821D01*
X102894458Y-70736299D01*
X102982508Y-70839392D01*
X103076758Y-70919889D01*
X103171078Y-71000446D01*
X103171083Y-71000449D01*
X103382525Y-71130022D01*
X103611637Y-71224923D01*
X103716824Y-71250176D01*
X103852775Y-71282815D01*
X104100000Y-71302272D01*
X104347225Y-71282815D01*
X104588362Y-71224923D01*
X104817474Y-71130022D01*
X105028919Y-71000448D01*
X105217492Y-70839392D01*
X105378548Y-70650819D01*
X105508122Y-70439374D01*
X105603023Y-70210262D01*
X105660915Y-69969125D01*
X105680372Y-69721900D01*
X105660915Y-69474675D01*
X105603023Y-69233538D01*
X105508122Y-69004426D01*
X105508122Y-69004425D01*
X105378549Y-68792983D01*
X105378546Y-68792978D01*
X105320583Y-68725113D01*
X105217492Y-68604408D01*
X105114399Y-68516358D01*
X105028921Y-68443353D01*
X105028916Y-68443350D01*
X104817474Y-68313777D01*
X104588362Y-68218876D01*
X104347228Y-68160985D01*
X104100000Y-68141528D01*
X103852771Y-68160985D01*
X103611637Y-68218876D01*
X103382525Y-68313777D01*
X103171083Y-68443350D01*
X103171078Y-68443353D01*
X102982508Y-68604408D01*
X102821453Y-68792978D01*
X102821450Y-68792983D01*
X102691877Y-69004425D01*
X102596976Y-69233537D01*
X102539085Y-69474671D01*
X102519628Y-69721900D01*
X101480372Y-69721900D01*
X101460915Y-69474675D01*
X101403023Y-69233538D01*
X101308122Y-69004426D01*
X101308122Y-69004425D01*
X101178549Y-68792983D01*
X101178546Y-68792978D01*
X101120583Y-68725113D01*
X101017492Y-68604408D01*
X100914399Y-68516358D01*
X100828921Y-68443353D01*
X100828916Y-68443350D01*
X100617474Y-68313777D01*
X100388362Y-68218876D01*
X100147228Y-68160985D01*
X99900000Y-68141528D01*
X99652771Y-68160985D01*
X99411637Y-68218876D01*
X99182525Y-68313777D01*
X98971083Y-68443350D01*
X98971078Y-68443353D01*
X98826670Y-68566690D01*
X98762908Y-68595261D01*
X98746138Y-68596400D01*
X96853862Y-68596400D01*
X96786823Y-68576715D01*
X96773330Y-68566690D01*
X96628921Y-68443353D01*
X96628916Y-68443350D01*
X96417474Y-68313777D01*
X96188362Y-68218876D01*
X95947228Y-68160985D01*
X95700000Y-68141528D01*
X95452771Y-68160985D01*
X95211637Y-68218876D01*
X94982525Y-68313777D01*
X94771083Y-68443350D01*
X94771078Y-68443353D01*
X94626670Y-68566690D01*
X94562908Y-68595261D01*
X94546138Y-68596400D01*
X92653862Y-68596400D01*
X92586823Y-68576715D01*
X92573330Y-68566690D01*
X92428921Y-68443353D01*
X92428916Y-68443350D01*
X92217474Y-68313777D01*
X91988362Y-68218876D01*
X91786120Y-68170323D01*
X91747225Y-68160985D01*
X91583860Y-68148127D01*
X91557896Y-68146084D01*
X91492608Y-68121200D01*
X91479945Y-68110147D01*
X89511316Y-66141519D01*
X89511314Y-66141517D01*
X89367990Y-66037386D01*
X89210142Y-65956957D01*
X89210139Y-65956956D01*
X89041657Y-65902214D01*
X88954167Y-65888357D01*
X88866679Y-65874500D01*
X88866678Y-65874500D01*
X88050643Y-65874500D01*
X87983604Y-65854815D01*
X87937849Y-65802011D01*
X87927905Y-65732853D01*
X87956930Y-65669297D01*
X88003190Y-65635939D01*
X88017474Y-65630022D01*
X88098495Y-65580372D01*
X88228919Y-65500448D01*
X88417492Y-65339392D01*
X88578548Y-65150819D01*
X88708122Y-64939374D01*
X88803023Y-64710262D01*
X88860915Y-64469125D01*
X88880372Y-64221900D01*
X89919628Y-64221900D01*
X89939085Y-64469128D01*
X89996976Y-64710262D01*
X90091877Y-64939374D01*
X90221450Y-65150816D01*
X90221453Y-65150821D01*
X90291515Y-65232853D01*
X90382508Y-65339392D01*
X90458602Y-65404382D01*
X90571078Y-65500446D01*
X90571080Y-65500447D01*
X90571081Y-65500448D01*
X90575283Y-65503023D01*
X90782525Y-65630022D01*
X91011637Y-65724923D01*
X91218567Y-65774602D01*
X91252775Y-65782815D01*
X91500000Y-65802272D01*
X91747225Y-65782815D01*
X91988362Y-65724923D01*
X92217474Y-65630022D01*
X92428919Y-65500448D01*
X92617492Y-65339392D01*
X92778548Y-65150819D01*
X92908122Y-64939374D01*
X93003023Y-64710262D01*
X93060915Y-64469125D01*
X93080372Y-64221900D01*
X94120130Y-64221900D01*
X94139581Y-64469049D01*
X94197451Y-64710097D01*
X94197455Y-64710109D01*
X94292322Y-64939138D01*
X94292325Y-64939144D01*
X94420324Y-65148022D01*
X94909522Y-64658824D01*
X95000924Y-64795617D01*
X95126283Y-64920976D01*
X95263074Y-65012377D01*
X94773876Y-65501574D01*
X94982753Y-65629574D01*
X95211790Y-65724444D01*
X95211802Y-65724448D01*
X95452850Y-65782318D01*
X95700000Y-65801769D01*
X95947149Y-65782318D01*
X96188197Y-65724448D01*
X96188209Y-65724444D01*
X96417246Y-65629574D01*
X96626122Y-65501574D01*
X96136924Y-65012377D01*
X96273717Y-64920976D01*
X96399076Y-64795617D01*
X96490477Y-64658825D01*
X96979674Y-65148022D01*
X97107674Y-64939146D01*
X97202544Y-64710109D01*
X97202548Y-64710097D01*
X97260418Y-64469049D01*
X97279869Y-64221900D01*
X98320130Y-64221900D01*
X98339581Y-64469049D01*
X98397451Y-64710097D01*
X98397455Y-64710109D01*
X98492322Y-64939138D01*
X98492325Y-64939144D01*
X98620324Y-65148022D01*
X99109522Y-64658824D01*
X99200924Y-64795617D01*
X99326283Y-64920976D01*
X99463074Y-65012377D01*
X98973876Y-65501574D01*
X99182753Y-65629574D01*
X99411790Y-65724444D01*
X99411802Y-65724448D01*
X99652850Y-65782318D01*
X99900000Y-65801769D01*
X100147149Y-65782318D01*
X100388197Y-65724448D01*
X100388209Y-65724444D01*
X100617246Y-65629574D01*
X100826122Y-65501574D01*
X100336924Y-65012377D01*
X100473717Y-64920976D01*
X100599076Y-64795617D01*
X100690477Y-64658825D01*
X101179674Y-65148022D01*
X101307674Y-64939146D01*
X101402544Y-64710109D01*
X101402548Y-64710097D01*
X101460418Y-64469049D01*
X101479869Y-64221900D01*
X101460418Y-63974750D01*
X101402548Y-63733702D01*
X101402544Y-63733690D01*
X101307674Y-63504653D01*
X101179674Y-63295776D01*
X100690476Y-63784974D01*
X100599076Y-63648183D01*
X100473717Y-63522824D01*
X100336924Y-63431422D01*
X100826122Y-62942224D01*
X100617244Y-62814225D01*
X100617238Y-62814222D01*
X100388209Y-62719355D01*
X100388197Y-62719351D01*
X100147149Y-62661481D01*
X99900000Y-62642030D01*
X99652850Y-62661481D01*
X99411802Y-62719351D01*
X99411790Y-62719355D01*
X99182761Y-62814222D01*
X99182755Y-62814225D01*
X98973876Y-62942224D01*
X99463075Y-63431422D01*
X99326283Y-63522824D01*
X99200924Y-63648183D01*
X99109522Y-63784974D01*
X98620324Y-63295776D01*
X98492325Y-63504655D01*
X98492322Y-63504661D01*
X98397455Y-63733690D01*
X98397451Y-63733702D01*
X98339581Y-63974750D01*
X98320130Y-64221900D01*
X97279869Y-64221900D01*
X97260418Y-63974750D01*
X97202548Y-63733702D01*
X97202544Y-63733690D01*
X97107674Y-63504653D01*
X96979674Y-63295776D01*
X96490476Y-63784974D01*
X96399076Y-63648183D01*
X96273717Y-63522824D01*
X96136924Y-63431422D01*
X96626122Y-62942224D01*
X96417244Y-62814225D01*
X96417238Y-62814222D01*
X96188209Y-62719355D01*
X96188197Y-62719351D01*
X95947149Y-62661481D01*
X95700000Y-62642030D01*
X95452850Y-62661481D01*
X95211802Y-62719351D01*
X95211790Y-62719355D01*
X94982761Y-62814222D01*
X94982755Y-62814225D01*
X94773876Y-62942224D01*
X95263075Y-63431422D01*
X95126283Y-63522824D01*
X95000924Y-63648183D01*
X94909522Y-63784974D01*
X94420324Y-63295776D01*
X94292325Y-63504655D01*
X94292322Y-63504661D01*
X94197455Y-63733690D01*
X94197451Y-63733702D01*
X94139581Y-63974750D01*
X94120130Y-64221900D01*
X93080372Y-64221900D01*
X93060915Y-63974675D01*
X93035388Y-63868347D01*
X93003023Y-63733537D01*
X92908122Y-63504425D01*
X92778549Y-63292983D01*
X92778546Y-63292978D01*
X92667218Y-63162630D01*
X92617492Y-63104408D01*
X92511114Y-63013553D01*
X92428921Y-62943353D01*
X92428916Y-62943350D01*
X92217474Y-62813777D01*
X91988362Y-62718876D01*
X91747228Y-62660985D01*
X91500000Y-62641528D01*
X91252771Y-62660985D01*
X91011637Y-62718876D01*
X90782525Y-62813777D01*
X90571083Y-62943350D01*
X90571078Y-62943353D01*
X90382508Y-63104408D01*
X90221453Y-63292978D01*
X90221450Y-63292983D01*
X90091877Y-63504425D01*
X89996976Y-63733537D01*
X89939085Y-63974671D01*
X89919628Y-64221900D01*
X88880372Y-64221900D01*
X88860915Y-63974675D01*
X88835388Y-63868347D01*
X88803023Y-63733537D01*
X88708122Y-63504425D01*
X88578549Y-63292983D01*
X88578546Y-63292978D01*
X88467218Y-63162630D01*
X88417492Y-63104408D01*
X88311114Y-63013553D01*
X88228921Y-62943353D01*
X88228916Y-62943350D01*
X88017474Y-62813777D01*
X87788362Y-62718876D01*
X87547228Y-62660985D01*
X87300000Y-62641528D01*
X87052771Y-62660985D01*
X86811637Y-62718876D01*
X86582525Y-62813777D01*
X86371083Y-62943350D01*
X86371078Y-62943353D01*
X86182508Y-63104408D01*
X86021453Y-63292978D01*
X86021450Y-63292983D01*
X85891877Y-63504425D01*
X85796976Y-63733537D01*
X85739085Y-63974671D01*
X85719628Y-64221900D01*
X85739085Y-64469128D01*
X85796976Y-64710262D01*
X85891877Y-64939374D01*
X86021450Y-65150816D01*
X86021453Y-65150821D01*
X86091515Y-65232853D01*
X86182508Y-65339392D01*
X86258602Y-65404382D01*
X86371078Y-65500446D01*
X86371080Y-65500447D01*
X86371081Y-65500448D01*
X86375283Y-65503023D01*
X86582525Y-65630022D01*
X86596810Y-65635939D01*
X86651213Y-65679780D01*
X86673278Y-65746074D01*
X86655999Y-65813773D01*
X86604862Y-65861384D01*
X86549357Y-65874500D01*
X83850643Y-65874500D01*
X83783604Y-65854815D01*
X83737849Y-65802011D01*
X83727905Y-65732853D01*
X83756930Y-65669297D01*
X83803190Y-65635939D01*
X83817474Y-65630022D01*
X83898495Y-65580372D01*
X84028919Y-65500448D01*
X84217492Y-65339392D01*
X84378548Y-65150819D01*
X84508122Y-64939374D01*
X84603023Y-64710262D01*
X84660915Y-64469125D01*
X84680372Y-64221900D01*
X84660915Y-63974675D01*
X84635388Y-63868347D01*
X84603023Y-63733537D01*
X84508122Y-63504425D01*
X84378549Y-63292983D01*
X84378546Y-63292978D01*
X84267218Y-63162630D01*
X84217492Y-63104408D01*
X84111114Y-63013553D01*
X84028921Y-62943353D01*
X84028916Y-62943350D01*
X83817474Y-62813777D01*
X83588362Y-62718876D01*
X83347228Y-62660985D01*
X83100000Y-62641528D01*
X82852771Y-62660985D01*
X82611637Y-62718876D01*
X82382525Y-62813777D01*
X82171083Y-62943350D01*
X82171078Y-62943353D01*
X81982508Y-63104408D01*
X81821453Y-63292978D01*
X81821450Y-63292983D01*
X81691877Y-63504425D01*
X81596976Y-63733537D01*
X81539085Y-63974671D01*
X81519628Y-64221900D01*
X81539085Y-64469128D01*
X81596976Y-64710262D01*
X81691877Y-64939374D01*
X81821450Y-65150816D01*
X81821453Y-65150821D01*
X81891515Y-65232853D01*
X81982508Y-65339392D01*
X82058602Y-65404382D01*
X82171078Y-65500446D01*
X82171080Y-65500447D01*
X82171081Y-65500448D01*
X82175283Y-65503023D01*
X82382525Y-65630022D01*
X82396810Y-65635939D01*
X82451213Y-65679780D01*
X82473278Y-65746074D01*
X82455999Y-65813773D01*
X82404862Y-65861384D01*
X82349357Y-65874500D01*
X82195660Y-65874500D01*
X82128621Y-65854815D01*
X82107979Y-65838181D01*
X80511752Y-64241955D01*
X80478267Y-64180632D01*
X80475815Y-64164002D01*
X80460915Y-63974678D01*
X80460915Y-63974677D01*
X80460915Y-63974675D01*
X80411523Y-63768943D01*
X80403023Y-63733537D01*
X80308122Y-63504425D01*
X80178549Y-63292983D01*
X80178546Y-63292978D01*
X80067218Y-63162630D01*
X80017492Y-63104408D01*
X79911114Y-63013553D01*
X79828921Y-62943353D01*
X79828916Y-62943350D01*
X79617474Y-62813777D01*
X79388362Y-62718876D01*
X79147228Y-62660985D01*
X78900000Y-62641528D01*
X78652771Y-62660985D01*
X78411637Y-62718876D01*
X78182525Y-62813777D01*
X77971083Y-62943350D01*
X77971078Y-62943353D01*
X77782508Y-63104408D01*
X77621453Y-63292978D01*
X77621450Y-63292983D01*
X77491877Y-63504425D01*
X77396976Y-63733537D01*
X77364612Y-63868347D01*
X77339085Y-63974675D01*
X77333182Y-64049683D01*
X77324184Y-64164002D01*
X77299299Y-64229290D01*
X77288247Y-64241953D01*
X76192022Y-65338181D01*
X76130699Y-65371666D01*
X76104341Y-65374500D01*
X76056484Y-65374500D01*
X75989445Y-65354815D01*
X75943690Y-65302011D01*
X75933746Y-65232853D01*
X75962193Y-65169969D01*
X75978547Y-65150820D01*
X75978546Y-65150820D01*
X75978548Y-65150819D01*
X76108122Y-64939374D01*
X76203023Y-64710262D01*
X76260915Y-64469125D01*
X76280372Y-64221900D01*
X76260915Y-63974675D01*
X76235388Y-63868347D01*
X76203023Y-63733537D01*
X76108122Y-63504425D01*
X75978549Y-63292983D01*
X75978546Y-63292978D01*
X75867218Y-63162630D01*
X75817492Y-63104408D01*
X75711114Y-63013553D01*
X75628921Y-62943353D01*
X75628916Y-62943350D01*
X75417474Y-62813777D01*
X75188362Y-62718876D01*
X74947228Y-62660985D01*
X74700000Y-62641528D01*
X74452771Y-62660985D01*
X74211637Y-62718876D01*
X73982525Y-62813777D01*
X73771083Y-62943350D01*
X73771078Y-62943353D01*
X73582508Y-63104408D01*
X73421453Y-63292978D01*
X73421450Y-63292983D01*
X73291877Y-63504425D01*
X73196976Y-63733537D01*
X73139085Y-63974671D01*
X73119628Y-64221900D01*
X73139085Y-64469128D01*
X73196976Y-64710262D01*
X73291877Y-64939374D01*
X73421450Y-65150816D01*
X73421452Y-65150820D01*
X73437807Y-65169969D01*
X73466377Y-65233730D01*
X73455939Y-65302816D01*
X73409809Y-65355292D01*
X73343516Y-65374500D01*
X73295660Y-65374500D01*
X73228621Y-65354815D01*
X73207979Y-65338181D01*
X72111752Y-64241955D01*
X72078267Y-64180632D01*
X72075815Y-64164002D01*
X72060915Y-63974678D01*
X72060915Y-63974677D01*
X72060915Y-63974675D01*
X72011523Y-63768943D01*
X72003023Y-63733537D01*
X71908122Y-63504425D01*
X71778549Y-63292983D01*
X71778546Y-63292978D01*
X71667218Y-63162630D01*
X71617492Y-63104408D01*
X71511114Y-63013553D01*
X71428921Y-62943353D01*
X71428916Y-62943350D01*
X71217474Y-62813777D01*
X70988362Y-62718876D01*
X70747228Y-62660985D01*
X70500000Y-62641528D01*
X70252771Y-62660985D01*
X70011637Y-62718876D01*
X69782525Y-62813777D01*
X69571083Y-62943350D01*
X69571078Y-62943353D01*
X69382508Y-63104408D01*
X69221453Y-63292978D01*
X69221450Y-63292983D01*
X69091877Y-63504425D01*
X68996976Y-63733537D01*
X68939085Y-63974671D01*
X68919628Y-64221900D01*
X67880372Y-64221900D01*
X67860915Y-63974675D01*
X67835388Y-63868347D01*
X67803023Y-63733537D01*
X67708122Y-63504425D01*
X67578549Y-63292983D01*
X67578546Y-63292978D01*
X67467218Y-63162630D01*
X67417492Y-63104408D01*
X67311114Y-63013553D01*
X67228921Y-62943353D01*
X67228916Y-62943350D01*
X67017474Y-62813777D01*
X66788362Y-62718876D01*
X66547228Y-62660985D01*
X66300000Y-62641528D01*
X66052771Y-62660985D01*
X65811637Y-62718876D01*
X65582525Y-62813777D01*
X65371083Y-62943350D01*
X65371078Y-62943353D01*
X65182508Y-63104408D01*
X65021453Y-63292978D01*
X65021450Y-63292983D01*
X64891877Y-63504425D01*
X64796976Y-63733537D01*
X64739085Y-63974671D01*
X64719628Y-64221900D01*
X63680372Y-64221900D01*
X63660915Y-63974675D01*
X63628276Y-63838725D01*
X63631767Y-63768943D01*
X63661167Y-63722099D01*
X65096449Y-62286819D01*
X65157772Y-62253334D01*
X65184130Y-62250500D01*
X101015870Y-62250500D01*
X101082909Y-62270185D01*
X101103551Y-62286819D01*
X102538830Y-63722098D01*
X102572315Y-63783421D01*
X102571723Y-63838726D01*
X102539084Y-63974677D01*
X102519628Y-64221899D01*
X102539085Y-64469128D01*
X102596976Y-64710262D01*
X102691877Y-64939374D01*
X102821450Y-65150816D01*
X102821453Y-65150821D01*
X102891515Y-65232853D01*
X102982508Y-65339392D01*
X103058602Y-65404382D01*
X103171078Y-65500446D01*
X103171080Y-65500447D01*
X103171081Y-65500448D01*
X103175283Y-65503023D01*
X103382525Y-65630022D01*
X103611637Y-65724923D01*
X103818567Y-65774602D01*
X103852775Y-65782815D01*
X104100000Y-65802272D01*
X104347225Y-65782815D01*
X104588362Y-65724923D01*
X104817474Y-65630022D01*
X105028919Y-65500448D01*
X105217492Y-65339392D01*
X105378548Y-65150819D01*
X105508122Y-64939374D01*
X105603023Y-64710262D01*
X105660915Y-64469125D01*
X105680372Y-64221900D01*
X105660915Y-63974675D01*
X105635388Y-63868347D01*
X105603023Y-63733537D01*
X105508122Y-63504425D01*
X105378549Y-63292983D01*
X105378546Y-63292978D01*
X105267218Y-63162630D01*
X105217492Y-63104408D01*
X105111114Y-63013553D01*
X105028921Y-62943353D01*
X105028916Y-62943350D01*
X104920864Y-62877135D01*
X124024500Y-62877135D01*
X124024500Y-65122870D01*
X124024501Y-65122876D01*
X124030908Y-65182483D01*
X124081202Y-65317328D01*
X124081206Y-65317335D01*
X124167452Y-65432544D01*
X124167455Y-65432547D01*
X124282664Y-65518793D01*
X124282671Y-65518797D01*
X124417517Y-65569091D01*
X124417516Y-65569091D01*
X124424444Y-65569835D01*
X124477127Y-65575500D01*
X126722872Y-65575499D01*
X126782483Y-65569091D01*
X126917331Y-65518796D01*
X127032546Y-65432546D01*
X127118796Y-65317331D01*
X127169091Y-65182483D01*
X127175500Y-65122873D01*
X127175499Y-64000000D01*
X128219628Y-64000000D01*
X128239085Y-64247228D01*
X128296976Y-64488362D01*
X128391877Y-64717474D01*
X128521450Y-64928916D01*
X128521453Y-64928921D01*
X128594458Y-65014399D01*
X128682508Y-65117492D01*
X128721533Y-65150822D01*
X128871078Y-65278546D01*
X128871083Y-65278549D01*
X129082525Y-65408122D01*
X129311637Y-65503023D01*
X129518567Y-65552702D01*
X129552775Y-65560915D01*
X129800000Y-65580372D01*
X130047225Y-65560915D01*
X130288362Y-65503023D01*
X130517474Y-65408122D01*
X130728919Y-65278548D01*
X130917492Y-65117492D01*
X131078548Y-64928919D01*
X131208122Y-64717474D01*
X131303023Y-64488362D01*
X131360915Y-64247225D01*
X131380372Y-64000000D01*
X132419628Y-64000000D01*
X132439085Y-64247228D01*
X132496976Y-64488362D01*
X132591877Y-64717474D01*
X132721450Y-64928916D01*
X132721453Y-64928921D01*
X132794458Y-65014399D01*
X132882508Y-65117492D01*
X132921533Y-65150822D01*
X133071078Y-65278546D01*
X133071083Y-65278549D01*
X133282525Y-65408122D01*
X133511637Y-65503023D01*
X133718567Y-65552702D01*
X133752775Y-65560915D01*
X134000000Y-65580372D01*
X134247225Y-65560915D01*
X134488362Y-65503023D01*
X134717474Y-65408122D01*
X134928919Y-65278548D01*
X135117492Y-65117492D01*
X135278548Y-64928919D01*
X135408122Y-64717474D01*
X135503023Y-64488362D01*
X135560915Y-64247225D01*
X135580372Y-64000000D01*
X136619628Y-64000000D01*
X136639085Y-64247228D01*
X136696976Y-64488362D01*
X136791877Y-64717474D01*
X136921450Y-64928916D01*
X136921453Y-64928921D01*
X136994458Y-65014399D01*
X137082508Y-65117492D01*
X137121533Y-65150822D01*
X137271078Y-65278546D01*
X137271083Y-65278549D01*
X137482525Y-65408122D01*
X137711637Y-65503023D01*
X137918567Y-65552702D01*
X137952775Y-65560915D01*
X138200000Y-65580372D01*
X138447225Y-65560915D01*
X138688362Y-65503023D01*
X138917474Y-65408122D01*
X139128919Y-65278548D01*
X139317492Y-65117492D01*
X139478548Y-64928919D01*
X139608122Y-64717474D01*
X139703023Y-64488362D01*
X139760915Y-64247225D01*
X139780372Y-64000000D01*
X139760915Y-63752775D01*
X139735805Y-63648183D01*
X139703023Y-63511637D01*
X139608122Y-63282525D01*
X139495678Y-63099035D01*
X139478548Y-63071081D01*
X139478547Y-63071080D01*
X139478546Y-63071078D01*
X139369458Y-62943353D01*
X139317492Y-62882508D01*
X139214399Y-62794458D01*
X139128921Y-62721453D01*
X139128916Y-62721450D01*
X138917474Y-62591877D01*
X138688362Y-62496976D01*
X138447228Y-62439085D01*
X138200000Y-62419628D01*
X137952771Y-62439085D01*
X137711637Y-62496976D01*
X137482525Y-62591877D01*
X137271083Y-62721450D01*
X137271078Y-62721453D01*
X137082508Y-62882508D01*
X136921453Y-63071078D01*
X136921450Y-63071083D01*
X136791877Y-63282525D01*
X136696976Y-63511637D01*
X136639085Y-63752771D01*
X136619628Y-64000000D01*
X135580372Y-64000000D01*
X135560915Y-63752775D01*
X135535805Y-63648183D01*
X135503023Y-63511637D01*
X135408122Y-63282525D01*
X135295678Y-63099035D01*
X135278548Y-63071081D01*
X135278547Y-63071080D01*
X135278546Y-63071078D01*
X135169458Y-62943353D01*
X135117492Y-62882508D01*
X135014399Y-62794458D01*
X134928921Y-62721453D01*
X134928916Y-62721450D01*
X134717474Y-62591877D01*
X134488362Y-62496976D01*
X134247228Y-62439085D01*
X134000000Y-62419628D01*
X133752771Y-62439085D01*
X133511637Y-62496976D01*
X133282525Y-62591877D01*
X133071083Y-62721450D01*
X133071078Y-62721453D01*
X132882508Y-62882508D01*
X132721453Y-63071078D01*
X132721450Y-63071083D01*
X132591877Y-63282525D01*
X132496976Y-63511637D01*
X132439085Y-63752771D01*
X132419628Y-64000000D01*
X131380372Y-64000000D01*
X131360915Y-63752775D01*
X131335805Y-63648183D01*
X131303023Y-63511637D01*
X131208122Y-63282525D01*
X131095678Y-63099035D01*
X131078548Y-63071081D01*
X131078547Y-63071080D01*
X131078546Y-63071078D01*
X130969458Y-62943353D01*
X130917492Y-62882508D01*
X130814399Y-62794458D01*
X130728921Y-62721453D01*
X130728916Y-62721450D01*
X130517474Y-62591877D01*
X130288362Y-62496976D01*
X130047228Y-62439085D01*
X129800000Y-62419628D01*
X129552771Y-62439085D01*
X129311637Y-62496976D01*
X129082525Y-62591877D01*
X128871083Y-62721450D01*
X128871078Y-62721453D01*
X128682508Y-62882508D01*
X128521453Y-63071078D01*
X128521450Y-63071083D01*
X128391877Y-63282525D01*
X128296976Y-63511637D01*
X128239085Y-63752771D01*
X128219628Y-64000000D01*
X127175499Y-64000000D01*
X127175499Y-62877128D01*
X127169091Y-62817517D01*
X127167863Y-62814225D01*
X127118797Y-62682671D01*
X127118793Y-62682664D01*
X127032547Y-62567455D01*
X127032544Y-62567452D01*
X126917335Y-62481206D01*
X126917328Y-62481202D01*
X126782482Y-62430908D01*
X126782483Y-62430908D01*
X126722883Y-62424501D01*
X126722881Y-62424500D01*
X126722873Y-62424500D01*
X126722864Y-62424500D01*
X124477129Y-62424500D01*
X124477123Y-62424501D01*
X124417516Y-62430908D01*
X124282671Y-62481202D01*
X124282664Y-62481206D01*
X124167455Y-62567452D01*
X124167452Y-62567455D01*
X124081206Y-62682664D01*
X124081202Y-62682671D01*
X124030908Y-62817517D01*
X124024501Y-62877116D01*
X124024501Y-62877123D01*
X124024500Y-62877135D01*
X104920864Y-62877135D01*
X104817474Y-62813777D01*
X104588362Y-62718876D01*
X104347228Y-62660985D01*
X104161806Y-62646392D01*
X104100000Y-62641528D01*
X104099999Y-62641528D01*
X103852777Y-62660984D01*
X103716826Y-62693623D01*
X103647043Y-62690132D01*
X103600198Y-62660730D01*
X101856521Y-60917052D01*
X101856514Y-60917046D01*
X101782829Y-60867812D01*
X101782829Y-60867813D01*
X101733591Y-60834913D01*
X101597017Y-60778343D01*
X101597007Y-60778340D01*
X101452020Y-60749500D01*
X101452018Y-60749500D01*
X64747982Y-60749500D01*
X64747980Y-60749500D01*
X64602992Y-60778340D01*
X64602986Y-60778342D01*
X64466408Y-60834914D01*
X64466396Y-60834921D01*
X64417169Y-60867813D01*
X64343488Y-60917044D01*
X64343480Y-60917050D01*
X62599800Y-62660730D01*
X62538477Y-62694215D01*
X62483172Y-62693623D01*
X62347225Y-62660985D01*
X62347221Y-62660984D01*
X62347222Y-62660984D01*
X62100000Y-62641528D01*
X61852771Y-62660985D01*
X61611637Y-62718876D01*
X61382525Y-62813777D01*
X61171083Y-62943350D01*
X61171078Y-62943353D01*
X60982505Y-63104410D01*
X60821454Y-63292977D01*
X60821448Y-63292986D01*
X60748400Y-63412190D01*
X60696588Y-63459065D01*
X60642673Y-63471400D01*
X59599499Y-63471400D01*
X59532460Y-63451715D01*
X59486705Y-63398911D01*
X59475499Y-63347400D01*
X59475499Y-63099029D01*
X59475498Y-63099023D01*
X59475497Y-63099016D01*
X59469091Y-63039417D01*
X59459444Y-63013553D01*
X59418797Y-62904571D01*
X59418793Y-62904564D01*
X59332547Y-62789355D01*
X59332544Y-62789352D01*
X59217335Y-62703106D01*
X59217328Y-62703102D01*
X59082482Y-62652808D01*
X59082483Y-62652808D01*
X59022883Y-62646401D01*
X59022881Y-62646400D01*
X59022873Y-62646400D01*
X59022864Y-62646400D01*
X56777129Y-62646400D01*
X56777123Y-62646401D01*
X56717516Y-62652808D01*
X56582671Y-62703102D01*
X56582664Y-62703106D01*
X56467455Y-62789352D01*
X56467452Y-62789355D01*
X56381206Y-62904564D01*
X56381202Y-62904571D01*
X56330908Y-63039417D01*
X56327504Y-63071083D01*
X56324501Y-63099023D01*
X56324500Y-63099035D01*
X56324500Y-65344770D01*
X56324501Y-65344776D01*
X56330908Y-65404383D01*
X56381202Y-65539228D01*
X56381206Y-65539235D01*
X56467452Y-65654444D01*
X56467455Y-65654447D01*
X56582664Y-65740693D01*
X56582671Y-65740697D01*
X56597088Y-65746074D01*
X56717517Y-65790991D01*
X56777127Y-65797400D01*
X57025501Y-65797399D01*
X57092539Y-65817083D01*
X57138294Y-65869887D01*
X57149500Y-65921399D01*
X57149500Y-68264572D01*
X57129815Y-68331611D01*
X57090290Y-68370299D01*
X56971086Y-68443348D01*
X56971077Y-68443354D01*
X56782510Y-68604405D01*
X56621453Y-68792978D01*
X56621450Y-68792983D01*
X56491877Y-69004425D01*
X56396976Y-69233537D01*
X56339085Y-69474671D01*
X56319628Y-69721900D01*
X56339085Y-69969128D01*
X56396976Y-70210262D01*
X56491877Y-70439374D01*
X56621450Y-70650816D01*
X56621453Y-70650821D01*
X56694458Y-70736299D01*
X56782508Y-70839392D01*
X56876758Y-70919889D01*
X56971078Y-71000446D01*
X56971083Y-71000449D01*
X57182525Y-71130022D01*
X57411637Y-71224923D01*
X57516824Y-71250176D01*
X57652775Y-71282815D01*
X57900000Y-71302272D01*
X58147225Y-71282815D01*
X58283173Y-71250176D01*
X58352955Y-71253667D01*
X58399801Y-71283069D01*
X59213181Y-72096448D01*
X59246666Y-72157771D01*
X59249500Y-72184129D01*
X59249500Y-75824057D01*
X59229815Y-75891096D01*
X59177011Y-75936851D01*
X59107853Y-75946795D01*
X59044297Y-75917770D01*
X59026233Y-75898368D01*
X58973248Y-75827589D01*
X58923000Y-75760465D01*
X58922995Y-75760460D01*
X58922990Y-75760454D01*
X58732045Y-75569509D01*
X58732027Y-75569493D01*
X58515839Y-75407657D01*
X58515831Y-75407652D01*
X58278812Y-75278230D01*
X58278808Y-75278228D01*
X58159557Y-75233750D01*
X58025770Y-75183850D01*
X58025766Y-75183849D01*
X58025763Y-75183848D01*
X57761882Y-75126443D01*
X57492501Y-75107177D01*
X57492499Y-75107177D01*
X57223117Y-75126443D01*
X56959236Y-75183848D01*
X56959231Y-75183849D01*
X56959230Y-75183850D01*
X56898051Y-75206668D01*
X56706191Y-75278228D01*
X56706187Y-75278230D01*
X56469168Y-75407652D01*
X56469160Y-75407657D01*
X56252972Y-75569493D01*
X56252954Y-75569509D01*
X56062009Y-75760454D01*
X56061993Y-75760472D01*
X55900157Y-75976660D01*
X55900152Y-75976668D01*
X55770730Y-76213687D01*
X55770728Y-76213691D01*
X55676348Y-76466736D01*
X55618943Y-76730617D01*
X55599677Y-76999998D01*
X54680499Y-76999998D01*
X54680499Y-75564628D01*
X54675299Y-75516257D01*
X54674091Y-75505016D01*
X54623797Y-75370171D01*
X54623793Y-75370164D01*
X54537547Y-75254955D01*
X54537544Y-75254952D01*
X54422335Y-75168706D01*
X54422328Y-75168702D01*
X54287482Y-75118408D01*
X54287483Y-75118408D01*
X54227883Y-75112001D01*
X54227881Y-75112000D01*
X54227873Y-75112000D01*
X54227864Y-75112000D01*
X51357129Y-75112000D01*
X51357123Y-75112001D01*
X51297516Y-75118408D01*
X51162671Y-75168702D01*
X51162664Y-75168706D01*
X51047455Y-75254952D01*
X51047452Y-75254955D01*
X50961206Y-75370164D01*
X50961202Y-75370171D01*
X50910908Y-75505017D01*
X50908691Y-75525642D01*
X50904501Y-75564623D01*
X50904500Y-75564635D01*
X47000500Y-75564635D01*
X47000500Y-60000328D01*
X147819500Y-60000328D01*
X147819500Y-60239671D01*
X147856939Y-60476051D01*
X147930898Y-60703674D01*
X148039554Y-60916919D01*
X148180221Y-61110532D01*
X148180225Y-61110537D01*
X148349462Y-61279774D01*
X148349467Y-61279778D01*
X148368024Y-61293260D01*
X148543084Y-61420448D01*
X148678961Y-61489681D01*
X148756325Y-61529101D01*
X148756327Y-61529101D01*
X148756330Y-61529103D01*
X148983949Y-61603061D01*
X149105735Y-61622349D01*
X149220329Y-61640500D01*
X149220334Y-61640500D01*
X149459671Y-61640500D01*
X149564135Y-61623953D01*
X149696051Y-61603061D01*
X149923670Y-61529103D01*
X150136916Y-61420448D01*
X150330539Y-61279773D01*
X150499773Y-61110539D01*
X150640448Y-60916916D01*
X150749103Y-60703670D01*
X150823061Y-60476051D01*
X150843953Y-60344135D01*
X150860500Y-60239671D01*
X150860500Y-60000328D01*
X168139500Y-60000328D01*
X168139500Y-60239671D01*
X168176939Y-60476051D01*
X168250898Y-60703674D01*
X168359554Y-60916919D01*
X168500221Y-61110532D01*
X168500225Y-61110537D01*
X168669462Y-61279774D01*
X168669467Y-61279778D01*
X168688024Y-61293260D01*
X168863084Y-61420448D01*
X168998961Y-61489681D01*
X169076325Y-61529101D01*
X169076327Y-61529101D01*
X169076330Y-61529103D01*
X169303949Y-61603061D01*
X169425735Y-61622349D01*
X169540329Y-61640500D01*
X169540334Y-61640500D01*
X169779671Y-61640500D01*
X169884135Y-61623953D01*
X170016051Y-61603061D01*
X170243670Y-61529103D01*
X170456916Y-61420448D01*
X170650539Y-61279773D01*
X170819773Y-61110539D01*
X170960448Y-60916916D01*
X171069103Y-60703670D01*
X171143061Y-60476051D01*
X171163953Y-60344135D01*
X171180500Y-60239671D01*
X171180500Y-60000328D01*
X171160644Y-59874970D01*
X171143061Y-59763949D01*
X171069103Y-59536330D01*
X171069101Y-59536327D01*
X171069101Y-59536325D01*
X171029681Y-59458961D01*
X170960448Y-59323084D01*
X170942476Y-59298347D01*
X170819778Y-59129467D01*
X170819774Y-59129462D01*
X170650537Y-58960225D01*
X170650532Y-58960221D01*
X170456919Y-58819554D01*
X170456918Y-58819553D01*
X170456916Y-58819552D01*
X170390324Y-58785621D01*
X170243674Y-58710898D01*
X170016051Y-58636939D01*
X169779671Y-58599500D01*
X169779666Y-58599500D01*
X169540334Y-58599500D01*
X169540329Y-58599500D01*
X169303948Y-58636939D01*
X169076325Y-58710898D01*
X168863080Y-58819554D01*
X168669467Y-58960221D01*
X168669462Y-58960225D01*
X168500225Y-59129462D01*
X168500221Y-59129467D01*
X168359554Y-59323080D01*
X168250898Y-59536325D01*
X168176939Y-59763948D01*
X168139500Y-60000328D01*
X150860500Y-60000328D01*
X150840644Y-59874970D01*
X150823061Y-59763949D01*
X150749103Y-59536330D01*
X150749101Y-59536327D01*
X150749101Y-59536325D01*
X150709681Y-59458961D01*
X150640448Y-59323084D01*
X150622476Y-59298347D01*
X150499778Y-59129467D01*
X150499774Y-59129462D01*
X150330537Y-58960225D01*
X150330532Y-58960221D01*
X150136919Y-58819554D01*
X150136918Y-58819553D01*
X150136916Y-58819552D01*
X150070324Y-58785621D01*
X149923674Y-58710898D01*
X149696051Y-58636939D01*
X149459671Y-58599500D01*
X149459666Y-58599500D01*
X149220334Y-58599500D01*
X149220329Y-58599500D01*
X148983948Y-58636939D01*
X148756325Y-58710898D01*
X148543080Y-58819554D01*
X148349467Y-58960221D01*
X148349462Y-58960225D01*
X148180225Y-59129462D01*
X148180221Y-59129467D01*
X148039554Y-59323080D01*
X147930898Y-59536325D01*
X147856939Y-59763948D01*
X147819500Y-60000328D01*
X47000500Y-60000328D01*
X47000500Y-56807158D01*
X56149500Y-56807158D01*
X56149500Y-57036641D01*
X56174446Y-57226115D01*
X56179452Y-57264138D01*
X56179453Y-57264140D01*
X56238842Y-57485787D01*
X56326650Y-57697776D01*
X56326657Y-57697790D01*
X56441392Y-57896517D01*
X56581081Y-58078561D01*
X56581089Y-58078570D01*
X56743330Y-58240811D01*
X56743338Y-58240818D01*
X56925382Y-58380507D01*
X56925385Y-58380508D01*
X56925388Y-58380511D01*
X57124112Y-58495244D01*
X57124117Y-58495246D01*
X57124123Y-58495249D01*
X57215480Y-58533090D01*
X57336113Y-58583058D01*
X57557762Y-58642448D01*
X57785266Y-58672400D01*
X57785273Y-58672400D01*
X58014727Y-58672400D01*
X58014734Y-58672400D01*
X58242238Y-58642448D01*
X58463887Y-58583058D01*
X58675888Y-58495244D01*
X58874612Y-58380511D01*
X59056661Y-58240819D01*
X59056665Y-58240814D01*
X59056670Y-58240811D01*
X59218911Y-58078570D01*
X59218914Y-58078565D01*
X59218919Y-58078561D01*
X59358611Y-57896512D01*
X59473344Y-57697788D01*
X59561158Y-57485787D01*
X59620548Y-57264138D01*
X59650500Y-57036634D01*
X59650500Y-56807166D01*
X59650499Y-56807158D01*
X102349500Y-56807158D01*
X102349500Y-57036641D01*
X102374446Y-57226115D01*
X102379452Y-57264138D01*
X102379453Y-57264140D01*
X102438842Y-57485787D01*
X102526650Y-57697776D01*
X102526657Y-57697790D01*
X102641392Y-57896517D01*
X102781081Y-58078561D01*
X102781089Y-58078570D01*
X102943330Y-58240811D01*
X102943338Y-58240818D01*
X103125382Y-58380507D01*
X103125385Y-58380508D01*
X103125388Y-58380511D01*
X103324112Y-58495244D01*
X103324117Y-58495246D01*
X103324123Y-58495249D01*
X103415480Y-58533090D01*
X103536113Y-58583058D01*
X103757762Y-58642448D01*
X103985266Y-58672400D01*
X103985273Y-58672400D01*
X104214727Y-58672400D01*
X104214734Y-58672400D01*
X104442238Y-58642448D01*
X104663887Y-58583058D01*
X104875888Y-58495244D01*
X105074612Y-58380511D01*
X105256661Y-58240819D01*
X105256665Y-58240814D01*
X105256670Y-58240811D01*
X105418911Y-58078570D01*
X105418914Y-58078565D01*
X105418919Y-58078561D01*
X105558611Y-57896512D01*
X105673344Y-57697788D01*
X105761158Y-57485787D01*
X105820548Y-57264138D01*
X105850500Y-57036634D01*
X105850500Y-56807166D01*
X105821285Y-56585258D01*
X123849500Y-56585258D01*
X123849500Y-56814741D01*
X123874446Y-57004215D01*
X123879452Y-57042238D01*
X123879453Y-57042240D01*
X123938842Y-57263887D01*
X124026650Y-57475876D01*
X124026657Y-57475890D01*
X124141392Y-57674617D01*
X124281081Y-57856661D01*
X124281089Y-57856670D01*
X124443330Y-58018911D01*
X124443338Y-58018918D01*
X124625382Y-58158607D01*
X124625385Y-58158608D01*
X124625388Y-58158611D01*
X124824112Y-58273344D01*
X124824117Y-58273346D01*
X124824123Y-58273349D01*
X124915480Y-58311190D01*
X125036113Y-58361158D01*
X125257762Y-58420548D01*
X125485266Y-58450500D01*
X125485273Y-58450500D01*
X125714727Y-58450500D01*
X125714734Y-58450500D01*
X125942238Y-58420548D01*
X126163887Y-58361158D01*
X126375888Y-58273344D01*
X126574612Y-58158611D01*
X126756661Y-58018919D01*
X126756665Y-58018914D01*
X126756670Y-58018911D01*
X126918911Y-57856670D01*
X126918914Y-57856665D01*
X126918919Y-57856661D01*
X127058611Y-57674612D01*
X127173344Y-57475888D01*
X127261158Y-57263887D01*
X127320548Y-57042238D01*
X127350500Y-56814734D01*
X127350500Y-56585266D01*
X127350499Y-56585258D01*
X136449500Y-56585258D01*
X136449500Y-56814741D01*
X136474446Y-57004215D01*
X136479452Y-57042238D01*
X136479453Y-57042240D01*
X136538842Y-57263887D01*
X136626650Y-57475876D01*
X136626657Y-57475890D01*
X136741392Y-57674617D01*
X136881081Y-57856661D01*
X136881089Y-57856670D01*
X137043330Y-58018911D01*
X137043338Y-58018918D01*
X137225382Y-58158607D01*
X137225385Y-58158608D01*
X137225388Y-58158611D01*
X137424112Y-58273344D01*
X137424117Y-58273346D01*
X137424123Y-58273349D01*
X137515480Y-58311190D01*
X137636113Y-58361158D01*
X137857762Y-58420548D01*
X138085266Y-58450500D01*
X138085273Y-58450500D01*
X138314727Y-58450500D01*
X138314734Y-58450500D01*
X138542238Y-58420548D01*
X138763887Y-58361158D01*
X138975888Y-58273344D01*
X139174612Y-58158611D01*
X139356661Y-58018919D01*
X139356665Y-58018914D01*
X139356670Y-58018911D01*
X139518911Y-57856670D01*
X139518914Y-57856665D01*
X139518919Y-57856661D01*
X139658611Y-57674612D01*
X139773344Y-57475888D01*
X139861158Y-57263887D01*
X139920548Y-57042238D01*
X139950500Y-56814734D01*
X139950500Y-56585266D01*
X139920548Y-56357762D01*
X139861158Y-56136113D01*
X139794038Y-55974071D01*
X139773349Y-55924123D01*
X139773346Y-55924117D01*
X139773344Y-55924112D01*
X139658611Y-55725388D01*
X139658608Y-55725385D01*
X139658607Y-55725382D01*
X139518918Y-55543338D01*
X139518911Y-55543330D01*
X139356670Y-55381089D01*
X139356661Y-55381081D01*
X139174617Y-55241392D01*
X138975890Y-55126657D01*
X138975876Y-55126650D01*
X138763887Y-55038842D01*
X138542238Y-54979452D01*
X138504215Y-54974446D01*
X138314741Y-54949500D01*
X138314734Y-54949500D01*
X138085266Y-54949500D01*
X138085258Y-54949500D01*
X137868715Y-54978009D01*
X137857762Y-54979452D01*
X137764076Y-55004554D01*
X137636112Y-55038842D01*
X137424123Y-55126650D01*
X137424109Y-55126657D01*
X137225382Y-55241392D01*
X137043338Y-55381081D01*
X136881081Y-55543338D01*
X136741392Y-55725382D01*
X136626657Y-55924109D01*
X136626650Y-55924123D01*
X136538842Y-56136112D01*
X136479453Y-56357759D01*
X136479451Y-56357770D01*
X136449500Y-56585258D01*
X127350499Y-56585258D01*
X127320548Y-56357762D01*
X127261158Y-56136113D01*
X127194038Y-55974071D01*
X127173349Y-55924123D01*
X127173346Y-55924117D01*
X127173344Y-55924112D01*
X127058611Y-55725388D01*
X127058608Y-55725385D01*
X127058607Y-55725382D01*
X126918918Y-55543338D01*
X126918911Y-55543330D01*
X126756670Y-55381089D01*
X126756661Y-55381081D01*
X126574617Y-55241392D01*
X126375890Y-55126657D01*
X126375876Y-55126650D01*
X126163887Y-55038842D01*
X125942238Y-54979452D01*
X125904215Y-54974446D01*
X125714741Y-54949500D01*
X125714734Y-54949500D01*
X125485266Y-54949500D01*
X125485258Y-54949500D01*
X125268715Y-54978009D01*
X125257762Y-54979452D01*
X125164076Y-55004554D01*
X125036112Y-55038842D01*
X124824123Y-55126650D01*
X124824109Y-55126657D01*
X124625382Y-55241392D01*
X124443338Y-55381081D01*
X124281081Y-55543338D01*
X124141392Y-55725382D01*
X124026657Y-55924109D01*
X124026650Y-55924123D01*
X123938842Y-56136112D01*
X123879453Y-56357759D01*
X123879451Y-56357770D01*
X123849500Y-56585258D01*
X105821285Y-56585258D01*
X105820548Y-56579662D01*
X105761158Y-56358013D01*
X105695914Y-56200500D01*
X105673349Y-56146023D01*
X105673346Y-56146017D01*
X105673344Y-56146012D01*
X105558611Y-55947288D01*
X105558608Y-55947285D01*
X105558607Y-55947282D01*
X105418918Y-55765238D01*
X105418911Y-55765230D01*
X105256670Y-55602989D01*
X105256661Y-55602981D01*
X105074617Y-55463292D01*
X104875890Y-55348557D01*
X104875876Y-55348550D01*
X104663887Y-55260742D01*
X104442238Y-55201352D01*
X104404215Y-55196346D01*
X104214741Y-55171400D01*
X104214734Y-55171400D01*
X103985266Y-55171400D01*
X103985258Y-55171400D01*
X103768715Y-55199909D01*
X103757762Y-55201352D01*
X103664076Y-55226454D01*
X103536112Y-55260742D01*
X103324123Y-55348550D01*
X103324109Y-55348557D01*
X103125382Y-55463292D01*
X102943338Y-55602981D01*
X102781081Y-55765238D01*
X102641392Y-55947282D01*
X102526657Y-56146009D01*
X102526650Y-56146023D01*
X102438842Y-56358012D01*
X102379453Y-56579659D01*
X102379451Y-56579670D01*
X102349500Y-56807158D01*
X59650499Y-56807158D01*
X59620548Y-56579662D01*
X59561158Y-56358013D01*
X59495914Y-56200500D01*
X59473349Y-56146023D01*
X59473346Y-56146017D01*
X59473344Y-56146012D01*
X59358611Y-55947288D01*
X59358608Y-55947285D01*
X59358607Y-55947282D01*
X59218918Y-55765238D01*
X59218911Y-55765230D01*
X59056670Y-55602989D01*
X59056661Y-55602981D01*
X58874617Y-55463292D01*
X58675890Y-55348557D01*
X58675876Y-55348550D01*
X58463887Y-55260742D01*
X58242238Y-55201352D01*
X58204215Y-55196346D01*
X58014741Y-55171400D01*
X58014734Y-55171400D01*
X57785266Y-55171400D01*
X57785258Y-55171400D01*
X57568715Y-55199909D01*
X57557762Y-55201352D01*
X57464076Y-55226454D01*
X57336112Y-55260742D01*
X57124123Y-55348550D01*
X57124109Y-55348557D01*
X56925382Y-55463292D01*
X56743338Y-55602981D01*
X56581081Y-55765238D01*
X56441392Y-55947282D01*
X56326657Y-56146009D01*
X56326650Y-56146023D01*
X56238842Y-56358012D01*
X56179453Y-56579659D01*
X56179451Y-56579670D01*
X56149500Y-56807158D01*
X47000500Y-56807158D01*
X47000500Y-54772100D01*
X47020185Y-54705061D01*
X47072989Y-54659306D01*
X47142147Y-54649362D01*
X47205703Y-54678387D01*
X47227132Y-54702512D01*
X47394594Y-54949500D01*
X47408498Y-54970006D01*
X47408505Y-54970016D01*
X47636685Y-55238649D01*
X47636686Y-55238650D01*
X47892580Y-55481046D01*
X48173182Y-55694354D01*
X48475202Y-55876074D01*
X48475206Y-55876075D01*
X48475210Y-55876078D01*
X48795088Y-56024070D01*
X48795092Y-56024070D01*
X48795099Y-56024074D01*
X49129122Y-56136619D01*
X49473355Y-56212391D01*
X49823763Y-56250500D01*
X49823769Y-56250500D01*
X50176231Y-56250500D01*
X50176237Y-56250500D01*
X50526645Y-56212391D01*
X50870878Y-56136619D01*
X51204901Y-56024074D01*
X51204908Y-56024070D01*
X51204911Y-56024070D01*
X51524789Y-55876078D01*
X51524798Y-55876074D01*
X51826818Y-55694354D01*
X52107420Y-55481046D01*
X52363314Y-55238650D01*
X52591501Y-54970008D01*
X52789305Y-54678269D01*
X52954407Y-54366854D01*
X53084871Y-54039414D01*
X53098754Y-53989414D01*
X53164395Y-53752994D01*
X53179168Y-53699788D01*
X53236191Y-53351957D01*
X53255274Y-53000000D01*
X53252020Y-52939993D01*
X53236191Y-52648045D01*
X53236103Y-52647506D01*
X53179168Y-52300212D01*
X53136704Y-52147271D01*
X53084873Y-51960591D01*
X53084872Y-51960589D01*
X52954411Y-51633155D01*
X52954402Y-51633137D01*
X52927903Y-51583155D01*
X52789305Y-51321731D01*
X52591501Y-51029992D01*
X52591497Y-51029987D01*
X52591494Y-51029983D01*
X52363314Y-50761350D01*
X52310530Y-50711350D01*
X52107420Y-50518954D01*
X52107413Y-50518948D01*
X52107410Y-50518946D01*
X52040852Y-50468350D01*
X51826818Y-50305646D01*
X51702339Y-50230749D01*
X51655045Y-50179321D01*
X51643063Y-50110486D01*
X51670198Y-50046101D01*
X51727835Y-50006607D01*
X51766269Y-50000500D01*
X111233731Y-50000500D01*
X111300770Y-50020185D01*
G37*
%TD.AperFunction*%
%TD*%
M02*
