M48
; DRILL file {KiCad 8.0.4} date 2024-09-02T14:27:58-0400
; FORMAT={-:-/ absolute / metric / decimal}
; #@! TF.CreationDate,2024-09-02T14:27:58-04:00
; #@! TF.GenerationSoftware,Kicad,Pcbnew,8.0.4
; #@! TF.FileFunction,Plated,1,4,PTH
FMAT,2
METRIC
; #@! TA.AperFunction,Plated,PTH,ViaDrill
T1C0.300
; #@! TA.AperFunction,Plated,PTH,ComponentDrill
T2C1.020
; #@! TA.AperFunction,Plated,PTH,ComponentDrill
T3C1.100
; #@! TA.AperFunction,Plated,PTH,ComponentDrill
T4C1.300
; #@! TA.AperFunction,Plated,PTH,ComponentDrill
T5C1.600
; #@! TA.AperFunction,Plated,PTH,ComponentDrill
T6C1.800
; #@! TA.AperFunction,Plated,PTH,ComponentDrill
T7C1.850
; #@! TA.AperFunction,Plated,PTH,ComponentDrill
T8C3.200
%
G90
G05
T1
X48.2Y-104.6
X52.2Y-100.0
X55.0Y-98.0
X56.0Y-91.2
X66.378Y-82.5
X80.4Y-77.4
X89.0Y-76.5
X99.675Y-82.925
T2
X127.745Y-91.348
X127.745Y-93.888
X127.745Y-96.428
X127.745Y-98.968
T3
X109.27Y-104.5
X109.27Y-109.58
T4
X76.43Y-106.25
X81.51Y-106.25
X86.59Y-106.25
X91.67Y-106.25
X96.75Y-106.25
X101.83Y-106.25
T5
X67.015Y-93.55
X67.015Y-96.95
X80.485Y-93.55
X80.485Y-96.95
X89.015Y-93.55
X89.015Y-96.95
X102.485Y-93.55
X102.485Y-96.95
T6
X58.1Y-68.722
X58.1Y-74.222
X62.3Y-68.722
X62.3Y-74.222
X66.5Y-68.722
X66.5Y-74.222
X70.7Y-68.722
X70.7Y-74.222
X74.9Y-68.722
X74.9Y-74.222
X79.1Y-68.722
X79.1Y-74.222
X83.3Y-68.722
X83.3Y-74.222
X87.5Y-68.722
X87.5Y-74.222
X91.7Y-68.722
X91.7Y-74.222
X95.9Y-68.722
X95.9Y-74.222
X100.1Y-68.722
X100.1Y-74.222
X104.3Y-68.722
X104.3Y-74.222
X113.15Y-68.8
X113.15Y-74.3
X117.35Y-68.8
X117.35Y-74.3
X121.55Y-68.8
X121.55Y-74.3
X125.75Y-68.8
X125.75Y-74.3
T7
X52.0Y-84.5
X56.7Y-84.5
X61.4Y-84.5
X110.85Y-97.0
X115.55Y-97.0
X120.25Y-97.0
T8
X47.5Y-57.5
X47.5Y-110.25
X133.5Y-57.5
X133.5Y-110.25
M30
