%TF.GenerationSoftware,KiCad,Pcbnew,10.0.5*%
%TF.CreationDate,2026-08-08T21:12:03-04:00*%
%TF.ProjectId,360_atx_power_board,3336305f-6174-4785-9f70-6f7765725f62,rev?*%
%TF.SameCoordinates,Original*%
%TF.FileFunction,Drillmap*%
%TF.FilePolarity,Positive*%
%FSLAX45Y45*%
G04 Gerber Fmt 4.5, Leading zero omitted, Abs format (unit mm)*
G04 Created by KiCad (PCBNEW 10.0.5) date 2026-08-08 21:12:03*
%MOMM*%
%LPD*%
G01*
G04 APERTURE LIST*
%ADD10C,0.050000*%
%ADD11C,0.200000*%
%ADD12C,0.100000*%
%ADD13C,0.102000*%
%ADD14C,0.110000*%
%ADD15C,0.130000*%
%ADD16C,0.160000*%
%ADD17C,0.180000*%
%ADD18C,0.185000*%
%ADD19C,0.320000*%
G04 APERTURE END LIST*
D10*
X4375000Y-5400000D02*
X13700000Y-5400000D01*
X13700000Y-11375000D01*
X4375000Y-11375000D01*
X4375000Y-5400000D01*
D11*
D12*
X4805000Y-10445000D02*
X4835000Y-10475000D01*
X4835000Y-10445000D02*
X4805000Y-10475000D01*
X5205000Y-9985000D02*
X5235000Y-10015000D01*
X5235000Y-9985000D02*
X5205000Y-10015000D01*
X5485000Y-9785000D02*
X5515000Y-9815000D01*
X5515000Y-9785000D02*
X5485000Y-9815000D01*
X5585000Y-9105000D02*
X5615000Y-9135000D01*
X5615000Y-9105000D02*
X5585000Y-9135000D01*
X6622810Y-8235000D02*
X6652810Y-8265000D01*
X6652810Y-8235000D02*
X6622810Y-8265000D01*
X8025000Y-7725000D02*
X8055000Y-7755000D01*
X8055000Y-7725000D02*
X8025000Y-7755000D01*
X8885000Y-7635000D02*
X8915000Y-7665000D01*
X8915000Y-7635000D02*
X8885000Y-7665000D01*
X9952500Y-8277500D02*
X9982500Y-8307500D01*
X9982500Y-8277500D02*
X9952500Y-8307500D01*
D13*
X12825500Y-9134800D02*
G75*
G02*
X12723500Y-9134800I-51000J0D01*
G01*
X12723500Y-9134800D02*
G75*
G02*
X12825500Y-9134800I51000J0D01*
G01*
X12825500Y-9388800D02*
G75*
G02*
X12723500Y-9388800I-51000J0D01*
G01*
X12723500Y-9388800D02*
G75*
G02*
X12825500Y-9388800I51000J0D01*
G01*
X12825500Y-9642800D02*
G75*
G02*
X12723500Y-9642800I-51000J0D01*
G01*
X12723500Y-9642800D02*
G75*
G02*
X12825500Y-9642800I51000J0D01*
G01*
X12825500Y-9896800D02*
G75*
G02*
X12723500Y-9896800I-51000J0D01*
G01*
X12723500Y-9896800D02*
G75*
G02*
X12825500Y-9896800I51000J0D01*
G01*
D14*
X10927000Y-10395000D02*
X10927000Y-10505000D01*
X10872000Y-10450000D02*
X10982000Y-10450000D01*
X10927000Y-10903000D02*
X10927000Y-11013000D01*
X10872000Y-10958000D02*
X10982000Y-10958000D01*
D15*
X7688962Y-10670962D02*
X7688962Y-10579038D01*
X7597038Y-10579038D01*
X7597038Y-10670962D01*
X7688962Y-10670962D01*
X8196962Y-10670962D02*
X8196962Y-10579038D01*
X8105038Y-10579038D01*
X8105038Y-10670962D01*
X8196962Y-10670962D01*
X8704962Y-10670962D02*
X8704962Y-10579038D01*
X8613038Y-10579038D01*
X8613038Y-10670962D01*
X8704962Y-10670962D01*
X9212962Y-10670962D02*
X9212962Y-10579038D01*
X9121038Y-10579038D01*
X9121038Y-10670962D01*
X9212962Y-10670962D01*
X9720962Y-10670962D02*
X9720962Y-10579038D01*
X9629038Y-10579038D01*
X9629038Y-10670962D01*
X9720962Y-10670962D01*
X10228962Y-10670962D02*
X10228962Y-10579038D01*
X10137038Y-10579038D01*
X10137038Y-10670962D01*
X10228962Y-10670962D01*
D16*
X6701500Y-9435000D02*
X6781500Y-9355000D01*
X6701500Y-9275000D01*
X6621500Y-9355000D01*
X6701500Y-9435000D01*
X6701500Y-9775000D02*
X6781500Y-9695000D01*
X6701500Y-9615000D01*
X6621500Y-9695000D01*
X6701500Y-9775000D01*
X8048500Y-9435000D02*
X8128500Y-9355000D01*
X8048500Y-9275000D01*
X7968500Y-9355000D01*
X8048500Y-9435000D01*
X8048500Y-9775000D02*
X8128500Y-9695000D01*
X8048500Y-9615000D01*
X7968500Y-9695000D01*
X8048500Y-9775000D01*
X8901500Y-9435000D02*
X8981500Y-9355000D01*
X8901500Y-9275000D01*
X8821500Y-9355000D01*
X8901500Y-9435000D01*
X8901500Y-9775000D02*
X8981500Y-9695000D01*
X8901500Y-9615000D01*
X8821500Y-9695000D01*
X8901500Y-9775000D01*
X10248500Y-9435000D02*
X10328500Y-9355000D01*
X10248500Y-9275000D01*
X10168500Y-9355000D01*
X10248500Y-9435000D01*
X10248500Y-9775000D02*
X10328500Y-9695000D01*
X10248500Y-9615000D01*
X10168500Y-9695000D01*
X10248500Y-9775000D01*
D17*
X5720000Y-6782190D02*
X5900000Y-6962190D01*
X5900000Y-6782190D02*
X5720000Y-6962190D01*
X5900000Y-6872190D02*
G75*
G02*
X5720000Y-6872190I-90000J0D01*
G01*
X5720000Y-6872190D02*
G75*
G02*
X5900000Y-6872190I90000J0D01*
G01*
X5720000Y-7332190D02*
X5900000Y-7512190D01*
X5900000Y-7332190D02*
X5720000Y-7512190D01*
X5900000Y-7422190D02*
G75*
G02*
X5720000Y-7422190I-90000J0D01*
G01*
X5720000Y-7422190D02*
G75*
G02*
X5900000Y-7422190I90000J0D01*
G01*
X6140000Y-6782190D02*
X6320000Y-6962190D01*
X6320000Y-6782190D02*
X6140000Y-6962190D01*
X6320000Y-6872190D02*
G75*
G02*
X6140000Y-6872190I-90000J0D01*
G01*
X6140000Y-6872190D02*
G75*
G02*
X6320000Y-6872190I90000J0D01*
G01*
X6140000Y-7332190D02*
X6320000Y-7512190D01*
X6320000Y-7332190D02*
X6140000Y-7512190D01*
X6320000Y-7422190D02*
G75*
G02*
X6140000Y-7422190I-90000J0D01*
G01*
X6140000Y-7422190D02*
G75*
G02*
X6320000Y-7422190I90000J0D01*
G01*
X6560000Y-6782190D02*
X6740000Y-6962190D01*
X6740000Y-6782190D02*
X6560000Y-6962190D01*
X6740000Y-6872190D02*
G75*
G02*
X6560000Y-6872190I-90000J0D01*
G01*
X6560000Y-6872190D02*
G75*
G02*
X6740000Y-6872190I90000J0D01*
G01*
X6560000Y-7332190D02*
X6740000Y-7512190D01*
X6740000Y-7332190D02*
X6560000Y-7512190D01*
X6740000Y-7422190D02*
G75*
G02*
X6560000Y-7422190I-90000J0D01*
G01*
X6560000Y-7422190D02*
G75*
G02*
X6740000Y-7422190I90000J0D01*
G01*
X6980000Y-6782190D02*
X7160000Y-6962190D01*
X7160000Y-6782190D02*
X6980000Y-6962190D01*
X7160000Y-6872190D02*
G75*
G02*
X6980000Y-6872190I-90000J0D01*
G01*
X6980000Y-6872190D02*
G75*
G02*
X7160000Y-6872190I90000J0D01*
G01*
X6980000Y-7332190D02*
X7160000Y-7512190D01*
X7160000Y-7332190D02*
X6980000Y-7512190D01*
X7160000Y-7422190D02*
G75*
G02*
X6980000Y-7422190I-90000J0D01*
G01*
X6980000Y-7422190D02*
G75*
G02*
X7160000Y-7422190I90000J0D01*
G01*
X7400000Y-6782190D02*
X7580000Y-6962190D01*
X7580000Y-6782190D02*
X7400000Y-6962190D01*
X7580000Y-6872190D02*
G75*
G02*
X7400000Y-6872190I-90000J0D01*
G01*
X7400000Y-6872190D02*
G75*
G02*
X7580000Y-6872190I90000J0D01*
G01*
X7400000Y-7332190D02*
X7580000Y-7512190D01*
X7580000Y-7332190D02*
X7400000Y-7512190D01*
X7580000Y-7422190D02*
G75*
G02*
X7400000Y-7422190I-90000J0D01*
G01*
X7400000Y-7422190D02*
G75*
G02*
X7580000Y-7422190I90000J0D01*
G01*
X7820000Y-6782190D02*
X8000000Y-6962190D01*
X8000000Y-6782190D02*
X7820000Y-6962190D01*
X8000000Y-6872190D02*
G75*
G02*
X7820000Y-6872190I-90000J0D01*
G01*
X7820000Y-6872190D02*
G75*
G02*
X8000000Y-6872190I90000J0D01*
G01*
X7820000Y-7332190D02*
X8000000Y-7512190D01*
X8000000Y-7332190D02*
X7820000Y-7512190D01*
X8000000Y-7422190D02*
G75*
G02*
X7820000Y-7422190I-90000J0D01*
G01*
X7820000Y-7422190D02*
G75*
G02*
X8000000Y-7422190I90000J0D01*
G01*
X8240000Y-6782190D02*
X8420000Y-6962190D01*
X8420000Y-6782190D02*
X8240000Y-6962190D01*
X8420000Y-6872190D02*
G75*
G02*
X8240000Y-6872190I-90000J0D01*
G01*
X8240000Y-6872190D02*
G75*
G02*
X8420000Y-6872190I90000J0D01*
G01*
X8240000Y-7332190D02*
X8420000Y-7512190D01*
X8420000Y-7332190D02*
X8240000Y-7512190D01*
X8420000Y-7422190D02*
G75*
G02*
X8240000Y-7422190I-90000J0D01*
G01*
X8240000Y-7422190D02*
G75*
G02*
X8420000Y-7422190I90000J0D01*
G01*
X8660000Y-6782190D02*
X8840000Y-6962190D01*
X8840000Y-6782190D02*
X8660000Y-6962190D01*
X8840000Y-6872190D02*
G75*
G02*
X8660000Y-6872190I-90000J0D01*
G01*
X8660000Y-6872190D02*
G75*
G02*
X8840000Y-6872190I90000J0D01*
G01*
X8660000Y-7332190D02*
X8840000Y-7512190D01*
X8840000Y-7332190D02*
X8660000Y-7512190D01*
X8840000Y-7422190D02*
G75*
G02*
X8660000Y-7422190I-90000J0D01*
G01*
X8660000Y-7422190D02*
G75*
G02*
X8840000Y-7422190I90000J0D01*
G01*
X9080000Y-6782190D02*
X9260000Y-6962190D01*
X9260000Y-6782190D02*
X9080000Y-6962190D01*
X9260000Y-6872190D02*
G75*
G02*
X9080000Y-6872190I-90000J0D01*
G01*
X9080000Y-6872190D02*
G75*
G02*
X9260000Y-6872190I90000J0D01*
G01*
X9080000Y-7332190D02*
X9260000Y-7512190D01*
X9260000Y-7332190D02*
X9080000Y-7512190D01*
X9260000Y-7422190D02*
G75*
G02*
X9080000Y-7422190I-90000J0D01*
G01*
X9080000Y-7422190D02*
G75*
G02*
X9260000Y-7422190I90000J0D01*
G01*
X9500000Y-6782190D02*
X9680000Y-6962190D01*
X9680000Y-6782190D02*
X9500000Y-6962190D01*
X9680000Y-6872190D02*
G75*
G02*
X9500000Y-6872190I-90000J0D01*
G01*
X9500000Y-6872190D02*
G75*
G02*
X9680000Y-6872190I90000J0D01*
G01*
X9500000Y-7332190D02*
X9680000Y-7512190D01*
X9680000Y-7332190D02*
X9500000Y-7512190D01*
X9680000Y-7422190D02*
G75*
G02*
X9500000Y-7422190I-90000J0D01*
G01*
X9500000Y-7422190D02*
G75*
G02*
X9680000Y-7422190I90000J0D01*
G01*
X9920000Y-6782190D02*
X10100000Y-6962190D01*
X10100000Y-6782190D02*
X9920000Y-6962190D01*
X10100000Y-6872190D02*
G75*
G02*
X9920000Y-6872190I-90000J0D01*
G01*
X9920000Y-6872190D02*
G75*
G02*
X10100000Y-6872190I90000J0D01*
G01*
X9920000Y-7332190D02*
X10100000Y-7512190D01*
X10100000Y-7332190D02*
X9920000Y-7512190D01*
X10100000Y-7422190D02*
G75*
G02*
X9920000Y-7422190I-90000J0D01*
G01*
X9920000Y-7422190D02*
G75*
G02*
X10100000Y-7422190I90000J0D01*
G01*
X10340000Y-6782190D02*
X10520000Y-6962190D01*
X10520000Y-6782190D02*
X10340000Y-6962190D01*
X10520000Y-6872190D02*
G75*
G02*
X10340000Y-6872190I-90000J0D01*
G01*
X10340000Y-6872190D02*
G75*
G02*
X10520000Y-6872190I90000J0D01*
G01*
X10340000Y-7332190D02*
X10520000Y-7512190D01*
X10520000Y-7332190D02*
X10340000Y-7512190D01*
X10520000Y-7422190D02*
G75*
G02*
X10340000Y-7422190I-90000J0D01*
G01*
X10340000Y-7422190D02*
G75*
G02*
X10520000Y-7422190I90000J0D01*
G01*
X11225000Y-6790000D02*
X11405000Y-6970000D01*
X11405000Y-6790000D02*
X11225000Y-6970000D01*
X11405000Y-6880000D02*
G75*
G02*
X11225000Y-6880000I-90000J0D01*
G01*
X11225000Y-6880000D02*
G75*
G02*
X11405000Y-6880000I90000J0D01*
G01*
X11225000Y-7340000D02*
X11405000Y-7520000D01*
X11405000Y-7340000D02*
X11225000Y-7520000D01*
X11405000Y-7430000D02*
G75*
G02*
X11225000Y-7430000I-90000J0D01*
G01*
X11225000Y-7430000D02*
G75*
G02*
X11405000Y-7430000I90000J0D01*
G01*
X11645000Y-6790000D02*
X11825000Y-6970000D01*
X11825000Y-6790000D02*
X11645000Y-6970000D01*
X11825000Y-6880000D02*
G75*
G02*
X11645000Y-6880000I-90000J0D01*
G01*
X11645000Y-6880000D02*
G75*
G02*
X11825000Y-6880000I90000J0D01*
G01*
X11645000Y-7340000D02*
X11825000Y-7520000D01*
X11825000Y-7340000D02*
X11645000Y-7520000D01*
X11825000Y-7430000D02*
G75*
G02*
X11645000Y-7430000I-90000J0D01*
G01*
X11645000Y-7430000D02*
G75*
G02*
X11825000Y-7430000I90000J0D01*
G01*
X12065000Y-6790000D02*
X12245000Y-6970000D01*
X12245000Y-6790000D02*
X12065000Y-6970000D01*
X12245000Y-6880000D02*
G75*
G02*
X12065000Y-6880000I-90000J0D01*
G01*
X12065000Y-6880000D02*
G75*
G02*
X12245000Y-6880000I90000J0D01*
G01*
X12065000Y-7340000D02*
X12245000Y-7520000D01*
X12245000Y-7340000D02*
X12065000Y-7520000D01*
X12245000Y-7430000D02*
G75*
G02*
X12065000Y-7430000I-90000J0D01*
G01*
X12065000Y-7430000D02*
G75*
G02*
X12245000Y-7430000I90000J0D01*
G01*
X12485000Y-6790000D02*
X12665000Y-6970000D01*
X12665000Y-6790000D02*
X12485000Y-6970000D01*
X12665000Y-6880000D02*
G75*
G02*
X12485000Y-6880000I-90000J0D01*
G01*
X12485000Y-6880000D02*
G75*
G02*
X12665000Y-6880000I90000J0D01*
G01*
X12485000Y-7340000D02*
X12665000Y-7520000D01*
X12665000Y-7340000D02*
X12485000Y-7520000D01*
X12665000Y-7430000D02*
G75*
G02*
X12485000Y-7430000I-90000J0D01*
G01*
X12485000Y-7430000D02*
G75*
G02*
X12665000Y-7430000I90000J0D01*
G01*
D18*
X5107500Y-8357500D02*
X5292500Y-8542500D01*
X5292500Y-8357500D02*
X5107500Y-8542500D01*
X5200000Y-8357500D02*
X5200000Y-8542500D01*
X5107500Y-8450000D02*
X5292500Y-8450000D01*
X5577500Y-8357500D02*
X5762500Y-8542500D01*
X5762500Y-8357500D02*
X5577500Y-8542500D01*
X5670000Y-8357500D02*
X5670000Y-8542500D01*
X5577500Y-8450000D02*
X5762500Y-8450000D01*
X6047500Y-8357500D02*
X6232500Y-8542500D01*
X6232500Y-8357500D02*
X6047500Y-8542500D01*
X6140000Y-8357500D02*
X6140000Y-8542500D01*
X6047500Y-8450000D02*
X6232500Y-8450000D01*
X10992500Y-9607500D02*
X11177500Y-9792500D01*
X11177500Y-9607500D02*
X10992500Y-9792500D01*
X11085000Y-9607500D02*
X11085000Y-9792500D01*
X10992500Y-9700000D02*
X11177500Y-9700000D01*
X11462500Y-9607500D02*
X11647500Y-9792500D01*
X11647500Y-9607500D02*
X11462500Y-9792500D01*
X11555000Y-9607500D02*
X11555000Y-9792500D01*
X11462500Y-9700000D02*
X11647500Y-9700000D01*
X11932500Y-9607500D02*
X12117500Y-9792500D01*
X12117500Y-9607500D02*
X11932500Y-9792500D01*
X12025000Y-9607500D02*
X12025000Y-9792500D01*
X11932500Y-9700000D02*
X12117500Y-9700000D01*
D19*
X4590000Y-5590000D02*
X4910000Y-5910000D01*
X4910000Y-5590000D02*
X4590000Y-5910000D01*
X4863138Y-5863138D02*
X4863138Y-5636862D01*
X4636862Y-5636862D01*
X4636862Y-5863138D01*
X4863138Y-5863138D01*
X4590000Y-10865000D02*
X4910000Y-11185000D01*
X4910000Y-10865000D02*
X4590000Y-11185000D01*
X4863138Y-11138138D02*
X4863138Y-10911862D01*
X4636862Y-10911862D01*
X4636862Y-11138138D01*
X4863138Y-11138138D01*
X13190000Y-5590000D02*
X13510000Y-5910000D01*
X13510000Y-5590000D02*
X13190000Y-5910000D01*
X13463138Y-5863138D02*
X13463138Y-5636862D01*
X13236862Y-5636862D01*
X13236862Y-5863138D01*
X13463138Y-5863138D01*
X13190000Y-10865000D02*
X13510000Y-11185000D01*
X13510000Y-10865000D02*
X13190000Y-11185000D01*
X13463138Y-11138138D02*
X13463138Y-10911862D01*
X13236862Y-10911862D01*
X13236862Y-11138138D01*
X13463138Y-11138138D01*
D11*
X4633277Y-11688984D02*
X4633277Y-11488984D01*
X4633277Y-11488984D02*
X4680896Y-11488984D01*
X4680896Y-11488984D02*
X4709467Y-11498508D01*
X4709467Y-11498508D02*
X4728515Y-11517555D01*
X4728515Y-11517555D02*
X4738039Y-11536603D01*
X4738039Y-11536603D02*
X4747563Y-11574698D01*
X4747563Y-11574698D02*
X4747563Y-11603269D01*
X4747563Y-11603269D02*
X4738039Y-11641365D01*
X4738039Y-11641365D02*
X4728515Y-11660412D01*
X4728515Y-11660412D02*
X4709467Y-11679460D01*
X4709467Y-11679460D02*
X4680896Y-11688984D01*
X4680896Y-11688984D02*
X4633277Y-11688984D01*
X4833277Y-11688984D02*
X4833277Y-11555650D01*
X4833277Y-11593746D02*
X4842801Y-11574698D01*
X4842801Y-11574698D02*
X4852324Y-11565174D01*
X4852324Y-11565174D02*
X4871372Y-11555650D01*
X4871372Y-11555650D02*
X4890420Y-11555650D01*
X4957086Y-11688984D02*
X4957086Y-11555650D01*
X4957086Y-11488984D02*
X4947563Y-11498508D01*
X4947563Y-11498508D02*
X4957086Y-11508031D01*
X4957086Y-11508031D02*
X4966610Y-11498508D01*
X4966610Y-11498508D02*
X4957086Y-11488984D01*
X4957086Y-11488984D02*
X4957086Y-11508031D01*
X5080896Y-11688984D02*
X5061848Y-11679460D01*
X5061848Y-11679460D02*
X5052324Y-11660412D01*
X5052324Y-11660412D02*
X5052324Y-11488984D01*
X5185658Y-11688984D02*
X5166610Y-11679460D01*
X5166610Y-11679460D02*
X5157086Y-11660412D01*
X5157086Y-11660412D02*
X5157086Y-11488984D01*
X5414229Y-11688984D02*
X5414229Y-11488984D01*
X5414229Y-11488984D02*
X5480896Y-11631841D01*
X5480896Y-11631841D02*
X5547563Y-11488984D01*
X5547563Y-11488984D02*
X5547563Y-11688984D01*
X5728515Y-11688984D02*
X5728515Y-11584222D01*
X5728515Y-11584222D02*
X5718991Y-11565174D01*
X5718991Y-11565174D02*
X5699943Y-11555650D01*
X5699943Y-11555650D02*
X5661848Y-11555650D01*
X5661848Y-11555650D02*
X5642801Y-11565174D01*
X5728515Y-11679460D02*
X5709467Y-11688984D01*
X5709467Y-11688984D02*
X5661848Y-11688984D01*
X5661848Y-11688984D02*
X5642801Y-11679460D01*
X5642801Y-11679460D02*
X5633277Y-11660412D01*
X5633277Y-11660412D02*
X5633277Y-11641365D01*
X5633277Y-11641365D02*
X5642801Y-11622317D01*
X5642801Y-11622317D02*
X5661848Y-11612793D01*
X5661848Y-11612793D02*
X5709467Y-11612793D01*
X5709467Y-11612793D02*
X5728515Y-11603269D01*
X5823753Y-11555650D02*
X5823753Y-11755650D01*
X5823753Y-11565174D02*
X5842801Y-11555650D01*
X5842801Y-11555650D02*
X5880896Y-11555650D01*
X5880896Y-11555650D02*
X5899943Y-11565174D01*
X5899943Y-11565174D02*
X5909467Y-11574698D01*
X5909467Y-11574698D02*
X5918991Y-11593746D01*
X5918991Y-11593746D02*
X5918991Y-11650888D01*
X5918991Y-11650888D02*
X5909467Y-11669936D01*
X5909467Y-11669936D02*
X5899943Y-11679460D01*
X5899943Y-11679460D02*
X5880896Y-11688984D01*
X5880896Y-11688984D02*
X5842801Y-11688984D01*
X5842801Y-11688984D02*
X5823753Y-11679460D01*
X6004705Y-11669936D02*
X6014229Y-11679460D01*
X6014229Y-11679460D02*
X6004705Y-11688984D01*
X6004705Y-11688984D02*
X5995182Y-11679460D01*
X5995182Y-11679460D02*
X6004705Y-11669936D01*
X6004705Y-11669936D02*
X6004705Y-11688984D01*
X6004705Y-11565174D02*
X6014229Y-11574698D01*
X6014229Y-11574698D02*
X6004705Y-11584222D01*
X6004705Y-11584222D02*
X5995182Y-11574698D01*
X5995182Y-11574698D02*
X6004705Y-11565174D01*
X6004705Y-11565174D02*
X6004705Y-11584222D01*
D12*
X4342500Y-12002500D02*
X4372500Y-12032500D01*
X4372500Y-12002500D02*
X4342500Y-12032500D01*
D11*
X4671372Y-11908984D02*
X4690420Y-11908984D01*
X4690420Y-11908984D02*
X4709467Y-11918508D01*
X4709467Y-11918508D02*
X4718991Y-11928031D01*
X4718991Y-11928031D02*
X4728515Y-11947079D01*
X4728515Y-11947079D02*
X4738039Y-11985174D01*
X4738039Y-11985174D02*
X4738039Y-12032793D01*
X4738039Y-12032793D02*
X4728515Y-12070888D01*
X4728515Y-12070888D02*
X4718991Y-12089936D01*
X4718991Y-12089936D02*
X4709467Y-12099460D01*
X4709467Y-12099460D02*
X4690420Y-12108984D01*
X4690420Y-12108984D02*
X4671372Y-12108984D01*
X4671372Y-12108984D02*
X4652324Y-12099460D01*
X4652324Y-12099460D02*
X4642801Y-12089936D01*
X4642801Y-12089936D02*
X4633277Y-12070888D01*
X4633277Y-12070888D02*
X4623753Y-12032793D01*
X4623753Y-12032793D02*
X4623753Y-11985174D01*
X4623753Y-11985174D02*
X4633277Y-11947079D01*
X4633277Y-11947079D02*
X4642801Y-11928031D01*
X4642801Y-11928031D02*
X4652324Y-11918508D01*
X4652324Y-11918508D02*
X4671372Y-11908984D01*
X4823753Y-12089936D02*
X4833277Y-12099460D01*
X4833277Y-12099460D02*
X4823753Y-12108984D01*
X4823753Y-12108984D02*
X4814229Y-12099460D01*
X4814229Y-12099460D02*
X4823753Y-12089936D01*
X4823753Y-12089936D02*
X4823753Y-12108984D01*
X4899944Y-11908984D02*
X5023753Y-11908984D01*
X5023753Y-11908984D02*
X4957086Y-11985174D01*
X4957086Y-11985174D02*
X4985658Y-11985174D01*
X4985658Y-11985174D02*
X5004705Y-11994698D01*
X5004705Y-11994698D02*
X5014229Y-12004222D01*
X5014229Y-12004222D02*
X5023753Y-12023269D01*
X5023753Y-12023269D02*
X5023753Y-12070888D01*
X5023753Y-12070888D02*
X5014229Y-12089936D01*
X5014229Y-12089936D02*
X5004705Y-12099460D01*
X5004705Y-12099460D02*
X4985658Y-12108984D01*
X4985658Y-12108984D02*
X4928515Y-12108984D01*
X4928515Y-12108984D02*
X4909467Y-12099460D01*
X4909467Y-12099460D02*
X4899944Y-12089936D01*
X5147563Y-11908984D02*
X5166610Y-11908984D01*
X5166610Y-11908984D02*
X5185658Y-11918508D01*
X5185658Y-11918508D02*
X5195182Y-11928031D01*
X5195182Y-11928031D02*
X5204705Y-11947079D01*
X5204705Y-11947079D02*
X5214229Y-11985174D01*
X5214229Y-11985174D02*
X5214229Y-12032793D01*
X5214229Y-12032793D02*
X5204705Y-12070888D01*
X5204705Y-12070888D02*
X5195182Y-12089936D01*
X5195182Y-12089936D02*
X5185658Y-12099460D01*
X5185658Y-12099460D02*
X5166610Y-12108984D01*
X5166610Y-12108984D02*
X5147563Y-12108984D01*
X5147563Y-12108984D02*
X5128515Y-12099460D01*
X5128515Y-12099460D02*
X5118991Y-12089936D01*
X5118991Y-12089936D02*
X5109467Y-12070888D01*
X5109467Y-12070888D02*
X5099944Y-12032793D01*
X5099944Y-12032793D02*
X5099944Y-11985174D01*
X5099944Y-11985174D02*
X5109467Y-11947079D01*
X5109467Y-11947079D02*
X5118991Y-11928031D01*
X5118991Y-11928031D02*
X5128515Y-11918508D01*
X5128515Y-11918508D02*
X5147563Y-11908984D01*
X5338039Y-11908984D02*
X5357086Y-11908984D01*
X5357086Y-11908984D02*
X5376134Y-11918508D01*
X5376134Y-11918508D02*
X5385658Y-11928031D01*
X5385658Y-11928031D02*
X5395182Y-11947079D01*
X5395182Y-11947079D02*
X5404705Y-11985174D01*
X5404705Y-11985174D02*
X5404705Y-12032793D01*
X5404705Y-12032793D02*
X5395182Y-12070888D01*
X5395182Y-12070888D02*
X5385658Y-12089936D01*
X5385658Y-12089936D02*
X5376134Y-12099460D01*
X5376134Y-12099460D02*
X5357086Y-12108984D01*
X5357086Y-12108984D02*
X5338039Y-12108984D01*
X5338039Y-12108984D02*
X5318991Y-12099460D01*
X5318991Y-12099460D02*
X5309467Y-12089936D01*
X5309467Y-12089936D02*
X5299944Y-12070888D01*
X5299944Y-12070888D02*
X5290420Y-12032793D01*
X5290420Y-12032793D02*
X5290420Y-11985174D01*
X5290420Y-11985174D02*
X5299944Y-11947079D01*
X5299944Y-11947079D02*
X5309467Y-11928031D01*
X5309467Y-11928031D02*
X5318991Y-11918508D01*
X5318991Y-11918508D02*
X5338039Y-11908984D01*
X5490420Y-12108984D02*
X5490420Y-11975650D01*
X5490420Y-11994698D02*
X5499944Y-11985174D01*
X5499944Y-11985174D02*
X5518991Y-11975650D01*
X5518991Y-11975650D02*
X5547563Y-11975650D01*
X5547563Y-11975650D02*
X5566610Y-11985174D01*
X5566610Y-11985174D02*
X5576134Y-12004222D01*
X5576134Y-12004222D02*
X5576134Y-12108984D01*
X5576134Y-12004222D02*
X5585658Y-11985174D01*
X5585658Y-11985174D02*
X5604705Y-11975650D01*
X5604705Y-11975650D02*
X5633277Y-11975650D01*
X5633277Y-11975650D02*
X5652324Y-11985174D01*
X5652324Y-11985174D02*
X5661848Y-12004222D01*
X5661848Y-12004222D02*
X5661848Y-12108984D01*
X5757086Y-12108984D02*
X5757086Y-11975650D01*
X5757086Y-11994698D02*
X5766610Y-11985174D01*
X5766610Y-11985174D02*
X5785658Y-11975650D01*
X5785658Y-11975650D02*
X5814229Y-11975650D01*
X5814229Y-11975650D02*
X5833277Y-11985174D01*
X5833277Y-11985174D02*
X5842801Y-12004222D01*
X5842801Y-12004222D02*
X5842801Y-12108984D01*
X5842801Y-12004222D02*
X5852324Y-11985174D01*
X5852324Y-11985174D02*
X5871372Y-11975650D01*
X5871372Y-11975650D02*
X5899943Y-11975650D01*
X5899943Y-11975650D02*
X5918991Y-11985174D01*
X5918991Y-11985174D02*
X5928515Y-12004222D01*
X5928515Y-12004222D02*
X5928515Y-12108984D01*
X6318991Y-11899460D02*
X6147563Y-12156603D01*
X6576134Y-11908984D02*
X6595182Y-11908984D01*
X6595182Y-11908984D02*
X6614229Y-11918508D01*
X6614229Y-11918508D02*
X6623753Y-11928031D01*
X6623753Y-11928031D02*
X6633277Y-11947079D01*
X6633277Y-11947079D02*
X6642801Y-11985174D01*
X6642801Y-11985174D02*
X6642801Y-12032793D01*
X6642801Y-12032793D02*
X6633277Y-12070888D01*
X6633277Y-12070888D02*
X6623753Y-12089936D01*
X6623753Y-12089936D02*
X6614229Y-12099460D01*
X6614229Y-12099460D02*
X6595182Y-12108984D01*
X6595182Y-12108984D02*
X6576134Y-12108984D01*
X6576134Y-12108984D02*
X6557086Y-12099460D01*
X6557086Y-12099460D02*
X6547563Y-12089936D01*
X6547563Y-12089936D02*
X6538039Y-12070888D01*
X6538039Y-12070888D02*
X6528515Y-12032793D01*
X6528515Y-12032793D02*
X6528515Y-11985174D01*
X6528515Y-11985174D02*
X6538039Y-11947079D01*
X6538039Y-11947079D02*
X6547563Y-11928031D01*
X6547563Y-11928031D02*
X6557086Y-11918508D01*
X6557086Y-11918508D02*
X6576134Y-11908984D01*
X6728515Y-12089936D02*
X6738039Y-12099460D01*
X6738039Y-12099460D02*
X6728515Y-12108984D01*
X6728515Y-12108984D02*
X6718991Y-12099460D01*
X6718991Y-12099460D02*
X6728515Y-12089936D01*
X6728515Y-12089936D02*
X6728515Y-12108984D01*
X6861848Y-11908984D02*
X6880896Y-11908984D01*
X6880896Y-11908984D02*
X6899944Y-11918508D01*
X6899944Y-11918508D02*
X6909467Y-11928031D01*
X6909467Y-11928031D02*
X6918991Y-11947079D01*
X6918991Y-11947079D02*
X6928515Y-11985174D01*
X6928515Y-11985174D02*
X6928515Y-12032793D01*
X6928515Y-12032793D02*
X6918991Y-12070888D01*
X6918991Y-12070888D02*
X6909467Y-12089936D01*
X6909467Y-12089936D02*
X6899944Y-12099460D01*
X6899944Y-12099460D02*
X6880896Y-12108984D01*
X6880896Y-12108984D02*
X6861848Y-12108984D01*
X6861848Y-12108984D02*
X6842801Y-12099460D01*
X6842801Y-12099460D02*
X6833277Y-12089936D01*
X6833277Y-12089936D02*
X6823753Y-12070888D01*
X6823753Y-12070888D02*
X6814229Y-12032793D01*
X6814229Y-12032793D02*
X6814229Y-11985174D01*
X6814229Y-11985174D02*
X6823753Y-11947079D01*
X6823753Y-11947079D02*
X6833277Y-11928031D01*
X6833277Y-11928031D02*
X6842801Y-11918508D01*
X6842801Y-11918508D02*
X6861848Y-11908984D01*
X7118991Y-12108984D02*
X7004706Y-12108984D01*
X7061848Y-12108984D02*
X7061848Y-11908984D01*
X7061848Y-11908984D02*
X7042801Y-11937555D01*
X7042801Y-11937555D02*
X7023753Y-11956603D01*
X7023753Y-11956603D02*
X7004706Y-11966127D01*
X7309467Y-12108984D02*
X7195182Y-12108984D01*
X7252325Y-12108984D02*
X7252325Y-11908984D01*
X7252325Y-11908984D02*
X7233277Y-11937555D01*
X7233277Y-11937555D02*
X7214229Y-11956603D01*
X7214229Y-11956603D02*
X7195182Y-11966127D01*
X7423753Y-11994698D02*
X7404706Y-11985174D01*
X7404706Y-11985174D02*
X7395182Y-11975650D01*
X7395182Y-11975650D02*
X7385658Y-11956603D01*
X7385658Y-11956603D02*
X7385658Y-11947079D01*
X7385658Y-11947079D02*
X7395182Y-11928031D01*
X7395182Y-11928031D02*
X7404706Y-11918508D01*
X7404706Y-11918508D02*
X7423753Y-11908984D01*
X7423753Y-11908984D02*
X7461848Y-11908984D01*
X7461848Y-11908984D02*
X7480896Y-11918508D01*
X7480896Y-11918508D02*
X7490420Y-11928031D01*
X7490420Y-11928031D02*
X7499944Y-11947079D01*
X7499944Y-11947079D02*
X7499944Y-11956603D01*
X7499944Y-11956603D02*
X7490420Y-11975650D01*
X7490420Y-11975650D02*
X7480896Y-11985174D01*
X7480896Y-11985174D02*
X7461848Y-11994698D01*
X7461848Y-11994698D02*
X7423753Y-11994698D01*
X7423753Y-11994698D02*
X7404706Y-12004222D01*
X7404706Y-12004222D02*
X7395182Y-12013746D01*
X7395182Y-12013746D02*
X7385658Y-12032793D01*
X7385658Y-12032793D02*
X7385658Y-12070888D01*
X7385658Y-12070888D02*
X7395182Y-12089936D01*
X7395182Y-12089936D02*
X7404706Y-12099460D01*
X7404706Y-12099460D02*
X7423753Y-12108984D01*
X7423753Y-12108984D02*
X7461848Y-12108984D01*
X7461848Y-12108984D02*
X7480896Y-12099460D01*
X7480896Y-12099460D02*
X7490420Y-12089936D01*
X7490420Y-12089936D02*
X7499944Y-12070888D01*
X7499944Y-12070888D02*
X7499944Y-12032793D01*
X7499944Y-12032793D02*
X7490420Y-12013746D01*
X7490420Y-12013746D02*
X7480896Y-12004222D01*
X7480896Y-12004222D02*
X7461848Y-11994698D01*
X7576134Y-11908984D02*
X7576134Y-11947079D01*
X7652325Y-11908984D02*
X7652325Y-11947079D01*
X7947563Y-12185174D02*
X7938039Y-12175650D01*
X7938039Y-12175650D02*
X7918991Y-12147079D01*
X7918991Y-12147079D02*
X7909468Y-12128031D01*
X7909468Y-12128031D02*
X7899944Y-12099460D01*
X7899944Y-12099460D02*
X7890420Y-12051841D01*
X7890420Y-12051841D02*
X7890420Y-12013746D01*
X7890420Y-12013746D02*
X7899944Y-11966127D01*
X7899944Y-11966127D02*
X7909468Y-11937555D01*
X7909468Y-11937555D02*
X7918991Y-11918508D01*
X7918991Y-11918508D02*
X7938039Y-11889936D01*
X7938039Y-11889936D02*
X7947563Y-11880412D01*
X8052325Y-11994698D02*
X8033277Y-11985174D01*
X8033277Y-11985174D02*
X8023753Y-11975650D01*
X8023753Y-11975650D02*
X8014229Y-11956603D01*
X8014229Y-11956603D02*
X8014229Y-11947079D01*
X8014229Y-11947079D02*
X8023753Y-11928031D01*
X8023753Y-11928031D02*
X8033277Y-11918508D01*
X8033277Y-11918508D02*
X8052325Y-11908984D01*
X8052325Y-11908984D02*
X8090420Y-11908984D01*
X8090420Y-11908984D02*
X8109468Y-11918508D01*
X8109468Y-11918508D02*
X8118991Y-11928031D01*
X8118991Y-11928031D02*
X8128515Y-11947079D01*
X8128515Y-11947079D02*
X8128515Y-11956603D01*
X8128515Y-11956603D02*
X8118991Y-11975650D01*
X8118991Y-11975650D02*
X8109468Y-11985174D01*
X8109468Y-11985174D02*
X8090420Y-11994698D01*
X8090420Y-11994698D02*
X8052325Y-11994698D01*
X8052325Y-11994698D02*
X8033277Y-12004222D01*
X8033277Y-12004222D02*
X8023753Y-12013746D01*
X8023753Y-12013746D02*
X8014229Y-12032793D01*
X8014229Y-12032793D02*
X8014229Y-12070888D01*
X8014229Y-12070888D02*
X8023753Y-12089936D01*
X8023753Y-12089936D02*
X8033277Y-12099460D01*
X8033277Y-12099460D02*
X8052325Y-12108984D01*
X8052325Y-12108984D02*
X8090420Y-12108984D01*
X8090420Y-12108984D02*
X8109468Y-12099460D01*
X8109468Y-12099460D02*
X8118991Y-12089936D01*
X8118991Y-12089936D02*
X8128515Y-12070888D01*
X8128515Y-12070888D02*
X8128515Y-12032793D01*
X8128515Y-12032793D02*
X8118991Y-12013746D01*
X8118991Y-12013746D02*
X8109468Y-12004222D01*
X8109468Y-12004222D02*
X8090420Y-11994698D01*
X8366610Y-12108984D02*
X8366610Y-11908984D01*
X8452325Y-12108984D02*
X8452325Y-12004222D01*
X8452325Y-12004222D02*
X8442801Y-11985174D01*
X8442801Y-11985174D02*
X8423753Y-11975650D01*
X8423753Y-11975650D02*
X8395182Y-11975650D01*
X8395182Y-11975650D02*
X8376134Y-11985174D01*
X8376134Y-11985174D02*
X8366610Y-11994698D01*
X8576134Y-12108984D02*
X8557087Y-12099460D01*
X8557087Y-12099460D02*
X8547563Y-12089936D01*
X8547563Y-12089936D02*
X8538039Y-12070888D01*
X8538039Y-12070888D02*
X8538039Y-12013746D01*
X8538039Y-12013746D02*
X8547563Y-11994698D01*
X8547563Y-11994698D02*
X8557087Y-11985174D01*
X8557087Y-11985174D02*
X8576134Y-11975650D01*
X8576134Y-11975650D02*
X8604706Y-11975650D01*
X8604706Y-11975650D02*
X8623753Y-11985174D01*
X8623753Y-11985174D02*
X8633277Y-11994698D01*
X8633277Y-11994698D02*
X8642801Y-12013746D01*
X8642801Y-12013746D02*
X8642801Y-12070888D01*
X8642801Y-12070888D02*
X8633277Y-12089936D01*
X8633277Y-12089936D02*
X8623753Y-12099460D01*
X8623753Y-12099460D02*
X8604706Y-12108984D01*
X8604706Y-12108984D02*
X8576134Y-12108984D01*
X8757087Y-12108984D02*
X8738039Y-12099460D01*
X8738039Y-12099460D02*
X8728515Y-12080412D01*
X8728515Y-12080412D02*
X8728515Y-11908984D01*
X8909468Y-12099460D02*
X8890420Y-12108984D01*
X8890420Y-12108984D02*
X8852325Y-12108984D01*
X8852325Y-12108984D02*
X8833277Y-12099460D01*
X8833277Y-12099460D02*
X8823753Y-12080412D01*
X8823753Y-12080412D02*
X8823753Y-12004222D01*
X8823753Y-12004222D02*
X8833277Y-11985174D01*
X8833277Y-11985174D02*
X8852325Y-11975650D01*
X8852325Y-11975650D02*
X8890420Y-11975650D01*
X8890420Y-11975650D02*
X8909468Y-11985174D01*
X8909468Y-11985174D02*
X8918992Y-12004222D01*
X8918992Y-12004222D02*
X8918992Y-12023269D01*
X8918992Y-12023269D02*
X8823753Y-12042317D01*
X8995182Y-12099460D02*
X9014230Y-12108984D01*
X9014230Y-12108984D02*
X9052325Y-12108984D01*
X9052325Y-12108984D02*
X9071373Y-12099460D01*
X9071373Y-12099460D02*
X9080896Y-12080412D01*
X9080896Y-12080412D02*
X9080896Y-12070888D01*
X9080896Y-12070888D02*
X9071373Y-12051841D01*
X9071373Y-12051841D02*
X9052325Y-12042317D01*
X9052325Y-12042317D02*
X9023753Y-12042317D01*
X9023753Y-12042317D02*
X9004706Y-12032793D01*
X9004706Y-12032793D02*
X8995182Y-12013746D01*
X8995182Y-12013746D02*
X8995182Y-12004222D01*
X8995182Y-12004222D02*
X9004706Y-11985174D01*
X9004706Y-11985174D02*
X9023753Y-11975650D01*
X9023753Y-11975650D02*
X9052325Y-11975650D01*
X9052325Y-11975650D02*
X9071373Y-11985174D01*
X9147563Y-12185174D02*
X9157087Y-12175650D01*
X9157087Y-12175650D02*
X9176134Y-12147079D01*
X9176134Y-12147079D02*
X9185658Y-12128031D01*
X9185658Y-12128031D02*
X9195182Y-12099460D01*
X9195182Y-12099460D02*
X9204706Y-12051841D01*
X9204706Y-12051841D02*
X9204706Y-12013746D01*
X9204706Y-12013746D02*
X9195182Y-11966127D01*
X9195182Y-11966127D02*
X9185658Y-11937555D01*
X9185658Y-11937555D02*
X9176134Y-11918508D01*
X9176134Y-11918508D02*
X9157087Y-11889936D01*
X9157087Y-11889936D02*
X9147563Y-11880412D01*
D13*
X4372500Y-12281500D02*
G75*
G02*
X4270500Y-12281500I-51000J0D01*
G01*
X4270500Y-12281500D02*
G75*
G02*
X4372500Y-12281500I51000J0D01*
G01*
D11*
X4738039Y-12372984D02*
X4623753Y-12372984D01*
X4680896Y-12372984D02*
X4680896Y-12172984D01*
X4680896Y-12172984D02*
X4661848Y-12201555D01*
X4661848Y-12201555D02*
X4642801Y-12220603D01*
X4642801Y-12220603D02*
X4623753Y-12230127D01*
X4823753Y-12353936D02*
X4833277Y-12363460D01*
X4833277Y-12363460D02*
X4823753Y-12372984D01*
X4823753Y-12372984D02*
X4814229Y-12363460D01*
X4814229Y-12363460D02*
X4823753Y-12353936D01*
X4823753Y-12353936D02*
X4823753Y-12372984D01*
X4957086Y-12172984D02*
X4976134Y-12172984D01*
X4976134Y-12172984D02*
X4995182Y-12182508D01*
X4995182Y-12182508D02*
X5004705Y-12192031D01*
X5004705Y-12192031D02*
X5014229Y-12211079D01*
X5014229Y-12211079D02*
X5023753Y-12249174D01*
X5023753Y-12249174D02*
X5023753Y-12296793D01*
X5023753Y-12296793D02*
X5014229Y-12334888D01*
X5014229Y-12334888D02*
X5004705Y-12353936D01*
X5004705Y-12353936D02*
X4995182Y-12363460D01*
X4995182Y-12363460D02*
X4976134Y-12372984D01*
X4976134Y-12372984D02*
X4957086Y-12372984D01*
X4957086Y-12372984D02*
X4938039Y-12363460D01*
X4938039Y-12363460D02*
X4928515Y-12353936D01*
X4928515Y-12353936D02*
X4918991Y-12334888D01*
X4918991Y-12334888D02*
X4909467Y-12296793D01*
X4909467Y-12296793D02*
X4909467Y-12249174D01*
X4909467Y-12249174D02*
X4918991Y-12211079D01*
X4918991Y-12211079D02*
X4928515Y-12192031D01*
X4928515Y-12192031D02*
X4938039Y-12182508D01*
X4938039Y-12182508D02*
X4957086Y-12172984D01*
X5099944Y-12192031D02*
X5109467Y-12182508D01*
X5109467Y-12182508D02*
X5128515Y-12172984D01*
X5128515Y-12172984D02*
X5176134Y-12172984D01*
X5176134Y-12172984D02*
X5195182Y-12182508D01*
X5195182Y-12182508D02*
X5204705Y-12192031D01*
X5204705Y-12192031D02*
X5214229Y-12211079D01*
X5214229Y-12211079D02*
X5214229Y-12230127D01*
X5214229Y-12230127D02*
X5204705Y-12258698D01*
X5204705Y-12258698D02*
X5090420Y-12372984D01*
X5090420Y-12372984D02*
X5214229Y-12372984D01*
X5338039Y-12172984D02*
X5357086Y-12172984D01*
X5357086Y-12172984D02*
X5376134Y-12182508D01*
X5376134Y-12182508D02*
X5385658Y-12192031D01*
X5385658Y-12192031D02*
X5395182Y-12211079D01*
X5395182Y-12211079D02*
X5404705Y-12249174D01*
X5404705Y-12249174D02*
X5404705Y-12296793D01*
X5404705Y-12296793D02*
X5395182Y-12334888D01*
X5395182Y-12334888D02*
X5385658Y-12353936D01*
X5385658Y-12353936D02*
X5376134Y-12363460D01*
X5376134Y-12363460D02*
X5357086Y-12372984D01*
X5357086Y-12372984D02*
X5338039Y-12372984D01*
X5338039Y-12372984D02*
X5318991Y-12363460D01*
X5318991Y-12363460D02*
X5309467Y-12353936D01*
X5309467Y-12353936D02*
X5299944Y-12334888D01*
X5299944Y-12334888D02*
X5290420Y-12296793D01*
X5290420Y-12296793D02*
X5290420Y-12249174D01*
X5290420Y-12249174D02*
X5299944Y-12211079D01*
X5299944Y-12211079D02*
X5309467Y-12192031D01*
X5309467Y-12192031D02*
X5318991Y-12182508D01*
X5318991Y-12182508D02*
X5338039Y-12172984D01*
X5490420Y-12372984D02*
X5490420Y-12239650D01*
X5490420Y-12258698D02*
X5499944Y-12249174D01*
X5499944Y-12249174D02*
X5518991Y-12239650D01*
X5518991Y-12239650D02*
X5547563Y-12239650D01*
X5547563Y-12239650D02*
X5566610Y-12249174D01*
X5566610Y-12249174D02*
X5576134Y-12268222D01*
X5576134Y-12268222D02*
X5576134Y-12372984D01*
X5576134Y-12268222D02*
X5585658Y-12249174D01*
X5585658Y-12249174D02*
X5604705Y-12239650D01*
X5604705Y-12239650D02*
X5633277Y-12239650D01*
X5633277Y-12239650D02*
X5652324Y-12249174D01*
X5652324Y-12249174D02*
X5661848Y-12268222D01*
X5661848Y-12268222D02*
X5661848Y-12372984D01*
X5757086Y-12372984D02*
X5757086Y-12239650D01*
X5757086Y-12258698D02*
X5766610Y-12249174D01*
X5766610Y-12249174D02*
X5785658Y-12239650D01*
X5785658Y-12239650D02*
X5814229Y-12239650D01*
X5814229Y-12239650D02*
X5833277Y-12249174D01*
X5833277Y-12249174D02*
X5842801Y-12268222D01*
X5842801Y-12268222D02*
X5842801Y-12372984D01*
X5842801Y-12268222D02*
X5852324Y-12249174D01*
X5852324Y-12249174D02*
X5871372Y-12239650D01*
X5871372Y-12239650D02*
X5899943Y-12239650D01*
X5899943Y-12239650D02*
X5918991Y-12249174D01*
X5918991Y-12249174D02*
X5928515Y-12268222D01*
X5928515Y-12268222D02*
X5928515Y-12372984D01*
X6318991Y-12163460D02*
X6147563Y-12420603D01*
X6576134Y-12172984D02*
X6595182Y-12172984D01*
X6595182Y-12172984D02*
X6614229Y-12182508D01*
X6614229Y-12182508D02*
X6623753Y-12192031D01*
X6623753Y-12192031D02*
X6633277Y-12211079D01*
X6633277Y-12211079D02*
X6642801Y-12249174D01*
X6642801Y-12249174D02*
X6642801Y-12296793D01*
X6642801Y-12296793D02*
X6633277Y-12334888D01*
X6633277Y-12334888D02*
X6623753Y-12353936D01*
X6623753Y-12353936D02*
X6614229Y-12363460D01*
X6614229Y-12363460D02*
X6595182Y-12372984D01*
X6595182Y-12372984D02*
X6576134Y-12372984D01*
X6576134Y-12372984D02*
X6557086Y-12363460D01*
X6557086Y-12363460D02*
X6547563Y-12353936D01*
X6547563Y-12353936D02*
X6538039Y-12334888D01*
X6538039Y-12334888D02*
X6528515Y-12296793D01*
X6528515Y-12296793D02*
X6528515Y-12249174D01*
X6528515Y-12249174D02*
X6538039Y-12211079D01*
X6538039Y-12211079D02*
X6547563Y-12192031D01*
X6547563Y-12192031D02*
X6557086Y-12182508D01*
X6557086Y-12182508D02*
X6576134Y-12172984D01*
X6728515Y-12353936D02*
X6738039Y-12363460D01*
X6738039Y-12363460D02*
X6728515Y-12372984D01*
X6728515Y-12372984D02*
X6718991Y-12363460D01*
X6718991Y-12363460D02*
X6728515Y-12353936D01*
X6728515Y-12353936D02*
X6728515Y-12372984D01*
X6861848Y-12172984D02*
X6880896Y-12172984D01*
X6880896Y-12172984D02*
X6899944Y-12182508D01*
X6899944Y-12182508D02*
X6909467Y-12192031D01*
X6909467Y-12192031D02*
X6918991Y-12211079D01*
X6918991Y-12211079D02*
X6928515Y-12249174D01*
X6928515Y-12249174D02*
X6928515Y-12296793D01*
X6928515Y-12296793D02*
X6918991Y-12334888D01*
X6918991Y-12334888D02*
X6909467Y-12353936D01*
X6909467Y-12353936D02*
X6899944Y-12363460D01*
X6899944Y-12363460D02*
X6880896Y-12372984D01*
X6880896Y-12372984D02*
X6861848Y-12372984D01*
X6861848Y-12372984D02*
X6842801Y-12363460D01*
X6842801Y-12363460D02*
X6833277Y-12353936D01*
X6833277Y-12353936D02*
X6823753Y-12334888D01*
X6823753Y-12334888D02*
X6814229Y-12296793D01*
X6814229Y-12296793D02*
X6814229Y-12249174D01*
X6814229Y-12249174D02*
X6823753Y-12211079D01*
X6823753Y-12211079D02*
X6833277Y-12192031D01*
X6833277Y-12192031D02*
X6842801Y-12182508D01*
X6842801Y-12182508D02*
X6861848Y-12172984D01*
X7099944Y-12239650D02*
X7099944Y-12372984D01*
X7052325Y-12163460D02*
X7004706Y-12306317D01*
X7004706Y-12306317D02*
X7128515Y-12306317D01*
X7242801Y-12172984D02*
X7261848Y-12172984D01*
X7261848Y-12172984D02*
X7280896Y-12182508D01*
X7280896Y-12182508D02*
X7290420Y-12192031D01*
X7290420Y-12192031D02*
X7299944Y-12211079D01*
X7299944Y-12211079D02*
X7309467Y-12249174D01*
X7309467Y-12249174D02*
X7309467Y-12296793D01*
X7309467Y-12296793D02*
X7299944Y-12334888D01*
X7299944Y-12334888D02*
X7290420Y-12353936D01*
X7290420Y-12353936D02*
X7280896Y-12363460D01*
X7280896Y-12363460D02*
X7261848Y-12372984D01*
X7261848Y-12372984D02*
X7242801Y-12372984D01*
X7242801Y-12372984D02*
X7223753Y-12363460D01*
X7223753Y-12363460D02*
X7214229Y-12353936D01*
X7214229Y-12353936D02*
X7204706Y-12334888D01*
X7204706Y-12334888D02*
X7195182Y-12296793D01*
X7195182Y-12296793D02*
X7195182Y-12249174D01*
X7195182Y-12249174D02*
X7204706Y-12211079D01*
X7204706Y-12211079D02*
X7214229Y-12192031D01*
X7214229Y-12192031D02*
X7223753Y-12182508D01*
X7223753Y-12182508D02*
X7242801Y-12172984D01*
X7385658Y-12192031D02*
X7395182Y-12182508D01*
X7395182Y-12182508D02*
X7414229Y-12172984D01*
X7414229Y-12172984D02*
X7461848Y-12172984D01*
X7461848Y-12172984D02*
X7480896Y-12182508D01*
X7480896Y-12182508D02*
X7490420Y-12192031D01*
X7490420Y-12192031D02*
X7499944Y-12211079D01*
X7499944Y-12211079D02*
X7499944Y-12230127D01*
X7499944Y-12230127D02*
X7490420Y-12258698D01*
X7490420Y-12258698D02*
X7376134Y-12372984D01*
X7376134Y-12372984D02*
X7499944Y-12372984D01*
X7576134Y-12172984D02*
X7576134Y-12211079D01*
X7652325Y-12172984D02*
X7652325Y-12211079D01*
X7947563Y-12449174D02*
X7938039Y-12439650D01*
X7938039Y-12439650D02*
X7918991Y-12411079D01*
X7918991Y-12411079D02*
X7909468Y-12392031D01*
X7909468Y-12392031D02*
X7899944Y-12363460D01*
X7899944Y-12363460D02*
X7890420Y-12315841D01*
X7890420Y-12315841D02*
X7890420Y-12277746D01*
X7890420Y-12277746D02*
X7899944Y-12230127D01*
X7899944Y-12230127D02*
X7909468Y-12201555D01*
X7909468Y-12201555D02*
X7918991Y-12182508D01*
X7918991Y-12182508D02*
X7938039Y-12153936D01*
X7938039Y-12153936D02*
X7947563Y-12144412D01*
X8109468Y-12239650D02*
X8109468Y-12372984D01*
X8061848Y-12163460D02*
X8014229Y-12306317D01*
X8014229Y-12306317D02*
X8138039Y-12306317D01*
X8366610Y-12372984D02*
X8366610Y-12172984D01*
X8452325Y-12372984D02*
X8452325Y-12268222D01*
X8452325Y-12268222D02*
X8442801Y-12249174D01*
X8442801Y-12249174D02*
X8423753Y-12239650D01*
X8423753Y-12239650D02*
X8395182Y-12239650D01*
X8395182Y-12239650D02*
X8376134Y-12249174D01*
X8376134Y-12249174D02*
X8366610Y-12258698D01*
X8576134Y-12372984D02*
X8557087Y-12363460D01*
X8557087Y-12363460D02*
X8547563Y-12353936D01*
X8547563Y-12353936D02*
X8538039Y-12334888D01*
X8538039Y-12334888D02*
X8538039Y-12277746D01*
X8538039Y-12277746D02*
X8547563Y-12258698D01*
X8547563Y-12258698D02*
X8557087Y-12249174D01*
X8557087Y-12249174D02*
X8576134Y-12239650D01*
X8576134Y-12239650D02*
X8604706Y-12239650D01*
X8604706Y-12239650D02*
X8623753Y-12249174D01*
X8623753Y-12249174D02*
X8633277Y-12258698D01*
X8633277Y-12258698D02*
X8642801Y-12277746D01*
X8642801Y-12277746D02*
X8642801Y-12334888D01*
X8642801Y-12334888D02*
X8633277Y-12353936D01*
X8633277Y-12353936D02*
X8623753Y-12363460D01*
X8623753Y-12363460D02*
X8604706Y-12372984D01*
X8604706Y-12372984D02*
X8576134Y-12372984D01*
X8757087Y-12372984D02*
X8738039Y-12363460D01*
X8738039Y-12363460D02*
X8728515Y-12344412D01*
X8728515Y-12344412D02*
X8728515Y-12172984D01*
X8909468Y-12363460D02*
X8890420Y-12372984D01*
X8890420Y-12372984D02*
X8852325Y-12372984D01*
X8852325Y-12372984D02*
X8833277Y-12363460D01*
X8833277Y-12363460D02*
X8823753Y-12344412D01*
X8823753Y-12344412D02*
X8823753Y-12268222D01*
X8823753Y-12268222D02*
X8833277Y-12249174D01*
X8833277Y-12249174D02*
X8852325Y-12239650D01*
X8852325Y-12239650D02*
X8890420Y-12239650D01*
X8890420Y-12239650D02*
X8909468Y-12249174D01*
X8909468Y-12249174D02*
X8918992Y-12268222D01*
X8918992Y-12268222D02*
X8918992Y-12287269D01*
X8918992Y-12287269D02*
X8823753Y-12306317D01*
X8995182Y-12363460D02*
X9014230Y-12372984D01*
X9014230Y-12372984D02*
X9052325Y-12372984D01*
X9052325Y-12372984D02*
X9071373Y-12363460D01*
X9071373Y-12363460D02*
X9080896Y-12344412D01*
X9080896Y-12344412D02*
X9080896Y-12334888D01*
X9080896Y-12334888D02*
X9071373Y-12315841D01*
X9071373Y-12315841D02*
X9052325Y-12306317D01*
X9052325Y-12306317D02*
X9023753Y-12306317D01*
X9023753Y-12306317D02*
X9004706Y-12296793D01*
X9004706Y-12296793D02*
X8995182Y-12277746D01*
X8995182Y-12277746D02*
X8995182Y-12268222D01*
X8995182Y-12268222D02*
X9004706Y-12249174D01*
X9004706Y-12249174D02*
X9023753Y-12239650D01*
X9023753Y-12239650D02*
X9052325Y-12239650D01*
X9052325Y-12239650D02*
X9071373Y-12249174D01*
X9147563Y-12449174D02*
X9157087Y-12439650D01*
X9157087Y-12439650D02*
X9176134Y-12411079D01*
X9176134Y-12411079D02*
X9185658Y-12392031D01*
X9185658Y-12392031D02*
X9195182Y-12363460D01*
X9195182Y-12363460D02*
X9204706Y-12315841D01*
X9204706Y-12315841D02*
X9204706Y-12277746D01*
X9204706Y-12277746D02*
X9195182Y-12230127D01*
X9195182Y-12230127D02*
X9185658Y-12201555D01*
X9185658Y-12201555D02*
X9176134Y-12182508D01*
X9176134Y-12182508D02*
X9157087Y-12153936D01*
X9157087Y-12153936D02*
X9147563Y-12144412D01*
D14*
X4317500Y-12490500D02*
X4317500Y-12600500D01*
X4262500Y-12545500D02*
X4372500Y-12545500D01*
D11*
X4738039Y-12636984D02*
X4623753Y-12636984D01*
X4680896Y-12636984D02*
X4680896Y-12436984D01*
X4680896Y-12436984D02*
X4661848Y-12465555D01*
X4661848Y-12465555D02*
X4642801Y-12484603D01*
X4642801Y-12484603D02*
X4623753Y-12494127D01*
X4823753Y-12617936D02*
X4833277Y-12627460D01*
X4833277Y-12627460D02*
X4823753Y-12636984D01*
X4823753Y-12636984D02*
X4814229Y-12627460D01*
X4814229Y-12627460D02*
X4823753Y-12617936D01*
X4823753Y-12617936D02*
X4823753Y-12636984D01*
X5023753Y-12636984D02*
X4909467Y-12636984D01*
X4966610Y-12636984D02*
X4966610Y-12436984D01*
X4966610Y-12436984D02*
X4947563Y-12465555D01*
X4947563Y-12465555D02*
X4928515Y-12484603D01*
X4928515Y-12484603D02*
X4909467Y-12494127D01*
X5147563Y-12436984D02*
X5166610Y-12436984D01*
X5166610Y-12436984D02*
X5185658Y-12446508D01*
X5185658Y-12446508D02*
X5195182Y-12456031D01*
X5195182Y-12456031D02*
X5204705Y-12475079D01*
X5204705Y-12475079D02*
X5214229Y-12513174D01*
X5214229Y-12513174D02*
X5214229Y-12560793D01*
X5214229Y-12560793D02*
X5204705Y-12598888D01*
X5204705Y-12598888D02*
X5195182Y-12617936D01*
X5195182Y-12617936D02*
X5185658Y-12627460D01*
X5185658Y-12627460D02*
X5166610Y-12636984D01*
X5166610Y-12636984D02*
X5147563Y-12636984D01*
X5147563Y-12636984D02*
X5128515Y-12627460D01*
X5128515Y-12627460D02*
X5118991Y-12617936D01*
X5118991Y-12617936D02*
X5109467Y-12598888D01*
X5109467Y-12598888D02*
X5099944Y-12560793D01*
X5099944Y-12560793D02*
X5099944Y-12513174D01*
X5099944Y-12513174D02*
X5109467Y-12475079D01*
X5109467Y-12475079D02*
X5118991Y-12456031D01*
X5118991Y-12456031D02*
X5128515Y-12446508D01*
X5128515Y-12446508D02*
X5147563Y-12436984D01*
X5338039Y-12436984D02*
X5357086Y-12436984D01*
X5357086Y-12436984D02*
X5376134Y-12446508D01*
X5376134Y-12446508D02*
X5385658Y-12456031D01*
X5385658Y-12456031D02*
X5395182Y-12475079D01*
X5395182Y-12475079D02*
X5404705Y-12513174D01*
X5404705Y-12513174D02*
X5404705Y-12560793D01*
X5404705Y-12560793D02*
X5395182Y-12598888D01*
X5395182Y-12598888D02*
X5385658Y-12617936D01*
X5385658Y-12617936D02*
X5376134Y-12627460D01*
X5376134Y-12627460D02*
X5357086Y-12636984D01*
X5357086Y-12636984D02*
X5338039Y-12636984D01*
X5338039Y-12636984D02*
X5318991Y-12627460D01*
X5318991Y-12627460D02*
X5309467Y-12617936D01*
X5309467Y-12617936D02*
X5299944Y-12598888D01*
X5299944Y-12598888D02*
X5290420Y-12560793D01*
X5290420Y-12560793D02*
X5290420Y-12513174D01*
X5290420Y-12513174D02*
X5299944Y-12475079D01*
X5299944Y-12475079D02*
X5309467Y-12456031D01*
X5309467Y-12456031D02*
X5318991Y-12446508D01*
X5318991Y-12446508D02*
X5338039Y-12436984D01*
X5490420Y-12636984D02*
X5490420Y-12503650D01*
X5490420Y-12522698D02*
X5499944Y-12513174D01*
X5499944Y-12513174D02*
X5518991Y-12503650D01*
X5518991Y-12503650D02*
X5547563Y-12503650D01*
X5547563Y-12503650D02*
X5566610Y-12513174D01*
X5566610Y-12513174D02*
X5576134Y-12532222D01*
X5576134Y-12532222D02*
X5576134Y-12636984D01*
X5576134Y-12532222D02*
X5585658Y-12513174D01*
X5585658Y-12513174D02*
X5604705Y-12503650D01*
X5604705Y-12503650D02*
X5633277Y-12503650D01*
X5633277Y-12503650D02*
X5652324Y-12513174D01*
X5652324Y-12513174D02*
X5661848Y-12532222D01*
X5661848Y-12532222D02*
X5661848Y-12636984D01*
X5757086Y-12636984D02*
X5757086Y-12503650D01*
X5757086Y-12522698D02*
X5766610Y-12513174D01*
X5766610Y-12513174D02*
X5785658Y-12503650D01*
X5785658Y-12503650D02*
X5814229Y-12503650D01*
X5814229Y-12503650D02*
X5833277Y-12513174D01*
X5833277Y-12513174D02*
X5842801Y-12532222D01*
X5842801Y-12532222D02*
X5842801Y-12636984D01*
X5842801Y-12532222D02*
X5852324Y-12513174D01*
X5852324Y-12513174D02*
X5871372Y-12503650D01*
X5871372Y-12503650D02*
X5899943Y-12503650D01*
X5899943Y-12503650D02*
X5918991Y-12513174D01*
X5918991Y-12513174D02*
X5928515Y-12532222D01*
X5928515Y-12532222D02*
X5928515Y-12636984D01*
X6318991Y-12427460D02*
X6147563Y-12684603D01*
X6576134Y-12436984D02*
X6595182Y-12436984D01*
X6595182Y-12436984D02*
X6614229Y-12446508D01*
X6614229Y-12446508D02*
X6623753Y-12456031D01*
X6623753Y-12456031D02*
X6633277Y-12475079D01*
X6633277Y-12475079D02*
X6642801Y-12513174D01*
X6642801Y-12513174D02*
X6642801Y-12560793D01*
X6642801Y-12560793D02*
X6633277Y-12598888D01*
X6633277Y-12598888D02*
X6623753Y-12617936D01*
X6623753Y-12617936D02*
X6614229Y-12627460D01*
X6614229Y-12627460D02*
X6595182Y-12636984D01*
X6595182Y-12636984D02*
X6576134Y-12636984D01*
X6576134Y-12636984D02*
X6557086Y-12627460D01*
X6557086Y-12627460D02*
X6547563Y-12617936D01*
X6547563Y-12617936D02*
X6538039Y-12598888D01*
X6538039Y-12598888D02*
X6528515Y-12560793D01*
X6528515Y-12560793D02*
X6528515Y-12513174D01*
X6528515Y-12513174D02*
X6538039Y-12475079D01*
X6538039Y-12475079D02*
X6547563Y-12456031D01*
X6547563Y-12456031D02*
X6557086Y-12446508D01*
X6557086Y-12446508D02*
X6576134Y-12436984D01*
X6728515Y-12617936D02*
X6738039Y-12627460D01*
X6738039Y-12627460D02*
X6728515Y-12636984D01*
X6728515Y-12636984D02*
X6718991Y-12627460D01*
X6718991Y-12627460D02*
X6728515Y-12617936D01*
X6728515Y-12617936D02*
X6728515Y-12636984D01*
X6861848Y-12436984D02*
X6880896Y-12436984D01*
X6880896Y-12436984D02*
X6899944Y-12446508D01*
X6899944Y-12446508D02*
X6909467Y-12456031D01*
X6909467Y-12456031D02*
X6918991Y-12475079D01*
X6918991Y-12475079D02*
X6928515Y-12513174D01*
X6928515Y-12513174D02*
X6928515Y-12560793D01*
X6928515Y-12560793D02*
X6918991Y-12598888D01*
X6918991Y-12598888D02*
X6909467Y-12617936D01*
X6909467Y-12617936D02*
X6899944Y-12627460D01*
X6899944Y-12627460D02*
X6880896Y-12636984D01*
X6880896Y-12636984D02*
X6861848Y-12636984D01*
X6861848Y-12636984D02*
X6842801Y-12627460D01*
X6842801Y-12627460D02*
X6833277Y-12617936D01*
X6833277Y-12617936D02*
X6823753Y-12598888D01*
X6823753Y-12598888D02*
X6814229Y-12560793D01*
X6814229Y-12560793D02*
X6814229Y-12513174D01*
X6814229Y-12513174D02*
X6823753Y-12475079D01*
X6823753Y-12475079D02*
X6833277Y-12456031D01*
X6833277Y-12456031D02*
X6842801Y-12446508D01*
X6842801Y-12446508D02*
X6861848Y-12436984D01*
X7099944Y-12503650D02*
X7099944Y-12636984D01*
X7052325Y-12427460D02*
X7004706Y-12570317D01*
X7004706Y-12570317D02*
X7128515Y-12570317D01*
X7185658Y-12436984D02*
X7309467Y-12436984D01*
X7309467Y-12436984D02*
X7242801Y-12513174D01*
X7242801Y-12513174D02*
X7271372Y-12513174D01*
X7271372Y-12513174D02*
X7290420Y-12522698D01*
X7290420Y-12522698D02*
X7299944Y-12532222D01*
X7299944Y-12532222D02*
X7309467Y-12551269D01*
X7309467Y-12551269D02*
X7309467Y-12598888D01*
X7309467Y-12598888D02*
X7299944Y-12617936D01*
X7299944Y-12617936D02*
X7290420Y-12627460D01*
X7290420Y-12627460D02*
X7271372Y-12636984D01*
X7271372Y-12636984D02*
X7214229Y-12636984D01*
X7214229Y-12636984D02*
X7195182Y-12627460D01*
X7195182Y-12627460D02*
X7185658Y-12617936D01*
X7376134Y-12436984D02*
X7499944Y-12436984D01*
X7499944Y-12436984D02*
X7433277Y-12513174D01*
X7433277Y-12513174D02*
X7461848Y-12513174D01*
X7461848Y-12513174D02*
X7480896Y-12522698D01*
X7480896Y-12522698D02*
X7490420Y-12532222D01*
X7490420Y-12532222D02*
X7499944Y-12551269D01*
X7499944Y-12551269D02*
X7499944Y-12598888D01*
X7499944Y-12598888D02*
X7490420Y-12617936D01*
X7490420Y-12617936D02*
X7480896Y-12627460D01*
X7480896Y-12627460D02*
X7461848Y-12636984D01*
X7461848Y-12636984D02*
X7404706Y-12636984D01*
X7404706Y-12636984D02*
X7385658Y-12627460D01*
X7385658Y-12627460D02*
X7376134Y-12617936D01*
X7576134Y-12436984D02*
X7576134Y-12475079D01*
X7652325Y-12436984D02*
X7652325Y-12475079D01*
X7947563Y-12713174D02*
X7938039Y-12703650D01*
X7938039Y-12703650D02*
X7918991Y-12675079D01*
X7918991Y-12675079D02*
X7909468Y-12656031D01*
X7909468Y-12656031D02*
X7899944Y-12627460D01*
X7899944Y-12627460D02*
X7890420Y-12579841D01*
X7890420Y-12579841D02*
X7890420Y-12541746D01*
X7890420Y-12541746D02*
X7899944Y-12494127D01*
X7899944Y-12494127D02*
X7909468Y-12465555D01*
X7909468Y-12465555D02*
X7918991Y-12446508D01*
X7918991Y-12446508D02*
X7938039Y-12417936D01*
X7938039Y-12417936D02*
X7947563Y-12408412D01*
X8014229Y-12456031D02*
X8023753Y-12446508D01*
X8023753Y-12446508D02*
X8042801Y-12436984D01*
X8042801Y-12436984D02*
X8090420Y-12436984D01*
X8090420Y-12436984D02*
X8109468Y-12446508D01*
X8109468Y-12446508D02*
X8118991Y-12456031D01*
X8118991Y-12456031D02*
X8128515Y-12475079D01*
X8128515Y-12475079D02*
X8128515Y-12494127D01*
X8128515Y-12494127D02*
X8118991Y-12522698D01*
X8118991Y-12522698D02*
X8004706Y-12636984D01*
X8004706Y-12636984D02*
X8128515Y-12636984D01*
X8366610Y-12636984D02*
X8366610Y-12436984D01*
X8452325Y-12636984D02*
X8452325Y-12532222D01*
X8452325Y-12532222D02*
X8442801Y-12513174D01*
X8442801Y-12513174D02*
X8423753Y-12503650D01*
X8423753Y-12503650D02*
X8395182Y-12503650D01*
X8395182Y-12503650D02*
X8376134Y-12513174D01*
X8376134Y-12513174D02*
X8366610Y-12522698D01*
X8576134Y-12636984D02*
X8557087Y-12627460D01*
X8557087Y-12627460D02*
X8547563Y-12617936D01*
X8547563Y-12617936D02*
X8538039Y-12598888D01*
X8538039Y-12598888D02*
X8538039Y-12541746D01*
X8538039Y-12541746D02*
X8547563Y-12522698D01*
X8547563Y-12522698D02*
X8557087Y-12513174D01*
X8557087Y-12513174D02*
X8576134Y-12503650D01*
X8576134Y-12503650D02*
X8604706Y-12503650D01*
X8604706Y-12503650D02*
X8623753Y-12513174D01*
X8623753Y-12513174D02*
X8633277Y-12522698D01*
X8633277Y-12522698D02*
X8642801Y-12541746D01*
X8642801Y-12541746D02*
X8642801Y-12598888D01*
X8642801Y-12598888D02*
X8633277Y-12617936D01*
X8633277Y-12617936D02*
X8623753Y-12627460D01*
X8623753Y-12627460D02*
X8604706Y-12636984D01*
X8604706Y-12636984D02*
X8576134Y-12636984D01*
X8757087Y-12636984D02*
X8738039Y-12627460D01*
X8738039Y-12627460D02*
X8728515Y-12608412D01*
X8728515Y-12608412D02*
X8728515Y-12436984D01*
X8909468Y-12627460D02*
X8890420Y-12636984D01*
X8890420Y-12636984D02*
X8852325Y-12636984D01*
X8852325Y-12636984D02*
X8833277Y-12627460D01*
X8833277Y-12627460D02*
X8823753Y-12608412D01*
X8823753Y-12608412D02*
X8823753Y-12532222D01*
X8823753Y-12532222D02*
X8833277Y-12513174D01*
X8833277Y-12513174D02*
X8852325Y-12503650D01*
X8852325Y-12503650D02*
X8890420Y-12503650D01*
X8890420Y-12503650D02*
X8909468Y-12513174D01*
X8909468Y-12513174D02*
X8918992Y-12532222D01*
X8918992Y-12532222D02*
X8918992Y-12551269D01*
X8918992Y-12551269D02*
X8823753Y-12570317D01*
X8995182Y-12627460D02*
X9014230Y-12636984D01*
X9014230Y-12636984D02*
X9052325Y-12636984D01*
X9052325Y-12636984D02*
X9071373Y-12627460D01*
X9071373Y-12627460D02*
X9080896Y-12608412D01*
X9080896Y-12608412D02*
X9080896Y-12598888D01*
X9080896Y-12598888D02*
X9071373Y-12579841D01*
X9071373Y-12579841D02*
X9052325Y-12570317D01*
X9052325Y-12570317D02*
X9023753Y-12570317D01*
X9023753Y-12570317D02*
X9004706Y-12560793D01*
X9004706Y-12560793D02*
X8995182Y-12541746D01*
X8995182Y-12541746D02*
X8995182Y-12532222D01*
X8995182Y-12532222D02*
X9004706Y-12513174D01*
X9004706Y-12513174D02*
X9023753Y-12503650D01*
X9023753Y-12503650D02*
X9052325Y-12503650D01*
X9052325Y-12503650D02*
X9071373Y-12513174D01*
X9147563Y-12713174D02*
X9157087Y-12703650D01*
X9157087Y-12703650D02*
X9176134Y-12675079D01*
X9176134Y-12675079D02*
X9185658Y-12656031D01*
X9185658Y-12656031D02*
X9195182Y-12627460D01*
X9195182Y-12627460D02*
X9204706Y-12579841D01*
X9204706Y-12579841D02*
X9204706Y-12541746D01*
X9204706Y-12541746D02*
X9195182Y-12494127D01*
X9195182Y-12494127D02*
X9185658Y-12465555D01*
X9185658Y-12465555D02*
X9176134Y-12446508D01*
X9176134Y-12446508D02*
X9157087Y-12417936D01*
X9157087Y-12417936D02*
X9147563Y-12408412D01*
D15*
X4353462Y-12855462D02*
X4353462Y-12763538D01*
X4261538Y-12763538D01*
X4261538Y-12855462D01*
X4353462Y-12855462D01*
D11*
X4738039Y-12900984D02*
X4623753Y-12900984D01*
X4680896Y-12900984D02*
X4680896Y-12700984D01*
X4680896Y-12700984D02*
X4661848Y-12729555D01*
X4661848Y-12729555D02*
X4642801Y-12748603D01*
X4642801Y-12748603D02*
X4623753Y-12758127D01*
X4823753Y-12881936D02*
X4833277Y-12891460D01*
X4833277Y-12891460D02*
X4823753Y-12900984D01*
X4823753Y-12900984D02*
X4814229Y-12891460D01*
X4814229Y-12891460D02*
X4823753Y-12881936D01*
X4823753Y-12881936D02*
X4823753Y-12900984D01*
X4899944Y-12700984D02*
X5023753Y-12700984D01*
X5023753Y-12700984D02*
X4957086Y-12777174D01*
X4957086Y-12777174D02*
X4985658Y-12777174D01*
X4985658Y-12777174D02*
X5004705Y-12786698D01*
X5004705Y-12786698D02*
X5014229Y-12796222D01*
X5014229Y-12796222D02*
X5023753Y-12815269D01*
X5023753Y-12815269D02*
X5023753Y-12862888D01*
X5023753Y-12862888D02*
X5014229Y-12881936D01*
X5014229Y-12881936D02*
X5004705Y-12891460D01*
X5004705Y-12891460D02*
X4985658Y-12900984D01*
X4985658Y-12900984D02*
X4928515Y-12900984D01*
X4928515Y-12900984D02*
X4909467Y-12891460D01*
X4909467Y-12891460D02*
X4899944Y-12881936D01*
X5147563Y-12700984D02*
X5166610Y-12700984D01*
X5166610Y-12700984D02*
X5185658Y-12710508D01*
X5185658Y-12710508D02*
X5195182Y-12720031D01*
X5195182Y-12720031D02*
X5204705Y-12739079D01*
X5204705Y-12739079D02*
X5214229Y-12777174D01*
X5214229Y-12777174D02*
X5214229Y-12824793D01*
X5214229Y-12824793D02*
X5204705Y-12862888D01*
X5204705Y-12862888D02*
X5195182Y-12881936D01*
X5195182Y-12881936D02*
X5185658Y-12891460D01*
X5185658Y-12891460D02*
X5166610Y-12900984D01*
X5166610Y-12900984D02*
X5147563Y-12900984D01*
X5147563Y-12900984D02*
X5128515Y-12891460D01*
X5128515Y-12891460D02*
X5118991Y-12881936D01*
X5118991Y-12881936D02*
X5109467Y-12862888D01*
X5109467Y-12862888D02*
X5099944Y-12824793D01*
X5099944Y-12824793D02*
X5099944Y-12777174D01*
X5099944Y-12777174D02*
X5109467Y-12739079D01*
X5109467Y-12739079D02*
X5118991Y-12720031D01*
X5118991Y-12720031D02*
X5128515Y-12710508D01*
X5128515Y-12710508D02*
X5147563Y-12700984D01*
X5338039Y-12700984D02*
X5357086Y-12700984D01*
X5357086Y-12700984D02*
X5376134Y-12710508D01*
X5376134Y-12710508D02*
X5385658Y-12720031D01*
X5385658Y-12720031D02*
X5395182Y-12739079D01*
X5395182Y-12739079D02*
X5404705Y-12777174D01*
X5404705Y-12777174D02*
X5404705Y-12824793D01*
X5404705Y-12824793D02*
X5395182Y-12862888D01*
X5395182Y-12862888D02*
X5385658Y-12881936D01*
X5385658Y-12881936D02*
X5376134Y-12891460D01*
X5376134Y-12891460D02*
X5357086Y-12900984D01*
X5357086Y-12900984D02*
X5338039Y-12900984D01*
X5338039Y-12900984D02*
X5318991Y-12891460D01*
X5318991Y-12891460D02*
X5309467Y-12881936D01*
X5309467Y-12881936D02*
X5299944Y-12862888D01*
X5299944Y-12862888D02*
X5290420Y-12824793D01*
X5290420Y-12824793D02*
X5290420Y-12777174D01*
X5290420Y-12777174D02*
X5299944Y-12739079D01*
X5299944Y-12739079D02*
X5309467Y-12720031D01*
X5309467Y-12720031D02*
X5318991Y-12710508D01*
X5318991Y-12710508D02*
X5338039Y-12700984D01*
X5490420Y-12900984D02*
X5490420Y-12767650D01*
X5490420Y-12786698D02*
X5499944Y-12777174D01*
X5499944Y-12777174D02*
X5518991Y-12767650D01*
X5518991Y-12767650D02*
X5547563Y-12767650D01*
X5547563Y-12767650D02*
X5566610Y-12777174D01*
X5566610Y-12777174D02*
X5576134Y-12796222D01*
X5576134Y-12796222D02*
X5576134Y-12900984D01*
X5576134Y-12796222D02*
X5585658Y-12777174D01*
X5585658Y-12777174D02*
X5604705Y-12767650D01*
X5604705Y-12767650D02*
X5633277Y-12767650D01*
X5633277Y-12767650D02*
X5652324Y-12777174D01*
X5652324Y-12777174D02*
X5661848Y-12796222D01*
X5661848Y-12796222D02*
X5661848Y-12900984D01*
X5757086Y-12900984D02*
X5757086Y-12767650D01*
X5757086Y-12786698D02*
X5766610Y-12777174D01*
X5766610Y-12777174D02*
X5785658Y-12767650D01*
X5785658Y-12767650D02*
X5814229Y-12767650D01*
X5814229Y-12767650D02*
X5833277Y-12777174D01*
X5833277Y-12777174D02*
X5842801Y-12796222D01*
X5842801Y-12796222D02*
X5842801Y-12900984D01*
X5842801Y-12796222D02*
X5852324Y-12777174D01*
X5852324Y-12777174D02*
X5871372Y-12767650D01*
X5871372Y-12767650D02*
X5899943Y-12767650D01*
X5899943Y-12767650D02*
X5918991Y-12777174D01*
X5918991Y-12777174D02*
X5928515Y-12796222D01*
X5928515Y-12796222D02*
X5928515Y-12900984D01*
X6318991Y-12691460D02*
X6147563Y-12948603D01*
X6576134Y-12700984D02*
X6595182Y-12700984D01*
X6595182Y-12700984D02*
X6614229Y-12710508D01*
X6614229Y-12710508D02*
X6623753Y-12720031D01*
X6623753Y-12720031D02*
X6633277Y-12739079D01*
X6633277Y-12739079D02*
X6642801Y-12777174D01*
X6642801Y-12777174D02*
X6642801Y-12824793D01*
X6642801Y-12824793D02*
X6633277Y-12862888D01*
X6633277Y-12862888D02*
X6623753Y-12881936D01*
X6623753Y-12881936D02*
X6614229Y-12891460D01*
X6614229Y-12891460D02*
X6595182Y-12900984D01*
X6595182Y-12900984D02*
X6576134Y-12900984D01*
X6576134Y-12900984D02*
X6557086Y-12891460D01*
X6557086Y-12891460D02*
X6547563Y-12881936D01*
X6547563Y-12881936D02*
X6538039Y-12862888D01*
X6538039Y-12862888D02*
X6528515Y-12824793D01*
X6528515Y-12824793D02*
X6528515Y-12777174D01*
X6528515Y-12777174D02*
X6538039Y-12739079D01*
X6538039Y-12739079D02*
X6547563Y-12720031D01*
X6547563Y-12720031D02*
X6557086Y-12710508D01*
X6557086Y-12710508D02*
X6576134Y-12700984D01*
X6728515Y-12881936D02*
X6738039Y-12891460D01*
X6738039Y-12891460D02*
X6728515Y-12900984D01*
X6728515Y-12900984D02*
X6718991Y-12891460D01*
X6718991Y-12891460D02*
X6728515Y-12881936D01*
X6728515Y-12881936D02*
X6728515Y-12900984D01*
X6861848Y-12700984D02*
X6880896Y-12700984D01*
X6880896Y-12700984D02*
X6899944Y-12710508D01*
X6899944Y-12710508D02*
X6909467Y-12720031D01*
X6909467Y-12720031D02*
X6918991Y-12739079D01*
X6918991Y-12739079D02*
X6928515Y-12777174D01*
X6928515Y-12777174D02*
X6928515Y-12824793D01*
X6928515Y-12824793D02*
X6918991Y-12862888D01*
X6918991Y-12862888D02*
X6909467Y-12881936D01*
X6909467Y-12881936D02*
X6899944Y-12891460D01*
X6899944Y-12891460D02*
X6880896Y-12900984D01*
X6880896Y-12900984D02*
X6861848Y-12900984D01*
X6861848Y-12900984D02*
X6842801Y-12891460D01*
X6842801Y-12891460D02*
X6833277Y-12881936D01*
X6833277Y-12881936D02*
X6823753Y-12862888D01*
X6823753Y-12862888D02*
X6814229Y-12824793D01*
X6814229Y-12824793D02*
X6814229Y-12777174D01*
X6814229Y-12777174D02*
X6823753Y-12739079D01*
X6823753Y-12739079D02*
X6833277Y-12720031D01*
X6833277Y-12720031D02*
X6842801Y-12710508D01*
X6842801Y-12710508D02*
X6861848Y-12700984D01*
X7109467Y-12700984D02*
X7014229Y-12700984D01*
X7014229Y-12700984D02*
X7004706Y-12796222D01*
X7004706Y-12796222D02*
X7014229Y-12786698D01*
X7014229Y-12786698D02*
X7033277Y-12777174D01*
X7033277Y-12777174D02*
X7080896Y-12777174D01*
X7080896Y-12777174D02*
X7099944Y-12786698D01*
X7099944Y-12786698D02*
X7109467Y-12796222D01*
X7109467Y-12796222D02*
X7118991Y-12815269D01*
X7118991Y-12815269D02*
X7118991Y-12862888D01*
X7118991Y-12862888D02*
X7109467Y-12881936D01*
X7109467Y-12881936D02*
X7099944Y-12891460D01*
X7099944Y-12891460D02*
X7080896Y-12900984D01*
X7080896Y-12900984D02*
X7033277Y-12900984D01*
X7033277Y-12900984D02*
X7014229Y-12891460D01*
X7014229Y-12891460D02*
X7004706Y-12881936D01*
X7309467Y-12900984D02*
X7195182Y-12900984D01*
X7252325Y-12900984D02*
X7252325Y-12700984D01*
X7252325Y-12700984D02*
X7233277Y-12729555D01*
X7233277Y-12729555D02*
X7214229Y-12748603D01*
X7214229Y-12748603D02*
X7195182Y-12758127D01*
X7385658Y-12720031D02*
X7395182Y-12710508D01*
X7395182Y-12710508D02*
X7414229Y-12700984D01*
X7414229Y-12700984D02*
X7461848Y-12700984D01*
X7461848Y-12700984D02*
X7480896Y-12710508D01*
X7480896Y-12710508D02*
X7490420Y-12720031D01*
X7490420Y-12720031D02*
X7499944Y-12739079D01*
X7499944Y-12739079D02*
X7499944Y-12758127D01*
X7499944Y-12758127D02*
X7490420Y-12786698D01*
X7490420Y-12786698D02*
X7376134Y-12900984D01*
X7376134Y-12900984D02*
X7499944Y-12900984D01*
X7576134Y-12700984D02*
X7576134Y-12739079D01*
X7652325Y-12700984D02*
X7652325Y-12739079D01*
X7947563Y-12977174D02*
X7938039Y-12967650D01*
X7938039Y-12967650D02*
X7918991Y-12939079D01*
X7918991Y-12939079D02*
X7909468Y-12920031D01*
X7909468Y-12920031D02*
X7899944Y-12891460D01*
X7899944Y-12891460D02*
X7890420Y-12843841D01*
X7890420Y-12843841D02*
X7890420Y-12805746D01*
X7890420Y-12805746D02*
X7899944Y-12758127D01*
X7899944Y-12758127D02*
X7909468Y-12729555D01*
X7909468Y-12729555D02*
X7918991Y-12710508D01*
X7918991Y-12710508D02*
X7938039Y-12681936D01*
X7938039Y-12681936D02*
X7947563Y-12672412D01*
X8109468Y-12700984D02*
X8071372Y-12700984D01*
X8071372Y-12700984D02*
X8052325Y-12710508D01*
X8052325Y-12710508D02*
X8042801Y-12720031D01*
X8042801Y-12720031D02*
X8023753Y-12748603D01*
X8023753Y-12748603D02*
X8014229Y-12786698D01*
X8014229Y-12786698D02*
X8014229Y-12862888D01*
X8014229Y-12862888D02*
X8023753Y-12881936D01*
X8023753Y-12881936D02*
X8033277Y-12891460D01*
X8033277Y-12891460D02*
X8052325Y-12900984D01*
X8052325Y-12900984D02*
X8090420Y-12900984D01*
X8090420Y-12900984D02*
X8109468Y-12891460D01*
X8109468Y-12891460D02*
X8118991Y-12881936D01*
X8118991Y-12881936D02*
X8128515Y-12862888D01*
X8128515Y-12862888D02*
X8128515Y-12815269D01*
X8128515Y-12815269D02*
X8118991Y-12796222D01*
X8118991Y-12796222D02*
X8109468Y-12786698D01*
X8109468Y-12786698D02*
X8090420Y-12777174D01*
X8090420Y-12777174D02*
X8052325Y-12777174D01*
X8052325Y-12777174D02*
X8033277Y-12786698D01*
X8033277Y-12786698D02*
X8023753Y-12796222D01*
X8023753Y-12796222D02*
X8014229Y-12815269D01*
X8366610Y-12900984D02*
X8366610Y-12700984D01*
X8452325Y-12900984D02*
X8452325Y-12796222D01*
X8452325Y-12796222D02*
X8442801Y-12777174D01*
X8442801Y-12777174D02*
X8423753Y-12767650D01*
X8423753Y-12767650D02*
X8395182Y-12767650D01*
X8395182Y-12767650D02*
X8376134Y-12777174D01*
X8376134Y-12777174D02*
X8366610Y-12786698D01*
X8576134Y-12900984D02*
X8557087Y-12891460D01*
X8557087Y-12891460D02*
X8547563Y-12881936D01*
X8547563Y-12881936D02*
X8538039Y-12862888D01*
X8538039Y-12862888D02*
X8538039Y-12805746D01*
X8538039Y-12805746D02*
X8547563Y-12786698D01*
X8547563Y-12786698D02*
X8557087Y-12777174D01*
X8557087Y-12777174D02*
X8576134Y-12767650D01*
X8576134Y-12767650D02*
X8604706Y-12767650D01*
X8604706Y-12767650D02*
X8623753Y-12777174D01*
X8623753Y-12777174D02*
X8633277Y-12786698D01*
X8633277Y-12786698D02*
X8642801Y-12805746D01*
X8642801Y-12805746D02*
X8642801Y-12862888D01*
X8642801Y-12862888D02*
X8633277Y-12881936D01*
X8633277Y-12881936D02*
X8623753Y-12891460D01*
X8623753Y-12891460D02*
X8604706Y-12900984D01*
X8604706Y-12900984D02*
X8576134Y-12900984D01*
X8757087Y-12900984D02*
X8738039Y-12891460D01*
X8738039Y-12891460D02*
X8728515Y-12872412D01*
X8728515Y-12872412D02*
X8728515Y-12700984D01*
X8909468Y-12891460D02*
X8890420Y-12900984D01*
X8890420Y-12900984D02*
X8852325Y-12900984D01*
X8852325Y-12900984D02*
X8833277Y-12891460D01*
X8833277Y-12891460D02*
X8823753Y-12872412D01*
X8823753Y-12872412D02*
X8823753Y-12796222D01*
X8823753Y-12796222D02*
X8833277Y-12777174D01*
X8833277Y-12777174D02*
X8852325Y-12767650D01*
X8852325Y-12767650D02*
X8890420Y-12767650D01*
X8890420Y-12767650D02*
X8909468Y-12777174D01*
X8909468Y-12777174D02*
X8918992Y-12796222D01*
X8918992Y-12796222D02*
X8918992Y-12815269D01*
X8918992Y-12815269D02*
X8823753Y-12834317D01*
X8995182Y-12891460D02*
X9014230Y-12900984D01*
X9014230Y-12900984D02*
X9052325Y-12900984D01*
X9052325Y-12900984D02*
X9071373Y-12891460D01*
X9071373Y-12891460D02*
X9080896Y-12872412D01*
X9080896Y-12872412D02*
X9080896Y-12862888D01*
X9080896Y-12862888D02*
X9071373Y-12843841D01*
X9071373Y-12843841D02*
X9052325Y-12834317D01*
X9052325Y-12834317D02*
X9023753Y-12834317D01*
X9023753Y-12834317D02*
X9004706Y-12824793D01*
X9004706Y-12824793D02*
X8995182Y-12805746D01*
X8995182Y-12805746D02*
X8995182Y-12796222D01*
X8995182Y-12796222D02*
X9004706Y-12777174D01*
X9004706Y-12777174D02*
X9023753Y-12767650D01*
X9023753Y-12767650D02*
X9052325Y-12767650D01*
X9052325Y-12767650D02*
X9071373Y-12777174D01*
X9147563Y-12977174D02*
X9157087Y-12967650D01*
X9157087Y-12967650D02*
X9176134Y-12939079D01*
X9176134Y-12939079D02*
X9185658Y-12920031D01*
X9185658Y-12920031D02*
X9195182Y-12891460D01*
X9195182Y-12891460D02*
X9204706Y-12843841D01*
X9204706Y-12843841D02*
X9204706Y-12805746D01*
X9204706Y-12805746D02*
X9195182Y-12758127D01*
X9195182Y-12758127D02*
X9185658Y-12729555D01*
X9185658Y-12729555D02*
X9176134Y-12710508D01*
X9176134Y-12710508D02*
X9157087Y-12681936D01*
X9157087Y-12681936D02*
X9147563Y-12672412D01*
D16*
X4292500Y-13153500D02*
X4372500Y-13073500D01*
X4292500Y-12993500D01*
X4212500Y-13073500D01*
X4292500Y-13153500D01*
D11*
X4738039Y-13164984D02*
X4623753Y-13164984D01*
X4680896Y-13164984D02*
X4680896Y-12964984D01*
X4680896Y-12964984D02*
X4661848Y-12993555D01*
X4661848Y-12993555D02*
X4642801Y-13012603D01*
X4642801Y-13012603D02*
X4623753Y-13022127D01*
X4823753Y-13145936D02*
X4833277Y-13155460D01*
X4833277Y-13155460D02*
X4823753Y-13164984D01*
X4823753Y-13164984D02*
X4814229Y-13155460D01*
X4814229Y-13155460D02*
X4823753Y-13145936D01*
X4823753Y-13145936D02*
X4823753Y-13164984D01*
X5004705Y-12964984D02*
X4966610Y-12964984D01*
X4966610Y-12964984D02*
X4947563Y-12974508D01*
X4947563Y-12974508D02*
X4938039Y-12984031D01*
X4938039Y-12984031D02*
X4918991Y-13012603D01*
X4918991Y-13012603D02*
X4909467Y-13050698D01*
X4909467Y-13050698D02*
X4909467Y-13126888D01*
X4909467Y-13126888D02*
X4918991Y-13145936D01*
X4918991Y-13145936D02*
X4928515Y-13155460D01*
X4928515Y-13155460D02*
X4947563Y-13164984D01*
X4947563Y-13164984D02*
X4985658Y-13164984D01*
X4985658Y-13164984D02*
X5004705Y-13155460D01*
X5004705Y-13155460D02*
X5014229Y-13145936D01*
X5014229Y-13145936D02*
X5023753Y-13126888D01*
X5023753Y-13126888D02*
X5023753Y-13079269D01*
X5023753Y-13079269D02*
X5014229Y-13060222D01*
X5014229Y-13060222D02*
X5004705Y-13050698D01*
X5004705Y-13050698D02*
X4985658Y-13041174D01*
X4985658Y-13041174D02*
X4947563Y-13041174D01*
X4947563Y-13041174D02*
X4928515Y-13050698D01*
X4928515Y-13050698D02*
X4918991Y-13060222D01*
X4918991Y-13060222D02*
X4909467Y-13079269D01*
X5147563Y-12964984D02*
X5166610Y-12964984D01*
X5166610Y-12964984D02*
X5185658Y-12974508D01*
X5185658Y-12974508D02*
X5195182Y-12984031D01*
X5195182Y-12984031D02*
X5204705Y-13003079D01*
X5204705Y-13003079D02*
X5214229Y-13041174D01*
X5214229Y-13041174D02*
X5214229Y-13088793D01*
X5214229Y-13088793D02*
X5204705Y-13126888D01*
X5204705Y-13126888D02*
X5195182Y-13145936D01*
X5195182Y-13145936D02*
X5185658Y-13155460D01*
X5185658Y-13155460D02*
X5166610Y-13164984D01*
X5166610Y-13164984D02*
X5147563Y-13164984D01*
X5147563Y-13164984D02*
X5128515Y-13155460D01*
X5128515Y-13155460D02*
X5118991Y-13145936D01*
X5118991Y-13145936D02*
X5109467Y-13126888D01*
X5109467Y-13126888D02*
X5099944Y-13088793D01*
X5099944Y-13088793D02*
X5099944Y-13041174D01*
X5099944Y-13041174D02*
X5109467Y-13003079D01*
X5109467Y-13003079D02*
X5118991Y-12984031D01*
X5118991Y-12984031D02*
X5128515Y-12974508D01*
X5128515Y-12974508D02*
X5147563Y-12964984D01*
X5338039Y-12964984D02*
X5357086Y-12964984D01*
X5357086Y-12964984D02*
X5376134Y-12974508D01*
X5376134Y-12974508D02*
X5385658Y-12984031D01*
X5385658Y-12984031D02*
X5395182Y-13003079D01*
X5395182Y-13003079D02*
X5404705Y-13041174D01*
X5404705Y-13041174D02*
X5404705Y-13088793D01*
X5404705Y-13088793D02*
X5395182Y-13126888D01*
X5395182Y-13126888D02*
X5385658Y-13145936D01*
X5385658Y-13145936D02*
X5376134Y-13155460D01*
X5376134Y-13155460D02*
X5357086Y-13164984D01*
X5357086Y-13164984D02*
X5338039Y-13164984D01*
X5338039Y-13164984D02*
X5318991Y-13155460D01*
X5318991Y-13155460D02*
X5309467Y-13145936D01*
X5309467Y-13145936D02*
X5299944Y-13126888D01*
X5299944Y-13126888D02*
X5290420Y-13088793D01*
X5290420Y-13088793D02*
X5290420Y-13041174D01*
X5290420Y-13041174D02*
X5299944Y-13003079D01*
X5299944Y-13003079D02*
X5309467Y-12984031D01*
X5309467Y-12984031D02*
X5318991Y-12974508D01*
X5318991Y-12974508D02*
X5338039Y-12964984D01*
X5490420Y-13164984D02*
X5490420Y-13031650D01*
X5490420Y-13050698D02*
X5499944Y-13041174D01*
X5499944Y-13041174D02*
X5518991Y-13031650D01*
X5518991Y-13031650D02*
X5547563Y-13031650D01*
X5547563Y-13031650D02*
X5566610Y-13041174D01*
X5566610Y-13041174D02*
X5576134Y-13060222D01*
X5576134Y-13060222D02*
X5576134Y-13164984D01*
X5576134Y-13060222D02*
X5585658Y-13041174D01*
X5585658Y-13041174D02*
X5604705Y-13031650D01*
X5604705Y-13031650D02*
X5633277Y-13031650D01*
X5633277Y-13031650D02*
X5652324Y-13041174D01*
X5652324Y-13041174D02*
X5661848Y-13060222D01*
X5661848Y-13060222D02*
X5661848Y-13164984D01*
X5757086Y-13164984D02*
X5757086Y-13031650D01*
X5757086Y-13050698D02*
X5766610Y-13041174D01*
X5766610Y-13041174D02*
X5785658Y-13031650D01*
X5785658Y-13031650D02*
X5814229Y-13031650D01*
X5814229Y-13031650D02*
X5833277Y-13041174D01*
X5833277Y-13041174D02*
X5842801Y-13060222D01*
X5842801Y-13060222D02*
X5842801Y-13164984D01*
X5842801Y-13060222D02*
X5852324Y-13041174D01*
X5852324Y-13041174D02*
X5871372Y-13031650D01*
X5871372Y-13031650D02*
X5899943Y-13031650D01*
X5899943Y-13031650D02*
X5918991Y-13041174D01*
X5918991Y-13041174D02*
X5928515Y-13060222D01*
X5928515Y-13060222D02*
X5928515Y-13164984D01*
X6318991Y-12955460D02*
X6147563Y-13212603D01*
X6576134Y-12964984D02*
X6595182Y-12964984D01*
X6595182Y-12964984D02*
X6614229Y-12974508D01*
X6614229Y-12974508D02*
X6623753Y-12984031D01*
X6623753Y-12984031D02*
X6633277Y-13003079D01*
X6633277Y-13003079D02*
X6642801Y-13041174D01*
X6642801Y-13041174D02*
X6642801Y-13088793D01*
X6642801Y-13088793D02*
X6633277Y-13126888D01*
X6633277Y-13126888D02*
X6623753Y-13145936D01*
X6623753Y-13145936D02*
X6614229Y-13155460D01*
X6614229Y-13155460D02*
X6595182Y-13164984D01*
X6595182Y-13164984D02*
X6576134Y-13164984D01*
X6576134Y-13164984D02*
X6557086Y-13155460D01*
X6557086Y-13155460D02*
X6547563Y-13145936D01*
X6547563Y-13145936D02*
X6538039Y-13126888D01*
X6538039Y-13126888D02*
X6528515Y-13088793D01*
X6528515Y-13088793D02*
X6528515Y-13041174D01*
X6528515Y-13041174D02*
X6538039Y-13003079D01*
X6538039Y-13003079D02*
X6547563Y-12984031D01*
X6547563Y-12984031D02*
X6557086Y-12974508D01*
X6557086Y-12974508D02*
X6576134Y-12964984D01*
X6728515Y-13145936D02*
X6738039Y-13155460D01*
X6738039Y-13155460D02*
X6728515Y-13164984D01*
X6728515Y-13164984D02*
X6718991Y-13155460D01*
X6718991Y-13155460D02*
X6728515Y-13145936D01*
X6728515Y-13145936D02*
X6728515Y-13164984D01*
X6861848Y-12964984D02*
X6880896Y-12964984D01*
X6880896Y-12964984D02*
X6899944Y-12974508D01*
X6899944Y-12974508D02*
X6909467Y-12984031D01*
X6909467Y-12984031D02*
X6918991Y-13003079D01*
X6918991Y-13003079D02*
X6928515Y-13041174D01*
X6928515Y-13041174D02*
X6928515Y-13088793D01*
X6928515Y-13088793D02*
X6918991Y-13126888D01*
X6918991Y-13126888D02*
X6909467Y-13145936D01*
X6909467Y-13145936D02*
X6899944Y-13155460D01*
X6899944Y-13155460D02*
X6880896Y-13164984D01*
X6880896Y-13164984D02*
X6861848Y-13164984D01*
X6861848Y-13164984D02*
X6842801Y-13155460D01*
X6842801Y-13155460D02*
X6833277Y-13145936D01*
X6833277Y-13145936D02*
X6823753Y-13126888D01*
X6823753Y-13126888D02*
X6814229Y-13088793D01*
X6814229Y-13088793D02*
X6814229Y-13041174D01*
X6814229Y-13041174D02*
X6823753Y-13003079D01*
X6823753Y-13003079D02*
X6833277Y-12984031D01*
X6833277Y-12984031D02*
X6842801Y-12974508D01*
X6842801Y-12974508D02*
X6861848Y-12964984D01*
X7099944Y-12964984D02*
X7061848Y-12964984D01*
X7061848Y-12964984D02*
X7042801Y-12974508D01*
X7042801Y-12974508D02*
X7033277Y-12984031D01*
X7033277Y-12984031D02*
X7014229Y-13012603D01*
X7014229Y-13012603D02*
X7004706Y-13050698D01*
X7004706Y-13050698D02*
X7004706Y-13126888D01*
X7004706Y-13126888D02*
X7014229Y-13145936D01*
X7014229Y-13145936D02*
X7023753Y-13155460D01*
X7023753Y-13155460D02*
X7042801Y-13164984D01*
X7042801Y-13164984D02*
X7080896Y-13164984D01*
X7080896Y-13164984D02*
X7099944Y-13155460D01*
X7099944Y-13155460D02*
X7109467Y-13145936D01*
X7109467Y-13145936D02*
X7118991Y-13126888D01*
X7118991Y-13126888D02*
X7118991Y-13079269D01*
X7118991Y-13079269D02*
X7109467Y-13060222D01*
X7109467Y-13060222D02*
X7099944Y-13050698D01*
X7099944Y-13050698D02*
X7080896Y-13041174D01*
X7080896Y-13041174D02*
X7042801Y-13041174D01*
X7042801Y-13041174D02*
X7023753Y-13050698D01*
X7023753Y-13050698D02*
X7014229Y-13060222D01*
X7014229Y-13060222D02*
X7004706Y-13079269D01*
X7185658Y-12964984D02*
X7309467Y-12964984D01*
X7309467Y-12964984D02*
X7242801Y-13041174D01*
X7242801Y-13041174D02*
X7271372Y-13041174D01*
X7271372Y-13041174D02*
X7290420Y-13050698D01*
X7290420Y-13050698D02*
X7299944Y-13060222D01*
X7299944Y-13060222D02*
X7309467Y-13079269D01*
X7309467Y-13079269D02*
X7309467Y-13126888D01*
X7309467Y-13126888D02*
X7299944Y-13145936D01*
X7299944Y-13145936D02*
X7290420Y-13155460D01*
X7290420Y-13155460D02*
X7271372Y-13164984D01*
X7271372Y-13164984D02*
X7214229Y-13164984D01*
X7214229Y-13164984D02*
X7195182Y-13155460D01*
X7195182Y-13155460D02*
X7185658Y-13145936D01*
X7433277Y-12964984D02*
X7452325Y-12964984D01*
X7452325Y-12964984D02*
X7471372Y-12974508D01*
X7471372Y-12974508D02*
X7480896Y-12984031D01*
X7480896Y-12984031D02*
X7490420Y-13003079D01*
X7490420Y-13003079D02*
X7499944Y-13041174D01*
X7499944Y-13041174D02*
X7499944Y-13088793D01*
X7499944Y-13088793D02*
X7490420Y-13126888D01*
X7490420Y-13126888D02*
X7480896Y-13145936D01*
X7480896Y-13145936D02*
X7471372Y-13155460D01*
X7471372Y-13155460D02*
X7452325Y-13164984D01*
X7452325Y-13164984D02*
X7433277Y-13164984D01*
X7433277Y-13164984D02*
X7414229Y-13155460D01*
X7414229Y-13155460D02*
X7404706Y-13145936D01*
X7404706Y-13145936D02*
X7395182Y-13126888D01*
X7395182Y-13126888D02*
X7385658Y-13088793D01*
X7385658Y-13088793D02*
X7385658Y-13041174D01*
X7385658Y-13041174D02*
X7395182Y-13003079D01*
X7395182Y-13003079D02*
X7404706Y-12984031D01*
X7404706Y-12984031D02*
X7414229Y-12974508D01*
X7414229Y-12974508D02*
X7433277Y-12964984D01*
X7576134Y-12964984D02*
X7576134Y-13003079D01*
X7652325Y-12964984D02*
X7652325Y-13003079D01*
X7947563Y-13241174D02*
X7938039Y-13231650D01*
X7938039Y-13231650D02*
X7918991Y-13203079D01*
X7918991Y-13203079D02*
X7909468Y-13184031D01*
X7909468Y-13184031D02*
X7899944Y-13155460D01*
X7899944Y-13155460D02*
X7890420Y-13107841D01*
X7890420Y-13107841D02*
X7890420Y-13069746D01*
X7890420Y-13069746D02*
X7899944Y-13022127D01*
X7899944Y-13022127D02*
X7909468Y-12993555D01*
X7909468Y-12993555D02*
X7918991Y-12974508D01*
X7918991Y-12974508D02*
X7938039Y-12945936D01*
X7938039Y-12945936D02*
X7947563Y-12936412D01*
X8052325Y-13050698D02*
X8033277Y-13041174D01*
X8033277Y-13041174D02*
X8023753Y-13031650D01*
X8023753Y-13031650D02*
X8014229Y-13012603D01*
X8014229Y-13012603D02*
X8014229Y-13003079D01*
X8014229Y-13003079D02*
X8023753Y-12984031D01*
X8023753Y-12984031D02*
X8033277Y-12974508D01*
X8033277Y-12974508D02*
X8052325Y-12964984D01*
X8052325Y-12964984D02*
X8090420Y-12964984D01*
X8090420Y-12964984D02*
X8109468Y-12974508D01*
X8109468Y-12974508D02*
X8118991Y-12984031D01*
X8118991Y-12984031D02*
X8128515Y-13003079D01*
X8128515Y-13003079D02*
X8128515Y-13012603D01*
X8128515Y-13012603D02*
X8118991Y-13031650D01*
X8118991Y-13031650D02*
X8109468Y-13041174D01*
X8109468Y-13041174D02*
X8090420Y-13050698D01*
X8090420Y-13050698D02*
X8052325Y-13050698D01*
X8052325Y-13050698D02*
X8033277Y-13060222D01*
X8033277Y-13060222D02*
X8023753Y-13069746D01*
X8023753Y-13069746D02*
X8014229Y-13088793D01*
X8014229Y-13088793D02*
X8014229Y-13126888D01*
X8014229Y-13126888D02*
X8023753Y-13145936D01*
X8023753Y-13145936D02*
X8033277Y-13155460D01*
X8033277Y-13155460D02*
X8052325Y-13164984D01*
X8052325Y-13164984D02*
X8090420Y-13164984D01*
X8090420Y-13164984D02*
X8109468Y-13155460D01*
X8109468Y-13155460D02*
X8118991Y-13145936D01*
X8118991Y-13145936D02*
X8128515Y-13126888D01*
X8128515Y-13126888D02*
X8128515Y-13088793D01*
X8128515Y-13088793D02*
X8118991Y-13069746D01*
X8118991Y-13069746D02*
X8109468Y-13060222D01*
X8109468Y-13060222D02*
X8090420Y-13050698D01*
X8366610Y-13164984D02*
X8366610Y-12964984D01*
X8452325Y-13164984D02*
X8452325Y-13060222D01*
X8452325Y-13060222D02*
X8442801Y-13041174D01*
X8442801Y-13041174D02*
X8423753Y-13031650D01*
X8423753Y-13031650D02*
X8395182Y-13031650D01*
X8395182Y-13031650D02*
X8376134Y-13041174D01*
X8376134Y-13041174D02*
X8366610Y-13050698D01*
X8576134Y-13164984D02*
X8557087Y-13155460D01*
X8557087Y-13155460D02*
X8547563Y-13145936D01*
X8547563Y-13145936D02*
X8538039Y-13126888D01*
X8538039Y-13126888D02*
X8538039Y-13069746D01*
X8538039Y-13069746D02*
X8547563Y-13050698D01*
X8547563Y-13050698D02*
X8557087Y-13041174D01*
X8557087Y-13041174D02*
X8576134Y-13031650D01*
X8576134Y-13031650D02*
X8604706Y-13031650D01*
X8604706Y-13031650D02*
X8623753Y-13041174D01*
X8623753Y-13041174D02*
X8633277Y-13050698D01*
X8633277Y-13050698D02*
X8642801Y-13069746D01*
X8642801Y-13069746D02*
X8642801Y-13126888D01*
X8642801Y-13126888D02*
X8633277Y-13145936D01*
X8633277Y-13145936D02*
X8623753Y-13155460D01*
X8623753Y-13155460D02*
X8604706Y-13164984D01*
X8604706Y-13164984D02*
X8576134Y-13164984D01*
X8757087Y-13164984D02*
X8738039Y-13155460D01*
X8738039Y-13155460D02*
X8728515Y-13136412D01*
X8728515Y-13136412D02*
X8728515Y-12964984D01*
X8909468Y-13155460D02*
X8890420Y-13164984D01*
X8890420Y-13164984D02*
X8852325Y-13164984D01*
X8852325Y-13164984D02*
X8833277Y-13155460D01*
X8833277Y-13155460D02*
X8823753Y-13136412D01*
X8823753Y-13136412D02*
X8823753Y-13060222D01*
X8823753Y-13060222D02*
X8833277Y-13041174D01*
X8833277Y-13041174D02*
X8852325Y-13031650D01*
X8852325Y-13031650D02*
X8890420Y-13031650D01*
X8890420Y-13031650D02*
X8909468Y-13041174D01*
X8909468Y-13041174D02*
X8918992Y-13060222D01*
X8918992Y-13060222D02*
X8918992Y-13079269D01*
X8918992Y-13079269D02*
X8823753Y-13098317D01*
X8995182Y-13155460D02*
X9014230Y-13164984D01*
X9014230Y-13164984D02*
X9052325Y-13164984D01*
X9052325Y-13164984D02*
X9071373Y-13155460D01*
X9071373Y-13155460D02*
X9080896Y-13136412D01*
X9080896Y-13136412D02*
X9080896Y-13126888D01*
X9080896Y-13126888D02*
X9071373Y-13107841D01*
X9071373Y-13107841D02*
X9052325Y-13098317D01*
X9052325Y-13098317D02*
X9023753Y-13098317D01*
X9023753Y-13098317D02*
X9004706Y-13088793D01*
X9004706Y-13088793D02*
X8995182Y-13069746D01*
X8995182Y-13069746D02*
X8995182Y-13060222D01*
X8995182Y-13060222D02*
X9004706Y-13041174D01*
X9004706Y-13041174D02*
X9023753Y-13031650D01*
X9023753Y-13031650D02*
X9052325Y-13031650D01*
X9052325Y-13031650D02*
X9071373Y-13041174D01*
X9147563Y-13241174D02*
X9157087Y-13231650D01*
X9157087Y-13231650D02*
X9176134Y-13203079D01*
X9176134Y-13203079D02*
X9185658Y-13184031D01*
X9185658Y-13184031D02*
X9195182Y-13155460D01*
X9195182Y-13155460D02*
X9204706Y-13107841D01*
X9204706Y-13107841D02*
X9204706Y-13069746D01*
X9204706Y-13069746D02*
X9195182Y-13022127D01*
X9195182Y-13022127D02*
X9185658Y-12993555D01*
X9185658Y-12993555D02*
X9176134Y-12974508D01*
X9176134Y-12974508D02*
X9157087Y-12945936D01*
X9157087Y-12945936D02*
X9147563Y-12936412D01*
D17*
X4192500Y-13263500D02*
X4372500Y-13443500D01*
X4372500Y-13263500D02*
X4192500Y-13443500D01*
X4372500Y-13353500D02*
G75*
G02*
X4192500Y-13353500I-90000J0D01*
G01*
X4192500Y-13353500D02*
G75*
G02*
X4372500Y-13353500I90000J0D01*
G01*
D11*
X4738039Y-13444984D02*
X4623753Y-13444984D01*
X4680896Y-13444984D02*
X4680896Y-13244984D01*
X4680896Y-13244984D02*
X4661848Y-13273555D01*
X4661848Y-13273555D02*
X4642801Y-13292603D01*
X4642801Y-13292603D02*
X4623753Y-13302127D01*
X4823753Y-13425936D02*
X4833277Y-13435460D01*
X4833277Y-13435460D02*
X4823753Y-13444984D01*
X4823753Y-13444984D02*
X4814229Y-13435460D01*
X4814229Y-13435460D02*
X4823753Y-13425936D01*
X4823753Y-13425936D02*
X4823753Y-13444984D01*
X4947563Y-13330698D02*
X4928515Y-13321174D01*
X4928515Y-13321174D02*
X4918991Y-13311650D01*
X4918991Y-13311650D02*
X4909467Y-13292603D01*
X4909467Y-13292603D02*
X4909467Y-13283079D01*
X4909467Y-13283079D02*
X4918991Y-13264031D01*
X4918991Y-13264031D02*
X4928515Y-13254508D01*
X4928515Y-13254508D02*
X4947563Y-13244984D01*
X4947563Y-13244984D02*
X4985658Y-13244984D01*
X4985658Y-13244984D02*
X5004705Y-13254508D01*
X5004705Y-13254508D02*
X5014229Y-13264031D01*
X5014229Y-13264031D02*
X5023753Y-13283079D01*
X5023753Y-13283079D02*
X5023753Y-13292603D01*
X5023753Y-13292603D02*
X5014229Y-13311650D01*
X5014229Y-13311650D02*
X5004705Y-13321174D01*
X5004705Y-13321174D02*
X4985658Y-13330698D01*
X4985658Y-13330698D02*
X4947563Y-13330698D01*
X4947563Y-13330698D02*
X4928515Y-13340222D01*
X4928515Y-13340222D02*
X4918991Y-13349746D01*
X4918991Y-13349746D02*
X4909467Y-13368793D01*
X4909467Y-13368793D02*
X4909467Y-13406888D01*
X4909467Y-13406888D02*
X4918991Y-13425936D01*
X4918991Y-13425936D02*
X4928515Y-13435460D01*
X4928515Y-13435460D02*
X4947563Y-13444984D01*
X4947563Y-13444984D02*
X4985658Y-13444984D01*
X4985658Y-13444984D02*
X5004705Y-13435460D01*
X5004705Y-13435460D02*
X5014229Y-13425936D01*
X5014229Y-13425936D02*
X5023753Y-13406888D01*
X5023753Y-13406888D02*
X5023753Y-13368793D01*
X5023753Y-13368793D02*
X5014229Y-13349746D01*
X5014229Y-13349746D02*
X5004705Y-13340222D01*
X5004705Y-13340222D02*
X4985658Y-13330698D01*
X5147563Y-13244984D02*
X5166610Y-13244984D01*
X5166610Y-13244984D02*
X5185658Y-13254508D01*
X5185658Y-13254508D02*
X5195182Y-13264031D01*
X5195182Y-13264031D02*
X5204705Y-13283079D01*
X5204705Y-13283079D02*
X5214229Y-13321174D01*
X5214229Y-13321174D02*
X5214229Y-13368793D01*
X5214229Y-13368793D02*
X5204705Y-13406888D01*
X5204705Y-13406888D02*
X5195182Y-13425936D01*
X5195182Y-13425936D02*
X5185658Y-13435460D01*
X5185658Y-13435460D02*
X5166610Y-13444984D01*
X5166610Y-13444984D02*
X5147563Y-13444984D01*
X5147563Y-13444984D02*
X5128515Y-13435460D01*
X5128515Y-13435460D02*
X5118991Y-13425936D01*
X5118991Y-13425936D02*
X5109467Y-13406888D01*
X5109467Y-13406888D02*
X5099944Y-13368793D01*
X5099944Y-13368793D02*
X5099944Y-13321174D01*
X5099944Y-13321174D02*
X5109467Y-13283079D01*
X5109467Y-13283079D02*
X5118991Y-13264031D01*
X5118991Y-13264031D02*
X5128515Y-13254508D01*
X5128515Y-13254508D02*
X5147563Y-13244984D01*
X5338039Y-13244984D02*
X5357086Y-13244984D01*
X5357086Y-13244984D02*
X5376134Y-13254508D01*
X5376134Y-13254508D02*
X5385658Y-13264031D01*
X5385658Y-13264031D02*
X5395182Y-13283079D01*
X5395182Y-13283079D02*
X5404705Y-13321174D01*
X5404705Y-13321174D02*
X5404705Y-13368793D01*
X5404705Y-13368793D02*
X5395182Y-13406888D01*
X5395182Y-13406888D02*
X5385658Y-13425936D01*
X5385658Y-13425936D02*
X5376134Y-13435460D01*
X5376134Y-13435460D02*
X5357086Y-13444984D01*
X5357086Y-13444984D02*
X5338039Y-13444984D01*
X5338039Y-13444984D02*
X5318991Y-13435460D01*
X5318991Y-13435460D02*
X5309467Y-13425936D01*
X5309467Y-13425936D02*
X5299944Y-13406888D01*
X5299944Y-13406888D02*
X5290420Y-13368793D01*
X5290420Y-13368793D02*
X5290420Y-13321174D01*
X5290420Y-13321174D02*
X5299944Y-13283079D01*
X5299944Y-13283079D02*
X5309467Y-13264031D01*
X5309467Y-13264031D02*
X5318991Y-13254508D01*
X5318991Y-13254508D02*
X5338039Y-13244984D01*
X5490420Y-13444984D02*
X5490420Y-13311650D01*
X5490420Y-13330698D02*
X5499944Y-13321174D01*
X5499944Y-13321174D02*
X5518991Y-13311650D01*
X5518991Y-13311650D02*
X5547563Y-13311650D01*
X5547563Y-13311650D02*
X5566610Y-13321174D01*
X5566610Y-13321174D02*
X5576134Y-13340222D01*
X5576134Y-13340222D02*
X5576134Y-13444984D01*
X5576134Y-13340222D02*
X5585658Y-13321174D01*
X5585658Y-13321174D02*
X5604705Y-13311650D01*
X5604705Y-13311650D02*
X5633277Y-13311650D01*
X5633277Y-13311650D02*
X5652324Y-13321174D01*
X5652324Y-13321174D02*
X5661848Y-13340222D01*
X5661848Y-13340222D02*
X5661848Y-13444984D01*
X5757086Y-13444984D02*
X5757086Y-13311650D01*
X5757086Y-13330698D02*
X5766610Y-13321174D01*
X5766610Y-13321174D02*
X5785658Y-13311650D01*
X5785658Y-13311650D02*
X5814229Y-13311650D01*
X5814229Y-13311650D02*
X5833277Y-13321174D01*
X5833277Y-13321174D02*
X5842801Y-13340222D01*
X5842801Y-13340222D02*
X5842801Y-13444984D01*
X5842801Y-13340222D02*
X5852324Y-13321174D01*
X5852324Y-13321174D02*
X5871372Y-13311650D01*
X5871372Y-13311650D02*
X5899943Y-13311650D01*
X5899943Y-13311650D02*
X5918991Y-13321174D01*
X5918991Y-13321174D02*
X5928515Y-13340222D01*
X5928515Y-13340222D02*
X5928515Y-13444984D01*
X6318991Y-13235460D02*
X6147563Y-13492603D01*
X6576134Y-13244984D02*
X6595182Y-13244984D01*
X6595182Y-13244984D02*
X6614229Y-13254508D01*
X6614229Y-13254508D02*
X6623753Y-13264031D01*
X6623753Y-13264031D02*
X6633277Y-13283079D01*
X6633277Y-13283079D02*
X6642801Y-13321174D01*
X6642801Y-13321174D02*
X6642801Y-13368793D01*
X6642801Y-13368793D02*
X6633277Y-13406888D01*
X6633277Y-13406888D02*
X6623753Y-13425936D01*
X6623753Y-13425936D02*
X6614229Y-13435460D01*
X6614229Y-13435460D02*
X6595182Y-13444984D01*
X6595182Y-13444984D02*
X6576134Y-13444984D01*
X6576134Y-13444984D02*
X6557086Y-13435460D01*
X6557086Y-13435460D02*
X6547563Y-13425936D01*
X6547563Y-13425936D02*
X6538039Y-13406888D01*
X6538039Y-13406888D02*
X6528515Y-13368793D01*
X6528515Y-13368793D02*
X6528515Y-13321174D01*
X6528515Y-13321174D02*
X6538039Y-13283079D01*
X6538039Y-13283079D02*
X6547563Y-13264031D01*
X6547563Y-13264031D02*
X6557086Y-13254508D01*
X6557086Y-13254508D02*
X6576134Y-13244984D01*
X6728515Y-13425936D02*
X6738039Y-13435460D01*
X6738039Y-13435460D02*
X6728515Y-13444984D01*
X6728515Y-13444984D02*
X6718991Y-13435460D01*
X6718991Y-13435460D02*
X6728515Y-13425936D01*
X6728515Y-13425936D02*
X6728515Y-13444984D01*
X6861848Y-13244984D02*
X6880896Y-13244984D01*
X6880896Y-13244984D02*
X6899944Y-13254508D01*
X6899944Y-13254508D02*
X6909467Y-13264031D01*
X6909467Y-13264031D02*
X6918991Y-13283079D01*
X6918991Y-13283079D02*
X6928515Y-13321174D01*
X6928515Y-13321174D02*
X6928515Y-13368793D01*
X6928515Y-13368793D02*
X6918991Y-13406888D01*
X6918991Y-13406888D02*
X6909467Y-13425936D01*
X6909467Y-13425936D02*
X6899944Y-13435460D01*
X6899944Y-13435460D02*
X6880896Y-13444984D01*
X6880896Y-13444984D02*
X6861848Y-13444984D01*
X6861848Y-13444984D02*
X6842801Y-13435460D01*
X6842801Y-13435460D02*
X6833277Y-13425936D01*
X6833277Y-13425936D02*
X6823753Y-13406888D01*
X6823753Y-13406888D02*
X6814229Y-13368793D01*
X6814229Y-13368793D02*
X6814229Y-13321174D01*
X6814229Y-13321174D02*
X6823753Y-13283079D01*
X6823753Y-13283079D02*
X6833277Y-13264031D01*
X6833277Y-13264031D02*
X6842801Y-13254508D01*
X6842801Y-13254508D02*
X6861848Y-13244984D01*
X6995182Y-13244984D02*
X7128515Y-13244984D01*
X7128515Y-13244984D02*
X7042801Y-13444984D01*
X7242801Y-13244984D02*
X7261848Y-13244984D01*
X7261848Y-13244984D02*
X7280896Y-13254508D01*
X7280896Y-13254508D02*
X7290420Y-13264031D01*
X7290420Y-13264031D02*
X7299944Y-13283079D01*
X7299944Y-13283079D02*
X7309467Y-13321174D01*
X7309467Y-13321174D02*
X7309467Y-13368793D01*
X7309467Y-13368793D02*
X7299944Y-13406888D01*
X7299944Y-13406888D02*
X7290420Y-13425936D01*
X7290420Y-13425936D02*
X7280896Y-13435460D01*
X7280896Y-13435460D02*
X7261848Y-13444984D01*
X7261848Y-13444984D02*
X7242801Y-13444984D01*
X7242801Y-13444984D02*
X7223753Y-13435460D01*
X7223753Y-13435460D02*
X7214229Y-13425936D01*
X7214229Y-13425936D02*
X7204706Y-13406888D01*
X7204706Y-13406888D02*
X7195182Y-13368793D01*
X7195182Y-13368793D02*
X7195182Y-13321174D01*
X7195182Y-13321174D02*
X7204706Y-13283079D01*
X7204706Y-13283079D02*
X7214229Y-13264031D01*
X7214229Y-13264031D02*
X7223753Y-13254508D01*
X7223753Y-13254508D02*
X7242801Y-13244984D01*
X7404706Y-13444984D02*
X7442801Y-13444984D01*
X7442801Y-13444984D02*
X7461848Y-13435460D01*
X7461848Y-13435460D02*
X7471372Y-13425936D01*
X7471372Y-13425936D02*
X7490420Y-13397365D01*
X7490420Y-13397365D02*
X7499944Y-13359269D01*
X7499944Y-13359269D02*
X7499944Y-13283079D01*
X7499944Y-13283079D02*
X7490420Y-13264031D01*
X7490420Y-13264031D02*
X7480896Y-13254508D01*
X7480896Y-13254508D02*
X7461848Y-13244984D01*
X7461848Y-13244984D02*
X7423753Y-13244984D01*
X7423753Y-13244984D02*
X7404706Y-13254508D01*
X7404706Y-13254508D02*
X7395182Y-13264031D01*
X7395182Y-13264031D02*
X7385658Y-13283079D01*
X7385658Y-13283079D02*
X7385658Y-13330698D01*
X7385658Y-13330698D02*
X7395182Y-13349746D01*
X7395182Y-13349746D02*
X7404706Y-13359269D01*
X7404706Y-13359269D02*
X7423753Y-13368793D01*
X7423753Y-13368793D02*
X7461848Y-13368793D01*
X7461848Y-13368793D02*
X7480896Y-13359269D01*
X7480896Y-13359269D02*
X7490420Y-13349746D01*
X7490420Y-13349746D02*
X7499944Y-13330698D01*
X7576134Y-13244984D02*
X7576134Y-13283079D01*
X7652325Y-13244984D02*
X7652325Y-13283079D01*
X7947563Y-13521174D02*
X7938039Y-13511650D01*
X7938039Y-13511650D02*
X7918991Y-13483079D01*
X7918991Y-13483079D02*
X7909468Y-13464031D01*
X7909468Y-13464031D02*
X7899944Y-13435460D01*
X7899944Y-13435460D02*
X7890420Y-13387841D01*
X7890420Y-13387841D02*
X7890420Y-13349746D01*
X7890420Y-13349746D02*
X7899944Y-13302127D01*
X7899944Y-13302127D02*
X7909468Y-13273555D01*
X7909468Y-13273555D02*
X7918991Y-13254508D01*
X7918991Y-13254508D02*
X7938039Y-13225936D01*
X7938039Y-13225936D02*
X7947563Y-13216412D01*
X8004706Y-13244984D02*
X8128515Y-13244984D01*
X8128515Y-13244984D02*
X8061848Y-13321174D01*
X8061848Y-13321174D02*
X8090420Y-13321174D01*
X8090420Y-13321174D02*
X8109468Y-13330698D01*
X8109468Y-13330698D02*
X8118991Y-13340222D01*
X8118991Y-13340222D02*
X8128515Y-13359269D01*
X8128515Y-13359269D02*
X8128515Y-13406888D01*
X8128515Y-13406888D02*
X8118991Y-13425936D01*
X8118991Y-13425936D02*
X8109468Y-13435460D01*
X8109468Y-13435460D02*
X8090420Y-13444984D01*
X8090420Y-13444984D02*
X8033277Y-13444984D01*
X8033277Y-13444984D02*
X8014229Y-13435460D01*
X8014229Y-13435460D02*
X8004706Y-13425936D01*
X8204706Y-13264031D02*
X8214229Y-13254508D01*
X8214229Y-13254508D02*
X8233277Y-13244984D01*
X8233277Y-13244984D02*
X8280896Y-13244984D01*
X8280896Y-13244984D02*
X8299944Y-13254508D01*
X8299944Y-13254508D02*
X8309468Y-13264031D01*
X8309468Y-13264031D02*
X8318991Y-13283079D01*
X8318991Y-13283079D02*
X8318991Y-13302127D01*
X8318991Y-13302127D02*
X8309468Y-13330698D01*
X8309468Y-13330698D02*
X8195182Y-13444984D01*
X8195182Y-13444984D02*
X8318991Y-13444984D01*
X8557087Y-13444984D02*
X8557087Y-13244984D01*
X8642801Y-13444984D02*
X8642801Y-13340222D01*
X8642801Y-13340222D02*
X8633277Y-13321174D01*
X8633277Y-13321174D02*
X8614230Y-13311650D01*
X8614230Y-13311650D02*
X8585658Y-13311650D01*
X8585658Y-13311650D02*
X8566611Y-13321174D01*
X8566611Y-13321174D02*
X8557087Y-13330698D01*
X8766611Y-13444984D02*
X8747563Y-13435460D01*
X8747563Y-13435460D02*
X8738039Y-13425936D01*
X8738039Y-13425936D02*
X8728515Y-13406888D01*
X8728515Y-13406888D02*
X8728515Y-13349746D01*
X8728515Y-13349746D02*
X8738039Y-13330698D01*
X8738039Y-13330698D02*
X8747563Y-13321174D01*
X8747563Y-13321174D02*
X8766611Y-13311650D01*
X8766611Y-13311650D02*
X8795182Y-13311650D01*
X8795182Y-13311650D02*
X8814230Y-13321174D01*
X8814230Y-13321174D02*
X8823753Y-13330698D01*
X8823753Y-13330698D02*
X8833277Y-13349746D01*
X8833277Y-13349746D02*
X8833277Y-13406888D01*
X8833277Y-13406888D02*
X8823753Y-13425936D01*
X8823753Y-13425936D02*
X8814230Y-13435460D01*
X8814230Y-13435460D02*
X8795182Y-13444984D01*
X8795182Y-13444984D02*
X8766611Y-13444984D01*
X8947563Y-13444984D02*
X8928515Y-13435460D01*
X8928515Y-13435460D02*
X8918992Y-13416412D01*
X8918992Y-13416412D02*
X8918992Y-13244984D01*
X9099944Y-13435460D02*
X9080896Y-13444984D01*
X9080896Y-13444984D02*
X9042801Y-13444984D01*
X9042801Y-13444984D02*
X9023753Y-13435460D01*
X9023753Y-13435460D02*
X9014230Y-13416412D01*
X9014230Y-13416412D02*
X9014230Y-13340222D01*
X9014230Y-13340222D02*
X9023753Y-13321174D01*
X9023753Y-13321174D02*
X9042801Y-13311650D01*
X9042801Y-13311650D02*
X9080896Y-13311650D01*
X9080896Y-13311650D02*
X9099944Y-13321174D01*
X9099944Y-13321174D02*
X9109468Y-13340222D01*
X9109468Y-13340222D02*
X9109468Y-13359269D01*
X9109468Y-13359269D02*
X9014230Y-13378317D01*
X9185658Y-13435460D02*
X9204706Y-13444984D01*
X9204706Y-13444984D02*
X9242801Y-13444984D01*
X9242801Y-13444984D02*
X9261849Y-13435460D01*
X9261849Y-13435460D02*
X9271373Y-13416412D01*
X9271373Y-13416412D02*
X9271373Y-13406888D01*
X9271373Y-13406888D02*
X9261849Y-13387841D01*
X9261849Y-13387841D02*
X9242801Y-13378317D01*
X9242801Y-13378317D02*
X9214230Y-13378317D01*
X9214230Y-13378317D02*
X9195182Y-13368793D01*
X9195182Y-13368793D02*
X9185658Y-13349746D01*
X9185658Y-13349746D02*
X9185658Y-13340222D01*
X9185658Y-13340222D02*
X9195182Y-13321174D01*
X9195182Y-13321174D02*
X9214230Y-13311650D01*
X9214230Y-13311650D02*
X9242801Y-13311650D01*
X9242801Y-13311650D02*
X9261849Y-13321174D01*
X9338039Y-13521174D02*
X9347563Y-13511650D01*
X9347563Y-13511650D02*
X9366611Y-13483079D01*
X9366611Y-13483079D02*
X9376134Y-13464031D01*
X9376134Y-13464031D02*
X9385658Y-13435460D01*
X9385658Y-13435460D02*
X9395182Y-13387841D01*
X9395182Y-13387841D02*
X9395182Y-13349746D01*
X9395182Y-13349746D02*
X9385658Y-13302127D01*
X9385658Y-13302127D02*
X9376134Y-13273555D01*
X9376134Y-13273555D02*
X9366611Y-13254508D01*
X9366611Y-13254508D02*
X9347563Y-13225936D01*
X9347563Y-13225936D02*
X9338039Y-13216412D01*
D18*
X4187500Y-13561000D02*
X4372500Y-13746000D01*
X4372500Y-13561000D02*
X4187500Y-13746000D01*
X4280000Y-13561000D02*
X4280000Y-13746000D01*
X4187500Y-13653500D02*
X4372500Y-13653500D01*
D11*
X4738039Y-13744984D02*
X4623753Y-13744984D01*
X4680896Y-13744984D02*
X4680896Y-13544984D01*
X4680896Y-13544984D02*
X4661848Y-13573555D01*
X4661848Y-13573555D02*
X4642801Y-13592603D01*
X4642801Y-13592603D02*
X4623753Y-13602127D01*
X4823753Y-13725936D02*
X4833277Y-13735460D01*
X4833277Y-13735460D02*
X4823753Y-13744984D01*
X4823753Y-13744984D02*
X4814229Y-13735460D01*
X4814229Y-13735460D02*
X4823753Y-13725936D01*
X4823753Y-13725936D02*
X4823753Y-13744984D01*
X4947563Y-13630698D02*
X4928515Y-13621174D01*
X4928515Y-13621174D02*
X4918991Y-13611650D01*
X4918991Y-13611650D02*
X4909467Y-13592603D01*
X4909467Y-13592603D02*
X4909467Y-13583079D01*
X4909467Y-13583079D02*
X4918991Y-13564031D01*
X4918991Y-13564031D02*
X4928515Y-13554508D01*
X4928515Y-13554508D02*
X4947563Y-13544984D01*
X4947563Y-13544984D02*
X4985658Y-13544984D01*
X4985658Y-13544984D02*
X5004705Y-13554508D01*
X5004705Y-13554508D02*
X5014229Y-13564031D01*
X5014229Y-13564031D02*
X5023753Y-13583079D01*
X5023753Y-13583079D02*
X5023753Y-13592603D01*
X5023753Y-13592603D02*
X5014229Y-13611650D01*
X5014229Y-13611650D02*
X5004705Y-13621174D01*
X5004705Y-13621174D02*
X4985658Y-13630698D01*
X4985658Y-13630698D02*
X4947563Y-13630698D01*
X4947563Y-13630698D02*
X4928515Y-13640222D01*
X4928515Y-13640222D02*
X4918991Y-13649746D01*
X4918991Y-13649746D02*
X4909467Y-13668793D01*
X4909467Y-13668793D02*
X4909467Y-13706888D01*
X4909467Y-13706888D02*
X4918991Y-13725936D01*
X4918991Y-13725936D02*
X4928515Y-13735460D01*
X4928515Y-13735460D02*
X4947563Y-13744984D01*
X4947563Y-13744984D02*
X4985658Y-13744984D01*
X4985658Y-13744984D02*
X5004705Y-13735460D01*
X5004705Y-13735460D02*
X5014229Y-13725936D01*
X5014229Y-13725936D02*
X5023753Y-13706888D01*
X5023753Y-13706888D02*
X5023753Y-13668793D01*
X5023753Y-13668793D02*
X5014229Y-13649746D01*
X5014229Y-13649746D02*
X5004705Y-13640222D01*
X5004705Y-13640222D02*
X4985658Y-13630698D01*
X5204705Y-13544984D02*
X5109467Y-13544984D01*
X5109467Y-13544984D02*
X5099944Y-13640222D01*
X5099944Y-13640222D02*
X5109467Y-13630698D01*
X5109467Y-13630698D02*
X5128515Y-13621174D01*
X5128515Y-13621174D02*
X5176134Y-13621174D01*
X5176134Y-13621174D02*
X5195182Y-13630698D01*
X5195182Y-13630698D02*
X5204705Y-13640222D01*
X5204705Y-13640222D02*
X5214229Y-13659269D01*
X5214229Y-13659269D02*
X5214229Y-13706888D01*
X5214229Y-13706888D02*
X5204705Y-13725936D01*
X5204705Y-13725936D02*
X5195182Y-13735460D01*
X5195182Y-13735460D02*
X5176134Y-13744984D01*
X5176134Y-13744984D02*
X5128515Y-13744984D01*
X5128515Y-13744984D02*
X5109467Y-13735460D01*
X5109467Y-13735460D02*
X5099944Y-13725936D01*
X5338039Y-13544984D02*
X5357086Y-13544984D01*
X5357086Y-13544984D02*
X5376134Y-13554508D01*
X5376134Y-13554508D02*
X5385658Y-13564031D01*
X5385658Y-13564031D02*
X5395182Y-13583079D01*
X5395182Y-13583079D02*
X5404705Y-13621174D01*
X5404705Y-13621174D02*
X5404705Y-13668793D01*
X5404705Y-13668793D02*
X5395182Y-13706888D01*
X5395182Y-13706888D02*
X5385658Y-13725936D01*
X5385658Y-13725936D02*
X5376134Y-13735460D01*
X5376134Y-13735460D02*
X5357086Y-13744984D01*
X5357086Y-13744984D02*
X5338039Y-13744984D01*
X5338039Y-13744984D02*
X5318991Y-13735460D01*
X5318991Y-13735460D02*
X5309467Y-13725936D01*
X5309467Y-13725936D02*
X5299944Y-13706888D01*
X5299944Y-13706888D02*
X5290420Y-13668793D01*
X5290420Y-13668793D02*
X5290420Y-13621174D01*
X5290420Y-13621174D02*
X5299944Y-13583079D01*
X5299944Y-13583079D02*
X5309467Y-13564031D01*
X5309467Y-13564031D02*
X5318991Y-13554508D01*
X5318991Y-13554508D02*
X5338039Y-13544984D01*
X5490420Y-13744984D02*
X5490420Y-13611650D01*
X5490420Y-13630698D02*
X5499944Y-13621174D01*
X5499944Y-13621174D02*
X5518991Y-13611650D01*
X5518991Y-13611650D02*
X5547563Y-13611650D01*
X5547563Y-13611650D02*
X5566610Y-13621174D01*
X5566610Y-13621174D02*
X5576134Y-13640222D01*
X5576134Y-13640222D02*
X5576134Y-13744984D01*
X5576134Y-13640222D02*
X5585658Y-13621174D01*
X5585658Y-13621174D02*
X5604705Y-13611650D01*
X5604705Y-13611650D02*
X5633277Y-13611650D01*
X5633277Y-13611650D02*
X5652324Y-13621174D01*
X5652324Y-13621174D02*
X5661848Y-13640222D01*
X5661848Y-13640222D02*
X5661848Y-13744984D01*
X5757086Y-13744984D02*
X5757086Y-13611650D01*
X5757086Y-13630698D02*
X5766610Y-13621174D01*
X5766610Y-13621174D02*
X5785658Y-13611650D01*
X5785658Y-13611650D02*
X5814229Y-13611650D01*
X5814229Y-13611650D02*
X5833277Y-13621174D01*
X5833277Y-13621174D02*
X5842801Y-13640222D01*
X5842801Y-13640222D02*
X5842801Y-13744984D01*
X5842801Y-13640222D02*
X5852324Y-13621174D01*
X5852324Y-13621174D02*
X5871372Y-13611650D01*
X5871372Y-13611650D02*
X5899943Y-13611650D01*
X5899943Y-13611650D02*
X5918991Y-13621174D01*
X5918991Y-13621174D02*
X5928515Y-13640222D01*
X5928515Y-13640222D02*
X5928515Y-13744984D01*
X6318991Y-13535460D02*
X6147563Y-13792603D01*
X6576134Y-13544984D02*
X6595182Y-13544984D01*
X6595182Y-13544984D02*
X6614229Y-13554508D01*
X6614229Y-13554508D02*
X6623753Y-13564031D01*
X6623753Y-13564031D02*
X6633277Y-13583079D01*
X6633277Y-13583079D02*
X6642801Y-13621174D01*
X6642801Y-13621174D02*
X6642801Y-13668793D01*
X6642801Y-13668793D02*
X6633277Y-13706888D01*
X6633277Y-13706888D02*
X6623753Y-13725936D01*
X6623753Y-13725936D02*
X6614229Y-13735460D01*
X6614229Y-13735460D02*
X6595182Y-13744984D01*
X6595182Y-13744984D02*
X6576134Y-13744984D01*
X6576134Y-13744984D02*
X6557086Y-13735460D01*
X6557086Y-13735460D02*
X6547563Y-13725936D01*
X6547563Y-13725936D02*
X6538039Y-13706888D01*
X6538039Y-13706888D02*
X6528515Y-13668793D01*
X6528515Y-13668793D02*
X6528515Y-13621174D01*
X6528515Y-13621174D02*
X6538039Y-13583079D01*
X6538039Y-13583079D02*
X6547563Y-13564031D01*
X6547563Y-13564031D02*
X6557086Y-13554508D01*
X6557086Y-13554508D02*
X6576134Y-13544984D01*
X6728515Y-13725936D02*
X6738039Y-13735460D01*
X6738039Y-13735460D02*
X6728515Y-13744984D01*
X6728515Y-13744984D02*
X6718991Y-13735460D01*
X6718991Y-13735460D02*
X6728515Y-13725936D01*
X6728515Y-13725936D02*
X6728515Y-13744984D01*
X6861848Y-13544984D02*
X6880896Y-13544984D01*
X6880896Y-13544984D02*
X6899944Y-13554508D01*
X6899944Y-13554508D02*
X6909467Y-13564031D01*
X6909467Y-13564031D02*
X6918991Y-13583079D01*
X6918991Y-13583079D02*
X6928515Y-13621174D01*
X6928515Y-13621174D02*
X6928515Y-13668793D01*
X6928515Y-13668793D02*
X6918991Y-13706888D01*
X6918991Y-13706888D02*
X6909467Y-13725936D01*
X6909467Y-13725936D02*
X6899944Y-13735460D01*
X6899944Y-13735460D02*
X6880896Y-13744984D01*
X6880896Y-13744984D02*
X6861848Y-13744984D01*
X6861848Y-13744984D02*
X6842801Y-13735460D01*
X6842801Y-13735460D02*
X6833277Y-13725936D01*
X6833277Y-13725936D02*
X6823753Y-13706888D01*
X6823753Y-13706888D02*
X6814229Y-13668793D01*
X6814229Y-13668793D02*
X6814229Y-13621174D01*
X6814229Y-13621174D02*
X6823753Y-13583079D01*
X6823753Y-13583079D02*
X6833277Y-13564031D01*
X6833277Y-13564031D02*
X6842801Y-13554508D01*
X6842801Y-13554508D02*
X6861848Y-13544984D01*
X6995182Y-13544984D02*
X7128515Y-13544984D01*
X7128515Y-13544984D02*
X7042801Y-13744984D01*
X7195182Y-13564031D02*
X7204706Y-13554508D01*
X7204706Y-13554508D02*
X7223753Y-13544984D01*
X7223753Y-13544984D02*
X7271372Y-13544984D01*
X7271372Y-13544984D02*
X7290420Y-13554508D01*
X7290420Y-13554508D02*
X7299944Y-13564031D01*
X7299944Y-13564031D02*
X7309467Y-13583079D01*
X7309467Y-13583079D02*
X7309467Y-13602127D01*
X7309467Y-13602127D02*
X7299944Y-13630698D01*
X7299944Y-13630698D02*
X7185658Y-13744984D01*
X7185658Y-13744984D02*
X7309467Y-13744984D01*
X7423753Y-13630698D02*
X7404706Y-13621174D01*
X7404706Y-13621174D02*
X7395182Y-13611650D01*
X7395182Y-13611650D02*
X7385658Y-13592603D01*
X7385658Y-13592603D02*
X7385658Y-13583079D01*
X7385658Y-13583079D02*
X7395182Y-13564031D01*
X7395182Y-13564031D02*
X7404706Y-13554508D01*
X7404706Y-13554508D02*
X7423753Y-13544984D01*
X7423753Y-13544984D02*
X7461848Y-13544984D01*
X7461848Y-13544984D02*
X7480896Y-13554508D01*
X7480896Y-13554508D02*
X7490420Y-13564031D01*
X7490420Y-13564031D02*
X7499944Y-13583079D01*
X7499944Y-13583079D02*
X7499944Y-13592603D01*
X7499944Y-13592603D02*
X7490420Y-13611650D01*
X7490420Y-13611650D02*
X7480896Y-13621174D01*
X7480896Y-13621174D02*
X7461848Y-13630698D01*
X7461848Y-13630698D02*
X7423753Y-13630698D01*
X7423753Y-13630698D02*
X7404706Y-13640222D01*
X7404706Y-13640222D02*
X7395182Y-13649746D01*
X7395182Y-13649746D02*
X7385658Y-13668793D01*
X7385658Y-13668793D02*
X7385658Y-13706888D01*
X7385658Y-13706888D02*
X7395182Y-13725936D01*
X7395182Y-13725936D02*
X7404706Y-13735460D01*
X7404706Y-13735460D02*
X7423753Y-13744984D01*
X7423753Y-13744984D02*
X7461848Y-13744984D01*
X7461848Y-13744984D02*
X7480896Y-13735460D01*
X7480896Y-13735460D02*
X7490420Y-13725936D01*
X7490420Y-13725936D02*
X7499944Y-13706888D01*
X7499944Y-13706888D02*
X7499944Y-13668793D01*
X7499944Y-13668793D02*
X7490420Y-13649746D01*
X7490420Y-13649746D02*
X7480896Y-13640222D01*
X7480896Y-13640222D02*
X7461848Y-13630698D01*
X7576134Y-13544984D02*
X7576134Y-13583079D01*
X7652325Y-13544984D02*
X7652325Y-13583079D01*
X7947563Y-13821174D02*
X7938039Y-13811650D01*
X7938039Y-13811650D02*
X7918991Y-13783079D01*
X7918991Y-13783079D02*
X7909468Y-13764031D01*
X7909468Y-13764031D02*
X7899944Y-13735460D01*
X7899944Y-13735460D02*
X7890420Y-13687841D01*
X7890420Y-13687841D02*
X7890420Y-13649746D01*
X7890420Y-13649746D02*
X7899944Y-13602127D01*
X7899944Y-13602127D02*
X7909468Y-13573555D01*
X7909468Y-13573555D02*
X7918991Y-13554508D01*
X7918991Y-13554508D02*
X7938039Y-13525936D01*
X7938039Y-13525936D02*
X7947563Y-13516412D01*
X8109468Y-13544984D02*
X8071372Y-13544984D01*
X8071372Y-13544984D02*
X8052325Y-13554508D01*
X8052325Y-13554508D02*
X8042801Y-13564031D01*
X8042801Y-13564031D02*
X8023753Y-13592603D01*
X8023753Y-13592603D02*
X8014229Y-13630698D01*
X8014229Y-13630698D02*
X8014229Y-13706888D01*
X8014229Y-13706888D02*
X8023753Y-13725936D01*
X8023753Y-13725936D02*
X8033277Y-13735460D01*
X8033277Y-13735460D02*
X8052325Y-13744984D01*
X8052325Y-13744984D02*
X8090420Y-13744984D01*
X8090420Y-13744984D02*
X8109468Y-13735460D01*
X8109468Y-13735460D02*
X8118991Y-13725936D01*
X8118991Y-13725936D02*
X8128515Y-13706888D01*
X8128515Y-13706888D02*
X8128515Y-13659269D01*
X8128515Y-13659269D02*
X8118991Y-13640222D01*
X8118991Y-13640222D02*
X8109468Y-13630698D01*
X8109468Y-13630698D02*
X8090420Y-13621174D01*
X8090420Y-13621174D02*
X8052325Y-13621174D01*
X8052325Y-13621174D02*
X8033277Y-13630698D01*
X8033277Y-13630698D02*
X8023753Y-13640222D01*
X8023753Y-13640222D02*
X8014229Y-13659269D01*
X8366610Y-13744984D02*
X8366610Y-13544984D01*
X8452325Y-13744984D02*
X8452325Y-13640222D01*
X8452325Y-13640222D02*
X8442801Y-13621174D01*
X8442801Y-13621174D02*
X8423753Y-13611650D01*
X8423753Y-13611650D02*
X8395182Y-13611650D01*
X8395182Y-13611650D02*
X8376134Y-13621174D01*
X8376134Y-13621174D02*
X8366610Y-13630698D01*
X8576134Y-13744984D02*
X8557087Y-13735460D01*
X8557087Y-13735460D02*
X8547563Y-13725936D01*
X8547563Y-13725936D02*
X8538039Y-13706888D01*
X8538039Y-13706888D02*
X8538039Y-13649746D01*
X8538039Y-13649746D02*
X8547563Y-13630698D01*
X8547563Y-13630698D02*
X8557087Y-13621174D01*
X8557087Y-13621174D02*
X8576134Y-13611650D01*
X8576134Y-13611650D02*
X8604706Y-13611650D01*
X8604706Y-13611650D02*
X8623753Y-13621174D01*
X8623753Y-13621174D02*
X8633277Y-13630698D01*
X8633277Y-13630698D02*
X8642801Y-13649746D01*
X8642801Y-13649746D02*
X8642801Y-13706888D01*
X8642801Y-13706888D02*
X8633277Y-13725936D01*
X8633277Y-13725936D02*
X8623753Y-13735460D01*
X8623753Y-13735460D02*
X8604706Y-13744984D01*
X8604706Y-13744984D02*
X8576134Y-13744984D01*
X8757087Y-13744984D02*
X8738039Y-13735460D01*
X8738039Y-13735460D02*
X8728515Y-13716412D01*
X8728515Y-13716412D02*
X8728515Y-13544984D01*
X8909468Y-13735460D02*
X8890420Y-13744984D01*
X8890420Y-13744984D02*
X8852325Y-13744984D01*
X8852325Y-13744984D02*
X8833277Y-13735460D01*
X8833277Y-13735460D02*
X8823753Y-13716412D01*
X8823753Y-13716412D02*
X8823753Y-13640222D01*
X8823753Y-13640222D02*
X8833277Y-13621174D01*
X8833277Y-13621174D02*
X8852325Y-13611650D01*
X8852325Y-13611650D02*
X8890420Y-13611650D01*
X8890420Y-13611650D02*
X8909468Y-13621174D01*
X8909468Y-13621174D02*
X8918992Y-13640222D01*
X8918992Y-13640222D02*
X8918992Y-13659269D01*
X8918992Y-13659269D02*
X8823753Y-13678317D01*
X8995182Y-13735460D02*
X9014230Y-13744984D01*
X9014230Y-13744984D02*
X9052325Y-13744984D01*
X9052325Y-13744984D02*
X9071373Y-13735460D01*
X9071373Y-13735460D02*
X9080896Y-13716412D01*
X9080896Y-13716412D02*
X9080896Y-13706888D01*
X9080896Y-13706888D02*
X9071373Y-13687841D01*
X9071373Y-13687841D02*
X9052325Y-13678317D01*
X9052325Y-13678317D02*
X9023753Y-13678317D01*
X9023753Y-13678317D02*
X9004706Y-13668793D01*
X9004706Y-13668793D02*
X8995182Y-13649746D01*
X8995182Y-13649746D02*
X8995182Y-13640222D01*
X8995182Y-13640222D02*
X9004706Y-13621174D01*
X9004706Y-13621174D02*
X9023753Y-13611650D01*
X9023753Y-13611650D02*
X9052325Y-13611650D01*
X9052325Y-13611650D02*
X9071373Y-13621174D01*
X9147563Y-13821174D02*
X9157087Y-13811650D01*
X9157087Y-13811650D02*
X9176134Y-13783079D01*
X9176134Y-13783079D02*
X9185658Y-13764031D01*
X9185658Y-13764031D02*
X9195182Y-13735460D01*
X9195182Y-13735460D02*
X9204706Y-13687841D01*
X9204706Y-13687841D02*
X9204706Y-13649746D01*
X9204706Y-13649746D02*
X9195182Y-13602127D01*
X9195182Y-13602127D02*
X9185658Y-13573555D01*
X9185658Y-13573555D02*
X9176134Y-13554508D01*
X9176134Y-13554508D02*
X9157087Y-13525936D01*
X9157087Y-13525936D02*
X9147563Y-13516412D01*
X4172500Y-13858500D02*
X4372500Y-14058500D01*
X4372500Y-13858500D02*
X4172500Y-14058500D01*
X4343211Y-14029211D02*
X4343211Y-13887789D01*
X4201789Y-13887789D01*
X4201789Y-14029211D01*
X4343211Y-14029211D01*
X4614229Y-13849984D02*
X4738039Y-13849984D01*
X4738039Y-13849984D02*
X4671372Y-13926174D01*
X4671372Y-13926174D02*
X4699944Y-13926174D01*
X4699944Y-13926174D02*
X4718991Y-13935698D01*
X4718991Y-13935698D02*
X4728515Y-13945222D01*
X4728515Y-13945222D02*
X4738039Y-13964269D01*
X4738039Y-13964269D02*
X4738039Y-14011888D01*
X4738039Y-14011888D02*
X4728515Y-14030936D01*
X4728515Y-14030936D02*
X4718991Y-14040460D01*
X4718991Y-14040460D02*
X4699944Y-14049984D01*
X4699944Y-14049984D02*
X4642801Y-14049984D01*
X4642801Y-14049984D02*
X4623753Y-14040460D01*
X4623753Y-14040460D02*
X4614229Y-14030936D01*
X4823753Y-14030936D02*
X4833277Y-14040460D01*
X4833277Y-14040460D02*
X4823753Y-14049984D01*
X4823753Y-14049984D02*
X4814229Y-14040460D01*
X4814229Y-14040460D02*
X4823753Y-14030936D01*
X4823753Y-14030936D02*
X4823753Y-14049984D01*
X4909467Y-13869031D02*
X4918991Y-13859508D01*
X4918991Y-13859508D02*
X4938039Y-13849984D01*
X4938039Y-13849984D02*
X4985658Y-13849984D01*
X4985658Y-13849984D02*
X5004705Y-13859508D01*
X5004705Y-13859508D02*
X5014229Y-13869031D01*
X5014229Y-13869031D02*
X5023753Y-13888079D01*
X5023753Y-13888079D02*
X5023753Y-13907127D01*
X5023753Y-13907127D02*
X5014229Y-13935698D01*
X5014229Y-13935698D02*
X4899944Y-14049984D01*
X4899944Y-14049984D02*
X5023753Y-14049984D01*
X5147563Y-13849984D02*
X5166610Y-13849984D01*
X5166610Y-13849984D02*
X5185658Y-13859508D01*
X5185658Y-13859508D02*
X5195182Y-13869031D01*
X5195182Y-13869031D02*
X5204705Y-13888079D01*
X5204705Y-13888079D02*
X5214229Y-13926174D01*
X5214229Y-13926174D02*
X5214229Y-13973793D01*
X5214229Y-13973793D02*
X5204705Y-14011888D01*
X5204705Y-14011888D02*
X5195182Y-14030936D01*
X5195182Y-14030936D02*
X5185658Y-14040460D01*
X5185658Y-14040460D02*
X5166610Y-14049984D01*
X5166610Y-14049984D02*
X5147563Y-14049984D01*
X5147563Y-14049984D02*
X5128515Y-14040460D01*
X5128515Y-14040460D02*
X5118991Y-14030936D01*
X5118991Y-14030936D02*
X5109467Y-14011888D01*
X5109467Y-14011888D02*
X5099944Y-13973793D01*
X5099944Y-13973793D02*
X5099944Y-13926174D01*
X5099944Y-13926174D02*
X5109467Y-13888079D01*
X5109467Y-13888079D02*
X5118991Y-13869031D01*
X5118991Y-13869031D02*
X5128515Y-13859508D01*
X5128515Y-13859508D02*
X5147563Y-13849984D01*
X5338039Y-13849984D02*
X5357086Y-13849984D01*
X5357086Y-13849984D02*
X5376134Y-13859508D01*
X5376134Y-13859508D02*
X5385658Y-13869031D01*
X5385658Y-13869031D02*
X5395182Y-13888079D01*
X5395182Y-13888079D02*
X5404705Y-13926174D01*
X5404705Y-13926174D02*
X5404705Y-13973793D01*
X5404705Y-13973793D02*
X5395182Y-14011888D01*
X5395182Y-14011888D02*
X5385658Y-14030936D01*
X5385658Y-14030936D02*
X5376134Y-14040460D01*
X5376134Y-14040460D02*
X5357086Y-14049984D01*
X5357086Y-14049984D02*
X5338039Y-14049984D01*
X5338039Y-14049984D02*
X5318991Y-14040460D01*
X5318991Y-14040460D02*
X5309467Y-14030936D01*
X5309467Y-14030936D02*
X5299944Y-14011888D01*
X5299944Y-14011888D02*
X5290420Y-13973793D01*
X5290420Y-13973793D02*
X5290420Y-13926174D01*
X5290420Y-13926174D02*
X5299944Y-13888079D01*
X5299944Y-13888079D02*
X5309467Y-13869031D01*
X5309467Y-13869031D02*
X5318991Y-13859508D01*
X5318991Y-13859508D02*
X5338039Y-13849984D01*
X5490420Y-14049984D02*
X5490420Y-13916650D01*
X5490420Y-13935698D02*
X5499944Y-13926174D01*
X5499944Y-13926174D02*
X5518991Y-13916650D01*
X5518991Y-13916650D02*
X5547563Y-13916650D01*
X5547563Y-13916650D02*
X5566610Y-13926174D01*
X5566610Y-13926174D02*
X5576134Y-13945222D01*
X5576134Y-13945222D02*
X5576134Y-14049984D01*
X5576134Y-13945222D02*
X5585658Y-13926174D01*
X5585658Y-13926174D02*
X5604705Y-13916650D01*
X5604705Y-13916650D02*
X5633277Y-13916650D01*
X5633277Y-13916650D02*
X5652324Y-13926174D01*
X5652324Y-13926174D02*
X5661848Y-13945222D01*
X5661848Y-13945222D02*
X5661848Y-14049984D01*
X5757086Y-14049984D02*
X5757086Y-13916650D01*
X5757086Y-13935698D02*
X5766610Y-13926174D01*
X5766610Y-13926174D02*
X5785658Y-13916650D01*
X5785658Y-13916650D02*
X5814229Y-13916650D01*
X5814229Y-13916650D02*
X5833277Y-13926174D01*
X5833277Y-13926174D02*
X5842801Y-13945222D01*
X5842801Y-13945222D02*
X5842801Y-14049984D01*
X5842801Y-13945222D02*
X5852324Y-13926174D01*
X5852324Y-13926174D02*
X5871372Y-13916650D01*
X5871372Y-13916650D02*
X5899943Y-13916650D01*
X5899943Y-13916650D02*
X5918991Y-13926174D01*
X5918991Y-13926174D02*
X5928515Y-13945222D01*
X5928515Y-13945222D02*
X5928515Y-14049984D01*
X6318991Y-13840460D02*
X6147563Y-14097603D01*
X6576134Y-13849984D02*
X6595182Y-13849984D01*
X6595182Y-13849984D02*
X6614229Y-13859508D01*
X6614229Y-13859508D02*
X6623753Y-13869031D01*
X6623753Y-13869031D02*
X6633277Y-13888079D01*
X6633277Y-13888079D02*
X6642801Y-13926174D01*
X6642801Y-13926174D02*
X6642801Y-13973793D01*
X6642801Y-13973793D02*
X6633277Y-14011888D01*
X6633277Y-14011888D02*
X6623753Y-14030936D01*
X6623753Y-14030936D02*
X6614229Y-14040460D01*
X6614229Y-14040460D02*
X6595182Y-14049984D01*
X6595182Y-14049984D02*
X6576134Y-14049984D01*
X6576134Y-14049984D02*
X6557086Y-14040460D01*
X6557086Y-14040460D02*
X6547563Y-14030936D01*
X6547563Y-14030936D02*
X6538039Y-14011888D01*
X6538039Y-14011888D02*
X6528515Y-13973793D01*
X6528515Y-13973793D02*
X6528515Y-13926174D01*
X6528515Y-13926174D02*
X6538039Y-13888079D01*
X6538039Y-13888079D02*
X6547563Y-13869031D01*
X6547563Y-13869031D02*
X6557086Y-13859508D01*
X6557086Y-13859508D02*
X6576134Y-13849984D01*
X6728515Y-14030936D02*
X6738039Y-14040460D01*
X6738039Y-14040460D02*
X6728515Y-14049984D01*
X6728515Y-14049984D02*
X6718991Y-14040460D01*
X6718991Y-14040460D02*
X6728515Y-14030936D01*
X6728515Y-14030936D02*
X6728515Y-14049984D01*
X6928515Y-14049984D02*
X6814229Y-14049984D01*
X6871372Y-14049984D02*
X6871372Y-13849984D01*
X6871372Y-13849984D02*
X6852325Y-13878555D01*
X6852325Y-13878555D02*
X6833277Y-13897603D01*
X6833277Y-13897603D02*
X6814229Y-13907127D01*
X7004706Y-13869031D02*
X7014229Y-13859508D01*
X7014229Y-13859508D02*
X7033277Y-13849984D01*
X7033277Y-13849984D02*
X7080896Y-13849984D01*
X7080896Y-13849984D02*
X7099944Y-13859508D01*
X7099944Y-13859508D02*
X7109467Y-13869031D01*
X7109467Y-13869031D02*
X7118991Y-13888079D01*
X7118991Y-13888079D02*
X7118991Y-13907127D01*
X7118991Y-13907127D02*
X7109467Y-13935698D01*
X7109467Y-13935698D02*
X6995182Y-14049984D01*
X6995182Y-14049984D02*
X7118991Y-14049984D01*
X7290420Y-13849984D02*
X7252325Y-13849984D01*
X7252325Y-13849984D02*
X7233277Y-13859508D01*
X7233277Y-13859508D02*
X7223753Y-13869031D01*
X7223753Y-13869031D02*
X7204706Y-13897603D01*
X7204706Y-13897603D02*
X7195182Y-13935698D01*
X7195182Y-13935698D02*
X7195182Y-14011888D01*
X7195182Y-14011888D02*
X7204706Y-14030936D01*
X7204706Y-14030936D02*
X7214229Y-14040460D01*
X7214229Y-14040460D02*
X7233277Y-14049984D01*
X7233277Y-14049984D02*
X7271372Y-14049984D01*
X7271372Y-14049984D02*
X7290420Y-14040460D01*
X7290420Y-14040460D02*
X7299944Y-14030936D01*
X7299944Y-14030936D02*
X7309467Y-14011888D01*
X7309467Y-14011888D02*
X7309467Y-13964269D01*
X7309467Y-13964269D02*
X7299944Y-13945222D01*
X7299944Y-13945222D02*
X7290420Y-13935698D01*
X7290420Y-13935698D02*
X7271372Y-13926174D01*
X7271372Y-13926174D02*
X7233277Y-13926174D01*
X7233277Y-13926174D02*
X7214229Y-13935698D01*
X7214229Y-13935698D02*
X7204706Y-13945222D01*
X7204706Y-13945222D02*
X7195182Y-13964269D01*
X7433277Y-13849984D02*
X7452325Y-13849984D01*
X7452325Y-13849984D02*
X7471372Y-13859508D01*
X7471372Y-13859508D02*
X7480896Y-13869031D01*
X7480896Y-13869031D02*
X7490420Y-13888079D01*
X7490420Y-13888079D02*
X7499944Y-13926174D01*
X7499944Y-13926174D02*
X7499944Y-13973793D01*
X7499944Y-13973793D02*
X7490420Y-14011888D01*
X7490420Y-14011888D02*
X7480896Y-14030936D01*
X7480896Y-14030936D02*
X7471372Y-14040460D01*
X7471372Y-14040460D02*
X7452325Y-14049984D01*
X7452325Y-14049984D02*
X7433277Y-14049984D01*
X7433277Y-14049984D02*
X7414229Y-14040460D01*
X7414229Y-14040460D02*
X7404706Y-14030936D01*
X7404706Y-14030936D02*
X7395182Y-14011888D01*
X7395182Y-14011888D02*
X7385658Y-13973793D01*
X7385658Y-13973793D02*
X7385658Y-13926174D01*
X7385658Y-13926174D02*
X7395182Y-13888079D01*
X7395182Y-13888079D02*
X7404706Y-13869031D01*
X7404706Y-13869031D02*
X7414229Y-13859508D01*
X7414229Y-13859508D02*
X7433277Y-13849984D01*
X7576134Y-13849984D02*
X7576134Y-13888079D01*
X7652325Y-13849984D02*
X7652325Y-13888079D01*
X7947563Y-14126174D02*
X7938039Y-14116650D01*
X7938039Y-14116650D02*
X7918991Y-14088079D01*
X7918991Y-14088079D02*
X7909468Y-14069031D01*
X7909468Y-14069031D02*
X7899944Y-14040460D01*
X7899944Y-14040460D02*
X7890420Y-13992841D01*
X7890420Y-13992841D02*
X7890420Y-13954746D01*
X7890420Y-13954746D02*
X7899944Y-13907127D01*
X7899944Y-13907127D02*
X7909468Y-13878555D01*
X7909468Y-13878555D02*
X7918991Y-13859508D01*
X7918991Y-13859508D02*
X7938039Y-13830936D01*
X7938039Y-13830936D02*
X7947563Y-13821412D01*
X8109468Y-13916650D02*
X8109468Y-14049984D01*
X8061848Y-13840460D02*
X8014229Y-13983317D01*
X8014229Y-13983317D02*
X8138039Y-13983317D01*
X8366610Y-14049984D02*
X8366610Y-13849984D01*
X8452325Y-14049984D02*
X8452325Y-13945222D01*
X8452325Y-13945222D02*
X8442801Y-13926174D01*
X8442801Y-13926174D02*
X8423753Y-13916650D01*
X8423753Y-13916650D02*
X8395182Y-13916650D01*
X8395182Y-13916650D02*
X8376134Y-13926174D01*
X8376134Y-13926174D02*
X8366610Y-13935698D01*
X8576134Y-14049984D02*
X8557087Y-14040460D01*
X8557087Y-14040460D02*
X8547563Y-14030936D01*
X8547563Y-14030936D02*
X8538039Y-14011888D01*
X8538039Y-14011888D02*
X8538039Y-13954746D01*
X8538039Y-13954746D02*
X8547563Y-13935698D01*
X8547563Y-13935698D02*
X8557087Y-13926174D01*
X8557087Y-13926174D02*
X8576134Y-13916650D01*
X8576134Y-13916650D02*
X8604706Y-13916650D01*
X8604706Y-13916650D02*
X8623753Y-13926174D01*
X8623753Y-13926174D02*
X8633277Y-13935698D01*
X8633277Y-13935698D02*
X8642801Y-13954746D01*
X8642801Y-13954746D02*
X8642801Y-14011888D01*
X8642801Y-14011888D02*
X8633277Y-14030936D01*
X8633277Y-14030936D02*
X8623753Y-14040460D01*
X8623753Y-14040460D02*
X8604706Y-14049984D01*
X8604706Y-14049984D02*
X8576134Y-14049984D01*
X8757087Y-14049984D02*
X8738039Y-14040460D01*
X8738039Y-14040460D02*
X8728515Y-14021412D01*
X8728515Y-14021412D02*
X8728515Y-13849984D01*
X8909468Y-14040460D02*
X8890420Y-14049984D01*
X8890420Y-14049984D02*
X8852325Y-14049984D01*
X8852325Y-14049984D02*
X8833277Y-14040460D01*
X8833277Y-14040460D02*
X8823753Y-14021412D01*
X8823753Y-14021412D02*
X8823753Y-13945222D01*
X8823753Y-13945222D02*
X8833277Y-13926174D01*
X8833277Y-13926174D02*
X8852325Y-13916650D01*
X8852325Y-13916650D02*
X8890420Y-13916650D01*
X8890420Y-13916650D02*
X8909468Y-13926174D01*
X8909468Y-13926174D02*
X8918992Y-13945222D01*
X8918992Y-13945222D02*
X8918992Y-13964269D01*
X8918992Y-13964269D02*
X8823753Y-13983317D01*
X8995182Y-14040460D02*
X9014230Y-14049984D01*
X9014230Y-14049984D02*
X9052325Y-14049984D01*
X9052325Y-14049984D02*
X9071373Y-14040460D01*
X9071373Y-14040460D02*
X9080896Y-14021412D01*
X9080896Y-14021412D02*
X9080896Y-14011888D01*
X9080896Y-14011888D02*
X9071373Y-13992841D01*
X9071373Y-13992841D02*
X9052325Y-13983317D01*
X9052325Y-13983317D02*
X9023753Y-13983317D01*
X9023753Y-13983317D02*
X9004706Y-13973793D01*
X9004706Y-13973793D02*
X8995182Y-13954746D01*
X8995182Y-13954746D02*
X8995182Y-13945222D01*
X8995182Y-13945222D02*
X9004706Y-13926174D01*
X9004706Y-13926174D02*
X9023753Y-13916650D01*
X9023753Y-13916650D02*
X9052325Y-13916650D01*
X9052325Y-13916650D02*
X9071373Y-13926174D01*
X9147563Y-14126174D02*
X9157087Y-14116650D01*
X9157087Y-14116650D02*
X9176134Y-14088079D01*
X9176134Y-14088079D02*
X9185658Y-14069031D01*
X9185658Y-14069031D02*
X9195182Y-14040460D01*
X9195182Y-14040460D02*
X9204706Y-13992841D01*
X9204706Y-13992841D02*
X9204706Y-13954746D01*
X9204706Y-13954746D02*
X9195182Y-13907127D01*
X9195182Y-13907127D02*
X9185658Y-13878555D01*
X9185658Y-13878555D02*
X9176134Y-13859508D01*
X9176134Y-13859508D02*
X9157087Y-13830936D01*
X9157087Y-13830936D02*
X9147563Y-13821412D01*
M02*
