M48
; DRILL file {KiCad 8.0.4} date 2024-07-30T17:50:01-0400
; FORMAT={-:-/ absolute / metric / decimal}
; #@! TF.CreationDate,2024-07-30T17:50:01-04:00
; #@! TF.GenerationSoftware,Kicad,Pcbnew,8.0.4
; #@! TF.FileFunction,Plated,1,2,PTH
FMAT,2
METRIC
; #@! TA.AperFunction,Plated,PTH,ViaDrill
T1C0.300
; #@! TA.AperFunction,Plated,PTH,ComponentDrill
T2C1.100
; #@! TA.AperFunction,Plated,PTH,ComponentDrill
T3C1.300
; #@! TA.AperFunction,Plated,PTH,ComponentDrill
T4C1.600
; #@! TA.AperFunction,Plated,PTH,ComponentDrill
T5C1.800
; #@! TA.AperFunction,Plated,PTH,ComponentDrill
T6C1.850
; #@! TA.AperFunction,Plated,PTH,ComponentDrill
T7C3.200
%
G90
G05
T1
X57.0Y-93.0
X59.0Y-93.5
X65.5Y-93.5
X70.5Y-86.5
X72.0Y-93.5
X78.5Y-93.5
X79.0Y-87.0
X85.0Y-93.5
X94.5Y-76.0
X95.05Y-86.0
X95.05Y-93.5
T2
X143.46Y-114.73
X148.54Y-114.73
T3
X71.76Y-110.0
X76.84Y-110.0
X81.92Y-110.0
X87.0Y-110.0
X92.08Y-110.0
T4
X151.88Y-62.66
X156.96Y-62.66
X162.04Y-62.66
X167.12Y-62.66
T5
X57.9Y-64.222
X57.9Y-69.722
X62.1Y-64.222
X62.1Y-69.722
X66.3Y-64.222
X66.3Y-69.722
X70.5Y-64.222
X70.5Y-69.722
X74.7Y-64.222
X74.7Y-69.722
X78.9Y-64.222
X78.9Y-69.722
X83.1Y-64.222
X83.1Y-69.722
X87.3Y-64.222
X87.3Y-69.722
X91.5Y-64.222
X91.5Y-69.722
X95.7Y-64.222
X95.7Y-69.722
X99.9Y-64.222
X99.9Y-69.722
X104.1Y-64.222
X104.1Y-69.722
X125.6Y-64.0
X125.6Y-69.5
X129.8Y-64.0
X129.8Y-69.5
X134.0Y-64.0
X134.0Y-69.5
X138.2Y-64.0
X138.2Y-69.5
X160.965Y-76.984
X160.965Y-81.184
X160.965Y-85.384
X160.965Y-89.584
X165.165Y-76.984
X165.165Y-81.184
X165.165Y-85.384
X165.165Y-89.584
T6
X52.792Y-77.0
X57.492Y-77.0
X62.192Y-77.0
X142.308Y-89.5
X147.007Y-89.5
X151.707Y-89.5
T7
X50.0Y-53.0
X50.0Y-115.0
X113.0Y-53.0
X113.0Y-115.0
X176.0Y-52.95
X176.0Y-115.0
M30
